<svg width="449" height="448" viewBox="0 0 449 448" fill="none" xmlns="http://www.w3.org/2000/svg">
<rect width="447.401" height="447.401" transform="translate(0.943359 0.260742)" fill="white"/>
<g clip-path="url(#clip0_1243_9780)">
<path d="M302.295 295.068C300.331 296.781 295.75 302.29 293.002 299.529C291.25 297.776 289.71 295.772 288.077 293.913C282.116 287.103 276.142 280.305 270.181 273.495C268.787 271.901 266.158 270.016 267.048 267.64C267.751 265.755 270.021 264.308 271.482 263.02C272.942 261.732 275.372 259.21 277.483 260.776C277.974 261.135 278.372 261.759 278.77 262.21L281.744 265.595L290.732 275.858C294.038 279.628 297.343 283.399 300.649 287.182C301.525 288.191 302.441 289.174 303.291 290.196C304.645 291.829 303.756 293.701 302.295 295.068C300.424 296.821 303.238 299.635 305.11 297.883C307.911 295.254 309.133 291.006 306.504 287.833C306.053 287.288 305.575 286.771 305.11 286.253L296.573 276.508L286.112 264.56C284.28 262.476 282.541 260.272 280.602 258.28C278.053 255.652 274.031 256.01 271.216 258.041C269.451 259.316 267.871 260.909 266.238 262.343C263.888 264.401 262.149 267.427 263.078 270.627C263.45 271.901 264.313 272.831 265.162 273.787C271.309 280.796 277.456 287.819 283.603 294.829C285.807 297.338 287.904 300.007 290.241 302.396C293.148 305.384 297.543 304.428 300.45 301.985C302.03 300.644 303.57 299.25 305.123 297.896C307.048 296.21 304.234 293.395 302.309 295.081L302.295 295.068Z" fill="#221F20"/>
<path d="M164.212 246.465C164.132 252.784 160.229 258.652 154.202 260.816C148.174 262.98 141.231 261.135 137.116 256.143C133 251.151 132.575 243.969 135.907 238.512C139.24 233.056 145.665 230.228 151.839 231.463C159.008 232.91 164.119 239.176 164.212 246.465C164.252 249.027 168.235 249.027 168.195 246.465C168.088 238.366 163.083 231.171 155.463 228.356C147.843 225.542 139.2 228.011 134.155 234.145C129.11 240.278 128.207 249.465 132.456 256.435C136.704 263.405 144.776 266.83 152.662 265.356C161.663 263.67 168.062 255.492 168.181 246.465C168.221 243.902 164.238 243.902 164.199 246.465H164.212Z" fill="#221F20"/>
<path d="M182.174 214.164C173.85 212.518 168.301 204.26 170.584 195.91C172.961 187.254 182.427 183.151 190.565 186.444C192.941 187.4 193.977 183.55 191.627 182.607C183.688 179.394 174.581 182.129 169.562 189.006C164.544 195.883 165.075 204.818 170.027 211.19C172.775 214.722 176.731 217.151 181.126 218.014C183.635 218.505 184.697 214.669 182.188 214.177L182.174 214.164Z" fill="#221F20"/>
<path d="M316.461 164.843C316.381 170.897 312.651 176.473 306.889 178.544C301.127 180.615 294.476 178.81 290.56 174.03C286.643 169.251 286.271 162.533 289.378 157.356C292.485 152.178 298.618 149.364 304.539 150.492C311.443 151.82 316.381 157.847 316.474 164.83C316.514 167.392 320.497 167.392 320.457 164.83C320.351 157.103 315.611 150.2 308.363 147.438C301.114 144.677 292.511 146.987 287.612 152.988C282.713 158.989 281.93 167.618 285.94 174.322C289.949 181.027 297.755 184.425 305.376 183.058C314.111 181.491 320.338 173.566 320.457 164.83C320.497 162.268 316.514 162.268 316.474 164.83L316.461 164.843Z" fill="#221F20"/>
<path d="M178.656 215.717C174.302 221.838 169.934 227.945 165.579 234.065C164.955 234.941 164.331 235.817 163.694 236.694C163.057 237.57 163.535 238.911 164.411 239.415C165.407 239.999 166.509 239.574 167.133 238.698C171.487 232.578 175.855 226.471 180.209 220.351C180.833 219.475 181.457 218.598 182.095 217.722C182.732 216.846 182.254 215.505 181.378 215.001C180.382 214.416 179.28 214.841 178.656 215.717Z" fill="#221F20"/>
<path d="M155.516 230.414C159.87 224.294 164.238 218.187 168.593 212.067C169.217 211.19 169.841 210.314 170.478 209.438C171.115 208.562 170.637 207.221 169.761 206.716C168.765 206.132 167.663 206.557 167.039 207.433C162.685 213.554 158.317 219.66 153.963 225.781C153.339 226.657 152.715 227.533 152.077 228.409C151.44 229.286 151.918 230.626 152.794 231.131C153.79 231.715 154.892 231.29 155.516 230.414Z" fill="#221F20"/>
<path d="M197.147 195.534L192.209 208.938L241.219 226.99L246.156 213.585L197.147 195.534Z" fill="#C5D8E3"/>
<path d="M264.326 222.621L253.108 213.792L273.845 187.466L281.585 201.1L264.326 222.621Z" fill="#C5D8E3"/>
<path d="M276.142 188.169C279.275 184.213 282.422 180.244 285.555 176.287C285.993 175.73 286.431 175.186 286.869 174.628C287.533 173.792 287.692 172.637 286.869 171.813C286.179 171.123 284.719 170.964 284.055 171.813C280.922 175.77 277.775 179.739 274.642 183.695C274.204 184.253 273.766 184.797 273.328 185.355C272.664 186.191 272.505 187.346 273.328 188.169C274.018 188.86 275.478 189.019 276.142 188.169Z" fill="#221F20"/>
<path d="M295.259 180.682C290.852 186.244 286.444 191.807 282.036 197.37C281.426 198.153 280.802 198.923 280.191 199.706C279.527 200.542 279.368 201.697 280.191 202.521C280.881 203.211 282.342 203.37 283.006 202.521C287.413 196.958 291.821 191.395 296.228 185.833C296.839 185.049 297.463 184.279 298.074 183.496C298.738 182.66 298.897 181.505 298.074 180.682C297.383 179.991 295.923 179.832 295.259 180.682Z" fill="#221F20"/>
<path d="M255.02 239.017C264.17 239.017 271.588 231.599 271.588 222.448C271.588 213.298 264.17 205.88 255.02 205.88C245.869 205.88 238.451 213.298 238.451 222.448C238.451 231.599 245.869 239.017 255.02 239.017Z" fill="url(#paint0_linear_1243_9780)"/>
<path d="M182.4 217.404C183.569 217.642 184.777 217.762 186.011 217.762C195.929 217.762 203.96 209.73 203.96 199.813C203.96 193.175 200.349 187.373 194.986 184.267C192.371 186.683 187.591 191.768 184.644 199.773C181.882 207.314 182.055 213.885 182.387 217.39L182.4 217.404Z" fill="url(#paint1_linear_1243_9780)"/>
<path d="M282.767 198.91C278.253 187.479 270.088 177.827 259.374 171.747C250.413 166.662 239.978 164.246 229.689 164.95C207.213 166.49 187.631 182.381 181.763 204.22C175.868 226.179 185.002 250.022 203.96 262.502C220.608 273.455 242.593 274.039 259.826 264.068C279.514 252.678 289.803 229.312 285.183 207.075C284.599 204.287 283.776 201.565 282.767 198.896C281.864 196.533 278 197.556 278.93 199.959C282.859 210.221 283.47 221.506 280.337 232.06C277.443 241.805 271.469 250.553 263.477 256.82C249.298 267.932 229.331 270.401 212.921 262.9C194.202 254.35 182.586 234.808 184.073 214.283C185.56 193.759 201.77 174.508 222.732 169.915C243.695 165.321 264.207 174.601 275.027 192.152C276.553 194.635 277.868 197.237 278.93 199.945C279.859 202.295 283.709 201.273 282.767 198.883V198.91Z" fill="#221F20"/>
</g>
<defs>
<linearGradient id="paint0_linear_1243_9780" x1="238.451" y1="222.448" x2="271.588" y2="222.448" gradientUnits="userSpaceOnUse">
<stop stop-color="#9BCB9E"/>
<stop offset="1" stop-color="#78C1C4"/>
</linearGradient>
<linearGradient id="paint1_linear_1243_9780" x1="182.214" y1="201.021" x2="203.96" y2="201.021" gradientUnits="userSpaceOnUse">
<stop stop-color="#9BCB9E"/>
<stop offset="1" stop-color="#78C1C4"/>
</linearGradient>
<clipPath id="clip0_1243_9780">
<rect width="190.723" height="157.958" fill="white" transform="translate(129.721 146.297)"/>
</clipPath>
</defs>
</svg>
