<svg width="40" height="40" viewBox="0 0 40 40" fill="none" xmlns="http://www.w3.org/2000/svg">
<rect width="40" height="40" fill="white"/>
<g clip-path="url(#clip0_1202_5022)">
<path d="M21.7746 18.866L15.5893 12.6957L10.8788 17.5416L9.90063 16.5935L15.5743 10.7694L21.7295 16.9246L28.7726 9.30957L29.7659 10.2276L21.7746 18.866Z" fill="#0565AD"/>
<path d="M10.3069 19.1064C11.4705 19.1064 12.4138 18.1631 12.4138 16.9995C12.4138 15.8359 11.4705 14.8926 10.3069 14.8926C9.14325 14.8926 8.19995 15.8359 8.19995 16.9995C8.19995 18.1631 9.14325 19.1064 10.3069 19.1064Z" fill="#0565AD"/>
<path d="M12.3837 16.9999C12.3837 17.8578 11.8419 18.6403 11.0293 18.9263C10.2166 19.2122 9.29858 18.9564 8.7568 18.2942C8.21502 17.632 8.13978 16.6688 8.57621 15.9314C9.01265 15.194 9.88551 14.8027 10.7283 14.9683C11.6914 15.1639 12.3687 16.0067 12.3837 16.9849C12.3837 17.0601 12.5041 17.0601 12.5041 16.9849C12.5041 16.097 11.9473 15.2843 11.1045 14.9683C10.2617 14.6522 9.23839 14.9081 8.66651 15.6304C8.09463 16.3528 8.01938 17.331 8.48591 18.1136C8.95245 18.8962 9.85541 19.2875 10.7433 19.1219C11.7667 18.9263 12.4891 18.0233 12.5041 16.9999C12.5041 16.9247 12.3988 16.9247 12.3837 16.9999Z" fill="#0565AD"/>
<path d="M15.5742 13.8388C16.7378 13.8388 17.6811 12.8955 17.6811 11.7319C17.6811 10.5683 16.7378 9.625 15.5742 9.625C14.4106 9.625 13.4673 10.5683 13.4673 11.7319C13.4673 12.8955 14.4106 13.8388 15.5742 13.8388Z" fill="#0565AD"/>
<path d="M17.6511 11.7324C17.6511 12.5902 17.1093 13.3727 16.2966 13.6587C15.4839 13.9446 14.5659 13.6888 14.0241 13.0266C13.4824 12.3644 13.4071 11.4013 13.8435 10.6638C14.28 9.92643 15.1528 9.53514 15.9956 9.70068C16.9588 9.89633 17.636 10.7391 17.6511 11.7173C17.6511 11.7926 17.7714 11.7926 17.7714 11.7173C17.7714 10.8294 17.2146 10.0167 16.3719 9.70068C15.5291 9.38465 14.5057 9.64049 13.9338 10.3629C13.362 11.0852 13.2867 12.0634 13.7532 12.846C14.2198 13.6286 15.1227 14.0199 16.0107 13.8543C17.034 13.6587 17.7564 12.7557 17.7714 11.7324C17.7714 11.6571 17.6661 11.6571 17.6511 11.7324Z" fill="#0565AD"/>
<path d="M28.8176 12.0332C29.9812 12.0332 30.9245 11.0899 30.9245 9.92626C30.9245 8.76264 29.9812 7.81934 28.8176 7.81934C27.654 7.81934 26.7107 8.76264 26.7107 9.92626C26.7107 11.0899 27.654 12.0332 28.8176 12.0332Z" fill="#0565AD"/>
<path d="M30.8945 9.92629C30.8945 10.7841 30.3527 11.5667 29.54 11.8526C28.7273 12.1386 27.8093 11.8827 27.2675 11.2205C26.7258 10.5584 26.6505 9.59521 27.087 8.85778C27.5234 8.12036 28.3963 7.74412 29.239 7.90967C30.2022 8.10531 30.8794 8.94808 30.8945 9.92629C30.8945 10.0015 31.0149 10.0015 31.0149 9.92629C31.0149 9.03838 30.458 8.22571 29.6153 7.90967C28.7725 7.59363 27.7491 7.84947 27.1773 8.57184C26.6054 9.29422 26.5301 10.2724 26.9967 11.055C27.4632 11.8376 28.3662 12.2289 29.2541 12.0633C30.2774 11.8677 30.9998 10.9647 31.0149 9.94134C31.0149 9.8661 30.9095 9.8661 30.8945 9.94134V9.92629Z" fill="#0565AD"/>
<path d="M21.9702 20.9127C23.7572 20.9127 25.2059 19.464 25.2059 17.677C25.2059 15.89 23.7572 14.4414 21.9702 14.4414C20.1833 14.4414 18.7346 15.89 18.7346 17.677C18.7346 19.464 20.1833 20.9127 21.9702 20.9127Z" fill="#0565AD"/>
<path d="M25.1758 17.6763C25.1758 19.0006 24.333 20.2046 23.0839 20.6561C21.8348 21.1076 20.3901 20.7313 19.5473 19.6929C18.7045 18.6545 18.5841 17.1646 19.2764 16.0209C19.9687 14.8771 21.3231 14.2751 22.6324 14.546C24.1073 14.847 25.1758 16.1714 25.1758 17.6612C25.1758 17.7365 25.2962 17.7365 25.2962 17.6612C25.2962 16.2917 24.4233 15.0426 23.1291 14.5611C21.8348 14.0795 20.3449 14.5009 19.457 15.5694C18.5691 16.6379 18.4637 18.188 19.1861 19.3769C19.9085 20.5658 21.293 21.1527 22.6324 20.8818C24.1675 20.5808 25.2811 19.1963 25.2962 17.6462C25.2962 17.571 25.1908 17.571 25.1758 17.6462V17.6763Z" fill="#0565AD"/>
<path d="M19.0507 10.6037C21.9552 9.53516 25.3564 10.4532 27.2978 12.846C29.2391 15.2238 29.5251 18.6401 27.9449 21.2737C26.3496 23.9375 23.2043 25.307 20.1643 24.7351C16.703 24.088 14.2348 20.9727 14.1897 17.5114C14.2348 14.4413 16.1461 11.6722 19.0507 10.6037ZM19.457 23.2753C21.895 24.1482 24.6641 23.4258 26.3346 21.4393C28.0051 19.4678 28.2158 16.5783 26.8914 14.366C25.5821 12.1688 22.9334 10.9799 20.4202 11.4916C17.5307 12.0635 15.4689 14.5918 15.4388 17.5114C15.4689 20.0547 17.0491 22.4024 19.4721 23.2753H19.457Z" fill="#223838"/>
<path d="M19.6976 10.6031C22.6022 9.51949 26.0034 10.4526 27.9447 12.8605C29.8861 15.2533 30.172 18.6846 28.5919 21.3333C26.9966 24.0121 23.8513 25.3816 20.8113 24.8097C17.3499 24.1626 14.8818 21.0323 14.8367 17.5559C14.8818 14.4708 16.7931 11.6866 19.6976 10.6031ZM20.104 23.3349C22.542 24.2228 25.3111 23.4854 26.9816 21.4988C28.6521 19.5274 28.8627 16.6078 27.5384 14.3955C26.2291 12.1983 23.5804 10.9943 21.0671 11.506C18.1776 12.0929 16.1159 14.6213 16.0858 17.5559C16.1159 20.0992 17.6961 22.462 20.119 23.3349H20.104Z" fill="#994200"/>
<path d="M22.1959 25.0061C21.7294 25.0061 21.2628 24.9609 20.7963 24.8706C17.35 24.2235 14.8066 21.1384 14.7615 17.5415C14.8066 14.4263 16.7781 11.597 19.6676 10.5285C22.6022 9.44495 26.0335 10.378 28.005 12.801C29.9915 15.239 30.2624 18.6853 28.6521 21.3641C27.2977 23.6516 24.7995 25.0061 22.1808 25.0061H22.1959ZM19.6977 10.6038L19.7278 10.679C16.8834 11.7325 14.9571 14.5016 14.912 17.5566C14.9571 21.0782 17.4403 24.1031 20.8113 24.7352C23.8513 25.3071 26.9515 23.9225 28.5167 21.2889C30.0818 18.6703 29.826 15.2992 27.8695 12.9063C25.9282 10.5285 22.5721 9.61049 19.7127 10.679L19.6826 10.6038H19.6977ZM22.2109 23.7871C21.5036 23.7871 20.7813 23.6667 20.0739 23.4108C17.666 22.538 16.0256 20.1902 15.9955 17.5566C16.0256 14.5919 18.1476 12.0034 21.0371 11.4315C23.5503 10.9198 26.2592 12.1237 27.5986 14.3661C28.938 16.6085 28.7123 19.5732 27.0418 21.5597C25.8228 23.0045 24.047 23.8021 22.2109 23.8021V23.7871ZM22.2109 11.4616C21.8347 11.4616 21.4434 11.4917 21.0672 11.582C18.2529 12.1538 16.1761 14.6671 16.146 17.5566C16.1761 20.13 17.7714 22.4176 20.1191 23.2754C22.527 24.1482 25.2509 23.4108 26.9064 21.4544C28.5317 19.513 28.7575 16.6235 27.4482 14.4414C26.3495 12.5903 24.2878 11.4616 22.1959 11.4616H22.2109Z" fill="black"/>
<path d="M18.6294 25.4123L16.8234 24.3438L12.6246 29.9873C12.2935 30.4388 12.1882 31.0257 12.3688 31.5675C12.6547 32.3952 13.5125 32.8918 14.3704 32.6962L14.6563 32.636C15.183 32.5156 15.6195 32.1544 15.8452 31.6578L18.6294 25.4123Z" fill="#223838"/>
<path d="M17.4523 23.2831L16.7051 24.5547L18.5086 25.6145L19.2558 24.343L17.4523 23.2831Z" fill="#223838"/>
<path d="M19.0356 25.6525L17.2297 24.584L13.0309 30.2275C12.6998 30.679 12.5944 31.2659 12.775 31.8077C13.061 32.6354 13.9188 33.1321 14.7766 32.9364L15.0626 32.8762C15.5893 32.7558 16.0257 32.3946 16.2515 31.898L19.0356 25.6525Z" fill="#A8CDD0"/>
<path d="M19.0807 25.6232L17.2748 24.5547C17.2748 24.5547 17.2146 24.5547 17.1996 24.5697L15.2582 27.1733C14.5208 28.1666 13.7683 29.1598 13.0309 30.1681C12.459 30.9507 12.5493 32.0493 13.3319 32.6513C13.7532 32.9824 14.295 33.1028 14.8218 32.9824C15.2883 32.877 15.7097 32.7416 16.0408 32.3653C16.3267 32.0493 16.4621 31.6129 16.6427 31.2366L17.5307 29.2652C18.0574 28.0913 18.5691 26.9174 19.0958 25.7436C19.0958 25.7285 19.1108 25.6984 19.1259 25.6834C19.156 25.6232 19.0507 25.563 19.0356 25.6232C18.6142 26.5713 18.1928 27.5345 17.7564 28.4826C17.2598 29.5963 16.7782 30.6949 16.2816 31.8085C16.1311 32.1396 15.9053 32.4255 15.6043 32.6061C15.213 32.8469 14.6111 32.9673 14.1596 32.8921C12.9406 32.6663 12.4138 31.2366 13.1362 30.2434C13.7833 29.3404 14.4606 28.4675 15.1227 27.5646L16.4922 25.7285L17.0039 25.0363C17.0942 24.9159 17.2146 24.7804 17.2899 24.645C17.2899 24.6299 17.32 24.6149 17.335 24.5848H17.2598C17.8617 24.961 18.4637 25.3072 19.0657 25.6683C19.1259 25.6984 19.1861 25.6081 19.1259 25.578L19.0807 25.6232Z" fill="#0565AD"/>
<path d="M17.8432 23.5341L17.0959 24.8057L18.8995 25.8655L19.6467 24.5939L17.8432 23.5341Z" fill="#AAABAD"/>
<path d="M17.064 24.8558L18.8699 25.9243C18.8699 25.9243 18.9301 25.9243 18.9452 25.9093C19.201 25.4879 19.4418 25.0665 19.6976 24.6301C19.7127 24.6 19.6976 24.5699 19.6826 24.5548L17.8767 23.4863C17.8767 23.4863 17.8165 23.4863 17.8014 23.5014L17.0489 24.7806C17.0489 24.7806 17.1091 24.901 17.1392 24.8408L17.8917 23.5616H17.8165C18.4184 23.9378 19.0204 24.2839 19.6224 24.6451V24.5699C19.3515 24.9913 19.0957 25.4127 18.8549 25.8491H18.9301C18.3282 25.4729 17.7262 25.1267 17.1242 24.7655C17.064 24.7354 17.0038 24.8257 17.064 24.8558Z" fill="black"/>
</g>
<defs>
<clipPath id="clip0_1202_5022">
<rect width="22.83" height="25.2831" fill="white" transform="translate(8.16992 7.75879)"/>
</clipPath>
</defs>
</svg>
