<svg width="448" height="449" viewBox="0 0 448 449" fill="none" xmlns="http://www.w3.org/2000/svg">
<rect width="447.401" height="447.401" transform="translate(0 0.662109)" fill="white"/>
<g clip-path="url(#clip0_1243_9773)">
<path d="M179.664 230.882V257.115C179.664 266.78 179.797 276.458 179.664 286.123C179.624 288.871 177.606 290.252 175.044 290.252C172.482 290.252 168.539 291.022 166.627 289.097C165.459 287.929 165.472 286.508 165.472 285.021V231.572C165.472 229.382 166.494 227.284 168.924 226.979C171.101 226.713 173.544 226.859 175.735 226.965C177.925 227.071 179.571 228.665 179.651 230.882C179.744 233.431 183.727 233.444 183.634 230.882C183.448 226.049 179.704 222.982 175.031 222.982C171.938 222.982 168.181 222.438 165.393 224.058C160.879 226.7 161.476 231.678 161.476 236.086V274.985C161.476 278.702 161.383 282.446 161.476 286.163C161.569 290.093 164.198 293.531 168.194 294.129C170.743 294.5 173.624 294.407 176.186 294.222C180.474 293.903 183.514 290.425 183.62 286.216C183.647 285.035 183.62 283.84 183.62 282.658V265.519C183.62 254.194 183.767 242.87 183.62 231.546C183.62 231.333 183.62 231.107 183.62 230.895C183.62 228.333 179.638 228.333 179.638 230.895L179.664 230.882Z" fill="#221F20"/>
<path d="M296.081 317.123C290.452 317.123 284.823 317.123 279.181 317.123H239.871C224.842 317.123 209.814 317.123 194.799 317.123H160.6C157.984 317.123 155.382 317.123 152.767 317.123C151.479 317.123 150.258 316.95 149.275 315.968C148.001 314.693 148.12 313.1 148.12 311.454C148.12 309.954 148.054 308.44 148.12 306.94C148.293 302.891 151.771 302.931 154.705 302.931H165.326C177.806 302.931 190.298 302.931 202.778 302.931H248.049C260.196 302.931 272.331 302.931 284.478 302.931H294.196C294.794 302.931 295.391 302.904 295.989 302.931C297.144 302.971 298.206 303.342 299.002 304.232C300.131 305.506 299.998 307.033 299.998 308.586C299.998 311.826 300.741 316.937 296.081 317.11C293.532 317.203 293.519 321.185 296.081 321.092C298.883 320.986 301.458 319.632 302.905 317.176C303.901 315.463 303.981 313.645 303.981 311.733C303.981 307.644 304.485 303.276 300.781 300.501C298.325 298.656 295.444 298.935 292.577 298.935C282.553 298.935 272.53 298.935 262.506 298.935C247.319 298.935 232.118 298.935 216.93 298.935C202.618 298.935 188.294 298.935 173.982 298.935C166.76 298.935 159.538 298.855 152.329 298.935C149.355 298.975 146.567 300.369 145.107 303.037C143.567 305.852 144.031 309.98 144.138 313.1C144.284 317.561 147.603 320.96 152.09 321.092C152.674 321.106 153.258 321.092 153.842 321.092C162.764 321.092 171.672 321.092 180.593 321.092C195.529 321.092 210.451 321.092 225.387 321.092C240.322 321.092 254.899 321.092 269.662 321.092H294.873C295.272 321.092 295.67 321.092 296.081 321.092C298.644 321.092 298.644 317.11 296.081 317.11V317.123Z" fill="#221F20"/>
<path d="M284.531 230.882V257.115C284.531 266.78 284.664 276.458 284.531 286.123C284.492 288.871 282.474 290.252 279.911 290.252C277.349 290.252 273.406 291.022 271.494 289.097C270.326 287.929 270.339 286.508 270.339 285.021V231.572C270.339 229.382 271.362 227.284 273.791 226.979C275.968 226.713 278.411 226.859 280.602 226.965C282.792 227.071 284.438 228.665 284.518 230.882C284.611 233.431 288.594 233.444 288.501 230.882C288.315 226.049 284.571 222.982 279.898 222.982C276.805 222.982 273.048 222.438 270.26 224.058C265.746 226.7 266.343 231.678 266.343 236.086V274.985C266.343 278.702 266.25 282.446 266.343 286.163C266.436 290.093 269.065 293.531 273.061 294.129C275.61 294.5 278.491 294.407 281.053 294.222C285.341 293.903 288.381 290.425 288.488 286.216C288.514 285.035 288.488 283.84 288.488 282.658V265.519C288.488 254.194 288.634 242.87 288.488 231.546C288.488 231.333 288.488 231.107 288.488 230.895C288.488 228.333 284.505 228.333 284.505 230.895L284.531 230.882Z" fill="#221F20"/>
<path d="M248.58 230.882V257.115C248.58 266.78 248.713 276.458 248.58 286.123C248.54 288.871 246.522 290.252 243.96 290.252C241.398 290.252 237.455 291.022 235.543 289.097C234.375 287.929 234.388 286.508 234.388 285.021V231.572C234.388 229.382 235.41 227.284 237.84 226.979C240.017 226.713 242.46 226.859 244.65 226.965C246.841 227.071 248.487 228.665 248.567 230.882C248.66 233.431 252.642 233.444 252.55 230.882C252.364 226.049 248.62 222.982 243.947 222.982C240.853 222.982 237.096 222.438 234.308 224.058C229.794 226.7 230.392 231.678 230.392 236.086V274.985C230.392 278.702 230.299 282.446 230.392 286.163C230.485 290.093 233.113 293.531 237.11 294.129C239.659 294.5 242.539 294.407 245.102 294.222C249.39 293.903 252.43 290.425 252.536 286.216C252.563 285.035 252.536 283.84 252.536 282.658V265.519C252.536 254.194 252.682 242.87 252.536 231.546C252.536 231.333 252.536 231.107 252.536 230.895C252.536 228.333 248.553 228.333 248.553 230.895L248.58 230.882Z" fill="#221F20"/>
<path d="M213.93 230.882V257.115C213.93 266.78 214.062 276.458 213.93 286.123C213.89 288.871 211.872 290.252 209.31 290.252C206.747 290.252 202.804 291.022 200.893 289.097C199.724 287.929 199.738 286.508 199.738 285.021V231.572C199.738 229.382 200.76 227.284 203.189 226.979C205.367 226.713 207.809 226.859 210 226.965C212.19 227.071 213.837 228.665 213.916 230.882C214.009 233.431 217.992 233.444 217.899 230.882C217.713 226.049 213.969 222.982 209.296 222.982C206.203 222.982 202.446 222.438 199.658 224.058C195.144 226.7 195.741 231.678 195.741 236.086V274.985C195.741 278.702 195.649 282.446 195.741 286.163C195.834 290.093 198.463 293.531 202.459 294.129C205.008 294.5 207.889 294.407 210.451 294.222C214.739 293.903 217.78 290.425 217.886 286.216C217.912 285.035 217.886 283.84 217.886 282.658V265.519C217.886 254.194 218.032 242.87 217.886 231.546C217.886 231.333 217.886 231.107 217.886 230.895C217.886 228.333 213.903 228.333 213.903 230.895L213.93 230.882Z" fill="#221F20"/>
<path d="M303.622 203.587L259.692 175.256C255.776 190.298 242.101 201.41 225.838 201.41C209.575 201.41 195.144 189.674 191.679 173.981L146.049 203.414C141.801 206.162 142.969 212.269 147.204 213.756C147.908 214.062 148.691 214.261 149.581 214.261H300.489C306.264 214.261 308.495 206.733 303.636 203.6L303.622 203.587Z" fill="#C5D8E3"/>
<path d="M225.838 129.44C210.81 129.533 197.162 138.733 191.52 152.673C185.559 167.37 190.086 184.974 202.38 194.984C214.673 204.994 231.6 206.136 244.903 198.117C258.205 190.098 265.507 173.317 261.803 157.745C257.86 141.256 242.685 129.546 225.838 129.44C223.276 129.427 223.276 133.41 225.838 133.423C239.035 133.503 251.235 141.495 256.32 153.735C261.843 167.038 257.86 182.65 246.854 191.851C236.247 200.732 220.621 201.794 208.818 194.678C196.538 187.27 190.312 172.295 193.83 158.355C197.507 143.778 210.863 133.516 225.838 133.41C228.4 133.396 228.4 129.414 225.838 129.427V129.44Z" fill="#221F20"/>
<path d="M225.984 187.204C225.228 187.204 224.484 187.204 223.727 187.204C223.064 187.204 222.785 186.951 222.771 186.274C222.758 185.239 222.771 184.217 222.771 183.181C222.771 182.929 222.692 182.823 222.44 182.756C218.855 181.853 215.802 180.048 213.332 177.3C213.186 177.14 213.027 176.981 212.881 176.809C212.456 176.264 212.456 175.906 212.947 175.415C213.584 174.777 214.248 174.153 214.912 173.529C215.576 172.892 216.253 172.268 216.917 171.631C217.673 170.914 218.058 170.901 218.855 171.578C219.851 172.414 220.807 173.29 221.922 173.954C223.701 175.016 225.573 175.534 227.644 175.123C229.317 174.791 230.233 173.742 230.259 172.135C230.259 171.538 230.047 171.06 229.622 170.649C228.772 169.825 227.723 169.334 226.635 168.949C224.418 168.179 222.214 167.396 220.169 166.254C218.324 165.232 216.651 163.984 215.496 162.165C212.483 157.412 214.208 151.465 219.293 149.009C220.249 148.544 221.245 148.186 222.294 147.986C222.705 147.907 222.798 147.734 222.785 147.349C222.758 146.473 222.771 145.597 222.785 144.72C222.785 143.964 223.13 143.632 223.887 143.632C225.267 143.632 226.648 143.632 228.029 143.632C228.865 143.632 229.29 144.07 229.29 144.893C229.29 145.703 229.303 146.513 229.29 147.309C229.29 147.654 229.37 147.787 229.728 147.854C232.649 148.424 235.185 149.739 237.375 151.743C238.49 152.766 238.49 153.283 237.455 154.385C236.366 155.54 235.277 156.695 234.189 157.85C233.552 158.528 233.1 158.567 232.383 157.97C231.547 157.293 230.737 156.589 229.794 156.071C228.281 155.222 226.688 154.97 224.989 155.408C224.59 155.514 224.219 155.66 223.887 155.899C222.851 156.642 222.718 158.089 223.608 159.005C224.192 159.603 224.909 159.961 225.679 160.24C227.365 160.851 229.078 161.422 230.764 162.046C232.649 162.736 234.494 163.519 236.101 164.767C238.251 166.427 239.38 168.591 239.539 171.299C239.818 176.397 236.817 180.074 232.888 181.827C231.866 182.278 230.803 182.637 229.702 182.836C229.396 182.889 229.263 182.995 229.277 183.34C229.303 184.27 229.277 185.212 229.277 186.142C229.277 186.951 228.998 187.23 228.201 187.23C227.458 187.23 226.728 187.23 225.984 187.23V187.204Z" fill="url(#paint0_linear_1243_9773)"/>
</g>
<defs>
<linearGradient id="paint0_linear_1243_9773" x1="212.575" y1="165.404" x2="239.552" y2="165.404" gradientUnits="userSpaceOnUse">
<stop stop-color="#9BCB9E"/>
<stop offset="1" stop-color="#78C1C4"/>
</linearGradient>
<clipPath id="clip0_1243_9773">
<rect width="162.897" height="191.679" fill="white" transform="translate(143.381 129.439)"/>
</clipPath>
</defs>
</svg>
