<svg width="449" height="449" viewBox="0 0 449 449" fill="none" xmlns="http://www.w3.org/2000/svg">
<rect width="447.401" height="447.401" transform="translate(0.98877 0.662109)" fill="white"/>
<g clip-path="url(#clip0_1243_9761)">
<path d="M180.653 230.882V257.115C180.653 266.78 180.786 276.458 180.653 286.123C180.613 288.871 178.595 290.252 176.033 290.252C173.471 290.252 169.528 291.022 167.616 289.097C166.448 287.929 166.461 286.508 166.461 285.021V231.572C166.461 229.382 167.483 227.284 169.913 226.979C172.09 226.713 174.533 226.859 176.724 226.965C178.914 227.071 180.56 228.665 180.64 230.882C180.733 233.431 184.716 233.444 184.623 230.882C184.437 226.049 180.693 222.982 176.02 222.982C172.927 222.982 169.17 222.438 166.382 224.058C161.868 226.7 162.465 231.678 162.465 236.086V274.985C162.465 278.702 162.372 282.446 162.465 286.163C162.558 290.093 165.187 293.531 169.183 294.129C171.732 294.5 174.613 294.407 177.175 294.222C181.463 293.903 184.503 290.425 184.61 286.216C184.636 285.035 184.61 283.84 184.61 282.658V265.519C184.61 254.194 184.756 242.87 184.61 231.546C184.61 231.333 184.61 231.107 184.61 230.895C184.61 228.333 180.627 228.333 180.627 230.895L180.653 230.882Z" fill="#221F20"/>
<path d="M297.07 317.123C291.441 317.123 285.812 317.123 280.17 317.123C267.067 317.123 253.963 317.123 240.86 317.123C225.831 317.123 210.803 317.123 195.788 317.123H161.589C158.973 317.123 156.371 317.123 153.756 317.123C152.468 317.123 151.247 316.95 150.264 315.968C148.99 314.693 149.109 313.1 149.109 311.454C149.109 309.954 149.043 308.44 149.109 306.94C149.282 302.891 152.76 302.931 155.694 302.931H166.315C178.795 302.931 191.287 302.931 203.767 302.931H249.038C261.185 302.931 273.32 302.931 285.467 302.931H295.185C295.783 302.931 296.38 302.904 296.978 302.931C298.133 302.971 299.195 303.342 299.991 304.232C301.12 305.506 300.987 307.033 300.987 308.586C300.987 311.826 301.73 316.937 297.07 317.11C294.521 317.203 294.508 321.185 297.07 321.092C299.872 320.986 302.447 319.632 303.894 317.176C304.89 315.463 304.97 313.645 304.97 311.733C304.97 307.644 305.474 303.276 301.77 300.501C299.314 298.656 296.433 298.935 293.566 298.935C283.542 298.935 273.519 298.935 263.495 298.935C248.308 298.935 233.107 298.935 217.919 298.935C203.607 298.935 189.283 298.935 174.971 298.935C167.749 298.935 160.527 298.855 153.318 298.935C150.344 298.975 147.556 300.369 146.096 303.037C144.556 305.852 145.02 309.98 145.127 313.1C145.273 317.561 148.592 320.96 153.079 321.092C153.663 321.106 154.247 321.092 154.831 321.092C163.753 321.092 172.661 321.092 181.582 321.092C196.518 321.092 211.44 321.092 226.376 321.092C241.311 321.092 255.888 321.092 270.651 321.092H295.862C296.261 321.092 296.659 321.092 297.07 321.092C299.633 321.092 299.633 317.11 297.07 317.11V317.123Z" fill="#221F20"/>
<path d="M285.52 230.882V257.115C285.52 266.78 285.653 276.458 285.52 286.123C285.481 288.871 283.463 290.252 280.9 290.252C278.338 290.252 274.395 291.022 272.483 289.097C271.315 287.929 271.328 286.508 271.328 285.021V231.572C271.328 229.382 272.351 227.284 274.78 226.979C276.957 226.713 279.4 226.859 281.591 226.965C283.781 227.071 285.428 228.665 285.507 230.882C285.6 233.431 289.583 233.444 289.49 230.882C289.304 226.049 285.56 222.982 280.887 222.982C277.794 222.982 274.037 222.438 271.249 224.058C266.735 226.7 267.332 231.678 267.332 236.086V274.985C267.332 278.702 267.239 282.446 267.332 286.163C267.425 290.093 270.054 293.531 274.05 294.129C276.599 294.5 279.48 294.407 282.042 294.222C286.33 293.903 289.37 290.425 289.477 286.216C289.503 285.035 289.477 283.84 289.477 282.658V265.519C289.477 254.194 289.623 242.87 289.477 231.546C289.477 231.333 289.477 231.107 289.477 230.895C289.477 228.333 285.494 228.333 285.494 230.895L285.52 230.882Z" fill="#221F20"/>
<path d="M249.569 230.882V257.115C249.569 266.78 249.702 276.458 249.569 286.123C249.529 288.871 247.511 290.252 244.949 290.252C242.386 290.252 238.443 291.022 236.532 289.097C235.363 287.929 235.377 286.508 235.377 285.021V231.572C235.377 229.382 236.399 227.284 238.828 226.979C241.006 226.713 243.449 226.859 245.639 226.965C247.83 227.071 249.476 228.665 249.556 230.882C249.648 233.431 253.631 233.444 253.538 230.882C253.352 226.049 249.609 222.982 244.935 222.982C241.842 222.982 238.085 222.438 235.297 224.058C230.783 226.7 231.381 231.678 231.381 236.086V274.985C231.381 278.702 231.288 282.446 231.381 286.163C231.474 290.093 234.102 293.531 238.098 294.129C240.647 294.5 243.528 294.407 246.09 294.222C250.379 293.903 253.419 290.425 253.525 286.216C253.552 285.035 253.525 283.84 253.525 282.658V265.519C253.525 254.194 253.671 242.87 253.525 231.546C253.525 231.333 253.525 231.107 253.525 230.895C253.525 228.333 249.542 228.333 249.542 230.895L249.569 230.882Z" fill="#221F20"/>
<path d="M214.918 230.882V257.115C214.918 266.78 215.051 276.458 214.918 286.123C214.879 288.871 212.861 290.252 210.298 290.252C207.736 290.252 203.793 291.022 201.881 289.097C200.713 287.929 200.726 286.508 200.726 285.021V231.572C200.726 229.382 201.749 227.284 204.178 226.979C206.355 226.713 208.798 226.859 210.989 226.965C213.179 227.071 214.825 228.665 214.905 230.882C214.998 233.431 218.981 233.444 218.888 230.882C218.702 226.049 214.958 222.982 210.285 222.982C207.192 222.982 203.435 222.438 200.647 224.058C196.133 226.7 196.73 231.678 196.73 236.086V274.985C196.73 278.702 196.637 282.446 196.73 286.163C196.823 290.093 199.452 293.531 203.448 294.129C205.997 294.5 208.878 294.407 211.44 294.222C215.728 293.903 218.768 290.425 218.875 286.216C218.901 285.035 218.875 283.84 218.875 282.658V265.519C218.875 254.194 219.021 242.87 218.875 231.546C218.875 231.333 218.875 231.107 218.875 230.895C218.875 228.333 214.892 228.333 214.892 230.895L214.918 230.882Z" fill="#221F20"/>
<path d="M304.611 203.587L260.681 175.256C256.764 190.298 243.09 201.41 226.827 201.41C210.564 201.41 196.133 189.674 192.668 173.981L147.038 203.414C142.79 206.162 143.958 212.269 148.193 213.756C148.897 214.062 149.68 214.261 150.57 214.261H301.478C307.253 214.261 309.483 206.733 304.624 203.6L304.611 203.587Z" fill="#C5D8E3"/>
<path d="M226.827 129.44C211.799 129.533 198.151 138.733 192.508 152.673C186.548 167.37 191.075 184.974 203.368 194.984C215.357 204.742 232.589 206.136 245.891 198.117C259.579 189.846 266.496 173.317 262.792 157.745C258.849 141.256 243.674 129.546 226.827 129.44C224.265 129.427 224.265 133.41 226.827 133.423C240.023 133.503 252.224 141.495 257.309 153.735C262.832 167.038 258.849 182.65 247.843 191.851C236.837 201.051 221.61 201.794 209.807 194.678C197.527 187.27 191.3 172.295 194.819 158.355C198.496 143.778 211.852 133.516 226.827 133.41C229.389 133.396 229.389 129.414 226.827 129.427V129.44Z" fill="#221F20"/>
<path d="M229.575 168.086C232.124 168.086 234.66 168.113 237.209 168.073C237.926 168.073 238.138 168.272 238.099 168.976C238.045 169.826 238.032 170.702 238.099 171.551C238.152 172.321 237.873 172.521 237.143 172.507C232.483 172.481 227.823 172.507 223.163 172.507C221.942 172.507 221.995 172.494 222.327 173.662C223.787 178.76 228.819 180.659 233.532 180.247C235.43 180.088 237.275 179.676 239.028 178.92C239.559 178.681 239.731 178.76 239.851 179.371C240.196 181.163 240.634 182.929 241.046 184.695C241.179 185.239 241.165 185.637 240.541 185.89C233.093 188.877 225.871 188.784 219.114 184.097C215.529 181.615 213.392 178.043 212.516 173.782C212.303 172.76 211.905 172.428 210.843 172.467C208.108 172.56 208.108 172.507 208.095 169.706C208.095 168.626 208.639 168.086 209.728 168.086C211.626 168.086 211.56 168.086 211.653 166.161C211.706 165.099 211.454 164.754 210.325 164.807C208.095 164.9 208.095 164.834 208.068 162.63C208.05 161.161 208.776 160.422 210.245 160.413C212.29 160.4 212.237 160.373 212.914 158.408C215.529 150.814 220.747 146.327 228.779 145.238C232.576 144.734 236.253 145.291 239.864 146.5C240.674 146.765 241.019 147.044 240.714 148C240.196 149.659 239.798 151.372 239.453 153.085C239.28 153.974 239.041 154.147 238.138 153.828C235.257 152.766 232.297 152.182 229.217 153.005C225.792 153.908 223.601 156.098 222.393 159.391C222.088 160.214 222.181 160.466 223.15 160.466C227.73 160.413 232.323 160.466 236.904 160.426C237.806 160.426 238.218 160.625 238.085 161.608C237.952 162.657 238.523 164.077 237.846 164.688C237.249 165.206 235.868 164.86 234.846 164.86C230.584 164.86 226.323 164.874 222.048 164.847C221.304 164.847 221.065 165.046 221.065 165.803C221.065 168.113 221.026 168.113 223.322 168.113C225.407 168.113 227.478 168.113 229.562 168.113L229.575 168.086Z" fill="url(#paint0_linear_1243_9761)"/>
</g>
<defs>
<linearGradient id="paint0_linear_1243_9761" x1="208.055" y1="166.493" x2="241.099" y2="166.493" gradientUnits="userSpaceOnUse">
<stop stop-color="#9BCB9E"/>
<stop offset="1" stop-color="#78C1C4"/>
</linearGradient>
<clipPath id="clip0_1243_9761">
<rect width="162.897" height="191.679" fill="white" transform="translate(144.37 129.439)"/>
</clipPath>
</defs>
</svg>
