<svg width="449" height="449" viewBox="0 0 449 449" fill="none" xmlns="http://www.w3.org/2000/svg">
<rect width="447.401" height="447.401" transform="translate(0.977539 0.662109)" fill="white"/>
<g clip-path="url(#clip0_1243_9767)">
<path d="M234.755 150.695C235.698 151.969 236.308 153.324 236.627 154.797C236.707 155.156 236.972 155.023 237.158 155.023C238.579 155.023 240.012 155.023 241.433 155.023C242.482 155.023 242.774 155.328 242.774 156.377C242.774 157.227 242.774 158.063 242.774 158.913C242.774 159.723 242.455 160.028 241.632 160.028C240.185 160.028 238.738 160.041 237.291 160.028C236.906 160.028 236.746 160.121 236.654 160.519C235.645 165.405 232.525 168.272 227.891 169.719C226.843 170.051 225.754 170.211 224.612 170.436C225.475 171.392 226.325 172.295 227.148 173.224C230.002 176.45 232.803 179.716 235.512 183.075C236.441 184.23 237.384 185.372 238.34 186.514C238.605 186.845 238.711 187.177 238.525 187.562C238.326 187.947 238.021 188.147 237.556 188.147C235.671 188.133 233.786 188.12 231.887 188.147C231.37 188.147 231.064 187.868 230.786 187.523C229.67 186.208 228.595 184.867 227.48 183.553C225.648 181.402 223.802 179.278 221.957 177.127C220.085 174.95 218.16 172.826 216.208 170.742C215.903 170.41 215.757 170.065 215.77 169.613C215.797 168.511 215.77 167.409 215.77 166.294C215.77 165.471 216.116 165.126 216.925 165.113C218.731 165.086 220.536 165.206 222.342 164.993C224.546 164.714 226.657 164.17 228.263 162.457C228.807 161.873 229.153 161.183 229.445 160.466C229.577 160.147 229.498 160.041 229.153 160.041C228.051 160.054 226.949 160.041 225.834 160.041C222.926 160.041 220.005 160.041 217.098 160.041C216.023 160.041 215.77 159.789 215.77 158.687C215.77 157.837 215.77 157.001 215.77 156.151C215.77 155.421 216.076 155.089 216.793 155.036C217.071 155.01 217.35 155.036 217.642 155.036C221.24 155.036 224.838 155.036 228.422 155.036C228.608 155.036 228.887 155.142 228.98 154.943C229.073 154.744 228.847 154.558 228.728 154.386C227.692 152.952 226.192 152.315 224.533 151.969C222.076 151.465 219.581 151.651 217.098 151.611C216.009 151.598 215.77 151.359 215.77 150.257C215.77 149.115 215.77 147.973 215.77 146.818C215.77 146.022 216.102 145.703 216.912 145.703C225.143 145.703 233.388 145.703 241.619 145.703C242.322 145.703 242.681 146.008 242.707 146.699C242.747 147.708 242.747 148.704 242.707 149.712C242.681 150.429 242.309 150.721 241.486 150.721C239.441 150.721 237.384 150.721 235.339 150.708C235.167 150.708 234.994 150.708 234.742 150.708L234.755 150.695Z" fill="url(#paint0_linear_1243_9767)"/>
<path d="M180.642 230.882V257.115C180.642 266.78 180.775 276.458 180.642 286.123C180.602 288.871 178.584 290.252 176.022 290.252C173.46 290.252 169.517 291.022 167.605 289.097C166.437 287.929 166.45 286.508 166.45 285.021V231.572C166.45 229.382 167.472 227.284 169.902 226.979C172.079 226.713 174.522 226.859 176.712 226.965C178.903 227.071 180.549 228.665 180.629 230.882C180.722 233.431 184.704 233.444 184.612 230.882C184.426 226.049 180.682 222.982 176.009 222.982C172.915 222.982 169.158 222.438 166.37 224.058C161.856 226.7 162.454 231.678 162.454 236.086V274.985C162.454 278.702 162.361 282.446 162.454 286.163C162.547 290.093 165.175 293.531 169.172 294.129C171.721 294.5 174.601 294.407 177.164 294.222C181.452 293.903 184.492 290.425 184.598 286.216C184.625 285.035 184.598 283.84 184.598 282.658V265.519C184.598 254.194 184.744 242.87 184.598 231.546C184.598 231.333 184.598 231.107 184.598 230.895C184.598 228.333 180.615 228.333 180.615 230.895L180.642 230.882Z" fill="#221F20"/>
<path d="M297.059 317.123C291.43 317.123 285.801 317.123 280.159 317.123H240.849C225.82 317.123 210.792 317.123 195.777 317.123H161.578C158.962 317.123 156.36 317.123 153.745 317.123C152.457 317.123 151.236 316.95 150.253 315.968C148.979 314.693 149.098 313.1 149.098 311.454C149.098 309.954 149.032 308.44 149.098 306.94C149.271 302.891 152.749 302.931 155.683 302.931H166.304C178.783 302.931 191.276 302.931 203.755 302.931H249.027C261.174 302.931 273.308 302.931 285.456 302.931H295.174C295.771 302.931 296.369 302.904 296.966 302.931C298.121 302.971 299.183 303.342 299.98 304.232C301.108 305.506 300.976 307.033 300.976 308.586C300.976 311.826 301.719 316.937 297.059 317.11C294.51 317.203 294.497 321.185 297.059 321.092C299.86 320.986 302.436 319.632 303.883 317.176C304.879 315.463 304.958 313.645 304.958 311.733C304.958 307.644 305.463 303.276 301.759 300.501C299.303 298.656 296.422 298.935 293.554 298.935C283.531 298.935 273.508 298.935 263.484 298.935C248.296 298.935 233.095 298.935 217.908 298.935C203.596 298.935 189.271 298.935 174.96 298.935C167.738 298.935 160.516 298.855 153.307 298.935C150.333 298.975 147.545 300.369 146.084 303.037C144.544 305.852 145.009 309.98 145.115 313.1C145.261 317.561 148.58 320.96 153.068 321.092C153.652 321.106 154.236 321.092 154.82 321.092C163.742 321.092 172.65 321.092 181.571 321.092C196.507 321.092 211.429 321.092 226.365 321.092C241.3 321.092 255.877 321.092 270.64 321.092H295.851C296.249 321.092 296.648 321.092 297.059 321.092C299.622 321.092 299.622 317.11 297.059 317.11V317.123Z" fill="#221F20"/>
<path d="M285.509 230.882V257.115C285.509 266.78 285.641 276.458 285.509 286.123C285.469 288.871 283.451 290.252 280.889 290.252C278.326 290.252 274.383 291.022 272.472 289.097C271.303 287.929 271.317 286.508 271.317 285.021V231.572C271.317 229.382 272.339 227.284 274.768 226.979C276.946 226.713 279.388 226.859 281.579 226.965C283.77 227.071 285.416 228.665 285.495 230.882C285.588 233.431 289.571 233.444 289.478 230.882C289.292 226.049 285.549 222.982 280.875 222.982C277.782 222.982 274.025 222.438 271.237 224.058C266.723 226.7 267.321 231.678 267.321 236.086V274.985C267.321 278.702 267.228 282.446 267.321 286.163C267.414 290.093 270.042 293.531 274.038 294.129C276.587 294.5 279.468 294.407 282.03 294.222C286.319 293.903 289.359 290.425 289.465 286.216C289.492 285.035 289.465 283.84 289.465 282.658V265.519C289.465 254.194 289.611 242.87 289.465 231.546C289.465 231.333 289.465 231.107 289.465 230.895C289.465 228.333 285.482 228.333 285.482 230.895L285.509 230.882Z" fill="#221F20"/>
<path d="M249.558 230.882V257.115C249.558 266.78 249.69 276.458 249.558 286.123C249.518 288.871 247.5 290.252 244.938 290.252C242.375 290.252 238.432 291.022 236.521 289.097C235.352 287.929 235.366 286.508 235.366 285.021V231.572C235.366 229.382 236.388 227.284 238.817 226.979C240.995 226.713 243.437 226.859 245.628 226.965C247.818 227.071 249.465 228.665 249.544 230.882C249.637 233.431 253.62 233.444 253.527 230.882C253.341 226.049 249.597 222.982 244.924 222.982C241.831 222.982 238.074 222.438 235.286 224.058C230.772 226.7 231.369 231.678 231.369 236.086V274.985C231.369 278.702 231.276 282.446 231.369 286.163C231.462 290.093 234.091 293.531 238.087 294.129C240.636 294.5 243.517 294.407 246.079 294.222C250.367 293.903 253.408 290.425 253.514 286.216C253.54 285.035 253.514 283.84 253.514 282.658V265.519C253.514 254.194 253.66 242.87 253.514 231.546C253.514 231.333 253.514 231.107 253.514 230.895C253.514 228.333 249.531 228.333 249.531 230.895L249.558 230.882Z" fill="#221F20"/>
<path d="M214.907 230.882V257.115C214.907 266.78 215.04 276.458 214.907 286.123C214.867 288.871 212.849 290.252 210.287 290.252C207.725 290.252 203.782 291.022 201.87 289.097C200.702 287.929 200.715 286.508 200.715 285.021V231.572C200.715 229.382 201.737 227.284 204.167 226.979C206.344 226.713 208.787 226.859 210.977 226.965C213.168 227.071 214.814 228.665 214.894 230.882C214.987 233.431 218.97 233.444 218.877 230.882C218.691 226.049 214.947 222.982 210.274 222.982C207.181 222.982 203.423 222.438 200.635 224.058C196.122 226.7 196.719 231.678 196.719 236.086V274.985C196.719 278.702 196.626 282.446 196.719 286.163C196.812 290.093 199.441 293.531 203.437 294.129C205.986 294.5 208.867 294.407 211.429 294.222C215.717 293.903 218.757 290.425 218.863 286.216C218.89 285.035 218.863 283.84 218.863 282.658V265.519C218.863 254.194 219.009 242.87 218.863 231.546C218.863 231.333 218.863 231.107 218.863 230.895C218.863 228.333 214.881 228.333 214.881 230.895L214.907 230.882Z" fill="#221F20"/>
<path d="M304.6 203.587L260.67 175.256C256.753 190.298 243.079 201.41 226.816 201.41C210.553 201.41 196.122 189.674 192.657 173.981L147.027 203.414C142.779 206.162 143.947 212.269 148.182 213.756C148.886 214.062 149.669 214.261 150.558 214.261H301.467C307.242 214.261 309.472 206.733 304.613 203.6L304.6 203.587Z" fill="#C5D8E3"/>
<path d="M226.816 129.44C211.787 129.533 198.14 138.733 192.497 152.673C186.536 167.37 191.063 184.974 203.357 194.984C215.345 204.742 232.578 206.136 245.88 198.117C259.568 189.846 266.484 173.317 262.78 157.745C258.837 141.256 243.663 129.546 226.816 129.44C224.253 129.427 224.253 133.41 226.816 133.423C240.012 133.503 252.213 141.495 257.297 153.735C262.82 167.038 258.837 182.65 247.832 191.851C237.224 200.732 221.598 201.794 209.796 194.678C197.516 187.27 191.289 172.295 194.807 158.355C198.485 143.778 211.84 133.516 226.816 133.41C229.378 133.396 229.378 129.414 226.816 129.427V129.44Z" fill="#221F20"/>
</g>
<defs>
<linearGradient id="paint0_linear_1243_9767" x1="215.77" y1="166.918" x2="242.774" y2="166.918" gradientUnits="userSpaceOnUse">
<stop stop-color="#9BCB9E"/>
<stop offset="1" stop-color="#78C1C4"/>
</linearGradient>
<clipPath id="clip0_1243_9767">
<rect width="162.897" height="191.679" fill="white" transform="translate(144.358 129.439)"/>
</clipPath>
</defs>
</svg>
