<svg width="40" height="40" viewBox="0 0 40 40" fill="none" xmlns="http://www.w3.org/2000/svg">
<rect width="40" height="40" fill="white"/>
<g clip-path="url(#clip0_1202_5112)">
<path d="M29.9159 27.9526L21.1644 32.739L9.04248 26.14L17.7799 21.3535L29.9159 27.9526Z" fill="#223838"/>
<path d="M29.9159 26.4091L21.1644 31.1956L9.04248 24.5823L9.12745 22.968L17.7799 19.7959L29.9442 24.8089L29.9159 26.4091Z" fill="#6E94D0"/>
<path d="M21.1644 31.2102L9.01416 24.597L9.11329 22.9543L17.7799 19.7822L29.9584 24.7952L29.9301 26.4096L21.1785 31.2102H21.1644ZM9.05664 24.5828L21.1785 31.1819L29.9159 26.4096L29.9442 24.8377L17.794 19.8389L9.14161 22.9826L9.04248 24.5828H9.05664Z" fill="#0565AD"/>
<path d="M29.9159 24.8515L21.1644 29.6379L9.04248 23.0247L17.7799 18.2383L29.9159 24.8515Z" fill="#E9EFF8"/>
<path d="M21.1644 29.6521L9 23.0247H9.02832L17.7799 18.21L29.9442 24.8373H29.9159L21.1644 29.6521ZM9.07081 23.0247L21.1644 29.6096L29.8734 24.8373L17.7799 18.2666L9.07081 23.0247Z" fill="#0565AD"/>
<path d="M13.3334 24.0587C14.4752 24.0587 15.4009 23.5769 15.4009 22.9825C15.4009 22.3881 14.4752 21.9062 13.3334 21.9062C12.1915 21.9062 11.2659 22.3881 11.2659 22.9825C11.2659 23.5769 12.1915 24.0587 13.3334 24.0587Z" fill="#375D97"/>
<path d="M13.3331 24.0871C12.1719 24.0871 11.2373 23.5914 11.2373 22.9825C11.2373 22.3736 12.1861 21.8779 13.3331 21.8779C14.4802 21.8779 15.429 22.3736 15.429 22.9825C15.429 23.5914 14.4943 24.0871 13.3331 24.0871ZM13.3331 21.9346C12.2144 21.9346 11.3081 22.4019 11.3081 22.9683C11.3081 23.5348 12.2144 24.0021 13.3331 24.0021C14.4519 24.0021 15.3582 23.5348 15.3582 22.9683C15.3582 22.4019 14.4519 21.9346 13.3331 21.9346Z" fill="#0565AD"/>
<path d="M17.1286 26.1828C18.2704 26.1828 19.1961 25.7009 19.1961 25.1065C19.1961 24.5121 18.2704 24.0303 17.1286 24.0303C15.9867 24.0303 15.061 24.5121 15.061 25.1065C15.061 25.7009 15.9867 26.1828 17.1286 26.1828Z" fill="#375D97"/>
<path d="M17.1425 26.2111C15.9813 26.2111 15.0466 25.7154 15.0466 25.1065C15.0466 24.4976 15.9954 24.002 17.1425 24.002C18.2895 24.002 19.2383 24.4976 19.2383 25.1065C19.2383 25.7154 18.3037 26.2111 17.1425 26.2111ZM17.1425 24.0728C16.0237 24.0728 15.1174 24.5401 15.1174 25.1065C15.1174 25.673 16.0237 26.1403 17.1425 26.1403C18.2612 26.1403 19.1675 25.673 19.1675 25.1065C19.1675 24.5401 18.2612 24.0728 17.1425 24.0728Z" fill="#0565AD"/>
<path d="M20.7819 28.3068C21.9237 28.3068 22.8494 27.8249 22.8494 27.2305C22.8494 26.6361 21.9237 26.1543 20.7819 26.1543C19.64 26.1543 18.7144 26.6361 18.7144 27.2305C18.7144 27.8249 19.64 28.3068 20.7819 28.3068Z" fill="#375D97"/>
<path d="M20.7821 28.3498C19.6209 28.3498 18.6863 27.8541 18.6863 27.2452C18.6863 26.6363 19.6209 26.1406 20.7821 26.1406C21.9433 26.1406 22.878 26.6363 22.878 27.2452C22.878 27.8541 21.9292 28.3498 20.7821 28.3498ZM20.7821 26.1973C19.6634 26.1973 18.7571 26.6646 18.7571 27.231C18.7571 27.7975 19.6634 28.2648 20.7821 28.2648C21.9008 28.2648 22.8071 27.7975 22.8071 27.231C22.8071 26.6646 21.9008 26.1973 20.7821 26.1973Z" fill="#0565AD"/>
<path d="M21.8866 23.4357C23.0285 23.4357 23.9541 22.9538 23.9541 22.3594C23.9541 21.7651 23.0285 21.2832 21.8866 21.2832C20.7448 21.2832 19.8191 21.7651 19.8191 22.3594C19.8191 22.9538 20.7448 23.4357 21.8866 23.4357Z" fill="#375D97"/>
<path d="M21.8866 23.4777C20.7254 23.4777 19.7908 22.982 19.7908 22.3731C19.7908 21.7642 20.7254 21.2686 21.8866 21.2686C23.0478 21.2686 23.9824 21.7642 23.9824 22.3731C23.9824 22.982 23.0337 23.4777 21.8866 23.4777ZM21.8866 21.3252C20.7679 21.3252 19.8616 21.7925 19.8616 22.359C19.8616 22.9254 20.7679 23.3927 21.8866 23.3927C23.0053 23.3927 23.9116 22.9254 23.9116 22.359C23.9116 21.7925 23.0053 21.3252 21.8866 21.3252Z" fill="#0565AD"/>
<path d="M20.7253 22.2456V14.3154H23.2035V22.2456C23.2035 22.9254 20.7253 22.9254 20.7253 22.2456Z" fill="#4776C4"/>
<path d="M21.9715 22.7842C21.3626 22.7842 20.7112 22.6143 20.7112 22.2461V14.3018H23.2177V22.2461C23.2177 22.6143 22.5663 22.7842 21.9574 22.7842H21.9715ZM20.7537 14.3442V22.2461C20.7537 22.5718 21.3626 22.7418 21.9715 22.7418C22.5804 22.7418 23.1894 22.5718 23.1894 22.2461V14.3442H20.7537Z" fill="#0565AD"/>
<path d="M18.0348 21.5949C19.1767 21.5949 20.1023 21.113 20.1023 20.5186C20.1023 19.9242 19.1767 19.4424 18.0348 19.4424C16.8929 19.4424 15.9673 19.9242 15.9673 20.5186C15.9673 21.113 16.8929 21.5949 18.0348 21.5949Z" fill="#375D97"/>
<path d="M18.0348 21.6369C16.8736 21.6369 15.939 21.1412 15.939 20.5323C15.939 19.9234 16.8878 19.4277 18.0348 19.4277C19.1818 19.4277 20.1306 19.9234 20.1306 20.5323C20.1306 21.1412 19.196 21.6369 18.0348 21.6369ZM18.0348 19.4844C16.9161 19.4844 16.0098 19.9517 16.0098 20.5181C16.0098 21.0846 16.9161 21.5519 18.0348 21.5519C19.1535 21.5519 20.0598 21.0846 20.0598 20.5181C20.0598 19.9517 19.1535 19.4844 18.0348 19.4844Z" fill="#0565AD"/>
<path d="M16.8735 20.5469V12.6309H19.3517V20.5611C19.3517 21.2408 16.8735 21.2408 16.8735 20.5611V20.5469Z" fill="#4776C4"/>
<path d="M18.1197 21.085C17.5108 21.085 16.8594 20.9151 16.8594 20.5469V12.6025H19.3659V20.5469C19.3659 20.9151 18.7145 21.085 18.1055 21.085H18.1197ZM16.8877 12.645V20.5469C16.8877 20.8726 17.4966 21.0425 18.1055 21.0425C18.7145 21.0425 19.3234 20.8726 19.3234 20.5469V12.645H16.8877Z" fill="#0565AD"/>
<path d="M25.4411 25.3615C26.5829 25.3615 27.5086 24.8796 27.5086 24.2852C27.5086 23.6908 26.5829 23.209 25.4411 23.209C24.2992 23.209 23.3735 23.6908 23.3735 24.2852C23.3735 24.8796 24.2992 25.3615 25.4411 25.3615Z" fill="#375D97"/>
<path d="M25.4411 25.4035C24.2798 25.4035 23.3452 24.9078 23.3452 24.2989C23.3452 23.69 24.2798 23.1943 25.4411 23.1943C26.6023 23.1943 27.5369 23.69 27.5369 24.2989C27.5369 24.9078 26.5881 25.4035 25.4411 25.4035ZM25.4411 23.251C24.3223 23.251 23.416 23.7183 23.416 24.2847C23.416 24.8512 24.3223 25.3185 25.4411 25.3185C26.5598 25.3185 27.4661 24.8512 27.4661 24.2847C27.4661 23.7183 26.5598 23.251 25.4411 23.251Z" fill="#0565AD"/>
<path d="M24.2939 24.0308V16.1006H26.7721V24.0308C26.7721 24.7105 24.2939 24.7105 24.2939 24.0308Z" fill="#4776C4"/>
<path d="M25.526 24.5543C24.917 24.5543 24.2656 24.3843 24.2656 24.0303V16.0859H26.7721V24.0303C26.7721 24.3985 26.1207 24.5543 25.5118 24.5543H25.526ZM24.3081 16.1284V24.0303C24.3081 24.356 24.917 24.5259 25.526 24.5259C26.1349 24.5259 26.7438 24.356 26.7438 24.0303V16.1284H24.3081Z" fill="#0565AD"/>
<path d="M12.1721 22.855V14.9248H14.6503V22.855C14.6503 23.5347 12.1721 23.5347 12.1721 22.855Z" fill="#4776C4"/>
<path d="M13.4183 23.3931C12.8094 23.3931 12.158 23.2232 12.158 22.8692V14.9248H14.6645V22.8692C14.6645 23.2374 14.0131 23.3931 13.4041 23.3931H13.4183ZM12.1863 14.9531V22.855C12.1863 23.1807 12.7952 23.3506 13.4041 23.3506C14.0131 23.3506 14.622 23.1807 14.622 22.855V14.9531H12.1863Z" fill="#0565AD"/>
<path d="M15.9814 24.9937V17.0635H18.4596V24.9937C18.4596 25.6734 15.9814 25.6734 15.9814 24.9937Z" fill="#4776C4"/>
<path d="M17.2135 25.5171C16.6045 25.5171 15.9531 25.3472 15.9531 24.9932V17.0488H18.4596V24.9932C18.4596 25.3614 17.8082 25.5171 17.1993 25.5171H17.2135ZM15.9956 17.0772V24.979C15.9956 25.3047 16.6045 25.4747 17.2135 25.4747C17.8224 25.4747 18.4313 25.3047 18.4313 24.979V17.0772H15.9956Z" fill="#0565AD"/>
<path d="M19.6208 27.1177V19.1875H22.099V27.1177C22.099 27.7974 19.6208 27.7974 19.6208 27.1177Z" fill="#4776C4"/>
<path d="M20.867 27.6412C20.2581 27.6412 19.6067 27.4712 19.6067 27.1172V19.1729H22.1132V27.1172C22.1132 27.4854 21.4618 27.6412 20.8529 27.6412H20.867ZM19.635 19.2153V27.1172C19.635 27.4429 20.2439 27.6128 20.8529 27.6128C21.4618 27.6128 22.0707 27.4429 22.0707 27.1172V19.2153H19.635Z" fill="#0565AD"/>
<path d="M30.0574 17.1906L21.3059 21.977L26.1207 14.6133L30.0574 17.1906Z" fill="#E9EFF8"/>
<path d="M21.2634 22.0195L21.3059 21.9629L26.1207 14.585H26.1348L30.0999 17.1764H30.0716L21.2634 22.0195ZM26.1348 14.6416L21.3767 21.9204L30.0433 17.1764L26.149 14.6274L26.1348 14.6416Z" fill="#0565AD"/>
<path d="M26.1349 14.6274L21.2776 22.0053L9.1416 15.4062L14.013 8.02832L26.1349 14.6274Z" fill="#6E94D0"/>
<path d="M21.2918 22.0336L9.11328 15.4062L13.9988 8L26.149 14.6132L21.2776 22.0195L21.2918 22.0336ZM9.16993 15.3921L21.2776 21.977L26.1207 14.6274L14.013 8.04248L9.16993 15.3921Z" fill="#0565AD"/>
<path d="M26.4039 18.7336C27.1391 18.7336 27.735 18.0172 27.735 17.1334C27.735 16.2496 27.1391 15.5332 26.4039 15.5332C25.6687 15.5332 25.0728 16.2496 25.0728 17.1334C25.0728 18.0172 25.6687 18.7336 26.4039 18.7336Z" fill="#375D97"/>
<path d="M27.6219 17.0769C27.6219 17.6433 27.3953 18.2522 26.8713 18.5213C26.3474 18.7904 25.7951 18.5779 25.4694 18.139C25.1154 17.6575 25.0587 16.9777 25.2995 16.4396C25.5119 15.944 26.0217 15.5475 26.574 15.6608C27.2254 15.7882 27.5794 16.4679 27.6077 17.0769C27.6077 17.2185 27.8201 17.2185 27.8201 17.0769C27.7918 16.4255 27.4519 15.7599 26.8289 15.5192C26.2058 15.2784 25.5827 15.59 25.2428 16.1139C24.8746 16.6945 24.8605 17.4875 25.1862 18.0965C25.4836 18.6346 26.0925 18.9886 26.7156 18.8187C27.4661 18.6204 27.8485 17.8132 27.8343 17.0769C27.8343 16.9353 27.6219 16.9353 27.6219 17.0769Z" fill="#0565AD"/>
<path d="M26.3047 17.3043C26.4463 17.4742 26.5738 17.63 26.7012 17.7857C26.6587 17.8141 26.6162 17.8282 26.5738 17.8566C26.5738 17.8566 26.5596 17.8566 26.5454 17.8566C26.418 17.7149 26.2905 17.5592 26.1631 17.4034C26.1631 17.4034 26.1631 17.3892 26.1631 17.3751C26.1631 17.3468 26.1631 17.3184 26.1631 17.2901C26.1631 17.2618 26.1631 17.2476 26.1773 17.2476C26.2197 17.2335 26.2622 17.2051 26.2905 17.191C26.333 17.1627 26.3897 17.1202 26.418 17.0635C26.4605 17.0069 26.4746 16.9361 26.4888 16.8511C26.4888 16.8228 26.4888 16.8228 26.4746 16.8228C26.3613 16.8794 26.2481 16.9361 26.1348 16.9927C26.1348 16.9927 26.1206 16.9927 26.1064 17.0069C26.1206 16.9361 26.1489 16.8794 26.1631 16.8228C26.1631 16.8228 26.1631 16.8228 26.1773 16.8086C26.2764 16.7661 26.3613 16.7237 26.4605 16.6812H26.4746C26.4746 16.6812 26.4746 16.667 26.4746 16.6529C26.4322 16.5821 26.3897 16.5821 26.3189 16.5962C26.2481 16.6104 26.1773 16.6529 26.1064 16.6812C26.1064 16.6812 26.0923 16.6812 26.0781 16.6812C26.0923 16.6104 26.1206 16.5537 26.1348 16.4971C26.3613 16.398 26.5738 16.2847 26.8003 16.1855C26.8003 16.1855 26.8003 16.1997 26.8003 16.2139C26.7862 16.2564 26.772 16.313 26.7579 16.3555C26.7579 16.3838 26.7437 16.3838 26.7295 16.398C26.6729 16.4263 26.6304 16.4404 26.5738 16.4688C26.5738 16.4829 26.5879 16.4971 26.6021 16.5113C26.6021 16.5396 26.6162 16.5537 26.6304 16.5821C26.6304 16.5962 26.6304 16.5962 26.6446 16.5821C26.7012 16.5537 26.7579 16.5254 26.8145 16.4971C26.8145 16.5396 26.7862 16.5679 26.772 16.6104C26.7579 16.667 26.7295 16.7095 26.7012 16.7095C26.6871 16.7095 26.6587 16.7237 26.6446 16.7378C26.6446 16.7378 26.6446 16.7378 26.6446 16.7662C26.6304 16.9361 26.5738 17.0635 26.4746 17.1768C26.4322 17.2193 26.3897 17.2618 26.3472 17.2901L26.3047 17.3043Z" fill="white"/>
</g>
<defs>
<clipPath id="clip0_1202_5112">
<rect width="21.1" height="24.7394" fill="white" transform="translate(9 8)"/>
</clipPath>
</defs>
</svg>
