<svg width="652" height="652" viewBox="0 0 652 652" fill="none" xmlns="http://www.w3.org/2000/svg">
<rect width="652" height="652" fill="white"/>
<path d="M446.536 275.835L558.192 339.833L533.333 357.336L422.355 294.693L446.536 275.835Z" fill="#273738"/>
<path d="M291.123 326.477L525.868 443.261L352.84 550.216L99.8181 426.698L291.123 326.477Z" fill="#273738"/>
<path d="M80.7382 379.304L287.03 258.8L381.666 279.898L475.625 371.133L570.938 389.521L368.048 509.334L272.734 491.637L178.098 398.37L80.7382 379.304Z" fill="#EBF0F8"/>
<path d="M81.0009 379.747L108.915 363.447L172.333 326.394L240.438 286.604L283.726 261.317C284.818 260.681 285.896 259.962 287.03 259.395C287.597 259.105 286.698 259.313 287.03 259.326C287.749 259.382 288.537 259.658 289.242 259.824L317.557 266.142L356.559 274.839C364.591 276.636 372.624 278.779 380.726 280.231C381.182 280.314 381.597 280.493 381.362 280.341C381.804 280.618 382.178 281.143 382.551 281.503L388.869 287.641L412.207 310.301L465.947 362.493L473.095 369.433C473.814 370.125 474.602 371.217 475.514 371.645C477.201 372.434 479.759 372.461 481.57 372.821L495.478 375.503L565.851 389.08L570.773 390.034L570.648 389.08L542.499 405.698L478.888 443.276L411.018 483.356L370.122 507.51C369.403 507.938 368.573 508.629 367.771 508.892C368.421 508.671 367.647 508.754 367.149 508.657L363.651 508.007L332.184 502.159L293.39 494.956L279.246 492.329C277.31 491.97 274.739 491.928 272.9 491.154C273.273 491.306 272.776 491.016 272.527 490.739C271.918 490.089 271.255 489.481 270.619 488.859L263.305 481.656L239.014 457.71L186.476 405.919L179.951 399.49C179.287 398.84 178.748 398.121 177.904 397.803C175.706 396.974 172.941 396.836 170.646 396.379L156.046 393.518L85.7154 379.747L80.8764 378.807C80.2266 378.683 79.9501 379.678 80.5999 379.803L137.879 391.015L170.923 397.486C173.093 397.914 175.706 398.039 177.78 398.827C177.987 398.91 177.586 398.619 178.098 399.103C178.693 399.642 179.246 400.237 179.812 400.79L225.561 445.889L270.591 490.269C271.269 490.933 271.918 491.831 272.789 492.177C274.85 493.007 277.615 493.076 279.785 493.477L313.769 499.781L351.637 506.818L364.149 509.141C365.324 509.362 367.135 510.081 368.324 509.777C369.099 509.583 369.997 508.795 370.675 508.394L376.703 504.827L397.662 492.44L461.744 454.599L529.683 414.477L569.307 391.084L571.201 389.964C571.561 389.757 571.533 389.107 571.077 389.01L513.88 377.978L481.376 371.715C479.662 371.383 477.381 371.341 475.763 370.636C476.275 370.857 475.487 370.291 475.307 370.111C474.616 369.406 473.883 368.728 473.178 368.037L425.493 321.735L382.772 280.258C382.039 279.539 381.694 279.373 380.684 279.152L371.463 277.092L335.682 269.115L299.445 261.027L288.993 258.69C288.081 258.483 287.362 258.193 286.504 258.483C285.371 258.884 284.237 259.81 283.2 260.405L276.453 264.345L254.208 277.341L189.103 315.375L121.662 354.778L82.342 377.77L80.4755 378.862C79.8948 379.194 80.4202 380.093 81.0009 379.761V379.747Z" fill="#2B63A8"/>
<path d="M178.099 398.371L381.667 279.899L475.625 371.135L272.735 491.638L178.099 398.371Z" fill="#E0EBC5"/>
<path d="M178.361 398.812L198.657 387.005L247.392 358.649L306.013 324.541L356.932 294.913L373.689 285.166L378.901 282.138C379.717 281.668 380.934 281.225 381.611 280.562C381.694 280.479 381.846 280.424 381.943 280.368L381.321 280.285L390.653 289.341L413.064 311.102L440.19 337.44L463.666 360.225L471.408 367.746L473.842 370.11C474.132 370.4 474.699 371.216 475.1 371.327C475.155 371.341 475.224 371.451 475.266 371.493L475.376 370.677L469.957 373.898L455.219 382.65L433.416 395.605L406.801 411.407L377.643 428.731L348.056 446.303L320.613 462.603L297.413 476.374L280.726 486.287L275.527 489.37C274.698 489.867 273.509 490.31 272.804 490.987C272.721 491.07 272.569 491.126 272.458 491.195L273.08 491.278L263.693 482.028L241.129 459.797L213.699 432.768L190.085 409.499L182.329 401.854C181.14 400.692 179.965 399.13 178.596 398.176C178.541 398.135 178.485 398.065 178.43 398.01C177.96 397.54 177.227 398.273 177.697 398.743L187.085 407.992L209.648 430.224L237.078 457.253L260.692 480.521L268.449 488.167C269.638 489.342 270.813 490.849 272.181 491.844C272.237 491.886 272.292 491.955 272.347 492.01C272.513 492.176 272.776 492.204 272.97 492.093L278.389 488.872L293.127 480.12L314.93 467.166L341.544 451.363L370.703 434.04L400.289 416.467L427.733 400.167L450.933 386.397L467.62 376.484C470.219 374.935 473.067 373.539 475.528 371.783C475.639 371.7 475.763 371.645 475.874 371.576C476.15 371.41 476.22 370.995 475.985 370.76L466.652 361.704L444.241 339.943L417.115 313.605L393.639 290.82L385.897 283.299C384.722 282.152 383.547 280.672 382.206 279.705C382.15 279.663 382.095 279.594 382.04 279.539C381.874 279.373 381.611 279.345 381.417 279.456L361.121 291.263L312.386 319.619L253.766 353.727L202.846 383.355L186.089 393.102C183.49 394.609 180.628 395.964 178.167 397.706C178.071 397.775 177.946 397.83 177.836 397.9C177.255 398.231 177.78 399.13 178.361 398.798V398.812Z" fill="#2B63A8"/>
<path d="M280.795 464.58L280.422 464.221L214.404 400.955L372.251 309.001L437.273 373.331L436.499 373.788L280.823 464.594L280.795 464.58ZM216.672 401.217L280.988 462.852L434.992 373.013L372.016 310.701L216.672 401.204V401.217Z" fill="#2B63A8"/>
<path d="M260.268 374.73L259.317 375.733L324.677 437.692L325.628 436.689L260.268 374.73Z" fill="#2B63A8"/>
<path d="M388.1 325.546L232.243 416.877L232.942 418.07L388.799 326.739L388.1 325.546Z" fill="#2B63A8"/>
<path d="M403.769 341.206L247.912 432.537L248.611 433.73L404.468 342.399L403.769 341.206Z" fill="#2B63A8"/>
<path d="M419.419 356.861L263.562 448.192L264.261 449.385L420.118 358.054L419.419 356.861Z" fill="#2B63A8"/>
<path d="M162.779 377.95C174.996 377.95 184.9 372.614 184.9 366.032C184.9 359.45 174.996 354.114 162.779 354.114C150.562 354.114 140.658 359.45 140.658 366.032C140.658 372.614 150.562 377.95 162.779 377.95Z" fill="#5275BF"/>
<path d="M184.389 366.031C184.223 372.736 175.43 375.723 170.066 376.76C162.379 378.239 153.254 377.631 146.438 373.469C144.129 372.059 141.807 369.971 141.281 367.178C140.756 364.386 142.401 361.731 144.53 359.961C150.378 355.081 159.31 354.141 166.596 354.818C170.854 355.219 175.223 356.284 178.928 358.496C181.68 360.127 184.306 362.63 184.389 366.045C184.403 366.708 185.44 366.708 185.426 366.045C185.247 358.897 176.426 355.537 170.605 354.376C162.338 352.731 152.162 353.353 145.028 358.302C142.733 359.892 140.631 362.146 140.217 365.022C139.802 367.897 141.198 370.455 143.217 372.349C149.341 378.101 159.503 379.138 167.453 378.225C173.965 377.478 185.219 374.34 185.426 366.059C185.44 365.395 184.403 365.395 184.389 366.059V366.031Z" fill="#2B63A8"/>
<path d="M197.427 349.109L207.81 343.137L232.585 328.882L262.711 311.559L288.772 296.572L297.358 291.636C298.644 290.904 300.289 290.254 301.436 289.3C301.492 289.258 301.561 289.231 301.616 289.203C302.197 288.871 301.672 287.972 301.091 288.304L290.708 294.277L265.932 308.531L235.806 325.855L209.745 340.842L201.159 345.777C199.874 346.51 198.228 347.16 197.081 348.114C197.026 348.155 196.956 348.183 196.901 348.211C196.32 348.542 196.846 349.441 197.427 349.109Z" fill="#2B63A8"/>
<path d="M314.944 479.388L473.578 386.798L533.485 398.371L374.85 492.315L314.944 479.388Z" fill="white"/>
<path d="M315.207 479.831L322.521 475.559L341.808 464.305L368.712 448.599L399.142 430.833L429.089 413.358L454.099 398.758L470.151 389.384C471.215 388.762 472.598 388.223 473.538 387.407C473.939 387.061 473.731 387.338 473.552 387.296C474.34 387.449 475.142 387.601 475.93 387.753L504.59 393.283L531.799 398.537L533.361 398.841L533.237 397.887L525.909 402.228L506.581 413.676L479.635 429.63L449.163 447.673L419.203 465.425L394.207 480.232L378.21 489.703C377.187 490.311 375.763 490.864 374.892 491.666C374.505 492.025 374.809 491.749 374.892 491.763C374.104 491.569 373.289 491.417 372.5 491.251L343.716 485.043L316.645 479.195L315.11 478.863C314.461 478.725 314.184 479.721 314.834 479.859L335.185 484.255L367.496 491.237L372.376 492.288C373.081 492.44 373.952 492.786 374.671 492.786C375.349 492.786 375.915 492.288 376.496 491.942L389.395 484.311L412.498 470.623L441.587 453.397L472.584 435.036L500.94 418.238L522.591 405.422C526.158 403.307 529.794 401.288 533.292 399.076C533.444 398.979 533.61 398.896 533.762 398.799C534.122 398.592 534.094 397.942 533.638 397.845L513.204 393.891L480.852 387.642L475.999 386.702C475.321 386.578 474.492 386.26 473.801 386.273C473.109 386.287 472.529 386.785 471.948 387.131L458.993 394.693L435.739 408.27L406.65 425.248L375.832 443.235L347.504 459.77L325.881 472.393C322.314 474.467 318.691 476.458 315.18 478.642C315.027 478.739 314.862 478.822 314.71 478.919C314.129 479.251 314.654 480.149 315.235 479.817L315.207 479.831Z" fill="#2B63A8"/>
<path d="M476.634 407.964L395.625 454.961L396.319 456.157L477.328 409.16L476.634 407.964Z" fill="#2B63A8"/>
<path d="M444.988 168.921L556.643 232.919V328.911L445.665 266.281L430.001 179.815C430.028 178.723 430.25 175.128 432.987 172.17C435.89 169.018 440.508 167.801 444.988 168.921Z" fill="#405C94"/>
<path d="M444.463 169.82L455.537 176.166L482.151 191.429L514.379 209.9L542.376 225.952L551.556 231.219L554.39 232.851C554.819 233.1 555.413 233.611 555.911 233.722C555.98 233.736 556.049 233.805 556.104 233.832L555.593 232.934V265.465C555.593 282.678 555.593 299.877 555.593 317.09V328.925L557.155 328.026L526.946 310.979L472.142 280.051L452.302 268.853L447.242 265.991C447.09 265.908 446.412 265.382 446.246 265.424C446.633 265.341 446.606 266.488 446.578 265.562C446.509 263.585 445.831 261.47 445.486 259.534L443.453 248.349L437.896 217.698L432.794 189.563L431.328 181.475C430.831 178.765 431.066 176.65 432.794 174.064C435.393 170.165 440.287 168.921 444.684 169.93C445.984 170.235 446.537 168.23 445.237 167.926C437.522 166.156 429.448 170.829 428.978 179.166C428.895 180.535 429.31 181.931 429.559 183.272L433.803 206.734L443.979 262.949C444.172 264.027 444.131 265.839 444.739 266.806C445.195 267.553 446.564 267.995 447.283 268.396L463.473 277.535L518.347 308.504L555.482 329.464L556.091 329.81C556.768 330.197 557.653 329.713 557.653 328.911V232.92C557.653 232.56 557.459 232.201 557.141 232.021L546.067 225.675L519.453 210.412L487.225 191.941L459.228 175.889L450.048 170.622C448.61 169.806 447.186 168.811 445.679 168.119C445.61 168.092 445.555 168.05 445.486 168.009C444.324 167.345 443.274 169.129 444.435 169.806L444.463 169.82Z" fill="#2B63A8"/>
<path d="M373.842 468.798L390.529 473.678C390.529 473.858 390.377 473.885 390.28 473.941C389.077 474.687 387.861 475.406 386.658 476.153C386.395 476.319 386.188 476.346 385.911 476.263C380.699 474.729 375.487 473.208 370.275 471.701C370.012 471.618 369.832 471.494 369.708 471.272C369.459 470.83 369.224 470.387 368.92 469.987C368.643 469.613 368.685 469.406 369.169 469.129C370.192 468.549 371.215 467.954 372.169 467.249C373.358 466.378 374.395 465.396 375.058 464.124C375.736 462.839 375.874 461.567 375.418 460.309C375.279 459.935 375.127 459.866 374.713 460.115C371.823 461.899 368.934 463.654 366.03 465.41C365.781 465.562 365.532 465.714 365.187 465.922C365.297 464.802 365.408 463.793 365.505 462.77C365.532 462.535 365.767 462.479 365.92 462.382C368.256 460.958 370.606 459.521 372.943 458.097C373.095 458.014 373.344 457.958 373.33 457.779C373.33 457.613 373.081 457.585 372.943 457.516C371.422 456.852 369.86 457.212 368.298 457.903C366.445 458.719 364.758 459.866 363.016 460.903C362.836 461.014 362.643 461.124 362.353 461.304C362.463 460.184 362.574 459.175 362.671 458.166C362.684 458 362.823 457.931 362.947 457.862C368.408 454.543 373.855 451.211 379.317 447.893C379.496 447.976 379.413 448.128 379.399 448.253C379.33 449.041 379.22 449.829 379.178 450.617C379.151 450.99 378.999 451.184 378.653 451.391C377.353 452.165 376.068 452.953 374.713 453.783C375.127 453.949 375.487 454.101 375.846 454.267C376.316 454.488 376.745 454.778 377.091 455.138C377.312 455.373 377.505 455.345 377.81 455.166C379.247 454.267 380.699 453.396 382.261 452.456C382.192 453.147 382.054 453.769 382.082 454.364C382.137 455.387 381.695 456.078 380.644 456.534C380.118 456.769 379.635 457.143 379.123 457.433C378.902 457.557 378.819 457.668 378.902 457.917C379.828 460.613 378.999 463.157 377.132 465.59C376.303 466.668 375.307 467.609 374.173 468.41C374.063 468.48 373.966 468.563 373.869 468.645C373.842 468.659 373.842 468.701 373.814 468.784L373.842 468.798Z" fill="#2B63A8"/>
<path d="M386.188 476.485C386.091 476.485 385.98 476.471 385.87 476.429C380.657 474.895 375.445 473.374 370.233 471.867C369.929 471.77 369.708 471.618 369.569 471.355L369.514 471.272C369.293 470.871 369.058 470.47 368.795 470.097C368.685 469.945 368.56 469.738 368.602 469.517C368.643 469.323 368.795 469.171 369.099 468.991C370.067 468.438 371.104 467.83 372.072 467.125C373.427 466.143 374.325 465.161 374.92 464.055C375.583 462.783 375.694 461.581 375.265 460.378C375.196 460.198 375.155 460.157 375.127 460.143C375.1 460.143 375.03 460.143 374.809 460.267C372.556 461.65 370.302 463.032 368.035 464.401L366.127 465.562C365.878 465.714 365.643 465.867 365.283 466.074L364.993 466.254L365.131 464.968C365.214 464.208 365.283 463.475 365.366 462.756C365.394 462.479 365.615 462.369 365.767 462.3C365.809 462.286 365.836 462.258 365.864 462.244L372.887 457.958C372.887 457.958 372.984 457.903 373.04 457.889C373.095 457.862 373.192 457.82 373.205 457.792C373.192 457.792 373.095 457.751 373.04 457.737C372.998 457.723 372.943 457.709 372.915 457.682C371.657 457.129 370.261 457.239 368.408 458.069C367.012 458.691 365.684 459.507 364.399 460.295C363.984 460.558 363.569 460.806 363.154 461.055L362.2 461.636L362.311 460.488C362.394 459.673 362.477 458.912 362.546 458.138C362.574 457.903 362.74 457.792 362.864 457.723L379.344 447.7L379.427 447.741C379.704 447.866 379.648 448.114 379.621 448.211C379.621 448.225 379.621 448.253 379.621 448.267C379.593 448.543 379.565 448.82 379.538 449.096C379.482 449.594 379.427 450.119 379.399 450.631C379.372 451.032 379.206 451.308 378.791 451.543C377.823 452.11 376.869 452.705 375.888 453.299L375.155 453.755L375.224 453.783C375.487 453.894 375.736 453.99 375.971 454.115C376.51 454.364 376.938 454.668 377.27 455.027C377.395 455.166 377.478 455.193 377.768 455.027C378.805 454.378 379.856 453.742 380.948 453.078L382.51 452.124L382.469 452.47C382.441 452.691 382.413 452.912 382.386 453.119C382.33 453.562 382.275 453.977 382.289 454.364C382.344 455.47 381.846 456.216 380.754 456.7C380.422 456.838 380.118 457.046 379.8 457.253C379.621 457.364 379.441 457.488 379.261 457.599C379.068 457.709 379.068 457.751 379.109 457.875C379.994 460.433 379.399 462.991 377.312 465.714C376.51 466.765 375.487 467.733 374.312 468.576C374.256 468.618 374.201 468.659 374.146 468.715L390.723 473.554V473.678C390.723 473.927 390.543 474.024 390.446 474.065C390.432 474.065 390.405 474.079 390.391 474.093C389.948 474.369 389.506 474.632 389.063 474.909C388.289 475.379 387.529 475.849 386.768 476.319C386.575 476.443 386.395 476.498 386.202 476.498L386.188 476.485ZM375.113 459.811C375.113 459.811 375.196 459.811 375.252 459.839C375.431 459.908 375.528 460.101 375.597 460.281C376.067 461.567 375.943 462.894 375.238 464.235C374.63 465.397 373.689 466.406 372.293 467.429C371.298 468.148 370.219 468.784 369.279 469.309C369.072 469.42 368.975 469.516 368.947 469.599C368.947 469.669 368.975 469.765 369.085 469.904C369.376 470.291 369.611 470.706 369.832 471.106L369.887 471.189C369.984 471.369 370.122 471.48 370.344 471.535C375.556 473.056 380.768 474.577 385.98 476.097C386.215 476.167 386.367 476.139 386.589 476.001C387.349 475.531 388.123 475.061 388.898 474.591C389.34 474.328 389.782 474.051 390.225 473.789C390.239 473.789 390.252 473.775 390.28 473.761L373.648 468.908L373.731 468.673C373.731 468.673 373.759 468.576 373.814 468.521C373.911 468.438 374.021 468.355 374.118 468.272C375.266 467.443 376.261 466.503 377.049 465.479C379.054 462.866 379.634 460.405 378.791 457.972C378.667 457.599 378.86 457.419 379.095 457.281C379.275 457.17 379.455 457.06 379.621 456.949C379.939 456.742 380.27 456.52 380.63 456.368C381.598 455.94 382.012 455.318 381.957 454.364C381.943 453.949 381.999 453.52 382.054 453.064C382.054 452.967 382.082 452.871 382.095 452.774L381.128 453.368C380.035 454.032 378.998 454.668 377.948 455.318C377.657 455.497 377.353 455.622 377.021 455.262C376.717 454.944 376.316 454.668 375.819 454.433C375.584 454.322 375.348 454.225 375.086 454.115C374.961 454.06 374.837 454.004 374.699 453.949L374.395 453.824L375.708 453.023C376.69 452.414 377.657 451.834 378.625 451.267C378.929 451.087 379.04 450.921 379.068 450.631C379.095 450.119 379.151 449.594 379.206 449.082C379.233 448.806 379.261 448.529 379.289 448.267C379.289 448.239 379.289 448.197 379.303 448.17L363.099 458.027C362.947 458.124 362.905 458.152 362.905 458.207C362.836 458.968 362.753 459.742 362.67 460.558L362.629 461.014L362.988 460.793C363.403 460.544 363.818 460.281 364.233 460.032C365.518 459.23 366.86 458.415 368.284 457.779C369.597 457.198 371.325 456.631 373.067 457.391C373.095 457.391 373.136 457.419 373.164 457.433C373.302 457.488 373.551 457.557 373.551 457.806C373.551 458.055 373.33 458.166 373.192 458.235C373.15 458.249 373.109 458.276 373.081 458.29L366.058 462.576C366.058 462.576 365.975 462.618 365.933 462.645C365.795 462.714 365.726 462.756 365.712 462.839C365.629 463.558 365.56 464.29 365.477 465.051L365.422 465.645C365.629 465.521 365.795 465.424 365.961 465.314L367.869 464.152C370.122 462.783 372.39 461.401 374.63 460.018C374.782 459.922 374.948 459.839 375.113 459.839V459.811Z" fill="#2B63A8"/>
<path d="M488.719 204.383C502.188 204.383 513.107 193.464 513.107 179.995C513.107 166.525 502.188 155.606 488.719 155.606C475.249 155.606 464.33 166.525 464.33 179.995C464.33 193.464 475.249 204.383 488.719 204.383Z" fill="#2B63A8"/>
<path d="M512.112 184.764C510.038 194.387 502.323 201.963 492.563 203.567C482.802 205.171 472.529 200.193 467.746 191.387C462.962 182.58 464.303 171.312 471.091 163.901C477.783 156.601 488.512 154.168 497.706 157.873C508.31 162.145 514.296 173.634 512.126 184.764C512.001 185.414 512.997 185.69 513.121 185.041C515.098 174.893 510.743 164.385 501.922 158.869C493.102 153.352 481.405 154.03 473.248 160.5C464.994 167.04 461.704 178.501 465.285 188.414C468.865 198.327 478.129 204.784 488.456 204.922C500.305 205.074 510.66 196.557 513.135 185.041C513.273 184.391 512.278 184.114 512.14 184.764H512.112Z" fill="#2B63A8"/>
<path d="M486.022 201.314C499.491 201.314 510.41 190.395 510.41 176.925C510.41 163.456 499.491 152.537 486.022 152.537C472.553 152.537 461.634 163.456 461.634 176.925C461.634 190.395 472.553 201.314 486.022 201.314Z" fill="#FCBC00"/>
<path d="M509.415 181.682C507.341 191.304 499.626 198.881 489.865 200.484C480.105 202.088 469.832 197.111 465.048 188.304C460.251 179.483 461.606 168.229 468.394 160.819C475.183 153.408 485.814 151.086 495.009 154.791C505.613 159.063 511.599 170.552 509.429 181.682C509.304 182.331 510.3 182.608 510.424 181.958C512.401 171.81 508.046 161.303 499.225 155.786C490.377 150.256 478.708 150.947 470.551 157.418C462.394 163.888 459.007 175.419 462.587 185.332C466.099 195.037 475.431 201.701 485.759 201.839C497.608 201.991 507.963 193.475 510.438 181.958C510.576 181.308 509.581 181.032 509.442 181.682H509.415Z" fill="#2B63A8"/>
<path d="M482.732 176.414L488.594 189.797C488.484 189.908 488.387 189.838 488.304 189.811C487.24 189.534 486.175 189.23 485.097 188.967C484.862 188.912 484.737 188.802 484.64 188.58C482.815 184.405 480.977 180.23 479.152 176.054C479.055 175.847 479.041 175.653 479.11 175.432C479.235 175.004 479.373 174.575 479.456 174.146C479.525 173.746 479.677 173.649 480.092 173.759C480.977 174.022 481.848 174.285 482.76 174.437C483.894 174.63 485.014 174.644 486.12 174.257C487.226 173.87 488.041 173.151 488.553 172.073C488.705 171.755 488.664 171.616 488.29 171.52C485.733 170.856 483.189 170.165 480.631 169.487C480.41 169.432 480.202 169.377 479.884 169.294C480.603 168.658 481.253 168.091 481.903 167.51C482.055 167.386 482.207 167.483 482.345 167.524C484.405 168.077 486.479 168.63 488.539 169.183C488.664 169.211 488.829 169.349 488.926 169.225C489.023 169.114 488.926 168.948 488.871 168.824C488.47 167.469 487.433 166.722 486.216 166.197C484.765 165.561 483.216 165.243 481.695 164.814C481.53 164.773 481.377 164.731 481.115 164.662C481.834 164.026 482.484 163.459 483.133 162.879C483.244 162.782 483.341 162.823 483.451 162.851C488.263 164.137 493.074 165.423 497.871 166.708C497.913 166.874 497.775 166.916 497.705 166.985C497.208 167.441 496.682 167.87 496.199 168.326C495.977 168.547 495.77 168.575 495.466 168.492C494.332 168.174 493.198 167.883 491.996 167.552C492.106 167.911 492.217 168.229 492.3 168.547C492.41 168.976 492.479 169.418 492.438 169.874C492.41 170.165 492.535 170.261 492.797 170.331C494.069 170.649 495.341 171.008 496.724 171.368C496.281 171.768 495.839 172.073 495.507 172.46C494.927 173.137 494.291 173.289 493.475 172.93C493.06 172.75 492.59 172.681 492.148 172.557C491.954 172.501 491.843 172.515 491.747 172.722C490.641 174.99 488.719 176.082 486.313 176.441C485.235 176.607 484.17 176.58 483.106 176.386C483.009 176.372 482.912 176.359 482.802 176.345C482.774 176.345 482.746 176.372 482.691 176.4L482.732 176.414Z" fill="white"/>
<path d="M534.619 150.878C548.088 150.878 559.007 139.959 559.007 126.49C559.007 113.02 548.088 102.101 534.619 102.101C521.15 102.101 510.231 113.02 510.231 126.49C510.231 139.959 521.15 150.878 534.619 150.878Z" fill="#2B63A8"/>
<path d="M557.735 120.519C560.127 130.169 556.394 140.538 548.14 146.179C539.886 151.82 528.867 151.695 520.765 145.944C512.567 140.123 508.875 129.422 511.71 119.786C514.544 110.149 523.323 103.209 533.319 102.656C544.628 102.048 554.804 109.665 557.721 120.519C557.901 121.168 558.896 120.892 558.717 120.242C556.021 110.26 547.435 102.78 537.107 101.716C526.779 100.651 516.327 106.569 511.958 116.136C507.617 125.62 509.76 137.151 517.267 144.409C524.692 151.585 536.029 153.41 545.347 148.985C556.062 143.898 561.551 131.676 558.717 120.256C558.551 119.606 557.555 119.883 557.721 120.532L557.735 120.519Z" fill="#2B63A8"/>
<path d="M530.845 149.303C544.314 149.303 555.233 138.384 555.233 124.915C555.233 111.445 544.314 100.526 530.845 100.526C517.375 100.526 506.456 111.445 506.456 124.915C506.456 138.384 517.375 149.303 530.845 149.303Z" fill="#FCBC00"/>
<path d="M553.961 118.927C556.353 128.577 552.62 138.946 544.366 144.587C536.112 150.228 525.093 150.104 516.992 144.352C508.793 138.532 505.101 127.831 507.936 118.194C510.77 108.558 519.549 101.617 529.545 101.064C540.854 100.456 551.03 108.074 553.947 118.927C554.127 119.577 555.122 119.3 554.943 118.65C552.247 108.668 543.661 101.189 533.333 100.124C523.006 99.0596 512.554 104.977 508.185 114.544C503.843 124.029 505.986 135.559 513.494 142.818C520.918 149.993 532.255 151.818 541.573 147.394C552.288 142.306 557.777 130.084 554.943 118.664C554.777 118.014 553.781 118.291 553.947 118.941L553.961 118.927Z" fill="#2B63A8"/>
<path d="M527.678 125.91L538.835 135.339C538.794 135.491 538.669 135.464 538.587 135.478C537.508 135.699 536.416 135.906 535.337 136.127C535.102 136.183 534.937 136.127 534.757 135.975C531.273 133.03 527.789 130.086 524.305 127.141C524.125 126.989 524.028 126.837 523.987 126.602C523.918 126.159 523.848 125.717 523.724 125.288C523.613 124.901 523.696 124.735 524.125 124.666C525.024 124.514 525.936 124.362 526.821 124.099C527.927 123.781 528.936 123.297 529.752 122.468C530.582 121.624 530.996 120.629 530.969 119.44C530.969 119.08 530.872 118.984 530.499 119.053C527.913 119.578 525.314 120.076 522.729 120.587C522.507 120.629 522.286 120.67 521.982 120.739C522.355 119.855 522.673 119.053 523.019 118.251C523.088 118.071 523.282 118.099 523.434 118.071C525.535 117.656 527.623 117.242 529.724 116.827C529.849 116.799 530.056 116.841 530.098 116.689C530.139 116.55 529.959 116.454 529.876 116.343C528.909 115.292 527.664 115.085 526.337 115.154C524.747 115.223 523.212 115.624 521.664 115.914C521.498 115.942 521.332 115.983 521.069 116.025C521.429 115.14 521.761 114.338 522.093 113.536C522.148 113.412 522.258 113.398 522.369 113.37C527.25 112.403 532.144 111.449 537.01 110.495C537.121 110.619 537.01 110.716 536.983 110.813C536.734 111.435 536.457 112.057 536.222 112.679C536.112 112.969 535.946 113.094 535.642 113.149C534.48 113.357 533.333 113.592 532.116 113.84C532.379 114.117 532.614 114.352 532.835 114.601C533.125 114.933 533.374 115.306 533.54 115.721C533.651 115.983 533.789 116.025 534.066 115.97C535.351 115.693 536.651 115.458 538.047 115.182C537.826 115.735 537.563 116.205 537.439 116.702C537.218 117.56 536.72 117.974 535.835 118.016C535.379 118.03 534.937 118.182 534.48 118.265C534.287 118.292 534.19 118.361 534.19 118.596C534.19 121.127 532.946 122.938 530.955 124.334C530.07 124.956 529.088 125.399 528.051 125.703C527.955 125.73 527.858 125.758 527.775 125.8C527.747 125.8 527.733 125.841 527.706 125.896L527.678 125.91Z" fill="white"/>
<path d="M522.881 268.022C536.351 268.022 547.27 257.103 547.27 243.633C547.27 230.164 536.351 219.245 522.881 219.245C509.412 219.245 498.493 230.164 498.493 243.633C498.493 257.103 509.412 268.022 522.881 268.022Z" fill="#2B63A8"/>
<path d="M545.998 237.647C548.39 247.297 544.657 257.667 536.403 263.307C528.204 268.921 517.13 268.824 509.028 263.072C500.926 257.321 497.138 246.551 499.972 236.914C502.807 227.278 511.586 220.337 521.582 219.784C532.891 219.176 543.067 226.794 545.984 237.647C546.164 238.297 547.159 238.02 546.979 237.371C544.283 227.388 535.698 219.909 525.37 218.844C514.89 217.766 504.59 223.697 500.221 233.264C495.88 242.749 498.023 254.279 505.53 261.538C513.038 268.796 524.292 270.538 533.61 266.114C544.325 261.026 549.814 248.804 546.979 237.384C546.814 236.735 545.818 237.011 545.984 237.661L545.998 237.647Z" fill="#2B63A8"/>
<path d="M519.107 266.446C532.577 266.446 543.496 255.527 543.496 242.058C543.496 228.589 532.577 217.67 519.107 217.67C505.638 217.67 494.719 228.589 494.719 242.058C494.719 255.527 505.638 266.446 519.107 266.446Z" fill="#FCBC00"/>
<path d="M542.223 236.072C544.615 245.722 540.882 256.092 532.628 261.732C524.375 267.373 513.356 267.249 505.254 261.497C497.055 255.677 493.364 244.976 496.198 235.339C499.032 225.703 507.811 218.762 517.807 218.209C529.117 217.601 539.292 225.219 542.21 236.072C542.389 236.722 543.385 236.445 543.205 235.796C540.509 225.814 531.923 218.334 521.596 217.269C511.268 216.205 500.816 222.122 496.447 231.689C492.078 241.257 494.249 252.704 501.756 259.963C509.263 267.221 520.517 268.963 529.836 264.539C540.55 259.451 546.039 247.229 543.205 235.809C543.039 235.16 542.044 235.436 542.21 236.086L542.223 236.072Z" fill="#2B63A8"/>
<path d="M515.941 243.054L527.098 252.483C527.057 252.635 526.932 252.607 526.849 252.621C525.771 252.842 524.679 253.05 523.6 253.271C523.365 253.326 523.199 253.271 523.02 253.119C519.536 250.174 516.052 247.229 512.567 244.284C512.388 244.132 512.291 243.98 512.249 243.745C512.18 243.303 512.111 242.86 511.987 242.432C511.876 242.045 511.959 241.879 512.388 241.81C513.286 241.658 514.199 241.506 515.084 241.243C516.19 240.925 517.199 240.441 518.015 239.611C518.844 238.768 519.259 237.773 519.231 236.584C519.231 236.224 519.135 236.127 518.761 236.196C516.176 236.722 513.577 237.22 510.991 237.731C510.77 237.773 510.549 237.814 510.245 237.883C510.618 236.998 510.936 236.196 511.282 235.395C511.351 235.215 511.544 235.243 511.696 235.215C513.798 234.8 515.886 234.385 517.987 233.971C518.112 233.943 518.319 233.984 518.36 233.832C518.402 233.694 518.222 233.597 518.139 233.487C517.171 232.436 515.927 232.229 514.6 232.298C513.01 232.367 511.475 232.768 509.927 233.058C509.761 233.086 509.595 233.127 509.332 233.169C509.692 232.284 510.024 231.482 510.355 230.68C510.411 230.556 510.521 230.542 510.632 230.514C515.512 229.546 520.407 228.592 525.273 227.638C525.384 227.763 525.273 227.86 525.246 227.956C524.997 228.579 524.72 229.201 524.485 229.823C524.375 230.113 524.209 230.238 523.904 230.293C522.743 230.5 521.596 230.735 520.379 230.984C520.642 231.261 520.877 231.496 521.098 231.745C521.388 232.076 521.637 232.45 521.803 232.865C521.914 233.127 522.052 233.169 522.328 233.113C523.614 232.837 524.914 232.602 526.31 232.325C526.089 232.878 525.826 233.348 525.702 233.846C525.481 234.703 524.983 235.118 524.098 235.16C523.642 235.173 523.199 235.325 522.743 235.408C522.55 235.436 522.453 235.505 522.453 235.74C522.453 238.27 521.208 240.081 519.218 241.478C518.333 242.1 517.351 242.542 516.314 242.847C516.217 242.874 516.121 242.902 516.038 242.943C516.01 242.943 515.996 242.985 515.969 243.04L515.941 243.054Z" fill="white"/>
<path d="M430 179.816L541.656 243.815V339.82L430.678 277.176L430 179.816Z" fill="#5275BF"/>
<path d="M429.475 180.714L440.549 187.059L467.164 202.323L499.391 220.794L527.388 236.845L536.568 242.113L539.402 243.744C539.831 243.993 540.425 244.505 540.923 244.615C540.992 244.629 541.061 244.698 541.117 244.726L540.605 243.827C540.605 254.667 540.605 265.52 540.605 276.359C540.605 287.198 540.605 310.771 540.605 327.984V339.818L542.167 338.92L531.162 332.712L504.714 317.78L472.556 299.627L444.877 284.005L435.752 278.848L432.904 277.244C432.475 277.009 431.881 276.497 431.411 276.4C431.342 276.4 431.272 276.318 431.217 276.29L431.729 277.189L431.494 244.311L431.12 191.885L431.037 179.843C431.037 178.515 428.95 178.501 428.964 179.843L429.199 212.72L429.572 265.146L429.655 277.189C429.655 277.548 429.848 277.907 430.166 278.087L441.172 284.295L467.62 299.227L499.778 317.38L527.457 333.002L536.582 338.159C538.006 338.961 539.43 339.929 540.923 340.607C540.992 340.634 541.048 340.676 541.117 340.717C541.794 341.104 542.679 340.62 542.679 339.818C542.679 328.979 542.679 318.126 542.679 307.287C542.679 290.074 542.679 272.875 542.679 255.662V243.827C542.679 243.468 542.485 243.108 542.167 242.929L531.093 236.583L504.479 221.319L472.251 202.848L444.255 186.797L435.074 181.529C433.637 180.714 432.213 179.718 430.706 179.027C430.636 178.999 430.581 178.958 430.512 178.916C429.351 178.253 428.3 180.036 429.461 180.714H429.475Z" fill="#2B63A8"/>
</svg>
