<svg width="448" height="448" viewBox="0 0 448 448" fill="none" xmlns="http://www.w3.org/2000/svg">
<rect width="447.401" height="447.401" transform="translate(0 0.458008)" fill="white"/>
<g clip-path="url(#clip0_1243_9774)">
<path d="M228.666 146.906V299.885C228.666 300.695 228.48 301.744 228.666 302.541C228.666 302.567 228.653 302.647 228.666 302.673C227.06 300.297 229.356 301.824 228.746 301.93C228.772 301.93 228.454 302.209 228.706 301.983C228.347 302.302 228.069 302.779 227.737 303.138C225.838 305.262 223.608 307.028 221.085 308.342C214.965 311.528 207.517 311.422 201.331 308.475C200.601 308.13 199.924 307.705 199.207 307.333C198.065 306.722 197.215 307.147 196.233 307.546C193.365 308.714 190.259 309.325 187.165 309.245C179.943 309.072 173.624 304.784 170.079 298.611C168.406 295.703 167.344 292.464 166.946 289.132C166.853 288.348 166.402 287.339 165.486 287.207C159.963 286.423 154.626 283.728 150.882 279.586C144.098 272.085 143.766 260.88 148.652 252.317C149.315 251.136 148.678 249.821 147.457 249.397C140.713 247.047 135.681 241.272 134.367 234.235C132.973 226.814 136.345 219.074 142.425 214.706C143.328 214.056 143.686 213.007 143.142 211.985C139.624 205.347 139.823 196.771 143.779 190.305C146.647 185.632 151.506 182.034 156.723 180.587C157.785 180.295 158.356 179.193 158.117 178.131C155.94 168.825 159.604 158.655 167.955 153.663C173.279 150.477 180.275 149.734 186.223 151.526C187.338 151.858 188.28 151.114 188.679 150.132C191.785 142.299 199.233 136.418 207.743 135.9C216.253 135.382 224.71 140.241 228.958 147.888C230.206 150.132 233.645 148.127 232.397 145.884C227.405 136.975 217.554 131.121 207.225 131.97C196.897 132.82 188.546 139.657 184.802 149.096L187.258 147.702C179.983 145.499 171.314 146.614 164.994 150.822C155.714 156.996 151.732 168.493 154.254 179.206L155.648 176.75C149.236 178.516 143.421 182.977 140.075 188.712C135.615 196.346 135.548 206.197 139.677 213.99L140.394 211.268C132.893 216.671 128.91 225.633 130.424 234.82C131.831 243.449 138.243 250.392 146.381 253.247L145.187 250.326C139.624 260.097 139.982 272.431 147.098 281.312C151.267 286.53 157.785 290.127 164.41 291.07L162.95 289.145C163.985 297.562 168.26 305.501 175.668 309.935C183.076 314.369 191.573 314.077 199.007 310.652H197.003C206.84 316.786 219.758 315.763 228.44 308.077C229.927 306.762 232.556 304.585 232.649 302.448C232.689 301.598 232.649 300.735 232.649 299.899V171.427C232.649 163.381 232.914 155.296 232.649 147.251C232.649 147.132 232.649 147.012 232.649 146.906C232.649 144.344 228.666 144.344 228.666 146.906Z" fill="#221F20"/>
<path d="M154.254 179.206C155.874 183.72 160.082 187.265 164.835 187.916C167.504 188.287 170.172 187.916 172.734 187.106C175.297 186.296 174.128 182.486 171.672 183.269C170.637 183.601 169.575 183.88 168.499 184.026C168.765 183.986 168.194 184.052 168.101 184.065C167.875 184.079 167.636 184.092 167.397 184.105C166.933 184.119 166.455 184.105 165.99 184.079C165.857 184.079 165.326 184.012 165.725 184.065C165.525 184.039 165.326 183.999 165.14 183.959C164.769 183.88 164.397 183.8 164.025 183.68C163.853 183.627 163.68 183.574 163.507 183.508C163.415 183.468 162.95 183.282 163.176 183.388C163.401 183.495 162.963 183.282 162.87 183.242C162.698 183.163 162.525 183.07 162.366 182.977C162.1 182.831 161.848 182.672 161.596 182.499C161.463 182.406 161.344 182.313 161.211 182.22C161.569 182.472 161.251 182.247 161.091 182.127C160.653 181.755 160.242 181.357 159.857 180.919C159.684 180.72 159.511 180.521 159.352 180.308C159.737 180.773 159.272 180.176 159.14 180.003C158.914 179.658 158.688 179.313 158.489 178.954C158.33 178.662 158.197 178.37 158.051 178.065C157.932 177.839 158.263 178.649 158.091 178.158C157.732 177.149 156.737 176.472 155.635 176.764C154.652 177.029 153.882 178.198 154.241 179.22L154.254 179.206Z" fill="#221F20"/>
<path d="M186.21 151.553C186.741 151.752 185.758 151.34 186.223 151.553C186.608 151.725 186.993 151.911 187.378 152.097C188.639 152.721 189.86 153.438 191.029 154.248C191.215 154.38 191.387 154.5 191.573 154.633C191.666 154.699 192.051 154.991 191.918 154.885C191.772 154.779 192.197 155.097 192.263 155.164C192.476 155.336 192.675 155.509 192.874 155.681C193.591 156.305 194.255 156.983 194.879 157.699C194.945 157.779 195.264 158.177 195.197 158.084C195.131 158.005 195.41 158.376 195.489 158.483C195.782 158.894 196.047 159.319 196.299 159.757C196.406 159.956 196.512 160.142 196.605 160.341C196.658 160.461 196.711 160.567 196.764 160.687C196.897 160.979 196.671 160.434 196.791 160.74C196.976 161.191 197.122 161.656 197.242 162.12C197.414 162.797 197.468 163.129 197.494 163.567C197.534 164.165 197.521 164.762 197.494 165.36C197.428 166.276 197.029 167.802 196.552 168.891C196.127 169.874 196.259 171.029 197.268 171.613C198.105 172.104 199.565 171.891 199.99 170.896C202.114 166.01 202.008 160.7 198.822 156.292C196.552 153.146 193.379 150.716 189.953 148.911C189.077 148.459 188.188 148.034 187.272 147.676C186.263 147.291 185.081 148.101 184.816 149.07C184.51 150.198 185.201 151.128 186.21 151.526V151.553Z" fill="#221F20"/>
<path d="M141.934 214.919C142.598 214.666 143.301 214.494 143.992 214.335C144.31 214.255 144.642 214.189 144.961 214.135C145.173 214.096 145.372 214.056 145.585 214.029C145.678 214.016 146.381 213.923 145.89 213.976C146.806 213.87 147.722 213.804 148.638 213.804C150.789 213.804 152.621 214.069 154.692 214.945C156.763 215.821 158.821 217.534 160.215 219.512C160.839 220.388 161.954 220.8 162.936 220.229C163.799 219.725 164.277 218.384 163.653 217.508C161.011 213.75 157.215 211.055 152.661 210.206C149.368 209.582 145.983 209.754 142.73 210.538C142.106 210.684 141.469 210.856 140.858 211.082C139.849 211.454 139.159 212.423 139.464 213.538C139.73 214.507 140.898 215.304 141.921 214.932L141.934 214.919Z" fill="#221F20"/>
<path d="M166.534 238.019C165.698 243.529 167.477 249.622 171.433 253.579C173.478 255.623 176 257.03 178.709 258C179.718 258.358 180.886 257.588 181.165 256.606C181.47 255.504 180.793 254.521 179.771 254.15C178.748 253.778 177.766 253.326 176.784 252.729C175.801 252.132 175.403 251.826 174.606 251.096C174.274 250.791 173.969 250.472 173.664 250.127C173.518 249.968 173.385 249.795 173.239 249.622C173.199 249.569 173.013 249.317 173.212 249.596C173.146 249.503 173.066 249.397 173 249.304C172.495 248.6 172.071 247.843 171.699 247.06C171.659 246.98 171.447 246.476 171.526 246.702C171.606 246.901 171.42 246.436 171.393 246.343C171.261 245.971 171.128 245.613 171.022 245.228C170.823 244.551 170.663 243.874 170.544 243.17C170.517 242.998 170.491 242.812 170.464 242.639C170.517 242.945 170.491 242.918 170.464 242.652C170.424 242.334 170.398 242.002 170.385 241.683C170.358 241.192 170.345 240.688 170.345 240.196C170.345 239.798 170.371 239.413 170.398 239.015C170.438 238.603 170.477 238.431 170.385 239.068C170.544 238.006 170.119 236.931 168.991 236.612C168.048 236.36 166.707 236.931 166.534 238.006V238.019Z" fill="#221F20"/>
<path d="M197.839 210.153C195.688 205.041 191.029 200.74 185.599 199.412C182.771 198.722 179.89 198.828 177.062 199.412C176.013 199.625 175.403 200.873 175.668 201.868C175.974 202.957 177.062 203.475 178.124 203.262C179.186 203.05 180.235 202.917 181.377 202.917C181.868 202.917 182.373 202.93 182.864 202.984C183.408 203.037 183.435 203.037 184.045 203.156C185.944 203.541 187.072 204.019 188.665 205.068C188.811 205.161 188.957 205.267 189.103 205.36C189.196 205.426 189.621 205.732 189.316 205.506C189.621 205.745 189.913 205.997 190.205 206.249C190.736 206.727 191.241 207.245 191.719 207.79C191.918 208.015 192.117 208.254 192.303 208.493C192.449 208.666 192.197 208.36 192.197 208.36C192.25 208.427 192.303 208.493 192.356 208.573C192.449 208.706 192.555 208.838 192.648 208.984C192.927 209.383 193.192 209.794 193.445 210.219C193.644 210.551 193.83 210.896 194.002 211.255C194.109 211.48 194.414 212.197 194.002 211.215C194.414 212.21 195.317 212.914 196.458 212.609C197.388 212.356 198.264 211.162 197.852 210.153H197.839Z" fill="#221F20"/>
<path d="M233.127 196.399H268.122C269.41 196.399 270.167 195.948 271.003 194.979C274.389 191.075 277.854 187.212 281.173 183.256C282.5 181.663 281.916 178.702 281.916 176.764V168.918C281.916 166.356 277.933 166.356 277.933 168.918V181.663L278.518 180.256C274.84 184.504 271.149 188.752 267.472 193L268.879 192.416H233.14C230.578 192.416 230.578 196.399 233.14 196.399H233.127Z" fill="#221F20"/>
<path d="M233.127 212.768H267.366C268.401 212.768 269.424 212.914 270.273 212.184C271.229 211.361 272.012 210.179 272.822 209.236C275.65 205.971 278.491 202.705 281.319 199.439L279.912 200.023C284.864 199.983 289.829 199.943 294.781 199.89C297.343 199.864 297.343 195.881 294.781 195.907C290.147 195.947 285.501 195.987 280.867 196.027C279.991 196.027 279.221 195.987 278.504 196.624C278.079 196.996 277.721 197.527 277.349 197.965L271.813 204.351L267.472 209.369L268.879 208.785H233.14C230.578 208.785 230.578 212.768 233.14 212.768H233.127Z" fill="#221F20"/>
<path d="M231.043 176.285H240.548C241.73 176.285 243.814 176.631 244.73 175.701C245.646 174.772 246.469 173.471 247.306 172.396C248.315 171.108 249.31 169.82 250.319 168.532C250.983 167.683 251.142 166.541 250.319 165.718C249.629 165.027 248.169 164.868 247.505 165.718C245.646 168.107 243.774 170.497 241.916 172.887L243.323 172.303H231.043C228.48 172.303 228.48 176.285 231.043 176.285Z" fill="#221F20"/>
<path d="M212.655 186.972C213.757 186.747 214.766 186.627 215.908 186.627C216.399 186.627 216.903 186.64 217.395 186.694C217.939 186.747 217.966 186.747 218.576 186.866C220.475 187.251 221.603 187.729 223.196 188.778C223.342 188.871 223.488 188.977 223.634 189.07C223.727 189.136 224.152 189.442 223.847 189.216C224.152 189.455 224.444 189.707 224.736 189.959C225.267 190.437 225.772 190.955 226.25 191.499C226.449 191.725 226.648 191.964 226.834 192.203C226.98 192.376 226.728 192.07 226.728 192.07C226.781 192.137 226.834 192.203 226.887 192.283C226.98 192.416 227.086 192.548 227.179 192.694C227.458 193.093 227.723 193.504 227.976 193.929C228.175 194.261 228.361 194.606 228.533 194.965C228.639 195.19 228.945 195.907 228.533 194.925C228.945 195.92 229.848 196.624 230.989 196.319C231.919 196.066 232.795 194.872 232.383 193.863C230.233 188.751 225.573 184.45 220.143 183.122C217.315 182.432 214.434 182.538 211.606 183.122C210.558 183.335 209.947 184.583 210.212 185.578C210.518 186.667 211.606 187.185 212.668 186.972H212.655Z" fill="#221F20"/>
<path d="M231.905 228.872C228.693 224.345 223.17 221.251 217.607 221.132C214.687 221.065 211.899 221.849 209.257 223.03C208.274 223.468 208.035 224.902 208.54 225.752C209.137 226.761 210.279 226.907 211.261 226.469C213.638 225.407 216.213 224.902 218.802 225.194C220.594 225.393 222.387 226.071 223.993 227.026C224.365 227.252 224.723 227.478 225.082 227.73C225.267 227.863 225.467 227.996 225.652 228.142C225.294 227.876 225.838 228.301 225.905 228.341C226.422 228.766 226.914 229.217 227.392 229.695C227.75 230.053 228.069 230.425 228.401 230.81C228.852 231.341 228.162 230.465 228.467 230.89C229.091 231.766 230.206 232.177 231.189 231.607C232.052 231.102 232.529 229.761 231.905 228.885V228.872Z" fill="#221F20"/>
<path d="M190.75 238.643C191.307 244.166 194.573 249.609 199.353 252.463C201.849 253.95 204.663 254.68 207.544 254.946C208.619 255.052 209.535 253.963 209.535 252.954C209.535 251.799 208.619 251.069 207.544 250.963C207.371 250.95 207.199 250.936 207.026 250.91C206.986 250.91 206.562 250.843 206.774 250.883C207.039 250.923 206.389 250.817 206.442 250.83C206.309 250.804 206.177 250.79 206.057 250.764C205.499 250.658 204.942 250.525 204.398 250.365C203.893 250.219 203.389 250.034 202.884 249.834C203.256 249.98 202.711 249.755 202.579 249.688C202.326 249.569 202.088 249.449 201.849 249.317C201.437 249.091 201.025 248.839 200.627 248.573C200.455 248.454 200.295 248.334 200.123 248.215C199.831 248.002 200.123 248.215 200.162 248.255C200.043 248.162 199.937 248.069 199.817 247.976C199.167 247.418 198.556 246.821 198.012 246.157C197.945 246.064 197.879 245.971 197.799 245.891C197.613 245.692 198.012 246.197 197.866 245.971C197.746 245.812 197.627 245.652 197.521 245.493C197.295 245.175 197.082 244.856 196.897 244.524C196.525 243.913 196.193 243.276 195.901 242.612C195.874 242.546 195.848 242.48 195.808 242.413C195.649 242.055 195.954 242.785 195.861 242.533C195.808 242.387 195.742 242.241 195.688 242.081C195.582 241.802 195.476 241.524 195.383 241.232C195.224 240.754 195.078 240.262 194.972 239.758C194.879 239.373 194.799 238.988 194.733 238.603C194.693 238.364 194.613 237.873 194.746 238.762C194.746 238.722 194.746 238.683 194.733 238.643C194.626 237.567 193.896 236.651 192.741 236.651C191.745 236.651 190.644 237.567 190.75 238.643Z" fill="#221F20"/>
<path d="M164.941 291.137C170.53 290.752 176.73 288.588 180.607 284.433C182.32 282.587 183.554 280.357 184.152 277.901C184.749 275.445 180.912 274.343 180.315 276.839C180.063 277.901 179.81 278.591 179.412 279.321C179.213 279.706 178.987 280.078 178.735 280.45C178.695 280.516 178.284 281.074 178.509 280.795C178.363 280.981 178.204 281.167 178.045 281.352C177.766 281.671 177.474 281.963 177.168 282.255C176.996 282.415 176.823 282.574 176.637 282.733C176.558 282.8 176.053 283.211 176.345 282.972C175.655 283.503 174.912 283.968 174.155 284.393C173.81 284.579 173.451 284.764 173.093 284.937C172.894 285.03 172.681 285.123 172.482 285.216C172.402 285.256 172.336 285.282 172.256 285.309C172.031 285.402 172.562 285.189 172.203 285.335C171.473 285.614 170.743 285.88 169.986 286.105C168.778 286.477 167.53 286.756 166.282 286.968C166.03 287.008 165.778 287.035 165.525 287.088C165.486 287.088 166.083 287.021 165.698 287.061C165.605 287.061 165.512 287.088 165.432 287.088C165.273 287.101 165.114 287.128 164.955 287.128C163.879 287.207 162.963 287.99 162.963 289.119C162.963 290.141 163.879 291.19 164.955 291.11L164.941 291.137Z" fill="#221F20"/>
<path d="M200.109 288.548C200.295 288.76 199.897 288.176 199.884 288.256C199.884 288.309 200.056 288.495 200.083 288.548C200.282 288.88 200.481 289.212 200.654 289.557C200.707 289.676 200.76 289.783 200.813 289.902C200.839 289.969 200.667 289.477 200.813 289.929C200.919 290.234 201.025 290.526 201.118 290.831C201.224 291.177 201.304 291.522 201.384 291.88C201.424 292.106 201.463 292.318 201.503 292.544C201.556 292.916 201.503 292.305 201.53 292.823C201.915 298.332 199.459 303.391 196.286 307.931C195.662 308.807 196.126 310.148 197.003 310.653C197.998 311.237 199.114 310.825 199.724 309.936C203.189 304.984 206.15 298.85 205.499 292.637C205.247 290.207 204.53 287.632 202.924 285.733C202.233 284.91 200.826 285.017 200.109 285.733C199.299 286.543 199.419 287.725 200.109 288.548Z" fill="#221F20"/>
<path d="M261.604 158.164C261.564 161.31 259.626 164.271 256.625 165.359C253.625 166.448 250.001 165.545 247.916 162.943C245.938 160.487 245.739 156.929 247.359 154.221C248.978 151.512 252.178 150.039 255.258 150.596C258.935 151.273 261.551 154.46 261.604 158.164C261.644 160.726 265.627 160.726 265.587 158.164C265.52 153.265 262.507 148.963 257.926 147.224C253.346 145.485 248.062 146.972 245.022 150.676C241.982 154.38 241.385 159.876 243.92 164.125C246.456 168.373 251.381 170.471 256.187 169.594C261.644 168.612 265.52 163.607 265.587 158.164C265.627 155.601 261.644 155.601 261.604 158.164Z" fill="#221F20"/>
<path d="M279.633 171.373C286.07 171.373 291.289 166.154 291.289 159.717C291.289 153.279 286.07 148.061 279.633 148.061C273.195 148.061 267.976 153.279 267.976 159.717C267.976 166.154 273.195 171.373 279.633 171.373Z" fill="url(#paint0_linear_1243_9774)"/>
<path d="M308.163 263.867C314.601 263.867 319.819 258.649 319.819 252.211C319.819 245.773 314.601 240.555 308.163 240.555C301.725 240.555 296.507 245.773 296.507 252.211C296.507 258.649 301.725 263.867 308.163 263.867Z" fill="url(#paint1_linear_1243_9774)"/>
<path d="M233.127 256.671H268.866L267.459 256.087C271.136 260.336 274.827 264.584 278.504 268.832L277.92 267.425V280.17C277.92 282.732 281.903 282.732 281.903 280.17V269.177C281.903 268.474 282.036 267.584 281.836 266.894C281.637 266.204 280.947 265.58 280.482 265.049L278.106 262.301L272.132 255.41C271.163 254.282 270.3 252.768 268.68 252.689C267.246 252.622 265.799 252.689 264.365 252.689H233.127C230.565 252.689 230.565 256.671 233.127 256.671Z" fill="#221F20"/>
<path d="M233.127 240.302H268.866L267.459 239.718C270.552 243.289 273.645 246.86 276.739 250.418C277.801 251.64 278.544 252.981 280.297 253.047C282.753 253.14 285.222 253.087 287.678 253.113C290.134 253.14 292.418 253.153 294.781 253.18C297.343 253.206 297.343 249.224 294.781 249.197C289.829 249.157 284.864 249.117 279.912 249.064L281.319 249.648C278.849 246.794 276.367 243.94 273.898 241.085C272.756 239.771 271.68 238.364 270.472 237.129C269.729 236.372 268.972 236.319 268.016 236.319H233.14C230.578 236.319 230.578 240.302 233.14 240.302H233.127Z" fill="#221F20"/>
<path d="M231.043 276.785H243.323L241.916 276.201C243.774 278.591 245.646 280.981 247.505 283.37C248.169 284.22 249.629 284.061 250.319 283.37C251.156 282.534 250.983 281.406 250.319 280.556C249.483 279.481 248.633 278.392 247.797 277.317C246.814 276.055 245.898 274.635 244.796 273.466C243.934 272.537 242.354 272.803 241.199 272.803H231.043C228.48 272.803 228.48 276.785 231.043 276.785Z" fill="#221F20"/>
<path d="M265.587 290.923C265.52 286.025 262.507 281.723 257.926 279.984C253.346 278.245 248.062 279.732 245.022 283.436C241.982 287.14 241.385 292.636 243.92 296.884C246.456 301.133 251.381 303.23 256.187 302.354C261.644 301.372 265.52 296.367 265.587 290.923C265.627 288.361 261.644 288.361 261.604 290.923C261.564 294.07 259.626 297.03 256.625 298.119C253.625 299.208 250.001 298.305 247.916 295.703C245.938 293.247 245.739 289.689 247.359 286.981C248.978 284.272 252.178 282.799 255.258 283.356C258.935 284.033 261.551 287.219 261.604 290.923C261.644 293.486 265.627 293.486 265.587 290.923Z" fill="#221F20"/>
<path d="M279.633 301.027C286.07 301.027 291.289 295.808 291.289 289.37C291.289 282.933 286.07 277.714 279.633 277.714C273.195 277.714 267.976 282.933 267.976 289.37C267.976 295.808 273.195 301.027 279.633 301.027Z" fill="#C5D8E3"/>
<path d="M307.818 210.245C314.255 210.245 319.474 205.027 319.474 198.589C319.474 192.151 314.255 186.933 307.818 186.933C301.38 186.933 296.161 192.151 296.161 198.589C296.161 205.027 301.38 210.245 307.818 210.245Z" fill="#C5D8E3"/>
</g>
<defs>
<linearGradient id="paint0_linear_1243_9774" x1="267.963" y1="159.717" x2="291.289" y2="159.717" gradientUnits="userSpaceOnUse">
<stop stop-color="#9BCB9E"/>
<stop offset="1" stop-color="#78C1C4"/>
</linearGradient>
<linearGradient id="paint1_linear_1243_9774" x1="296.507" y1="252.211" x2="319.833" y2="252.211" gradientUnits="userSpaceOnUse">
<stop stop-color="#9BCB9E"/>
<stop offset="1" stop-color="#78C1C4"/>
</linearGradient>
<clipPath id="clip0_1243_9774">
<rect width="189.727" height="182.744" fill="white" transform="translate(130.105 131.891)"/>
</clipPath>
</defs>
</svg>
