<svg width="40" height="40" viewBox="0 0 40 40" fill="none" xmlns="http://www.w3.org/2000/svg">
<rect width="40" height="40" fill="white"/>
<g clip-path="url(#clip0_1202_5230)">
<path d="M9 29.5528L10.5642 30.9216L30.1173 22.9048L31.5642 12.7372L29.0223 11.9551L9 13.1283V29.5528Z" fill="#0565AD"/>
<path d="M10.5642 30.9214L31.2905 28.7706L31.486 12.9326L10.5642 14.4969V30.9214Z" fill="#6E94D0"/>
<path d="M10.5643 30.9997C11.2487 30.9215 11.9331 30.8629 12.637 30.7846L17.5839 30.2763L23.5671 29.6506L28.7291 29.1226L30.4303 28.9466C30.704 28.9271 30.9777 28.9271 31.2515 28.8684C31.2515 28.8684 31.271 28.8684 31.2906 28.8684C31.3297 28.8684 31.3688 28.8293 31.3688 28.7902C31.3884 27.0109 31.4079 25.2316 31.4275 23.4327L31.5252 14.9075C31.5252 14.2623 31.5252 13.5975 31.5448 12.9522C31.5448 12.9131 31.5057 12.874 31.4666 12.874C30.7627 12.9327 30.0783 12.9718 29.3744 13.0304L24.3884 13.402L18.3465 13.8517L13.1062 14.2427L11.3856 14.3796C11.1118 14.3992 10.8185 14.3796 10.5643 14.4383C10.5643 14.4383 10.5448 14.4383 10.5252 14.4383C10.4861 14.4383 10.447 14.4774 10.447 14.5165V30.9411C10.447 30.9411 10.6034 31.0388 10.6034 30.9411V14.4969L10.5252 14.5751C11.2291 14.5165 11.9135 14.4774 12.6174 14.4187L17.6034 14.0472L23.6453 13.5975L28.8856 13.2064L30.6062 13.0696L31.1537 13.0304C31.1537 13.0304 31.3688 13.0304 31.4275 13.0109C31.4275 13.0109 31.447 13.0109 31.4666 13.0109L31.3884 12.9327C31.3688 14.712 31.3493 16.4913 31.3297 18.2902L31.2319 26.8154C31.2319 27.4606 31.2319 28.1254 31.2124 28.7707L31.2906 28.6925C30.6062 28.7707 29.9219 28.8293 29.218 28.9075L24.271 29.4159L18.2878 30.0416L13.1258 30.5696L11.4247 30.7455C11.1705 30.7651 10.8772 30.7651 10.6034 30.8237C10.6034 30.8237 10.5839 30.8237 10.5643 30.8237C10.4666 30.8237 10.4666 30.9802 10.5643 30.9802V30.9997Z" fill="#0565AD"/>
<path d="M11.9525 22.6114L31.2905 20.4019L31.3491 12.9131L10.5642 14.4969L10.9553 15.0053V21.712C10.9553 22.2399 11.4245 22.6505 11.9525 22.5919V22.6114Z" fill="#223838"/>
<path d="M12.5977 22.9831L30.4888 21.106C31.0558 21.0473 31.5055 20.5585 31.5055 19.9915L31.5642 12.7568L10.5642 14.4971L11.3463 14.8881V21.849C11.3463 22.5138 11.9329 23.0418 12.5977 22.9831Z" fill="#0565AD"/>
<path d="M19.1675 24.2735L23.8602 23.6869V20.7539L19.1675 21.3405V24.2735Z" fill="#223838"/>
<path d="M19.5586 24.2735L24.2513 23.6869V20.7539L19.5586 21.3405V24.2735Z" fill="#0565AD"/>
<path d="M22.8827 13.3241C23.4226 13.3241 23.8603 13.149 23.8603 12.9331C23.8603 12.7171 23.4226 12.542 22.8827 12.542C22.3427 12.542 21.905 12.7171 21.905 12.9331C21.905 13.149 22.3427 13.3241 22.8827 13.3241Z" fill="#223838"/>
<path d="M18.1901 13.7147C18.73 13.7147 19.1677 13.5397 19.1677 13.3237C19.1677 13.1077 18.73 12.9326 18.1901 12.9326C17.6501 12.9326 17.2124 13.1077 17.2124 13.3237C17.2124 13.5397 17.6501 13.7147 18.1901 13.7147Z" fill="#223838"/>
<path d="M22.8826 10.078C21.5139 10.1758 20.1452 10.2736 18.7765 10.3518C18.5809 10.3518 18.3854 10.3713 18.1899 10.3909C17.877 10.4104 17.6033 10.6451 17.6033 10.9775V13.011C17.6033 13.7736 18.7765 13.7736 18.7765 13.011V11.5249C19.9496 11.4467 21.1228 11.3685 22.296 11.2903V12.6199C22.296 13.3825 23.4692 13.3825 23.4692 12.6199V10.6646C23.4692 10.3713 23.1955 10.0585 22.8826 10.078Z" fill="#6E94D0"/>
<path d="M22.9414 10C21.9247 10.0782 20.9079 10.1369 19.8911 10.2151C19.4023 10.2542 18.9135 10.2738 18.4247 10.3129C18.1509 10.3129 17.8772 10.3715 17.7012 10.6257C17.623 10.743 17.6034 10.8604 17.5839 10.9777C17.5839 11.2514 17.5839 11.5252 17.5839 11.7989V12.5224C17.5839 12.7179 17.5643 12.933 17.5839 13.1285C17.6621 13.5587 18.1314 13.7542 18.5029 13.5978C18.718 13.5196 18.8548 13.324 18.8744 13.109C18.8939 12.8939 18.8744 12.6397 18.8744 12.405V11.5252L18.7962 11.6034C19.4023 11.5643 20.0085 11.5252 20.5951 11.4861C21.1621 11.4469 21.7487 11.4469 22.3157 11.3687L22.2375 11.2905C22.2375 11.7402 22.218 12.1704 22.2375 12.6201C22.2375 12.8157 22.2962 12.9721 22.4526 13.109C22.7068 13.324 23.0979 13.324 23.352 13.109C23.4889 12.9916 23.5476 12.8352 23.5671 12.6592C23.5867 12.2486 23.5671 11.838 23.5671 11.4274C23.5671 11.1145 23.6453 10.6844 23.4889 10.3911C23.4107 10.1369 23.1956 10 22.9414 10C22.8437 10 22.8437 10.1369 22.9414 10.1564C23.2934 10.1564 23.4498 10.4497 23.4498 10.7626C23.4498 11.0754 23.4498 11.3492 23.4498 11.6425V12.4833C23.4498 12.6788 23.4498 12.8939 23.2543 13.0112C23.0196 13.1872 22.6481 13.1285 22.4917 12.8939C22.3744 12.6983 22.4135 12.405 22.4135 12.19V11.2905C22.4135 11.2905 22.3744 11.2123 22.3353 11.2123C21.7682 11.2905 21.1817 11.2905 20.6146 11.3296C20.0085 11.3687 19.4023 11.4078 18.8157 11.4469C18.7766 11.4469 18.7375 11.4861 18.7375 11.5252C18.7375 12.014 18.7766 12.5224 18.7375 13.0112C18.7375 13.3045 18.5029 13.5196 18.2096 13.5C17.8576 13.5 17.7208 13.2263 17.7208 12.9134C17.7208 12.405 17.7208 11.9162 17.7208 11.4078C17.7208 11.1928 17.6817 10.919 17.799 10.7235C17.9358 10.5084 18.1705 10.4693 18.4051 10.4497C18.8939 10.4106 19.3828 10.3911 19.8716 10.352C20.8884 10.2738 21.9051 10.2151 22.9219 10.1369C23.0196 10.1369 23.0196 9.98047 22.9219 9.98047L22.9414 10Z" fill="#0565AD"/>
</g>
<defs>
<clipPath id="clip0_1202_5230">
<rect width="22.5642" height="21" fill="white" transform="translate(9 10)"/>
</clipPath>
</defs>
</svg>
