<svg width="449" height="448" viewBox="0 0 449 448" fill="none" xmlns="http://www.w3.org/2000/svg">
<rect width="447.401" height="447.401" transform="translate(0.943359 0.0566406)" fill="white"/>
<g clip-path="url(#clip0_1243_9759)">
<path d="M304.739 226.067V283.419C304.739 284.694 304.765 285.942 304.46 287.19C303.398 291.425 299.627 294.598 295.246 294.77C293.945 294.823 292.644 294.77 291.343 294.77C283.324 294.77 275.306 294.77 267.287 294.77C254.821 294.77 242.355 294.77 229.902 294.77C217.449 294.77 204.133 294.77 191.242 294.77H156.193C151.241 294.77 146.821 292.009 145.666 286.964C145.042 284.216 145.44 280.99 145.44 278.202V226.054C145.44 223.491 141.457 223.491 141.457 226.054V283.871C141.457 290.522 145.241 296.669 151.972 298.328C154.056 298.846 156.167 298.753 158.291 298.753H220.117C233.261 298.753 246.391 298.753 259.534 298.753H288.024C290.108 298.753 292.193 298.753 294.277 298.753C300.437 298.74 305.933 295.208 308.005 289.287C309.106 286.114 308.735 282.37 308.735 279.065V226.067C308.735 223.505 304.752 223.505 304.752 226.067H304.739Z" fill="#221F20"/>
<path d="M305.854 222.057C293.719 225.642 281.598 229.226 269.464 232.811C255.604 236.913 241.77 241.055 227.897 245.104C224.073 246.22 220.449 244.626 216.785 243.551C209.377 241.374 201.969 239.197 194.561 237.019C178.736 232.359 162.898 227.713 147.073 223.053C145.931 222.721 144.776 222.402 143.647 222.044C140.926 221.194 138.788 219.083 138.018 216.322C137.673 215.101 137.713 213.879 137.713 212.618C137.713 204.878 137.686 197.138 137.713 189.398C137.726 184.619 141.045 180.676 145.997 180.583C146.648 180.583 147.298 180.583 147.962 180.583H301.34C302.043 180.583 302.747 180.583 303.451 180.583C308.27 180.676 311.722 184.473 311.748 189.212C311.788 196.899 311.748 204.599 311.748 212.286C311.748 213.202 311.814 214.145 311.708 215.061C311.337 218.366 308.987 221.048 305.854 222.057C303.424 222.84 304.46 226.677 306.916 225.894C312.545 224.088 315.731 219.15 315.731 213.361V189.757C315.731 184.566 313.301 179.786 308.376 177.636C305.176 176.242 301.499 176.6 298.087 176.6H171.354C162.911 176.6 154.441 176.428 145.997 176.6C139.2 176.746 133.863 182.123 133.73 188.894C133.677 191.947 133.73 195.014 133.73 198.081V211.503C133.73 215.857 134.235 220.039 137.726 223.172C139.691 224.938 141.975 225.721 144.417 226.438L151.693 228.576C159.964 231.005 168.248 233.435 176.519 235.878C191.242 240.205 205.965 244.533 220.688 248.861C223.303 249.631 225.919 249.817 228.587 249.061C230.101 248.636 231.601 248.171 233.101 247.72C240.496 245.529 247.891 243.352 255.285 241.161C271.469 236.369 287.665 231.589 303.849 226.797C304.871 226.491 305.893 226.186 306.916 225.894C309.372 225.164 308.323 221.327 305.854 222.057Z" fill="#221F20"/>
<path d="M260.49 176.494H242.235V169.139C242.235 167.228 240.682 165.674 238.77 165.674H210.107C208.196 165.674 206.642 167.228 206.642 169.139V176.494H188.388V169.139C188.374 157.165 198.119 147.42 210.107 147.42H238.77C250.745 147.42 260.503 157.165 260.503 169.153V176.508L260.49 176.494Z" fill="url(#paint0_linear_1243_9759)"/>
<path d="M195.357 233.847C195.357 228.678 191.17 224.487 186.004 224.487C180.839 224.487 176.651 228.678 176.651 233.847V245.862C176.651 251.031 180.839 255.221 186.004 255.221C191.17 255.221 195.357 251.031 195.357 245.862V233.847Z" fill="#C5D8E3"/>
<path d="M274.881 233.847C274.881 228.678 270.693 224.487 265.528 224.487C260.362 224.487 256.175 228.678 256.175 233.847V245.862C256.175 251.031 260.362 255.221 265.528 255.221C270.693 255.221 274.881 251.031 274.881 245.862V233.847Z" fill="#C5D8E3"/>
</g>
<defs>
<linearGradient id="paint0_linear_1243_9759" x1="188.374" y1="161.957" x2="260.49" y2="161.957" gradientUnits="userSpaceOnUse">
<stop stop-color="#9BCB9E"/>
<stop offset="1" stop-color="#78C1C4"/>
</linearGradient>
<clipPath id="clip0_1243_9759">
<rect width="182.027" height="151.346" fill="white" transform="translate(133.704 147.42)"/>
</clipPath>
</defs>
</svg>
