<svg width="449" height="448" viewBox="0 0 449 448" fill="none" xmlns="http://www.w3.org/2000/svg">
<rect width="447.401" height="447.401" transform="translate(0.96582 0.458008)" fill="white"/>
<g clip-path="url(#clip0_1243_9781)">
<path d="M293.417 259.372H269.994C265.896 259.372 262.575 262.694 262.575 266.791V273.594C262.575 277.692 265.896 281.013 269.994 281.013H293.417C297.514 281.013 300.836 277.692 300.836 273.594V266.791C300.836 262.694 297.514 259.372 293.417 259.372Z" fill="#C5D8E3"/>
<path d="M181.161 225.193C183.462 225.225 185.146 226.958 185.098 229.259C185.049 231.527 183.251 233.211 180.951 233.163C178.715 233.114 176.885 231.235 176.934 229.064C176.982 226.894 178.861 225.16 181.161 225.193Z" fill="#221F20"/>
<path d="M141.053 229.259C140.989 231.381 138.948 233.292 136.842 233.243C134.655 233.195 132.808 231.283 132.857 229.097C132.889 226.877 134.768 225.112 137.004 225.177C139.255 225.241 141.134 227.137 141.053 229.259Z" fill="#221F20"/>
<path d="M270.545 230.457C270.61 232.708 268.277 234.361 266.334 233.194C264.179 231.915 262.333 230.116 261.101 227.946C259.984 226.002 261.701 223.702 263.969 223.831C265.783 223.929 270.497 228.675 270.561 230.457H270.545Z" fill="#221F20"/>
<path d="M299.671 223.831C302.036 223.896 303.493 226.504 302.019 228.416C300.675 230.149 299.055 231.753 297.289 233.065C295.491 234.425 292.997 233 292.867 230.764C292.754 228.772 297.63 223.783 299.671 223.831Z" fill="#221F20"/>
<path d="M277.284 270.581C277.025 272.623 275.989 273.789 274.223 273.805C272.441 273.821 271.259 272.671 271.242 270.841C271.226 268.978 272.376 267.941 274.207 267.876C276.134 267.812 276.879 269.14 277.301 270.565L277.284 270.581Z" fill="#221F20"/>
<path d="M289.319 267.859C291.215 268.135 292.3 269.204 292.17 271.018C292.041 272.816 290.777 273.918 288.995 273.804C287.197 273.691 286.144 272.46 286.242 270.629C286.339 268.75 287.57 267.924 289.319 267.859Z" fill="#221F20"/>
<path d="M136.032 271.034C130.103 270.937 126.086 267.163 122.457 262.903C118.829 258.642 116.026 253.734 114.261 248.47C110.227 236.45 111.799 223.443 118.489 212.687C122.279 206.58 127.527 201.526 133.651 197.784C134.72 197.136 135.27 195.565 134.525 194.463C130.054 187.871 120.594 184.307 114.39 190.9C108.737 196.877 110.551 205.592 115.573 211.326C117.63 213.691 121.064 210.241 119.007 207.892C115.864 204.312 114.164 198.675 117.517 194.674C121.356 190.074 127.463 192.698 130.33 196.926L131.205 193.605C119.234 200.91 110.26 213.043 107.862 227.023C105.465 241.002 109.644 254.82 118.424 265.608C122.992 271.213 128.435 275.764 136.032 275.894C139.158 275.943 139.158 271.083 136.032 271.034Z" fill="#221F20"/>
<path d="M188.273 196.893C188.921 195.905 189.714 195.031 190.638 194.253C190.913 194.01 191.302 193.751 191.739 193.476C192.015 193.314 192.29 193.152 192.565 193.006C192.679 192.957 193.278 192.682 193.084 192.763C193.57 192.568 194.072 192.423 194.574 192.309C195.076 192.196 195.19 192.163 195.935 192.163C196.178 192.163 196.437 192.163 196.68 192.18C197.101 192.18 196.599 192.131 197.02 192.212C197.506 192.309 198.267 192.536 198.526 192.649C199.579 193.135 200.017 193.492 200.762 194.302C200.94 194.48 201.102 194.674 201.264 194.869C201.005 194.561 201.264 194.852 201.361 194.998C201.556 195.274 201.734 195.565 201.912 195.857C202.787 197.379 203.046 198.934 202.884 200.846C202.835 201.332 202.738 201.899 202.544 202.563C202.382 203.146 202.187 203.729 201.977 204.199C201.377 205.544 200.567 206.775 199.579 207.86C198.705 208.832 198.607 210.338 199.579 211.294C200.47 212.185 202.139 212.282 203.013 211.294C207.241 206.564 209.38 199.647 206.286 193.751C203.661 188.762 197.96 186.17 192.517 187.822C188.953 188.891 186.086 191.37 184.061 194.431C183.332 195.533 183.85 197.12 184.936 197.752C186.118 198.449 187.528 197.979 188.257 196.877L188.273 196.893Z" fill="#221F20"/>
<path d="M123.495 161.856C129.731 167.914 135.967 173.989 142.22 180.047C144.407 182.169 146.804 185.36 149.623 186.705C152.83 188.244 155.535 186.77 158.192 185.02C159.942 183.87 161.529 182.169 163.602 183.562C166.583 185.571 169.353 187.952 172.204 190.139L185.26 200.133C188.484 202.596 191.772 204.977 194.688 207.828C201.329 214.323 205.946 222.569 207.679 231.705C209.412 240.841 208.165 250.932 202.252 258.692C196.923 265.689 188.662 270.095 179.914 270.776C176.82 271.019 176.788 275.878 179.914 275.635C196.842 274.323 210.951 261.462 213.024 244.469C215.098 227.477 206.043 209.95 192.193 199.356C184.353 193.362 176.513 187.369 168.673 181.375C167.765 180.679 166.891 179.934 165.951 179.302C163.003 177.277 159.909 178.055 157.155 179.885C155.552 180.938 153.089 183.433 151.178 181.959C150.287 181.278 149.51 180.339 148.716 179.561C141.459 172.515 134.202 165.468 126.945 158.406C124.693 156.219 121.259 159.653 123.511 161.84L123.495 161.856Z" fill="#221F20"/>
<path d="M145.621 234.62C143.24 242.687 140.858 250.754 138.477 258.804C137.376 262.514 136.274 266.223 135.189 269.933C133.423 275.991 135.059 282.503 140.065 286.553C144.6 290.214 149.832 289.971 155.275 289.971C159.843 289.971 165.124 290.651 169.595 289.452C177.5 287.33 182.295 279.02 180.399 271.099C179.719 268.248 178.779 265.43 177.97 262.611C175.297 253.329 172.608 244.031 169.935 234.749C169.076 231.753 164.379 233.032 165.254 236.045C167.408 243.481 169.546 250.932 171.701 258.367L175.135 270.257C176.414 274.679 176.236 279.134 172.559 282.455C168.882 285.775 163.974 285.111 159.438 285.111H151.873C150.027 285.111 148.229 285.176 146.447 284.609C140.777 282.795 138.283 276.801 139.87 271.326C140.81 268.054 141.798 264.798 142.77 261.526C145.297 252.989 147.824 244.436 150.335 235.9C151.226 232.887 146.528 231.607 145.653 234.604L145.621 234.62Z" fill="#221F20"/>
<path d="M148.57 254.205H167.603C167.781 254.836 169.515 261.073 165.465 266.094C163.019 269.14 159.779 270.079 158.564 270.371C157.576 270.144 153.316 269.075 150.481 264.896C147.225 260.117 148.375 254.998 148.586 254.188L148.57 254.205Z" fill="url(#paint0_linear_1243_9781)"/>
<path d="M123.591 170.004C123.85 166.019 124.11 162.034 124.369 158.065C124.401 157.499 124.45 156.915 124.482 156.348L122.052 158.778C125.616 158.859 129.164 158.956 132.727 159.037C133.23 159.037 133.732 159.07 134.234 159.07C135.497 159.102 136.728 157.936 136.664 156.64C136.599 155.344 135.595 154.243 134.234 154.21C130.67 154.129 127.123 154.032 123.559 153.951C123.057 153.951 122.555 153.919 122.052 153.919C120.676 153.886 119.704 155.069 119.623 156.348C119.363 160.333 119.104 164.318 118.845 168.287C118.813 168.854 118.764 169.437 118.732 170.004C118.651 171.267 119.914 172.482 121.162 172.434C122.555 172.369 123.51 171.365 123.591 170.004Z" fill="#221F20"/>
<path d="M205.556 288.011C212.343 281.418 219.131 274.825 225.902 268.232C227.1 267.066 228.267 265.835 229.514 264.717C231.199 263.211 232.624 264.474 234.163 265.495C237.176 267.487 240.335 269.609 243.996 267.487C245.373 266.694 246.604 265.56 247.851 264.588C252.095 261.348 256.339 258.092 260.583 254.852C263.029 252.973 260.615 248.762 258.137 250.657C254.363 253.54 250.588 256.424 246.814 259.307C245.292 260.473 243.801 261.753 242.198 262.838C239.93 264.377 237.646 261.964 235.734 260.7C232.689 258.691 229.222 258.432 226.339 261.024C225.497 261.785 224.687 262.628 223.877 263.421L211.372 275.57C208.278 278.567 205.2 281.564 202.106 284.577C199.854 286.764 203.305 290.198 205.54 288.011H205.556Z" fill="#221F20"/>
<path d="M197.36 276.445C197.619 280.43 197.878 284.415 198.138 288.383C198.17 288.95 198.219 289.533 198.251 290.1C198.332 291.38 199.304 292.563 200.681 292.53C204.245 292.449 207.792 292.352 211.356 292.271C211.858 292.271 212.36 292.239 212.862 292.239C214.126 292.206 215.357 291.137 215.292 289.809C215.227 288.481 214.223 287.347 212.862 287.379C209.299 287.46 205.751 287.557 202.187 287.638C201.685 287.638 201.183 287.671 200.681 287.671L203.111 290.1C202.851 286.116 202.592 282.131 202.333 278.162C202.301 277.595 202.252 277.012 202.22 276.445C202.139 275.181 201.167 273.95 199.79 274.015C198.543 274.064 197.279 275.084 197.36 276.445Z" fill="#221F20"/>
<path d="M151.76 288.772C154.336 283.75 156.895 278.745 159.471 273.723L160.556 271.601H156.36C158.904 276.461 161.463 281.337 164.006 286.196C164.363 286.893 164.735 287.573 165.092 288.27C165.707 289.436 167.327 289.776 168.412 289.145C169.595 288.448 169.903 286.99 169.287 285.824C166.744 280.964 164.184 276.088 161.641 271.229C161.285 270.532 160.912 269.852 160.556 269.155C159.73 267.584 157.17 267.552 156.36 269.155C153.785 274.177 151.226 279.182 148.65 284.204L147.565 286.326C146.965 287.492 147.257 288.966 148.439 289.647C149.525 290.279 151.161 289.955 151.76 288.772Z" fill="#221F20"/>
<path d="M281.431 191.726H273.591C270.643 191.726 267.29 191.354 264.487 192.39C261.685 193.427 259.044 195.614 256.501 197.282C253.278 199.404 251.512 202.288 251.48 206.208C251.447 210.565 251.253 214.988 251.544 219.329C251.998 225.727 252.84 232.142 254.088 238.443C255.772 246.931 258.17 256.926 264.503 263.243C266.723 265.446 270.157 262.012 267.938 259.809C262.884 254.771 260.907 246.818 259.385 240.095C257.959 233.794 257.052 227.38 256.517 220.949C256.21 217.174 256.323 213.384 256.323 209.577C256.323 206.856 255.821 203.778 258.267 201.915C260.243 200.409 262.462 199.113 264.568 197.768C267.095 196.149 270.108 196.586 272.991 196.586H281.415C284.541 196.586 284.541 191.726 281.415 191.726H281.431Z" fill="#221F20"/>
<path d="M254.704 199.469C248.257 198.805 241.243 195.031 237.679 188.827C235.379 184.826 234.504 180.177 234.812 175.592C234.974 173.098 235.816 170.927 236.319 168.514C236.74 166.489 235.379 164.351 233.144 164.48C230.908 164.61 229.402 167.185 228.203 168.74C226.826 170.539 225.595 172.45 224.591 174.475C222.598 178.476 221.367 182.736 220.914 187.175C220.023 195.889 222.76 204.637 228.316 211.375C234.585 219.005 244.126 223.217 253.878 223.783C257.004 223.962 256.988 219.102 253.878 218.924C246.135 218.47 238.667 215.263 233.273 209.642C227.879 204.021 225.125 195.987 225.708 188.049C226 184.097 227.134 180.161 228.948 176.629C229.839 174.896 230.86 173.211 232.042 171.672C232.463 171.105 233.905 169.923 234.083 169.275L231.427 167.833L231.232 168.465C230.892 169.097 230.795 170.02 230.649 170.717C228.835 179.108 230.487 188.082 235.978 194.788C240.595 200.425 247.56 203.551 254.72 204.297C257.83 204.62 257.798 199.761 254.72 199.437L254.704 199.469Z" fill="#221F20"/>
<path d="M241.372 217.158C235.913 219.426 230.94 224.091 230.34 230.231C230.227 231.429 230.275 232.644 231.199 233.519C231.701 233.989 232.284 234.41 232.883 234.75C235.054 236.014 237.581 236.564 240.059 236.743C245.243 237.115 250.508 235.738 255.335 233.956C256.566 233.503 257.408 232.304 257.036 230.96C256.712 229.777 255.286 228.805 254.039 229.259C250.864 230.425 247.3 231.494 244.109 231.802C242.943 231.915 241.777 231.964 240.61 231.899C240.319 231.899 240.027 231.867 239.752 231.834C239.638 231.834 238.747 231.705 239.395 231.802C238.974 231.737 238.553 231.656 238.132 231.575C237.759 231.494 237.403 231.397 237.03 231.284C236.787 231.203 235.653 230.733 236.431 231.089C235.977 230.879 235.508 230.668 235.086 230.393C235.022 230.344 234.633 230.02 234.568 230.036C234.6 230.036 235.232 230.441 234.698 230.134C234.6 230.085 234.52 229.972 234.439 229.891L235.151 231.608C235.119 230.004 235.443 228.74 236.22 227.396C236.949 226.116 237.759 225.258 239.071 224.14C239.201 224.027 239.347 223.913 239.476 223.8C239.217 224.01 239.379 223.865 239.557 223.751C239.816 223.557 240.076 223.379 240.351 223.201C240.805 222.893 241.274 222.617 241.76 222.342C242.1 222.148 242.441 221.969 242.781 221.807C243.04 221.678 243.785 221.37 242.667 221.84C243.882 221.338 244.741 220.236 244.368 218.843C244.061 217.693 242.603 216.64 241.372 217.142V217.158Z" fill="#221F20"/>
<path d="M281.284 196.585H288.331C290.728 196.585 293.611 196.164 295.976 196.747C298.649 197.412 301.273 199.841 303.541 201.332C304.788 202.158 305.874 203.033 306.246 204.571C306.457 205.43 306.376 206.369 306.376 207.244C306.376 211.342 306.587 215.473 306.295 219.555C305.874 225.451 305.096 231.332 303.946 237.131C302.44 244.744 300.48 254.091 294.778 259.776C292.558 261.979 295.993 265.43 298.212 263.211C303.833 257.622 306.246 249.085 307.963 241.585C309.535 234.701 310.523 227.638 311.09 220.592C311.43 216.396 311.252 212.185 311.252 207.973C311.252 204.118 310.75 200.554 307.38 198.043C305.226 196.423 302.877 194.998 300.593 193.54C297.402 191.499 294.065 191.693 290.469 191.693H281.284C278.158 191.693 278.158 196.553 281.284 196.553V196.585Z" fill="#221F20"/>
<path d="M308.401 204.328C314.508 203.697 320.388 201.38 324.924 197.185C331.257 191.353 334.011 182.428 332.991 173.988C332.877 173.016 332.732 172.044 332.537 171.089C332.375 170.263 332.229 168.578 331.695 167.881L329.038 169.323C329.249 169.55 329.476 169.793 329.67 170.02C330.026 170.408 330.367 170.813 330.69 171.218C331.403 172.109 332.051 173.049 332.667 174.004C334.837 177.439 336.311 181.213 337.04 185.198C338.482 192.973 336.587 201.267 331.727 207.536C326.349 214.452 317.926 218.47 309.243 218.972C306.133 219.15 306.117 224.01 309.243 223.831C327.03 222.795 342.159 209.058 342.354 190.754C342.451 181.764 338.887 172.984 332.893 166.342C331.5 164.804 329.346 163.605 327.564 165.435C325.782 167.266 327.24 169.712 327.71 171.737C328.763 176.288 328.52 181.083 326.965 185.505C325.248 190.365 321.684 194.366 317.148 196.796C314.492 198.221 310.88 199.226 308.385 199.485C305.307 199.809 305.275 204.668 308.385 204.345L308.401 204.328Z" fill="#221F20"/>
<path d="M319.936 221.726C319.369 221.483 319.304 221.435 319.79 221.678C320.13 221.84 320.454 222.018 320.794 222.196C321.264 222.455 321.734 222.731 322.187 223.038C322.447 223.217 322.706 223.395 322.965 223.589C323.013 223.621 323.548 224.043 323.127 223.702C323.273 223.816 323.402 223.929 323.532 224.043C324.099 224.529 324.65 225.031 325.152 225.598C325.281 225.744 325.411 225.889 325.54 226.035C325.816 226.343 325.524 225.986 325.67 226.197C325.913 226.521 326.124 226.845 326.334 227.201C327.16 228.594 327.484 229.858 327.452 231.526L328.165 229.809C328.165 229.809 327.954 229.971 327.905 230.052C327.646 230.522 327.468 229.842 328.035 229.955C327.954 229.955 327.582 230.263 327.517 230.312C327.079 230.587 326.626 230.797 326.172 231.008C326.95 230.652 325.816 231.121 325.573 231.202C325.217 231.316 324.844 231.413 324.471 231.494C324.05 231.591 323.629 231.656 323.208 231.721C323.856 231.624 322.965 231.737 322.852 231.753C322.56 231.786 322.268 231.802 321.993 231.818C320.827 231.867 319.66 231.818 318.494 231.721C315.303 231.413 311.739 230.36 308.564 229.178C307.333 228.724 305.908 229.68 305.568 230.878C305.195 232.239 306.021 233.405 307.268 233.875C313.975 236.354 322.495 238.395 329.266 234.928C330.627 234.232 332.198 233.211 332.295 231.543C332.555 227.623 330.4 223.816 327.614 221.224C325.751 219.491 323.58 218.082 321.215 217.093C320.001 216.591 318.543 217.644 318.219 218.794C317.83 220.187 318.705 221.273 319.92 221.791L319.936 221.726Z" fill="#221F20"/>
<path d="M266.544 195.08V206.37C266.544 207.634 267.662 208.865 268.974 208.8C270.286 208.735 271.404 207.731 271.404 206.37V195.08C271.404 193.816 270.286 192.585 268.974 192.65C267.662 192.715 266.544 193.719 266.544 195.08Z" fill="#221F20"/>
<path d="M279.147 195.08V206.37C279.147 207.634 280.265 208.865 281.577 208.8C282.889 208.735 284.007 207.731 284.007 206.37V195.08C284.007 193.816 282.889 192.585 281.577 192.65C280.265 192.715 279.147 193.719 279.147 195.08Z" fill="#221F20"/>
<path d="M291.766 195.08V206.37C291.766 207.634 292.883 208.865 294.195 208.8C295.508 208.735 296.625 207.731 296.625 206.37V195.08C296.625 193.816 295.508 192.585 294.195 192.65C292.883 192.715 291.766 193.719 291.766 195.08Z" fill="#221F20"/>
</g>
<defs>
<linearGradient id="paint0_linear_1243_9781" x1="148.213" y1="262.288" x2="168.122" y2="262.288" gradientUnits="userSpaceOnUse">
<stop stop-color="#9BCB9E"/>
<stop offset="1" stop-color="#78C1C4"/>
</linearGradient>
<clipPath id="clip0_1243_9781">
<rect width="235.188" height="138.628" fill="white" transform="translate(107.198 153.902)"/>
</clipPath>
</defs>
</svg>
