<svg width="40" height="40" viewBox="0 0 40 40" fill="none" xmlns="http://www.w3.org/2000/svg">
<rect width="40" height="40" fill="white"/>
<g clip-path="url(#clip0_1202_5277)">
<path d="M16.018 30.1521L28.8243 30.2177C29.3982 30.2177 29.9229 29.9061 30.2016 29.3814L31.1691 27.5121L24.0691 11.738C23.9379 11.5084 23.6919 11.3609 23.4296 11.3609L10.9841 10.1475L9.26236 12.1315C9 12.4267 8.93441 12.8366 9.06559 13.2137L14.5751 29.1191C14.7882 29.7422 15.3621 30.1521 16.018 30.1521Z" fill="#223838"/>
<path d="M16.8216 28.0208L30.4477 27.9388C31.0216 27.9388 31.4315 27.3649 31.2511 26.8238L25.758 10.5905C25.6433 10.2462 25.3153 10.0166 24.9546 10.0166L11.2957 10.0986C10.7218 10.0986 10.3118 10.6725 10.4922 11.2136L16.0017 27.4469C16.1165 27.7912 16.4444 28.0208 16.8052 28.0208H16.8216Z" fill="#6E94D0"/>
<path d="M16.8215 28.037C16.4443 28.037 16.1164 27.8074 16.0016 27.4467L10.4921 11.2298C10.3937 10.9674 10.4429 10.6723 10.6069 10.4427C10.7709 10.2132 11.0332 10.082 11.312 10.082L24.9545 10C25.3316 10 25.6596 10.2296 25.7744 10.5903L31.2838 26.8236C31.3658 27.0859 31.333 27.3811 31.1691 27.6106C31.0051 27.8402 30.7427 27.9714 30.464 27.9714L16.8379 28.0534L16.8215 28.037ZM24.9545 10.0492L11.2956 10.1148C11.0332 10.1148 10.7873 10.246 10.6233 10.4591C10.4757 10.6723 10.4265 10.951 10.5085 11.197L16.018 27.4303C16.1328 27.7746 16.4443 27.9878 16.8051 27.9878L30.4312 27.9058C30.6935 27.9058 30.9395 27.7746 31.1035 27.5614C31.251 27.3483 31.3002 27.0695 31.2182 26.8072L25.7252 10.6067C25.6104 10.2624 25.2988 10.0492 24.9381 10.0492H24.9545Z" fill="#0565AD"/>
<path d="M26.9079 20.2353C27.4688 19.294 26.8199 17.8733 25.4585 17.062C24.0971 16.2508 22.5387 16.3562 21.9778 17.2975C21.4169 18.2389 22.0658 19.6596 23.4272 20.4708C24.7886 21.2821 26.347 21.1766 26.9079 20.2353Z" fill="#AACD76"/>
<path d="M25.2661 21.0354C24.6758 21.0354 24.0199 20.855 23.4133 20.4943C22.0523 19.6744 21.3964 18.2479 21.9703 17.2804C22.1835 16.9197 22.5442 16.6737 23.0033 16.5589C23.7412 16.3786 24.6594 16.5589 25.4793 17.0345C26.1352 17.428 26.6599 17.9691 26.9223 18.5758C27.201 19.1825 27.201 19.7728 26.9223 20.2319C26.6107 20.7566 25.9876 21.019 25.2661 21.019V21.0354ZM23.61 16.5425C23.3969 16.5425 23.2001 16.5589 23.0033 16.6081C22.5442 16.7229 22.1999 16.9689 22.0031 17.3132C21.4456 18.2479 22.0851 19.658 23.4296 20.4615C24.7742 21.2649 26.332 21.1502 26.8731 20.2155C27.1354 19.7728 27.1354 19.1825 26.8731 18.5922C26.5943 18.0019 26.1024 17.4608 25.4465 17.0672C24.8562 16.7229 24.2003 16.5261 23.61 16.5261V16.5425Z" fill="#0565AD"/>
<path d="M20.0786 20.416C20.6395 19.4747 19.9905 18.0539 18.6291 17.2427C17.2677 16.4314 15.7094 16.5369 15.1484 17.4782C14.5875 18.4195 15.2365 19.8403 16.5979 20.6515C17.9593 21.4627 19.5176 21.3573 20.0786 20.416Z" fill="#AACD76"/>
<path d="M18.4449 21.2321C17.8382 21.2321 17.1823 21.0353 16.592 20.691C15.231 19.8711 14.5751 18.4446 15.149 17.4771C15.4278 17.018 15.9361 16.7392 16.6084 16.69C17.2642 16.6409 18.0021 16.8376 18.658 17.2312C19.3139 17.6247 19.8386 18.1822 20.101 18.7725C20.3797 19.3792 20.3797 19.9695 20.101 20.4286C19.8222 20.8877 19.3139 21.1665 18.6416 21.2157C18.576 21.2157 18.5104 21.2157 18.4449 21.2157V21.2321ZM15.1818 17.5099C14.6243 18.4446 15.2638 19.8547 16.6248 20.6582C17.2806 21.0517 18.0021 21.2321 18.6416 21.1829C19.2975 21.1337 19.8058 20.8713 20.0682 20.4122C20.3305 19.9531 20.3305 19.3792 20.0682 18.7889C19.7894 18.1986 19.2811 17.6575 18.6416 17.2639C18.0513 16.9196 17.4118 16.7228 16.8051 16.7228C16.7395 16.7228 16.6739 16.7228 16.6084 16.7228C15.9525 16.772 15.4442 17.0508 15.1818 17.4935V17.5099Z" fill="#0565AD"/>
<path d="M22.0563 25.749C22.6173 24.8077 21.9683 23.3869 20.6069 22.5757C19.2455 21.7644 17.6871 21.8699 17.1262 22.8112C16.5653 23.7525 17.2142 25.1733 18.5757 25.9845C19.9371 26.7958 21.4954 26.6903 22.0563 25.749Z" fill="#AACD76"/>
<path d="M20.4124 26.5616C19.8057 26.5616 19.1498 26.3648 18.5595 26.0205C17.1985 25.2006 16.5426 23.774 17.1165 22.8066C17.3953 22.3475 17.9036 22.0687 18.5759 22.0195C18.6415 22.0195 18.7071 22.0195 18.7727 22.0195C19.3794 22.0195 20.0352 22.2163 20.6255 22.5606C21.2814 22.9542 21.8061 23.5117 22.0685 24.102C22.3473 24.7087 22.3473 25.299 22.0685 25.7581C21.7897 26.2172 21.2814 26.496 20.6091 26.5452C20.5436 26.5452 20.478 26.5452 20.4124 26.5452V26.5616ZM17.1493 22.8394C16.5918 23.774 17.2313 25.1842 18.5923 25.9877C19.2482 26.3812 19.9697 26.5616 20.6091 26.5124C21.265 26.4632 21.7734 26.2008 22.0357 25.7417C22.2981 25.299 22.2981 24.7087 22.0357 24.1184C21.757 23.5281 21.2486 22.987 20.6091 22.5934C20.0188 22.2491 19.3794 22.0523 18.7727 22.0523C18.7071 22.0523 18.6415 22.0523 18.5759 22.0523C17.92 22.1015 17.4117 22.3803 17.1493 22.823V22.8394Z" fill="#0565AD"/>
<path d="M29.2224 25.6572C29.7833 24.7159 29.1343 23.2951 27.7729 22.4839C26.4115 21.6726 24.8532 21.7781 24.2922 22.7194C23.7313 23.6607 24.3803 25.0815 25.7417 25.8927C27.1031 26.704 28.6614 26.5985 29.2224 25.6572Z" fill="#AACD76"/>
<path d="M27.5618 26.4466C26.9715 26.4466 26.3156 26.2662 25.7089 25.9055C25.053 25.5119 24.5283 24.9708 24.2659 24.3641C23.9872 23.7574 23.9872 23.1671 24.2659 22.708C24.8399 21.757 26.3976 21.6422 27.775 22.462C29.1359 23.2819 29.7918 24.7085 29.2179 25.6759C28.9064 26.2006 28.2833 26.463 27.5618 26.463V26.4466ZM25.9221 21.9373C25.217 21.9373 24.6103 22.1997 24.2987 22.708C24.0364 23.1507 24.0364 23.7246 24.2987 24.3313C24.5775 24.9216 25.0858 25.4627 25.7253 25.8563C27.0699 26.6597 28.6276 26.545 29.1687 25.6103C29.7262 24.6757 29.0867 23.2655 27.7422 22.462C27.1355 22.1013 26.496 21.9209 25.9057 21.9209L25.9221 21.9373Z" fill="#0565AD"/>
<path d="M12.2631 12.2136L13.3126 15.0012C13.3946 15.2307 13.6241 15.3947 13.8701 15.3783L25.3317 15.2471C25.7581 15.2471 26.0368 14.8208 25.8729 14.4272L24.7742 11.8037C24.6759 11.5905 24.4627 11.443 24.2331 11.443L12.837 11.4102C12.4271 11.4102 12.132 11.8201 12.2795 12.1972L12.2631 12.2136Z" fill="#0565AD"/>
<path d="M13.8536 15.4111C13.6076 15.4111 13.3781 15.2471 13.2797 15.0175L12.2303 12.23C12.1647 12.0333 12.1811 11.8365 12.2958 11.6725C12.4106 11.5085 12.591 11.4102 12.7878 11.4102L24.1838 11.4593C24.4298 11.4593 24.643 11.6069 24.7414 11.8365L25.84 14.46C25.922 14.6404 25.9056 14.8536 25.7908 15.0339C25.676 15.2143 25.4956 15.3127 25.2825 15.3127L13.8208 15.4439L13.8536 15.4111ZM12.2794 12.2136L13.3289 15.0012C13.4109 15.2143 13.624 15.3619 13.8536 15.3619L25.3153 15.2307C25.512 15.2307 25.676 15.1323 25.7908 14.9684C25.9056 14.8044 25.9056 14.6076 25.84 14.4436L24.7414 11.8201C24.6594 11.6069 24.4462 11.4757 24.2166 11.4757L12.8206 11.4266C12.6402 11.4266 12.4598 11.5085 12.3614 11.6725C12.2467 11.8201 12.2303 12.0169 12.2958 12.1972L12.2794 12.2136Z" fill="#0565AD"/>
<path d="M18.5103 19.8222C18.1168 19.0843 17.7069 18.33 17.3133 17.5922L17.133 17.2642C16.9854 16.9855 16.559 17.2314 16.7066 17.5102C17.1002 18.2481 17.5101 19.0023 17.9036 19.7402L18.084 20.0682C18.2316 20.3469 18.6579 20.1009 18.5103 19.8222Z" fill="white"/>
<path d="M16.1165 18.8217C16.9691 18.789 17.8054 18.7726 18.658 18.7398H19.0188C19.3303 18.7234 19.3303 18.2314 19.0188 18.2314C18.1661 18.2642 17.3299 18.2806 16.4772 18.3134H16.1165C15.8049 18.3298 15.8049 18.8217 16.1165 18.8217Z" fill="white"/>
<path d="M23.0032 18.6577C23.8558 18.6249 24.6921 18.6085 25.5448 18.5757H25.9055C26.2171 18.5593 26.2171 18.0674 25.9055 18.0674C25.0528 18.1002 24.2166 18.1166 23.3639 18.1494H23.0032C22.6916 18.1658 22.6916 18.6577 23.0032 18.6577Z" fill="white"/>
<path d="M25.1348 24.0688C25.9874 24.036 26.8237 24.0196 27.6764 23.9868H28.0371C28.3486 23.9704 28.3486 23.4785 28.0371 23.4785C27.1844 23.5113 26.3482 23.5277 25.4955 23.5605H25.1348C24.8232 23.5769 24.8232 24.0688 25.1348 24.0688Z" fill="white"/>
<path d="M25.4629 24.8891C26.3156 24.8563 27.1518 24.8399 28.0045 24.8071H28.3652C28.6768 24.7907 28.6768 24.2988 28.3652 24.2988C27.5126 24.3316 26.6763 24.348 25.8236 24.3808H25.4629C25.1514 24.3972 25.1514 24.8891 25.4629 24.8891Z" fill="white"/>
<path d="M20.9045 24.6266C20.2322 24.1019 19.5763 23.5771 18.904 23.0524L18.6253 22.8393C18.5269 22.7573 18.3793 22.7409 18.2809 22.8393C18.1989 22.9212 18.1825 23.1016 18.2809 23.1836C18.9532 23.7083 19.6091 24.233 20.2814 24.7577L20.5601 24.9709C20.6585 25.0529 20.8061 25.0693 20.9045 24.9709C20.9865 24.8889 21.0029 24.7085 20.9045 24.6266Z" fill="white"/>
<path d="M20.1009 22.7896C19.691 23.3635 19.2646 23.9374 18.8547 24.5113L18.6743 24.7573C18.5924 24.872 18.6579 25.036 18.7563 25.1016C18.8875 25.1672 19.0187 25.118 19.1007 25.0196C19.5106 24.4457 19.9369 23.8718 20.3469 23.2979L20.5272 23.0519C20.6092 22.9372 20.5436 22.7732 20.4452 22.7076C20.3141 22.642 20.1829 22.6912 20.1009 22.7896Z" fill="white"/>
</g>
<defs>
<clipPath id="clip0_1202_5277">
<rect width="22.3166" height="20.2342" fill="white" transform="translate(9 10)"/>
</clipPath>
</defs>
</svg>
