<svg width="449" height="448" viewBox="0 0 449 448" fill="none" xmlns="http://www.w3.org/2000/svg">
<rect width="447.401" height="447.401" transform="translate(0.98877 0.458008)" fill="white"/>
<g clip-path="url(#clip0_1243_9758)">
<path d="M265.554 302.042H193.715C187.091 302.042 180.567 302.28 174.118 300.348C160.556 296.296 149.816 285.08 146.316 271.367C144.71 265.094 145.074 258.582 145.074 252.159C145.074 242.624 145.074 233.101 145.074 223.566C145.074 214.031 145.074 204.572 145.074 195.074C145.074 188.45 144.76 181.838 146.592 175.377C150.431 161.764 161.484 150.837 175.134 147.136C181.395 145.442 187.806 145.73 194.229 145.73H222.195C232.131 145.73 242.08 145.73 252.017 145.73C256.897 145.73 261.79 145.618 266.67 145.743C281.036 146.107 294.335 154.412 301.235 166.971C304.497 172.918 306.165 179.592 306.191 186.367C306.191 187.885 306.191 189.403 306.191 190.909V216.578C306.191 226.728 306.191 236.865 306.191 247.015C306.191 251.971 306.241 256.914 306.191 261.869C306.027 276.247 297.985 289.697 285.49 296.785C279.417 300.235 272.555 302.004 265.566 302.042C263.145 302.042 263.145 305.818 265.566 305.806C280.459 305.731 294.447 298.115 302.665 285.707C306.768 279.509 309.202 272.308 309.804 264.918C309.992 262.71 309.942 260.489 309.942 258.269C309.942 250.013 309.942 241.746 309.942 233.49C309.942 223.052 309.942 212.614 309.942 202.175C309.942 196.906 309.967 191.624 309.942 186.355C309.879 171.676 302.464 157.863 290.357 149.595C284.222 145.417 277.071 142.895 269.707 142.167C267.411 141.942 265.115 141.967 262.819 141.967H186.714C174.996 141.967 163.805 146.044 155.236 154.149C146.19 162.68 141.31 174.586 141.31 186.957C141.31 193.569 141.31 200.18 141.31 206.792V238.697C141.31 245.873 141.31 253.05 141.31 260.226C141.31 267.402 145.124 282.696 152.928 291.29C161.434 300.649 173.579 305.806 186.175 305.818C192.423 305.818 198.671 305.818 204.919 305.818H265.554C267.975 305.818 267.975 302.055 265.554 302.055V302.042Z" fill="#221F20"/>
<path d="M207.88 182.002H194.38V169.368C194.38 167.084 192.524 165.228 190.24 165.228H185.786C183.503 165.228 181.646 167.084 181.646 169.368V182.002H169.012C166.729 182.002 164.872 183.858 164.872 186.142V190.596C164.872 192.879 166.729 194.736 169.012 194.736H181.646V208.235C181.646 210.519 183.503 212.376 185.786 212.376H190.24C192.524 212.376 194.38 210.519 194.38 208.235V194.736H207.88C210.163 194.736 212.02 192.879 212.02 190.596V186.142C212.02 183.858 210.163 182.002 207.88 182.002Z" fill="url(#paint0_linear_1243_9758)"/>
<path d="M205.195 263.563C202.535 260.954 199.876 258.344 197.228 255.747V258.407C198.834 256.763 200.44 255.132 202.046 253.489C203.928 251.569 206.262 249.762 206.036 246.776C205.898 244.97 204.831 243.765 203.614 242.574C202.586 241.557 201.582 240.353 200.214 239.776C196.965 238.396 194.719 240.541 192.649 242.649C190.78 244.556 188.91 246.463 187.041 248.357H189.701C188.057 246.751 186.426 245.145 184.783 243.54C182.863 241.658 181.056 239.324 178.071 239.55C176.264 239.688 175.059 240.754 173.868 241.971C172.851 243 171.647 244.004 171.07 245.371C169.69 248.621 171.835 250.866 173.943 252.937C175.85 254.806 177.757 256.675 179.651 258.545V255.885C177.995 257.566 176.339 259.26 174.683 260.941C172.801 262.861 170.154 264.83 170.304 267.816C170.392 269.711 171.484 270.978 172.764 272.22C173.855 273.286 174.909 274.579 176.389 275.118C179.789 276.373 181.96 273.939 184.08 271.781L189.839 265.909H187.179C189.876 268.556 192.461 271.392 195.309 273.876C196.827 275.193 198.897 275.632 200.791 274.892C202.109 274.39 202.987 273.349 203.941 272.37C204.894 271.392 205.935 270.489 206.412 269.184C207.165 267.164 206.588 265.119 205.183 263.551C203.564 261.744 200.904 264.416 202.523 266.21C203.991 267.841 201.268 269.799 200.177 270.827C198.872 272.082 197.906 271.166 196.902 270.187L189.839 263.249C189.124 262.547 187.894 262.522 187.179 263.249L183.265 267.239C181.972 268.556 180.705 270.25 179.212 271.342C178.008 272.22 177.117 271.216 176.289 270.401C175.624 269.748 174.231 268.807 174.081 267.804C173.943 266.925 174.633 266.361 175.185 265.809L177.569 263.387C179.149 261.769 180.743 260.151 182.324 258.545C183.026 257.83 183.051 256.6 182.324 255.885C181.044 254.63 179.764 253.376 178.485 252.121L175.913 249.599C175.511 249.198 174.934 248.784 174.633 248.295C173.905 247.128 174.947 246.275 175.687 245.509C176.314 244.869 177.104 243.703 177.983 243.376C179.538 242.799 181.521 245.622 182.437 246.513C183.967 248.019 185.498 249.524 187.028 251.017C187.744 251.72 188.973 251.745 189.688 251.017C190.943 249.737 192.197 248.458 193.452 247.178L195.974 244.606C196.375 244.205 196.789 243.627 197.279 243.326C198.445 242.599 199.298 243.64 200.064 244.38C200.704 245.007 201.87 245.798 202.197 246.676C202.774 248.232 199.951 250.214 199.06 251.13C197.555 252.661 196.049 254.191 194.556 255.722C193.853 256.437 193.828 257.666 194.556 258.382C197.216 260.991 199.876 263.601 202.523 266.198C204.254 267.892 206.914 265.232 205.183 263.538L205.195 263.563Z" fill="#221F20"/>
<path d="M279.656 191.523C269.054 191.523 258.415 191.824 247.827 191.523C246.697 191.486 246.058 190.959 245.97 189.779C245.882 188.663 245.593 186.492 246.196 185.489C246.961 184.234 249.897 184.748 251.101 184.748H271.689C274.236 184.748 276.795 184.673 279.342 184.748C280.609 184.786 281.187 185.514 281.199 186.756C281.224 188.211 281.814 191.385 279.656 191.511C277.247 191.661 277.235 195.425 279.656 195.274C282.717 195.086 284.85 192.903 284.963 189.842C285.026 188.186 285.201 186.141 284.662 184.548C283.482 181.085 280.208 180.972 277.209 180.972H254.401C252.142 180.972 249.872 180.897 247.613 180.972C245.355 181.047 243.147 182.415 242.444 184.736C241.968 186.304 242.143 188.311 242.206 189.93C242.331 192.916 244.514 195.149 247.513 195.274C248.052 195.3 248.604 195.274 249.144 195.274H279.656C282.077 195.274 282.077 191.511 279.656 191.511V191.523Z" fill="#221F20"/>
<path d="M282.517 260.728H244.653C242.421 260.728 240.613 262.536 240.613 264.767V269.096C240.613 271.327 242.421 273.136 244.653 273.136H282.517C284.748 273.136 286.557 271.327 286.557 269.096V264.767C286.557 262.536 284.748 260.728 282.517 260.728Z" fill="#C5D8E3"/>
<path d="M282.517 239.613H244.653C242.421 239.613 240.613 241.422 240.613 243.653V247.982C240.613 250.213 242.421 252.021 244.653 252.021H282.517C284.748 252.021 286.557 250.213 286.557 247.982V243.653C286.557 241.422 284.748 239.613 282.517 239.613Z" fill="#C5D8E3"/>
<path d="M223.75 157.574V215.236C223.75 217.657 227.514 217.657 227.514 215.236V157.574C227.514 155.152 223.75 155.152 223.75 157.574Z" fill="#221F20"/>
<path d="M223.75 229.526V287.188C223.75 289.609 227.514 289.609 227.514 287.188V229.526C227.514 227.105 223.75 227.105 223.75 229.526Z" fill="#221F20"/>
<path d="M161.258 223.717H217.703C220.124 223.717 220.124 219.953 217.703 219.953H161.258C158.837 219.953 158.837 223.717 161.258 223.717Z" fill="#221F20"/>
<path d="M233.787 223.717H290.232C292.653 223.717 292.653 219.953 290.232 219.953H233.787C231.366 219.953 231.366 223.717 233.787 223.717Z" fill="#221F20"/>
</g>
<defs>
<linearGradient id="paint0_linear_1243_9758" x1="164.86" y1="188.802" x2="212.033" y2="188.802" gradientUnits="userSpaceOnUse">
<stop stop-color="#9BCB9E"/>
<stop offset="1" stop-color="#78C1C4"/>
</linearGradient>
<clipPath id="clip0_1243_9758">
<rect width="168.644" height="163.839" fill="white" transform="translate(141.31 141.967)"/>
</clipPath>
</defs>
</svg>
