<svg width="449" height="448" viewBox="0 0 449 448" fill="none" xmlns="http://www.w3.org/2000/svg">
<rect width="447.401" height="447.401" transform="translate(0.977539 0.458008)" fill="white"/>
<g clip-path="url(#clip0_1243_9770)">
<path d="M165.122 148.419V280.675C165.122 286.755 164.87 292.902 165.122 298.983C165.122 299.075 165.122 299.155 165.122 299.248C165.122 300.323 166.038 301.239 167.114 301.239H285.005C290.448 301.239 295.931 301.465 301.374 301.239C301.454 301.239 301.533 301.239 301.613 301.239C304.175 301.239 304.175 297.257 301.613 297.257H172.61C170.924 297.257 169.039 297.018 167.366 297.257C167.286 297.257 167.207 297.257 167.127 297.257L169.118 299.248V166.979C169.118 160.899 169.371 154.752 169.118 148.672C169.118 148.579 169.118 148.499 169.118 148.406C169.118 145.844 165.136 145.844 165.136 148.406L165.122 148.419Z" fill="#221F20"/>
<path d="M148.939 164.736H166.251C168.813 164.736 168.813 160.753 166.251 160.753H148.939C146.377 160.753 146.377 164.736 148.939 164.736Z" fill="#221F20"/>
<path d="M148.939 196.014H166.251C168.813 196.014 168.813 192.031 166.251 192.031H148.939C146.377 192.031 146.377 196.014 148.939 196.014Z" fill="#221F20"/>
<path d="M148.939 227.279H166.251C168.813 227.279 168.813 223.296 166.251 223.296H148.939C146.377 223.296 146.377 227.279 148.939 227.279Z" fill="#221F20"/>
<path d="M148.939 258.544H166.251C168.813 258.544 168.813 254.562 166.251 254.562H148.939C146.377 254.562 146.377 258.544 148.939 258.544Z" fill="#221F20"/>
<path d="M148.939 289.823H166.251C168.813 289.823 168.813 285.84 166.251 285.84H148.939C146.377 285.84 146.377 289.823 148.939 289.823Z" fill="#221F20"/>
<path d="M185.023 221.438V231.74C185.023 232.775 185.939 233.784 187.014 233.731C188.09 233.678 189.006 232.855 189.006 231.74V221.438C189.006 220.402 188.09 219.393 187.014 219.446C185.939 219.499 185.023 220.323 185.023 221.438Z" fill="#221F20"/>
<path d="M185.023 279.932V290.234C185.023 291.27 185.939 292.279 187.014 292.225C188.09 292.172 189.006 291.349 189.006 290.234V279.932C189.006 278.896 188.09 277.887 187.014 277.94C185.939 277.994 185.023 278.817 185.023 279.932Z" fill="#221F20"/>
<path d="M191.369 202.612C190.479 203.714 189.59 204.803 188.7 205.905L186.895 208.135C186.616 208.493 186.337 208.905 185.992 209.21L186.868 208.692H187.572L188.448 209.21C188.103 208.918 187.838 208.493 187.545 208.135L185.74 205.905C184.85 204.803 183.961 203.714 183.071 202.612C182.408 201.802 180.934 201.882 180.257 202.612C179.46 203.475 179.553 204.564 180.257 205.427C181.863 207.405 183.456 209.383 185.063 211.348C185.488 211.865 185.793 212.304 186.51 212.529C187.532 212.848 188.515 212.423 189.152 211.626L191.82 208.334C192.604 207.365 193.387 206.396 194.183 205.427C194.834 204.617 195.033 203.395 194.183 202.612C193.453 201.948 192.073 201.749 191.369 202.612Z" fill="#221F20"/>
<path d="M189.192 210.299V193.704C189.192 191.142 185.209 191.142 185.209 193.704V210.299C185.209 212.861 189.192 212.861 189.192 210.299Z" fill="#221F20"/>
<path d="M228.037 249.862H212.81L214.801 251.853V206.157L212.81 208.149H228.037L226.046 206.157V251.853C226.046 254.416 230.029 254.416 230.029 251.853V206.157C230.029 205.082 229.113 204.166 228.037 204.166H212.81C211.734 204.166 210.818 205.082 210.818 206.157V251.853C210.818 252.929 211.734 253.845 212.81 253.845H228.037C230.6 253.845 230.6 249.862 228.037 249.862Z" fill="#221F20"/>
<path d="M218.452 194.554V204.856C218.452 205.892 219.368 206.901 220.443 206.848C221.518 206.794 222.434 205.971 222.434 204.856V194.554C222.434 193.518 221.518 192.509 220.443 192.563C219.368 192.616 218.452 193.439 218.452 194.554Z" fill="#221F20"/>
<path d="M218.452 253.034V263.337C218.452 264.372 219.368 265.381 220.443 265.328C221.518 265.275 222.434 264.452 222.434 263.337V253.034C222.434 251.999 221.518 250.99 220.443 251.043C219.368 251.096 218.452 251.919 218.452 253.034Z" fill="#221F20"/>
<path d="M227.625 172.037C226.019 170.059 224.426 168.081 222.819 166.116C222.395 165.598 222.089 165.16 221.372 164.935C220.35 164.616 219.368 165.041 218.73 165.837L216.062 169.13C215.279 170.099 214.495 171.068 213.699 172.037C213.048 172.847 212.849 174.068 213.699 174.852C214.429 175.516 215.81 175.715 216.513 174.852C217.403 173.75 218.292 172.661 219.182 171.559L220.987 169.329C221.266 168.97 221.545 168.559 221.89 168.254L221.014 168.771H220.31L219.434 168.254C219.779 168.546 220.045 168.97 220.337 169.329L222.142 171.559C223.032 172.661 223.921 173.75 224.811 174.852C225.475 175.662 226.948 175.582 227.625 174.852C228.422 173.989 228.329 172.9 227.625 172.037Z" fill="#221F20"/>
<path d="M218.651 167.165V183.76C218.651 186.322 222.634 186.322 222.634 183.76V167.165C222.634 164.603 218.651 164.603 218.651 167.165Z" fill="#221F20"/>
<path d="M261.466 260.137H246.238L248.23 262.129V216.433L246.238 218.424H261.466L259.475 216.433V262.129C259.475 264.691 263.457 264.691 263.457 262.129V216.433C263.457 215.357 262.541 214.441 261.466 214.441H246.238C245.163 214.441 244.247 215.357 244.247 216.433V262.129C244.247 263.204 245.163 264.12 246.238 264.12H261.466C264.028 264.12 264.028 260.137 261.466 260.137Z" fill="#221F20"/>
<path d="M251.881 204.829V215.132C251.881 216.167 252.797 217.176 253.872 217.123C254.948 217.07 255.864 216.247 255.864 215.132V204.829C255.864 203.794 254.948 202.785 253.872 202.838C252.797 202.891 251.881 203.714 251.881 204.829Z" fill="#221F20"/>
<path d="M251.881 263.323V273.626C251.881 274.661 252.797 275.67 253.872 275.617C254.948 275.564 255.864 274.741 255.864 273.626V263.323C255.864 262.288 254.948 261.279 253.872 261.332C252.797 261.385 251.881 262.208 251.881 263.323Z" fill="#221F20"/>
<path d="M258.24 186.004C257.351 187.106 256.461 188.194 255.572 189.296L253.766 191.526C253.487 191.885 253.208 192.296 252.863 192.602L253.739 192.084H254.443L255.319 192.602C254.974 192.31 254.709 191.885 254.417 191.526L252.611 189.296C251.722 188.194 250.832 187.106 249.943 186.004C249.279 185.194 247.805 185.273 247.128 186.004C246.331 186.867 246.424 187.955 247.128 188.818C248.734 190.796 250.328 192.774 251.934 194.739C252.359 195.257 252.664 195.695 253.381 195.921C254.403 196.239 255.386 195.815 256.023 195.018L258.691 191.726C259.475 190.756 260.258 189.787 261.055 188.818C261.705 188.008 261.904 186.787 261.055 186.004C260.324 185.34 258.944 185.141 258.24 186.004Z" fill="#221F20"/>
<path d="M256.063 193.691V177.096C256.063 174.533 252.08 174.533 252.08 177.096V193.691C252.08 196.253 256.063 196.253 256.063 193.691Z" fill="#221F20"/>
<path d="M285.323 179.711V190.013C285.323 191.049 286.239 192.058 287.315 192.005C288.39 191.952 289.306 191.129 289.306 190.013V179.711C289.306 178.676 288.39 177.667 287.315 177.72C286.239 177.773 285.323 178.596 285.323 179.711Z" fill="#221F20"/>
<path d="M285.323 238.205V248.507C285.323 249.543 286.239 250.552 287.315 250.499C288.39 250.446 289.306 249.623 289.306 248.507V238.205C289.306 237.17 288.39 236.161 287.315 236.214C286.239 236.267 285.323 237.09 285.323 238.205Z" fill="#221F20"/>
<path d="M291.669 160.886C290.78 161.987 289.89 163.076 289.001 164.178L287.195 166.408C286.916 166.767 286.638 167.178 286.292 167.484L287.169 166.966H287.872L288.749 167.484C288.403 167.192 288.138 166.767 287.846 166.408L286.04 164.178C285.151 163.076 284.261 161.987 283.372 160.886C282.708 160.076 281.234 160.155 280.557 160.886C279.761 161.748 279.854 162.837 280.557 163.7C282.164 165.678 283.757 167.656 285.363 169.621C285.788 170.139 286.093 170.577 286.81 170.803C287.833 171.121 288.815 170.696 289.452 169.9L292.121 166.607C292.904 165.638 293.687 164.669 294.484 163.7C295.134 162.89 295.333 161.669 294.484 160.886C293.754 160.222 292.373 160.023 291.669 160.886Z" fill="#221F20"/>
<path d="M289.492 168.572V151.977C289.492 149.415 285.509 149.415 285.509 151.977V168.572C285.509 171.135 289.492 171.135 289.492 168.572Z" fill="#221F20"/>
<path d="M291.642 191.314H282.92C281.124 191.314 279.667 192.771 279.667 194.567V233.758C279.667 235.554 281.124 237.01 282.92 237.01H291.642C293.439 237.01 294.895 235.554 294.895 233.758V194.567C294.895 192.771 293.439 191.314 291.642 191.314Z" fill="url(#paint0_linear_1243_9770)"/>
<path d="M190.997 233.041H182.965C180.978 233.041 179.367 234.652 179.367 236.639V275.139C179.367 277.126 180.978 278.737 182.965 278.737H190.997C192.984 278.737 194.595 277.126 194.595 275.139V236.639C194.595 234.652 192.984 233.041 190.997 233.041Z" fill="#C5D8E3"/>
</g>
<defs>
<linearGradient id="paint0_linear_1243_9770" x1="279.667" y1="214.162" x2="294.895" y2="214.162" gradientUnits="userSpaceOnUse">
<stop stop-color="#9BCB9E"/>
<stop offset="1" stop-color="#78C1C4"/>
</linearGradient>
<clipPath id="clip0_1243_9770">
<rect width="156.511" height="154.838" fill="white" transform="translate(147.014 146.494)"/>
</clipPath>
</defs>
</svg>
