<svg width="40" height="40" viewBox="0 0 40 40" fill="none" xmlns="http://www.w3.org/2000/svg">
<rect width="40" height="40" fill="white"/>
<g clip-path="url(#clip0_1202_5351)">
<path d="M30.3005 12.0986H9.48013C8.69382 12.0986 8.0564 12.7361 8.0564 13.5224V25.7298C8.0564 26.5161 8.69382 27.1536 9.48013 27.1536H30.3005C31.0868 27.1536 31.7242 26.5161 31.7242 25.7298V13.5224C31.7242 12.7361 31.0868 12.0986 30.3005 12.0986Z" fill="#0565AD"/>
<path d="M30.3005 27.0969H11.2422C10.6643 27.0969 10.0722 27.0969 9.49426 27.0969C8.70486 27.0969 8.11281 26.4626 8.11281 25.6873C8.11281 25.3772 8.11281 25.0671 8.11281 24.7569V14.0719C8.11281 13.7758 8.08462 13.4516 8.1551 13.1697C8.33836 12.5072 8.9445 12.1548 9.59294 12.1548H30.1173C30.5965 12.1548 31.0476 12.2675 31.3578 12.6622C31.6679 13.0569 31.6679 13.4657 31.6679 13.9168V25.6309C31.6679 25.786 31.6679 25.9269 31.6256 26.082C31.4705 26.6881 30.9208 27.0969 30.3005 27.111C30.23 27.111 30.23 27.2238 30.3005 27.2238C31.1463 27.2097 31.7806 26.5331 31.7806 25.7014C31.7806 25.3631 31.7806 25.0389 31.7806 24.7005V13.9168C31.7806 13.5221 31.7806 13.1415 31.5833 12.775C31.2873 12.2675 30.7657 12.042 30.2019 12.042H9.57884C8.98679 12.0561 8.43703 12.3239 8.1551 12.8596C7.98595 13.212 8.00004 13.5785 8.00004 13.945V22.7975C8.00004 23.7561 8.00004 24.7287 8.00004 25.6873C8.00004 26.519 8.63438 27.1956 9.48016 27.2097C9.62113 27.2097 9.76209 27.2097 9.91715 27.2097H30.3005C30.3005 27.2097 30.371 27.0969 30.3005 27.0969Z" fill="#0565AD"/>
<path d="M30.4838 12.0986H10.2555C9.46921 12.0986 8.83179 12.7361 8.83179 13.5224V24.9545C8.83179 25.7408 9.46921 26.3783 10.2555 26.3783H30.4838C31.2701 26.3783 31.9076 25.7408 31.9076 24.9545V13.5224C31.9076 12.7361 31.2701 12.0986 30.4838 12.0986Z" fill="#6E94D0"/>
<path d="M30.4555 26.2937H12.1161C11.4959 26.2937 10.8897 26.2937 10.2695 26.2937C9.49418 26.2937 8.87394 25.7016 8.85984 24.9122C8.85984 24.6585 8.85984 24.4188 8.85984 24.1651V13.9875C8.85984 13.6915 8.83165 13.3673 8.91623 13.0712C9.11358 12.451 9.70562 12.1127 10.34 12.1127H30.2159C30.5401 12.1127 30.8502 12.1127 31.1462 12.2959C31.5691 12.5497 31.8229 13.0008 31.8229 13.48C31.8229 13.5646 31.8229 13.6351 31.8229 13.7197V24.8276C31.8229 24.9968 31.8229 25.1659 31.7665 25.321C31.5832 25.899 31.0476 26.2655 30.4555 26.2796C30.385 26.2796 30.385 26.3923 30.4555 26.3923C31.2872 26.3782 31.9215 25.7016 31.9356 24.8699C31.9356 24.5457 31.9356 24.2356 31.9356 23.9114V13.7338C31.9356 13.6492 31.9356 13.5787 31.9356 13.4941C31.9356 13.0853 31.7665 12.6906 31.4704 12.4087C30.9207 11.9012 30.1454 11.9999 29.4547 11.9999H10.3259C9.74791 11.9999 9.21225 12.2678 8.93032 12.7752C8.74707 13.1276 8.74707 13.4941 8.74707 13.8747V22.3608C8.74707 23.2065 8.74707 24.0664 8.74707 24.9122C8.74707 25.758 9.4096 26.3782 10.2272 26.3923C10.3963 26.3923 10.5655 26.3923 10.7206 26.3923H30.4414C30.4414 26.3923 30.5119 26.2796 30.4414 26.2796L30.4555 26.2937Z" fill="#0565AD"/>
<path d="M31.8934 14.3262H8.85986V16.0177H31.8934V14.3262Z" fill="#223838"/>
<path d="M30.4557 20.3877H21.8992V21.5154H30.4557V20.3877Z" fill="#223838"/>
<path d="M27.6645 22.3604H21.885V23.4881H27.6645V22.3604Z" fill="#223838"/>
<path d="M11.8061 23.6298C12.4678 23.6298 13.0043 23.0933 13.0043 22.4316C13.0043 21.7698 12.4678 21.2334 11.8061 21.2334C11.1444 21.2334 10.6079 21.7698 10.6079 22.4316C10.6079 23.0933 11.1444 23.6298 11.8061 23.6298Z" fill="#FFB800"/>
<path d="M12.962 22.4313C12.962 22.9106 12.6519 23.3476 12.2008 23.5168C11.7497 23.6859 11.2422 23.5309 10.9321 23.1644C10.622 22.7978 10.5938 22.2622 10.8334 21.8534C11.0731 21.4446 11.5664 21.2191 12.0316 21.3177C12.5673 21.4164 12.9479 21.8957 12.962 22.4454C12.962 22.5159 13.0748 22.5159 13.0748 22.4454C13.0748 21.9239 12.7505 21.4587 12.2713 21.2754C11.792 21.0922 11.1999 21.2472 10.8616 21.656C10.5233 22.0648 10.481 22.6428 10.7489 23.0939C11.0167 23.545 11.5382 23.7705 12.0457 23.6859C12.6378 23.5731 13.0607 23.0516 13.0748 22.4595C13.0748 22.3891 12.9761 22.3891 12.962 22.4595V22.4313Z" fill="#0565AD"/>
<path d="M13.3566 23.6298C14.0184 23.6298 14.5548 23.0933 14.5548 22.4316C14.5548 21.7698 14.0184 21.2334 13.3566 21.2334C12.6949 21.2334 12.1584 21.7698 12.1584 22.4316C12.1584 23.0933 12.6949 23.6298 13.3566 23.6298Z" fill="#FFB800"/>
<path d="M14.5125 22.4313C14.5125 22.9106 14.2024 23.3476 13.7513 23.5168C13.3002 23.6859 12.7928 23.5309 12.4826 23.1644C12.1725 22.7978 12.1443 22.2622 12.384 21.8534C12.6236 21.4446 13.117 21.2191 13.5822 21.3177C14.1178 21.4164 14.4984 21.8957 14.5125 22.4454C14.5125 22.5159 14.6253 22.5159 14.6253 22.4454C14.6253 21.9239 14.3011 21.4587 13.8218 21.2754C13.3425 21.0922 12.7505 21.2472 12.4122 21.656C12.0738 22.0648 12.0316 22.6428 12.2994 23.0939C12.5672 23.545 13.0888 23.7705 13.5963 23.6859C14.1883 23.5731 14.6112 23.0516 14.6253 22.4595C14.6253 22.3891 14.5266 22.3891 14.5125 22.4595V22.4313Z" fill="#0565AD"/>
</g>
<defs>
<clipPath id="clip0_1202_5351">
<rect width="23.9357" height="15.21" fill="white" transform="translate(8 12)"/>
</clipPath>
</defs>
</svg>
