<svg width="449" height="448" viewBox="0 0 449 448" fill="none" xmlns="http://www.w3.org/2000/svg">
<rect width="447.401" height="447.401" transform="translate(0.977539)" fill="white"/>
<g clip-path="url(#clip0_1243_9777)">
<path d="M295.864 296.4H139.712C137.654 296.4 135.41 296.148 133.366 296.4C133.273 296.4 133.167 296.4 133.074 296.4L135.065 298.391V206.322L133.074 208.314H289.226C291.284 208.314 293.528 208.566 295.572 208.314C295.665 208.314 295.771 208.314 295.864 208.314L293.873 206.322V298.391C293.873 300.954 297.856 300.954 297.856 298.391V206.322C297.856 205.247 296.94 204.331 295.864 204.331H153.041C146.496 204.331 139.911 204.092 133.366 204.331C133.273 204.331 133.18 204.331 133.074 204.331C131.999 204.331 131.083 205.247 131.083 206.322V298.391C131.083 299.467 131.999 300.383 133.074 300.383H275.91C282.456 300.383 289.04 300.622 295.586 300.383C295.678 300.383 295.771 300.383 295.878 300.383C298.44 300.383 298.44 296.4 295.878 296.4H295.864Z" fill="#221F20"/>
<path d="M269.87 221.271H161.233C161.233 229.064 154.913 235.383 147.12 235.383V272.848C154.913 272.848 161.233 279.168 161.233 286.961H269.87C269.87 279.168 276.189 272.848 283.982 272.848V235.383C276.189 235.383 269.87 229.064 269.87 221.271ZM170.38 261.604C166.702 261.604 163.715 258.616 163.715 254.939C163.715 251.261 166.702 248.274 170.38 248.274C174.057 248.274 177.044 251.261 177.044 254.939C177.044 258.616 174.057 261.604 170.38 261.604ZM216.859 271.64C206.982 271.64 198.976 263.635 198.976 253.757C198.976 243.88 206.982 235.875 216.859 235.875C226.736 235.875 234.742 243.88 234.742 253.757C234.742 263.635 226.736 271.64 216.859 271.64ZM263.723 261.604C260.046 261.604 257.059 258.616 257.059 254.939C257.059 251.261 260.046 248.274 263.723 248.274C267.401 248.274 270.388 251.261 270.388 254.939C270.388 258.616 267.401 261.604 263.723 261.604Z" fill="url(#paint0_linear_1243_9777)"/>
<path d="M309.472 204.822C306.87 198.237 304.268 191.652 301.666 185.081C297.497 174.526 293.329 163.985 289.16 153.431C288.204 151.028 287.262 148.612 286.306 146.209C285.947 145.293 284.938 144.39 283.85 144.815C278.911 146.766 273.986 148.718 269.047 150.669L233.666 164.649C219.408 170.278 205.136 175.92 190.878 181.549C178.505 186.435 166.118 191.334 153.745 196.219C147.744 198.582 141.73 200.919 135.756 203.322C135.676 203.362 135.583 203.388 135.504 203.428C133.154 204.358 134.176 208.208 136.566 207.265C141.504 205.313 146.43 203.362 151.368 201.41L186.749 187.431C201.007 181.802 215.279 176.159 229.538 170.53C241.911 165.645 254.297 160.746 266.671 155.86L278.831 151.054C280.703 150.311 282.907 149.753 284.659 148.744C284.739 148.705 284.832 148.678 284.912 148.638L282.456 147.244C285.058 153.829 287.66 160.414 290.262 166.986C294.431 177.54 298.599 188.081 302.768 198.636C303.724 201.039 304.666 203.455 305.622 205.858C306.578 208.261 310.402 207.185 309.459 204.796L309.472 204.822Z" fill="#221F20"/>
<path d="M265.967 168.764L176.726 204.025H294.789L283.943 176.57C276.827 179.385 268.781 175.893 265.967 168.777V168.764Z" fill="#C5D8E3"/>
<path d="M305.636 205.884C308.742 213.743 311.849 221.59 314.942 229.449C315.393 230.591 315.845 231.746 316.309 232.887L317.703 230.431C310.375 233.326 303.047 236.22 295.718 239.114C293.369 240.043 294.391 243.893 296.78 242.951C304.109 240.057 311.437 237.162 318.766 234.268C319.682 233.91 320.584 232.901 320.16 231.812C317.053 223.953 313.946 216.107 310.853 208.247C310.402 207.105 309.95 205.95 309.486 204.809C308.556 202.459 304.706 203.481 305.649 205.871L305.636 205.884Z" fill="#221F20"/>
</g>
<defs>
<linearGradient id="paint0_linear_1243_9777" x1="147.12" y1="254.129" x2="283.982" y2="254.129" gradientUnits="userSpaceOnUse">
<stop stop-color="#9BCB9E"/>
<stop offset="1" stop-color="#78C1C4"/>
</linearGradient>
<clipPath id="clip0_1243_9777">
<rect width="189.183" height="155.781" fill="white" transform="translate(131.083 144.708)"/>
</clipPath>
</defs>
</svg>
