<svg width="449" height="448" viewBox="0 0 449 448" fill="none" xmlns="http://www.w3.org/2000/svg">
<rect width="447.401" height="447.401" transform="translate(0.95459 0.0566406)" fill="white"/>
<g clip-path="url(#clip0_1243_9756)">
<path d="M233.736 239.157C233.683 246.526 233.351 253.96 233.59 261.328C233.63 262.669 234.36 263.2 235.276 264.01L240.148 268.272L245.445 272.905C246.401 273.741 247.198 274.671 248.539 274.724C252.681 274.91 256.863 274.764 261.018 274.777C263.58 274.777 263.58 270.807 261.018 270.794C256.77 270.781 252.522 270.754 248.273 270.741L249.68 271.325C245.445 267.621 241.21 263.93 236.975 260.226L237.559 261.634C237.613 254.146 237.666 246.658 237.706 239.171C237.719 236.608 233.736 236.608 233.723 239.171L233.736 239.157Z" fill="#221F20"/>
<path d="M270.232 284.19C276.67 284.19 281.888 278.971 281.888 272.533C281.888 266.096 276.67 260.877 270.232 260.877C263.794 260.877 258.576 266.096 258.576 272.533C258.576 278.971 263.794 284.19 270.232 284.19Z" fill="url(#paint0_linear_1243_9756)"/>
<path d="M196.895 309.76C203.333 309.76 208.551 304.541 208.551 298.104C208.551 291.666 203.333 286.447 196.895 286.447C190.457 286.447 185.239 291.666 185.239 298.104C185.239 304.541 190.457 309.76 196.895 309.76Z" fill="url(#paint1_linear_1243_9756)"/>
<path d="M209.136 240.366C209.083 246.526 209.03 252.686 208.99 258.846L209.574 257.439C205.989 260.519 202.405 263.599 198.834 266.679C197.599 267.741 196.271 268.471 196.205 270.224C196.099 272.68 196.139 275.149 196.112 277.605C196.086 280.061 196.046 282.345 196.019 284.708C195.993 287.27 199.975 287.27 200.002 284.708C200.068 279.756 200.121 274.791 200.188 269.839L199.604 271.246C203.547 267.861 207.49 264.475 211.419 261.09C212.203 260.413 212.853 259.975 212.973 258.846C213.039 258.275 212.973 257.665 212.986 257.094L213.066 247.641C213.079 245.212 213.105 242.796 213.119 240.366C213.145 237.804 209.162 237.804 209.136 240.366Z" fill="#221F20"/>
<path d="M181.044 239.915C181.031 243.128 181.004 246.327 180.991 249.54L181.575 248.133C179.172 249.991 176.782 251.837 174.379 253.695C173.53 254.359 173.689 255.82 174.379 256.51C175.216 257.346 176.344 257.174 177.194 256.51C179.398 254.811 181.588 253.111 183.792 251.412C184.283 251.027 184.721 250.735 184.907 250.071C185.027 249.646 184.987 249.142 184.987 248.704L185.013 243.831C185.013 242.53 185.027 241.216 185.04 239.915C185.053 237.353 181.07 237.353 181.057 239.915H181.044Z" fill="#221F20"/>
<path d="M164.781 274.405C171.218 274.405 176.437 269.187 176.437 262.749C176.437 256.312 171.218 251.093 164.781 251.093C158.343 251.093 153.125 256.312 153.125 262.749C153.125 269.187 158.343 274.405 164.781 274.405Z" fill="url(#paint2_linear_1243_9756)"/>
<path d="M273.883 239.278L291.221 238.866C306.727 237.392 320.176 224.329 320.176 208.438C320.176 191.55 306.489 177.863 289.601 177.863C287.225 177.863 284.928 178.142 282.711 178.646C279.113 166.937 268.214 158.414 255.323 158.414C252.137 158.414 249.07 158.958 246.202 159.927C241.489 147.567 229.528 138.778 215.508 138.778C211.552 138.778 207.755 139.482 204.25 140.756C206.826 142.522 210.158 145.217 213.397 149.094C216.743 153.103 218.827 157.006 220.115 159.927C221.801 159.356 232.807 155.878 243.733 162.25C253.026 167.667 255.987 176.562 256.637 178.659C271.891 176.004 286.867 183.996 292.721 197.458C299.24 212.42 289.057 230.847 273.896 239.278H273.883Z" fill="#C5D8E3"/>
<path d="M296.08 208.45C296.014 198.985 291.898 189.798 284.623 183.664C276.697 176.973 266.209 174.53 256.093 176.747L258.549 178.141C256.199 170.707 251.181 164.308 244.383 160.444C236.856 156.169 227.802 155.346 219.597 158.028L222.053 159.422C216.809 145.987 203.931 136.8 189.421 136.8C175.853 136.8 163.094 145.018 157.611 157.444C154.093 165.423 153.668 174.424 156.39 182.722L158.315 180.199C146.605 181.673 136.648 189.439 132.719 200.644C128.789 211.849 131.936 224.461 140.326 232.599C146.287 238.388 154.213 241.295 162.47 241.269L173.941 241.229C189.248 241.176 204.555 241.109 219.876 241.056C233.563 241.003 247.251 240.95 260.938 240.897C264.589 240.884 267.895 240.937 271.493 240.034C282.711 237.233 291.832 228.298 294.912 217.159C295.695 214.332 296.067 211.384 296.093 208.45C296.107 205.888 292.124 205.888 292.111 208.45C292.031 219.523 285.632 229.599 275.635 234.352C271.493 236.317 267.404 236.874 262.97 236.901L226.58 237.047C211.26 237.1 195.952 237.166 180.632 237.22C175.627 237.233 170.622 237.259 165.617 237.273C161.594 237.286 157.704 237.299 153.775 236.091C143.512 232.918 135.892 223.439 135.122 212.699C134.325 201.56 140.552 191.046 150.681 186.346C153.084 185.231 155.713 184.5 158.341 184.169C159.536 184.023 160.705 183.014 160.267 181.646C156.164 169.18 160.134 155.293 170.555 147.208C180.3 139.654 194.054 138.698 204.754 144.832C210.861 148.337 215.667 153.899 218.216 160.458C218.588 161.427 219.557 162.21 220.672 161.852C234.838 157.245 250.225 164.905 254.739 179.19C255.07 180.252 256.106 180.823 257.195 180.584C265.97 178.646 275.343 180.836 282.18 186.757C288.486 192.227 292.084 200.1 292.137 208.45C292.15 211.013 296.133 211.013 296.12 208.45H296.08Z" fill="#221F20"/>
</g>
<defs>
<linearGradient id="paint0_linear_1243_9756" x1="270.279" y1="260.884" x2="270.181" y2="284.196" gradientUnits="userSpaceOnUse">
<stop stop-color="#9BCB9E"/>
<stop offset="1" stop-color="#78C1C4"/>
</linearGradient>
<linearGradient id="paint1_linear_1243_9756" x1="196.954" y1="286.439" x2="196.856" y2="309.765" gradientUnits="userSpaceOnUse">
<stop stop-color="#9BCB9E"/>
<stop offset="1" stop-color="#78C1C4"/>
</linearGradient>
<linearGradient id="paint2_linear_1243_9756" x1="153.125" y1="262.749" x2="176.437" y2="262.749" gradientUnits="userSpaceOnUse">
<stop stop-color="#9BCB9E"/>
<stop offset="1" stop-color="#78C1C4"/>
</linearGradient>
<clipPath id="clip0_1243_9756">
<rect width="189.117" height="172.96" fill="white" transform="translate(131.06 136.8)"/>
</clipPath>
</defs>
</svg>
