<svg width="449" height="448" viewBox="0 0 449 448" fill="none" xmlns="http://www.w3.org/2000/svg">
<rect width="447.401" height="447.401" transform="translate(0.96582 0.327637)" fill="white"/>
<g clip-path="url(#clip0_1243_9755)">
<path d="M298.016 221.054C313.841 215.293 325.126 200.105 325.126 182.302C325.126 159.52 306.659 141.066 283.891 141.066C269.247 141.066 256.396 148.687 249.081 160.184C255.254 162.321 270.11 168.375 282.337 183.603C294.538 198.79 297.26 214.576 298.016 221.054Z" fill="#C5D8E3"/>
<path d="M295.441 232.047C295.401 247.354 290.675 262.303 281.846 274.809C273.018 287.315 260.897 296.449 246.917 301.533C232.34 306.844 216.236 307.454 201.301 303.233C186.857 299.157 173.912 290.607 164.34 279.057C154.729 267.454 148.847 252.85 147.706 237.835C146.564 222.82 150.148 207.021 158.101 193.838C166.053 180.655 177.391 170.804 190.972 164.618C204.992 158.232 221.082 156.466 236.164 159.546C251.245 162.626 264.415 170.021 274.81 180.828C285.285 191.727 292.202 205.734 294.551 220.656C295.149 224.426 295.401 228.236 295.414 232.047C295.414 234.609 299.411 234.609 299.397 232.047C299.344 215.956 294.379 200.038 285.006 186.922C275.832 174.097 262.968 164.233 248.165 158.803C233.362 153.373 215.865 152.603 200.225 157.024C185.104 161.299 171.363 170.26 161.38 182.394C151.396 194.529 144.997 210.035 143.736 226.033C142.475 242.03 146.325 258.466 154.662 272.273C163 286.08 174.908 296.555 189.167 303.02C204.102 309.778 220.936 311.676 237.013 308.45C252.493 305.343 266.884 297.351 277.784 285.934C288.67 274.543 296.025 259.873 298.441 244.274C299.065 240.225 299.397 236.149 299.411 232.047C299.411 229.484 295.441 229.484 295.428 232.047H295.441Z" fill="#221F20"/>
<path d="M218.427 154.104C211.776 154.104 205.177 154.024 198.566 155.006C189.472 156.361 180.617 159.387 172.572 163.848C156.614 172.69 144.134 187.108 137.55 204.101C130.965 221.094 130.659 241.752 137.311 259.382C143.749 276.442 156.109 290.966 171.987 299.941C180.046 304.494 188.941 307.627 198.101 309.035C205.045 310.11 211.988 310.004 218.998 310.004H221.454C224.016 310.004 224.016 306.021 221.454 306.021C216.356 306.021 211.231 306.18 206.147 305.901C197.252 305.424 188.383 303.313 180.258 299.662C164.327 292.506 151.264 279.827 143.643 264.109C135.797 247.912 134.27 228.954 139.196 211.668C143.988 194.901 154.835 180.098 169.359 170.446C176.634 165.614 184.693 162.096 193.189 160.078C200.571 158.325 207.965 158.086 215.506 158.086H218.414C220.976 158.086 220.976 154.104 218.414 154.104H218.427Z" fill="#221F20"/>
<path d="M234.265 197.051C236.257 199.759 237.558 202.601 238.222 205.72C238.381 206.464 238.938 206.185 239.337 206.185C242.35 206.212 245.364 206.185 248.378 206.198C250.608 206.198 251.219 206.836 251.219 209.079C251.219 210.858 251.219 212.651 251.219 214.429C251.206 216.129 250.528 216.793 248.803 216.793C245.749 216.793 242.682 216.832 239.629 216.779C238.806 216.766 238.474 216.965 238.288 217.815C236.151 228.13 229.552 234.211 219.755 237.264C217.524 237.955 215.241 238.3 212.838 238.778C214.67 240.796 216.462 242.707 218.188 244.672C224.215 251.496 230.136 258.413 235.858 265.489C237.823 267.932 239.815 270.335 241.819 272.751C242.39 273.441 242.616 274.145 242.204 274.968C241.793 275.791 241.156 276.203 240.173 276.189C236.177 276.15 232.194 276.136 228.198 276.189C227.096 276.203 226.472 275.592 225.875 274.888C223.525 272.1 221.242 269.273 218.878 266.511C215.002 261.971 211.099 257.457 207.209 252.93C203.266 248.336 199.19 243.849 195.061 239.415C194.411 238.725 194.105 237.994 194.132 237.025C194.198 234.689 194.145 232.352 194.159 230.016C194.159 228.276 194.889 227.533 196.601 227.506C200.412 227.453 204.248 227.719 208.045 227.241C212.718 226.657 217.153 225.488 220.551 221.877C221.706 220.656 222.423 219.196 223.06 217.669C223.339 217.005 223.18 216.766 222.45 216.779C220.113 216.806 217.777 216.779 215.44 216.779C209.28 216.779 203.12 216.779 196.973 216.779C194.69 216.779 194.172 216.248 194.159 213.912C194.159 212.133 194.159 210.34 194.159 208.561C194.159 207.008 194.796 206.305 196.336 206.198C196.933 206.159 197.531 206.185 198.115 206.185C205.722 206.185 213.316 206.185 220.923 206.185C221.321 206.185 221.905 206.397 222.091 205.999C222.29 205.574 221.812 205.189 221.547 204.818C219.356 201.777 216.183 200.45 212.679 199.72C207.488 198.644 202.217 199.029 196.973 198.963C194.676 198.936 194.159 198.432 194.159 196.109C194.159 193.692 194.159 191.263 194.159 188.847C194.159 187.161 194.849 186.47 196.561 186.47C213.966 186.47 231.384 186.47 248.789 186.47C250.263 186.47 251.033 187.107 251.086 188.568C251.166 190.692 251.152 192.816 251.086 194.94C251.046 196.44 250.25 197.064 248.51 197.064C244.183 197.064 239.841 197.038 235.513 197.038C235.155 197.038 234.796 197.038 234.239 197.038L234.265 197.051Z" fill="url(#paint0_linear_1243_9755)"/>
</g>
<defs>
<linearGradient id="paint0_linear_1243_9755" x1="194.145" y1="231.33" x2="251.232" y2="231.33" gradientUnits="userSpaceOnUse">
<stop stop-color="#9BCB9E"/>
<stop offset="1" stop-color="#78C1C4"/>
</linearGradient>
<clipPath id="clip0_1243_9755">
<rect width="192.728" height="168.95" fill="white" transform="translate(132.398 141.053)"/>
</clipPath>
</defs>
</svg>
