<svg width="449" height="449" viewBox="0 0 449 449" fill="none" xmlns="http://www.w3.org/2000/svg">
<rect width="447.401" height="447.401" transform="translate(0.943359 0.655273)" fill="white"/>
<g clip-path="url(#clip0_1243_9751)">
<path d="M297.994 221.382C313.819 215.62 325.104 200.432 325.104 182.629C325.104 159.848 306.637 141.394 283.869 141.394C269.225 141.394 256.374 149.014 249.059 160.511C255.232 162.649 270.088 168.703 282.315 183.93C294.516 199.118 297.238 214.903 297.994 221.382Z" fill="#C5D8E3"/>
<path d="M295.419 232.374C295.379 247.682 290.652 262.63 281.824 275.136C272.995 287.642 260.874 296.776 246.895 301.861C232.318 307.171 216.214 307.782 201.278 303.56C186.834 299.485 173.89 290.935 164.318 279.385C154.706 267.781 148.825 253.178 147.683 238.163C146.541 223.147 150.126 207.349 158.078 194.166C165.805 181.381 177.368 171.132 190.95 164.945C204.969 158.56 221.06 156.794 236.141 159.874C251.223 162.954 264.392 170.349 274.788 181.155C285.262 192.055 292.179 206.061 294.529 220.983C295.126 224.754 295.379 228.564 295.392 232.374C295.392 234.937 299.388 234.937 299.375 232.374C299.322 216.284 294.356 200.366 284.984 187.249C275.81 174.425 262.945 164.56 248.143 159.131C233.34 153.701 215.842 152.931 200.203 157.352C184.564 161.773 171.341 170.588 161.357 182.722C151.374 194.856 144.975 210.363 143.714 226.36C142.452 242.358 146.302 258.794 154.64 272.601C162.977 286.408 174.886 296.882 189.144 303.348C204.08 310.105 220.914 312.004 236.991 308.778C253.068 305.552 266.862 297.679 277.761 286.262C288.648 274.871 296.003 260.201 298.419 244.602C299.043 240.552 299.375 236.477 299.388 232.374C299.388 229.812 295.419 229.812 295.405 232.374H295.419Z" fill="#221F20"/>
<path d="M218.405 154.431C211.753 154.431 205.155 154.352 198.544 155.334C189.45 156.688 180.595 159.715 172.549 164.176C156.592 173.018 144.112 187.435 137.527 204.429C130.717 222.006 130.637 242.079 137.288 259.71C143.727 276.77 156.087 291.294 171.965 300.268C180.024 304.822 188.919 307.955 198.079 309.362C205.023 310.438 211.966 310.331 218.976 310.331H221.432C223.994 310.331 223.994 306.349 221.432 306.349C216.334 306.349 211.209 306.508 206.124 306.229C197.229 305.751 188.361 303.64 180.236 299.989C164.305 292.834 151.241 280.155 143.621 264.436C135.775 248.239 134.248 229.281 139.174 211.996C143.966 195.228 154.813 180.426 169.337 170.774C176.612 165.942 184.67 162.423 193.167 160.405C200.548 158.653 207.943 158.414 215.484 158.414H218.391C220.954 158.414 220.954 154.431 218.391 154.431H218.405Z" fill="#221F20"/>
<path d="M224.193 234.791C229.53 234.791 234.867 234.844 240.204 234.751C241.691 234.724 242.169 235.176 242.063 236.636C241.943 238.428 241.93 240.247 242.063 242.04C242.182 243.646 241.598 244.057 240.045 244.057C230.273 244.004 220.502 244.044 210.731 244.044C208.182 244.044 208.275 244.004 208.979 246.474C212.032 257.174 222.6 261.144 232.491 260.294C236.473 259.949 240.337 259.099 244.014 257.506C245.143 257.015 245.474 257.174 245.727 258.462C246.444 262.206 247.373 265.923 248.236 269.627C248.501 270.756 248.475 271.618 247.187 272.136C231.575 278.402 216.427 278.203 202.248 268.379C194.72 263.162 190.246 255.687 188.401 246.739C187.963 244.589 187.126 243.898 184.896 243.978C179.148 244.19 179.148 244.071 179.121 238.176C179.112 235.91 180.254 234.778 182.546 234.778C186.529 234.778 186.396 234.778 186.595 230.742C186.715 228.511 186.171 227.808 183.821 227.901C179.134 228.1 179.134 227.954 179.081 223.347C179.046 220.276 180.568 218.722 183.648 218.687C187.936 218.647 187.817 218.607 189.237 214.465C194.72 198.534 205.66 189.108 222.507 186.851C230.486 185.776 238.186 186.971 245.753 189.493C247.453 190.064 248.17 190.635 247.532 192.626C246.43 196.118 245.594 199.702 244.89 203.3C244.519 205.159 244.041 205.544 242.142 204.853C236.088 202.636 229.875 201.402 223.436 203.114C216.267 205.013 211.647 209.606 209.138 216.496C208.514 218.222 208.7 218.767 210.731 218.74C220.343 218.634 229.968 218.74 239.593 218.647C241.505 218.634 242.341 219.059 242.076 221.117C241.784 223.32 243.005 226.294 241.571 227.569C240.337 228.671 237.429 227.94 235.265 227.94C226.317 227.954 217.382 227.98 208.434 227.914C206.881 227.914 206.39 228.325 206.377 229.919C206.377 234.764 206.297 234.764 211.116 234.751C215.471 234.751 219.839 234.751 224.193 234.751V234.791Z" fill="url(#paint0_linear_1243_9751)"/>
</g>
<defs>
<linearGradient id="paint0_linear_1243_9751" x1="179.081" y1="231.445" x2="248.382" y2="231.445" gradientUnits="userSpaceOnUse">
<stop stop-color="#9BCB9E"/>
<stop offset="1" stop-color="#78C1C4"/>
</linearGradient>
<clipPath id="clip0_1243_9751">
<rect width="192.728" height="168.95" fill="white" transform="translate(132.376 141.381)"/>
</clipPath>
</defs>
</svg>
