<svg width="449" height="448" viewBox="0 0 449 448" fill="none" xmlns="http://www.w3.org/2000/svg">
<rect width="447.401" height="447.401" transform="translate(0.95459 0.327637)" fill="white"/>
<g clip-path="url(#clip0_1243_9778)">
<path d="M298.005 221.054C313.83 215.293 325.115 200.105 325.115 182.302C325.115 159.52 306.648 141.066 283.88 141.066C269.236 141.066 256.385 148.687 249.07 160.184C255.243 162.321 270.099 168.375 282.326 183.603C294.527 198.79 297.248 214.576 298.005 221.054Z" fill="#C5D8E3"/>
<path d="M222.916 276.123C221.376 276.123 219.823 276.123 218.283 276.123C216.915 276.123 216.344 275.606 216.318 274.212C216.291 272.101 216.291 269.976 216.318 267.866C216.318 267.335 216.159 267.135 215.641 267.003C208.286 265.157 202.033 261.44 196.948 255.798C196.643 255.453 196.311 255.134 196.032 254.789C195.156 253.687 195.169 252.943 196.178 251.934C197.493 250.62 198.86 249.359 200.201 248.071C201.568 246.77 202.936 245.482 204.303 244.181C205.856 242.708 206.64 242.681 208.286 244.062C210.317 245.761 212.282 247.567 214.579 248.947C218.216 251.125 222.066 252.187 226.315 251.337C229.74 250.647 231.612 248.496 231.678 245.203C231.705 243.969 231.227 242.986 230.364 242.15C228.611 240.464 226.474 239.442 224.23 238.658C219.69 237.065 215.163 235.459 210.954 233.109C207.157 230.998 203.732 228.449 201.382 224.719C195.209 214.961 198.754 202.76 209.189 197.702C211.154 196.746 213.198 196.016 215.335 195.604C216.172 195.445 216.371 195.1 216.344 194.303C216.278 192.511 216.318 190.705 216.344 188.9C216.358 187.347 217.061 186.656 218.615 186.656C221.442 186.656 224.284 186.656 227.111 186.656C228.824 186.656 229.713 187.559 229.713 189.232C229.713 190.891 229.753 192.551 229.7 194.197C229.674 194.901 229.873 195.166 230.59 195.312C236.564 196.494 241.795 199.189 246.282 203.304C248.579 205.402 248.579 206.464 246.454 208.721C244.211 211.084 241.994 213.474 239.75 215.837C238.436 217.231 237.533 217.297 236.046 216.089C234.347 214.695 232.674 213.261 230.736 212.186C227.616 210.447 224.35 209.929 220.872 210.819C220.062 211.031 219.292 211.336 218.615 211.828C216.49 213.368 216.212 216.315 218.044 218.2C219.225 219.421 220.726 220.152 222.292 220.722C225.757 221.984 229.262 223.139 232.727 224.413C236.604 225.847 240.387 227.453 243.693 230.002C248.101 233.401 250.437 237.849 250.743 243.424C251.313 253.899 245.153 261.427 237.108 265.038C235.011 265.98 232.847 266.697 230.576 267.109C229.939 267.228 229.674 267.441 229.7 268.144C229.753 270.056 229.727 271.968 229.713 273.893C229.713 275.552 229.129 276.123 227.496 276.123C225.983 276.123 224.469 276.123 222.943 276.123H222.916Z" fill="url(#paint0_linear_1243_9778)"/>
<path d="M295.43 232.047C295.39 247.354 290.664 262.303 281.835 274.809C273.259 286.956 260.886 296.449 246.906 301.533C232.926 306.618 216.225 307.454 201.29 303.233C186.845 299.157 173.901 290.607 164.329 279.057C154.717 267.454 148.836 252.85 147.694 237.835C146.553 222.82 150.137 207.021 158.089 193.838C165.816 181.054 177.38 170.804 190.961 164.618C204.98 158.232 221.071 156.466 236.152 159.546C251.234 162.626 264.404 170.021 274.799 180.828C285.274 191.727 292.19 205.734 294.54 220.656C295.138 224.426 295.39 228.236 295.403 232.047C295.403 234.609 299.399 234.609 299.386 232.047C299.333 215.956 294.368 200.038 284.995 186.922C275.622 173.805 262.957 164.233 248.154 158.803C233.351 153.373 215.853 152.603 200.214 157.024C184.575 161.445 171.352 170.26 161.369 182.394C151.385 194.529 144.986 210.035 143.725 226.033C142.464 242.03 146.314 258.466 154.651 272.273C162.988 286.08 174.897 296.555 189.155 303.02C204.091 309.778 220.925 311.676 237.002 308.45C253.079 305.224 266.873 297.351 277.773 285.934C288.659 274.543 296.014 259.873 298.43 244.274C299.054 240.225 299.386 236.149 299.399 232.047C299.399 229.484 295.43 229.484 295.416 232.047H295.43Z" fill="#221F20"/>
<path d="M218.415 154.104C211.764 154.104 205.166 154.024 198.555 155.006C189.46 156.361 180.605 159.387 172.56 163.848C156.602 172.69 144.123 187.108 137.538 204.101C130.727 221.678 130.648 241.752 137.299 259.382C143.738 276.442 156.098 290.966 171.976 299.941C180.035 304.494 188.929 307.627 198.09 309.035C205.033 310.11 211.977 310.004 218.986 310.004H221.442C224.005 310.004 224.005 306.021 221.442 306.021C216.344 306.021 211.22 306.18 206.135 305.901C197.24 305.424 188.372 303.313 180.247 299.662C164.316 292.506 151.252 279.827 143.632 264.109C136.011 248.39 134.259 228.954 139.184 211.668C144.11 194.383 154.823 180.098 169.347 170.446C176.623 165.614 184.681 162.096 193.178 160.078C200.559 158.325 207.954 158.086 215.495 158.086H218.402C220.964 158.086 220.964 154.104 218.402 154.104H218.415Z" fill="#221F20"/>
</g>
<defs>
<linearGradient id="paint0_linear_1243_9778" x1="195.382" y1="231.383" x2="250.743" y2="231.383" gradientUnits="userSpaceOnUse">
<stop stop-color="#9BCB9E"/>
<stop offset="1" stop-color="#78C1C4"/>
</linearGradient>
<clipPath id="clip0_1243_9778">
<rect width="192.728" height="168.95" fill="white" transform="translate(132.387 141.053)"/>
</clipPath>
</defs>
</svg>
