<svg width="40" height="40" viewBox="0 0 40 40" fill="none" xmlns="http://www.w3.org/2000/svg">
<rect width="40" height="40" fill="white"/>
<g clip-path="url(#clip0_1202_5043)">
<path d="M19.2784 29.0058C20.5062 29.3868 21.7129 29.7467 22.9406 30.1277C22.9406 30.1701 22.8983 30.1912 22.8771 30.1912C22.6019 30.3818 22.3268 30.5935 22.0516 30.784C21.988 30.8263 21.9457 30.8475 21.8822 30.8263C20.7391 30.4664 19.596 30.1277 18.4529 29.789C18.3893 29.789 18.347 29.7467 18.3258 29.6832C18.2835 29.5773 18.22 29.4715 18.1565 29.3657C18.093 29.281 18.1142 29.2175 18.22 29.154C18.4529 29.0058 18.6857 28.8364 18.8974 28.6459C19.1726 28.4131 19.4055 28.159 19.5536 27.8203C19.7018 27.4816 19.7442 27.1641 19.6595 26.8466C19.6383 26.7407 19.596 26.7407 19.5113 26.8042C18.8551 27.2699 18.1988 27.7568 17.5638 28.2225C17.5003 28.2649 17.4579 28.3072 17.3732 28.3496C17.4156 28.0532 17.4368 27.7992 17.4579 27.5451C17.4579 27.4816 17.5214 27.4605 17.5638 27.4393C18.093 27.0583 18.6222 26.6772 19.1514 26.2962C19.1938 26.275 19.2361 26.2538 19.2361 26.2115C19.2361 26.1692 19.1938 26.1692 19.1514 26.148C18.8127 25.9786 18.474 26.0845 18.1142 26.275C17.6908 26.5079 17.3097 26.8042 16.9287 27.0794C16.8864 27.1006 16.844 27.1429 16.7805 27.1853C16.8229 26.9101 16.844 26.6349 16.8652 26.3809C16.8652 26.3385 16.9075 26.3173 16.9287 26.2962C18.1565 25.4071 19.3843 24.518 20.6121 23.6289C20.6544 23.6289 20.6121 23.6924 20.6121 23.7136C20.5909 23.9253 20.5697 24.1158 20.5486 24.3275C20.5486 24.4122 20.5062 24.4757 20.4216 24.5392C20.1252 24.7509 19.85 24.9625 19.5325 25.1742C19.6171 25.2166 19.7018 25.2377 19.7865 25.2801C19.8923 25.3436 19.977 25.4071 20.0617 25.4918C20.104 25.5553 20.1464 25.5341 20.2099 25.4918C20.5274 25.2589 20.8661 25.0261 21.2048 24.772C21.2048 24.9414 21.1413 25.1107 21.1625 25.2589C21.1625 25.5129 21.0566 25.7035 20.8238 25.8305C20.6968 25.894 20.5909 25.9998 20.4851 26.0633C20.4427 26.1057 20.4216 26.1268 20.4216 26.1903C20.6121 26.8677 20.4216 27.524 19.977 28.159C19.7865 28.4342 19.5536 28.6883 19.2996 28.8999C19.2784 28.8999 19.2573 28.9423 19.2361 28.9635C19.2361 28.9635 19.2361 28.9635 19.2361 29.0058H19.2784Z" fill="white"/>
<path d="M19.7017 32.0115C24.0859 32.0115 27.6401 30.2771 27.6401 28.1376C27.6401 25.9981 24.0859 24.2637 19.7017 24.2637C15.3175 24.2637 11.7634 25.9981 11.7634 28.1376C11.7634 30.2771 15.3175 32.0115 19.7017 32.0115Z" fill="#C78700"/>
<path d="M27.5766 28.1375C27.5766 29.1113 26.8357 29.8733 26.0736 30.3602C24.9728 31.08 23.6815 31.461 22.4114 31.6939C20.8449 31.9691 19.2361 31.9902 17.6484 31.7785C16.2936 31.6092 14.9388 31.2493 13.7533 30.5719C12.9489 30.1062 12.081 29.4076 11.9116 28.455C11.7423 27.5024 12.3562 26.698 13.0548 26.1476C14.0497 25.3644 15.2987 24.941 16.5264 24.687C18.0506 24.3483 19.6594 24.2848 21.2048 24.4118C22.6231 24.5388 24.0626 24.8563 25.3327 25.4914C26.2006 25.9148 27.1532 26.571 27.4919 27.5236C27.5554 27.7141 27.5977 27.9258 27.5977 28.1375C27.5977 28.2433 27.7671 28.2433 27.7671 28.1375C27.7671 27.1849 27.0897 26.4228 26.3488 25.8936C25.248 25.1104 23.872 24.687 22.5384 24.433C20.8872 24.1366 19.1937 24.1154 17.5426 24.3271C16.1454 24.5176 14.7271 24.8987 13.4993 25.6396C12.6949 26.1265 11.8905 26.8462 11.7423 27.82C11.6153 28.7514 12.1445 29.5558 12.8431 30.1274C13.838 30.953 15.1293 31.4187 16.3783 31.6939C18.0294 32.0749 19.7441 32.1384 21.4164 31.9691C22.8559 31.8209 24.3166 31.4822 25.5867 30.8259C26.4546 30.3814 27.3649 29.704 27.6824 28.7302C27.7459 28.5397 27.7671 28.328 27.7671 28.1163C27.7671 28.0105 27.6189 28.0105 27.5977 28.1163L27.5766 28.1375Z" fill="#0565AD"/>
<path d="M19.7017 30.7204C24.0859 30.7204 27.6401 28.986 27.6401 26.8466C27.6401 24.7071 24.0859 22.9727 19.7017 22.9727C15.3175 22.9727 11.7634 24.7071 11.7634 26.8466C11.7634 28.986 15.3175 30.7204 19.7017 30.7204Z" fill="#FFB800"/>
<path d="M27.5766 26.8465C27.5766 27.8202 26.8357 28.5823 26.0736 29.0692C24.9728 29.789 23.6815 30.17 22.4114 30.4028C20.8449 30.678 19.2361 30.6992 17.6484 30.4875C16.2936 30.3182 14.9388 29.9583 13.7533 29.2809C12.9489 28.8152 12.081 28.1166 11.9116 27.164C11.7423 26.2114 12.3562 25.407 13.0548 24.8566C14.0497 24.0734 15.2987 23.65 16.5264 23.396C18.0506 23.0573 19.6594 22.9938 21.2048 23.1208C22.6231 23.2478 24.0626 23.5653 25.3327 24.2004C26.2006 24.6238 27.1532 25.28 27.4919 26.2326C27.5554 26.4231 27.5977 26.6348 27.5977 26.8465C27.5977 26.9523 27.7671 26.9523 27.7671 26.8465C27.7671 25.8939 27.0897 25.1318 26.3488 24.6026C25.248 23.8193 23.872 23.396 22.5384 23.1419C20.8872 22.8456 19.1937 22.8244 17.5426 23.0361C16.1454 23.2266 14.7271 23.6077 13.4993 24.3486C12.6949 24.8354 11.8905 25.5552 11.7423 26.529C11.6153 27.4604 12.1445 28.2648 12.8431 28.8364C13.838 29.6619 15.1293 30.1277 16.3783 30.4028C18.0294 30.7839 19.7441 30.8474 21.4164 30.678C22.8559 30.5299 24.3166 30.1912 25.5867 29.5349C26.4546 29.0904 27.3649 28.413 27.6824 27.4392C27.7459 27.2487 27.7671 27.037 27.7671 26.8253C27.7671 26.7195 27.6189 26.7195 27.5977 26.8253L27.5766 26.8465Z" fill="#0565AD"/>
<path d="M19.2784 26.6767C20.5062 27.0577 21.7129 27.4176 22.9406 27.7986C22.9406 27.841 22.8983 27.8621 22.8771 27.8621C22.6019 28.0527 22.3268 28.2644 22.0516 28.4549C21.988 28.4972 21.9457 28.5184 21.8822 28.4972C20.7391 28.1373 19.596 27.7986 18.4529 27.4599C18.3893 27.4599 18.347 27.4176 18.3258 27.3541C18.2835 27.2482 18.22 27.1424 18.1565 27.0366C18.093 26.9519 18.1142 26.8884 18.22 26.8249C18.4529 26.6767 18.6857 26.5073 18.8974 26.3168C19.1726 26.084 19.4055 25.8299 19.5536 25.4912C19.7018 25.1525 19.7442 24.835 19.6595 24.5175C19.6383 24.4116 19.596 24.4116 19.5113 24.4751C18.8551 24.9408 18.1988 25.4277 17.5638 25.8934C17.5003 25.9358 17.4579 25.9781 17.3732 26.0205C17.4156 25.7241 17.4368 25.4701 17.4579 25.216C17.4579 25.1525 17.5214 25.1314 17.5638 25.1102C18.093 24.7292 18.6222 24.3481 19.1514 23.9671C19.1938 23.9459 19.2361 23.9247 19.2361 23.8824C19.2361 23.8401 19.1938 23.8401 19.1514 23.8189C18.8127 23.6495 18.474 23.7554 18.1142 23.9459C17.6908 24.1788 17.3097 24.4751 16.9287 24.7503C16.8864 24.7715 16.844 24.8138 16.7805 24.8562C16.8229 24.581 16.844 24.3058 16.8652 24.0518C16.8652 24.0094 16.9075 23.9882 16.9287 23.9671C18.1565 23.078 19.3843 22.1889 20.6121 21.2998C20.6544 21.2998 20.6121 21.3633 20.6121 21.3845C20.5909 21.5962 20.5697 21.7867 20.5486 21.9984C20.5486 22.0831 20.5062 22.1466 20.4216 22.2101C20.1252 22.4218 19.85 22.6334 19.5325 22.8451C19.6171 22.8875 19.7018 22.9086 19.7865 22.951C19.8923 23.0145 19.977 23.078 20.0617 23.1627C20.104 23.2262 20.1464 23.205 20.2099 23.1627C20.5274 22.9298 20.8661 22.6969 21.2048 22.4429C21.2048 22.6123 21.1413 22.7816 21.1625 22.9298C21.1625 23.1838 21.0566 23.3744 20.8238 23.5014C20.6968 23.5649 20.5909 23.6707 20.4851 23.7342C20.4427 23.7766 20.4216 23.7977 20.4216 23.8612C20.6121 24.5386 20.4216 25.1949 19.977 25.8299C19.7865 26.1051 19.5536 26.3592 19.2996 26.5708C19.2784 26.5708 19.2573 26.6132 19.2361 26.6344C19.2361 26.6344 19.2361 26.6344 19.2361 26.6767H19.2784Z" fill="white"/>
<path d="M19.7017 30.0847C24.0859 30.0847 27.6401 28.3503 27.6401 26.2108C27.6401 24.0713 24.0859 22.3369 19.7017 22.3369C15.3175 22.3369 11.7634 24.0713 11.7634 26.2108C11.7634 28.3503 15.3175 30.0847 19.7017 30.0847Z" fill="#C78700"/>
<path d="M27.5766 26.2107C27.5766 27.1845 26.8357 27.9466 26.0736 28.4335C24.9728 29.1532 23.6815 29.5342 22.4114 29.7671C20.8449 30.0423 19.2361 30.0635 17.6484 29.8518C16.2936 29.6824 14.9388 29.3226 13.7533 28.6452C12.9489 28.1794 12.081 27.4809 11.9116 26.5283C11.7423 25.5757 12.3562 24.7713 13.0548 24.2209C14.0497 23.4376 15.2987 23.0142 16.5264 22.7602C18.0506 22.4215 19.6594 22.358 21.2048 22.485C22.6231 22.612 24.0626 22.9296 25.3327 23.5646C26.2006 23.988 27.1532 24.6442 27.4919 25.5968C27.5554 25.7874 27.5977 25.9991 27.5977 26.2107C27.5977 26.3166 27.7671 26.3166 27.7671 26.2107C27.7671 25.2581 27.0897 24.4961 26.3488 23.9668C25.248 23.1836 23.872 22.7602 22.5384 22.5062C20.8872 22.2098 19.1937 22.1887 17.5426 22.4004C16.1454 22.5909 14.7271 22.9719 13.4993 23.7128C12.6949 24.1997 11.8905 24.9194 11.7423 25.8932C11.6153 26.8246 12.1445 27.6291 12.8431 28.2006C13.838 29.0262 15.1293 29.4919 16.3783 29.7671C18.0294 30.1481 19.7441 30.2116 21.4164 30.0423C22.8559 29.8941 24.3166 29.5554 25.5867 28.8992C26.4546 28.4546 27.3649 27.7772 27.6824 26.8035C27.7459 26.6129 27.7671 26.4013 27.7671 26.1896C27.7671 26.0837 27.6189 26.0837 27.5977 26.1896L27.5766 26.2107Z" fill="#0565AD"/>
<path d="M19.7017 28.7722C24.0859 28.7722 27.6401 27.0378 27.6401 24.8983C27.6401 22.7588 24.0859 21.0244 19.7017 21.0244C15.3175 21.0244 11.7634 22.7588 11.7634 24.8983C11.7634 27.0378 15.3175 28.7722 19.7017 28.7722Z" fill="#FFB800"/>
<path d="M27.5766 24.8992C27.5766 25.873 26.8357 26.6351 26.0736 27.1219C24.9728 27.8417 23.6815 28.2227 22.4114 28.4556C20.8449 28.7308 19.2361 28.7519 17.6484 28.5403C16.2936 28.3709 14.9388 28.011 13.7533 27.3336C12.9489 26.8679 12.081 26.1693 11.9116 25.2167C11.7423 24.2642 12.3562 23.4597 13.0548 22.9093C14.0497 22.1261 15.2987 21.7027 16.5264 21.4487C18.0506 21.11 19.6594 21.0465 21.2048 21.1735C22.6231 21.3005 24.0626 21.618 25.3327 22.2531C26.2006 22.6765 27.1532 23.3327 27.4919 24.2853C27.5554 24.4758 27.5977 24.6875 27.5977 24.8992C27.5977 25.0051 27.7671 25.0051 27.7671 24.8992C27.7671 23.9466 27.0897 23.1845 26.3488 22.6553C25.248 21.8721 23.872 21.4487 22.5384 21.1947C20.8872 20.8983 19.1937 20.8771 17.5426 21.0888C16.1454 21.2793 14.7271 21.6604 13.4993 22.4013C12.6949 22.8882 11.8905 23.6079 11.7423 24.5817C11.6153 25.5131 12.1445 26.3175 12.8431 26.8891C13.838 27.7147 15.1293 28.1804 16.3783 28.4556C18.0294 28.8366 19.7441 28.9001 21.4164 28.7308C22.8559 28.5826 24.3166 28.2439 25.5867 27.5877C26.4546 27.1431 27.3649 26.4657 27.6824 25.4919C27.7459 25.3014 27.7671 25.0897 27.7671 24.878C27.7671 24.7722 27.6189 24.7722 27.5977 24.878L27.5766 24.8992Z" fill="#0565AD"/>
<path d="M19.2784 24.3486C20.5062 24.7296 21.7129 25.0895 22.9406 25.4705C22.9406 25.5128 22.8983 25.534 22.8771 25.534C22.6019 25.7245 22.3268 25.9362 22.0516 26.1267C21.988 26.1691 21.9457 26.1903 21.8822 26.1691C20.7391 25.8092 19.596 25.4705 18.4529 25.1318C18.3893 25.1318 18.347 25.0895 18.3258 25.026C18.2835 24.9201 18.22 24.8143 18.1565 24.7084C18.093 24.6238 18.1142 24.5603 18.22 24.4967C18.4529 24.3486 18.6857 24.1792 18.8974 23.9887C19.1726 23.7558 19.4055 23.5018 19.5536 23.1631C19.7018 22.8244 19.7442 22.5069 19.6595 22.1893C19.6383 22.0835 19.596 22.0835 19.5113 22.147C18.8551 22.6127 18.1988 23.0996 17.5638 23.5653C17.5003 23.6077 17.4579 23.65 17.3732 23.6923C17.4156 23.396 17.4368 23.1419 17.4579 22.8879C17.4579 22.8244 17.5214 22.8032 17.5638 22.7821C18.093 22.401 18.6222 22.02 19.1514 21.639C19.1938 21.6178 19.2361 21.5966 19.2361 21.5543C19.2361 21.5119 19.1938 21.5119 19.1514 21.4908C18.8127 21.3214 18.474 21.4273 18.1142 21.6178C17.6908 21.8506 17.3097 22.147 16.9287 22.4222C16.8864 22.4434 16.844 22.4857 16.7805 22.528C16.8229 22.2528 16.844 21.9777 16.8652 21.7236C16.8652 21.6813 16.9075 21.6601 16.9287 21.639C18.1565 20.7499 19.3843 19.8608 20.6121 18.9717C20.6544 18.9717 20.6121 19.0352 20.6121 19.0564C20.5909 19.268 20.5697 19.4586 20.5486 19.6703C20.5486 19.7549 20.5062 19.8184 20.4216 19.8819C20.1252 20.0936 19.85 20.3053 19.5325 20.517C19.6171 20.5593 19.7018 20.5805 19.7865 20.6228C19.8923 20.6864 19.977 20.7499 20.0617 20.8345C20.104 20.898 20.1464 20.8769 20.2099 20.8345C20.5274 20.6017 20.8661 20.3688 21.2048 20.1148C21.2048 20.2841 21.1413 20.4535 21.1625 20.6017C21.1625 20.8557 21.0566 21.0462 20.8238 21.1732C20.6968 21.2367 20.5909 21.3426 20.4851 21.4061C20.4427 21.4484 20.4216 21.4696 20.4216 21.5331C20.6121 22.2105 20.4216 22.8667 19.977 23.5018C19.7865 23.777 19.5536 24.031 19.2996 24.2427C19.2784 24.2427 19.2573 24.2851 19.2361 24.3062C19.2361 24.3062 19.2361 24.3062 19.2361 24.3486H19.2784Z" fill="white"/>
<path d="M19.7017 28.1589C24.0859 28.1589 27.6401 26.4245 27.6401 24.285C27.6401 22.1455 24.0859 20.4111 19.7017 20.4111C15.3175 20.4111 11.7634 22.1455 11.7634 24.285C11.7634 26.4245 15.3175 28.1589 19.7017 28.1589Z" fill="#C78700"/>
<path d="M27.5766 24.285C27.5766 25.2587 26.8357 26.0208 26.0736 26.5077C24.9728 27.2274 23.6815 27.6085 22.4114 27.8413C20.8449 28.1165 19.2361 28.1377 17.6484 27.926C16.2936 27.7566 14.9388 27.3968 13.7533 26.7194C12.9489 26.2537 12.081 25.5551 11.9116 24.6025C11.7423 23.6499 12.3562 22.8455 13.0548 22.2951C14.0497 21.5118 15.2987 21.0885 16.5264 20.8344C18.0506 20.4957 19.6594 20.4322 21.2048 20.5592C22.6231 20.6863 24.0626 21.0038 25.3327 21.6389C26.2006 22.0622 27.1532 22.7185 27.4919 23.6711C27.5554 23.8616 27.5977 24.0733 27.5977 24.285C27.5977 24.3908 27.7671 24.3908 27.7671 24.285C27.7671 23.3324 27.0897 22.5703 26.3488 22.0411C25.248 21.2578 23.872 20.8344 22.5384 20.5804C20.8872 20.284 19.1937 20.2629 17.5426 20.4746C16.1454 20.6651 14.7271 21.0461 13.4993 21.787C12.6949 22.2739 11.8905 22.9937 11.7423 23.9674C11.6153 24.8989 12.1445 25.7033 12.8431 26.2748C13.838 27.1004 15.1293 27.5661 16.3783 27.8413C18.0294 28.2224 19.7441 28.2859 21.4164 28.1165C22.8559 27.9683 24.3166 27.6296 25.5867 26.9734C26.4546 26.5289 27.3649 25.8515 27.6824 24.8777C27.7459 24.6872 27.7671 24.4755 27.7671 24.2638C27.7671 24.1579 27.6189 24.1579 27.5977 24.2638L27.5766 24.285Z" fill="#0565AD"/>
<path d="M19.7017 26.8464C24.0859 26.8464 27.6401 25.112 27.6401 22.9725C27.6401 20.833 24.0859 19.0986 19.7017 19.0986C15.3175 19.0986 11.7634 20.833 11.7634 22.9725C11.7634 25.112 15.3175 26.8464 19.7017 26.8464Z" fill="#FFB800"/>
<path d="M27.5766 22.9725C27.5766 23.9462 26.8357 24.7083 26.0736 25.1952C24.9728 25.9149 23.6815 26.296 22.4114 26.5288C20.8449 26.804 19.2361 26.8252 17.6484 26.6135C16.2936 26.4441 14.9388 26.0843 13.7533 25.4069C12.9489 24.9412 12.081 24.2426 11.9116 23.29C11.7423 22.3374 12.3562 21.533 13.0548 20.9826C14.0497 20.1993 15.2987 19.776 16.5264 19.5219C18.0506 19.1832 19.6594 19.1197 21.2048 19.2467C22.6231 19.3738 24.0626 19.6913 25.3327 20.3264C26.2006 20.7497 27.1532 21.406 27.4919 22.3586C27.5554 22.5491 27.5977 22.7608 27.5977 22.9725C27.5977 23.0783 27.7671 23.0783 27.7671 22.9725C27.7671 22.0199 27.0897 21.2578 26.3488 20.7286C25.248 19.9453 23.872 19.5219 22.5384 19.2679C20.8872 18.9715 19.1937 18.9504 17.5426 19.1621C16.1454 19.3526 14.7271 19.7336 13.4993 20.4745C12.6949 20.9614 11.8905 21.6812 11.7423 22.6549C11.6153 23.5864 12.1445 24.3908 12.8431 24.9623C13.838 25.7879 15.1293 26.2536 16.3783 26.5288C18.0294 26.9099 19.7441 26.9734 21.4164 26.804C22.8559 26.6558 24.3166 26.3171 25.5867 25.6609C26.4546 25.2164 27.3649 24.539 27.6824 23.5652C27.7459 23.3747 27.7671 23.163 27.7671 22.9513C27.7671 22.8454 27.6189 22.8454 27.5977 22.9513L27.5766 22.9725Z" fill="#0565AD"/>
<path d="M19.2784 22.0195C20.5062 22.4005 21.7129 22.7604 22.9406 23.1414C22.9406 23.1837 22.8983 23.2049 22.8771 23.2049C22.6019 23.3954 22.3268 23.6071 22.0516 23.7976C21.988 23.84 21.9457 23.8612 21.8822 23.84C20.7391 23.4801 19.596 23.1414 18.4529 22.8027C18.3893 22.8027 18.347 22.7604 18.3258 22.6969C18.2835 22.591 18.22 22.4852 18.1565 22.3793C18.093 22.2947 18.1142 22.2312 18.22 22.1676C18.4529 22.0195 18.6857 21.8501 18.8974 21.6596C19.1726 21.4267 19.4055 21.1727 19.5536 20.834C19.7018 20.4953 19.7442 20.1778 19.6595 19.8602C19.6383 19.7544 19.596 19.7544 19.5113 19.8179C18.8551 20.2836 18.1988 20.7705 17.5638 21.2362C17.5003 21.2786 17.4579 21.3209 17.3732 21.3632C17.4156 21.0669 17.4368 20.8128 17.4579 20.5588C17.4579 20.4953 17.5214 20.4741 17.5638 20.453C18.093 20.0719 18.6222 19.6909 19.1514 19.3099C19.1938 19.2887 19.2361 19.2675 19.2361 19.2252C19.2361 19.1828 19.1938 19.1828 19.1514 19.1617C18.8127 18.9923 18.474 19.0982 18.1142 19.2887C17.6908 19.5215 17.3097 19.8179 16.9287 20.0931C16.8864 20.1143 16.844 20.1566 16.7805 20.1989C16.8229 19.9237 16.844 19.6486 16.8652 19.3945C16.8652 19.3522 16.9075 19.331 16.9287 19.3099C18.1565 18.4208 19.3843 17.5317 20.6121 16.6426C20.6544 16.6426 20.6121 16.7061 20.6121 16.7273C20.5909 16.9389 20.5697 17.1295 20.5486 17.3411C20.5486 17.4258 20.5062 17.4893 20.4216 17.5528C20.1252 17.7645 19.85 17.9762 19.5325 18.1879C19.6171 18.2302 19.7018 18.2514 19.7865 18.2937C19.8923 18.3573 19.977 18.4208 20.0617 18.5054C20.104 18.5689 20.1464 18.5478 20.2099 18.5054C20.5274 18.2726 20.8661 18.0397 21.2048 17.7857C21.2048 17.955 21.1413 18.1244 21.1625 18.2726C21.1625 18.5266 21.0566 18.7171 20.8238 18.8441C20.6968 18.9076 20.5909 19.0135 20.4851 19.077C20.4427 19.1193 20.4216 19.1405 20.4216 19.204C20.6121 19.8814 20.4216 20.5376 19.977 21.1727C19.7865 21.4479 19.5536 21.7019 19.2996 21.9136C19.2784 21.9136 19.2573 21.956 19.2361 21.9771C19.2361 21.9771 19.2361 21.9771 19.2361 22.0195H19.2784Z" fill="white"/>
<path d="M19.7017 26.2322C24.0859 26.2322 27.6401 24.4978 27.6401 22.3583C27.6401 20.2188 24.0859 18.4844 19.7017 18.4844C15.3175 18.4844 11.7634 20.2188 11.7634 22.3583C11.7634 24.4978 15.3175 26.2322 19.7017 26.2322Z" fill="#C78700"/>
<path d="M27.5766 22.3582C27.5766 23.332 26.8357 24.094 26.0736 24.5809C24.9728 25.3007 23.6815 25.6817 22.4114 25.9146C20.8449 26.1898 19.2361 26.2109 17.6484 25.9992C16.2936 25.8299 14.9388 25.47 13.7533 24.7926C12.9489 24.3269 12.081 23.6283 11.9116 22.6757C11.7423 21.7231 12.3562 20.9187 13.0548 20.3683C14.0497 19.5851 15.2987 19.1617 16.5264 18.9077C18.0506 18.569 19.6594 18.5055 21.2048 18.6325C22.6231 18.7595 24.0626 19.077 25.3327 19.7121C26.2006 20.1355 27.1532 20.7917 27.4919 21.7443C27.5554 21.9348 27.5977 22.1465 27.5977 22.3582C27.5977 22.464 27.7671 22.464 27.7671 22.3582C27.7671 21.4056 27.0897 20.6435 26.3488 20.1143C25.248 19.3311 23.872 18.9077 22.5384 18.6537C20.8872 18.3573 19.1937 18.3361 17.5426 18.5478C16.1454 18.7383 14.7271 19.1194 13.4993 19.8603C12.6949 20.3472 11.8905 21.0669 11.7423 22.0407C11.6153 22.9721 12.1445 23.7765 12.8431 24.3481C13.838 25.1737 15.1293 25.6394 16.3783 25.9146C18.0294 26.2956 19.7441 26.3591 21.4164 26.1898C22.8559 26.0416 24.3166 25.7029 25.5867 25.0466C26.4546 24.6021 27.3649 23.9247 27.6824 22.9509C27.7459 22.7604 27.7671 22.5487 27.7671 22.337C27.7671 22.2312 27.6189 22.2312 27.5977 22.337L27.5766 22.3582Z" fill="#0565AD"/>
<path d="M19.7017 24.9197C24.0859 24.9197 27.6401 23.1853 27.6401 21.0458C27.6401 18.9063 24.0859 17.1719 19.7017 17.1719C15.3175 17.1719 11.7634 18.9063 11.7634 21.0458C11.7634 23.1853 15.3175 24.9197 19.7017 24.9197Z" fill="#FFB800"/>
<path d="M27.5766 21.0457C27.5766 22.0195 26.8357 22.7815 26.0736 23.2684C24.9728 23.9882 23.6815 24.3692 22.4114 24.6021C20.8449 24.8773 19.2361 24.8984 17.6484 24.6867C16.2936 24.5174 14.9388 24.1575 13.7533 23.4801C12.9489 23.0144 12.081 22.3158 11.9116 21.3632C11.7423 20.4106 12.3562 19.6062 13.0548 19.0558C14.0497 18.2726 15.2987 17.8492 16.5264 17.5952C18.0506 17.2565 19.6594 17.193 21.2048 17.32C22.6231 17.447 24.0626 17.7645 25.3327 18.3996C26.2006 18.823 27.1532 19.4792 27.4919 20.4318C27.5554 20.6223 27.5977 20.834 27.5977 21.0457C27.5977 21.1515 27.7671 21.1515 27.7671 21.0457C27.7671 20.0931 27.0897 19.331 26.3488 18.8018C25.248 18.0186 23.872 17.5952 22.5384 17.3412C20.8872 17.0448 19.1937 17.0236 17.5426 17.2353C16.1454 17.4258 14.7271 17.8069 13.4993 18.5478C12.6949 19.0347 11.8905 19.7544 11.7423 20.7282C11.6153 21.6596 12.1445 22.464 12.8431 23.0356C13.838 23.8612 15.1293 24.3269 16.3783 24.6021C18.0294 24.9831 19.7441 25.0466 21.4164 24.8773C22.8559 24.7291 24.3166 24.3904 25.5867 23.7341C26.4546 23.2896 27.3649 22.6122 27.6824 21.6384C27.7459 21.4479 27.7671 21.2362 27.7671 21.0245C27.7671 20.9187 27.6189 20.9187 27.5977 21.0245L27.5766 21.0457Z" fill="#0565AD"/>
<path d="M25.9254 18.8442C25.2903 20.4318 24.0837 21.8078 22.4325 22.5911C18.9397 24.2634 14.7271 22.8027 13.0547 19.2887C13.0124 19.1829 12.9701 19.0982 12.9277 18.9924C13.7745 18.4208 14.8541 17.8281 16.2301 17.4259C20.8025 16.1134 24.8034 18.1879 25.9254 18.823V18.8442Z" fill="#223838"/>
<path d="M20.104 23.2895C23.9855 23.2895 27.132 20.1429 27.132 16.2614C27.132 12.38 23.9855 9.2334 20.104 9.2334C16.2225 9.2334 13.0759 12.38 13.0759 16.2614C13.0759 20.1429 16.2225 23.2895 20.104 23.2895Z" fill="#C78700"/>
<path d="M26.3699 13.1926C27.5977 15.8175 27.0897 18.9929 25.0575 21.0674C23.0252 23.142 19.8076 23.7347 17.1615 22.4857C14.5154 21.2368 12.9065 18.4213 13.1817 15.5212C13.4569 12.621 15.5738 10.1655 18.3893 9.46689C21.2047 8.76832 24.2107 9.89027 25.8195 12.2823C26.0312 12.5787 26.2006 12.8962 26.3487 13.2138C26.3911 13.2985 26.5393 13.2138 26.4758 13.1291C25.2056 10.4407 22.3267 8.81066 19.363 9.12819C16.3994 9.44572 13.9015 11.6261 13.2029 14.5051C12.5043 17.384 13.711 20.4959 16.2089 22.1259C18.7068 23.7559 22.0726 23.6288 24.4436 21.8083C26.8145 19.9878 27.7671 16.8972 26.9203 14.1029C26.8145 13.7642 26.6875 13.4255 26.5181 13.0868C26.4758 13.0021 26.3276 13.0868 26.3911 13.1714L26.3699 13.1926Z" fill="#0565AD"/>
<path d="M20.9084 23.0786C24.7899 23.0786 27.9365 19.932 27.9365 16.0505C27.9365 12.169 24.7899 9.02246 20.9084 9.02246C17.0269 9.02246 13.8804 12.169 13.8804 16.0505C13.8804 19.932 17.0269 23.0786 20.9084 23.0786Z" fill="#FFB800"/>
<path d="M27.1744 12.9807C28.4022 15.6056 27.8941 18.781 25.8619 20.8555C23.8297 22.93 20.612 23.5228 17.9659 22.2738C15.3198 21.0248 13.711 18.2094 13.9862 15.3093C14.2614 12.4091 16.3783 9.95355 19.1937 9.25498C21.988 8.53524 25.0151 9.67836 26.624 12.0704C26.8357 12.3668 27.005 12.6843 27.1532 13.0019C27.1955 13.0865 27.3437 13.0019 27.2802 12.9172C26.0101 10.2287 23.1311 8.59874 20.1675 8.91628C17.2038 9.23381 14.7059 11.4142 14.0073 14.2932C13.3088 17.1721 14.5154 20.2839 17.0133 21.9139C19.5112 23.5439 22.8771 23.4169 25.248 21.5964C27.6189 19.7759 28.5715 16.6852 27.7248 13.891C27.6189 13.5523 27.4919 13.2136 27.3225 12.8748C27.2802 12.7902 27.132 12.8748 27.1955 12.9595L27.1744 12.9807Z" fill="#0565AD"/>
<path d="M20.0616 16.4945C21.2894 17.1719 22.5172 17.8493 23.745 18.5479C23.745 18.5902 23.7027 18.5902 23.6815 18.6114C23.3851 18.7384 23.0888 18.8442 22.7924 18.9712C22.7289 18.9924 22.6865 18.9924 22.623 18.9712C21.4799 18.3362 20.3368 17.7011 19.1725 17.0449C19.109 17.0025 19.0878 16.9814 19.0455 16.9179C19.0032 16.7909 18.9608 16.685 18.8973 16.558C18.8338 16.4522 18.855 16.4098 18.982 16.3675C19.236 16.2828 19.4689 16.177 19.7017 16.0499C19.9981 15.9018 20.2521 15.7112 20.4427 15.4149C20.6332 15.1397 20.6967 14.8222 20.612 14.4835C20.5908 14.3776 20.5485 14.3564 20.4638 14.3988C19.7652 14.6951 19.0667 14.9703 18.3469 15.2667C18.2834 15.2879 18.2199 15.309 18.1352 15.3514C18.1988 15.0762 18.2411 14.8433 18.2834 14.5893C18.2834 14.5258 18.3469 14.5258 18.3893 14.5258C18.9608 14.2929 19.5324 14.0601 20.104 13.8272C20.1463 13.8272 20.1886 13.8272 20.2098 13.7637C20.2098 13.7214 20.1675 13.7002 20.1251 13.679C19.7864 13.4462 19.4265 13.4462 19.0667 13.5309C18.6221 13.6367 18.2199 13.8272 17.7965 13.9966C17.7542 13.9966 17.7119 14.0389 17.6272 14.0601C17.6907 13.7849 17.733 13.552 17.7754 13.298C17.7754 13.2557 17.8177 13.2557 17.8389 13.2345C19.1725 12.6841 20.485 12.1549 21.8186 11.6045C21.861 11.6257 21.8186 11.668 21.8186 11.6892C21.7763 11.8797 21.734 12.0702 21.7128 12.2607C21.7128 12.3454 21.6493 12.3877 21.5646 12.4301C21.2471 12.5571 20.9295 12.6841 20.612 12.8111C20.6967 12.8746 20.7814 12.917 20.866 12.9805C20.9719 13.0651 21.0565 13.1498 21.1201 13.2557C21.1624 13.3192 21.2047 13.3192 21.2894 13.298C21.6493 13.1498 21.988 13.0016 22.369 12.8535C22.3267 13.0228 22.2843 13.171 22.2843 13.3192C22.2843 13.5732 22.1573 13.7214 21.9033 13.7849C21.7763 13.8061 21.6493 13.8907 21.5434 13.9331C21.4799 13.9331 21.4588 13.9754 21.4799 14.0389C21.6281 14.7586 21.3741 15.3302 20.8872 15.8383C20.6755 16.0711 20.4215 16.2405 20.1463 16.3886C20.1251 16.3886 20.104 16.4098 20.0616 16.431C20.0616 16.431 20.0616 16.431 20.0616 16.4522V16.4945Z" fill="white"/>
</g>
<defs>
<clipPath id="clip0_1202_5043">
<rect width="16.3" height="23.2222" fill="white" transform="translate(11.7 8.87402)"/>
</clipPath>
</defs>
</svg>
