<svg width="652" height="652" viewBox="0 0 652 652" fill="none" xmlns="http://www.w3.org/2000/svg">
<rect width="652" height="652" fill="white"/>
<path d="M452.131 468.087H223.36C219.781 468.087 216.266 467.168 213.141 465.42L138.847 423.757C133.646 420.844 135.721 412.946 141.687 412.946H452.131V468.1V468.087Z" fill="#273738"/>
<path d="M552.686 492H435.195C433.353 492 431.551 491.534 429.955 490.628L391.803 469.226C389.132 467.725 390.195 463.672 393.256 463.672L514.028 468.087L552.699 492H552.686Z" fill="#273738"/>
<path d="M132.596 377.42L136.292 385.447C136.409 385.693 136.603 385.887 136.85 386.004L144.89 389.694C145.772 390.095 145.772 391.351 144.89 391.752L136.85 395.442C136.603 395.559 136.409 395.753 136.292 395.999L132.596 404.026C132.194 404.906 130.936 404.906 130.534 404.026L126.838 395.999C126.721 395.753 126.527 395.559 126.281 395.442L118.24 391.752C117.358 391.351 117.358 390.095 118.24 389.694L126.281 386.004C126.527 385.887 126.721 385.693 126.838 385.447L130.534 377.42C130.936 376.54 132.194 376.54 132.596 377.42Z" fill="white"/>
<path d="M132.181 377.666L135.566 385.007C135.942 385.823 136.331 386.289 137.161 386.677L141.349 388.593L143.476 389.577C143.788 389.72 144.397 389.862 144.63 390.108C145.824 391.338 142.789 392.179 142.27 392.425L137.602 394.562C136.811 394.924 136.201 395.157 135.773 395.973C135.099 397.229 134.567 398.588 133.971 399.883L132.972 402.045C132.765 402.511 132.57 403.236 132.246 403.637C131.092 405.023 130.391 402.55 130.119 401.941L127.979 397.293C127.603 396.478 127.331 395.481 126.501 395.015C125.399 394.393 124.154 393.94 123 393.409C121.677 392.801 120.173 392.309 118.928 391.545C118.5 391.286 117.488 391.118 118.539 390.108C118.824 389.836 119.485 389.668 119.848 389.512L124.997 387.143C125.943 386.703 126.864 386.457 127.37 385.486C128.109 384.062 128.719 382.56 129.393 381.097L130.508 378.676C130.651 378.365 131.351 376.358 132.181 377.679C132.518 378.21 133.361 377.718 133.024 377.187C132.142 375.802 130.625 376.203 129.976 377.511C129.224 379.038 128.55 380.605 127.837 382.159C127.396 383.104 126.955 384.955 126.034 385.602C124.958 386.353 123.453 386.794 122.273 387.337C120.912 387.959 119.394 388.49 118.098 389.253C116.801 390.017 116.827 391.48 118.098 392.231C119.368 392.982 120.912 393.526 122.273 394.147C123.453 394.691 124.971 395.131 126.034 395.882C126.955 396.53 127.396 398.368 127.837 399.326C128.55 400.867 129.224 402.446 129.976 403.974C130.612 405.269 132.168 405.696 133.024 404.298C133.685 403.21 134.126 401.916 134.645 400.763C135.293 399.352 135.825 397.734 136.642 396.413C137.187 395.533 138.574 395.209 139.469 394.795L144.436 392.516C145.512 392.024 146.666 391.027 145.681 389.758C145.344 389.331 144.773 389.15 144.293 388.917L141.596 387.674C140.182 387.027 138.393 386.509 137.109 385.615C136.642 385.292 136.486 384.722 136.266 384.23L134.982 381.459L133.024 377.213C132.765 376.643 131.922 377.135 132.181 377.705V377.666Z" fill="#2B63A8"/>
<path d="M132.168 377.666L135.553 385.007C135.929 385.823 136.331 386.302 137.161 386.677L141.349 388.593L143.476 389.577C143.787 389.72 144.397 389.862 144.63 390.108C145.785 391.325 142.789 392.154 142.27 392.4L137.602 394.536C136.811 394.898 136.201 395.144 135.76 395.947C135.086 397.203 134.554 398.562 133.958 399.857L132.959 402.019C132.752 402.485 132.557 403.21 132.233 403.612C131.092 404.971 130.404 402.511 130.132 401.916L127.992 397.268C127.616 396.452 127.344 395.455 126.514 394.976C125.412 394.355 124.167 393.901 123.013 393.371C121.69 392.762 120.185 392.27 118.941 391.506C118.526 391.247 117.527 391.092 118.551 390.095C118.837 389.823 119.511 389.655 119.861 389.5L125.01 387.13C125.956 386.69 126.877 386.431 127.383 385.46C128.122 384.036 128.731 382.534 129.406 381.071L130.521 378.65C130.625 378.43 130.716 378.067 130.871 377.886C131.092 377.614 131.144 376.035 132.168 377.666C132.505 378.21 133.374 377.705 133.037 377.161C132.155 375.763 130.612 376.164 129.963 377.485C129.211 379.013 128.537 380.579 127.824 382.133C127.383 383.078 126.942 384.929 126.034 385.564C124.958 386.315 123.453 386.755 122.273 387.299C120.912 387.92 119.394 388.451 118.098 389.215C116.801 389.979 116.814 391.467 118.098 392.218C119.394 392.982 120.912 393.513 122.273 394.134C123.453 394.678 124.971 395.118 126.034 395.869C126.955 396.504 127.396 398.355 127.824 399.3C128.537 400.841 129.211 402.42 129.963 403.948C130.612 405.256 132.168 405.683 133.037 404.272C133.698 403.184 134.139 401.89 134.658 400.737C135.306 399.326 135.838 397.708 136.655 396.387C137.2 395.52 138.587 395.183 139.469 394.782L144.436 392.503C145.525 392.011 146.679 390.988 145.681 389.72C145.344 389.279 144.773 389.111 144.293 388.878L141.596 387.635C140.182 386.988 138.38 386.47 137.109 385.577C136.642 385.253 136.486 384.696 136.266 384.204L134.982 381.434L133.024 377.187C132.752 376.604 131.883 377.109 132.155 377.692L132.168 377.666Z" fill="white"/>
<path d="M131.74 377.912L134.217 383.285C134.788 384.528 135.229 386.03 136.422 386.832C137.809 387.752 139.573 388.321 141.077 389.02C141.79 389.344 142.491 389.694 143.204 390.004C144.008 390.341 144.708 390.665 143.697 391.273C142.893 391.739 141.907 392.024 141.064 392.413C139.495 393.125 137.524 393.72 136.149 394.756C135.177 395.494 134.775 396.802 134.295 397.876C133.608 399.43 132.881 400.97 132.22 402.537C132.155 402.705 131.792 403.534 131.403 403.43C131.234 403.392 131.014 402.822 130.949 402.679C130.793 402.356 130.677 402.006 130.534 401.67C129.769 399.896 128.913 398.148 128.122 396.387C127.616 395.248 127.02 394.665 125.891 394.122C124.219 393.306 122.455 392.659 120.756 391.895C120.341 391.713 119.278 391.364 118.992 390.988C118.487 390.341 119.563 390.147 120.095 389.914C121.949 389.111 123.765 388.218 125.593 387.389C126.825 386.832 127.5 386.302 128.122 385.059C128.965 383.35 129.691 381.589 130.482 379.867C130.755 379.284 131.027 378.715 131.286 378.132C131.325 378.042 131.39 377.821 131.442 377.77C131.779 377.381 131.234 377.083 131.74 377.912C132.103 378.495 132.946 378.521 133.374 378.003C133.893 377.368 133.335 376.591 132.778 376.19C132.025 375.646 131.066 375.724 130.327 376.255C129.224 377.07 128.757 378.831 128.226 380.009C127.629 381.33 127.149 382.728 126.514 384.036C125.749 385.641 123.985 386.017 122.468 386.664C121.041 387.26 119.563 387.816 118.214 388.567C115.867 389.875 116.464 391.972 118.616 393.06C119.978 393.746 121.43 394.329 122.844 394.911C123.583 395.222 124.348 395.481 125.062 395.856C126.034 396.387 126.41 397.086 126.799 398.083C127.305 399.365 127.85 400.608 128.42 401.864C128.952 403.042 129.432 404.777 130.703 405.398C133.4 406.693 134.528 402.175 135.229 400.543C136.046 398.653 136.512 396.504 138.561 395.636C140.286 394.924 141.972 394.134 143.658 393.358C144.76 392.853 146.42 392.218 146.511 390.768C146.602 389.318 145.136 388.736 144.047 388.231C142.335 387.454 140.584 386.768 138.86 385.991C137.589 385.408 136.992 384.735 136.422 383.479C135.994 382.547 135.566 381.628 135.138 380.696L133.828 377.86C133.62 377.407 133.452 376.695 132.92 376.488C132.038 376.125 131.507 377.058 131.636 377.796C131.74 378.404 132.674 378.145 132.57 377.537C132.687 378.223 133.335 379.116 133.633 379.763L134.723 382.12C135.267 383.298 135.695 385.046 136.707 385.9C137.667 386.716 139.041 387.104 140.182 387.57C141.012 387.907 141.829 388.282 142.646 388.658C143.295 388.956 144.202 389.176 144.747 389.616C146.511 391.066 144.669 391.817 143.645 392.283C142.815 392.671 141.985 393.047 141.155 393.422C139.845 394.018 138.341 394.471 137.122 395.235C136.046 395.908 135.592 397.138 135.112 398.265C134.476 399.74 133.88 401.242 133.218 402.705C132.842 403.534 132.22 405.049 131.04 404.479C130.327 404.129 129.976 402.951 129.665 402.291C129.004 400.867 128.342 399.443 127.785 397.98C127.435 397.073 127.085 396.128 126.319 395.494C125.412 394.743 124.154 394.393 123.077 393.953C121.625 393.358 120.004 392.814 118.668 391.985C115.867 390.263 119.576 388.917 121.067 388.283C123.026 387.454 126.047 386.807 127.162 384.813C127.759 383.751 128.096 382.521 128.602 381.408C128.913 380.709 129.224 380.009 129.548 379.31C129.886 378.572 130.236 377.291 131.027 376.889C131.455 376.669 132.881 377.278 131.87 376.617C131.662 376.488 131.442 376.371 131.182 376.449C130.664 376.591 130.56 377.2 130.378 377.614C129.795 378.974 129.121 380.32 128.511 381.68C127.902 383.039 127.357 385.227 126.034 386.043C124.711 386.858 123.233 387.337 121.871 387.959C120.73 388.477 119.07 388.878 118.124 389.707C116.282 391.325 119.485 392.387 120.613 392.866C122.04 393.474 123.479 394.057 124.893 394.704C125.645 395.041 126.345 395.339 126.825 396.038C127.201 396.581 127.422 397.319 127.694 397.928C128.368 399.391 129.082 400.841 129.704 402.317C129.976 402.964 130.21 403.78 130.806 404.194C132.544 405.411 133.452 401.864 133.893 400.919C134.619 399.352 135.19 397.617 136.084 396.154C136.901 394.808 139.184 394.251 140.545 393.63C141.635 393.125 142.802 392.723 143.878 392.18C144.475 391.882 145.266 391.403 145.292 390.639C145.305 389.758 144.462 389.448 143.787 389.176C142.063 388.464 140.39 387.635 138.704 386.858C137.835 386.457 136.798 386.146 136.214 385.344C135.773 384.722 135.514 383.945 135.203 383.259L132.505 377.394C132.246 376.825 131.403 377.316 131.662 377.886L131.74 377.912Z" fill="#2B63A8"/>
<path d="M313.294 162.605L316.99 170.632C317.107 170.878 317.301 171.073 317.548 171.189L325.588 174.879C326.47 175.28 326.47 176.536 325.588 176.938L317.548 180.627C317.301 180.744 317.107 180.938 316.99 181.184L313.294 189.211C312.892 190.092 311.634 190.092 311.232 189.211L307.536 181.184C307.42 180.938 307.225 180.744 306.979 180.627L298.938 176.938C298.057 176.536 298.057 175.28 298.938 174.879L306.979 171.189C307.225 171.073 307.42 170.878 307.536 170.632L311.232 162.605C311.634 161.725 312.892 161.725 313.294 162.605Z" fill="white"/>
<path d="M312.879 162.851L316.264 170.192C316.64 171.008 317.029 171.474 317.859 171.862L322.048 173.778L324.174 174.762C324.486 174.905 325.095 175.047 325.329 175.293C326.522 176.523 323.487 177.365 322.968 177.611L318.3 179.747C317.509 180.11 316.899 180.343 316.471 181.158C315.797 182.414 315.265 183.773 314.669 185.068L313.67 187.23C313.463 187.696 313.268 188.421 312.944 188.823C311.79 190.208 311.089 187.735 310.817 187.127L308.677 182.479C308.301 181.663 308.029 180.666 307.199 180.2C306.097 179.579 304.852 179.126 303.698 178.595C302.375 177.986 300.871 177.494 299.626 176.73C299.198 176.471 298.186 176.303 299.237 175.293C299.522 175.021 300.183 174.853 300.546 174.698L305.695 172.328C306.641 171.888 307.562 171.642 308.068 170.671C308.807 169.247 309.417 167.745 310.091 166.282L311.206 163.861C311.349 163.55 312.049 161.544 312.879 162.864C313.216 163.395 314.059 162.903 313.722 162.372C312.84 160.987 311.323 161.388 310.675 162.696C309.922 164.224 309.248 165.79 308.535 167.344C308.094 168.289 307.653 170.14 306.732 170.788C305.656 171.539 304.152 171.979 302.971 172.523C301.61 173.144 300.093 173.675 298.796 174.439C297.499 175.203 297.525 176.666 298.796 177.417C300.067 178.167 301.61 178.711 302.971 179.333C304.152 179.876 305.669 180.317 306.732 181.068C307.653 181.715 308.094 183.553 308.535 184.511C309.248 186.052 309.922 187.632 310.675 189.159C311.31 190.454 312.866 190.881 313.722 189.483C314.383 188.396 314.824 187.101 315.343 185.949C315.991 184.537 316.523 182.919 317.34 181.598C317.885 180.718 319.272 180.394 320.167 179.98L325.134 177.701C326.21 177.209 327.365 176.213 326.379 174.944C326.042 174.516 325.471 174.335 324.991 174.102L322.294 172.859C320.88 172.212 319.091 171.694 317.807 170.801C317.34 170.477 317.185 169.907 316.964 169.415L315.68 166.645L313.722 162.398C313.463 161.829 312.62 162.32 312.879 162.89V162.851Z" fill="#2B63A8"/>
<path d="M312.866 162.851L316.251 170.192C316.627 171.008 317.029 171.487 317.859 171.862L322.048 173.779L324.174 174.762C324.486 174.905 325.095 175.047 325.329 175.293C326.483 176.51 323.487 177.339 322.968 177.585L318.3 179.721C317.509 180.084 316.899 180.33 316.458 181.132C315.784 182.388 315.252 183.748 314.656 185.042L313.657 187.204C313.45 187.671 313.255 188.396 312.931 188.797C311.79 190.156 311.102 187.696 310.83 187.101L308.69 182.453C308.314 181.637 308.042 180.64 307.212 180.161C306.11 179.54 304.865 179.087 303.711 178.556C302.388 177.947 300.884 177.455 299.639 176.692C299.224 176.433 298.225 176.277 299.25 175.28C299.535 175.008 300.209 174.84 300.559 174.685L305.708 172.316C306.654 171.875 307.575 171.616 308.081 170.645C308.82 169.221 309.43 167.719 310.104 166.256L311.219 163.835C311.323 163.615 311.414 163.253 311.569 163.071C311.79 162.8 311.842 161.22 312.866 162.851C313.203 163.395 314.072 162.89 313.735 162.346C312.853 160.948 311.31 161.35 310.662 162.67C309.909 164.198 309.235 165.764 308.522 167.318C308.081 168.263 307.64 170.115 306.732 170.749C305.656 171.5 304.152 171.94 302.971 172.484C301.61 173.105 300.093 173.636 298.796 174.4C297.499 175.164 297.512 176.653 298.796 177.404C300.093 178.168 301.61 178.698 302.971 179.32C304.152 179.864 305.669 180.304 306.732 181.055C307.653 181.689 308.094 183.54 308.522 184.486C309.235 186.026 309.909 187.606 310.662 189.134C311.31 190.441 312.866 190.868 313.735 189.457C314.396 188.37 314.837 187.075 315.356 185.923C316.004 184.511 316.536 182.893 317.353 181.573C317.898 180.705 319.285 180.368 320.167 179.967L325.134 177.688C326.223 177.197 327.377 176.174 326.379 174.905C326.042 174.465 325.471 174.296 324.991 174.063L322.294 172.82C320.88 172.173 319.078 171.655 317.807 170.762C317.34 170.438 317.185 169.882 316.964 169.39L315.68 166.619L313.722 162.372C313.45 161.79 312.581 162.295 312.853 162.877L312.866 162.851Z" fill="white"/>
<path d="M312.451 163.097L314.928 168.47C315.499 169.713 315.94 171.215 317.133 172.018C318.52 172.937 320.284 173.507 321.788 174.206C322.501 174.529 323.202 174.879 323.915 175.19C324.719 175.526 325.419 175.85 324.408 176.459C323.604 176.925 322.618 177.209 321.775 177.598C320.206 178.31 318.235 178.905 316.86 179.941C315.888 180.679 315.486 181.987 315.006 183.061C314.319 184.615 313.592 186.156 312.931 187.722C312.866 187.891 312.503 188.719 312.114 188.616C311.945 188.577 311.725 188.007 311.66 187.865C311.504 187.541 311.388 187.192 311.245 186.855C310.48 185.081 309.624 183.333 308.833 181.573C308.327 180.433 307.731 179.851 306.603 179.307C304.93 178.491 303.166 177.844 301.467 177.08C301.052 176.899 299.989 176.549 299.703 176.174C299.198 175.526 300.274 175.332 300.806 175.099C302.66 174.296 304.476 173.403 306.304 172.574C307.536 172.018 308.211 171.487 308.833 170.244C309.676 168.535 310.402 166.774 311.193 165.052C311.466 164.47 311.738 163.9 311.997 163.317C312.036 163.227 312.101 163.007 312.153 162.955C312.49 162.567 311.945 162.269 312.451 163.097C312.814 163.68 313.657 163.706 314.085 163.188C314.604 162.554 314.046 161.777 313.489 161.375C312.736 160.832 311.777 160.909 311.038 161.44C309.935 162.256 309.468 164.017 308.937 165.195C308.34 166.515 307.86 167.914 307.225 169.221C306.46 170.827 304.696 171.202 303.179 171.849C301.752 172.445 300.274 173.002 298.925 173.753C296.578 175.06 297.175 177.158 299.327 178.245C300.689 178.931 302.141 179.514 303.555 180.097C304.294 180.407 305.059 180.666 305.773 181.042C306.745 181.573 307.121 182.272 307.51 183.269C308.016 184.55 308.561 185.793 309.131 187.049C309.663 188.227 310.143 189.962 311.414 190.584C314.111 191.878 315.239 187.36 315.94 185.729C316.757 183.838 317.223 181.689 319.272 180.822C320.997 180.11 322.683 179.32 324.369 178.543C325.471 178.038 327.131 177.404 327.222 175.954C327.313 174.504 325.847 173.921 324.758 173.416C323.046 172.639 321.295 171.953 319.571 171.176C318.3 170.594 317.703 169.92 317.133 168.665C316.705 167.732 316.277 166.813 315.849 165.881L314.539 163.046C314.332 162.592 314.163 161.88 313.631 161.673C312.749 161.311 312.218 162.243 312.347 162.981C312.451 163.589 313.385 163.33 313.281 162.722C313.398 163.408 314.046 164.301 314.344 164.949L315.434 167.305C315.978 168.483 316.406 170.231 317.418 171.086C318.378 171.901 319.752 172.29 320.893 172.756C321.723 173.092 322.54 173.468 323.357 173.843C324.006 174.141 324.914 174.361 325.458 174.801C327.222 176.251 325.38 177.002 324.356 177.468C323.526 177.857 322.696 178.232 321.866 178.608C320.556 179.203 319.052 179.656 317.833 180.42C316.757 181.094 316.303 182.323 315.823 183.45C315.187 184.926 314.591 186.428 313.93 187.891C313.553 188.719 312.931 190.234 311.751 189.664C311.038 189.315 310.687 188.137 310.376 187.476C309.715 186.052 309.053 184.628 308.496 183.165C308.146 182.259 307.796 181.314 307.03 180.679C306.123 179.928 304.865 179.579 303.788 179.139C302.336 178.543 300.715 177.999 299.379 177.171C296.578 175.449 300.287 174.102 301.778 173.468C303.737 172.639 306.758 171.992 307.873 169.998C308.47 168.936 308.807 167.706 309.313 166.593C309.624 165.894 309.935 165.195 310.26 164.496C310.597 163.758 310.947 162.476 311.738 162.075C312.166 161.854 313.592 162.463 312.581 161.803C312.373 161.673 312.153 161.557 311.894 161.634C311.375 161.777 311.271 162.385 311.089 162.8C310.506 164.159 309.832 165.505 309.222 166.865C308.613 168.224 308.068 170.412 306.745 171.228C305.422 172.044 303.944 172.523 302.582 173.144C301.441 173.662 299.781 174.063 298.835 174.892C296.993 176.51 300.196 177.572 301.324 178.051C302.751 178.66 304.19 179.242 305.604 179.889C306.356 180.226 307.056 180.524 307.536 181.223C307.912 181.767 308.133 182.505 308.405 183.113C309.079 184.576 309.793 186.026 310.415 187.502C310.687 188.15 310.921 188.965 311.517 189.38C313.255 190.597 314.163 187.049 314.604 186.104C315.33 184.537 315.901 182.803 316.795 181.34C317.612 179.993 319.895 179.436 321.257 178.815C322.346 178.31 323.513 177.909 324.589 177.365C325.186 177.067 325.977 176.588 326.003 175.824C326.016 174.944 325.173 174.633 324.499 174.361C322.774 173.649 321.101 172.82 319.415 172.044C318.546 171.642 317.509 171.332 316.925 170.529C316.484 169.907 316.225 169.131 315.914 168.444L313.216 162.579C312.957 162.01 312.114 162.502 312.373 163.071L312.451 163.097Z" fill="#2B63A8"/>
<path d="M519.254 337.595L522.95 345.623C523.067 345.869 523.261 346.063 523.508 346.179L531.548 349.869C532.43 350.27 532.43 351.526 531.548 351.928L523.508 355.618C523.261 355.734 523.067 355.928 522.95 356.174L519.254 364.201C518.852 365.082 517.594 365.082 517.192 364.201L513.496 356.174C513.38 355.928 513.185 355.734 512.939 355.618L504.898 351.928C504.017 351.526 504.017 350.27 504.898 349.869L512.939 346.179C513.185 346.063 513.38 345.869 513.496 345.623L517.192 337.595C517.594 336.715 518.852 336.715 519.254 337.595Z" fill="white"/>
<path d="M518.826 337.841L522.211 345.182C522.587 345.998 522.976 346.464 523.806 346.852L527.995 348.769L530.121 349.753C530.433 349.895 531.042 350.037 531.276 350.283C532.469 351.513 529.434 352.355 528.915 352.601L524.247 354.737C523.456 355.1 522.846 355.333 522.418 356.148C521.744 357.404 521.212 358.764 520.616 360.058L519.617 362.22C519.41 362.686 519.215 363.412 518.891 363.813C517.737 365.198 517.037 362.725 516.764 362.117L514.624 357.469C514.248 356.653 513.976 355.656 513.146 355.19C512.044 354.569 510.799 354.116 509.645 353.585C508.322 352.976 506.818 352.484 505.573 351.72C505.145 351.462 504.133 351.293 505.184 350.283C505.469 350.011 506.13 349.843 506.493 349.688L511.642 347.319C512.588 346.878 513.509 346.632 514.015 345.661C514.754 344.237 515.364 342.735 516.038 341.272L517.153 338.851C517.296 338.541 517.996 336.534 518.826 337.854C519.163 338.385 520.006 337.893 519.669 337.362C518.787 335.977 517.27 336.378 516.622 337.686C515.869 339.214 515.195 340.78 514.482 342.334C514.041 343.279 513.6 345.131 512.679 345.778C511.603 346.529 510.099 346.969 508.919 347.513C507.557 348.134 506.04 348.665 504.743 349.429C503.446 350.193 503.472 351.656 504.743 352.407C506.014 353.158 507.557 353.701 508.919 354.323C510.099 354.867 511.616 355.307 512.679 356.058C513.6 356.705 514.041 358.544 514.482 359.502C515.195 361.042 515.869 362.622 516.622 364.15C517.257 365.444 518.813 365.871 519.669 364.473C520.33 363.386 520.771 362.091 521.29 360.939C521.939 359.527 522.47 357.909 523.287 356.589C523.832 355.708 525.219 355.384 526.114 354.97L531.081 352.692C532.157 352.2 533.312 351.203 532.326 349.934C531.989 349.507 531.418 349.325 530.938 349.092L528.241 347.849C526.828 347.202 525.038 346.684 523.754 345.791C523.287 345.467 523.132 344.897 522.911 344.406L521.627 341.635L519.669 337.388C519.41 336.819 518.567 337.311 518.826 337.88V337.841Z" fill="#2B63A8"/>
<path d="M518.813 337.841L522.198 345.182C522.574 345.998 522.976 346.477 523.806 346.853L527.995 348.769L530.121 349.753C530.433 349.895 531.042 350.037 531.276 350.283C532.43 351.5 529.434 352.329 528.915 352.575L524.247 354.711C523.456 355.074 522.846 355.32 522.405 356.122C521.731 357.378 521.199 358.738 520.603 360.032L519.604 362.195C519.397 362.661 519.202 363.386 518.878 363.787C517.737 365.146 517.05 362.687 516.777 362.091L514.637 357.443C514.261 356.627 513.989 355.63 513.159 355.151C512.057 354.53 510.812 354.077 509.658 353.546C508.335 352.938 506.831 352.446 505.586 351.682C505.171 351.423 504.172 351.267 505.197 350.27C505.482 349.999 506.156 349.83 506.506 349.675L511.655 347.306C512.601 346.865 513.522 346.607 514.028 345.635C514.767 344.211 515.377 342.71 516.051 341.247L517.166 338.825C517.27 338.605 517.361 338.243 517.516 338.062C517.737 337.79 517.789 336.21 518.813 337.841C519.15 338.385 520.019 337.88 519.682 337.337C518.8 335.938 517.257 336.34 516.609 337.66C515.856 339.188 515.182 340.755 514.469 342.308C514.028 343.253 513.587 345.105 512.679 345.739C511.603 346.49 510.099 346.93 508.919 347.474C507.557 348.095 506.04 348.626 504.743 349.39C503.446 350.154 503.459 351.643 504.743 352.394C506.04 353.158 507.557 353.688 508.919 354.31C510.099 354.854 511.616 355.294 512.679 356.045C513.6 356.679 514.041 358.531 514.469 359.476C515.182 361.016 515.856 362.596 516.609 364.124C517.257 365.431 518.813 365.859 519.682 364.447C520.343 363.36 520.784 362.065 521.303 360.913C521.951 359.502 522.483 357.883 523.3 356.563C523.845 355.695 525.232 355.359 526.114 354.957L531.081 352.679C532.17 352.187 533.325 351.164 532.326 349.895C531.989 349.455 531.418 349.287 530.938 349.053L528.241 347.811C526.828 347.163 525.025 346.645 523.754 345.752C523.287 345.428 523.132 344.872 522.911 344.38L521.627 341.609L519.669 337.362C519.397 336.78 518.528 337.285 518.8 337.867L518.813 337.841Z" fill="white"/>
<path d="M518.398 338.087L520.875 343.46C521.446 344.703 521.887 346.205 523.08 347.008C524.467 347.927 526.231 348.497 527.735 349.196C528.449 349.52 529.149 349.869 529.862 350.18C530.666 350.516 531.366 350.84 530.355 351.449C529.551 351.915 528.565 352.2 527.722 352.588C526.153 353.3 524.182 353.896 522.807 354.931C521.835 355.669 521.433 356.977 520.953 358.052C520.266 359.605 519.539 361.146 518.878 362.712C518.813 362.881 518.45 363.709 518.061 363.606C517.892 363.567 517.672 362.997 517.607 362.855C517.452 362.531 517.335 362.182 517.192 361.845C516.427 360.071 515.571 358.323 514.78 356.563C514.274 355.423 513.678 354.841 512.55 354.297C510.877 353.481 509.113 352.834 507.414 352.07C506.999 351.889 505.936 351.539 505.651 351.164C505.145 350.516 506.221 350.322 506.753 350.089C508.607 349.287 510.423 348.393 512.251 347.565C513.483 347.008 514.158 346.477 514.78 345.234C515.623 343.525 516.349 341.764 517.14 340.042C517.413 339.46 517.685 338.89 517.944 338.308C517.983 338.217 518.048 337.997 518.1 337.945C518.437 337.557 517.892 337.259 518.398 338.087C518.761 338.67 519.604 338.696 520.032 338.178C520.551 337.544 519.993 336.767 519.436 336.366C518.684 335.822 517.724 335.899 516.985 336.43C515.882 337.246 515.416 339.007 514.884 340.185C514.287 341.505 513.808 342.904 513.172 344.211C512.407 345.817 510.643 346.192 509.126 346.84C507.7 347.435 506.221 347.992 504.872 348.743C502.525 350.05 503.122 352.148 505.274 353.235C506.636 353.922 508.089 354.504 509.502 355.087C510.241 355.397 511.006 355.656 511.72 356.032C512.692 356.563 513.068 357.262 513.457 358.259C513.963 359.54 514.508 360.783 515.078 362.039C515.61 363.217 516.09 364.952 517.361 365.574C520.058 366.868 521.186 362.35 521.887 360.719C522.704 358.828 523.171 356.679 525.219 355.812C526.944 355.1 528.63 354.31 530.316 353.533C531.418 353.028 533.078 352.394 533.169 350.944C533.26 349.494 531.794 348.911 530.705 348.406C528.993 347.629 527.242 346.943 525.518 346.166C524.247 345.584 523.65 344.91 523.08 343.655C522.652 342.722 522.224 341.803 521.796 340.871L520.486 338.036C520.279 337.583 520.11 336.87 519.578 336.663C518.696 336.301 518.165 337.233 518.294 337.971C518.398 338.579 519.332 338.321 519.228 337.712C519.345 338.398 519.993 339.292 520.292 339.939L521.381 342.295C521.926 343.473 522.353 345.221 523.365 346.076C524.325 346.891 525.699 347.28 526.841 347.746C527.67 348.082 528.487 348.458 529.304 348.833C529.953 349.131 530.861 349.351 531.405 349.791C533.169 351.242 531.327 351.992 530.303 352.459C529.473 352.847 528.643 353.222 527.813 353.598C526.503 354.193 524.999 354.647 523.78 355.41C522.704 356.084 522.25 357.314 521.77 358.44C521.135 359.916 520.538 361.418 519.877 362.881C519.5 363.709 518.878 365.224 517.698 364.654C516.985 364.305 516.635 363.127 516.323 362.466C515.662 361.042 515.001 359.618 514.443 358.155C514.093 357.249 513.743 356.304 512.978 355.669C512.07 354.918 510.812 354.569 509.736 354.129C508.283 353.533 506.662 352.989 505.326 352.161C502.525 350.439 506.234 349.092 507.725 348.458C509.684 347.629 512.705 346.982 513.82 344.988C514.417 343.927 514.754 342.697 515.26 341.583C515.571 340.884 515.882 340.185 516.207 339.486C516.544 338.748 516.894 337.466 517.685 337.065C518.113 336.845 519.539 337.453 518.528 336.793C518.32 336.663 518.1 336.547 517.841 336.624C517.322 336.767 517.218 337.375 517.037 337.79C516.453 339.149 515.779 340.496 515.169 341.855C514.56 343.214 514.015 345.402 512.692 346.218C511.37 347.034 509.891 347.513 508.529 348.134C507.388 348.652 505.728 349.053 504.782 349.882C502.94 351.5 506.143 352.562 507.272 353.041C508.698 353.65 510.138 354.232 511.551 354.88C512.303 355.216 513.003 355.514 513.483 356.213C513.859 356.757 514.08 357.495 514.352 358.103C515.027 359.566 515.74 361.016 516.362 362.492C516.635 363.14 516.868 363.955 517.465 364.37C519.202 365.587 520.11 362.039 520.551 361.094C521.277 359.528 521.848 357.793 522.743 356.33C523.56 354.983 525.842 354.426 527.204 353.805C528.293 353.3 529.46 352.899 530.536 352.355C531.133 352.057 531.924 351.578 531.95 350.814C531.963 349.934 531.12 349.623 530.446 349.351C528.721 348.639 527.048 347.811 525.362 347.034C524.493 346.632 523.456 346.322 522.872 345.519C522.431 344.898 522.172 344.121 521.861 343.435L519.163 337.57C518.904 337 518.061 337.492 518.32 338.062L518.398 338.087Z" fill="#2B63A8"/>
<path d="M453.233 450.609H215.488C199.408 450.609 185.389 439.539 181.447 423.744L147.004 285.394C142.05 265.468 156.911 246.139 177.18 246.139H415.859C431.395 246.139 444.947 256.833 448.746 272.11L483.41 411.367C488.364 431.292 473.503 450.622 453.233 450.622V450.609Z" fill="#2B63A8"/>
<path d="M455.477 440.756H225.098C209.51 440.756 195.919 430.192 192.107 415.095L158.727 282.998C153.916 263.979 168.323 245.517 187.97 245.517H419.244C434.3 245.517 447.437 255.732 451.119 270.31L484.707 403.275C489.518 422.294 475.111 440.756 455.464 440.756H455.477Z" fill="#B0CDD0"/>
<path d="M455.477 440.277H225.915C216.798 440.277 208.084 437.066 201.535 430.619C197.151 426.295 194.104 420.857 192.561 414.914C192.327 414.008 192.107 413.115 191.873 412.208L187.944 396.646L174.379 342.93L161.878 293.421C161.009 289.99 160.14 286.559 159.271 283.115C156.367 271.528 160.542 259.15 170.165 251.926C175.845 247.654 182.523 245.996 189.526 245.996H415.263C418.232 245.996 421.215 245.906 424.172 246.359C437.049 248.34 447.475 258.011 450.705 270.544C451.522 273.69 452.3 276.862 453.091 280.008L465.359 328.572L479.079 382.91L483.293 399.585C484.733 405.295 485.796 410.875 484.525 416.805C481.595 430.399 469.34 440.148 455.477 440.251C454.854 440.251 454.854 441.222 455.477 441.222C468.99 441.119 481.141 432.147 484.94 419.135C486.471 413.879 486.484 408.35 485.174 403.042C484.94 402.084 484.694 401.139 484.448 400.181L474.06 359.074L459.536 301.577C456.903 291.142 454.31 280.707 451.625 270.285C448.63 258.645 439.604 249.298 427.945 246.139C423.977 245.064 420.009 244.986 415.963 244.986H269.06C251.786 244.986 234.5 244.986 217.226 244.986H189.332C182.225 244.986 175.417 246.721 169.646 251.046C159.738 258.464 155.316 271.165 158.26 283.128C160.776 293.317 163.395 303.48 165.976 313.657L180.423 370.856L190.875 412.221C192.535 418.772 194.934 424.883 199.602 429.984C206.268 437.274 215.722 441.183 225.552 441.196C233.644 441.196 241.736 441.196 249.841 441.196H455.464C456.086 441.196 456.086 440.225 455.464 440.225L455.477 440.277Z" fill="#2B63A8"/>
<path d="M264.236 294.236L213.517 293.11L227.276 314.654L182.679 294.236H127.072C117.799 294.236 109.707 287.854 107.438 278.739L87.5576 198.909C84.6917 187.412 93.2636 176.251 104.974 176.251H242.67C251.631 176.251 259.45 182.427 261.642 191.231L281.639 271.579C284.505 283.076 275.92 294.223 264.223 294.223L264.236 294.236Z" fill="#2B63A8"/>
<path d="M265.532 288.553H211.87L227.276 314.654L185.921 288.553H132.609C123.622 288.553 115.776 282.455 113.572 273.754L94.314 197.523C91.5389 186.544 99.8514 175.902 111.186 175.902H244.628C253.316 175.902 260.89 181.793 263.017 190.208L282.404 266.931C285.179 277.91 276.867 288.553 265.532 288.553Z" fill="#DFFBFF"/>
<path d="M265.532 288.074H211.87C211.507 288.074 211.261 288.488 211.455 288.799L224.955 311.663L226.861 314.887L227.523 314.226L210.249 303.325L187.62 289.045C186.427 288.294 186.012 288.061 184.624 288.061H133.854C128.835 288.061 124.102 286.818 120.211 283.503C114.648 278.778 113.598 271.825 111.925 265.171L104.896 237.374L97.608 208.541L95.3515 199.634C94.6642 196.915 94.0547 194.248 94.3659 191.386C95.2088 183.644 101.615 177.261 109.383 176.459C110.693 176.329 112.029 176.368 113.351 176.368H158.416C169.205 176.368 180.008 176.368 190.797 176.368C200.627 176.368 210.457 176.368 220.287 176.368H240.206C241.58 176.368 242.942 176.368 244.317 176.368C249.75 176.381 254.899 178.543 258.517 182.634C262.679 187.334 263.587 194.403 265.079 200.307L272.25 228.673L279.447 257.144C280.9 262.892 283.48 269.469 281.924 275.399C279.979 282.843 273.171 287.944 265.532 288.048C264.91 288.048 264.91 289.032 265.532 289.019C272.587 288.928 279.045 284.837 281.911 278.338C283.675 274.35 283.727 270.142 282.676 265.973L277.658 246.126L269.721 214.73L264.015 192.124C263.289 189.25 262.472 186.479 260.773 183.968C257.142 178.608 251.06 175.449 244.602 175.384C240.984 175.345 237.366 175.384 233.748 175.384H120.108C116.425 175.384 112.547 175.06 108.877 175.539C102.017 176.42 96.1815 181.353 94.1066 187.942C92.9654 191.581 93.2507 195.232 94.1584 198.87L99.4754 219.895L107.412 251.305L112.781 272.537C113.688 276.15 115.102 279.516 117.631 282.338C121.547 286.701 127.123 289.006 132.946 289.019C140.701 289.045 148.443 289.019 156.198 289.019H183.755C184.43 289.019 185.221 288.902 185.882 289.019C185.726 288.993 185.61 288.915 185.908 289.096C186.206 289.278 186.518 289.472 186.816 289.666L195.997 295.453L221.895 311.792L227.03 315.029C227.445 315.288 227.938 314.77 227.691 314.369L214.192 291.505L212.285 288.281L211.87 289.006H265.532C266.155 289.006 266.155 288.035 265.532 288.035V288.074Z" fill="#2B63A8"/>
<path d="M324.862 334.954C335.497 334.954 344.119 326.845 344.119 316.842C344.119 306.838 335.497 298.729 324.862 298.729C314.226 298.729 305.604 306.838 305.604 316.842C305.604 326.845 314.226 334.954 324.862 334.954Z" fill="white"/>
<path d="M343.627 316.842C343.523 324.545 338.271 331.161 330.983 333.517C323.759 335.848 315.473 333.815 310.415 328.105C305.358 322.396 304.709 314.175 308.729 307.831C312.749 301.487 320.893 298.172 328.389 299.519C336.844 301.046 343.523 308.128 343.627 316.842C343.627 317.463 344.612 317.463 344.599 316.842C344.495 308.853 339.153 301.979 331.657 299.376C324.161 296.774 314.941 298.871 309.585 305.06C304.45 310.99 303.659 319.69 307.886 326.358C312.244 333.232 320.712 336.547 328.648 335.11C337.532 333.491 344.482 325.969 344.599 316.855C344.599 316.233 343.64 316.233 343.627 316.855V316.842Z" fill="#2B63A8"/>
<path d="M363.572 377.692C363.572 358.984 347.452 343.823 327.585 343.823C307.718 343.823 291.598 358.984 291.598 377.692H363.572Z" fill="white"/>
<path d="M364.064 377.692C363.961 363.049 354.066 350.361 340.385 345.519C326.171 340.483 309.443 344.418 299.444 355.825C294.127 361.897 291.157 369.626 291.106 377.692C291.106 377.951 291.326 378.184 291.598 378.184H363.572C364.194 378.184 364.194 377.213 363.572 377.213H291.598L292.091 377.705C292.195 363.269 302.116 350.775 315.68 346.257C329.401 341.687 345.261 345.493 354.909 356.368C360.135 362.259 363.053 369.833 363.105 377.705C363.105 378.326 364.077 378.326 364.077 377.705L364.064 377.692Z" fill="#2B63A8"/>
<path d="M242.35 231.05C242.396 228.226 239.822 225.894 236.599 225.841C233.377 225.789 230.727 228.035 230.68 230.859C230.634 233.683 233.208 236.015 236.431 236.068C239.654 236.121 242.304 233.874 242.35 231.05Z" fill="#2B63A8"/>
<path d="M201.215 230.373C201.261 227.549 198.687 225.217 195.464 225.164C192.242 225.112 189.592 227.358 189.545 230.182C189.499 233.006 192.074 235.338 195.296 235.391C198.519 235.444 201.169 233.197 201.215 230.373Z" fill="#2B63A8"/>
<path d="M160.106 229.696C160.152 226.872 157.577 224.54 154.355 224.487C151.132 224.435 148.482 226.681 148.436 229.505C148.39 232.329 150.964 234.661 154.187 234.714C157.409 234.767 160.059 232.52 160.106 229.696Z" fill="#2B63A8"/>
<path d="M434.546 399.378L470.455 400.181L460.716 384.929L492.28 399.378H531.652C538.214 399.378 543.945 403.897 545.554 410.357L559.624 466.87C561.647 475.014 555.578 482.898 547.291 482.898H449.81C443.468 482.898 437.931 478.522 436.375 472.295L422.213 415.419C420.19 407.276 426.26 399.391 434.546 399.391V399.378Z" fill="#2B63A8"/>
<path d="M433.625 403.392H471.609L460.703 384.916L489.972 403.392H527.722C534.09 403.392 539.64 407.703 541.196 413.866L554.826 467.815C556.784 475.583 550.909 483.118 542.882 483.118H448.422C442.275 483.118 436.906 478.95 435.402 472.994L421.682 418.682C419.724 410.914 425.598 403.379 433.625 403.379V403.392Z" fill="#DFFBFF"/>
<path d="M433.625 403.884H471.609C471.972 403.884 472.219 403.469 472.024 403.159L461.118 384.683L460.457 385.344L488.597 403.107C489.427 403.625 489.791 403.884 490.75 403.884H519.28C524.688 403.884 530.822 403.068 535.477 406.369C540.016 409.58 540.859 414.642 542.117 419.601L552.232 459.646L553.853 466.067C554.294 467.828 554.761 469.524 554.683 471.376C554.45 477.072 549.898 481.94 544.218 482.588C543.258 482.691 542.286 482.665 541.326 482.665H509.671C495.133 482.665 480.583 482.665 466.046 482.665H451.82C450.782 482.665 449.745 482.665 448.707 482.665C445.128 482.652 441.731 481.384 439.189 478.82C435.921 475.506 435.259 470.56 434.157 466.21L429.138 446.362L424.029 426.152C423.031 422.216 421.15 417.465 421.98 413.387C423.108 407.858 427.997 404 433.587 403.896C434.209 403.896 434.209 402.913 433.587 402.925C424.924 403.081 419.244 411.121 421.293 419.342C422.46 424.003 423.64 428.651 424.82 433.312L434.507 471.648C435.013 473.667 435.584 475.609 436.751 477.383C439.331 481.306 443.728 483.585 448.396 483.662C450.912 483.701 453.415 483.662 455.931 483.662H536.554C539.212 483.662 542.013 483.895 544.659 483.533C549.431 482.872 553.49 479.442 555.007 474.897C555.889 472.282 555.734 469.628 555.072 467L545.67 429.777L541.871 414.72C540.146 407.91 534.79 403.042 527.567 402.964C515.584 402.835 503.576 402.964 491.593 402.964C491.1 402.964 490.504 403.055 490.011 402.964C489.829 402.938 490.387 403.107 490.076 402.964C489.855 402.848 489.648 402.692 489.427 402.563L482.995 398.511L464.645 386.936L460.91 384.58C460.495 384.321 460.003 384.839 460.249 385.24L471.155 403.715L471.57 402.99H433.587C432.964 402.99 432.964 403.961 433.587 403.961L433.625 403.884Z" fill="#2B63A8"/>
<path d="M458.271 444.224C458.304 442.222 456.485 440.569 454.208 440.532C451.93 440.494 450.058 442.087 450.025 444.089C449.992 446.091 451.811 447.744 454.089 447.781C456.366 447.818 458.238 446.226 458.271 444.224Z" fill="#2B63A8"/>
<path d="M487.369 444.702C487.402 442.7 485.583 441.047 483.306 441.01C481.028 440.972 479.156 442.565 479.123 444.567C479.09 446.568 480.909 448.222 483.187 448.259C485.464 448.296 487.337 446.704 487.369 444.702Z" fill="#2B63A8"/>
<path d="M516.481 445.167C516.514 443.165 514.694 441.512 512.417 441.474C510.14 441.437 508.267 443.03 508.234 445.032C508.201 447.033 510.021 448.686 512.298 448.724C514.575 448.761 516.448 447.168 516.481 445.167Z" fill="#2B63A8"/>
<path d="M303.101 421.608C310.736 421.608 316.925 415.429 316.925 407.806C316.925 400.184 310.736 394.005 303.101 394.005C295.466 394.005 289.277 400.184 289.277 407.806C289.277 415.429 295.466 421.608 303.101 421.608Z" fill="#2B63A8"/>
<path d="M354.727 421.608C362.362 421.608 368.551 415.429 368.551 407.806C368.551 400.184 362.362 394.005 354.727 394.005C347.092 394.005 340.903 400.184 340.903 407.806C340.903 415.429 347.092 421.608 354.727 421.608Z" fill="#2B63A8"/>
<path d="M301.817 411.729L301.765 411.121C301.623 409.839 302.051 408.454 303.231 407.03C304.294 405.774 304.891 404.855 304.891 403.793C304.891 402.589 304.139 401.786 302.634 401.76C301.778 401.76 300.832 402.045 300.248 402.498L299.678 401.009C300.456 400.44 301.804 400.064 303.062 400.064C305.786 400.064 307.018 401.747 307.018 403.534C307.018 405.139 306.123 406.305 304.982 407.651C303.944 408.881 303.555 409.917 303.633 411.121L303.659 411.729H301.817ZM301.299 415.044C301.299 414.163 301.895 413.555 302.725 413.555C303.555 413.555 304.126 414.163 304.126 415.044C304.126 415.872 303.581 416.507 302.699 416.507C301.869 416.507 301.299 415.872 301.299 415.044Z" fill="white"/>
<path d="M353.418 415.044C353.418 414.189 354.014 413.581 354.818 413.581C355.674 413.581 356.219 414.202 356.219 415.044C356.219 415.885 355.674 416.507 354.818 416.507C353.962 416.507 353.418 415.872 353.418 415.044ZM354.014 411.665L353.677 400.31H355.946L355.609 411.665H354.001H354.014Z" fill="white"/>
<path d="M413.097 309.022C451.507 309.022 482.645 277.935 482.645 239.587C482.645 201.24 451.507 170.153 413.097 170.153C374.687 170.153 343.549 201.24 343.549 239.587C343.549 277.935 374.687 309.022 413.097 309.022Z" fill="#2B63A8"/>
<path d="M343.056 239.587C343.108 254.036 347.569 268.265 355.972 280.046C364.129 291.492 375.697 300.36 388.898 305.215C402.1 310.07 418.012 310.86 432.134 306.885C445.803 303.04 458.148 294.961 467.174 284.008C476.226 273.029 481.763 259.409 482.904 245.232C484.085 230.667 480.622 215.882 473.023 203.375C465.735 191.373 454.802 181.663 441.99 175.863C428.646 169.83 413.525 168.147 399.169 171.034C385.254 173.83 372.351 180.964 362.534 191.192C352.626 201.511 346.026 214.794 343.873 228.932C343.341 232.454 343.069 236.014 343.056 239.575C343.056 240.196 344.029 240.196 344.029 239.575C344.08 225.346 348.451 211.402 356.686 199.776C364.92 188.15 376.254 179.579 389.352 174.801C402.917 169.856 417.96 169.286 431.862 173.209C445.245 176.976 457.305 184.848 466.201 195.516C484.772 217.772 487.249 250.308 472.284 275.114C465.138 286.947 454.452 296.502 441.873 302.276C428.685 308.335 413.629 310.044 399.403 307.183C371.534 301.577 349.423 278.635 344.884 250.631C344.288 246.98 344.016 243.29 344.003 239.587C344.003 238.966 343.03 238.966 343.03 239.587H343.056Z" fill="#2B63A8"/>
<path d="M421.993 307.727C458.971 307.727 488.948 277.8 488.948 240.882C488.948 203.965 458.971 174.037 421.993 174.037C385.015 174.037 355.039 203.965 355.039 240.882C355.039 277.8 385.015 307.727 421.993 307.727Z" fill="#A5C661"/>
<path d="M354.546 240.882C354.598 254.852 358.929 268.602 367.086 279.982C375.243 291.362 386.097 299.48 398.819 304.128C411.541 308.776 426.986 309.514 440.628 305.604C453.765 301.836 465.605 294.016 474.242 283.452C492.06 261.649 494.342 230.123 479.714 206.029C472.66 194.416 462.091 185.029 449.68 179.462C436.829 173.688 422.278 172.095 408.48 174.892C381.247 180.407 359.616 203.013 355.363 230.421C354.831 233.878 354.559 237.374 354.559 240.869C354.559 241.491 355.531 241.491 355.531 240.869C355.583 227.12 359.824 213.642 367.812 202.43C375.619 191.451 386.798 182.958 399.493 178.414C412.189 173.869 427.025 173.261 440.382 177.08C453.233 180.757 464.788 188.37 473.295 198.662C491.074 220.128 493.344 251.408 478.884 275.23C464.477 298.962 435.999 311.443 408.74 305.927C381.96 300.503 360.732 278.441 356.374 251.512C355.804 248.003 355.544 244.443 355.531 240.882C355.531 240.261 354.559 240.261 354.559 240.882H354.546Z" fill="#2B63A8"/>
<path d="M445.841 226.628C445.88 213.966 435.182 203.776 422.304 204.618C411.242 205.343 402.346 214.406 401.802 225.462C401.568 230.369 402.93 234.94 405.433 238.707C408.999 244.067 411.476 250.074 412.319 256.444L412.345 256.651C412.397 257.066 412.76 257.389 413.175 257.389L434.883 257.454C435.311 257.454 435.661 257.143 435.726 256.729L435.882 255.642C436.699 249.66 438.709 243.847 442.094 238.837C444.441 235.354 445.816 231.159 445.829 226.641L445.841 226.628Z" fill="#F7D379"/>
<path d="M446.321 226.628C446.243 215.312 437.697 205.524 426.35 204.23C415.003 202.935 403.915 210.897 401.711 222.226C401.101 225.32 401.153 228.544 401.854 231.612C402.645 235.095 404.421 237.866 406.224 240.882C408.234 244.235 409.816 247.835 410.84 251.615C411.294 253.272 411.411 255.02 411.852 256.677C412.046 257.402 412.41 257.791 413.175 257.894C415.691 258.218 418.466 257.907 420.994 257.92L432.757 257.946C433.509 257.946 434.806 258.192 435.506 257.791C436.206 257.389 436.219 256.509 436.323 255.771C436.634 253.622 437.062 251.499 437.685 249.414C438.333 247.2 439.176 245.038 440.213 242.98C441.134 241.154 442.314 239.51 443.326 237.736C445.271 234.344 446.243 230.525 446.295 226.628C446.295 226.006 445.336 226.006 445.323 226.628C445.271 230.175 444.441 233.645 442.742 236.778C441.199 239.6 439.383 242.151 438.151 245.155C436.919 248.158 435.973 251.589 435.48 254.943C435.311 256.056 435.441 256.962 434.157 256.962L414.99 256.91C414.433 256.91 413.421 257.118 412.993 256.729C412.63 256.406 412.682 255.655 412.617 255.201C412.5 254.463 412.358 253.713 412.189 252.988C411.8 251.253 411.281 249.531 410.659 247.861C409.531 244.818 408.065 241.905 406.315 239.173C404.564 236.441 403.085 233.399 402.528 230.02C400.622 218.381 408.934 207.013 420.618 205.278C433.574 203.349 445.232 213.668 445.336 226.615C445.336 227.236 446.308 227.236 446.308 226.615L446.321 226.628Z" fill="#2B63A8"/>
<path d="M430.785 271.54L417.234 271.502C415.976 271.502 414.912 270.595 414.705 269.352L413.473 262.05C413.214 260.484 414.42 259.047 416.028 259.047L432.082 259.085C433.677 259.085 434.883 260.536 434.611 262.102L433.34 269.404C433.12 270.634 432.043 271.54 430.798 271.54H430.785Z" fill="white"/>
<path d="M430.785 271.048L420.061 271.023C418.595 271.023 416.235 271.437 415.392 269.909C415.068 269.314 415.042 268.459 414.925 267.799L414.355 264.446C414.044 262.633 413.175 259.642 416.067 259.526C417.454 259.474 418.868 259.526 420.268 259.526C424.133 259.526 428.023 259.422 431.888 259.552C434.948 259.655 433.989 262.762 433.651 264.679L433.003 268.368C432.77 269.676 432.381 270.945 430.772 271.023C430.15 271.061 430.15 272.032 430.772 271.994C433.664 271.838 433.846 269.184 434.235 266.97L434.896 263.151C435.052 262.27 435.246 261.416 434.922 260.549C434.144 258.503 432.16 258.568 430.37 258.568L422.992 258.542H416.598C414.433 258.516 412.669 259.849 413.019 262.206C413.33 264.329 413.732 266.439 414.095 268.563C414.251 269.508 414.407 270.401 415.146 271.1C415.833 271.761 416.702 271.929 417.623 271.942C422.019 271.994 426.415 271.968 430.798 271.981C431.421 271.981 431.421 271.01 430.798 271.01L430.785 271.048Z" fill="#2B63A8"/>
<path d="M413.992 264.717C414.718 264.692 415.483 264.459 416.196 264.316C417.791 263.992 419.386 263.669 420.982 263.345C424.509 262.62 428.036 261.882 431.564 261.131C432.393 260.963 433.21 260.782 434.04 260.613C434.65 260.484 434.391 259.552 433.781 259.681C428.088 260.885 422.382 262.089 416.676 263.242C416.054 263.371 415.418 263.5 414.796 263.617C414.588 263.656 414.381 263.695 414.173 263.733C414.057 263.759 413.901 263.772 413.992 263.759C413.369 263.785 413.369 264.756 413.992 264.73V264.717Z" fill="#2B63A8"/>
<path d="M414.614 269.443C415.561 269.404 416.533 269.094 417.454 268.912C419.451 268.511 421.448 268.097 423.445 267.682C427.038 266.931 430.617 266.181 434.209 265.43C434.819 265.3 434.559 264.368 433.95 264.497C430.435 265.235 426.908 265.973 423.394 266.711C421.435 267.113 419.464 267.527 417.506 267.928C416.819 268.071 416.131 268.2 415.444 268.343C415.237 268.381 415.029 268.42 414.809 268.459C414.679 268.485 414.549 268.498 414.614 268.485C413.992 268.511 413.992 269.482 414.614 269.456V269.443Z" fill="#2B63A8"/>
<path d="M430.993 228.777C430.993 228.777 430.98 228.777 430.967 228.777C430.941 228.777 430.928 228.764 430.889 228.764C429.528 228.777 428.166 228.79 426.791 228.803C426.726 228.803 426.649 228.803 426.584 228.803C426.96 228.233 427.336 227.664 427.712 227.094C428.516 225.877 429.32 224.647 430.124 223.417C430.721 222.524 431.317 221.63 431.914 220.737C432.368 220.051 433.107 219.3 432.808 218.419C432.808 218.394 432.808 218.368 432.796 218.355C432.796 218.355 432.783 218.29 432.757 218.264C432.368 217.694 431.849 217.63 431.2 217.63C430.15 217.63 429.1 217.63 428.049 217.63C427.388 217.63 426.675 217.526 426.117 217.953C425.456 218.458 425.131 219.494 424.755 220.206C423.809 222.019 422.849 223.831 421.889 225.644C421.461 226.459 421.033 227.275 420.605 228.078C420.294 228.673 419.672 229.45 419.814 230.162C419.944 230.836 420.605 230.991 421.293 231.017C421.747 231.03 424.405 231.017 424.509 231.017C422.823 233.762 421.15 236.506 419.503 239.277C418.479 241.012 417.441 242.734 416.482 244.507C416.313 244.805 416.585 245.09 416.897 245.038C417.195 244.986 417.363 244.74 417.584 244.546C417.999 244.158 418.414 243.757 418.816 243.368C419.646 242.578 420.463 241.789 421.293 240.999C422.94 239.419 424.587 237.84 426.247 236.273C427.868 234.733 429.489 233.179 431.097 231.638C431.576 231.172 432.29 230.667 432.238 229.903C432.186 229.217 431.576 228.881 430.967 228.777H430.993Z" fill="#2B63A8"/>
</svg>
