<svg width="40" height="40" viewBox="0 0 40 40" fill="none" xmlns="http://www.w3.org/2000/svg">
<rect width="40" height="40" fill="white"/>
<g clip-path="url(#clip0_1202_5152)">
<path d="M18.6606 19.9512C18.6606 19.9512 8.60435 23.2935 9.00015 23.4401C9.39596 23.5867 16.7256 31.576 16.7256 31.576L30.652 26.4892L18.6606 19.9512Z" fill="#223838"/>
<path d="M11.8 20.0824C11.8 20.0824 12.8702 19.5547 11.0671 17.8396C9.13203 15.9778 9.41055 13.3391 10.2755 13.1339C11.1404 12.9287 14.7759 11.6533 14.7759 11.6533L16.9748 18.3966L11.8 20.0971V20.0824Z" fill="#4776C4"/>
<path d="M11.8148 20.1704C12.2106 19.9652 12.196 19.4374 12.0494 19.0856C11.8002 18.4699 11.2578 18.0448 10.8327 17.5611C10.3636 17.048 10.0117 16.4323 9.82118 15.7726C9.67458 15.2595 9.60129 14.7171 9.68924 14.1894C9.73322 13.8669 9.85049 13.4271 10.173 13.2659C10.2903 13.2072 10.4369 13.1926 10.5688 13.1486C10.7594 13.09 10.9353 13.0313 11.1259 12.9727C11.6096 12.8261 12.0787 12.6648 12.5625 12.5036C13.3101 12.2544 14.0431 12.0052 14.776 11.7413L14.7027 11.6973L15.4504 13.9695C15.8462 15.1862 16.242 16.3883 16.6378 17.605L16.9163 18.4406L16.9603 18.3673C15.4504 18.8657 13.9404 19.3642 12.4305 19.8626C12.2106 19.9359 12.0054 20.0092 11.7855 20.0678C11.7122 20.0971 11.7415 20.1997 11.8148 20.1704C13.3248 19.672 14.8347 19.1736 16.3446 18.6752C16.5645 18.6019 16.7697 18.5286 16.9896 18.4699C17.0189 18.4699 17.0336 18.426 17.0336 18.3966L16.2859 16.1244C15.8901 14.9077 15.4943 13.7057 15.0985 12.4889L14.82 11.6534C14.82 11.6534 14.776 11.6094 14.7467 11.6094C14.131 11.8293 13.5007 12.0345 12.8703 12.2544C12.0201 12.5476 11.1552 12.8554 10.2903 13.0753C9.55731 13.2659 9.49867 14.336 9.55731 14.937C9.60129 15.5088 9.7772 16.0658 10.0411 16.5789C10.1877 16.8721 10.3782 17.1653 10.5981 17.4145C10.8473 17.7223 11.1405 17.9715 11.4044 18.2647C11.7122 18.6165 12.1667 19.1589 12.0494 19.672C12.0201 19.8186 11.9175 19.9652 11.7855 20.0385C11.7269 20.0678 11.7855 20.1704 11.8442 20.1264L11.8148 20.1704Z" fill="#0565AD"/>
<path d="M10.2756 13.1347C10.2756 13.1347 13.6766 12.0352 13.9551 21.08C14.2336 30.1248 18.7194 29.9635 18.7194 29.9635L30.7547 25.8296C31.0332 25.7417 31.1358 25.4045 30.9599 25.1846C29.9777 23.8946 27.3244 19.8926 27.0019 13.6331C26.6501 6.96308 20.4932 9.60176 20.4932 9.60176L10.2756 13.1347Z" fill="#E9EFF8"/>
<path d="M10.2315 13.1635C10.466 13.0902 10.7446 13.1195 10.9791 13.1782C11.6681 13.3687 12.1812 13.9404 12.533 14.5415C13.3393 15.9341 13.5885 17.6346 13.7351 19.2031C13.8523 20.4345 13.8377 21.6806 13.9696 22.9119C14.0722 23.8648 14.2481 24.8177 14.5267 25.7412C14.8931 26.9139 15.4502 28.0867 16.3591 28.9369C16.8575 29.406 17.4585 29.7578 18.1182 29.9191C18.3381 29.9777 18.5726 30.0217 18.7925 29.9484C19.5548 29.6845 20.3171 29.4207 21.0794 29.1715L24.9787 27.8375L28.7755 26.5328C29.4205 26.3129 30.0655 26.1077 30.6959 25.8731C30.9011 25.7998 31.0624 25.6239 31.0477 25.3894C31.033 25.1548 30.8131 24.9496 30.6812 24.7737C30.3441 24.3046 30.0362 23.8062 29.743 23.3077C28.8341 21.7099 28.1452 19.9801 27.6907 18.2063C27.3829 17.0189 27.1776 15.8168 27.0604 14.6001C26.9724 13.5886 26.9724 12.5771 26.6352 11.595C26.2394 10.4369 25.4332 9.49868 24.2311 9.16151C23.3222 8.9123 22.3254 8.9856 21.4165 9.20549C21.1233 9.27879 20.8448 9.35208 20.5663 9.4547C20.449 9.49868 20.4197 9.51334 20.3171 9.54265L17.8397 10.3929C16.491 10.862 15.157 11.3164 13.8083 11.7855L10.6566 12.8703L10.1728 13.0316C10.1728 13.0316 10.1289 13.1635 10.2022 13.1342L12.0199 12.5038L15.8607 11.1698L19.3935 9.95312L20.3024 9.63061C20.4197 9.58663 20.4344 9.58663 20.5516 9.54265C21.226 9.29345 21.9443 9.13219 22.6626 9.08822C23.718 9.02958 24.8175 9.26413 25.5798 10.0411C26.9138 11.3604 26.7672 13.3541 26.9724 15.0692C27.2216 17.1948 27.7494 19.2764 28.5849 21.2408C29.1127 22.5015 29.7723 23.7036 30.5639 24.8177C30.7252 25.0522 31.0624 25.3747 30.7692 25.6386C30.7105 25.6972 30.6226 25.7265 30.5346 25.7559L29.743 26.0344C28.6582 26.4009 27.5734 26.782 26.5033 27.1485C25.1547 27.6176 23.8207 28.072 22.472 28.5411L19.3349 29.6113C19.115 29.6846 18.8805 29.7725 18.6606 29.8458C18.6166 29.8605 18.5873 29.8605 18.4993 29.8458C18.0156 29.8165 17.5318 29.6259 17.1067 29.3767C16.2418 28.849 15.5968 28.0134 15.157 27.1192C14.3214 25.448 14.0429 23.5423 13.9403 21.6952C13.823 19.6722 13.7937 17.6199 13.134 15.6849C12.8408 14.82 12.4011 13.8818 11.6095 13.3394C11.243 13.0902 10.8032 12.9436 10.3634 12.9876C10.2901 12.9876 10.2315 13.0023 10.1582 13.0169C10.0849 13.0316 10.1142 13.1488 10.1875 13.1195L10.2315 13.1635Z" fill="#0565AD"/>
<path d="M16.2859 25.2283L27.0018 21.6074L28.4678 23.9822L17.9131 27.7643L16.2859 25.2283Z" fill="white"/>
<path d="M16.2859 25.2723C17.488 24.8618 18.7047 24.4514 19.9067 24.0556C21.8271 23.4106 23.7621 22.7509 25.6825 22.1059C26.1223 21.9593 26.5621 21.8127 27.0018 21.6515L26.9432 21.6221L28.4091 23.9969L28.4385 23.909C27.2511 24.3341 26.0636 24.7592 24.8762 25.1843C22.9852 25.8587 21.0941 26.5477 19.1884 27.222C18.7487 27.3832 18.3235 27.5298 17.8838 27.6911L17.9424 27.7204C17.4 26.8702 16.8576 26.0199 16.3152 25.1843C16.2712 25.1257 16.1833 25.1843 16.2272 25.243C16.7696 26.0932 17.312 26.9435 17.8544 27.779C17.8544 27.7937 17.8984 27.8084 17.9131 27.8084C19.1005 27.3832 20.2879 26.9581 21.4753 26.533C23.3663 25.8587 25.2574 25.1697 27.1631 24.4954C27.6029 24.3341 28.028 24.1875 28.4678 24.0263C28.4971 24.0263 28.5264 23.9823 28.4971 23.9383C28.0133 23.1467 27.5149 22.3551 27.0312 21.5635C27.0312 21.5488 26.9872 21.5342 26.9725 21.5342C25.7705 21.9446 24.5537 22.3551 23.3517 22.7509C21.4313 23.3959 19.4963 24.0556 17.5759 24.7006C17.1361 24.8472 16.6963 24.9938 16.2566 25.155C16.1833 25.1843 16.2126 25.287 16.2859 25.2576V25.2723Z" fill="#0565AD"/>
<path d="M20.4344 25.1693L20.3904 25.0374L25.2426 23.3809L25.2866 23.5128L20.4344 25.1693Z" fill="#0565AD"/>
<path d="M18.0889 14.1752L18.0449 14.0432L22.8972 12.3867L22.9411 12.5187L18.0889 14.1752Z" fill="#0565AD"/>
<path d="M18.2062 26.1512C18.4847 26.2978 18.7633 26.4443 19.0418 26.6056C19.0418 26.6056 19.0418 26.6056 19.0271 26.6056C18.9538 26.6349 18.8805 26.6642 18.8072 26.6789C18.7926 26.6789 18.7779 26.6789 18.7633 26.6789C18.4994 26.5323 18.2355 26.4004 17.9717 26.2538C17.9717 26.2538 17.957 26.2391 17.9423 26.2245C17.9423 26.1951 17.9277 26.1658 17.913 26.1512C17.913 26.1218 17.913 26.1218 17.9423 26.1072C18.001 26.0925 18.0596 26.0632 18.1182 26.0339C18.1915 26.0046 18.2648 25.9606 18.3088 25.902C18.3528 25.8433 18.3821 25.77 18.3675 25.6967C18.3675 25.6821 18.3675 25.6674 18.3381 25.6821C18.1622 25.7407 17.9863 25.7993 17.8104 25.8726C17.7957 25.8726 17.7811 25.8726 17.7664 25.8873C17.7811 25.8287 17.7957 25.77 17.8251 25.726C17.8251 25.726 17.8397 25.726 17.8544 25.7114C18.001 25.6674 18.1329 25.6088 18.2795 25.5648H18.3088C18.3088 25.5648 18.3088 25.5648 18.2942 25.5501C18.2209 25.4915 18.1329 25.5062 18.0449 25.5208C17.9423 25.5501 17.8397 25.5795 17.7224 25.6234C17.7224 25.6234 17.6931 25.6234 17.6785 25.6234C17.6931 25.5648 17.7078 25.5062 17.7371 25.4622C17.7371 25.4622 17.7371 25.4622 17.7518 25.4622C18.0889 25.3449 18.4114 25.2276 18.7486 25.1104C18.7486 25.1104 18.7486 25.1104 18.7486 25.125C18.7486 25.169 18.7193 25.213 18.7046 25.2423C18.7046 25.2569 18.69 25.2716 18.6753 25.2716C18.602 25.3009 18.514 25.3302 18.4408 25.3596C18.4554 25.3596 18.4847 25.3889 18.4994 25.4035C18.5287 25.4182 18.5434 25.4475 18.558 25.4622C18.558 25.4768 18.5727 25.4768 18.602 25.4622C18.69 25.4329 18.7779 25.4035 18.8659 25.3596C18.8659 25.3889 18.8366 25.4329 18.8366 25.4622C18.8366 25.5208 18.7926 25.5501 18.7339 25.5648C18.7046 25.5648 18.6753 25.5794 18.646 25.5941C18.646 25.5941 18.6313 25.5941 18.6313 25.6234C18.646 25.7847 18.5727 25.902 18.4554 26.0192C18.3968 26.0632 18.3381 26.1072 18.2648 26.1365C18.2648 26.1365 18.2648 26.1365 18.2502 26.1365L18.2062 26.1512Z" fill="#0565AD"/>
<path d="M18.7926 26.7083C18.7926 26.7083 18.7779 26.7083 18.7633 26.7083C18.4994 26.5617 18.2355 26.4297 17.9717 26.2831C17.9717 26.2831 17.9424 26.2685 17.9424 26.2392C17.9424 26.2098 17.9277 26.1805 17.913 26.1659C17.913 26.1659 17.913 26.1365 17.913 26.1219C17.913 26.1072 17.9424 26.1072 17.957 26.0926C18.0303 26.0779 18.0889 26.0486 18.1329 26.0339C18.2209 25.99 18.2795 25.9606 18.3088 25.902C18.3528 25.8434 18.3821 25.7847 18.3675 25.7114C18.2942 25.7407 18.2062 25.7701 18.1329 25.7994C18.0303 25.8287 17.9424 25.8727 17.8397 25.902C17.8397 25.902 17.8251 25.902 17.8104 25.902H17.7518V25.8873C17.7664 25.8287 17.7811 25.7701 17.8104 25.7261C17.8104 25.7114 17.8397 25.6968 17.8397 25.6968C17.913 25.6674 17.9863 25.6381 18.0596 25.6235C18.1329 25.5942 18.2062 25.5795 18.2795 25.5502C18.2209 25.5062 18.1476 25.4915 18.045 25.5209C17.9717 25.5355 17.8837 25.5648 17.8104 25.5942L17.7225 25.6235C17.7225 25.6235 17.7078 25.6235 17.6785 25.6235H17.6492V25.5942C17.6638 25.5355 17.6785 25.4769 17.7078 25.4329C17.7078 25.4329 17.7225 25.4182 17.7371 25.4036C17.8984 25.3449 18.0596 25.2863 18.2355 25.2277C18.3968 25.169 18.5727 25.1104 18.734 25.0518C18.734 25.0518 18.7486 25.0664 18.734 25.0957C18.734 25.1104 18.734 25.1251 18.7193 25.1397C18.7193 25.169 18.7046 25.1984 18.69 25.213C18.69 25.2423 18.6607 25.257 18.646 25.257C18.5727 25.2863 18.5141 25.301 18.4408 25.3303C18.4408 25.3303 18.4554 25.3303 18.4701 25.3449C18.4994 25.3596 18.5141 25.3889 18.5287 25.4182C18.5287 25.4182 18.5287 25.4182 18.5434 25.4182C18.6167 25.3889 18.6753 25.3743 18.7486 25.3449L18.8366 25.3156V25.3743C18.8366 25.3743 18.7926 25.4329 18.7926 25.4476C18.7926 25.5062 18.7486 25.5502 18.6753 25.5648C18.6607 25.5648 18.646 25.5648 18.6167 25.5795H18.5874C18.5874 25.7261 18.5434 25.8727 18.3968 25.99C18.3382 26.0339 18.2795 26.0779 18.2062 26.1072C18.4701 26.2538 18.7486 26.4004 19.0125 26.547V26.5617C19.0125 26.5763 18.9978 26.591 18.9832 26.591C18.9538 26.591 18.9099 26.6203 18.8806 26.635C18.8366 26.635 18.8073 26.6643 18.7633 26.6789C18.7633 26.6789 18.7486 26.6789 18.734 26.6789L18.7926 26.7083ZM17.9424 26.1512C17.9424 26.1805 17.957 26.1952 17.9717 26.2245C17.9717 26.2245 17.9717 26.2245 17.9863 26.2392C18.2502 26.3858 18.5141 26.5177 18.7779 26.6643C18.7779 26.6643 18.7926 26.6643 18.8073 26.6643C18.8366 26.6643 18.8806 26.635 18.9099 26.6203C18.9392 26.6203 18.9685 26.6056 18.9978 26.591C18.734 26.4444 18.4554 26.2978 18.1916 26.1512H18.1769L18.1916 26.1219C18.1916 26.1219 18.1916 26.1219 18.2209 26.1219C18.2942 26.0926 18.3528 26.0486 18.4115 26.0046C18.5434 25.8873 18.602 25.7701 18.5874 25.6235C18.5874 25.5942 18.602 25.5795 18.6167 25.5795H18.646C18.646 25.5795 18.69 25.5502 18.7046 25.5502C18.7633 25.5502 18.7779 25.5209 18.7926 25.4622C18.7926 25.4329 18.7926 25.4182 18.8073 25.3889H18.7926C18.7926 25.3889 18.646 25.4476 18.5874 25.4769C18.5727 25.4769 18.5434 25.4769 18.5287 25.4622C18.5287 25.4329 18.4994 25.4182 18.4701 25.4036C18.4554 25.4036 18.4408 25.3743 18.4115 25.3743H18.3821L18.4115 25.3449C18.4994 25.3156 18.5727 25.2863 18.646 25.257C18.6607 25.257 18.6607 25.257 18.6753 25.2277C18.6753 25.1984 18.69 25.169 18.7046 25.1397C18.7046 25.1397 18.7046 25.1251 18.7046 25.1104L18.2355 25.2716C18.0743 25.3303 17.8984 25.3889 17.7371 25.4476C17.7371 25.4476 17.7078 25.5355 17.6931 25.5795C17.7225 25.5795 17.7518 25.5648 17.7811 25.5502C17.8544 25.5209 17.9424 25.4915 18.0157 25.4769C18.0889 25.4769 18.1916 25.4476 18.2795 25.5209C18.2795 25.5209 18.3088 25.5209 18.3088 25.5502C18.3088 25.5795 18.2795 25.5795 18.2795 25.5795C18.2062 25.6088 18.1329 25.6381 18.0596 25.6528C17.9863 25.6821 17.913 25.6968 17.8397 25.7261C17.8397 25.7701 17.8104 25.814 17.7958 25.858C17.7958 25.858 17.7958 25.858 17.8104 25.858C17.8984 25.8287 18.001 25.7847 18.1036 25.7554C18.1769 25.7261 18.2649 25.6968 18.3382 25.6674C18.3382 25.6674 18.3675 25.6674 18.3821 25.6674C18.3821 25.6674 18.3968 25.6821 18.3968 25.6968C18.3968 25.7701 18.3968 25.8434 18.3382 25.9167C18.2942 25.9753 18.2355 26.0193 18.1476 26.0633C18.0889 26.0926 18.0303 26.1072 17.9717 26.1219C17.9717 26.1219 17.9717 26.1219 17.957 26.1219L17.9424 26.1512Z" fill="#0565AD"/>
<path d="M14.2483 18.8223L26.4155 14.8643C26.4888 15.5532 26.6208 16.3448 26.8553 17.2097C27.1045 18.1773 27.427 19.0128 27.7349 19.7018L14.8347 23.8064C14.8347 23.8064 14.2483 21.4609 14.2483 18.8223Z" fill="#DCEAC0"/>
<path d="M14.2188 18.881C14.6146 18.749 15.0251 18.6171 15.4209 18.4852L18.3234 17.5323C19.4962 17.1512 20.6543 16.77 21.827 16.3889L24.8762 15.392L25.873 15.0695L26.1808 14.9669C26.1808 14.9669 26.3128 14.9376 26.3421 14.9083C26.3421 14.9083 26.3567 14.9083 26.3714 14.9083L26.2981 14.8497C26.4887 16.5355 26.9431 18.1627 27.6321 19.7165L27.6614 19.6286C27.2363 19.7605 26.8112 19.9071 26.3714 20.039L23.293 21.0212L19.5548 22.2086L16.3444 23.2348L15.2743 23.5719L14.9371 23.6746C14.9371 23.6746 14.7906 23.7039 14.7612 23.7332C14.7612 23.7332 14.7466 23.7332 14.7319 23.7332L14.8052 23.7772C14.4094 22.1647 14.2188 20.4642 14.2188 18.8077C14.2188 18.7344 14.1016 18.7344 14.1016 18.8077C14.1016 20.4788 14.2921 22.1793 14.6879 23.8065C14.6879 23.8358 14.7319 23.8505 14.7612 23.8505C15.1864 23.7185 15.6115 23.5719 16.0513 23.44C17.0774 23.1175 18.1036 22.795 19.1297 22.4578L22.8678 21.2704L26.0782 20.2443L27.1484 19.9071C27.3096 19.8631 27.5002 19.8192 27.6468 19.7459C27.6468 19.7459 27.6614 19.7459 27.6761 19.7459C27.7054 19.7459 27.7201 19.7019 27.7054 19.6579C27.0311 18.1333 26.5766 16.5062 26.4007 14.8497C26.4007 14.8203 26.3714 14.791 26.3274 14.791C25.9316 14.9229 25.5212 15.0549 25.1254 15.1868C24.1579 15.5093 23.1903 15.8172 22.2228 16.1397L18.7192 17.2831L15.6701 18.2799L14.6733 18.6024C14.5267 18.6464 14.3361 18.6904 14.1895 18.7637C14.1895 18.7637 14.1749 18.7637 14.1602 18.7637C14.0869 18.7783 14.1162 18.8956 14.1895 18.8663L14.2188 18.881Z" fill="#0565AD"/>
<path d="M14.2776 20.1121C14.688 19.9802 15.0985 19.8629 15.4943 19.731L18.4262 18.8074L21.9737 17.6933C22.9999 17.3708 24.026 17.0483 25.0522 16.7258L26.0637 16.4033C26.2249 16.3593 26.4008 16.33 26.5474 16.2567C26.5474 16.2567 26.5621 16.2567 26.5767 16.2567C26.65 16.2421 26.6207 16.1248 26.5474 16.1541C26.137 16.286 25.7265 16.4033 25.3307 16.5352C24.3485 16.8431 23.381 17.1509 22.3988 17.4588L18.8513 18.5729L15.7728 19.5404L14.7613 19.8629C14.6001 19.9069 14.4242 19.9362 14.2776 20.0095C14.2776 20.0095 14.2629 20.0095 14.2483 20.0095C14.175 20.0242 14.2043 20.1414 14.2776 20.1121Z" fill="#0565AD"/>
<path d="M14.4241 21.285C14.8345 21.153 15.245 21.0358 15.6555 20.9038C16.6523 20.596 17.6345 20.2881 18.6313 19.9803C19.8334 19.6138 21.0208 19.2327 22.2228 18.8662C23.2636 18.5437 24.3044 18.2212 25.3453 17.8987L26.3714 17.5762C26.5327 17.5322 26.7086 17.5029 26.8552 17.4296H26.8698C26.9431 17.4149 26.9138 17.2976 26.8405 17.327L25.6091 17.7081C24.6123 18.0159 23.6301 18.3238 22.6333 18.6316C21.4312 18.9981 20.2438 19.3793 19.0418 19.7457L15.9193 20.7133L14.8932 21.0358C14.7319 21.0797 14.556 21.1091 14.4094 21.1824H14.3948C14.3215 21.197 14.3508 21.3143 14.4241 21.285Z" fill="#0565AD"/>
<path d="M14.5706 22.4579C14.981 22.326 15.4061 22.1941 15.8166 22.0621L18.8218 21.1093L22.4573 19.9512C23.5127 19.614 24.5682 19.2769 25.609 18.9397L26.6352 18.6172C26.7964 18.5732 26.987 18.5292 27.1336 18.4559C27.1336 18.4559 27.1336 18.4559 27.1482 18.4559C27.2215 18.4413 27.1922 18.324 27.1189 18.3533C26.7085 18.4853 26.2833 18.6172 25.8729 18.7491L22.8677 19.702L19.2322 20.8601L16.0805 21.8716L15.0543 22.1941C14.8931 22.238 14.7025 22.282 14.5559 22.3553C14.5559 22.3553 14.5559 22.3553 14.5412 22.3553C14.4679 22.37 14.4973 22.4872 14.5706 22.4579Z" fill="#0565AD"/>
<path d="M17.1948 17.8108C17.2242 18.3825 17.2828 18.9396 17.3268 19.5113C17.4147 20.3909 17.488 21.2997 17.7079 22.1646C17.7519 22.3406 17.8105 22.7364 18.0304 22.795C18.1037 22.8097 18.133 22.707 18.0597 22.6924C17.8985 22.6484 17.8398 22.2379 17.8105 22.106C17.7226 21.7249 17.6639 21.3291 17.6053 20.9479C17.488 20.0977 17.4147 19.2328 17.3414 18.3825C17.3268 18.192 17.3121 18.0014 17.2975 17.8108C17.2975 17.7375 17.1802 17.7375 17.1802 17.8108H17.1948Z" fill="#0565AD"/>
<path d="M15.5674 15.9638C16.3366 15.9638 16.9601 15.4059 16.9601 14.7177C16.9601 14.0296 16.3366 13.4717 15.5674 13.4717C14.7983 13.4717 14.1748 14.0296 14.1748 14.7177C14.1748 15.4059 14.7983 15.9638 15.5674 15.9638Z" fill="#4776C4"/>
<path d="M15.5675 15.9784C14.7905 15.9784 14.1602 15.4067 14.1602 14.7177C14.1602 14.0287 14.7905 13.457 15.5675 13.457C16.3444 13.457 16.9747 14.0287 16.9747 14.7177C16.9747 15.4067 16.3444 15.9784 15.5675 15.9784ZM15.5675 13.4863C14.8052 13.4863 14.1895 14.0434 14.1895 14.7177C14.1895 15.3921 14.8052 15.9491 15.5675 15.9491C16.3297 15.9491 16.9454 15.3921 16.9454 14.7177C16.9454 14.0434 16.3297 13.4863 15.5675 13.4863Z" fill="#0565AD"/>
</g>
<defs>
<clipPath id="clip0_1202_5152">
<rect width="22.0476" height="22.59" fill="white" transform="translate(9 9)"/>
</clipPath>
</defs>
</svg>
