<svg width="448" height="448" viewBox="0 0 448 448" fill="none" xmlns="http://www.w3.org/2000/svg">
<rect width="447.401" height="447.401" transform="translate(0 0.0566406)" fill="white"/>
<g clip-path="url(#clip0_1243_9760)">
<path d="M308.163 279.118H157.865C152.687 279.118 147.523 279.144 142.345 279.118C137.792 279.105 134.207 275.865 134.128 271.219C134.088 269.041 134.128 266.851 134.128 264.674V231.855C134.128 219.124 134.128 206.392 134.128 193.66C134.128 187.513 134.008 181.367 134.128 175.22C134.207 170.905 137.606 167.52 141.907 167.44C142.186 167.44 142.478 167.44 142.757 167.44H174.633C186.913 167.44 199.207 167.44 211.487 167.44H305.879C307.937 167.44 309.929 167.334 311.827 168.356C314.442 169.777 315.889 172.432 315.929 175.366C315.929 176.096 315.929 176.826 315.929 177.556V270.037C315.929 270.475 315.929 270.913 315.929 271.351C315.836 275.679 312.451 279.038 308.15 279.131C305.587 279.184 305.587 283.167 308.15 283.114C315.066 282.955 319.899 277.445 319.912 270.701C319.912 267.86 319.912 265.032 319.912 262.191V177.716C319.912 173.786 319.54 170.082 316.62 167.029C312.239 162.462 305.468 163.431 299.719 163.431H142.691C137.473 163.444 132.747 166.126 130.862 171.171C129.932 173.693 130.145 176.494 130.145 179.136V210.003C130.145 223.199 130.145 236.396 130.145 249.592C130.145 262.788 130.052 263.983 130.145 271.166C130.238 277.79 135.376 282.981 142.014 283.101C143.421 283.127 144.841 283.101 146.249 283.101H170.039C182.28 283.101 194.533 283.101 206.774 283.101H308.176C310.738 283.101 310.738 279.118 308.176 279.118H308.163Z" fill="#221F20"/>
<path d="M235.862 239.927H143.779V250.574H235.862V239.927Z" fill="#C5D8E3"/>
<path d="M193.325 256.35H143.779V266.997H193.325V256.35Z" fill="#C5D8E3"/>
<path d="M315.783 190.66H134.459V211.968H315.783V190.66Z" fill="url(#paint0_linear_1243_9760)"/>
</g>
<defs>
<linearGradient id="paint0_linear_1243_9760" x1="134.459" y1="201.321" x2="315.783" y2="201.321" gradientUnits="userSpaceOnUse">
<stop stop-color="#9BCB9E"/>
<stop offset="1" stop-color="#78C1C4"/>
</linearGradient>
<clipPath id="clip0_1243_9760">
<rect width="189.834" height="119.763" fill="white" transform="translate(130.105 163.352)"/>
</clipPath>
</defs>
</svg>
