<svg width="449" height="448" viewBox="0 0 449 448" fill="none" xmlns="http://www.w3.org/2000/svg">
<rect width="447.401" height="447.401" transform="translate(0.95459 0.458008)" fill="white"/>
<g clip-path="url(#clip0_1243_9764)">
<path d="M276.751 290.351H282.866C292.878 290.351 300.993 282.237 300.993 272.224V163.179C300.993 153.166 292.878 145.052 282.866 145.052H194.356C188.106 145.052 182.582 148.223 179.332 153.041H259.409C269.148 153.041 277.047 160.951 277.024 170.702L276.763 290.351" fill="#C5D8E3"/>
<path d="M258.761 298.159H185.162C180.207 298.159 175.252 298.204 170.308 298.159C163.774 298.102 157.762 294.261 155.159 288.226C154.045 285.658 153.841 282.987 153.841 280.236V232.038C153.841 221.469 153.841 210.9 153.841 200.33V177.692C153.841 176.112 153.841 174.532 153.841 172.952C153.852 167.702 156.17 162.701 160.421 159.531C163.637 157.133 167.376 156.269 171.308 156.269H257.409C260.875 156.269 264.182 156.78 267.228 158.61C272.24 161.61 275.16 167.031 275.194 172.827C275.229 177.339 275.194 181.84 275.194 186.352V272.611C275.194 277.088 275.785 282.316 274.444 286.658C272.331 293.499 265.864 298.091 258.772 298.159C256.579 298.182 256.579 301.591 258.772 301.568C266.387 301.489 273.569 297.079 276.751 290.09C278.149 287.01 278.593 283.794 278.593 280.452V176.896C278.593 175.521 278.593 174.157 278.593 172.782C278.547 166.293 275.467 160.269 270.171 156.485C266.546 153.894 262.273 152.859 257.874 152.859H222.962C212.211 152.859 201.459 152.859 190.708 152.859C184.196 152.859 177.696 152.859 171.183 152.859C166.888 152.859 162.717 153.803 159.125 156.269C153.682 160.008 150.477 166.156 150.42 172.748C150.386 177.191 150.42 181.624 150.42 186.067V214.82C150.42 225.765 150.42 236.698 150.42 247.642V273.509C150.42 278.93 149.886 284.657 152.113 289.749C155.17 296.75 162.228 301.398 169.854 301.568C171.229 301.602 172.615 301.568 173.991 301.568H198.255C209.131 301.568 220.007 301.568 230.894 301.568H258.772C260.966 301.568 260.966 298.159 258.772 298.159H258.761Z" fill="#221F20"/>
<path d="M248.623 188.647H179.843C176.718 188.647 174.184 191.181 174.184 194.307V200.921C174.184 204.047 176.718 206.581 179.843 206.581H248.623C251.749 206.581 254.283 204.047 254.283 200.921V194.307C254.283 191.181 251.749 188.647 248.623 188.647Z" fill="url(#paint0_linear_1243_9764)"/>
<path d="M248.623 219.73H179.843C176.718 219.73 174.184 222.264 174.184 225.39V232.004C174.184 235.13 176.718 237.664 179.843 237.664H248.623C251.749 237.664 254.283 235.13 254.283 232.004V225.39C254.283 222.264 251.749 219.73 248.623 219.73Z" fill="url(#paint1_linear_1243_9764)"/>
<path d="M231.235 250.211H179.843C176.718 250.211 174.184 252.745 174.184 255.871V262.485C174.184 265.611 176.718 268.145 179.843 268.145H231.235C234.361 268.145 236.895 265.611 236.895 262.485V255.871C236.895 252.745 234.361 250.211 231.235 250.211Z" fill="url(#paint2_linear_1243_9764)"/>
</g>
<defs>
<linearGradient id="paint0_linear_1243_9764" x1="174.184" y1="197.614" x2="254.283" y2="197.614" gradientUnits="userSpaceOnUse">
<stop stop-color="#9BCB9E"/>
<stop offset="1" stop-color="#78C1C4"/>
</linearGradient>
<linearGradient id="paint1_linear_1243_9764" x1="150.363" y1="228.697" x2="151.499" y2="228.697" gradientUnits="userSpaceOnUse">
<stop stop-color="#9BCB9E"/>
<stop offset="1" stop-color="#78C1C4"/>
</linearGradient>
<linearGradient id="paint2_linear_1243_9764" x1="150.363" y1="259.178" x2="236.895" y2="259.178" gradientUnits="userSpaceOnUse">
<stop stop-color="#9BCB9E"/>
<stop offset="1" stop-color="#78C1C4"/>
</linearGradient>
<clipPath id="clip0_1243_9764">
<rect width="150.63" height="156.528" fill="white" transform="translate(150.363 145.052)"/>
</clipPath>
</defs>
</svg>
