<svg width="40" height="40" viewBox="0 0 40 40" fill="none" xmlns="http://www.w3.org/2000/svg">
<rect width="40" height="40" fill="white"/>
<g clip-path="url(#clip0_1202_5244)">
<path d="M18.0824 19.3154C18.0824 19.3154 7.8262 22.7392 8.22987 22.8887C8.63354 23.0382 16.1089 31.1863 16.1089 31.1863L30.3121 25.9984L18.0824 19.3154Z" fill="#223838"/>
<path d="M11.0855 19.4652C11.0855 19.4652 12.1769 18.9269 10.3379 17.1777C8.36442 15.2789 8.64849 12.5878 9.53058 12.3635C10.4127 12.1393 14.1205 10.8535 14.1205 10.8535L16.3631 17.7309L11.0855 19.4652Z" fill="#4776C4"/>
<path d="M11.1003 19.5398C11.504 19.3305 11.489 18.7923 11.3395 18.4335C11.0853 17.8055 10.5322 17.372 10.0986 16.8786C9.62017 16.3553 9.26135 15.7274 9.067 15.0546C8.91749 14.5313 8.84273 13.9782 8.93244 13.4399C8.97729 13.111 9.0969 12.6625 9.42581 12.498C9.54542 12.4382 9.69493 12.4233 9.82948 12.3784C10.0238 12.3186 10.2033 12.2588 10.3976 12.199C10.891 12.0495 11.3694 11.885 11.8628 11.7206C12.6253 11.4664 13.3728 11.2123 14.1204 10.9432L14.0456 10.8983C14.2998 11.6757 14.5539 12.4532 14.8081 13.2157C15.2118 14.4566 15.6154 15.6825 16.0191 16.9235L16.3032 17.7756L16.348 17.7009C14.8081 18.2092 13.2682 18.7175 11.7282 19.2259L11.0704 19.4352C11.0704 19.4352 11.0255 19.5697 11.1003 19.5398C12.6402 19.0315 14.1802 18.5232 15.7201 18.0149C15.9443 17.9401 16.1537 17.8654 16.3779 17.8055C16.4078 17.8055 16.4228 17.7607 16.4228 17.7308L15.6603 15.4134C15.2566 14.1725 14.8529 12.9466 14.4493 11.7056L14.1652 10.8534C14.1652 10.8534 14.1204 10.8086 14.0904 10.8086C13.4625 11.0329 12.8196 11.2422 12.1768 11.4664C11.3096 11.7654 10.4275 12.0794 9.54542 12.3037C8.79788 12.498 8.73808 13.5894 8.79788 14.2024C8.84273 14.7855 9.02214 15.3536 9.29126 15.8769C9.44076 16.1759 9.63512 16.4749 9.85939 16.7291C10.1135 17.0431 10.4126 17.2972 10.6817 17.5962C10.9956 17.9551 11.4591 18.5082 11.3395 19.0315C11.3096 19.181 11.205 19.3305 11.0704 19.4053C11.0106 19.4352 11.0704 19.5398 11.1302 19.495L11.1003 19.5398Z" fill="#0565AD"/>
<path d="M9.53052 12.3636C9.53052 12.3636 12.9991 11.2423 13.2832 20.4669C13.5672 29.6915 18.1422 29.527 18.1422 29.527L30.9998 25.1166C30.9998 25.1166 26.978 20.736 26.5893 12.8719C26.2305 6.0693 19.9512 8.76043 19.9512 8.76043L9.53052 12.3636Z" fill="#E9EFF8"/>
<path d="M9.42586 12.4379C9.70992 12.3482 10.0538 12.408 10.3379 12.4977C11.205 12.8117 11.7432 13.6788 12.0871 14.4862C12.9692 16.5344 13.014 18.8219 13.1187 21.0197C13.2233 23.038 13.5224 25.176 14.4942 26.985C15.0025 27.912 15.7201 28.7791 16.677 29.2575C16.9461 29.3921 17.2451 29.4967 17.5441 29.5565C17.6787 29.5864 17.8431 29.6163 17.9926 29.6163C18.1122 29.6163 18.2319 29.5416 18.3365 29.5117L19.5326 29.108C20.8931 28.6445 22.2536 28.1811 23.6141 27.7026L28.0844 26.1627C28.9814 25.8637 29.8635 25.5497 30.7606 25.2507L30.8951 25.2059C30.8951 25.2059 30.9549 25.1461 30.925 25.1162C30.5513 24.6975 30.2224 24.2341 29.9233 23.7706C29.116 22.5446 28.4582 21.214 27.9498 19.8236C27.1874 17.7753 26.7239 15.6224 26.5594 13.4396C26.4847 12.5127 26.4398 11.6007 26.1259 10.7186C25.9016 10.1206 25.5727 9.56737 25.1092 9.14875C24.3318 8.40122 23.2852 8.162 22.2686 8.19191C21.521 8.22181 20.7585 8.37131 20.0558 8.62548C19.9811 8.65538 19.9213 8.67033 19.8465 8.70023C19.8017 8.71518 19.8316 8.70023 19.7867 8.73013C19.5625 8.80489 19.3233 8.89459 19.099 8.96934L15.8397 10.0907C14.539 10.5392 13.2383 10.9877 11.9226 11.4362L9.50061 12.2735L9.38101 12.3183C9.38101 12.3183 9.33615 12.4529 9.41091 12.423C9.97904 12.2286 10.5621 12.0342 11.1302 11.8249C12.3712 11.3914 13.5971 10.9727 14.838 10.5392L18.4412 9.29826L19.5326 8.92449C19.6223 8.89459 19.7867 8.83479 19.8465 8.81984C20.3848 8.61053 20.9379 8.46102 21.5061 8.37131C22.4779 8.22181 23.5394 8.28161 24.4065 8.77498C25.6773 9.49262 26.1707 10.9428 26.3202 12.3034C26.38 12.8565 26.395 13.4247 26.4548 13.9928C26.5146 14.5609 26.5893 15.1291 26.679 15.6972C26.8584 16.7437 27.0977 17.7753 27.4266 18.777C27.905 20.302 28.5628 21.7821 29.3851 23.1576C29.7888 23.8304 30.2224 24.4882 30.7307 25.0863C30.7606 25.1162 30.7755 25.1461 30.8054 25.161L30.8353 25.0713C30.2074 25.2956 29.5645 25.5049 28.9366 25.7291L24.6906 27.1794C23.2404 27.6727 21.7901 28.1811 20.325 28.6744C19.5625 28.9436 18.785 29.2426 18.0076 29.4668C17.9627 29.4818 18.0076 29.4668 17.9627 29.4668C17.9029 29.4668 17.8431 29.4668 17.7983 29.4668C17.5591 29.4369 17.3199 29.3771 17.0956 29.3024C16.1985 28.9735 15.466 28.3007 14.9277 27.5083C13.8662 25.9385 13.4626 23.9799 13.2832 22.126C13.1486 20.7505 13.1635 19.3601 12.9991 17.9697C12.8795 16.9979 12.715 16.0112 12.4011 15.0693C12.0871 14.1274 11.5937 13.0509 10.6817 12.5127C10.308 12.3034 9.84448 12.1838 9.42586 12.2735C9.41091 12.2735 9.38101 12.2735 9.36605 12.2884C9.2913 12.3034 9.3212 12.423 9.39596 12.3931L9.42586 12.4379Z" fill="#0565AD"/>
<path d="M14.6289 17.3122C15.7801 16.9085 16.9163 16.5049 18.0675 16.1012C19.8915 15.4583 21.7305 14.8154 23.5545 14.1875C23.9731 14.038 24.3917 13.8885 24.8103 13.7539C25.0047 13.6941 25.1243 13.4998 25.0645 13.2905C25.0196 13.1111 24.7954 12.9616 24.601 13.0363C23.4498 13.44 22.3135 13.8436 21.1623 14.2473C19.3383 14.8902 17.4994 15.5331 15.6754 16.161C15.2568 16.3105 14.8382 16.46 14.4195 16.5946C14.2252 16.6544 14.1056 16.8487 14.1654 17.0581C14.2102 17.2375 14.4345 17.387 14.6289 17.3122Z" fill="#0565AD"/>
<path d="M15.0922 19.8689C16.2434 19.4652 17.3797 19.0615 18.5309 18.6579C20.3549 18.015 22.1938 17.3721 24.0178 16.7442C24.4365 16.5946 24.8551 16.4451 25.2737 16.3106C25.4681 16.2508 25.5877 16.0564 25.5279 15.8471C25.483 15.6677 25.2587 15.5182 25.0644 15.5929C23.9132 15.9966 22.7769 16.4003 21.6257 16.804L16.1388 18.7177C15.7202 18.8672 15.3015 19.0167 14.8829 19.1512C14.6886 19.211 14.569 19.4054 14.6288 19.6147C14.6736 19.7941 14.8979 19.9436 15.0922 19.8689Z" fill="#0565AD"/>
<path d="M15.5559 22.2605C16.7071 21.8568 17.8433 21.4531 18.9945 21.0495C20.8185 20.4066 22.6575 19.7637 24.4815 19.1358C24.9001 18.9862 25.3187 18.8367 25.7373 18.7022C25.9317 18.6424 26.0513 18.448 25.9915 18.2387C25.9466 18.0593 25.7224 17.9098 25.528 17.9845C24.3768 18.3882 23.2405 18.7919 22.0893 19.1956C20.2653 19.8384 18.4264 20.4813 16.6024 21.1093C16.1838 21.2588 15.7652 21.4083 15.3465 21.5428C15.1522 21.6026 15.0326 21.797 15.0924 22.0063C15.1372 22.1857 15.3615 22.3352 15.5559 22.2605Z" fill="#0565AD"/>
<path d="M16.1538 24.653C17.305 24.2494 18.4412 23.8457 19.5924 23.442C21.4164 22.7991 23.2554 22.1563 25.0794 21.5283C25.498 21.3788 25.9166 21.2293 26.3352 21.0948C26.5296 21.035 26.6492 20.8406 26.5894 20.6313C26.5445 20.4519 26.3203 20.3024 26.1259 20.3771C24.9747 20.7808 23.8384 21.1845 22.6872 21.5881C20.8632 22.231 19.0243 22.8739 17.2003 23.5018C16.7817 23.6513 16.3631 23.8008 15.9444 23.9354C15.7501 23.9952 15.6305 24.1896 15.6903 24.3989C15.7351 24.5783 15.9594 24.7278 16.1538 24.653Z" fill="#0565AD"/>
</g>
<defs>
<clipPath id="clip0_1202_5244">
<rect width="22.77" height="22.9943" fill="white" transform="translate(8.22998 8.19238)"/>
</clipPath>
</defs>
</svg>
