<svg width="40" height="40" viewBox="0 0 40 40" fill="none" xmlns="http://www.w3.org/2000/svg">
<rect width="40" height="40" fill="white"/>
<g clip-path="url(#clip0_1202_5300)">
<path d="M19.5752 30.8226C24.3046 30.8226 28.1385 26.6372 28.1385 21.4743C28.1385 16.3114 24.3046 12.126 19.5752 12.126C14.8459 12.126 11.012 16.3114 11.012 21.4743C11.012 26.6372 14.8459 30.8226 19.5752 30.8226Z" fill="#4776C4"/>
<path d="M19.5753 30.8341C14.8529 30.8341 11 26.6309 11 21.4737C11 16.3164 14.8529 12.1133 19.5753 12.1133C24.2978 12.1133 28.1507 16.3164 28.1507 21.4737C28.1507 26.6309 24.3099 30.8341 19.5753 30.8341ZM19.5753 12.1495C14.8649 12.1495 11.0362 16.3285 11.0362 21.4737C11.0362 26.6189 14.8649 30.7978 19.5753 30.7978C24.2857 30.7978 28.1144 26.6189 28.1144 21.4737C28.1144 16.3285 24.2857 12.1495 19.5753 12.1495Z" fill="#0565AD"/>
<path d="M20.7226 30.9067C25.492 30.9067 29.3583 26.6835 29.3583 21.4739C29.3583 16.2642 25.492 12.041 20.7226 12.041C15.9533 12.041 12.0869 16.2642 12.0869 21.4739C12.0869 26.6835 15.9533 30.9067 20.7226 30.9067Z" fill="#6E94D0"/>
<path d="M20.7229 30.9312C15.9521 30.9312 12.063 26.6919 12.063 21.4863C12.063 16.2807 15.9521 12.0293 20.7229 12.0293C25.4936 12.0293 29.3827 16.2686 29.3827 21.4742C29.3827 26.6798 25.5057 30.9192 20.7229 30.9192V30.9312ZM20.7229 12.0535C15.9642 12.0535 12.0992 16.2807 12.0992 21.4742C12.0992 26.6677 15.9642 30.895 20.7229 30.895C25.4816 30.895 29.3465 26.6677 29.3465 21.4742C29.3465 16.2807 25.4816 12.0535 20.7229 12.0535Z" fill="#0565AD"/>
<path d="M27.7279 15.8212C27.2689 16.1956 26.6892 16.4251 26.0732 16.4251C24.5514 16.4251 23.3074 15.0723 23.3074 13.4177C23.3074 13.1157 23.3436 12.8258 23.4282 12.548C23.4402 12.4877 24.962 13.1036 25.8317 13.8041C26.7013 14.5167 27.3172 15.2535 27.7279 15.8212Z" fill="#223838"/>
<path d="M26.4234 16.0627C27.9443 16.0627 29.1772 14.7162 29.1772 13.0553C29.1772 11.3943 27.9443 10.0479 26.4234 10.0479C24.9026 10.0479 23.6697 11.3943 23.6697 13.0553C23.6697 14.7162 24.9026 16.0627 26.4234 16.0627Z" fill="#6E94D0"/>
<path d="M26.4234 16.0875C24.8895 16.0875 23.6455 14.7348 23.6455 13.056C23.6455 11.3771 24.9016 10.0244 26.4234 10.0244C27.9452 10.0244 29.2014 11.3771 29.2014 13.056C29.2014 14.7348 27.9573 16.0875 26.4234 16.0875ZM26.4234 10.0606C24.9137 10.0606 23.6817 11.4013 23.6817 13.056C23.6817 14.7106 24.9137 16.0513 26.4234 16.0513C27.9332 16.0513 29.1651 14.7106 29.1651 13.056C29.1651 11.4013 27.9452 10.0606 26.4234 10.0606Z" fill="#0565AD"/>
<path d="M26.7978 16.099C28.3387 16.099 29.5878 14.7363 29.5878 13.0554C29.5878 11.3744 28.3387 10.0117 26.7978 10.0117C25.2569 10.0117 24.0078 11.3744 24.0078 13.0554C24.0078 14.7363 25.2569 16.099 26.7978 16.099Z" fill="#E9EFF8"/>
<path d="M26.7979 16.1114C25.252 16.1114 23.9958 14.7345 23.9958 13.0557C23.9958 11.3769 25.252 10 26.7979 10C28.3439 10 29.6 11.3648 29.6 13.0557C29.6 14.7466 28.3439 16.1114 26.7979 16.1114ZM26.7979 10.0362C25.2761 10.0362 24.0321 11.389 24.0321 13.0557C24.0321 14.7225 25.2761 16.0873 26.7979 16.0873C28.3197 16.0873 29.5638 14.7345 29.5638 13.0557C29.5638 11.3769 28.3197 10.0362 26.7979 10.0362Z" fill="#0565AD"/>
<path d="M19.1888 22.8272C19.4545 22.8272 19.6961 22.9842 19.8168 23.2257C19.9618 23.5156 20.2637 23.6968 20.6744 23.6968C21.2299 23.6968 21.5923 23.419 21.5923 22.9479C21.5923 22.2716 20.8555 22.2233 20.4328 22.187C19.1284 22.0904 17.824 21.3899 17.824 19.6386C17.824 17.996 18.9472 16.9814 20.6261 16.9814C22.0392 16.9814 23.0296 17.7424 23.3074 18.9381C23.3919 19.3366 23.0899 19.7231 22.6793 19.7231H21.9546C21.701 19.7231 21.4836 19.5661 21.387 19.3246C21.2783 19.0468 21.0125 18.8656 20.6623 18.8656C20.1671 18.8656 19.8651 19.1555 19.8651 19.6265C19.8651 20.0009 20.1429 20.2546 20.7831 20.3391C22.3049 20.4961 23.6455 20.9309 23.6455 22.9721C23.6455 24.5785 22.474 25.593 20.7106 25.593C19.2371 25.593 18.1863 24.8683 17.8723 23.6968C17.7515 23.262 18.0776 22.8392 18.5366 22.8392H19.2009L19.1888 22.8272Z" fill="#223838"/>
<path d="M21.2783 17.7303H19.7927V16.4983C19.7927 16.1843 20.0464 15.9307 20.3604 15.9307H20.6986C21.0126 15.9307 21.2662 16.1843 21.2662 16.4983V17.7303H21.2783Z" fill="#223838"/>
<path d="M20.7469 26.4383H20.3242C20.0343 26.4383 19.7927 26.1967 19.7927 25.9069V24.6387H21.2783V25.9069C21.2783 26.1967 21.0368 26.4383 20.7469 26.4383Z" fill="#223838"/>
<path d="M19.9136 22.8272C20.1793 22.8272 20.4209 22.9842 20.5417 23.2257C20.6866 23.5156 20.9886 23.6968 21.3992 23.6968C21.9548 23.6968 22.3171 23.419 22.3171 22.9479C22.3171 22.2716 21.5804 22.2233 21.1577 22.187C19.8532 22.0904 18.5488 21.3899 18.5488 19.6386C18.5488 17.996 19.6721 16.9814 21.3509 16.9814C22.764 16.9814 23.7544 17.7424 24.0322 18.9381C24.1168 19.3366 23.8148 19.7231 23.4042 19.7231H22.6795C22.4258 19.7231 22.2084 19.5661 22.1118 19.3246C22.0031 19.0468 21.7374 18.8656 21.3871 18.8656C20.8919 18.8656 20.59 19.1555 20.59 19.6265C20.59 20.0009 20.8678 20.2546 21.5079 20.3391C23.0297 20.4961 24.3704 20.9309 24.3704 22.9721C24.3704 24.5785 23.1988 25.593 21.4355 25.593C19.9619 25.593 18.9112 24.8683 18.5971 23.6968C18.4764 23.262 18.8025 22.8392 19.2614 22.8392H19.9257L19.9136 22.8272Z" fill="white"/>
<path d="M22.0029 17.7303H20.5173V16.4983C20.5173 16.1843 20.771 15.9307 21.085 15.9307H21.4232C21.7372 15.9307 21.9908 16.1843 21.9908 16.4983V17.7303H22.0029Z" fill="white"/>
<path d="M21.4715 26.4383H21.0488C20.7589 26.4383 20.5173 26.1967 20.5173 25.9069V24.6387H22.0029V25.9069C22.0029 26.1967 21.7614 26.4383 21.4715 26.4383Z" fill="white"/>
</g>
<defs>
<clipPath id="clip0_1202_5300">
<rect width="18.6" height="20.931" fill="white" transform="translate(11 10)"/>
</clipPath>
</defs>
</svg>
