<svg width="449" height="448" viewBox="0 0 449 448" fill="none" xmlns="http://www.w3.org/2000/svg">
<rect width="447.401" height="447.401" transform="translate(0.98877 0.0566406)" fill="white"/>
<g clip-path="url(#clip0_1243_9752)">
<path d="M303.934 241.626V251.915C303.934 255.314 304.598 259.801 303.124 262.988C301.545 266.386 298.212 268.152 294.575 268.165C293.3 268.165 292.012 268.165 290.738 268.165H172.157C169.262 268.165 165.811 268.617 162.97 267.9C158.695 266.824 156.225 263.001 156.212 258.739C156.212 256.748 156.212 254.756 156.212 252.778V228.045C156.212 214.251 155.986 200.444 156.212 186.651C156.292 181.672 160.208 177.769 165.187 177.703C166.103 177.689 167.032 177.703 167.948 177.703H285.945C288.946 177.703 291.959 177.649 294.96 177.703C299.991 177.782 303.855 181.725 303.934 186.73C303.987 190.301 303.934 193.859 303.934 197.431V206.591C303.934 209.153 307.917 209.153 307.917 206.591C307.917 199.94 308.037 193.262 307.917 186.611C307.784 179.495 302.129 173.826 295.013 173.706C294.256 173.706 293.499 173.706 292.756 173.706H173.245C170.391 173.706 167.523 173.587 164.669 173.706C157.739 174.012 152.349 179.707 152.229 186.597C152.203 187.938 152.229 189.279 152.229 190.62V213.893C152.229 228.921 152.123 243.963 152.229 258.991C152.269 264.474 155.495 269.373 160.66 271.325C162.545 272.042 164.483 272.135 166.461 272.135H285.029C288.322 272.135 291.614 272.188 294.907 272.135C300.496 272.055 305.448 268.63 307.267 263.293C308.475 259.775 307.917 255.394 307.917 251.743V241.613C307.917 239.051 303.934 239.051 303.934 241.613V241.626Z" fill="#221F20"/>
<path d="M229.23 157.869C234.443 157.869 238.669 153.643 238.669 148.429C238.669 143.216 234.443 138.99 229.23 138.99C224.017 138.99 219.791 143.216 219.791 148.429C219.791 153.643 224.017 157.869 229.23 157.869Z" fill="url(#paint0_linear_1243_9752)"/>
<path d="M169.727 166.578C174.94 166.578 179.166 162.352 179.166 157.138C179.166 151.925 174.94 147.699 169.727 147.699C164.514 147.699 160.288 151.925 160.288 157.138C160.288 162.352 164.514 166.578 169.727 166.578Z" fill="url(#paint1_linear_1243_9752)"/>
<path d="M295.491 154.35C300.704 154.35 304.93 150.124 304.93 144.911C304.93 139.698 300.704 135.472 295.491 135.472C290.277 135.472 286.051 139.698 286.051 144.911C286.051 150.124 290.277 154.35 295.491 154.35Z" fill="url(#paint2_linear_1243_9752)"/>
<path d="M181.012 159.129H194.327L192.336 157.138V173.932C192.336 176.494 196.319 176.494 196.319 173.932V157.138C196.319 156.063 195.403 155.146 194.327 155.146H181.012C178.449 155.146 178.449 159.129 181.012 159.129Z" fill="#221F20"/>
<path d="M283.967 143.291H260.269C259.194 143.291 258.278 144.207 258.278 145.282V173.932C258.278 176.494 262.261 176.494 262.261 173.932V145.282L260.269 147.274H283.967C286.529 147.274 286.529 143.291 283.967 143.291Z" fill="#221F20"/>
<path d="M227.212 160.099V173.932C227.212 175.008 228.128 175.924 229.203 175.924C230.279 175.924 231.195 175.008 231.195 173.932V160.099C231.195 159.023 230.279 158.107 229.203 158.107C228.128 158.107 227.212 159.023 227.212 160.099Z" fill="#221F20"/>
<path d="M229.23 306.666C234.443 306.666 238.669 302.439 238.669 297.226C238.669 292.013 234.443 287.787 229.23 287.787C224.017 287.787 219.791 292.013 219.791 297.226C219.791 302.439 224.017 306.666 229.23 306.666Z" fill="url(#paint3_linear_1243_9752)"/>
<path d="M169.727 297.957C174.94 297.957 179.166 293.731 179.166 288.517C179.166 283.304 174.94 279.078 169.727 279.078C164.514 279.078 160.288 283.304 160.288 288.517C160.288 293.731 164.514 297.957 169.727 297.957Z" fill="url(#paint4_linear_1243_9752)"/>
<path d="M295.491 310.184C300.704 310.184 304.93 305.958 304.93 300.745C304.93 295.532 300.704 291.306 295.491 291.306C290.277 291.306 286.051 295.532 286.051 300.745C286.051 305.958 290.277 310.184 295.491 310.184Z" fill="url(#paint5_linear_1243_9752)"/>
<path d="M181.012 290.509H194.327C195.403 290.509 196.319 289.593 196.319 288.518V271.723C196.319 269.161 192.336 269.161 192.336 271.723V288.518L194.327 286.526H181.012C178.449 286.526 178.449 290.509 181.012 290.509Z" fill="#221F20"/>
<path d="M283.967 298.382H260.269L262.261 300.373V271.723C262.261 269.161 258.278 269.161 258.278 271.723V300.373C258.278 301.448 259.194 302.364 260.269 302.364H283.967C286.529 302.364 286.529 298.382 283.967 298.382Z" fill="#221F20"/>
<path d="M231.195 285.544V271.71C231.195 270.635 230.279 269.719 229.203 269.719C228.128 269.719 227.212 270.635 227.212 271.71V285.544C227.212 286.619 228.128 287.535 229.203 287.535C230.279 287.535 231.195 286.619 231.195 285.544Z" fill="#221F20"/>
<path d="M310.705 238.361C301.611 238.361 292.53 238.361 283.436 238.361C280.183 238.361 276.944 238.401 273.691 238.361C269.669 238.308 265.859 236.502 263.389 233.289C261.172 230.408 260.721 227.156 260.721 223.651C260.721 220.146 261.199 216.761 263.509 213.866C265.978 210.747 269.735 208.994 273.705 208.941C276.997 208.901 280.303 208.941 283.595 208.941H301.266C304.465 208.941 307.744 208.755 310.944 208.941C317.303 209.339 315.962 217.172 315.962 221.513V230.023C315.962 231.802 316.214 233.873 315.391 235.506C314.489 237.285 312.683 238.294 310.731 238.347C308.169 238.427 308.169 242.41 310.731 242.33C315.537 242.184 319.507 238.639 319.918 233.794C320.078 231.962 319.958 230.09 319.958 228.244V218.593C319.958 216.668 320.131 214.636 319.826 212.725C319.135 208.211 315.205 205.051 310.718 204.932C309.59 204.905 308.448 204.932 307.306 204.932H289.583C284.591 204.932 279.599 204.932 274.594 204.932C267.319 204.932 260.734 208.715 257.959 215.632C256.698 218.765 256.711 222.044 256.751 225.363C256.804 229.984 258.65 234.471 262.022 237.657C265.208 240.657 269.35 242.264 273.718 242.317C274.886 242.33 276.055 242.317 277.223 242.317C288.109 242.317 298.995 242.317 309.882 242.317H310.718C313.28 242.317 313.28 238.334 310.718 238.334L310.705 238.361Z" fill="#221F20"/>
<path d="M281.537 222.389C281.537 222.562 281.537 222.735 281.511 222.92C281.484 223.305 281.511 222.987 281.511 222.907C281.458 223.186 281.405 223.465 281.312 223.73C281.259 223.89 281.205 224.049 281.139 224.208C281.166 224.129 281.312 223.863 281.139 224.195C280.98 224.487 280.82 224.766 280.635 225.045C280.369 225.443 280.807 224.925 280.595 225.098C280.489 225.177 280.409 225.31 280.316 225.403C280.236 225.483 280.157 225.562 280.077 225.629C280.024 225.669 279.599 226.014 279.971 225.735C279.745 225.908 279.519 226.054 279.28 226.186C279.187 226.239 279.081 226.293 278.988 226.346C278.776 226.439 278.789 226.439 279.002 226.346C278.922 226.372 278.842 226.412 278.763 226.439C278.497 226.518 278.232 226.611 277.953 226.664C277.847 226.691 277.462 226.731 277.886 226.691C277.74 226.704 277.594 226.717 277.448 226.717C277.156 226.717 276.864 226.717 276.572 226.691C276.24 226.691 277.024 226.797 276.506 226.678C276.333 226.638 276.174 226.611 276.015 226.558C275.855 226.505 275.696 226.452 275.537 226.399C275.444 226.372 275.218 226.226 275.537 226.399C275.298 226.266 275.045 226.146 274.806 226C274.687 225.921 274.581 225.841 274.461 225.761C274.209 225.602 274.767 226.067 274.408 225.708C274.169 225.469 273.943 225.244 273.718 225.005C273.97 225.27 273.784 225.098 273.718 225.005C273.625 224.872 273.532 224.726 273.452 224.593C273.399 224.5 273.346 224.407 273.293 224.301C273.266 224.235 273.041 223.744 273.213 224.168C273.107 223.903 273.027 223.637 272.948 223.372C272.921 223.266 272.895 223.146 272.868 223.04C272.775 222.655 272.868 223.319 272.842 222.801C272.828 222.535 272.815 222.27 272.842 222.004C272.842 221.925 272.934 221.367 272.842 221.845C272.868 221.739 272.881 221.619 272.908 221.513C272.974 221.234 273.054 220.969 273.147 220.703C273.306 220.199 272.948 221.022 273.213 220.571C273.293 220.425 273.373 220.278 273.452 220.132C273.519 220.013 273.598 219.907 273.678 219.787C273.744 219.694 273.983 219.429 273.718 219.734C273.904 219.522 274.076 219.323 274.289 219.137C274.289 219.137 274.687 218.778 274.461 218.977C274.236 219.177 274.66 218.845 274.66 218.845C274.939 218.659 275.231 218.5 275.523 218.353C275.457 218.393 275.152 218.486 275.523 218.353C275.683 218.3 275.842 218.247 276.001 218.194C276.107 218.168 276.227 218.141 276.333 218.115C276.333 218.115 276.877 218.022 276.572 218.061C276.267 218.101 276.824 218.048 276.824 218.048C276.97 218.048 277.116 218.048 277.262 218.048C277.409 218.048 277.555 218.061 277.701 218.075C278.165 218.088 277.448 217.995 277.86 218.101C278.192 218.181 278.51 218.274 278.842 218.38C279.307 218.539 278.683 218.234 278.909 218.407C279.055 218.513 279.254 218.579 279.426 218.685C279.519 218.738 279.612 218.805 279.705 218.858C279.798 218.924 279.891 218.977 279.971 219.044C279.785 218.898 279.785 218.898 279.957 219.044C280.157 219.243 280.343 219.429 280.542 219.628C280.913 220 280.356 219.309 280.635 219.747C280.728 219.88 280.82 220.026 280.9 220.159C280.98 220.292 281.059 220.451 281.139 220.597C281.338 220.956 281.059 220.305 281.205 220.73C281.312 221.062 281.391 221.38 281.484 221.712C281.511 221.805 281.524 222.097 281.484 221.699C281.511 221.938 281.524 222.164 281.524 222.403C281.537 223.438 282.427 224.447 283.515 224.394C284.604 224.341 285.52 223.518 285.507 222.403C285.454 218.871 283.277 215.818 279.984 214.57C276.692 213.322 272.988 214.41 270.863 216.999C268.739 219.588 268.195 223.571 270.027 226.638C271.859 229.704 275.377 231.165 278.842 230.541C282.706 229.85 285.454 226.239 285.507 222.389C285.52 221.354 284.578 220.345 283.515 220.398C282.453 220.451 281.537 221.274 281.524 222.389H281.537Z" fill="#221F20"/>
<path d="M173.404 245.941L161.031 253.522C157.327 255.792 152.681 255.792 148.977 253.522L136.603 245.941C133.178 243.843 131.094 240.113 131.094 236.103V206.378C133.722 204.294 141.874 198.386 153.889 198.041C167.271 197.656 176.445 204.427 178.914 206.378V236.103C178.914 240.113 176.83 243.843 173.404 245.941Z" fill="#C5D8E3"/>
<path d="M138.807 227.103C141.568 229.864 144.317 232.612 147.078 235.374C147.888 236.183 149.069 236.064 149.892 235.374C155.827 230.369 161.761 225.363 167.696 220.358C168.545 219.642 169.395 218.925 170.245 218.208C172.209 216.548 169.382 213.747 167.43 215.393C161.496 220.398 155.561 225.403 149.627 230.408L147.078 232.559H149.892C147.131 229.798 144.383 227.05 141.621 224.288C139.803 222.469 136.988 225.284 138.807 227.103Z" fill="#221F20"/>
</g>
<defs>
<linearGradient id="paint0_linear_1243_9752" x1="219.804" y1="148.429" x2="238.669" y2="148.429" gradientUnits="userSpaceOnUse">
<stop stop-color="#9BCB9E"/>
<stop offset="1" stop-color="#78C1C4"/>
</linearGradient>
<linearGradient id="paint1_linear_1243_9752" x1="160.288" y1="157.138" x2="179.153" y2="157.138" gradientUnits="userSpaceOnUse">
<stop stop-color="#9BCB9E"/>
<stop offset="1" stop-color="#78C1C4"/>
</linearGradient>
<linearGradient id="paint2_linear_1243_9752" x1="286.051" y1="144.911" x2="304.93" y2="144.911" gradientUnits="userSpaceOnUse">
<stop stop-color="#9BCB9E"/>
<stop offset="1" stop-color="#78C1C4"/>
</linearGradient>
<linearGradient id="paint3_linear_1243_9752" x1="131.094" y1="297.226" x2="132.422" y2="297.226" gradientUnits="userSpaceOnUse">
<stop stop-color="#9BCB9E"/>
<stop offset="1" stop-color="#78C1C4"/>
</linearGradient>
<linearGradient id="paint4_linear_1243_9752" x1="160.288" y1="288.517" x2="179.153" y2="288.517" gradientUnits="userSpaceOnUse">
<stop stop-color="#9BCB9E"/>
<stop offset="1" stop-color="#78C1C4"/>
</linearGradient>
<linearGradient id="paint5_linear_1243_9752" x1="286.051" y1="300.745" x2="304.93" y2="300.745" gradientUnits="userSpaceOnUse">
<stop stop-color="#9BCB9E"/>
<stop offset="1" stop-color="#78C1C4"/>
</linearGradient>
<clipPath id="clip0_1243_9752">
<rect width="188.891" height="174.699" fill="white" transform="translate(131.094 135.472)"/>
</clipPath>
</defs>
</svg>
