<svg width="40" height="40" viewBox="0 0 40 40" fill="none" xmlns="http://www.w3.org/2000/svg">
<rect width="40" height="40" fill="white"/>
<g clip-path="url(#clip0_1202_5365)">
<path d="M20.1431 21.7016C22.5949 21.7016 24.5825 19.3761 24.5825 16.5075C24.5825 13.6389 22.5949 11.3135 20.1431 11.3135C17.6912 11.3135 15.7036 13.6389 15.7036 16.5075C15.7036 19.3761 17.6912 21.7016 20.1431 21.7016Z" fill="#7A9B3D"/>
<path d="M15.6658 16.4952C15.6658 18.5074 16.697 20.6077 18.6212 21.4251C19.489 21.7899 20.4825 21.8402 21.3754 21.5383C22.2809 21.2365 23.0481 20.6203 23.5889 19.8531C24.8339 18.1176 24.9597 15.6652 23.9787 13.7787C23.5386 12.9235 22.8594 12.1815 22.0043 11.7288C21.1491 11.276 20.1933 11.1503 19.2626 11.3641C17.2755 11.8294 15.9802 13.7536 15.7161 15.6903C15.6783 15.9544 15.6658 16.2311 15.6658 16.4952C15.6658 16.5581 15.7538 16.5581 15.7664 16.4952C15.7664 14.5333 16.7599 12.4833 18.6338 11.6659C19.489 11.2886 20.4699 11.2509 21.3629 11.5401C22.2558 11.8294 23.0229 12.4708 23.5637 13.2379C24.7459 14.9483 24.8717 17.3127 23.9284 19.1488C23.5008 19.9914 22.8343 20.7209 21.9917 21.1736C21.1491 21.6264 20.1933 21.7521 19.2878 21.5383C17.351 21.073 16.1059 19.2117 15.8418 17.3252C15.8041 17.0486 15.7915 16.7719 15.7915 16.4952C15.7915 16.4323 15.6909 16.4323 15.6909 16.4952H15.6658Z" fill="#0565AD"/>
<path d="M20.7717 21.7016C23.2236 21.7016 25.2112 19.3761 25.2112 16.5075C25.2112 13.6389 23.2236 11.3135 20.7717 11.3135C18.3199 11.3135 16.3323 13.6389 16.3323 16.5075C16.3323 19.3761 18.3199 21.7016 20.7717 21.7016Z" fill="#AACD76"/>
<path d="M16.2947 16.4952C16.2947 18.5074 17.3259 20.6077 19.2501 21.4251C20.1179 21.7899 21.1114 21.8402 22.0043 21.5383C22.8973 21.2365 23.677 20.6203 24.2178 19.8531C25.4628 18.1176 25.5886 15.6652 24.6077 13.7787C24.1675 12.9235 23.4884 12.1815 22.6332 11.7288C21.778 11.276 20.8222 11.1503 19.8915 11.3641C17.9045 11.8294 16.6091 13.7536 16.345 15.6903C16.3073 15.9544 16.2947 16.2311 16.2947 16.4952C16.2947 16.5581 16.3827 16.5581 16.3953 16.4952C16.3953 14.5333 17.3888 12.4833 19.2627 11.6659C20.1179 11.2886 21.0988 11.2509 21.9918 11.5401C22.8847 11.8294 23.6518 12.4708 24.1926 13.2379C25.3748 14.9483 25.5006 17.3127 24.5573 19.1488C24.1298 19.9914 23.4632 20.7209 22.6206 21.1736C21.778 21.6264 20.8222 21.7521 19.9167 21.5383C17.9799 21.073 16.7349 19.2117 16.4707 17.3252C16.433 17.0486 16.4204 16.7719 16.4204 16.4952C16.4204 16.4323 16.3198 16.4323 16.3198 16.4952H16.2947Z" fill="#0565AD"/>
<path d="M25.8526 9.03729L25.4754 10.383L25.425 10.5716C25.425 10.5716 25.5005 10.6596 25.5131 10.5968L25.8904 9.25109L25.9407 9.06245C25.9407 9.06245 25.8652 8.97441 25.8526 9.03729Z" fill="#0565AD"/>
<path d="M29.8898 14.5462C29.4245 14.521 28.9591 14.4959 28.4938 14.4707H28.2926C28.2926 14.4707 28.2297 14.5462 28.2926 14.5587C28.7579 14.5839 29.2232 14.609 29.6886 14.6342H29.8898C29.8898 14.6342 29.9527 14.5587 29.8898 14.5462Z" fill="#0565AD"/>
<path d="M28.8962 11.2128L27.4876 12.1812L27.2864 12.3195C27.2864 12.3195 27.2864 12.4327 27.3367 12.395L28.7452 11.4266L28.9465 11.2882C28.9465 11.2882 28.9465 11.175 28.8962 11.2128Z" fill="#0565AD"/>
<path d="M17.5899 9.85503C20.407 8.81119 23.7146 9.71669 25.6136 12.0307C27.5001 14.3448 27.7893 17.6649 26.2425 20.2431C24.6956 22.8338 21.6269 24.1669 18.6589 23.6136C15.2884 22.9847 12.8989 19.9538 12.8486 16.5834C12.8864 13.5902 14.7477 10.8989 17.5773 9.85503H17.5899ZM17.9798 22.1924C20.3567 23.0476 23.0355 22.3308 24.6704 20.4066C26.2928 18.495 26.494 15.6653 25.2112 13.5273C23.9284 11.4019 21.3628 10.2323 18.9104 10.7228C16.1059 11.2887 14.0937 13.7411 14.0685 16.5834C14.0937 19.0483 15.628 21.3372 17.9924 22.1924H17.9798Z" fill="#223838"/>
<path d="M18.2188 9.85476C21.0359 8.81092 24.3435 9.71642 26.2425 12.043C28.129 14.3697 28.4183 17.7024 26.8714 20.2931C25.3245 22.8964 22.2558 24.2295 19.2878 23.6762C15.9174 23.0474 13.5278 19.9913 13.4775 16.6208C13.5153 13.6151 15.3766 10.9112 18.2063 9.86733L18.2188 9.85476ZM18.6087 22.2425C20.9856 23.0977 23.6644 22.3808 25.2993 20.4566C26.9217 18.5324 27.1229 15.7028 25.8401 13.5396C24.5573 11.4016 21.9917 10.232 19.5393 10.7225C16.7348 11.2885 14.7226 13.766 14.6974 16.6083C14.7226 19.0858 16.2569 21.3873 18.6213 22.2425H18.6087Z" fill="#994200"/>
<path d="M20.6461 23.8646C20.1933 23.8646 19.7406 23.8268 19.2878 23.7388C15.9299 23.11 13.4776 20.1168 13.4272 16.6206C13.465 13.5897 15.3766 10.848 18.1937 9.80418C21.0485 8.74777 24.3687 9.65326 26.2929 12.0176C28.2296 14.3946 28.4811 17.7273 26.9217 20.3306C25.6012 22.544 23.1865 23.8771 20.6335 23.8771L20.6461 23.8646ZM18.2314 9.91737C15.4646 10.9486 13.5782 13.64 13.5404 16.6206C13.5782 20.0539 16.0054 22.9968 19.3004 23.613C22.2684 24.1664 25.2868 22.8207 26.8085 20.2551C28.3302 17.7021 28.0787 14.4197 26.1797 12.0805C24.3058 9.76645 21.0359 8.87353 18.2314 9.91737ZM20.6587 22.6698C19.967 22.6698 19.2627 22.5566 18.5961 22.3051C16.2569 21.4625 14.6723 19.1736 14.6346 16.6206C14.6723 13.7406 16.7348 11.2379 19.5268 10.6719C21.9917 10.1815 24.6076 11.3511 25.8904 13.5142C27.1984 15.7025 26.972 18.5699 25.3371 20.4941C24.1549 21.9026 22.4193 22.6698 20.6461 22.6698H20.6587ZM18.6339 22.1919C20.9856 23.0471 23.6393 22.3302 25.249 20.4186C26.8336 18.5322 27.06 15.7151 25.7898 13.5771C24.5196 11.4517 21.954 10.3072 19.5519 10.7851C16.8103 11.3385 14.7855 13.7909 14.7603 16.608C14.7981 19.1107 16.3575 21.3493 18.6339 22.1793V22.1919Z" fill="black"/>
<path d="M17.175 24.2676L15.4143 23.2363L11.327 28.7322C11 29.1724 10.9119 29.7383 11.088 30.2665C11.3647 31.0714 12.2073 31.5493 13.0373 31.3607L13.314 31.2978C13.8297 31.1846 14.2573 30.8324 14.4711 30.342L17.175 24.2676Z" fill="#223838"/>
<path d="M16.0347 22.1946L15.3083 23.4307L17.0649 24.4629L17.7913 23.2268L16.0347 22.1946Z" fill="#223838"/>
<path d="M17.5649 24.5059L15.8042 23.4746L11.7169 28.9579C11.3899 29.3981 11.3018 29.964 11.4779 30.4922C11.7546 31.2971 12.5972 31.775 13.4272 31.5864L13.7039 31.5235C14.2196 31.4103 14.6471 31.0582 14.8609 30.5677L17.5649 24.4933V24.5059Z" fill="#0565AD"/>
<path d="M17.6278 24.4681C17.0367 24.1286 16.4582 23.7764 15.8671 23.4368C15.8419 23.4243 15.8168 23.4369 15.8042 23.4494C15.1754 24.292 14.5466 25.1347 13.9178 25.9773C13.1883 26.9457 12.4715 27.914 11.742 28.895C11.1887 29.6496 11.2767 30.7186 12.0313 31.3097C12.4463 31.6366 12.9745 31.7372 13.4776 31.6366C13.9429 31.536 14.3705 31.3851 14.6849 30.9952C14.9364 30.6934 15.0748 30.2658 15.2383 29.9137L16.0935 27.9895C16.5965 26.8576 17.0996 25.7257 17.6026 24.5939L17.6278 24.531C17.6278 24.531 17.5649 24.4304 17.5523 24.4807C17.1373 25.4113 16.7223 26.342 16.3073 27.2726C15.8294 28.3542 15.3515 29.4232 14.8736 30.5048C14.7352 30.8192 14.5214 31.0959 14.2196 31.2845C13.8297 31.5234 13.2512 31.6492 12.811 31.5612C12.2325 31.4606 11.742 31.0455 11.5534 30.4796C11.3773 29.964 11.4779 29.4106 11.8049 28.9704C12.4463 28.1027 13.1003 27.2349 13.7417 26.3671C14.446 25.4239 15.1502 24.4807 15.8545 23.5375L15.8922 23.4872H15.8294C16.4205 23.8519 16.999 24.1914 17.5901 24.5436C17.6404 24.5687 17.6907 24.4933 17.6404 24.4681H17.6278Z" fill="#0565AD"/>
<path d="M16.4256 22.4319L15.6992 23.668L17.4558 24.7002L18.1821 23.4641L16.4256 22.4319Z" fill="#AAABAD"/>
<path d="M15.6659 23.7134C16.2569 24.053 16.8355 24.4051 17.4265 24.7447C17.4517 24.7573 17.4769 24.7447 17.4894 24.7321C17.7284 24.3171 17.9799 23.9021 18.2189 23.487C18.2314 23.4619 18.2189 23.4367 18.2063 23.4242C17.6152 23.0846 17.0367 22.7325 16.4456 22.3929C16.4204 22.3803 16.3953 22.3929 16.3827 22.4055C16.1438 22.8205 15.8922 23.2355 15.6533 23.6505C15.6281 23.7008 15.7036 23.7512 15.7287 23.7008C15.9677 23.2858 16.2192 22.8708 16.4582 22.4558H16.3953C16.9864 22.8205 17.5649 23.1601 18.156 23.5122V23.4493C17.8919 23.8643 17.6529 24.2794 17.414 24.6944H17.4769C16.8858 24.3297 16.3073 23.9901 15.7162 23.638C15.6659 23.6128 15.6156 23.6883 15.6659 23.7134Z" fill="black"/>
<path d="M22.0295 14.395C22.3061 14.6591 22.4571 14.9987 22.4571 15.4388C22.4571 15.9293 22.3061 16.2814 22.0043 16.5204C21.7025 16.7593 21.3 16.8725 20.7844 16.8725L20.7593 17.5265H20.2059L20.1807 16.4324H20.382C20.8347 16.4324 21.1994 16.3569 21.4635 16.2186C21.7276 16.0802 21.8534 15.8161 21.8534 15.4388C21.8534 15.1621 21.7654 14.9358 21.6019 14.7849C21.4384 14.6214 21.212 14.5459 20.9227 14.5459C20.6335 14.5459 20.4071 14.6214 20.2436 14.7849C20.0801 14.9358 19.9921 15.1496 19.9921 15.4262H19.3884C19.3884 15.1496 19.4513 14.898 19.5771 14.6968C19.7028 14.483 19.8789 14.3195 20.1053 14.2063C20.3317 14.0932 20.5958 14.0303 20.8976 14.0303C21.3503 14.0303 21.7276 14.156 22.0043 14.4201L22.0295 14.395ZM20.1807 18.8344C20.0927 18.7464 20.055 18.6458 20.055 18.5326C20.055 18.4194 20.0927 18.3062 20.1807 18.2308C20.2688 18.1427 20.3694 18.105 20.4826 18.105C20.5958 18.105 20.6964 18.1427 20.7718 18.2308C20.8473 18.3188 20.8976 18.4194 20.8976 18.5326C20.8976 18.6458 20.8599 18.759 20.7718 18.8344C20.6964 18.9225 20.5958 18.9602 20.4826 18.9602C20.3694 18.9602 20.2562 18.9225 20.1807 18.8344Z" fill="white"/>
</g>
<defs>
<clipPath id="clip0_1202_5365">
<rect width="18.94" height="22.6752" fill="white" transform="translate(11 9)"/>
</clipPath>
</defs>
</svg>
