<svg width="652" height="652" viewBox="0 0 652 652" fill="none" xmlns="http://www.w3.org/2000/svg">
<rect width="652" height="652" fill="white"/>
<path d="M379.022 480.761L474.302 429.196L345.705 364.44L320.415 378.123L164.404 462.56L314.77 538.277L379.022 503.505L414.967 484.047C403.232 484.564 391.133 483.472 379.022 480.761Z" fill="#273738"/>
<path d="M205.549 372.421C242.493 372.421 272.441 352.644 272.441 328.249C272.441 303.853 242.493 284.077 205.549 284.077C168.606 284.077 138.657 303.853 138.657 328.249C138.657 352.644 168.606 372.421 205.549 372.421Z" fill="#273738"/>
<path d="M205.549 358.573C242.493 358.573 272.441 338.797 272.441 314.401C272.441 290.005 242.493 270.229 205.549 270.229C168.606 270.229 138.657 290.005 138.657 314.401C138.657 338.797 168.606 358.573 205.549 358.573Z" fill="#2B63A8"/>
<path d="M205.561 358.713C168.594 358.713 138.516 338.833 138.516 314.4C138.516 289.967 168.583 270.087 205.549 270.087C242.516 270.087 272.582 289.967 272.582 314.4C272.582 338.833 242.516 358.713 205.549 358.713H205.561ZM205.561 270.369C168.759 270.369 138.81 290.119 138.81 314.4C138.81 338.681 168.747 358.42 205.549 358.42C242.351 358.42 272.289 338.669 272.289 314.4C272.289 290.131 242.351 270.38 205.549 270.38L205.561 270.369Z" fill="#2B63A8"/>
<path d="M205.549 347.213C242.493 347.213 272.441 327.436 272.441 303.041C272.441 278.645 242.493 258.868 205.549 258.868C168.606 258.868 138.658 278.645 138.658 303.041C138.658 327.436 168.606 347.213 205.549 347.213Z" fill="#EBF0F8"/>
<path d="M272.006 303.041C271.877 325.972 247.702 339.515 228.151 344.174C214.866 347.342 200.784 347.624 187.37 345.112C175.6 342.906 163.9 338.47 154.452 330.983C146.707 324.845 140.37 316.29 139.279 306.233C138.222 296.481 142.318 287.233 148.89 280.192C156.717 271.813 167.385 266.38 178.264 263.152C191.196 259.315 205.032 258.399 218.399 260.113C230.686 261.697 242.961 265.605 253.265 272.599C261.55 278.221 268.814 286.236 271.197 296.199C271.736 298.441 271.995 300.729 272.006 303.029C272.006 303.593 272.886 303.593 272.886 303.029C272.757 279.852 248.641 265.98 228.82 261.145C215.242 257.836 200.854 257.531 187.136 260.101C175.095 262.354 163.16 266.955 153.537 274.688C145.815 280.896 139.619 289.475 138.434 299.509C137.272 309.343 141.262 318.766 147.798 325.972C155.649 334.644 166.54 340.278 177.618 343.622C190.926 347.647 205.22 348.586 218.974 346.744C231.519 345.066 244.064 340.982 254.485 333.67C262.7 327.908 269.824 319.776 272.112 309.777C272.617 307.559 272.863 305.294 272.875 303.018C272.875 302.454 271.995 302.454 271.995 303.018L272.006 303.041Z" fill="#2B63A8"/>
<path d="M206.335 197.657H206.323C200.924 197.657 196.547 202.033 196.547 207.432V299.978C196.547 305.377 200.924 309.753 206.323 309.753H206.335C211.734 309.753 216.11 305.377 216.11 299.978V207.432C216.11 202.033 211.734 197.657 206.335 197.657Z" fill="#EBF0F8"/>
<path d="M206.323 310.34C200.608 310.34 195.961 305.693 195.961 299.978V207.444C195.961 201.729 200.608 197.082 206.323 197.082C212.039 197.082 216.686 201.729 216.686 207.444V299.978C216.686 305.693 212.039 310.34 206.323 310.34ZM206.323 198.243C201.254 198.243 197.135 202.362 197.135 207.432V299.966C197.135 305.036 201.254 309.155 206.323 309.155C211.393 309.155 215.512 305.036 215.512 299.966V207.444C215.512 202.374 211.393 198.255 206.323 198.255V198.243Z" fill="#2B63A8"/>
<path d="M266.756 110.461L206.519 170.698L220.353 184.531L280.589 124.294L266.756 110.461Z" fill="#EBF0F8"/>
<path d="M220.664 184.218L206.828 170.382V171.004L227.153 150.679L259.578 118.254L267.054 110.778H266.432L280.268 124.614V123.992L259.942 144.318L227.517 176.743L220.042 184.218C219.643 184.617 220.265 185.239 220.664 184.84L240.99 164.515L273.415 132.09L280.89 124.614C281.054 124.45 281.054 124.156 280.89 123.992L267.054 110.156C266.89 109.992 266.596 109.992 266.432 110.156L246.106 130.482L213.681 162.907L206.206 170.382C206.041 170.547 206.041 170.84 206.206 171.004L220.042 184.84C220.441 185.239 221.063 184.617 220.664 184.218Z" fill="#2B63A8"/>
<path d="M261.632 116.929C261.538 117.539 261.503 118.149 261.527 118.771L264.777 218.757L378.846 154.377L298.317 99.5839C297.601 99.1027 296.827 98.7037 296.017 98.4221H292.86C279.869 98.4925 267.922 105.569 261.632 116.941V116.929Z" fill="#EBF0F8"/>
<path d="M261.257 116.705C260.788 117.55 261.116 119.768 261.151 120.813L261.374 127.737L262.137 151.372L263.088 180.675L263.909 206.094L264.179 214.52C264.226 215.811 264.062 217.313 264.308 218.581C264.308 218.639 264.308 218.698 264.308 218.757C264.308 219.085 264.672 219.308 264.965 219.132L276.337 212.713L303.528 197.363L336.54 178.739L364.975 162.696L374.387 157.38C375.807 156.582 377.567 155.878 378.846 154.857C378.905 154.81 378.975 154.787 379.034 154.752C379.339 154.576 379.304 154.176 379.034 153.989L367.298 146.009L340.941 128.077L313.667 109.511C308.715 106.143 303.775 102.74 298.81 99.3955C297.778 98.6914 296.675 97.9755 295.36 97.9755C292.027 97.9873 288.73 98.0929 285.456 98.7853C277.323 100.51 269.894 105.087 264.696 111.589C263.405 113.196 262.266 114.91 261.257 116.717C260.975 117.21 261.738 117.656 262.02 117.163C266.315 109.523 273.262 103.609 281.583 100.78C285.338 99.5011 289.258 98.9026 293.224 98.8792C294.691 98.8792 295.888 98.7149 297.214 99.4307C297.578 99.6302 297.919 99.8532 298.259 100.076C302.812 103.116 307.307 106.237 311.837 109.312L338.124 127.197L364.611 145.222L373.905 151.548L376.863 153.566C377.274 153.848 377.931 154.517 378.435 154.634C378.494 154.646 378.576 154.728 378.635 154.775V154.012L367.263 160.431L340.072 175.781L307.06 194.406L278.625 210.448L269.214 215.764L266.303 217.407C265.904 217.63 265.048 217.912 264.754 218.275C264.719 218.322 264.613 218.358 264.566 218.381L265.224 218.757L264.895 208.711L264.109 184.489L263.17 155.432L262.36 130.53C262.231 126.633 262.043 122.737 261.985 118.853C261.985 118.407 261.82 117.527 262.032 117.151C262.302 116.658 261.55 116.212 261.269 116.705H261.257Z" fill="#2B63A8"/>
<path d="M339.531 217.099C371.371 199.129 389.876 171.616 380.864 155.648C371.852 139.68 338.735 141.303 306.895 159.274C275.055 177.244 256.549 204.756 265.561 220.724C274.574 236.692 307.691 235.069 339.531 217.099Z" fill="#7694CC"/>
<path d="M380.477 155.878C384.233 162.649 382.66 170.735 379.621 177.46C375.443 186.672 368.519 194.558 361.043 201.259C351.256 210.037 339.92 217.137 327.914 222.453C316.59 227.464 304.197 231.114 291.722 231.278C283.249 231.396 273.251 229.823 267.547 222.876C262.689 216.961 263.088 208.957 265.505 202.116C268.803 192.821 275.316 184.782 282.31 177.988C291.441 169.116 302.167 161.887 313.55 156.254C325.121 150.538 337.807 146.243 350.751 145.293C359.565 144.636 370.08 145.363 376.992 151.571C378.377 152.815 379.538 154.27 380.477 155.878C380.759 156.371 381.522 155.925 381.24 155.432C376.863 147.828 367.873 145.011 359.612 144.377C347.219 143.427 334.557 146.595 323.103 151.078C310.382 156.054 298.353 163.084 287.85 171.838C279.564 178.739 271.819 186.965 266.925 196.67C263.545 203.348 261.281 211.527 264.167 218.792C267.277 226.608 275.34 230.375 283.202 231.595C294.82 233.391 306.978 230.961 317.974 227.253C331.294 222.782 343.921 215.952 355.058 207.373C363.895 200.567 372.145 192.446 377.849 182.776C381.792 176.086 384.925 167.848 383.047 160.009C382.66 158.413 382.05 156.876 381.252 155.432C380.982 154.939 380.219 155.385 380.489 155.878H380.477Z" fill="#2B63A8"/>
<path d="M207.144 207.35C217.741 207.35 226.332 198.76 226.332 188.163C226.332 177.566 217.741 168.975 207.144 168.975C196.547 168.975 187.957 177.566 187.957 188.163C187.957 198.76 196.547 207.35 207.144 207.35Z" fill="#EBF0F8"/>
<path d="M225.886 188.162C225.804 195.978 220.91 203.148 213.494 205.8C206.147 208.429 197.721 206.152 192.722 200.144C187.723 194.135 187.007 185.334 191.02 178.586C195.034 171.838 203.119 168.212 210.841 169.773C219.561 171.533 225.792 179.325 225.886 188.15C225.886 188.714 226.778 188.714 226.766 188.15C226.684 179.982 221.603 172.566 213.916 169.726C206.229 166.886 197.205 169.327 191.983 175.687C186.76 182.048 186.08 191.131 190.257 198.161C194.459 205.225 202.814 208.957 210.877 207.408C220.065 205.648 226.661 197.41 226.766 188.139C226.766 187.575 225.898 187.575 225.886 188.139V188.162Z" fill="#2B63A8"/>
<path d="M329.428 428.223L320.403 355.393L164.404 439.818L314.77 515.535L379.022 480.763C377.332 480.387 375.642 479.988 373.94 479.542C350 473.299 332.467 452.774 329.428 428.223Z" fill="#EBF0F8"/>
<path d="M329.874 428.223L326.811 403.531L321.964 364.37L320.849 355.393C320.814 355.064 320.509 354.841 320.192 355.017L304.69 363.408L267.453 383.558L222.389 407.944L183.428 429.032L170.519 436.015C168.535 437.083 166.329 438.022 164.463 439.289C164.381 439.348 164.287 439.383 164.193 439.43C163.911 439.582 163.9 440.04 164.193 440.193L172.267 444.253L193.156 454.768L221.838 469.214L253.324 485.069L282.592 499.809L304.631 510.91L311.332 514.29C312.306 514.783 313.374 515.534 314.43 515.851C315.31 516.121 316.484 515.112 317.247 514.701L326.834 509.514L356.408 493.507L378.107 481.76L379.245 481.149C379.573 480.973 379.503 480.434 379.139 480.34C373.8 479.143 368.589 477.687 363.625 475.317C359.248 473.228 355.117 470.599 351.373 467.501C343.992 461.399 338.136 453.536 334.345 444.746C332.08 439.477 330.59 433.903 329.862 428.211C329.792 427.659 328.912 427.648 328.982 428.211C331.505 448.02 343.546 465.905 361.337 475.153C366.899 478.051 372.79 479.8 378.893 481.173L378.787 480.363L363.073 488.871L333.136 505.078L320.932 511.685L316.848 513.891C316.261 514.208 315.228 514.537 314.759 515.018C314.442 515.346 314.641 514.795 314.982 515.123C314.935 515.077 314.829 515.077 314.782 515.03C314.524 514.771 313.937 514.607 313.609 514.443L308.363 511.802L288.624 501.862L260.635 487.768L229.477 472.078L199.81 457.139L176.715 445.509L169.145 441.695C167.831 441.038 166.505 440.193 165.132 439.676C164.956 439.606 164.78 439.5 164.616 439.418V440.181L180.118 431.79L217.355 411.64L262.419 387.254L301.38 366.166L314.289 359.183L318.256 357.035C318.866 356.707 319.84 356.39 320.345 355.909C320.403 355.85 320.533 355.803 320.615 355.768L319.958 355.393L323.02 380.084L327.867 419.245L328.982 428.223C329.052 428.774 329.933 428.786 329.862 428.223H329.874Z" fill="#2B63A8"/>
<path d="M500.32 388.392L326.295 150.526C321.789 151.993 316.566 154.047 310.98 156.946C305.394 159.844 300.7 162.919 296.91 165.759L320.416 355.403L345.706 341.72L496.072 417.437L474.302 429.219L496.072 440.18L414.98 484.071C437.348 483.085 458.389 476.243 475.664 463.487C487.716 454.591 496.318 444.006 502.467 433.96C511.116 419.819 510.119 401.782 500.332 388.403L500.32 388.392Z" fill="#FFFCD2"/>
<path d="M500.695 388.169L432.582 295.072L364.869 202.515L326.682 150.316C326.564 150.163 326.376 150.046 326.189 150.116C315.603 153.602 305.64 158.742 296.686 165.384C296.568 165.466 296.451 165.607 296.463 165.76L298.798 184.642L304.419 229.988L311.214 284.827L317.07 332.074L319.007 347.694C319.312 350.135 319.464 352.658 319.922 355.075C319.945 355.181 319.945 355.298 319.969 355.404C320.004 355.733 320.309 355.956 320.626 355.78L339.45 345.593L344.073 343.094C344.508 342.859 345.001 342.648 345.411 342.366C345.951 341.99 345.963 342.331 345.482 342.084C345.975 342.343 346.479 342.589 346.972 342.835L375.513 357.211L424.226 381.738L471.332 405.456L487.551 413.624L492.761 416.241C493.548 416.64 494.627 417.473 495.507 417.625C495.613 417.649 495.742 417.743 495.848 417.801V417.039L474.079 428.821C473.797 428.974 473.785 429.431 474.079 429.584L495.848 440.545V439.782L468.422 454.627L424.743 478.262L414.756 483.672C414.38 483.872 414.545 484.517 414.979 484.494C435.809 483.532 456.417 477.441 473.621 465.459C482.176 459.509 489.745 452.21 496.106 443.948C501.985 436.32 507.102 428.14 508.416 418.423C509.86 407.756 506.985 396.877 500.695 388.158C500.366 387.7 499.603 388.146 499.932 388.604C505.553 396.384 508.428 405.89 507.818 415.489C507.208 425.089 502.713 433.456 497.057 441.202C485.004 457.737 468.211 470.247 448.941 477.101C438.016 480.985 426.538 483.062 414.967 483.602L415.19 484.423L442.616 469.578L486.295 445.943L496.282 440.533C496.564 440.38 496.575 439.923 496.282 439.77L474.513 428.809V429.572L496.282 417.79C496.564 417.637 496.575 417.179 496.282 417.027L476.144 406.887L430.153 383.722L380.442 358.69L348.686 342.695C347.876 342.284 347.031 341.721 346.174 341.427C345.235 341.099 344.402 341.885 343.557 342.343L321.964 354.031L320.192 354.982L320.849 355.357L319.347 343.234L315.533 312.429L310.428 271.261L305.077 228.051L300.5 191.12L297.73 168.799L297.449 166.475C297.343 165.666 297.249 165.865 297.93 165.501C299.139 164.868 300.242 163.847 301.38 163.096C302.812 162.133 304.267 161.218 305.746 160.326C308.621 158.601 311.59 157.017 314.629 155.597C317.669 154.177 320.837 152.862 324.029 151.736C324.487 151.571 325.461 151.02 325.954 151.078C326.552 151.149 327.174 152.428 327.503 152.874L330.848 157.451L383.012 228.755L434.976 299.79L487.34 371.364L499.943 388.58C500.272 389.038 501.035 388.592 500.706 388.134L500.695 388.169Z" fill="#2B63A8"/>
<path d="M474.302 429.209L379.022 480.774C391.133 483.485 403.232 484.577 414.967 484.06L496.059 440.17L474.29 429.209H474.302Z" fill="#415B5F"/>
<path d="M345.693 341.708L320.404 355.392L329.428 428.222C332.468 452.784 350 473.297 373.941 479.541C375.631 479.987 377.32 480.386 379.022 480.761L496.06 417.425L345.693 341.708Z" fill="#FFFCD2"/>
<path d="M345.482 341.333L323.396 353.28L320.181 355.017C320.063 355.087 319.946 355.252 319.958 355.392L322.187 373.418L326.424 407.592C327.269 414.422 328.102 421.24 328.959 428.07C330.848 443.08 338.089 457.103 349.508 467.079C355.633 472.43 362.839 476.526 370.584 479.025C373.037 479.812 375.537 480.422 378.036 480.997C378.506 481.102 378.87 481.231 379.304 481.102C379.691 480.985 380.09 480.68 380.442 480.48L396.132 471.996L423.57 457.15L454.68 440.31L481.39 425.852L495.614 418.154L496.271 417.79C496.552 417.637 496.564 417.179 496.271 417.027L481.332 409.505L445.445 391.432L402.024 369.569L364.458 350.651L352.066 344.408C350.13 343.434 348.181 342.249 346.163 341.439C346.069 341.404 345.987 341.345 345.905 341.31C345.4 341.052 344.954 341.815 345.459 342.073L360.398 349.595L396.285 367.668L439.706 389.531L477.271 408.448L489.664 414.692L493.525 416.64C494.1 416.933 494.921 417.555 495.555 417.661C495.637 417.672 495.743 417.755 495.813 417.79V417.027L483.843 423.505L455.209 438.996L420.859 457.585L391.743 473.345L382.566 478.309L379.902 479.753C379.597 479.917 379.14 480.304 378.799 480.351C378.529 480.398 377.778 480.023 377.414 479.941C375.877 479.577 374.34 479.213 372.814 478.779C370.444 478.11 368.12 477.288 365.855 476.326C361.654 474.542 357.664 472.254 353.979 469.555C346.468 464.039 340.307 456.728 336.059 448.443C332.749 441.965 330.672 434.97 329.78 427.765C329.405 424.761 329.029 421.745 328.665 418.74L324.182 382.607L320.897 356.061C320.873 355.909 320.897 355.568 320.814 355.428C320.873 355.522 320.427 355.745 320.674 355.733C320.826 355.733 321.096 355.51 321.225 355.439L326.729 352.459L342.666 343.833L345.881 342.096C346.374 341.826 345.94 341.063 345.435 341.333H345.482Z" fill="#2B63A8"/>
<path d="M512.865 477.465C514.249 474.39 513.733 470.881 511.597 468.628C509.285 466.199 506.07 466.305 505.553 466.328L487.939 475.095L488.044 475.235C451.277 495.033 373.53 544.228 373.53 544.228L367.791 550.131L367.733 550.025L361.618 556.491L370.901 555.048L370.866 554.989L380.583 553.417L496.224 487.018L496.353 487.194L512.865 477.465Z" fill="#2A4850"/>
<path d="M378.764 546.163L511.045 470.2C511.045 470.2 514.296 460.541 504.45 459.872C494.604 459.204 371.711 536.962 371.711 536.962L359.787 549.238L378.752 546.163H378.764Z" fill="#57ABAF"/>
<path d="M378.987 546.539L394.407 537.679L430.353 517.036L471.662 493.319L503.171 475.223L510.494 471.022C510.917 470.775 511.269 470.646 511.503 470.224C511.856 469.567 511.891 468.51 511.961 467.783C512.09 466.375 511.961 464.908 511.421 463.582C510.259 460.8 507.02 459.228 504.075 459.427C503.019 459.498 501.963 459.908 500.988 460.284C497.139 461.739 493.454 463.675 489.805 465.577C477.529 471.984 465.571 479.037 453.66 486.102C439.565 494.457 425.565 502.977 411.611 511.579C400.944 518.151 390.3 524.77 379.691 531.424C377.203 532.985 374.715 534.546 372.239 536.118C371.887 536.341 371.558 536.541 371.242 536.822C368.906 538.923 366.817 541.376 364.623 543.629L359.471 548.933C359.142 549.274 359.483 549.731 359.893 549.673L378.858 546.598C379.421 546.504 379.175 545.659 378.623 545.753L359.659 548.828L360.081 549.567C363.989 545.554 367.733 541.27 371.852 537.456C371.934 537.374 372.392 537.069 372.755 536.834C373.694 536.247 374.621 535.661 375.56 535.062C384.479 529.453 393.41 523.878 402.364 518.327C415.719 510.054 429.121 501.827 442.593 493.73C456.065 485.632 468.305 478.356 481.414 471.104C486.12 468.499 490.861 465.917 495.708 463.582C498.207 462.373 501.071 460.706 503.875 460.343C506.891 459.955 510.154 461.856 510.893 464.884C511.21 466.187 511.151 467.595 510.893 468.909C510.835 469.238 510.694 469.578 510.659 469.907C510.623 470.236 510.612 469.977 510.776 469.848C509.368 470.869 507.678 471.632 506.176 472.489L478.515 488.367L438.556 511.31L400.733 533.032L379.527 545.213L378.518 545.788C378.025 546.07 378.471 546.833 378.963 546.551L378.987 546.539Z" fill="#2B63A8"/>
<path d="M378.764 546.163C378.857 545.753 379.538 542.69 377.473 539.932C375.36 537.115 372.121 536.975 371.711 536.963L359.787 549.238L378.752 546.163H378.764Z" fill="white"/>
<path d="M379.198 546.28C379.89 543.311 378.811 540.072 376.382 538.207C375.267 537.35 373.929 536.81 372.544 536.61C372.051 536.54 371.676 536.446 371.288 536.787C370.08 537.854 369 539.134 367.873 540.295L362.651 545.67L359.483 548.933C359.154 549.273 359.494 549.731 359.905 549.672L376.511 546.985L378.869 546.597C379.433 546.503 379.186 545.659 378.635 545.752L362.029 548.44L359.67 548.827L360.093 549.566L366.97 542.49L371.03 538.312C371.312 538.03 371.77 537.702 371.969 537.35C372.004 537.279 372.133 537.291 371.887 537.373C371.57 537.479 371.969 537.444 372.063 537.455C372.591 537.561 373.119 537.62 373.635 537.784C377.086 538.887 379.163 542.537 378.33 546.069C378.201 546.621 379.045 546.856 379.175 546.304L379.198 546.28Z" fill="#2B63A8"/>
<path d="M486.131 467.83L494.534 479.941L511.058 470.2C512.442 467.114 511.926 463.605 509.79 461.363C507.478 458.934 504.263 459.04 503.746 459.063C497.879 461.985 492.011 464.907 486.131 467.83Z" fill="#A5C661"/>
<path d="M485.756 468.053L494.159 480.164C494.299 480.363 494.546 480.445 494.757 480.316L508.37 472.301C509.227 471.796 510.084 471.303 510.929 470.787C512.02 470.118 512.173 468.346 512.255 467.172C512.536 462.572 509.074 458.875 504.533 458.629C503.453 458.57 502.737 459.075 501.763 459.568L496.482 462.197C492.962 463.945 489.441 465.705 485.92 467.454C485.416 467.712 485.862 468.463 486.366 468.217C492.011 465.412 497.714 462.678 503.312 459.779C504.767 459.028 506.974 459.849 508.253 460.671C510.659 462.208 511.727 465.119 511.292 467.888C511.21 468.44 511.081 469.519 510.706 469.907C510.553 470.071 510.224 470.188 510.025 470.306L507.232 471.949L499.44 476.537L494.311 479.553L494.91 479.706L486.507 467.595C486.19 467.137 485.427 467.571 485.744 468.041L485.756 468.053Z" fill="#2B63A8"/>
<path d="M365.914 542.773L369.082 547.784L359.8 549.239L365.914 542.773Z" fill="#2B63A8"/>
<path d="M302.213 392.488L312.353 397.534L336.845 409.727L366.347 424.42L391.872 437.13C395.991 439.183 400.087 441.554 404.335 443.338C404.394 443.361 404.452 443.396 404.511 443.42C405.52 443.924 406.412 442.411 405.403 441.894L395.264 436.848L370.772 424.655L341.269 409.962L315.744 397.253C311.625 395.199 307.529 392.828 303.281 391.045C303.223 391.021 303.164 390.986 303.105 390.962C302.096 390.458 301.204 391.972 302.213 392.488Z" fill="#2B63A8"/>
<path d="M279.177 407.639L289.317 412.685L313.808 424.879L343.311 439.571L368.836 452.281C372.955 454.335 377.051 456.705 381.299 458.489C381.357 458.512 381.416 458.548 381.475 458.571C382.484 459.076 383.376 457.562 382.367 457.045L372.227 451.999L347.735 439.806L318.233 425.113L292.708 412.404C288.589 410.35 284.493 407.98 280.245 406.196C280.186 406.172 280.128 406.137 280.069 406.114C279.06 405.609 278.168 407.123 279.177 407.639Z" fill="#2B63A8"/>
<path d="M256.14 422.801L266.28 427.847L290.771 440.04L320.274 454.733L345.799 467.443C349.918 469.496 354.014 471.867 358.262 473.651C358.321 473.674 358.379 473.709 358.438 473.733C359.447 474.237 360.339 472.724 359.33 472.207L349.19 467.161L324.699 454.968L295.196 440.275L269.671 427.566C265.552 425.512 261.456 423.141 257.208 421.358C257.149 421.334 257.091 421.299 257.032 421.275C256.023 420.771 255.131 422.285 256.14 422.801Z" fill="#2B63A8"/>
<path d="M233.104 437.952L243.243 442.998L267.735 455.191L297.238 469.884L322.763 482.593C326.882 484.647 330.977 487.017 335.226 488.801C335.284 488.825 335.343 488.86 335.402 488.883C336.411 489.388 337.303 487.874 336.293 487.358L326.154 482.311L301.662 470.118L272.159 455.426L246.635 442.716C242.516 440.662 238.42 438.292 234.172 436.508C234.113 436.485 234.054 436.449 233.996 436.426C232.986 435.921 232.095 437.435 233.104 437.952Z" fill="#2B63A8"/>
<path d="M373.448 390.576L378.06 413.518C377.849 413.636 377.72 413.471 377.579 413.389C375.936 412.415 374.316 411.418 372.662 410.444C372.309 410.232 372.133 409.998 372.063 409.622C370.631 402.463 369.188 395.293 367.744 388.135C367.674 387.771 367.709 387.489 367.909 387.196C368.273 386.632 368.648 386.069 368.941 385.459C369.211 384.896 369.481 384.825 370.115 385.224C371.453 386.081 372.802 386.914 374.222 387.618C375.994 388.498 377.825 389.109 379.761 389.109C381.71 389.109 383.317 388.487 384.526 387.149C384.89 386.75 384.89 386.527 384.315 386.186C380.395 383.863 376.487 381.504 372.579 379.145C372.251 378.946 371.922 378.746 371.441 378.465C372.849 377.901 374.117 377.385 375.396 376.88C375.689 376.763 375.901 377.009 376.124 377.138C379.292 379.04 382.449 380.941 385.617 382.842C385.817 382.959 386.028 383.229 386.239 383.112C386.427 382.994 386.322 382.701 386.31 382.478C386.157 380.248 384.749 378.605 382.954 377.185C380.818 375.484 378.4 374.193 376.077 372.773C375.83 372.62 375.584 372.468 375.185 372.233C376.581 371.67 377.86 371.165 379.128 370.649C379.339 370.567 379.492 370.684 379.668 370.79C387.037 375.226 394.407 379.65 401.765 384.074C401.777 384.344 401.542 384.332 401.39 384.403C400.404 384.802 399.395 385.177 398.433 385.611C397.975 385.811 397.635 385.752 397.189 385.471C395.463 384.403 393.715 383.37 391.884 382.267C391.931 382.865 392.002 383.393 392.013 383.91C392.037 384.614 391.978 385.295 391.755 385.94C391.614 386.351 391.755 386.562 392.178 386.808C394.137 387.959 396.085 389.144 398.198 390.411C397.318 390.763 396.496 390.986 395.804 391.397C394.607 392.101 393.527 391.995 392.318 391.033C391.708 390.54 390.969 390.212 390.3 389.789C390.007 389.601 389.819 389.566 389.572 389.824C386.932 392.617 383.388 393.216 379.327 392.512C377.52 392.195 375.783 391.585 374.105 390.74C373.952 390.658 373.788 390.599 373.636 390.529C373.6 390.517 373.542 390.529 373.448 390.54V390.576Z" fill="#2B63A8"/>
<path d="M377.919 413.705C377.778 413.705 377.66 413.623 377.578 413.564C377.555 413.541 377.531 413.529 377.508 413.517C376.886 413.142 376.264 412.778 375.654 412.402C374.633 411.792 373.623 411.182 372.602 410.583C372.215 410.349 372.016 410.091 371.933 409.668C370.596 402.979 369.187 395.949 367.615 388.18C367.533 387.77 367.591 387.453 367.791 387.136L367.861 387.03C368.202 386.514 368.554 385.974 368.824 385.411C368.929 385.2 369.082 384.942 369.34 384.859C369.563 384.801 369.821 384.871 370.197 385.118C371.476 385.939 372.837 386.796 374.292 387.512C376.322 388.521 378.059 388.99 379.773 388.99H379.784C381.709 388.99 383.27 388.345 384.432 387.077C384.584 386.901 384.655 386.784 384.643 386.702C384.631 386.608 384.502 386.491 384.256 386.338C381.251 384.554 378.2 382.723 375.255 380.94L372.52 379.297C372.192 379.097 371.875 378.909 371.417 378.64L371.135 378.464L372.403 377.959C373.424 377.548 374.398 377.161 375.36 376.774C375.665 376.656 375.888 376.821 376.076 376.95C376.123 376.985 376.17 377.008 376.217 377.044C377.883 378.041 379.538 379.039 381.204 380.036C382.707 380.94 384.209 381.843 385.711 382.747C385.77 382.782 385.828 382.829 385.887 382.876C386.028 382.982 386.122 383.064 386.192 383.017C386.251 382.982 386.227 382.864 386.204 382.7C386.204 382.641 386.18 382.583 386.18 382.524C386.051 380.646 385.03 379.05 382.883 377.325C381.275 376.046 379.468 374.966 377.719 373.934C377.156 373.593 376.581 373.265 376.017 372.913C375.865 372.819 375.7 372.725 375.501 372.608L374.867 372.232L376.322 371.645C377.273 371.258 378.177 370.906 379.092 370.53C379.338 370.425 379.55 370.554 379.714 370.659L379.761 370.683L401.929 384.003V384.085C401.953 384.425 401.694 384.484 401.554 384.531C401.518 384.531 401.495 384.542 401.46 384.554C401.119 384.695 400.767 384.836 400.415 384.965C399.782 385.211 399.124 385.47 398.502 385.751C398.021 385.962 397.634 385.927 397.118 385.599C395.874 384.824 394.63 384.085 393.315 383.299C392.905 383.052 392.482 382.794 392.048 382.547C392.048 382.641 392.06 382.735 392.071 382.829C392.107 383.205 392.142 383.557 392.154 383.921C392.177 384.719 392.095 385.399 391.884 386.009C391.778 386.326 391.848 386.479 392.236 386.702C393.691 387.547 395.111 388.415 396.625 389.331L398.502 390.457L398.233 390.563C397.951 390.68 397.681 390.774 397.411 390.868C396.848 391.067 396.32 391.267 395.862 391.537C394.606 392.276 393.456 392.147 392.212 391.173C391.825 390.868 391.379 390.61 390.945 390.375C390.698 390.234 390.44 390.093 390.206 389.941C389.936 389.776 389.842 389.776 389.666 389.953C387.189 392.581 383.786 393.473 379.28 392.675C377.531 392.37 375.759 391.772 374.022 390.891C373.882 390.821 373.741 390.762 373.6 390.704L378.2 413.588L378.106 413.635C378.024 413.682 377.954 413.693 377.895 413.693L377.919 413.705ZM369.492 385.118C369.492 385.118 369.446 385.118 369.41 385.118C369.293 385.153 369.187 385.27 369.082 385.505C368.8 386.08 368.448 386.631 368.108 387.159L368.037 387.265C367.873 387.523 367.838 387.77 367.896 388.098C369.469 395.867 370.877 402.897 372.215 409.586C372.285 409.926 372.426 410.126 372.743 410.313C373.764 410.912 374.785 411.522 375.794 412.133C376.416 412.508 377.027 412.884 377.649 413.247C377.684 413.271 377.707 413.294 377.742 413.318C377.801 413.365 377.836 413.388 377.872 413.4L373.248 390.434H373.412C373.412 390.434 373.471 390.41 373.494 390.41C373.541 390.41 373.6 390.387 373.67 390.41C373.835 390.481 373.999 390.551 374.151 390.621C375.865 391.49 377.602 392.077 379.327 392.382C383.728 393.156 387.037 392.288 389.443 389.741C389.748 389.413 390.029 389.483 390.346 389.683C390.581 389.835 390.827 389.976 391.074 390.105C391.52 390.352 391.978 390.61 392.377 390.938C393.527 391.854 394.548 391.959 395.698 391.279C396.179 390.997 396.719 390.797 397.294 390.586C397.47 390.528 397.646 390.457 397.834 390.387L396.46 389.565C394.947 388.65 393.527 387.793 392.071 386.937C391.649 386.69 391.403 386.42 391.59 385.892C391.79 385.317 391.872 384.672 391.837 383.909C391.825 383.557 391.79 383.205 391.755 382.841C391.743 382.653 391.719 382.465 391.708 382.278L391.684 381.996L391.931 382.137C392.435 382.442 392.94 382.747 393.444 383.04C394.759 383.827 395.991 384.566 397.247 385.34C397.681 385.61 397.974 385.646 398.362 385.47C398.995 385.188 399.653 384.93 400.286 384.672C400.627 384.531 400.979 384.402 401.319 384.261C401.354 384.249 401.401 384.237 401.448 384.226C401.542 384.202 401.589 384.179 401.601 384.155L379.538 370.894C379.385 370.8 379.292 370.753 379.174 370.789C378.271 371.152 377.367 371.516 376.405 371.903L375.501 372.267L375.63 372.338C375.83 372.455 375.982 372.549 376.146 372.654C376.71 372.995 377.273 373.335 377.836 373.664C379.585 374.708 381.404 375.776 383.035 377.079C384.537 378.276 386.274 379.966 386.45 382.477C386.45 382.524 386.45 382.571 386.474 382.63C386.509 382.829 386.544 383.111 386.321 383.252C386.075 383.392 385.852 383.216 385.687 383.087C385.64 383.052 385.593 383.005 385.547 382.982C384.044 382.078 382.542 381.174 381.04 380.271C379.374 379.273 377.719 378.276 376.053 377.278C376.006 377.243 375.947 377.208 375.9 377.173C375.724 377.044 375.595 376.973 375.454 377.032C374.48 377.419 373.518 377.806 372.497 378.217L371.769 378.51C372.109 378.722 372.379 378.874 372.649 379.039L375.384 380.682C378.329 382.454 381.38 384.284 384.385 386.08C384.725 386.279 384.889 386.455 384.913 386.655C384.948 386.878 384.784 387.089 384.631 387.265C383.422 388.603 381.779 389.272 379.773 389.272H379.761C378.012 389.272 376.229 388.791 374.151 387.758C372.696 387.03 371.311 386.174 370.032 385.352C369.786 385.2 369.61 385.129 369.481 385.129L369.492 385.118Z" fill="#2B63A8"/>
</svg>
