<svg width="449" height="448" viewBox="0 0 449 448" fill="none" xmlns="http://www.w3.org/2000/svg">
<rect width="447.401" height="447.401" transform="translate(0.943359 0.458008)" fill="white"/>
<g clip-path="url(#clip0_1243_9757)">
<path d="M139.12 286.25V136.271C139.12 134.293 139.373 132.129 139.12 130.164C139.12 130.084 139.12 129.978 139.12 129.899L137.129 131.89H182.241L180.316 130.43C182.785 137.851 185.254 145.259 187.737 152.68C188.016 153.517 188.746 154.141 189.662 154.141H284.838L282.846 152.149V179.989C282.846 182.551 286.829 182.551 286.829 179.989V152.149C286.829 151.074 285.913 150.158 284.838 150.158H189.662L191.587 151.618C189.118 144.197 186.648 136.789 184.166 129.368C183.887 128.531 183.157 127.907 182.241 127.907H137.129C136.054 127.907 135.137 128.823 135.137 129.899V267C135.137 273.306 134.885 279.679 135.137 285.985C135.137 286.078 135.137 286.157 135.137 286.25C135.137 288.812 139.12 288.812 139.12 286.25Z" fill="#221F20"/>
<path d="M172.244 183.122L141.55 279.506H140.289L167.557 169.209C168.208 166.594 170.545 164.762 173.24 164.762H301.127C304.964 164.762 307.765 168.386 306.796 172.103L304.061 182.591L172.244 183.136V183.122Z" fill="#C5D8E3"/>
<path d="M278.784 284.803H144.457C142.692 284.803 140.753 284.577 138.988 284.803C138.908 284.803 138.815 284.803 138.735 284.803L140.66 287.325C144.564 275.762 148.453 264.185 152.357 252.622C158.53 234.327 164.69 216.033 170.863 197.739C172.271 193.543 173.691 189.348 175.098 185.153L173.173 186.613H307.513C309.279 186.613 311.217 186.839 312.983 186.613C313.063 186.613 313.156 186.613 313.235 186.613L311.31 184.091C307.407 195.654 303.517 207.231 299.614 218.794C293.441 237.089 287.281 255.383 281.107 273.677C279.7 277.873 278.28 282.068 276.872 286.263C276.049 288.693 279.899 289.741 280.709 287.325C284.612 275.762 288.502 264.185 292.405 252.622C298.579 234.327 304.739 216.033 310.912 197.739C312.319 193.543 313.74 189.348 315.147 185.153C315.559 183.918 314.457 182.631 313.222 182.631H190.472C184.803 182.631 179.081 182.392 173.426 182.631C173.346 182.631 173.266 182.631 173.173 182.631C172.257 182.631 171.54 183.255 171.248 184.091C167.345 195.654 163.455 207.231 159.552 218.794C153.379 237.089 147.219 255.383 141.045 273.677C139.638 277.873 138.218 282.068 136.81 286.263C136.399 287.498 137.501 288.786 138.735 288.786H261.499C267.168 288.786 272.889 289.025 278.545 288.786C278.625 288.786 278.704 288.786 278.797 288.786C281.36 288.786 281.36 284.803 278.797 284.803H278.784Z" fill="#221F20"/>
<path d="M264.034 225.658C255.578 206.541 233.154 197.858 214.037 206.302C194.92 214.759 186.237 237.182 194.681 256.299C202.182 273.266 220.688 281.988 238.12 277.833L256.122 318.577L267.858 313.386L249.909 272.775C265.282 262.844 271.655 242.917 264.021 225.645L264.034 225.658ZM240.509 266.216C226.596 272.363 210.267 266.044 204.12 252.13C197.973 238.217 204.292 221.888 218.206 215.741C232.119 209.594 248.448 215.914 254.595 229.827C260.742 243.74 254.423 260.07 240.509 266.216Z" fill="url(#paint0_linear_1243_9757)"/>
</g>
<defs>
<linearGradient id="paint0_linear_1243_9757" x1="203.535" y1="276.383" x2="272.898" y2="245.732" gradientUnits="userSpaceOnUse">
<stop stop-color="#9BCB9E"/>
<stop offset="1" stop-color="#78C1C4"/>
</linearGradient>
<clipPath id="clip0_1243_9757">
<rect width="180.209" height="190.67" fill="white" transform="translate(135.031 127.907)"/>
</clipPath>
</defs>
</svg>
