<svg width="40" height="40" viewBox="0 0 40 40" fill="none" xmlns="http://www.w3.org/2000/svg">
<rect width="40" height="40" fill="white"/>
<g clip-path="url(#clip0_1202_5077)">
<path d="M12.6934 19.0466C14.6336 19.0466 16.2064 17.1567 16.2064 14.8255C16.2064 12.4943 14.6336 10.6045 12.6934 10.6045C10.7532 10.6045 9.18042 12.4943 9.18042 14.8255C9.18042 17.1567 10.7532 19.0466 12.6934 19.0466Z" fill="#DCEAC0"/>
<path d="M9.13965 14.8251C9.13965 16.4454 9.94301 18.1747 11.4953 18.8419C12.1761 19.1415 12.9658 19.1687 13.6739 18.9236C14.3819 18.6785 14.9946 18.1747 15.4303 17.562C16.4243 16.1459 16.5196 14.1443 15.7435 12.6057C15.0491 11.2304 13.5785 10.2637 12.0127 10.6313C10.4468 10.999 9.38474 12.5921 9.1805 14.1443C9.15326 14.3758 9.13965 14.5936 9.13965 14.8251C9.13965 14.8932 9.23496 14.8932 9.24858 14.8251C9.24858 13.2592 9.99747 11.5844 11.4953 10.9173C12.1625 10.6041 12.9386 10.5632 13.6466 10.8083C14.3547 11.0534 14.9538 11.5708 15.3759 12.1836C16.3154 13.5724 16.4107 15.4923 15.6482 16.9765C14.9674 18.3245 13.5241 19.2912 11.9854 18.8964C10.2017 18.4606 9.24858 16.5544 9.24858 14.8251C9.23496 14.757 9.13965 14.757 9.13965 14.8251Z" fill="#0565AD"/>
<path d="M13.3879 18.8961C15.2754 18.8961 16.8056 17.055 16.8056 14.784C16.8056 12.5129 15.2754 10.6719 13.3879 10.6719C11.5004 10.6719 9.97021 12.5129 9.97021 14.784C9.97021 17.055 11.5004 18.8961 13.3879 18.8961Z" fill="#9BC650"/>
<path d="M9.92939 14.7844C9.92939 16.3639 10.7055 18.0523 12.2169 18.7059C12.8841 18.9919 13.6466 19.0327 14.341 18.7876C15.0355 18.5425 15.6346 18.0523 16.0567 17.4532C17.0234 16.0644 17.1188 14.1309 16.3563 12.6331C15.6754 11.2851 14.2457 10.3319 12.7071 10.6996C11.1685 11.0672 10.1745 12.6058 9.97024 14.1172C9.943 14.3351 9.92939 14.5666 9.92939 14.7844C9.92939 14.8525 10.0247 14.8525 10.0383 14.7844C10.0383 13.2594 10.7872 11.6255 12.2441 10.9719C12.9113 10.6723 13.6602 10.6451 14.341 10.8902C15.0219 11.1353 15.5937 11.6255 16.0022 12.211C16.9281 13.559 17.0098 15.438 16.2746 16.895C15.621 18.2021 14.2321 19.128 12.7343 18.774C10.9778 18.3519 10.0383 16.4865 10.0247 14.7981C10.0247 14.73 9.91577 14.73 9.91577 14.7981L9.92939 14.7844Z" fill="#0565AD"/>
<path d="M13.1836 13.9541C13.1836 14.7983 12.7751 15.234 12.285 15.234C11.7948 15.234 11.3999 14.8391 11.3999 14.0222C11.3999 13.2188 11.8084 12.7559 12.3122 12.7559C12.8432 12.7559 13.1972 13.1916 13.1972 13.9541H13.1836ZM11.8084 13.9949C11.8084 14.5124 11.9854 14.9072 12.2986 14.8936C12.639 14.8936 12.7888 14.5124 12.7888 13.9677C12.7888 13.4775 12.6526 13.069 12.2986 13.069C11.9718 13.069 11.8084 13.4775 11.8084 13.9813V13.9949ZM12.2577 16.936L14.4636 12.7559H14.7903L12.5845 16.936H12.2577ZM15.6618 15.6153C15.6618 16.4595 15.2533 16.8952 14.7631 16.8952C14.2729 16.8952 13.8781 16.5003 13.8781 15.6834C13.8781 14.8664 14.2865 14.417 14.7903 14.417C15.3214 14.417 15.6618 14.8528 15.6618 15.6153ZM14.2729 15.6697C14.2729 16.1872 14.4499 16.582 14.7767 16.5684C15.1171 16.5684 15.2669 16.1872 15.2669 15.6425C15.2669 15.1523 15.1308 14.7438 14.7767 14.7438C14.4499 14.7438 14.2865 15.1523 14.2865 15.6561L14.2729 15.6697Z" fill="white"/>
<path d="M28.2297 13.5996H22.7832V28.986H28.2297V13.5996Z" fill="#0565AD"/>
<path d="M22.1023 16.7314H16.6558V28.9861H22.1023V16.7314Z" fill="#0565AD"/>
<path d="M15.9751 19.999H10.5286V28.9857H15.9751V19.999Z" fill="#0565AD"/>
<path d="M29.3188 13.5996H23.8723V28.986H29.3188V13.5996Z" fill="#57AAAE"/>
<path d="M29.3462 28.9995H23.8589V13.5859H29.3462V29.0131V28.9995ZM23.8997 28.9723H29.3054V13.6132H23.8997V28.9587V28.9723Z" fill="#0565AD"/>
<path d="M23.1916 16.7314H17.7451V28.9861H23.1916V16.7314Z" fill="#57AAAE"/>
<path d="M23.2188 28.9996H17.7314V16.7178H23.2188V29.0132V28.9996ZM17.7723 28.9724H23.1779V16.745H17.7723V28.9588V28.9724Z" fill="#0565AD"/>
<path d="M17.0644 19.999H11.6179V28.9857H17.0644V19.999Z" fill="#57AAAE"/>
<path d="M17.0916 28.9993H11.6042V19.9854H17.0916V28.9993ZM11.6451 28.9721H17.0507V20.0262H11.6451V28.9721Z" fill="#0565AD"/>
<path d="M14.5316 26.0448C12.6389 26.0448 11.359 25.8542 11.3318 25.8406L11.4816 24.9011C11.6041 24.9147 23.8315 26.7529 29.1418 18.6104L29.9452 19.1278C26.0509 25.1053 18.7526 26.0448 14.5452 26.0448H14.5316Z" fill="#72021C"/>
<path d="M27.9299 18.6106L30.5715 20.1356L30.6804 17.2354L27.9299 18.6106Z" fill="#72021C"/>
</g>
<defs>
<clipPath id="clip0_1202_5077">
<rect width="21.5409" height="18.45" fill="white" transform="translate(9.13965 10.5498)"/>
</clipPath>
</defs>
</svg>
