<svg width="448" height="449" viewBox="0 0 448 449" fill="none" xmlns="http://www.w3.org/2000/svg">
<rect width="447.401" height="447.401" transform="translate(0 0.859375)" fill="white"/>
<g clip-path="url(#clip0_1243_9772)">
<path d="M156.484 228.104H136.358C134.371 228.104 132.76 229.715 132.76 231.702V306.459C132.76 308.446 134.371 310.057 136.358 310.057H156.484C158.471 310.057 160.082 308.446 160.082 306.459V231.702C160.082 229.715 158.471 228.104 156.484 228.104Z" fill="#C5D8E3"/>
<path d="M161.423 243.412C161.529 243.412 161.635 243.438 161.742 243.452C162.02 243.478 162.06 243.492 161.728 243.452C161.98 243.492 162.219 243.518 162.472 243.558C163.839 243.77 165.207 244.049 166.547 244.354C171.247 245.43 175.854 246.93 180.301 248.762C183.328 249.997 186.276 251.417 189.156 252.957C192.037 254.497 194.878 256.104 198.211 256.688C199.538 256.914 200.892 257.086 202.233 257.272C214.049 258.958 225.878 260.644 237.694 262.343C239.858 262.649 241.929 263.392 243.668 264.76C247.823 268.012 248.646 274.106 246.004 278.58C244.69 280.797 248.142 282.802 249.443 280.585C251.952 276.35 252.178 270.867 250.054 266.459C248.168 262.529 244.252 259.648 240.03 258.706C236.034 257.803 231.826 257.498 227.776 256.927C220.581 255.905 213.398 254.869 206.203 253.847C204.211 253.568 202.207 253.289 200.215 252.997C195.064 252.24 190.869 249.227 186.236 247.063C178.522 243.465 169.973 240.265 161.423 239.456C158.874 239.217 158.887 243.199 161.423 243.438V243.412Z" fill="#221F20"/>
<path d="M213.398 283.226H238.344C241.557 283.226 244.916 283.505 248.128 283.226C249.815 283.08 251.686 281.859 253.2 281.182C262.095 277.226 270.99 273.283 279.885 269.326C287.678 265.861 295.471 262.41 303.264 258.945C303.582 258.799 303.901 258.666 304.233 258.52C304.299 258.493 304.379 258.453 304.445 258.427C304.432 258.427 303.662 258.507 304.525 258.586C306.755 258.799 308.707 259.383 310.127 261.255C310.765 262.104 311.216 263.127 311.402 264.175C311.495 264.693 311.521 265.211 311.495 265.729C311.468 266.246 310.937 267.388 311.07 267.786C311.136 267.999 311.84 267.308 311.269 267.786C311.004 268.012 310.685 268.185 310.393 268.371L307.207 270.508C299.029 276.004 290.837 281.501 282.659 287.01C275.198 292.015 267.75 297.033 260.289 302.039C257.077 304.203 253.85 306.167 250.067 307.243C246.283 308.318 242.446 308.331 238.556 308.331H196.857C195.237 308.331 194.215 307.814 192.595 307.283C187.271 305.543 181.961 303.804 176.637 302.078C171.314 300.352 166.202 298.666 160.998 296.967C158.555 296.171 157.506 300.021 159.936 300.804C170.889 304.375 181.841 307.96 192.794 311.531C194.294 312.022 195.37 312.314 196.857 312.314H233.339C236.286 312.314 239.234 312.314 242.181 312.314C248.699 312.288 254.992 310.363 260.409 306.752C266.609 302.609 272.795 298.427 278.982 294.272C287.917 288.271 296.838 282.271 305.773 276.27L312.995 271.411C314.562 270.362 315.106 268.649 315.358 266.791C315.956 262.264 313.539 257.657 309.397 255.692C307.247 254.67 304.432 254.112 302.188 255.095C301.299 255.48 300.409 255.878 299.533 256.276C295.776 257.949 292.019 259.608 288.249 261.281C278.238 265.729 268.215 270.176 258.205 274.624L248.58 278.898C248.235 279.058 247.876 279.191 247.544 279.363C246.721 279.775 247.797 279.005 248.182 279.257C247.69 278.938 245.951 279.257 245.394 279.257H213.385C210.823 279.257 210.823 283.24 213.385 283.24L213.398 283.226Z" fill="#221F20"/>
<path d="M171.858 245.032C177.142 238.527 186.355 236.934 193.484 241.421C194.228 241.885 195.29 241.726 195.901 241.115C198.158 238.819 201.503 237.571 204.716 237.969C206.614 238.208 208.447 239.018 209.947 240.213C210.478 240.638 210.969 241.115 211.434 241.62C211.58 241.779 211.712 241.939 211.845 242.098C212.164 242.483 211.633 241.793 211.912 242.178C212.881 243.518 215.058 243.465 215.549 241.7C217.381 235.181 223.236 230.335 230.113 230.375C236.99 230.415 242.738 235.234 244.571 241.7C244.942 243.027 246.35 243.439 247.491 242.894C255.39 239.164 265.414 242.005 270.273 249.041C270.99 250.077 272.45 250.422 273.406 249.44C275.889 246.904 279.5 245.191 283.058 245.072C285.912 244.979 288.647 245.815 291.01 247.408C291.807 247.939 292.537 248.577 293.201 249.267C293.479 249.546 293.745 249.838 293.997 250.13C294.103 250.263 294.21 250.382 294.316 250.515C294.528 250.767 294.063 250.183 294.316 250.515C294.913 251.325 296.081 251.896 297.037 251.232C301.352 248.218 307.114 251.404 305.879 256.834C305.308 259.33 309.145 260.392 309.716 257.896C310.592 254.033 309.371 249.997 306.078 247.647C302.786 245.297 298.285 245.51 295.019 247.793L297.741 248.51C294.395 244.036 289.204 241.089 283.536 241.089C278.783 241.089 273.897 243.226 270.578 246.625L273.711 247.023C267.445 237.942 255.47 234.743 245.487 239.443L248.407 240.638C246.111 232.473 238.703 226.419 230.113 226.379C221.523 226.339 214.009 232.433 211.699 240.638L215.337 240.16C210.119 232.924 199.432 231.836 193.086 238.288L195.502 237.982C186.992 232.619 175.416 234.385 169.057 242.217C167.45 244.196 170.251 247.023 171.871 245.032H171.858Z" fill="#221F20"/>
<path d="M224.577 200.372C218.974 200.172 204.716 198.898 191.812 188.516C169.322 170.421 171.327 141.054 171.553 138.293C175.15 137.496 197.799 132.85 217.673 147.56C223.183 151.635 227.245 156.295 230.219 160.69L224.856 175.147V200.358" fill="url(#paint0_linear_1243_9772)"/>
<path d="M226.86 227.308V176.66C226.86 176.182 226.794 175.651 226.86 175.173C226.754 175.943 226.98 175.08 227.046 174.894C227.192 174.523 227.312 174.138 227.444 173.766C227.79 172.823 228.148 171.894 228.546 170.978C234.082 158.193 244.424 147.652 257.528 142.634C267.75 138.717 279.42 137.868 290.067 140.231L288.607 138.306C289.258 146.059 288.156 154.091 285.912 161.499C281.491 176.049 271.269 188.131 257.156 194.105C250.97 196.72 244.292 198.127 237.587 198.38C236.512 198.42 235.596 199.256 235.596 200.371V229.685L238.118 227.76C233.883 226.963 229.635 226.18 225.4 225.383C222.891 224.918 221.815 228.755 224.338 229.22C228.573 230.016 232.821 230.8 237.056 231.596C238.304 231.835 239.579 231.052 239.579 229.671V200.358L237.587 202.349C252.602 201.805 267.352 195.685 277.535 184.466C286.509 174.576 291.222 161.685 292.444 148.515C292.762 145.13 292.882 141.678 292.59 138.293C292.523 137.443 292.019 136.567 291.129 136.367C281.624 134.257 271.441 134.496 262.042 136.978C247.372 140.855 234.879 150.759 227.537 164.008C226.263 166.305 225.161 168.695 224.179 171.137C223.674 172.412 222.957 173.859 222.864 175.24C222.718 177.191 222.864 179.209 222.864 181.174V227.295C222.864 229.857 226.847 229.857 226.847 227.295L226.86 227.308Z" fill="#221F20"/>
<path d="M236.233 187.905C241.769 183.112 247.305 178.32 252.855 173.514C261.697 165.867 270.525 158.206 279.367 150.559C281.411 148.794 283.443 147.028 285.487 145.262C287.532 143.497 284.598 140.775 282.673 142.448C277.137 147.24 271.6 152.033 266.051 156.839L239.539 179.793C237.494 181.559 235.463 183.325 233.419 185.09C231.374 186.856 234.308 189.578 236.233 187.905Z" fill="#221F20"/>
</g>
<defs>
<linearGradient id="paint0_linear_1243_9772" x1="230.232" y1="168.669" x2="171.406" y2="168.669" gradientUnits="userSpaceOnUse">
<stop stop-color="#9BCB9E"/>
<stop offset="1" stop-color="#78C1C4"/>
</linearGradient>
<clipPath id="clip0_1243_9772">
<rect width="182.704" height="177.367" fill="white" transform="translate(132.76 134.947)"/>
</clipPath>
</defs>
</svg>
