<svg width="652" height="652" viewBox="0 0 652 652" fill="none" xmlns="http://www.w3.org/2000/svg">
<rect width="652" height="652" fill="white"/>
<path d="M466.135 502.308C529.992 502.308 581.758 492.894 581.758 481.282C581.758 469.67 529.992 460.256 466.135 460.256C402.278 460.256 350.512 469.67 350.512 481.282C350.512 492.894 402.278 502.308 466.135 502.308Z" fill="#273738"/>
<path d="M197.51 459.766L259.231 442.32L229.143 427.285L250.244 405.638L150.108 334.647L169.607 324.153L70.3941 310.532L76.7244 391.526L87.8967 380.561L120.34 404.394L120.246 404.413L194.665 460.576L196.191 460.143L196.737 460.557L197.51 459.766Z" fill="#273738"/>
<path d="M491.928 485.86C532.498 485.86 565.386 452.972 565.386 412.402C565.386 371.832 532.498 338.943 491.928 338.943C451.358 338.943 418.469 371.832 418.469 412.402C418.469 452.972 451.358 485.86 491.928 485.86Z" fill="#BF8B0A"/>
<path d="M561.655 391.602C570.171 420.654 559.696 452.757 535.279 470.844C510.787 488.987 476.723 489.741 451.421 472.822C426.062 455.866 413.815 423.762 421.465 394.221C429.114 364.679 455.151 342.56 485.578 339.885C515.289 337.266 544.398 353.77 557.416 380.618C559.131 384.16 560.525 387.834 561.674 391.602C561.938 392.468 563.295 392.092 563.031 391.225C554.1 361.721 527.366 340.262 496.524 338.34C465.476 336.4 435.84 354.788 423.688 383.369C411.536 411.949 418.959 446.446 442.151 467.396C465.118 488.14 499.369 492.379 526.744 477.909C553.856 463.572 569.568 432.843 565.442 402.473C564.934 398.667 564.105 394.918 563.031 391.244C562.767 390.377 561.411 390.735 561.674 391.621L561.655 391.602Z" fill="#2B63A8"/>
<path d="M480.398 481.508C520.968 481.508 553.856 448.619 553.856 408.049C553.856 367.479 520.968 334.591 480.398 334.591C439.828 334.591 406.939 367.479 406.939 408.049C406.939 448.619 439.828 481.508 480.398 481.508Z" fill="#FCBC00"/>
<path d="M550.125 387.269C558.641 416.321 548.166 448.425 523.749 466.512C499.256 484.655 465.193 485.409 439.89 468.49C414.531 451.534 402.285 419.43 409.934 389.888C417.583 360.347 443.621 338.228 474.048 335.553C504.475 332.877 532.867 349.438 545.886 376.286C547.601 379.828 548.995 383.501 550.144 387.269C550.408 388.136 551.764 387.759 551.5 386.893C542.57 357.389 515.836 335.93 484.994 334.008C453.945 332.067 424.309 350.455 412.157 379.036C399.93 407.749 407.428 442.114 430.621 463.064C453.587 483.807 487.839 488.046 515.214 473.577C542.325 459.24 558.038 428.511 553.912 398.14C553.403 394.335 552.574 390.585 551.5 386.911C551.237 386.045 549.88 386.403 550.144 387.288L550.125 387.269Z" fill="#2B63A8"/>
<path d="M470.958 411.365L505.568 438.551C505.455 439.004 505.078 438.928 504.814 439.004C501.573 439.776 498.333 440.511 495.092 441.302C494.395 441.472 493.887 441.359 493.321 440.906C482.526 432.409 471.73 423.912 460.916 415.453C460.37 415.02 460.049 414.549 459.918 413.871C459.654 412.552 459.39 411.233 458.994 409.971C458.618 408.803 458.862 408.313 460.125 408.068C462.838 407.521 465.551 406.937 468.17 406.071C471.448 404.978 474.462 403.414 476.836 400.833C479.229 398.233 480.378 395.162 480.19 391.601C480.133 390.527 479.851 390.226 478.72 390.49C470.996 392.355 463.252 394.145 455.509 395.953C454.849 396.104 454.19 396.255 453.267 396.481C454.284 393.787 455.189 391.319 456.112 388.888C456.319 388.342 456.884 388.398 457.318 388.304C463.591 386.816 469.846 385.365 476.12 383.877C476.516 383.783 477.119 383.877 477.213 383.425C477.307 383.01 476.798 382.709 476.497 382.426C473.483 379.393 469.696 378.903 465.702 379.223C460.935 379.6 456.357 380.957 451.722 381.993C451.232 382.106 450.742 382.219 449.951 382.407C450.95 379.713 451.873 377.264 452.777 374.815C452.928 374.419 453.267 374.381 453.606 374.306C468.207 370.877 482.809 367.467 497.391 364.057C497.749 364.434 497.447 364.735 497.334 365.036C496.637 366.939 495.865 368.823 495.243 370.764C494.942 371.668 494.452 372.026 493.548 372.233C490.081 372.987 486.652 373.835 483.016 374.683C483.826 375.474 484.579 376.171 485.258 376.887C486.181 377.867 486.972 378.959 487.519 380.184C487.877 380.975 488.31 381.088 489.139 380.881C493.001 379.92 496.863 379.054 501.046 378.074C500.424 379.751 499.708 381.183 499.369 382.709C498.785 385.327 497.334 386.627 494.659 386.854C493.303 386.967 491.965 387.475 490.608 387.758C490.024 387.89 489.742 388.078 489.761 388.775C490.062 396.368 486.482 401.982 480.623 406.391C478.004 408.35 475.122 409.801 472.013 410.8C471.73 410.894 471.448 411.007 471.165 411.12C471.09 411.158 471.071 411.252 470.958 411.402V411.365Z" fill="white"/>
<path d="M172.998 260.586V444.863L209.19 475.573V252.673L172.998 260.586Z" fill="#819B4B"/>
<path d="M172.283 260.586V441.905C172.283 442.753 172.076 443.921 172.283 444.75C172.584 445.956 174.299 446.879 175.203 447.652L185.641 456.507L207.288 474.876L208.682 476.063C209.135 476.44 209.888 476.214 209.888 475.554V400.231C209.888 378.696 209.888 357.181 209.888 335.646C209.888 317.164 209.888 298.681 209.888 280.18V261.735C209.888 258.928 210.284 255.782 209.888 252.994C209.888 252.88 209.888 252.73 209.888 252.617C209.888 252.146 209.436 251.844 209.003 251.938L172.81 259.87C171.925 260.059 172.302 261.434 173.187 261.227L209.38 253.295L208.494 252.617V274.905C208.494 292.577 208.494 310.249 208.494 327.94C208.494 345.631 208.494 370.99 208.494 392.525V472.125C208.494 472.917 208.193 474.405 208.494 475.159C208.532 475.253 208.494 475.422 208.494 475.535L209.7 475.027L193.026 460.878L180.836 450.534L176.315 446.691C175.58 446.069 174.676 444.939 173.79 444.543C173.187 444.279 173.715 444.939 173.715 444.6C173.715 444.223 173.715 443.865 173.715 443.488V419.372C173.715 399.1 173.715 378.828 173.715 358.537C173.715 338.246 173.715 316.09 173.715 294.876V272.192C173.715 268.537 174.054 264.675 173.715 261.038C173.715 260.869 173.715 260.699 173.715 260.53C173.715 259.625 172.302 259.625 172.302 260.53L172.283 260.586Z" fill="#2B63A8"/>
<path d="M333.498 267.519L258.194 146.659L188.842 284.363L209.19 282.008V475.573L308.592 461.707V270.421L333.498 267.519Z" fill="#A5C661"/>
<path d="M334.102 267.163L308.686 226.373L268.142 161.299L258.797 146.283C258.533 145.85 257.817 145.793 257.572 146.283L234.135 192.837L196.775 267.012L188.221 284.006C188.014 284.439 188.259 285.136 188.824 285.061L209.171 282.687L208.456 281.971V347.498C208.456 366.074 208.456 384.651 208.456 403.227C208.456 419.374 208.456 435.501 208.456 451.647V467.661C208.456 470.092 208.098 472.805 208.456 475.216C208.456 475.329 208.456 475.442 208.456 475.555C208.456 476.064 208.908 476.29 209.341 476.234L242.99 471.543L296.383 464.082L308.724 462.367C309.025 462.33 309.251 461.972 309.251 461.689V397.048C309.251 378.641 309.251 360.234 309.251 341.808C309.251 323.382 309.251 309.949 309.251 294.029V273.305C309.251 272.664 309.515 271.345 309.251 270.742C309.214 270.667 309.251 270.497 309.251 270.403L308.535 271.119L333.442 268.218C334.328 268.105 334.347 266.692 333.442 266.805L308.535 269.706C308.159 269.744 307.819 269.989 307.819 270.422V335.063C307.819 353.47 307.819 371.877 307.819 390.303C307.819 406.223 307.819 422.162 307.819 438.082V458.806C307.819 459.466 307.556 460.766 307.819 461.369C307.857 461.444 307.819 461.614 307.819 461.708L308.347 461.03L274.698 465.721L221.305 473.182L208.964 474.896L209.85 475.574V289.884C209.85 287.454 210.208 284.741 209.85 282.329C209.85 282.216 209.85 282.103 209.85 281.99C209.85 281.632 209.529 281.236 209.134 281.274L188.786 283.648L189.389 284.703L212.827 238.148L250.187 163.974L258.74 146.98H257.516L282.931 187.769L323.476 252.844L332.821 267.86C333.292 268.632 334.516 267.916 334.045 267.144L334.102 267.163Z" fill="#2B63A8"/>
<path d="M211.621 138.727L258.194 146.659L188.843 284.363L147.225 266.54L211.621 138.727Z" fill="#819B4B"/>
<path d="M211.432 139.406L252.146 146.339L258.006 147.337L257.591 146.301L234.154 192.856L196.793 267.03L188.24 284.024L189.201 283.779L152.782 268.16L147.601 265.937L147.846 266.898L169.626 223.678L204.311 154.836L212.242 139.085C212.657 138.275 211.432 137.559 211.018 138.369L189.238 181.589L154.553 250.432L146.621 266.182C146.471 266.484 146.508 266.992 146.866 267.143L183.285 282.762L188.466 284.985C188.805 285.136 189.238 285.098 189.427 284.74L212.864 238.186L250.224 164.011L258.778 147.017C258.966 146.64 258.834 146.056 258.363 145.981L217.65 139.048L211.79 138.049C210.905 137.898 210.528 139.255 211.413 139.406H211.432Z" fill="#2B63A8"/>
<path d="M327.771 244.515C361.849 244.515 389.474 216.89 389.474 182.813C389.474 148.736 361.849 121.111 327.771 121.111C293.694 121.111 266.069 148.736 266.069 182.813C266.069 216.89 293.694 244.515 327.771 244.515Z" fill="#E0EBC5"/>
<path d="M388.776 182.813C388.644 208.154 372.611 231.44 348.703 240.126C324.795 248.811 297.25 241.407 280.915 221.851C264.468 202.181 262.263 173.356 275.489 151.388C288.659 129.495 314.828 117.946 339.886 122.995C364.453 127.95 383.934 148.185 388.004 172.922C388.531 176.2 388.776 179.497 388.795 182.813C388.795 183.718 390.208 183.718 390.208 182.813C390.076 156.908 373.742 133.244 349.381 124.239C325.021 115.233 296.176 122.92 279.521 143.249C262.942 163.483 260.794 192.818 274.415 215.2C287.924 237.394 314.432 249.056 339.923 244.044C365.301 239.052 385.517 218.007 389.436 192.441C389.926 189.257 390.17 186.035 390.17 182.813C390.17 181.909 388.757 181.909 388.757 182.813H388.776Z" fill="#2B63A8"/>
<path d="M328.073 225.299C350.528 225.299 368.731 207.096 368.731 184.641C368.731 162.187 350.528 143.984 328.073 143.984C305.619 143.984 287.416 162.187 287.416 184.641C287.416 207.096 305.619 225.299 328.073 225.299Z" fill="#A5C661"/>
<path d="M368.015 184.642C367.883 201.278 357.408 216.538 341.677 222.228C325.964 227.899 308.028 223.001 297.345 210.189C286.55 197.265 285.174 178.33 293.897 163.955C302.621 149.58 319.822 142.1 336.251 145.529C354.658 149.373 367.902 165.933 368.034 184.642C368.034 185.546 369.447 185.546 369.447 184.642C369.315 167.44 358.558 151.784 342.355 145.812C325.964 139.745 306.954 145.002 295.97 158.586C284.986 172.169 283.724 191.292 292.692 206.063C301.622 220.777 319.125 228.502 336.006 225.261C355.317 221.569 369.296 204.179 369.466 184.661C369.466 183.756 368.053 183.756 368.053 184.661L368.015 184.642Z" fill="#2B63A8"/>
<path d="M418.864 506.848C468.809 506.848 509.298 488.62 509.298 466.134C509.298 443.649 468.809 425.42 418.864 425.42C368.919 425.42 328.43 443.649 328.43 466.134C328.43 488.62 368.919 506.848 418.864 506.848Z" fill="#BF8B0A"/>
<path d="M508.582 466.135C508.469 476.648 499.784 484.466 491.494 489.572C478.89 497.315 464.063 501.366 449.556 503.74C431.563 506.679 413.043 506.943 394.956 504.72C379.602 502.817 363.926 499.143 350.173 491.833C341.356 487.142 331.37 479.907 329.43 469.394C327.489 458.881 334.912 450.61 342.656 445.071C354.205 436.819 368.41 432.411 382.183 429.622C399.949 426.043 418.337 425.289 436.367 426.89C452.363 428.303 468.641 431.563 483.28 438.345C492.813 442.754 503.797 449.442 507.49 459.917C508.206 461.933 508.564 464.025 508.582 466.154C508.582 467.058 509.995 467.058 509.995 466.154C509.882 455.697 501.8 447.709 493.585 442.377C480.736 434.031 465.287 429.735 450.309 427.267C431.563 424.158 412.233 423.895 393.393 426.382C377.774 428.435 361.797 432.316 347.95 440.097C339.189 445.015 329.637 452.551 327.979 463.12C326.415 473.03 332.859 481.49 340.301 487.236C351.869 496.166 366.602 500.876 380.732 503.834C399.214 507.697 418.413 508.507 437.196 506.773C453.569 505.247 470.205 501.818 485.107 494.697C494.678 490.118 505.323 483.185 508.922 472.616C509.619 470.543 509.977 468.377 509.995 466.191C509.995 465.287 508.582 465.287 508.582 466.191V466.135Z" fill="#2B63A8"/>
<path d="M418.864 493.057C468.809 493.057 509.298 474.829 509.298 452.343C509.298 429.857 468.809 411.629 418.864 411.629C368.919 411.629 328.43 429.857 328.43 452.343C328.43 474.829 368.919 493.057 418.864 493.057Z" fill="#FCBC00"/>
<path d="M508.582 452.343C508.469 462.856 499.784 470.675 491.494 475.781C478.89 483.524 464.063 487.575 449.556 489.948C431.563 492.888 413.043 493.151 394.956 490.928C379.602 489.025 363.926 485.351 350.173 478.041C341.356 473.35 331.37 466.115 329.43 455.603C327.489 445.09 334.912 436.819 342.656 431.28C354.205 423.028 368.41 418.619 382.183 415.831C399.949 412.251 418.337 411.497 436.367 413.099C452.363 414.512 468.641 417.771 483.28 424.554C492.813 428.962 503.797 435.651 507.49 446.126C508.206 448.142 508.564 450.233 508.582 452.362C508.582 453.266 509.995 453.266 509.995 452.362C509.882 441.906 501.8 433.917 493.585 428.586C480.736 420.239 465.287 415.944 450.309 413.476C431.563 410.367 412.233 410.103 393.393 412.59C377.774 414.644 361.797 418.525 347.95 426.306C339.189 431.223 329.637 438.759 327.979 449.329C326.415 459.239 332.859 467.698 340.301 473.444C351.869 482.375 366.602 487.085 380.732 490.043C399.214 493.905 418.413 494.715 437.196 492.982C453.569 491.456 470.205 488.027 485.107 480.905C494.678 476.327 505.323 469.394 508.922 458.824C509.619 456.752 509.977 454.585 509.995 452.4C509.995 451.495 508.582 451.495 508.582 452.4V452.343Z" fill="#2B63A8"/>
<path d="M416.34 461.668L450.95 471.428C450.95 471.842 450.611 471.899 450.404 472.049C447.822 473.783 445.241 475.497 442.679 477.23C442.133 477.607 441.68 477.701 441.115 477.532C430.32 474.461 419.524 471.428 408.71 468.394C408.164 468.244 407.806 467.961 407.561 467.471C407.071 466.51 406.6 465.549 405.997 464.664C405.451 463.854 405.545 463.383 406.562 462.742C408.729 461.367 410.895 459.973 412.93 458.371C415.474 456.355 417.697 454.076 419.166 451.193C420.655 448.292 421.013 445.447 420.127 442.677C419.863 441.848 419.562 441.698 418.658 442.3C412.516 446.445 406.355 450.552 400.194 454.679C399.667 455.036 399.158 455.376 398.404 455.865C398.706 453.36 398.988 451.099 399.271 448.819C399.327 448.31 399.836 448.16 400.175 447.934C405.149 444.599 410.142 441.264 415.134 437.911C415.455 437.703 415.982 437.572 415.963 437.176C415.963 436.799 415.474 436.761 415.153 436.63C412.007 435.235 408.729 436.158 405.413 437.798C401.475 439.738 397.896 442.395 394.203 444.844C393.807 445.108 393.412 445.371 392.79 445.786C393.091 443.299 393.374 441.019 393.638 438.758C393.675 438.4 393.977 438.231 394.241 438.061C405.846 430.299 417.471 422.518 429.057 414.775C429.434 414.944 429.246 415.302 429.208 415.566C429.001 417.337 428.737 419.089 428.586 420.86C428.511 421.689 428.172 422.141 427.456 422.612C424.686 424.402 421.955 426.267 419.072 428.189C419.92 428.547 420.673 428.83 421.408 429.188C422.369 429.659 423.255 430.261 423.971 431.053C424.423 431.561 424.818 431.505 425.459 431.053C428.511 428.961 431.601 426.927 434.917 424.704C434.728 426.267 434.408 427.661 434.427 428.98C434.465 431.26 433.504 432.805 431.299 433.898C430.169 434.463 429.152 435.311 428.078 436.008C427.607 436.309 427.418 436.573 427.569 437.119C429.34 443.073 427.456 448.8 423.405 454.339C421.597 456.807 419.449 458.955 417.037 460.839C416.811 461.009 416.604 461.197 416.397 461.386C416.34 461.423 416.34 461.518 416.265 461.687L416.34 461.668Z" fill="white"/>
<path d="M430 469.507C479.945 469.507 520.433 451.279 520.433 428.793C520.433 406.307 479.945 388.079 430 388.079C380.055 388.079 339.566 406.307 339.566 428.793C339.566 451.279 380.055 469.507 430 469.507Z" fill="#BF8B0A"/>
<path d="M519.736 428.792C519.623 439.305 510.938 447.124 502.648 452.23C490.044 459.973 475.216 464.024 460.709 466.398C442.717 469.337 424.197 469.6 406.11 467.377C390.755 465.474 375.08 461.801 361.327 454.491C352.509 449.799 342.524 442.565 340.583 432.052C338.643 421.539 346.066 413.268 353.809 407.729C365.358 399.477 379.564 395.068 393.336 392.28C411.103 388.7 429.491 387.947 447.521 389.548C463.517 390.961 479.795 394.22 494.434 401.003C503.967 405.412 514.951 412.1 518.643 422.575C519.359 424.591 519.717 426.682 519.736 428.811C519.736 429.716 521.149 429.716 521.149 428.811C521.036 418.355 512.954 410.367 504.739 405.035C491.89 396.688 476.441 392.393 461.463 389.925C442.717 386.816 423.387 386.552 404.546 389.039C388.928 391.093 372.951 394.974 359.103 402.755C350.343 407.672 340.791 415.208 339.133 425.778C337.569 435.688 344.012 444.147 351.454 449.894C363.022 458.824 377.755 463.534 391.886 466.492C410.368 470.354 429.566 471.164 448.35 469.431C464.722 467.905 481.358 464.476 496.261 457.354C505.832 452.776 516.477 445.843 520.075 435.273C520.772 433.201 521.13 431.034 521.149 428.849C521.149 427.945 519.736 427.945 519.736 428.849V428.792Z" fill="#2B63A8"/>
<path d="M430 455.715C479.945 455.715 520.433 437.486 520.433 415.001C520.433 392.515 479.945 374.287 430 374.287C380.055 374.287 339.566 392.515 339.566 415.001C339.566 437.486 380.055 455.715 430 455.715Z" fill="#FCBC00"/>
<path d="M519.736 415.001C519.623 425.514 510.938 433.333 502.648 438.439C490.044 446.182 475.216 450.233 460.709 452.607C442.717 455.546 424.197 455.809 406.11 453.586C390.755 451.683 375.08 448.01 361.327 440.7C352.509 436.008 342.524 428.774 340.583 418.261C338.643 407.748 346.066 399.477 353.809 393.938C365.358 385.686 379.564 381.277 393.336 378.489C411.103 374.909 429.491 374.155 447.521 375.757C463.517 377.17 479.795 380.429 494.434 387.212C503.967 391.62 514.951 398.309 518.643 408.784C519.359 410.8 519.717 412.891 519.736 415.02C519.736 415.924 521.149 415.924 521.149 415.02C521.036 404.564 512.954 396.575 504.739 391.244C491.89 382.897 476.441 378.602 461.463 376.134C442.717 373.025 423.387 372.761 404.546 375.248C388.928 377.302 372.951 381.183 359.103 388.964C350.343 393.881 340.791 401.417 339.133 411.987C337.569 421.897 344.012 430.356 351.454 436.102C363.022 445.033 377.755 449.743 391.886 452.701C410.368 456.563 429.566 457.373 448.35 455.64C464.722 454.114 481.358 450.685 496.261 443.563C505.832 438.985 516.477 432.052 520.075 421.482C520.772 419.41 521.13 417.243 521.149 415.058C521.149 414.153 519.736 414.153 519.736 415.058V415.001Z" fill="#2B63A8"/>
<path d="M427.475 424.328L462.085 434.087C462.085 434.501 461.746 434.558 461.538 434.709C458.957 436.442 456.376 438.156 453.814 439.89C453.267 440.267 452.815 440.361 452.25 440.191C441.455 437.12 430.659 434.087 419.845 431.054C419.298 430.903 418.94 430.62 418.695 430.13C418.206 429.17 417.735 428.209 417.132 427.323C416.585 426.513 416.68 426.042 417.697 425.402C419.864 424.026 422.03 422.632 424.065 421.031C426.608 419.015 428.832 416.735 430.301 413.852C431.789 410.951 432.147 408.106 431.262 405.337C430.998 404.508 430.697 404.357 429.792 404.96C423.65 409.105 417.49 413.212 411.329 417.338C410.801 417.696 410.293 418.035 409.539 418.525C409.84 416.019 410.123 413.758 410.406 411.479C410.462 410.97 410.971 410.819 411.31 410.593C416.284 407.258 421.277 403.924 426.269 400.57C426.59 400.363 427.117 400.231 427.098 399.835C427.098 399.458 426.608 399.421 426.288 399.289C423.142 397.895 419.864 398.818 416.548 400.457C412.61 402.398 409.03 405.054 405.338 407.503C404.942 407.767 404.546 408.031 403.925 408.445C404.226 405.958 404.509 403.679 404.772 401.418C404.81 401.06 405.112 400.89 405.375 400.721C416.981 392.959 428.605 385.177 440.192 377.434C440.569 377.604 440.381 377.962 440.343 378.225C440.136 379.996 439.872 381.749 439.721 383.52C439.646 384.349 439.307 384.801 438.591 385.272C435.821 387.061 433.089 388.927 430.207 390.848C431.055 391.206 431.808 391.489 432.543 391.847C433.504 392.318 434.389 392.921 435.105 393.712C435.558 394.221 435.953 394.164 436.594 393.712C439.646 391.621 442.736 389.586 446.052 387.363C445.863 388.927 445.543 390.321 445.562 391.64C445.599 393.919 444.639 395.464 442.434 396.557C441.304 397.122 440.286 397.97 439.213 398.667C438.742 398.969 438.553 399.232 438.704 399.779C440.475 405.732 438.591 411.46 434.54 416.999C432.731 419.467 430.584 421.615 428.172 423.499C427.946 423.668 427.739 423.857 427.532 424.045C427.475 424.083 427.475 424.177 427.4 424.347L427.475 424.328Z" fill="white"/>
<path d="M407.711 439.155C457.656 439.155 498.145 420.926 498.145 398.441C498.145 375.955 457.656 357.727 407.711 357.727C357.766 357.727 317.278 375.955 317.278 398.441C317.278 420.926 357.766 439.155 407.711 439.155Z" fill="#BF8B0A"/>
<path d="M497.429 398.441C497.316 408.954 488.63 416.772 480.341 421.878C467.736 429.621 452.909 433.672 438.402 436.046C420.409 438.985 401.889 439.249 383.803 437.026C368.448 435.123 352.773 431.449 339.019 424.139C330.202 419.448 320.217 412.213 318.276 401.7C316.335 391.187 323.759 382.916 331.502 377.377C343.051 369.125 357.257 364.717 371.029 361.928C388.795 358.348 407.184 357.595 425.214 359.196C441.209 360.609 457.487 363.869 472.126 370.651C481.659 375.06 492.643 381.748 496.336 392.223C497.052 394.239 497.41 396.331 497.429 398.46C497.429 399.364 498.842 399.364 498.842 398.46C498.729 388.003 490.646 380.015 482.432 374.683C469.583 366.337 454.134 362.041 439.156 359.573C420.409 356.464 401.079 356.201 382.239 358.688C366.62 360.741 350.644 364.622 336.796 372.403C328.035 377.321 318.483 384.857 316.825 395.426C315.262 405.336 321.705 413.796 329.147 419.542C340.715 428.472 355.448 433.182 369.578 436.14C388.061 440.002 407.259 440.813 426.043 439.079C442.415 437.553 459.051 434.124 473.954 427.003C483.525 422.424 494.169 415.491 497.768 404.922C498.465 402.849 498.823 400.683 498.842 398.497C498.842 397.593 497.429 397.593 497.429 398.497V398.441Z" fill="#2B63A8"/>
<path d="M407.711 425.382C457.656 425.382 498.145 407.154 498.145 384.668C498.145 362.183 457.656 343.955 407.711 343.955C357.766 343.955 317.278 362.183 317.278 384.668C317.278 407.154 357.766 425.382 407.711 425.382Z" fill="#FCBC00"/>
<path d="M497.429 384.669C497.316 395.182 488.63 403.001 480.341 408.106C467.736 415.85 452.909 419.9 438.402 422.274C420.409 425.213 401.889 425.477 383.803 423.254C368.448 421.351 352.773 417.677 339.019 410.367C330.202 405.676 320.217 398.441 318.276 387.928C316.335 377.415 323.759 369.144 331.502 363.605C343.051 355.353 357.257 350.945 371.029 348.156C388.795 344.577 407.184 343.823 425.214 345.424C441.209 346.838 457.487 350.097 472.126 356.879C481.659 361.288 492.643 367.976 496.336 378.452C497.052 380.468 497.41 382.559 497.429 384.688C497.429 385.592 498.842 385.592 498.842 384.688C498.729 374.231 490.646 366.243 482.432 360.911C469.583 352.565 454.134 348.269 439.156 345.801C420.409 342.693 401.079 342.429 382.239 344.916C366.62 346.969 350.644 350.851 336.796 358.632C328.035 363.549 318.483 371.085 316.825 381.654C315.262 391.564 321.705 400.024 329.147 405.77C340.715 414.7 355.448 419.41 369.578 422.368C388.061 426.231 407.259 427.041 426.043 425.307C442.415 423.781 459.051 420.352 473.954 413.231C483.525 408.653 494.169 401.719 497.768 391.15C498.465 389.078 498.823 386.911 498.842 384.725C498.842 383.821 497.429 383.821 497.429 384.725V384.669Z" fill="#2B63A8"/>
<path d="M405.187 393.994L439.796 403.753C439.796 404.168 439.457 404.224 439.25 404.375C436.669 406.108 434.088 407.823 431.525 409.556C430.979 409.933 430.527 410.027 429.962 409.858C419.166 406.787 408.371 403.753 397.556 400.72C397.01 400.569 396.652 400.287 396.407 399.797C395.917 398.836 395.446 397.875 394.843 396.99C394.297 396.18 394.391 395.708 395.408 395.068C397.575 393.693 399.742 392.298 401.776 390.697C404.32 388.681 406.543 386.401 408.013 383.519C409.501 380.617 409.859 377.773 408.973 375.003C408.71 374.174 408.408 374.023 407.504 374.626C401.362 378.771 395.201 382.878 389.04 387.004C388.513 387.362 388.004 387.701 387.251 388.191C387.552 385.685 387.835 383.425 388.117 381.145C388.174 380.636 388.682 380.486 389.022 380.259C393.995 376.925 398.988 373.59 403.981 370.236C404.301 370.029 404.829 369.897 404.81 369.502C404.81 369.125 404.32 369.087 404 368.955C400.853 367.561 397.575 368.484 394.259 370.123C390.321 372.064 386.742 374.72 383.049 377.17C382.653 377.433 382.258 377.697 381.636 378.112C381.938 375.625 382.22 373.345 382.484 371.084C382.522 370.726 382.823 370.557 383.087 370.387C394.692 362.625 406.317 354.844 417.904 347.1C418.281 347.27 418.092 347.628 418.054 347.892C417.847 349.663 417.583 351.415 417.433 353.186C417.357 354.015 417.018 354.467 416.302 354.938C413.533 356.728 410.801 358.593 407.918 360.515C408.766 360.873 409.52 361.155 410.255 361.513C411.215 361.984 412.101 362.587 412.817 363.379C413.269 363.887 413.665 363.831 414.305 363.379C417.357 361.287 420.447 359.252 423.763 357.029C423.575 358.593 423.254 359.987 423.273 361.306C423.311 363.586 422.35 365.131 420.146 366.223C419.015 366.789 417.998 367.636 416.924 368.334C416.453 368.635 416.265 368.899 416.415 369.445C418.186 375.399 416.302 381.126 412.252 386.665C410.443 389.133 408.295 391.281 405.884 393.165C405.658 393.335 405.45 393.523 405.243 393.711C405.187 393.749 405.187 393.843 405.111 394.013L405.187 393.994Z" fill="white"/>
<path d="M407.108 407.766C456.72 407.766 496.939 389.538 496.939 367.052C496.939 344.567 456.72 326.338 407.108 326.338C357.496 326.338 317.278 344.567 317.278 367.052C317.278 389.538 357.496 407.766 407.108 407.766Z" fill="#BF8B0A"/>
<path d="M496.242 367.053C496.129 377.604 487.425 385.479 479.079 390.604C466.644 398.234 452.062 402.266 437.781 404.621C419.826 407.598 401.306 407.861 383.257 405.601C368.034 403.698 352.49 400.005 338.869 392.714C330.089 388.004 320.236 380.788 318.295 370.313C316.355 359.837 323.684 351.566 331.37 346.027C342.788 337.794 356.843 333.367 370.502 330.578C388.099 326.999 406.336 326.207 424.216 327.771C440.117 329.165 456.282 332.406 470.845 339.113C480.416 343.54 491.457 350.248 495.149 360.779C495.865 362.814 496.223 364.905 496.242 367.053C496.242 367.958 497.655 367.958 497.655 367.053C497.542 356.635 489.573 348.665 481.396 343.296C468.566 334.893 453.117 330.597 438.139 328.11C419.524 325.02 400.364 324.794 381.674 327.281C366.263 329.335 350.531 333.197 336.891 340.846C328.092 345.782 318.503 353.356 316.845 363.982C315.281 373.949 321.743 382.446 329.204 388.211C340.715 397.085 355.335 401.795 369.39 404.734C387.722 408.558 406.788 409.387 425.421 407.635C441.662 406.109 458.147 402.68 472.918 395.559C482.451 390.962 492.983 384.047 496.562 373.515C497.278 371.424 497.618 369.258 497.655 367.053C497.655 366.149 496.242 366.149 496.242 367.053Z" fill="#2B63A8"/>
<path d="M407.108 393.977C456.72 393.977 496.939 375.749 496.939 353.263C496.939 330.778 456.72 312.549 407.108 312.549C357.496 312.549 317.278 330.778 317.278 353.263C317.278 375.749 357.496 393.977 407.108 393.977Z" fill="#FCBC00"/>
<path d="M496.242 353.263C496.129 363.813 487.425 371.689 479.079 376.813C466.644 384.444 452.062 388.475 437.781 390.83C419.826 393.807 401.306 394.071 383.257 391.81C368.034 389.907 352.49 386.215 338.869 378.923C330.089 374.213 320.236 366.997 318.295 356.522C316.355 346.047 323.684 337.776 331.37 332.237C342.788 324.004 356.843 319.576 370.502 316.788C388.099 313.208 406.336 312.417 424.216 313.981C440.117 315.375 456.282 318.615 470.845 325.323C480.416 329.75 491.457 336.457 495.149 346.989C495.865 349.024 496.223 351.115 496.242 353.263C496.242 354.167 497.655 354.167 497.655 353.263C497.542 342.844 489.573 334.875 481.396 329.505C468.566 321.102 453.117 316.807 438.139 314.32C419.524 311.23 400.364 311.004 381.674 313.491C366.263 315.545 350.531 319.407 336.891 327.056C328.092 331.992 318.503 339.566 316.845 350.192C315.281 360.158 321.743 368.655 329.204 374.421C340.715 383.294 355.335 388.004 369.39 390.944C387.722 394.768 406.788 395.597 425.421 393.845C441.662 392.319 458.147 388.89 472.918 381.768C482.451 377.171 492.983 370.257 496.562 359.725C497.278 357.634 497.618 355.467 497.655 353.263C497.655 352.359 496.242 352.359 496.242 353.263Z" fill="#2B63A8"/>
<path d="M404.603 362.588L438.986 372.347C438.986 372.762 438.666 372.818 438.459 372.969C435.897 374.702 433.334 376.417 430.791 378.15C430.244 378.527 429.792 378.621 429.227 378.452C418.507 375.381 407.768 372.347 397.029 369.314C396.483 369.163 396.125 368.881 395.88 368.391C395.39 367.43 394.919 366.469 394.316 365.584C393.77 364.774 393.883 364.303 394.881 363.662C397.048 362.287 399.196 360.892 401.212 359.291C403.736 357.275 405.94 354.995 407.41 352.113C408.898 349.211 409.256 346.367 408.371 343.597C408.107 342.768 407.806 342.617 406.92 343.22C400.816 347.365 394.693 351.472 388.588 355.598C388.061 355.956 387.552 356.295 386.818 356.785C387.119 354.28 387.402 352.019 387.684 349.739C387.741 349.23 388.231 349.08 388.588 348.854C393.544 345.519 398.499 342.184 403.435 338.83C403.736 338.623 404.264 338.491 404.264 338.096C404.264 337.719 403.774 337.681 403.472 337.549C400.345 336.155 397.085 337.078 393.807 338.717C389.907 340.658 386.347 343.314 382.673 345.764C382.277 346.027 381.9 346.291 381.278 346.706C381.58 344.219 381.863 341.939 382.126 339.678C382.164 339.32 382.447 339.151 382.71 338.981C394.241 331.219 405.771 323.438 417.301 315.695C417.678 315.864 417.49 316.222 417.452 316.486C417.245 318.257 416.981 320.009 416.849 321.78C416.774 322.609 416.434 323.061 415.719 323.532C412.968 325.322 410.255 327.187 407.391 329.109C408.239 329.467 408.993 329.749 409.709 330.107C410.669 330.578 411.555 331.181 412.252 331.973C412.704 332.481 413.1 332.425 413.74 331.973C416.774 329.881 419.845 327.847 423.142 325.623C422.953 327.187 422.633 328.581 422.652 329.9C422.689 332.18 421.729 333.725 419.543 334.817C418.432 335.383 417.414 336.23 416.34 336.928C415.869 337.229 415.681 337.493 415.85 338.039C417.621 343.993 415.737 349.72 411.724 355.259C409.935 357.727 407.806 359.875 405.394 361.759C405.168 361.929 404.961 362.117 404.754 362.305C404.697 362.343 404.697 362.437 404.622 362.607L404.603 362.588Z" fill="white"/>
<path d="M434.577 375.061C484.189 375.061 524.408 356.832 524.408 334.347C524.408 311.861 484.189 293.633 434.577 293.633C384.965 293.633 344.747 311.861 344.747 334.347C344.747 356.832 384.965 375.061 434.577 375.061Z" fill="#BF8B0A"/>
<path d="M523.711 334.346C523.598 344.897 514.894 352.772 506.547 357.897C494.113 365.527 479.53 369.559 465.249 371.914C447.294 374.891 428.774 375.155 410.725 372.894C395.502 370.991 379.959 367.298 366.338 360.007C357.558 355.297 347.704 348.081 345.764 337.606C343.823 327.131 351.152 318.86 358.839 313.321C370.256 305.087 384.311 300.66 397.97 297.872C415.567 294.292 433.805 293.501 451.684 295.064C467.585 296.459 483.751 299.699 498.314 306.406C507.885 310.834 518.925 317.541 522.618 328.073C523.334 330.107 523.692 332.199 523.711 334.346C523.711 335.251 525.124 335.251 525.124 334.346C525.011 323.928 517.041 315.958 508.865 310.589C496.034 302.186 480.585 297.89 465.607 295.404C446.993 292.314 427.832 292.088 409.143 294.575C393.731 296.628 378 300.49 364.359 308.14C355.561 313.076 345.971 320.65 344.313 331.276C342.749 341.242 349.212 349.739 356.672 355.504C368.184 364.378 382.804 369.088 396.859 372.027C415.191 375.852 434.257 376.681 452.89 374.929C469.13 373.403 485.616 369.974 500.386 362.852C509.92 358.255 520.451 351.34 524.031 340.809C524.747 338.717 525.086 336.551 525.124 334.346C525.124 333.442 523.711 333.442 523.711 334.346Z" fill="#2B63A8"/>
<path d="M434.577 361.289C484.189 361.289 524.408 343.06 524.408 320.575C524.408 298.089 484.189 279.861 434.577 279.861C384.965 279.861 344.747 298.089 344.747 320.575C344.747 343.06 384.965 361.289 434.577 361.289Z" fill="#FCBC00"/>
<path d="M523.711 320.574C523.598 331.125 514.894 339 506.547 344.124C494.113 351.755 479.53 355.787 465.249 358.142C447.294 361.118 428.774 361.382 410.725 359.121C395.502 357.218 379.959 353.526 366.338 346.235C357.558 341.524 347.704 334.309 345.764 323.833C343.823 313.358 351.152 305.087 358.839 299.548C370.256 291.315 384.311 286.888 397.97 284.099C415.567 280.519 433.805 279.728 451.684 281.292C467.585 282.686 483.751 285.927 498.314 292.634C507.885 297.061 518.925 303.768 522.618 314.3C523.334 316.335 523.692 318.426 523.711 320.574C523.711 321.478 525.124 321.478 525.124 320.574C525.011 310.155 517.041 302.186 508.865 296.816C496.034 288.414 480.585 284.118 465.607 281.631C446.993 278.541 427.832 278.315 409.143 280.802C393.731 282.856 378 286.718 364.359 294.367C355.561 299.303 345.971 306.877 344.313 317.503C342.749 327.47 349.212 335.967 356.672 341.732C368.184 350.605 382.804 355.316 396.859 358.255C415.191 362.079 434.257 362.908 452.89 361.156C469.13 359.63 485.616 356.201 500.386 349.079C509.92 344.482 520.451 337.568 524.031 327.036C524.747 324.945 525.086 322.778 525.124 320.574C525.124 319.67 523.711 319.67 523.711 320.574Z" fill="#2B63A8"/>
<path d="M432.072 329.9L466.456 339.66C466.456 340.074 466.136 340.131 465.928 340.282C463.366 342.015 460.804 343.729 458.26 345.463C457.714 345.839 457.262 345.934 456.697 345.764C445.977 342.693 435.238 339.66 424.499 336.626C423.952 336.476 423.594 336.193 423.349 335.703C422.859 334.742 422.388 333.782 421.786 332.896C421.239 332.086 421.352 331.615 422.351 330.974C424.517 329.599 426.665 328.205 428.681 326.603C431.206 324.588 433.41 322.308 434.88 319.425C436.368 316.524 436.726 313.679 435.84 310.909C435.577 310.08 435.275 309.93 434.39 310.533C428.285 314.677 422.162 318.785 416.058 322.911C415.531 323.269 415.022 323.608 414.287 324.098C414.589 321.592 414.871 319.331 415.154 317.051C415.21 316.543 415.7 316.392 416.058 316.166C421.013 312.831 425.968 309.496 430.904 306.143C431.206 305.936 431.733 305.804 431.733 305.408C431.733 305.031 431.243 304.994 430.942 304.862C427.814 303.467 424.555 304.391 421.277 306.03C417.377 307.97 413.816 310.627 410.142 313.076C409.747 313.34 409.37 313.604 408.748 314.018C409.049 311.531 409.332 309.251 409.596 306.991C409.634 306.633 409.916 306.463 410.18 306.294C421.71 298.531 433.24 290.75 444.771 283.007C445.148 283.176 444.959 283.534 444.921 283.798C444.714 285.569 444.45 287.321 444.319 289.092C444.243 289.921 443.904 290.373 443.188 290.844C440.437 292.634 437.724 294.5 434.861 296.421C435.709 296.779 436.462 297.062 437.178 297.42C438.139 297.891 439.024 298.494 439.722 299.285C440.174 299.794 440.569 299.737 441.21 299.285C444.243 297.194 447.314 295.159 450.611 292.936C450.423 294.5 450.103 295.894 450.121 297.213C450.159 299.492 449.198 301.037 447.013 302.13C445.901 302.695 444.884 303.543 443.81 304.24C443.339 304.541 443.15 304.805 443.32 305.352C445.091 311.305 443.207 317.033 439.194 322.572C437.404 325.04 435.275 327.187 432.864 329.072C432.638 329.241 432.43 329.429 432.223 329.618C432.167 329.656 432.167 329.75 432.091 329.919L432.072 329.9Z" fill="white"/>
<path d="M297.645 528.364C338.215 528.364 371.104 495.475 371.104 454.905C371.104 414.335 338.215 381.447 297.645 381.447C257.075 381.447 224.187 414.335 224.187 454.905C224.187 495.475 257.075 528.364 297.645 528.364Z" fill="#BF8B0A"/>
<path d="M368.297 472.294C360.93 501.591 335.722 523.992 305.559 527.252C275.301 530.53 245.552 514.082 232.213 486.745C218.818 459.276 224.432 425.288 246.004 403.621C267.482 382.049 301.075 376.077 328.657 389.077C356.239 402.076 372.555 430.808 370.181 460.632C369.861 464.57 369.22 468.47 368.278 472.313C368.071 473.199 369.427 473.576 369.635 472.69C376.869 442.772 364.736 410.8 339.189 393.485C313.34 375.964 278.221 376.812 253.239 395.501C228.332 414.115 217.48 447.35 226.806 477.061C236.094 506.64 263.545 527.723 294.518 529.06C325.115 530.379 354.167 511.897 365.998 483.674C367.487 480.113 368.693 476.458 369.616 472.709C369.842 471.823 368.466 471.447 368.259 472.332L368.297 472.294Z" fill="#2B63A8"/>
<path d="M289.903 518.756C330.473 518.756 363.362 485.868 363.362 445.298C363.362 404.728 330.473 371.839 289.903 371.839C249.333 371.839 216.445 404.728 216.445 445.298C216.445 485.868 249.333 518.756 289.903 518.756Z" fill="#FCBC00"/>
<path d="M360.554 462.687C353.187 491.983 327.979 514.384 297.816 517.644C267.558 520.922 237.809 504.474 224.47 477.137C211.075 449.668 216.689 415.68 238.261 394.014C259.739 372.441 293.332 366.469 320.914 379.469C347.969 392.224 364.812 421.2 362.438 451.024C362.118 454.962 361.477 458.862 360.535 462.705C360.328 463.591 361.684 463.968 361.892 463.082C369.126 433.164 356.993 401.192 331.446 383.877C305.597 366.356 270.478 367.204 245.496 385.893C220.514 404.583 209.737 437.742 219.063 467.453C228.389 497.164 255.802 518.115 286.775 519.452C317.749 520.79 346.424 502.289 358.255 474.066C359.744 470.505 360.95 466.85 361.873 463.101C362.099 462.216 360.724 461.839 360.516 462.724L360.554 462.687Z" fill="#2B63A8"/>
<path d="M280.068 443.375L296.139 484.333C295.8 484.673 295.517 484.428 295.272 484.333C292.088 483.354 288.923 482.355 285.739 481.394C285.042 481.187 284.684 480.848 284.42 480.17C279.428 467.377 274.397 454.585 269.367 441.792C269.122 441.151 269.084 440.567 269.31 439.927C269.744 438.665 270.196 437.383 270.497 436.083C270.761 434.878 271.213 434.595 272.438 435.009C275.057 435.914 277.675 436.78 280.388 437.365C283.78 438.08 287.152 438.269 290.506 437.233C293.878 436.196 296.44 434.143 298.061 430.959C298.55 429.998 298.456 429.602 297.345 429.263C289.733 426.946 282.141 424.572 274.548 422.217C273.907 422.01 273.267 421.821 272.344 421.539C274.586 419.711 276.601 418.072 278.636 416.433C279.088 416.056 279.559 416.414 279.974 416.546C286.135 418.449 292.277 420.352 298.437 422.255C298.814 422.368 299.285 422.763 299.624 422.424C299.926 422.104 299.624 421.595 299.511 421.2C298.456 417.055 295.442 414.718 291.824 412.966C287.529 410.894 282.894 409.726 278.372 408.294C277.883 408.143 277.412 407.992 276.639 407.748C278.862 405.939 280.897 404.281 282.913 402.642C283.233 402.378 283.554 402.51 283.893 402.623C298.211 407.069 312.53 411.516 326.83 415.943C326.943 416.452 326.528 416.565 326.302 416.753C324.739 418.053 323.118 419.278 321.592 420.615C320.876 421.237 320.255 421.313 319.388 421.03C316.015 419.937 312.624 418.901 309.063 417.808C309.365 418.901 309.647 419.881 309.874 420.842C310.156 422.16 310.288 423.498 310.137 424.836C310.043 425.702 310.363 426.023 311.174 426.249C314.979 427.379 318.766 428.585 322.854 429.847C321.46 430.978 320.123 431.863 319.068 432.994C317.24 434.953 315.318 435.349 312.907 434.181C311.682 433.578 310.269 433.352 308.969 432.899C308.404 432.711 308.065 432.749 307.726 433.352C304.146 440.059 298.211 443.092 290.92 443.921C287.68 444.298 284.458 444.072 281.255 443.375C280.954 443.318 280.671 443.262 280.37 443.224C280.294 443.224 280.219 443.28 280.049 443.356L280.068 443.375Z" fill="white"/>
<path d="M325.399 174.317C325.436 184.076 320.33 188.918 314.339 188.937C308.348 188.956 303.581 184.34 303.468 175.014C303.431 165.763 308.48 160.544 314.603 160.526C321.084 160.507 325.361 165.481 325.399 174.298V174.317ZM308.461 174.807C308.329 180.722 310.552 185.188 314.471 185.188C318.597 185.188 320.444 180.76 320.406 174.637C320.406 169.023 318.729 164.312 314.396 164.331C310.477 164.331 308.423 168.985 308.461 174.825V174.807ZM313.981 208.38L341.017 160.45H345.011L317.975 208.361H313.981V208.38ZM355.581 193.383C355.618 203.142 350.513 207.984 344.597 208.003C338.681 208.022 333.839 203.406 333.726 194.156C333.688 184.83 338.737 179.611 344.861 179.592C351.342 179.573 355.562 184.547 355.581 193.364V193.383ZM338.643 193.873C338.587 199.789 340.885 204.254 344.729 204.235C348.855 204.235 350.701 199.808 350.663 193.685C350.663 188.07 348.987 183.379 344.653 183.379C340.735 183.379 338.624 188.032 338.643 193.854V193.873Z" fill="white"/>
</svg>
