<svg width="652" height="652" viewBox="0 0 652 652" fill="none" xmlns="http://www.w3.org/2000/svg">
<rect width="652" height="652" fill="white"/>
<path d="M560.995 346.939C572.267 348.079 584.138 349.238 595.03 345.316C602.19 342.733 608.306 337.88 612.807 331.774C622.341 318.878 624.886 300.892 618.894 285.973C612.285 269.516 597.299 257.674 580.738 252.214C560.957 245.69 539.401 248.871 520.541 256.867C500.124 265.528 482.803 279.753 466.991 295.042C449.67 311.794 433.203 329.457 416.423 346.74C400.042 363.615 384.013 380.946 366.976 397.175C351.051 412.35 333.217 426.376 312.05 433.289C292.335 439.718 268.946 440.241 251.007 428.541C236.412 419.016 225.928 401.648 226.839 383.927C227.058 379.569 228.026 375.314 229.66 371.269C229.831 370.842 229.147 370.661 228.976 371.079C222.689 386.653 227.381 404.259 237.504 417.079C249.298 432.036 267.626 438.873 286.372 438.512C330.795 437.648 362.874 402.939 391.6 373.349C408.845 355.581 426.1 337.804 443.345 320.036C459.214 303.693 474.892 286.837 493.362 273.362C511.14 260.381 532.069 250.552 554.348 249.488C573.654 248.567 593.339 255.139 606.976 269.136C613.301 275.632 618.201 283.742 620.261 292.621C622.17 300.835 621.676 309.562 619.16 317.596C616.691 325.497 612.19 332.856 605.837 338.231C597.869 344.983 587.746 347.281 577.481 347.3C571.963 347.31 566.474 346.778 560.995 346.218C560.539 346.17 560.539 346.882 560.995 346.93V346.939Z" fill="#2B63A8"/>
<path d="M101.023 253.694C91.631 250.418 81.9543 247.066 71.8882 247.094C64.4336 247.113 57.2449 249.298 51.0248 253.4C39.2209 261.187 31.5194 274.814 30.1899 288.812C28.756 303.892 35.3844 318.725 45.5455 329.608C56.8271 341.697 72.1161 348.999 88.4023 351.326C127.612 356.938 163.803 336.72 195.748 316.607C213.744 305.278 231.673 293.854 249.63 282.468C266.942 271.5 284.064 260.104 301.803 249.848C318.232 240.352 335.809 231.986 354.669 228.843C371.591 226.022 389.767 227.276 405.313 234.958C409.083 236.819 412.653 239.07 415.987 241.634C416.347 241.909 416.708 241.292 416.348 241.017C403.442 231.046 387.184 226.772 371.041 226.763C353.605 226.744 336.74 231.72 321.014 238.975C303.816 246.904 287.92 257.36 271.956 267.473C254.236 278.698 236.526 289.923 218.805 301.157C202.073 311.764 185.511 322.827 168.029 332.181C150.546 341.535 132.854 348.562 113.596 350.803C95.5815 352.902 76.6364 350.519 60.8915 341.07C47.5112 333.036 36.4765 320.301 32.3646 305.06C28.2527 289.818 32.0987 274.368 41.8514 262.621C46.5426 256.971 52.6012 252.374 59.543 249.886C68.3936 246.715 77.8899 247.588 86.8354 249.915C91.574 251.149 96.2082 252.754 100.823 254.369C101.26 254.52 101.441 253.837 101.013 253.685L101.023 253.694Z" fill="#2B63A8"/>
<path d="M315.744 370.603C355.876 370.603 388.409 338.07 388.409 297.938C388.409 257.806 355.876 225.272 315.744 225.272C275.611 225.272 243.078 257.806 243.078 297.938C243.078 338.07 275.611 370.603 315.744 370.603Z" fill="#2A4850"/>
<path d="M315.744 359.683C355.876 359.683 388.409 327.149 388.409 287.017C388.409 246.885 355.876 214.351 315.744 214.351C275.611 214.351 243.078 246.885 243.078 287.017C243.078 327.149 275.611 359.683 315.744 359.683Z" fill="#CCE7A0"/>
<path d="M388.058 287.018C388.02 301.965 383.395 316.646 374.744 328.849C366.093 341.052 354.213 349.997 340.482 354.992C326.75 359.987 310.435 360.718 295.858 356.559C281.88 352.571 269.288 344.29 260.01 333.094C250.732 321.897 244.787 307.435 243.648 292.668C242.508 277.901 246.05 262.498 253.837 249.631C261.624 236.763 272.611 227.191 285.83 221.17C299.666 214.865 315.44 213.136 330.33 216.185C344.631 219.119 357.86 226.469 367.954 237.001C378.125 247.608 384.905 261.254 387.184 275.783C387.764 279.506 388.039 283.267 388.049 287.027C388.049 287.483 388.761 287.483 388.761 287.027C388.723 271.861 384.003 256.924 375.162 244.588C366.663 232.718 354.65 223.525 340.956 218.483C326.522 213.165 310.445 212.586 295.659 216.802C281.519 220.838 268.756 229.233 259.402 240.571C250.048 251.91 244.075 266.468 242.936 281.386C241.796 296.305 245.367 311.812 253.22 324.784C260.855 337.395 272.317 347.585 285.754 353.634C299.609 359.873 315.307 361.611 330.197 358.62C345.087 355.628 358.297 348.202 368.562 337.443C378.79 326.722 385.627 312.952 387.887 298.299C388.466 294.567 388.742 290.797 388.751 287.027C388.751 286.571 388.039 286.571 388.039 287.027L388.058 287.018Z" fill="#2B63A8"/>
<path d="M175.322 377.974C205.82 377.974 230.543 349.037 230.543 313.342C230.543 277.647 205.82 248.71 175.322 248.71C144.824 248.71 120.101 277.647 120.101 313.342C120.101 349.037 144.824 377.974 175.322 377.974Z" fill="#2A4850"/>
<path d="M165.465 377.974C195.962 377.974 220.686 349.037 220.686 313.342C220.686 277.647 195.962 248.71 165.465 248.71C134.967 248.71 110.244 277.647 110.244 313.342C110.244 349.037 134.967 377.974 165.465 377.974Z" fill="#A5C661"/>
<path d="M220.325 313.342C220.296 326.324 217.001 339.286 210.268 350.435C204.181 360.51 195.283 368.981 184.41 373.682C173.537 378.382 161.514 378.857 150.451 375.182C139.388 371.507 129.797 363.73 123.083 354.157C115.723 343.673 111.602 331.091 110.766 318.337C109.902 305.175 112.447 291.767 118.534 280.029C123.975 269.536 132.275 260.41 142.759 254.807C153.043 249.318 165.104 247.637 176.461 250.353C187.819 253.069 197.724 259.897 205.055 268.843C213.108 278.662 218.027 290.883 219.679 303.438C220.106 306.723 220.315 310.028 220.325 313.333C220.325 313.789 221.037 313.789 221.037 313.333C221.009 300.123 217.628 286.914 210.724 275.604C204.532 265.462 195.501 256.944 184.505 252.262C173.508 247.58 161.429 247.106 150.271 250.809C139.017 254.541 129.474 262.29 122.655 271.9C115.144 282.489 110.946 295.242 110.073 308.157C109.199 321.072 111.754 335.108 117.926 346.997C123.444 357.633 131.886 366.901 142.541 372.542C153.195 378.183 165.056 379.731 176.518 377.034C188.056 374.318 198.227 367.338 205.672 358.212C213.725 348.346 218.663 336.162 220.363 323.579C220.819 320.18 221.047 316.761 221.056 313.342C221.056 312.886 220.344 312.886 220.344 313.342H220.325Z" fill="#2B63A8"/>
<path d="M459.28 377.974C489.778 377.974 514.501 349.037 514.501 313.342C514.501 277.647 489.778 248.71 459.28 248.71C428.783 248.71 404.059 277.647 404.059 313.342C404.059 349.037 428.783 377.974 459.28 377.974Z" fill="#2A4850"/>
<path d="M469.147 377.974C499.645 377.974 524.368 349.037 524.368 313.342C524.368 277.647 499.645 248.71 469.147 248.71C438.649 248.71 413.926 277.647 413.926 313.342C413.926 349.037 438.649 377.974 469.147 377.974Z" fill="#A5C661"/>
<path d="M413.575 313.341C413.603 326.551 416.984 339.76 423.888 351.07C430.079 361.212 439.11 369.73 450.107 374.412C461.104 379.094 473.183 379.569 484.341 375.865C495.594 372.133 505.138 364.384 511.956 354.774C519.468 344.185 523.665 331.432 524.539 318.517C525.441 305.184 522.858 291.566 516.686 279.677C511.168 269.041 502.726 259.773 492.071 254.132C481.416 248.491 469.555 246.943 458.093 249.64C446.555 252.356 436.385 259.336 428.94 268.462C420.887 278.328 415.949 290.512 414.249 303.095C413.793 306.495 413.565 309.913 413.556 313.332C413.556 313.788 414.268 313.788 414.268 313.332C414.296 300.35 417.592 287.388 424.324 276.239C430.412 266.164 439.31 257.693 450.183 252.992C461.056 248.292 473.078 247.817 484.142 251.492C495.205 255.167 504.796 262.944 511.51 272.517C518.87 283.001 522.991 295.583 523.827 308.337C524.691 321.499 522.146 334.907 516.059 346.645C510.617 357.138 502.318 366.264 491.834 371.867C481.549 377.356 469.489 379.037 458.131 376.321C446.774 373.605 436.869 366.777 429.538 357.832C421.485 348.012 416.566 335.791 414.914 323.236C414.486 319.951 414.277 316.646 414.268 313.341C414.268 312.886 413.556 312.886 413.556 313.341H413.575Z" fill="#2B63A8"/>
<path d="M494.274 297.806C494.312 285.423 483.876 275.461 471.303 276.288C460.505 277 451.816 285.86 451.294 296.676C451.057 301.472 452.405 305.944 454.846 309.62C458.321 314.862 460.743 320.73 461.559 326.969L461.588 327.169C461.645 327.577 461.987 327.881 462.405 327.89L483.6 327.947C484.018 327.947 484.36 327.644 484.417 327.235L484.559 326.172C485.367 320.322 487.323 314.634 490.618 309.733C492.916 306.324 494.255 302.222 494.265 297.806H494.274Z" fill="#F7D379"/>
<path d="M494.625 297.805C494.568 286.865 486.326 277.378 475.414 276.049C464.503 274.719 453.421 282.506 451.294 293.627C450.724 296.627 450.781 299.742 451.474 302.724C452.262 306.095 453.981 308.783 455.729 311.708C457.628 314.889 459.147 318.298 460.144 321.869C460.629 323.587 460.866 325.325 461.208 327.073C461.341 327.756 461.683 328.165 462.405 328.25C463.202 328.336 464.057 328.25 464.864 328.25L470.172 328.269L481.426 328.298C482.128 328.298 482.879 328.374 483.581 328.298C484.54 328.193 484.721 327.5 484.835 326.674C485.044 325.173 485.3 323.682 485.642 322.201C486.497 318.564 487.845 315.05 489.716 311.822C490.58 310.331 491.606 308.944 492.365 307.396C493.125 305.848 493.666 304.329 494.046 302.705C494.426 301.081 494.597 299.448 494.616 297.796C494.616 297.34 493.913 297.34 493.904 297.796C493.856 301.328 493.011 304.794 491.302 307.9C489.773 310.672 488.007 313.189 486.81 316.152C485.613 319.115 484.74 322.41 484.256 325.658C484.17 326.256 484.256 327.348 483.543 327.585C483.325 327.652 482.964 327.585 482.736 327.585L463.905 327.538C463.05 327.538 462.253 327.794 461.882 326.873C461.607 326.18 461.626 325.192 461.483 324.452C461.322 323.654 461.142 322.856 460.923 322.068C460.505 320.501 459.983 318.953 459.366 317.443C458.169 314.5 456.612 311.793 454.921 309.115C453.231 306.437 452.035 303.18 451.712 299.894C450.563 288.48 459.157 277.815 470.619 276.685C483.002 275.47 493.837 285.403 493.904 297.796C493.904 298.251 494.616 298.251 494.616 297.796L494.625 297.805Z" fill="#2B63A8"/>
<path d="M479.574 341.715L466.345 341.677C465.12 341.677 464.076 340.784 463.867 339.578L462.661 332.437C462.405 330.898 463.592 329.502 465.149 329.502L480.818 329.55C482.375 329.55 483.562 330.965 483.287 332.494L482.043 339.625C481.834 340.831 480.78 341.715 479.555 341.715H479.574Z" fill="white"/>
<path d="M479.574 341.354L469.099 341.325C467.608 341.325 465.291 341.734 464.446 340.176C464.123 339.587 464.095 338.742 463.981 338.087L463.43 334.811C463.117 332.959 462.281 329.968 465.215 329.854C466.573 329.797 467.95 329.854 469.318 329.863C473.088 329.873 476.886 329.759 480.666 329.892C482.1 329.939 483.135 330.974 482.954 332.456C482.85 333.329 482.65 334.194 482.499 335.058L481.872 338.666C481.644 340.005 481.216 341.268 479.583 341.354C479.127 341.382 479.127 342.094 479.583 342.066C482.328 341.923 482.479 339.35 482.84 337.251L483.486 333.519C483.629 332.684 483.828 331.857 483.505 331.031C482.755 329.103 480.875 329.189 479.175 329.179L471.967 329.16L465.728 329.141C463.705 329.141 462.015 330.366 462.338 332.589C462.642 334.668 463.031 336.729 463.382 338.799C463.534 339.701 463.667 340.556 464.37 341.23C465.025 341.848 465.832 342.009 466.697 342.018C470.989 342.066 475.272 342.037 479.564 342.056C480.02 342.056 480.02 341.344 479.564 341.344L479.574 341.354Z" fill="#2B63A8"/>
<path d="M463.174 334.926C463.877 334.898 464.608 334.67 465.301 334.537C466.858 334.224 468.416 333.901 469.964 333.587C473.411 332.875 476.858 332.153 480.296 331.422C481.103 331.251 481.91 331.08 482.717 330.909C483.164 330.814 482.974 330.131 482.527 330.226C476.962 331.403 471.398 332.581 465.823 333.701C465.016 333.863 463.839 334.186 463.164 334.214C462.709 334.233 462.709 334.945 463.164 334.926H463.174Z" fill="#97BBC0"/>
<path d="M463.791 339.541C464.703 339.503 465.643 339.209 466.536 339.028C468.482 338.639 470.429 338.231 472.376 337.822C475.88 337.091 479.384 336.36 482.888 335.619C483.335 335.524 483.145 334.84 482.698 334.935C479.261 335.657 475.832 336.379 472.395 337.1C470.476 337.499 468.568 337.898 466.649 338.287C465.776 338.468 464.56 338.81 463.801 338.838C463.345 338.857 463.345 339.569 463.801 339.551L463.791 339.541Z" fill="#97BBC0"/>
<path d="M479.688 300.245L474.987 300.292C474.987 300.292 468.064 311.545 465.947 315.467C466.061 315.477 466.089 315.429 466.127 315.391C469.422 312.239 472.718 309.086 476.013 305.924C477.437 304.556 478.871 303.189 480.296 301.821C480.733 301.403 480.808 300.853 480.429 300.53C480.239 300.368 479.944 300.264 479.688 300.235V300.245Z" fill="white"/>
<path d="M479.688 299.894L475.69 299.932C475.329 299.932 474.93 299.846 474.674 300.121C474.493 300.311 474.37 300.615 474.237 300.834C472.338 303.939 470.448 307.044 468.587 310.178C467.58 311.868 466.573 313.559 465.633 315.297C465.472 315.591 465.738 315.866 466.032 315.819C466.327 315.771 466.498 315.534 466.706 315.335C467.105 314.945 467.514 314.565 467.912 314.176C468.72 313.407 469.527 312.638 470.325 311.859C471.939 310.32 473.544 308.773 475.158 307.234C476.772 305.696 478.32 304.214 479.897 302.704C480.372 302.249 481.065 301.755 481.017 301.014C480.97 300.349 480.372 300.008 479.773 299.913C479.327 299.837 479.128 300.53 479.583 300.596C479.707 300.615 480.001 300.644 480.077 300.739L480.03 301.584L479.707 301.888C479.422 302.163 479.137 302.439 478.852 302.704C478.244 303.284 477.637 303.863 477.029 304.442C475.756 305.658 474.484 306.873 473.221 308.089C471.958 309.304 470.733 310.472 469.489 311.659C468.862 312.258 468.245 312.856 467.618 313.445L466.735 314.29C466.545 314.47 466.08 315.078 465.833 315.116L466.232 315.638C468.758 310.966 471.607 306.446 474.379 301.916C474.674 301.432 474.968 300.948 475.272 300.463L474.968 300.644L479.669 300.596C480.125 300.596 480.125 299.875 479.669 299.884L479.688 299.894Z" fill="#2B63A8"/>
<path d="M481.198 289.799C480.989 289.41 480.628 289.353 480.229 289.353C478.833 289.353 477.437 289.363 476.041 289.353C475.481 289.353 475.111 289.581 474.854 290.075C473.031 293.55 471.208 297.017 469.384 300.483C468.995 301.223 469.289 301.708 470.125 301.708C471.198 301.708 473.648 301.727 473.848 301.736L476.469 297.757C476.592 297.548 476.668 297.425 476.744 297.311C478.168 295.155 479.602 293 481.027 290.853C481.245 290.521 481.388 290.189 481.179 289.799H481.198Z" fill="white"/>
<path d="M481.511 289.629C481.131 289.069 480.628 289.012 479.992 289.012C478.966 289.012 477.941 289.012 476.915 289.012C476.269 289.012 475.576 288.907 475.035 289.325C474.389 289.819 474.076 290.835 473.705 291.528C472.775 293.304 471.844 295.07 470.913 296.837C470.496 297.634 470.078 298.422 469.66 299.22C469.356 299.799 468.748 300.559 468.891 301.262C469.109 302.354 470.742 302.069 471.54 302.079C472.081 302.079 472.632 302.079 473.173 302.088C473.515 302.088 473.924 302.192 474.171 301.927C474.56 301.518 474.835 300.91 475.149 300.445L476.592 298.261C477.38 297.064 478.159 295.868 478.947 294.671C479.527 293.798 480.106 292.924 480.685 292.05C481.141 291.357 481.901 290.597 481.549 289.714C481.378 289.297 480.695 289.477 480.865 289.904C481.074 290.417 480.619 290.882 480.343 291.291C480.068 291.699 479.802 292.098 479.536 292.506C479.004 293.313 478.463 294.121 477.931 294.928C477.276 295.915 476.63 296.922 475.975 297.91L473.563 301.575L473.867 301.395C472.746 301.347 471.626 301.376 470.505 301.366C470.192 301.366 469.669 301.452 469.584 301.062C469.508 300.711 470.116 299.894 470.277 299.59C470.79 298.612 471.303 297.644 471.816 296.666C472.841 294.719 473.867 292.763 474.892 290.806C475.111 290.389 475.291 289.857 475.804 289.733C476.317 289.61 476.991 289.714 477.532 289.724C478.102 289.724 478.681 289.724 479.251 289.724C479.726 289.724 480.59 289.534 480.894 289.99C481.15 290.37 481.768 290.009 481.511 289.629Z" fill="#2B63A8"/>
<path d="M100.51 259.487C103.405 259.487 105.752 257.14 105.752 254.245C105.752 251.35 103.405 249.003 100.51 249.003C97.615 249.003 95.2681 251.35 95.2681 254.245C95.2681 257.14 97.615 259.487 100.51 259.487Z" fill="white"/>
<path d="M105.154 255.755C104.508 257.683 102.723 259.069 100.671 259.126C98.6202 259.183 96.683 257.92 95.9423 255.992C95.2015 254.065 95.7713 251.862 97.3192 250.523C98.8671 249.184 101.118 248.984 102.884 249.972C104.926 251.111 105.828 253.542 105.144 255.755C105.011 256.192 105.695 256.382 105.828 255.945C106.512 253.704 105.761 251.235 103.9 249.801C102.039 248.367 99.4274 248.272 97.4617 249.535C95.4959 250.798 94.4988 253.257 95.0496 255.556C95.6004 257.854 97.5376 259.525 99.8452 259.8C102.504 260.123 104.992 258.452 105.837 255.945C105.98 255.508 105.296 255.318 105.154 255.755Z" fill="#2B63A8"/>
<path d="M229.327 376.416C232.222 376.416 234.569 374.069 234.569 371.174C234.569 368.279 232.222 365.932 229.327 365.932C226.432 365.932 224.085 368.279 224.085 371.174C224.085 374.069 226.432 376.416 229.327 376.416Z" fill="white"/>
<path d="M233.971 372.693C233.325 374.621 231.54 376.007 229.489 376.064C227.438 376.121 225.5 374.858 224.76 372.93C224.019 371.003 224.589 368.8 226.137 367.461C227.684 366.122 229.935 365.922 231.701 366.91C233.743 368.049 234.645 370.48 233.962 372.693C233.829 373.13 234.512 373.32 234.645 372.883C235.329 370.642 234.579 368.173 232.718 366.739C230.856 365.305 228.245 365.21 226.279 366.473C224.313 367.736 223.316 370.196 223.867 372.494C224.418 374.792 226.355 376.463 228.663 376.738C231.322 377.061 233.81 375.39 234.655 372.883C234.797 372.446 234.113 372.256 233.971 372.693Z" fill="#2B63A8"/>
<path d="M344.622 251.786L341.83 260.636L335.164 281.766L327.101 307.32L320.093 329.522L317.785 336.835C317.444 337.927 316.836 339.161 316.693 340.301C316.693 340.348 316.665 340.405 316.646 340.453C316.503 340.89 317.197 341.079 317.33 340.643L320.122 331.792L326.788 310.663L334.85 285.108L341.859 262.906L344.166 255.594C344.508 254.502 345.116 253.267 345.258 252.128C345.258 252.08 345.287 252.023 345.306 251.976C345.448 251.539 344.755 251.349 344.622 251.786Z" fill="#2B63A8"/>
<path d="M315.316 257.608L314.395 257.295L298.052 251.654C296.2 251.017 294.187 252.062 293.646 253.942L288.546 271.776C288.081 273.4 288.869 275.11 290.398 275.822L310.625 285.176L318.991 258.681L315.307 257.608H315.316Z" fill="#D65039"/>
<path d="M315.411 257.256L302.059 252.651C300.445 252.091 298.27 250.922 296.504 251.131C293.988 251.426 293.38 253.581 292.801 255.614L288.385 271.074C287.777 273.182 288.309 275.195 290.417 276.202C292.221 277.066 294.045 277.882 295.858 278.718L310.454 285.47C310.663 285.565 310.901 285.489 310.977 285.261L318.289 262.09L319.343 258.766C319.4 258.576 319.276 258.377 319.096 258.33L315.411 257.256C314.974 257.133 314.785 257.817 315.221 257.94L318.906 259.013L318.659 258.576L311.347 281.747L310.293 285.071L310.815 284.862L299.087 279.44L292.136 276.23C290.246 275.356 288.271 274.378 288.907 271.795C290.056 267.161 291.538 262.593 292.848 258.007L293.712 254.987C293.931 254.227 294.092 253.448 294.643 252.841C296.352 250.941 298.897 252.328 300.844 253.002L315.212 257.959C315.649 258.111 315.829 257.418 315.402 257.275L315.411 257.256Z" fill="#2B63A8"/>
<path d="M344.964 251.881C344.964 252.621 333.777 286.4 333.777 286.4L305.725 277.293L315.326 247.826C315.877 246.126 317.652 245.138 319.39 245.566L344.964 251.881Z" fill="#DC6F5D"/>
<path d="M344.603 251.881C344.546 252.84 343.796 254.569 343.454 255.661C342.58 258.424 341.688 261.178 340.785 263.932C338.801 270.019 336.797 276.106 334.793 282.193C334.337 283.561 333.891 284.938 333.435 286.305L333.872 286.058L309.267 278.072L305.811 276.951L306.057 277.388L314.101 252.698C314.576 251.254 315.031 249.792 315.516 248.358C316.162 246.459 317.69 245.557 319.666 246.012C323.929 246.99 328.174 248.111 332.419 249.156L344.859 252.223C345.306 252.337 345.496 251.644 345.049 251.539L320.216 245.414C318.175 244.911 316.019 245.262 315.088 247.427C314.68 248.386 314.414 249.431 314.091 250.419L309.182 265.489L305.364 277.198C305.307 277.388 305.44 277.578 305.611 277.635L330.216 285.621L333.673 286.742C333.863 286.799 334.053 286.666 334.11 286.495C337.424 276.495 340.738 266.505 343.938 256.468C344.28 255.395 344.622 254.331 344.945 253.258C345.078 252.821 345.287 252.337 345.315 251.881C345.344 251.425 344.631 251.425 344.603 251.881Z" fill="#2B63A8"/>
<path d="M149.312 299.324L169.254 294.12L184.04 299.219L168.181 330.718L139.16 311.175L149.312 299.324Z" fill="#2B63A8"/>
<path d="M149.407 299.676L164.61 295.706L168.209 294.766C168.504 294.69 168.808 294.614 169.102 294.529C169.453 294.434 169.178 294.481 169.225 294.491C170.042 294.643 170.887 295.07 171.675 295.336L176.433 296.979L183.935 299.571L183.726 299.049L169.833 326.645L167.877 330.539L168.361 330.415L142.959 313.312L139.34 310.872L139.416 311.432L149.568 299.59C149.862 299.248 149.359 298.735 149.065 299.087L138.913 310.929C138.761 311.109 138.78 311.356 138.989 311.489L164.392 328.592L168.01 331.032C168.162 331.137 168.418 331.07 168.494 330.909L182.387 303.313L184.343 299.419C184.448 299.201 184.353 298.973 184.135 298.897L177.639 296.656C174.99 295.744 172.331 294.605 169.624 293.892C169.244 293.788 169.073 293.816 168.694 293.921L165.655 294.719L155.94 297.254L149.226 299.011C148.78 299.125 148.97 299.818 149.416 299.695L149.407 299.676Z" fill="#2B63A8"/>
<path d="M174.125 295.784L169.282 294.179H169.273H169.263L149.33 299.393V299.383L149.321 299.393L145.988 303.21L150.65 304.435V304.426L170.583 299.222V299.231L174.125 295.784Z" fill="#00DBFF"/>
<path d="M174.163 295.67L171.742 294.863L170.099 294.322C169.919 294.265 169.738 294.189 169.548 294.141C169.491 294.122 169.444 294.103 169.387 294.084C169.273 294.046 169.387 294.065 169.396 294.141C169.377 294.075 169.311 294.046 169.254 294.056H169.301C169.216 294.037 169.13 294.113 169.159 294.208L169.244 294.065L162.492 295.832L151.79 298.633L149.312 299.279L149.454 299.364C149.435 299.279 149.321 299.25 149.255 299.307L149.293 299.279C149.226 299.298 149.198 299.364 149.207 299.421C149.179 299.298 149.236 299.326 149.103 299.469C148.97 299.602 148.856 299.754 148.732 299.886L147.574 301.216L145.902 303.125C145.845 303.191 145.864 303.296 145.959 303.324L150.622 304.549C150.708 304.568 150.793 304.492 150.765 304.407L150.679 304.54L157.431 302.773L168.133 299.972L170.612 299.326L170.469 299.241C170.488 299.336 170.602 299.364 170.669 299.307L174.211 295.87C174.325 295.765 174.154 295.594 174.04 295.699L170.498 299.136L170.697 299.193C170.678 299.117 170.612 299.089 170.555 299.098L163.803 300.865L153.101 303.666L150.622 304.312C150.556 304.331 150.527 304.397 150.537 304.454L150.679 304.321L146.016 303.096L146.073 303.296L147.935 301.168L149.065 299.877C149.15 299.782 149.483 299.516 149.445 299.364L149.359 299.507C149.359 299.507 149.407 299.488 149.426 299.469L149.226 299.412C149.245 299.478 149.312 299.516 149.369 299.497L156.12 297.731L166.823 294.929L169.301 294.284C169.368 294.265 169.396 294.198 169.387 294.141L169.244 294.284C169.244 294.284 169.301 294.284 169.32 294.284L169.178 294.198C169.216 294.35 169.624 294.407 169.729 294.445L171.4 294.996L174.097 295.889C174.239 295.936 174.306 295.708 174.163 295.661V295.67Z" fill="#2B63A8"/>
<path d="M145.988 303.806L150.451 304.898L151.154 312.799L140.072 310.672L145.988 303.806Z" fill="#00C1ED"/>
<path d="M145.959 303.92L148.352 304.508L149.929 304.898C150.033 304.926 150.233 305.021 150.337 305.002C150.47 304.983 150.337 304.945 150.337 304.936C150.347 305.657 150.47 306.389 150.527 307.101L150.84 310.605L151.04 312.799L151.192 312.685L141.506 310.833L140.11 310.567L140.167 310.766L146.083 303.891C146.178 303.777 146.016 303.606 145.912 303.72L139.996 310.595C139.939 310.662 139.958 310.776 140.053 310.795L149.739 312.647L151.135 312.913C151.201 312.922 151.296 312.884 151.287 312.799L150.584 304.898C150.584 304.85 150.546 304.793 150.499 304.784L146.035 303.692C145.883 303.654 145.826 303.882 145.969 303.92H145.959Z" fill="#2B63A8"/>
<path d="M174.543 295.945L171.039 299.412L174.457 306.771L183.356 299.117L174.543 295.945Z" fill="#00C1ED"/>
<path d="M174.467 295.859L170.954 299.325C170.954 299.325 170.916 299.42 170.935 299.468L174.353 306.827C174.391 306.903 174.486 306.894 174.543 306.856L182.33 300.161L183.451 299.202C183.527 299.135 183.479 299.031 183.394 299.002L174.581 295.831C174.439 295.783 174.372 296.011 174.515 296.059L183.327 299.23L183.27 299.031L175.483 305.726L174.363 306.685L174.553 306.713L172.207 301.671L171.552 300.256C171.447 300.028 171.343 299.629 171.172 299.439C171.067 299.325 171.248 299.363 171.124 299.487C171.21 299.401 171.295 299.325 171.371 299.24L172.454 298.176L174.619 296.03C174.724 295.926 174.562 295.755 174.448 295.859H174.467Z" fill="#2B63A8"/>
<path d="M173.755 307.161L151.781 312.887L151.031 304.834L170.564 299.744L173.755 307.161Z" fill="#00C1ED"/>
<path d="M173.727 307.046L166.3 308.983L154.468 312.07L151.752 312.772L151.904 312.886L151.182 305.185C151.173 305.071 151.163 304.957 151.154 304.843C151.173 305.071 150.983 304.9 151.154 304.919C151.372 304.948 151.743 304.767 151.952 304.71L155.399 303.808L165.161 301.263L169.073 300.247L170.232 299.943C170.308 299.924 170.431 299.914 170.498 299.876C170.669 299.772 170.536 299.99 170.469 299.801C170.925 301.073 171.552 302.317 172.084 303.552L173.66 307.208C173.717 307.35 173.926 307.227 173.869 307.084L170.678 299.668C170.659 299.62 170.593 299.601 170.545 299.611L153.404 304.083L151.011 304.71C151.011 304.71 150.916 304.777 150.926 304.824L151.676 312.877C151.676 312.953 151.743 313.01 151.828 312.991L159.254 311.054L171.087 307.967L173.803 307.265C173.954 307.227 173.888 306.999 173.736 307.037L173.727 307.046Z" fill="#2B63A8"/>
<path d="M167.991 329.902L152.198 313.388L173.746 307.757L167.991 329.902Z" fill="#009BBC"/>
<path d="M168.067 329.818L162.711 324.215L154.231 315.345L152.284 313.304L152.227 313.503L159.501 311.604L171.105 308.574L173.774 307.881L173.632 307.739L171.685 315.203L168.589 327.121L167.867 329.884C167.829 330.036 168.057 330.093 168.095 329.951L170.042 322.487L173.138 310.569L173.859 307.805C173.878 307.72 173.802 307.634 173.717 307.663L166.443 309.562L154.838 312.591L152.17 313.285C152.084 313.304 152.056 313.418 152.113 313.484L157.469 319.087L165.949 327.956L167.896 329.998C168 330.112 168.171 329.941 168.067 329.827V329.818Z" fill="#2B63A8"/>
<path d="M168.181 330.719L139.151 311.138L151.572 313.588L168.181 330.719Z" fill="#009BBC"/>
<path d="M168.361 330.406L142.949 313.274L139.331 310.834L139.056 311.489L146.425 312.942L150.66 313.778C150.907 313.825 151.22 313.835 151.458 313.93C151.192 313.816 151.439 313.949 151.572 314.1C153.11 315.867 154.848 317.481 156.481 319.162L163.528 326.427L167.934 330.966C168.257 331.298 168.76 330.795 168.437 330.463L157.611 319.304L152.284 313.816C151.239 312.733 149.378 312.799 147.954 312.515L139.246 310.796C138.847 310.72 138.628 311.214 138.97 311.451L164.382 328.582L168 331.023C168.38 331.279 168.741 330.662 168.361 330.406Z" fill="#2B63A8"/>
<path d="M168.19 330.691L183.925 299.411L174.42 307.653L168.19 330.691Z" fill="#009BBC"/>
<path d="M168.295 330.748L173.622 320.169L182.102 303.323L184.039 299.477C184.096 299.353 183.954 299.239 183.849 299.334L178.123 304.301L174.923 307.074C174.6 307.349 174.353 307.492 174.239 307.89L169.738 324.556L168.086 330.662C168.048 330.814 168.276 330.871 168.314 330.729L172.311 315.934L174.344 308.413C174.401 308.204 174.429 307.957 174.524 307.757C174.543 307.7 174.562 307.672 174.524 307.738C174.572 307.672 174.667 307.615 174.724 307.567L177.439 305.212L184.02 299.505L183.83 299.363L178.503 309.942L170.023 326.788L168.086 330.634C168.019 330.767 168.219 330.89 168.295 330.757V330.748Z" fill="#2B63A8"/>
<path d="M149.729 299.316L164.999 295.327L168.58 294.397C168.874 294.321 169.178 294.254 169.482 294.159C169.529 294.14 169.605 294.112 169.662 294.112C169.643 294.112 169.586 294.112 169.681 294.131C170.536 294.321 171.4 294.719 172.226 295.004L176.841 296.6L184.4 299.211L184.334 299.04L178.978 309.676L170.441 326.636L168.485 330.53L168.646 330.492L158.827 323.883L143.196 313.351L139.635 310.949L139.663 311.139L148.533 300.788L149.815 299.297C149.91 299.183 149.748 299.012 149.644 299.126L140.774 309.477L139.492 310.968C139.445 311.025 139.445 311.11 139.521 311.158L149.34 317.767L164.971 328.298L168.532 330.701C168.58 330.739 168.665 330.71 168.694 330.663L174.049 320.027L182.587 303.067L184.543 299.173C184.581 299.097 184.543 299.021 184.476 299.002L170.032 294.017C169.643 293.884 169.51 293.931 169.111 294.036L166.092 294.824L156.339 297.378L149.691 299.116C149.539 299.154 149.606 299.382 149.758 299.344L149.729 299.316Z" fill="#2B63A8"/>
<path d="M402.597 229.943C401.904 229.668 396.519 229.108 396.519 229.108L404.544 225.11L434.799 235.66L403.955 246.533L407.706 231.197L400.65 234.777L402.597 229.943Z" fill="white"/>
<path d="M402.692 229.592C400.802 228.936 398.494 228.946 396.519 228.737L396.7 229.402L399.976 227.768C401.438 227.037 403.053 226.42 404.43 225.546C404.544 225.47 404.848 225.413 404.582 225.423C404.316 225.432 404.487 225.442 404.553 225.48C404.772 225.575 405.009 225.641 405.227 225.717L408.247 226.771L428.883 233.969L434.704 236.002V235.318L407.753 244.824L403.86 246.201L404.297 246.637L408.048 231.301C408.124 230.988 407.801 230.76 407.525 230.902L400.47 234.482L400.992 234.881L402.939 230.047C403.11 229.62 402.416 229.44 402.255 229.858L400.308 234.691C400.185 235.005 400.584 235.223 400.831 235.09L407.886 231.51L407.364 231.111L403.613 246.448C403.556 246.694 403.784 246.979 404.05 246.884L431 237.379L434.894 236.002C435.226 235.888 435.236 235.432 434.894 235.318L419.538 229.962L409.073 226.315L405.759 225.157C405.389 225.024 404.857 224.72 404.449 224.767C404.059 224.815 403.565 225.204 403.224 225.366L400.46 226.743L396.339 228.794C395.987 228.965 396.206 229.421 396.519 229.459C398.447 229.658 400.669 229.649 402.502 230.285C402.939 230.437 403.119 229.744 402.692 229.601V229.592Z" fill="#2B63A8"/>
<path d="M404.192 225.006L402.407 229.498L402.151 230.143C401.98 230.571 402.673 230.751 402.834 230.333L404.62 225.842L404.876 225.196C405.047 224.768 404.354 224.588 404.192 225.006Z" fill="#2B63A8"/>
<path d="M434.884 235.31L411.238 231.341L407.858 230.771C407.411 230.695 407.212 231.379 407.668 231.455L431.314 235.424L434.694 235.994C435.141 236.07 435.34 235.386 434.884 235.31Z" fill="#2B63A8"/>
<path d="M400.042 235.243L406.547 235.927L407.715 231.397L400.042 235.243Z" fill="#2B63A8"/>
<path d="M560.919 351.66C563.814 351.66 566.161 349.313 566.161 346.418C566.161 343.523 563.814 341.176 560.919 341.176C558.024 341.176 555.677 343.523 555.677 346.418C555.677 349.313 558.024 351.66 560.919 351.66Z" fill="white"/>
<path d="M565.572 347.937C564.927 349.865 563.141 351.251 561.09 351.308C559.039 351.365 557.102 350.102 556.361 348.174C555.62 346.246 556.19 344.043 557.738 342.704C559.286 341.365 561.536 341.166 563.303 342.154C565.344 343.293 566.247 345.724 565.563 347.937C565.43 348.374 566.114 348.564 566.247 348.127C566.93 345.886 566.18 343.417 564.319 341.983C562.458 340.549 559.846 340.454 557.88 341.717C555.915 342.98 554.918 345.439 555.468 347.737C556.019 350.035 557.956 351.707 560.264 351.982C562.923 352.305 565.411 350.634 566.256 348.127C566.399 347.69 565.715 347.5 565.572 347.937Z" fill="#2B63A8"/>
</svg>
