<svg width="40" height="40" viewBox="0 0 40 40" fill="none" xmlns="http://www.w3.org/2000/svg">
<rect width="40" height="40" fill="white"/>
<g clip-path="url(#clip0_1202_5178)">
<path d="M30.0354 28.0003H12.5809C11.3978 28.0003 10.3678 27.193 10.0894 26.0238L7.55613 15.849C7.19423 14.3875 8.27992 12.9678 9.76926 12.9678H27.2933C28.4347 12.9678 29.4229 13.7612 29.7013 14.8747L32.2485 25.1191C32.6104 26.5806 31.5247 28.0003 30.0354 28.0003Z" fill="#0565AD"/>
<path d="M30.2024 27.2766H13.2908C12.1494 27.2766 11.1473 26.4971 10.8689 25.3836L8.41912 15.6681C8.07115 14.2762 9.11508 12.9121 10.5627 12.9121H27.5439C28.6435 12.9121 29.6178 13.6637 29.8823 14.7355L32.346 24.5067C32.6939 25.8986 31.6361 27.2626 30.2024 27.2626V27.2766Z" fill="#E9EFF8"/>
<path d="M30.1747 27.2207H14.0008C13.7781 27.2207 13.5693 27.2207 13.3466 27.2207C12.6924 27.2207 12.0661 26.9979 11.5789 26.5386C10.9108 25.8983 10.7855 24.8962 10.5628 24.0332L9.57456 20.108C9.26834 18.8971 8.96212 17.6722 8.6559 16.4612C8.58631 16.1968 8.51671 15.9462 8.46103 15.6818C8.25225 14.8466 8.53063 13.9697 9.19874 13.4408C9.61632 13.1067 10.1313 12.9676 10.6602 12.9676H26.2496C26.7507 12.9676 27.2657 12.9258 27.7667 12.9676C28.755 13.065 29.5623 13.7888 29.8128 14.7492C29.8685 14.9719 29.9242 15.2085 29.9799 15.4312C30.2722 16.6143 30.5784 17.7975 30.8707 18.9806C31.2048 20.3168 31.5388 21.6391 31.8729 22.9753L32.193 24.2281C32.2904 24.6317 32.374 25.0214 32.3044 25.439C32.1234 26.469 31.2048 27.2067 30.1747 27.2207C30.1051 27.2207 30.1051 27.332 30.1747 27.3181C31.1352 27.3181 32.0121 26.6917 32.3183 25.7731C32.4853 25.2859 32.4435 24.7987 32.3183 24.3116C32.0677 23.3094 31.8172 22.3211 31.5666 21.319L30.4949 17.0876C30.3 16.3081 30.1051 15.5287 29.9103 14.7492C29.7015 13.914 29.0751 13.2459 28.24 12.9815C27.9338 12.884 27.6136 12.8701 27.2935 12.8701H10.6463C10.1313 12.8701 9.64415 12.9954 9.22658 13.2877C8.47495 13.8305 8.12698 14.7909 8.34968 15.6818C8.53063 16.4056 8.71158 17.1293 8.89252 17.8671L9.95037 22.0845L10.7298 25.1746C10.8412 25.6339 11.0082 26.0654 11.3144 26.4273C11.8016 27.0119 12.5254 27.332 13.2909 27.332C13.8755 27.332 14.4601 27.332 15.0447 27.332H30.1747C30.1747 27.332 30.2443 27.2346 30.1747 27.2346V27.2207Z" fill="#0565AD"/>
<path d="M14.5019 24.1858C14.7246 23.4342 14.989 22.7104 15.2813 21.9866C15.5458 21.3464 15.8242 20.7061 16.1582 20.0936C16.4644 19.523 16.8124 18.9662 17.2578 18.493C17.578 18.145 18.0095 17.7831 18.5245 17.7552C18.7611 17.7552 18.9838 17.8109 19.1926 17.9362C19.5823 18.1728 19.8885 18.5765 20.2226 18.8827C20.9464 19.5369 21.7954 20.2189 22.7837 20.372C23.6049 20.4973 24.3705 20.1772 25.0247 19.7039C26.4166 18.6878 27.6136 17.0175 27.4466 15.2081C27.4466 15.1802 27.4466 15.1385 27.4466 15.1106C27.4466 15.041 27.3352 15.0689 27.3491 15.1385C27.4187 15.5978 27.3352 16.1406 27.2099 16.586C26.8898 17.7135 26.1521 18.66 25.2613 19.3977C24.5932 19.9405 23.7998 20.3859 22.909 20.2746C21.865 20.1493 20.9603 19.3977 20.2226 18.7157C19.7633 18.2842 19.3178 17.6578 18.6219 17.6439C18.1487 17.6439 17.7311 17.9084 17.397 18.2146C16.9516 18.6321 16.6036 19.1611 16.2974 19.69C15.9494 20.2885 15.6571 20.9149 15.3788 21.5412C15.1421 22.0841 14.9334 22.6269 14.7385 23.1837C14.6271 23.4899 14.5158 23.7961 14.4323 24.1023C14.4323 24.1162 14.4323 24.1302 14.4323 24.1441C14.4183 24.2137 14.5158 24.2415 14.5297 24.1719L14.5019 24.1858Z" fill="#0565AD"/>
<path d="M18.2599 18.5491C18.6597 18.5491 18.9837 18.2251 18.9837 17.8254C18.9837 17.4256 18.6597 17.1016 18.2599 17.1016C17.8602 17.1016 17.5361 17.4256 17.5361 17.8254C17.5361 18.2251 17.8602 18.5491 18.2599 18.5491Z" fill="#0565AD"/>
<path d="M14.3627 24.6732C14.7624 24.6732 15.0865 24.3491 15.0865 23.9494C15.0865 23.5496 14.7624 23.2256 14.3627 23.2256C13.963 23.2256 13.6389 23.5496 13.6389 23.9494C13.6389 24.3491 13.963 24.6732 14.3627 24.6732Z" fill="#6E94D0"/>
<path d="M14.9611 24.2423C14.8359 24.4929 14.5853 24.646 14.293 24.6182C14.0007 24.5903 13.778 24.3955 13.6945 24.1171C13.611 23.8387 13.7362 23.5464 13.9729 23.3933C14.2095 23.2402 14.5157 23.2402 14.7384 23.4072C15.0029 23.5881 15.0864 23.95 14.9472 24.2284C14.9194 24.2841 15.0029 24.3398 15.0307 24.2841C15.1699 23.9918 15.1142 23.6438 14.8915 23.4072C14.6688 23.1706 14.3069 23.101 14.0146 23.2402C13.7223 23.3794 13.5414 23.6856 13.5692 24.0057C13.5971 24.3259 13.8337 24.6042 14.1399 24.6878C14.5018 24.7852 14.8776 24.6042 15.0307 24.2841C15.0586 24.2284 14.975 24.1727 14.9472 24.2284L14.9611 24.2423Z" fill="#0565AD"/>
<path d="M24.1059 20.9154C24.5056 20.9154 24.8297 20.5913 24.8297 20.1916C24.8297 19.7918 24.5056 19.4678 24.1059 19.4678C23.7061 19.4678 23.3821 19.7918 23.3821 20.1916C23.3821 20.5913 23.7061 20.9154 24.1059 20.9154Z" fill="#0565AD"/>
<path d="M27.3073 16.1829C27.707 16.1829 28.0311 15.8589 28.0311 15.4591C28.0311 15.0594 27.707 14.7354 27.3073 14.7354C26.9075 14.7354 26.5835 15.0594 26.5835 15.4591C26.5835 15.8589 26.9075 16.1829 27.3073 16.1829Z" fill="#6E94D0"/>
<path d="M27.9059 15.7511C27.7807 16.0017 27.5301 16.1548 27.2378 16.1269C26.9455 16.0991 26.7228 15.9042 26.6393 15.6259C26.5558 15.3475 26.6811 15.0552 26.9177 14.9021C27.1543 14.749 27.4605 14.749 27.6832 14.916C27.9477 15.0969 28.0312 15.4588 27.892 15.7372C27.8642 15.7929 27.9477 15.8486 27.9755 15.7929C28.1147 15.5006 28.0591 15.1526 27.8364 14.916C27.6136 14.6794 27.2518 14.6098 26.9595 14.749C26.6672 14.8881 26.4862 15.1944 26.514 15.5145C26.5419 15.8346 26.7785 16.113 27.0847 16.1965C27.4466 16.294 27.8224 16.113 27.9755 15.7929C28.0034 15.7372 27.9199 15.6815 27.892 15.7372L27.9059 15.7511Z" fill="#0565AD"/>
</g>
<defs>
<clipPath id="clip0_1202_5178">
<rect width="24.9568" height="15.13" fill="white" transform="translate(7.48657 12.8701)"/>
</clipPath>
</defs>
</svg>
