<svg width="449" height="448" viewBox="0 0 449 448" fill="none" xmlns="http://www.w3.org/2000/svg">
<rect width="447.401" height="447.401" transform="translate(0.98877 0.260742)" fill="white"/>
<g clip-path="url(#clip0_1243_9775)">
<path d="M133.019 309.234H293.871C301.279 309.234 308.74 309.499 316.148 309.234C316.254 309.234 316.361 309.234 316.467 309.234C319.029 309.234 319.029 305.251 316.467 305.251H155.615C148.207 305.251 140.746 304.985 133.337 305.251C133.231 305.251 133.125 305.251 133.019 305.251C130.457 305.251 130.457 309.234 133.019 309.234Z" fill="#221F20"/>
<path d="M166.329 243.013H152.19C150.357 243.013 148.871 244.499 148.871 246.332V302.025C148.871 303.858 150.357 305.344 152.19 305.344H166.329C168.162 305.344 169.648 303.858 169.648 302.025V246.332C169.648 244.499 168.162 243.013 166.329 243.013Z" fill="#C5D8E3"/>
<path d="M212.223 303.83H191.446L193.438 305.821V202.654L191.446 204.645H212.223L210.232 202.654V305.821C210.232 308.384 214.215 308.384 214.215 305.821V202.654C214.215 201.578 213.299 200.662 212.223 200.662H191.446C190.371 200.662 189.455 201.578 189.455 202.654V305.821C189.455 306.897 190.371 307.813 191.446 307.813H212.223C214.786 307.813 214.786 303.83 212.223 303.83Z" fill="#221F20"/>
<path d="M251.481 243.013H237.342C235.509 243.013 234.023 244.499 234.023 246.332V302.025C234.023 303.858 235.509 305.344 237.342 305.344H251.481C253.314 305.344 254.8 303.858 254.8 302.025V246.332C254.8 244.499 253.314 243.013 251.481 243.013Z" fill="url(#paint0_linear_1243_9775)"/>
<path d="M297.363 303.83H276.586L278.577 305.822V186.882C278.577 185.315 278.816 183.55 278.577 181.996C278.577 181.93 278.577 181.85 278.577 181.784L276.586 183.775H297.363L295.371 181.784V290.554C295.371 295.559 295.146 300.618 295.371 305.623C295.371 305.689 295.371 305.769 295.371 305.835C295.371 308.397 299.354 308.397 299.354 305.835V197.051C299.354 192.046 299.58 186.988 299.354 181.983C299.354 181.917 299.354 181.837 299.354 181.771C299.354 180.695 298.438 179.779 297.363 179.779H276.586C275.51 179.779 274.594 180.695 274.594 181.771V290.541C274.594 295.546 274.369 300.604 274.594 305.609C274.594 305.676 274.594 305.755 274.594 305.822C274.594 306.897 275.51 307.813 276.586 307.813H297.363C299.925 307.813 299.925 303.83 297.363 303.83Z" fill="#221F20"/>
<path d="M148.897 215.558C154.221 210.141 159.531 204.725 164.855 199.295C173.338 190.652 181.808 182.023 190.292 173.38C192.243 171.402 194.182 169.411 196.133 167.432H193.319C206.05 177.562 218.782 187.692 231.5 197.821C233.319 199.268 235.151 200.729 236.97 202.176C237.82 202.853 238.948 202.999 239.785 202.176C246.077 196.056 252.37 189.949 258.663 183.828C268.66 174.124 278.643 164.406 288.64 154.701C290.95 152.457 293.26 150.213 295.557 147.97C297.402 146.178 294.575 143.363 292.743 145.155C286.45 151.276 280.157 157.382 273.864 163.503C263.867 173.207 253.884 182.926 243.887 192.63C241.577 194.874 239.267 197.118 236.97 199.361H239.785C227.053 189.232 214.321 179.102 201.603 168.972C199.784 167.525 197.952 166.065 196.133 164.618C195.297 163.954 194.142 163.782 193.319 164.618C187.995 170.035 182.684 175.451 177.361 180.881C168.877 189.524 160.407 198.153 151.924 206.796C149.972 208.774 148.034 210.765 146.083 212.743C144.29 214.576 147.105 217.39 148.897 215.558Z" fill="#221F20"/>
<path d="M196.452 178.332C202.295 178.332 207.033 173.595 207.033 167.751C207.033 161.907 202.295 157.17 196.452 157.17C190.608 157.17 185.871 161.907 185.871 167.751C185.871 173.595 190.608 178.332 196.452 178.332Z" fill="url(#paint1_linear_1243_9775)"/>
<path d="M291.295 160.821C297.139 160.821 301.876 156.084 301.876 150.24C301.876 144.396 297.139 139.659 291.295 139.659C285.452 139.659 280.714 144.396 280.714 150.24C280.714 156.084 285.452 160.821 291.295 160.821Z" fill="url(#paint2_linear_1243_9775)"/>
<path d="M150.039 225.143C155.883 225.143 160.62 220.406 160.62 214.562C160.62 208.719 155.883 203.981 150.039 203.981C144.195 203.981 139.458 208.719 139.458 214.562C139.458 220.406 144.195 225.143 150.039 225.143Z" fill="url(#paint3_linear_1243_9775)"/>
<path d="M240.13 211.416C245.974 211.416 250.711 206.679 250.711 200.835C250.711 194.991 245.974 190.254 240.13 190.254C234.286 190.254 229.549 194.991 229.549 200.835C229.549 206.679 234.286 211.416 240.13 211.416Z" fill="url(#paint4_linear_1243_9775)"/>
</g>
<defs>
<linearGradient id="paint0_linear_1243_9775" x1="234.023" y1="274.171" x2="254.8" y2="274.171" gradientUnits="userSpaceOnUse">
<stop stop-color="#9BCB9E"/>
<stop offset="1" stop-color="#78C1C4"/>
</linearGradient>
<linearGradient id="paint1_linear_1243_9775" x1="185.871" y1="167.751" x2="207.033" y2="167.751" gradientUnits="userSpaceOnUse">
<stop stop-color="#9BCB9E"/>
<stop offset="1" stop-color="#78C1C4"/>
</linearGradient>
<linearGradient id="paint2_linear_1243_9775" x1="280.714" y1="150.24" x2="301.876" y2="150.24" gradientUnits="userSpaceOnUse">
<stop stop-color="#9BCB9E"/>
<stop offset="1" stop-color="#78C1C4"/>
</linearGradient>
<linearGradient id="paint3_linear_1243_9775" x1="139.458" y1="214.562" x2="160.633" y2="214.562" gradientUnits="userSpaceOnUse">
<stop stop-color="#9BCB9E"/>
<stop offset="1" stop-color="#78C1C4"/>
</linearGradient>
<linearGradient id="paint4_linear_1243_9775" x1="229.549" y1="200.835" x2="250.711" y2="200.835" gradientUnits="userSpaceOnUse">
<stop stop-color="#9BCB9E"/>
<stop offset="1" stop-color="#78C1C4"/>
</linearGradient>
<clipPath id="clip0_1243_9775">
<rect width="187.298" height="169.694" fill="white" transform="translate(131.094 139.659)"/>
</clipPath>
</defs>
</svg>
