<svg width="40" height="40" viewBox="0 0 40 40" fill="none" xmlns="http://www.w3.org/2000/svg">
<rect width="40" height="40" fill="white"/>
<g clip-path="url(#clip0_1202_5385)">
<path d="M10.1266 18.9164C8.95282 20.4768 8.1933 22.3549 7.99997 24.3987C7.94473 24.9235 8.34521 25.393 8.88378 25.393H18.8957L18.9371 25.3516L11.4247 18.7645C11.0243 18.4192 10.4304 18.5021 10.1128 18.9164H10.1266Z" fill="#223838"/>
<path d="M20.3181 25.4482H29.9986C30.4957 25.4482 30.9238 25.0201 30.8824 24.523C30.7167 22.5068 29.9848 20.6563 28.8662 19.0958C28.5762 18.6816 27.9686 18.6401 27.5957 18.9854L20.3181 25.3792V25.4344V25.4482Z" fill="#223838"/>
<path d="M27.2505 17.0238C25.5796 15.4219 23.4115 14.3586 20.9948 14.0824C20.4562 14.0272 19.9729 14.4138 19.9729 14.9524V24.7295L27.2367 18.3495C27.6372 18.0043 27.6234 17.3967 27.2367 17.0238H27.2505Z" fill="#223838"/>
<path d="M19.1443 24.7579V14.7875C19.1443 14.3594 18.7852 13.9865 18.3571 14.0141C15.7609 14.1522 13.4271 15.2156 11.6319 16.8589C11.2314 17.2179 11.2314 17.8394 11.6319 18.1984L19.1305 24.7856H19.1581L19.1443 24.7579Z" fill="#223838"/>
<path d="M11.2314 18.9164C10.0576 20.4768 9.29804 22.3549 9.1047 24.3987C9.04947 24.9235 9.44994 25.393 9.98851 25.393H20.0004L20.0418 25.3516L12.5295 18.7645C12.129 18.4192 11.5352 18.5021 11.2176 18.9164H11.2314Z" fill="#B60000"/>
<path d="M20.0004 25.4064H9.98852C9.73995 25.4064 9.50518 25.296 9.32566 25.1164C9.14614 24.9231 9.06328 24.6607 9.0909 24.3983C9.27042 22.4098 10.0161 20.5041 11.2176 18.9022C11.3695 18.695 11.618 18.5569 11.8666 18.5293C11.8942 18.5293 11.9219 18.5293 11.9633 18.5293C12.1842 18.5293 12.3914 18.6122 12.5433 18.7502L20.0695 25.365L20.0004 25.4203V25.4064ZM11.2452 18.916C10.0438 20.5179 9.31185 22.4098 9.13233 24.3983C9.10471 24.6607 9.18757 24.9093 9.36709 25.1026C9.5328 25.2822 9.75376 25.3788 10.0023 25.3788H20.028L12.5295 18.7779C12.3638 18.6398 12.1704 18.5569 11.9633 18.5569C11.9357 18.5569 11.908 18.5569 11.8666 18.5569C11.618 18.5845 11.3971 18.7088 11.2314 18.916H11.2452Z" fill="#375D97"/>
<path d="M21.4229 25.4482H31.1033C31.6005 25.4482 32.0286 25.0201 31.9871 24.523C31.8214 22.5068 31.0895 20.6563 29.9709 19.0958C29.6809 18.6816 29.0733 18.6401 28.7005 18.9854L21.4229 25.3792V25.4344V25.4482Z" fill="#9BC650"/>
<path d="M31.117 25.4752H21.4089V25.3786L28.6866 18.9848C28.8523 18.8329 29.0732 18.75 29.2942 18.75C29.3218 18.75 29.3632 18.75 29.3908 18.75C29.6394 18.7776 29.8466 18.9019 29.9846 19.0952C31.1446 20.6971 31.8489 22.5752 32.0146 24.5224C32.0285 24.7571 31.9594 24.9919 31.7937 25.1714C31.6142 25.3648 31.3794 25.4752 31.117 25.4752ZM21.4366 25.4476H31.1032C31.3518 25.4476 31.5866 25.3371 31.7523 25.1576C31.918 24.9919 31.987 24.771 31.9732 24.5362C31.8075 22.589 31.117 20.711 29.957 19.1229C29.8189 18.9433 29.6256 18.819 29.3908 18.7914C29.1423 18.7638 28.8937 18.8467 28.7142 19.0124L21.4366 25.4062V25.4476Z" fill="#375D97"/>
<path d="M28.3553 17.0238C26.6843 15.4219 24.5162 14.3586 22.0995 14.0824C21.561 14.0272 21.0776 14.4138 21.0776 14.9524V24.7295L28.3414 18.3495C28.7419 18.0043 28.7281 17.3967 28.3414 17.0238H28.3553Z" fill="#F4AD00"/>
<path d="M21.0637 24.7712V14.9526C21.0637 14.6902 21.1742 14.4555 21.3537 14.2898C21.5471 14.1102 21.8232 14.0274 22.0994 14.055C24.4747 14.3312 26.6428 15.3531 28.369 17.0102C28.5623 17.1898 28.6728 17.4522 28.659 17.7007C28.659 17.9493 28.5485 18.1841 28.3551 18.3498L21.0637 24.7574V24.7712ZM21.989 14.0964C21.768 14.0964 21.5471 14.1793 21.3813 14.3312C21.2018 14.4969 21.0913 14.7179 21.0913 14.9664V24.7022L28.3275 18.3498C28.5071 18.1841 28.6175 17.9631 28.6175 17.7283C28.6175 17.4798 28.5209 17.2312 28.3413 17.0517C26.6151 15.3807 24.4609 14.3726 22.0856 14.0964C22.0442 14.0964 22.0166 14.0964 21.9751 14.0964H21.989Z" fill="#375D97"/>
<path d="M20.249 24.7579V14.7875C20.249 14.3594 19.89 13.9865 19.4619 14.0141C16.8657 14.1522 14.5319 15.2156 12.7366 16.8589C12.3362 17.2179 12.3362 17.8394 12.7366 18.1984L20.2352 24.7856H20.2628L20.249 24.7579Z" fill="#E50003"/>
<path d="M20.2213 24.799L12.7228 18.2119C12.5294 18.0462 12.4189 17.8114 12.4189 17.549C12.4189 17.2867 12.5294 17.0243 12.7228 16.8448C14.5732 15.1462 16.9623 14.1381 19.4618 14C19.4756 14 19.4894 14 19.5032 14C19.6966 14 19.8761 14.069 20.0142 14.2071C20.1799 14.359 20.2628 14.5662 20.2628 14.7871V24.7714L20.2213 24.8129V24.799ZM19.5032 14.0414C19.5032 14.0414 19.4756 14.0414 19.4618 14.0414C16.9761 14.1795 14.587 15.1876 12.7504 16.8862C12.557 17.0657 12.4466 17.3005 12.4604 17.5629C12.4604 17.8114 12.5709 18.0324 12.7504 18.1981L20.2351 24.7714V14.7871C20.2351 14.58 20.1523 14.3729 20.0004 14.2348C19.8623 14.1105 19.6966 14.0414 19.517 14.0414H19.5032Z" fill="#375D97"/>
<path d="M20.6497 26.7419C21.4497 26.7064 22.0653 25.9364 22.0248 25.0221C21.9842 24.1078 21.3028 23.3954 20.5028 23.4309C19.7027 23.4663 19.0871 24.2363 19.1276 25.1506C19.1682 26.0649 19.8496 26.7774 20.6497 26.7419Z" fill="#5E7180"/>
<path d="M19.0752 19.3029L19.4757 19.1924L20.8704 23.9705L19.6966 23.8462L19.0752 19.3029Z" fill="#3B4952"/>
<path d="M21.119 23.5976L19.4895 19.1924L20.4286 23.7633C19.89 24.0671 19.5309 24.7024 19.5585 25.3929C19.6 26.2629 20.249 26.8705 21.0086 26.76C21.7681 26.6495 22.3757 25.8762 22.3619 25.02C22.3619 24.2191 21.8095 23.6529 21.1328 23.6252L21.119 23.5976Z" fill="#E9EFF8"/>
<path d="M21.1604 23.5289C20.677 22.2446 20.2075 20.9465 19.7242 19.6622L19.5171 19.1237C19.5171 19.1237 19.4066 19.0822 19.4204 19.1513C19.6966 20.477 19.9728 21.8165 20.2351 23.1422L20.3594 23.7222L20.3871 23.667C19.8347 23.9984 19.4894 24.606 19.4894 25.2551C19.4894 25.8213 19.7656 26.4013 20.2904 26.6498C20.8151 26.8984 21.3951 26.7327 21.7956 26.3598C22.2513 25.9456 22.4585 25.2965 22.3618 24.6889C22.2513 24.0537 21.768 23.5427 21.1051 23.5013C21.0361 23.5013 21.0361 23.5979 21.1051 23.6117C21.6437 23.6532 22.0718 24.026 22.2237 24.537C22.3894 25.0894 22.2237 25.7108 21.8647 26.1389C21.5332 26.5394 20.9947 26.7741 20.4837 26.6222C19.9728 26.4703 19.6413 25.9594 19.5999 25.4484C19.5309 24.7856 19.8623 24.1089 20.4423 23.7637C20.4699 23.7637 20.4699 23.7222 20.4699 23.7084C20.1937 22.3827 19.9175 21.0432 19.6551 19.7175L19.5309 19.1375L19.4342 19.1651C19.9175 20.4494 20.387 21.7475 20.8704 23.0317L21.0775 23.5703C21.0775 23.5703 21.2018 23.6117 21.1742 23.5427L21.1604 23.5289Z" fill="#0565AD"/>
</g>
<defs>
<clipPath id="clip0_1202_5385">
<rect width="24.0148" height="12.76" fill="white" transform="translate(8 14)"/>
</clipPath>
</defs>
</svg>
