<svg width="449" height="448" viewBox="0 0 449 448" fill="none" xmlns="http://www.w3.org/2000/svg">
<rect width="447.401" height="447.401" transform="translate(0.96582 0.260742)" fill="white"/>
<g clip-path="url(#clip0_1243_9776)">
<path d="M234.491 222.912C238.553 222.912 242.629 222.952 246.691 222.885C247.833 222.872 248.192 223.204 248.112 224.332C248.019 225.7 248.006 227.08 248.112 228.448C248.205 229.669 247.754 229.988 246.572 229.988C239.124 229.948 231.676 229.975 224.242 229.988C222.303 229.988 222.37 229.961 222.901 231.847C225.224 239.998 233.283 243.025 240.81 242.374C243.837 242.109 246.798 241.472 249.586 240.25C250.435 239.878 250.701 239.998 250.887 240.98C251.431 243.835 252.135 246.663 252.798 249.49C252.998 250.353 252.984 251.004 252.002 251.402C240.107 256.181 228.556 256.035 217.763 248.548C212.028 244.578 208.616 238.883 207.209 232.059C206.863 230.413 206.239 229.895 204.54 229.961C200.159 230.121 200.159 230.028 200.146 225.54C200.146 223.815 201.013 222.952 202.748 222.952C205.775 222.952 205.682 222.952 205.828 219.885C205.921 218.185 205.496 217.641 203.717 217.721C200.146 217.88 200.146 217.761 200.106 214.243C200.079 211.897 201.239 210.716 203.584 210.698C206.85 210.671 206.757 210.631 207.846 207.485C212.014 195.351 220.352 188.168 233.203 186.443C239.283 185.633 245.151 186.535 250.913 188.461C252.201 188.885 252.745 189.323 252.267 190.85C251.431 193.505 250.794 196.24 250.249 198.988C249.971 200.409 249.599 200.688 248.165 200.17C243.558 198.484 238.819 197.541 233.907 198.842C228.437 200.289 224.919 203.781 223.007 209.038C222.529 210.353 222.675 210.764 224.215 210.751C231.544 210.671 238.872 210.751 246.2 210.685C247.647 210.685 248.298 210.99 248.085 212.57C247.86 214.256 248.789 216.513 247.7 217.482C246.758 218.318 244.541 217.761 242.894 217.761C236.084 217.761 229.26 217.787 222.449 217.734C221.268 217.734 220.883 218.039 220.883 219.261C220.883 222.952 220.816 222.952 224.494 222.952C227.813 222.952 231.132 222.952 234.464 222.952L234.491 222.912Z" fill="url(#paint0_linear_1243_9776)"/>
<path d="M157.45 234.781H137.324C135.337 234.781 133.726 236.392 133.726 238.379V313.136C133.726 315.123 135.337 316.734 137.324 316.734H157.45C159.437 316.734 161.048 315.123 161.048 313.136V238.379C161.048 236.392 159.437 234.781 157.45 234.781Z" fill="#C5D8E3"/>
<path d="M162.389 250.101C162.495 250.101 162.602 250.128 162.708 250.141C162.987 250.168 163.026 250.181 162.695 250.141C162.947 250.181 163.186 250.208 163.438 250.247C164.805 250.46 166.173 250.739 167.514 251.044C172.213 252.119 176.82 253.619 181.268 255.452C184.295 256.686 187.242 258.107 190.123 259.647C193.004 261.187 195.845 262.793 199.177 263.377C200.505 263.603 201.859 263.776 203.2 263.961C215.015 265.648 226.844 267.334 238.66 269.033C240.824 269.338 242.895 270.082 244.634 271.449C248.789 274.702 249.613 280.795 246.971 285.269C245.656 287.487 249.108 289.491 250.409 287.274C252.918 283.039 253.144 277.556 251.02 273.149C249.135 269.219 245.218 266.338 240.996 265.395C237 264.493 232.792 264.187 228.743 263.616C221.547 262.594 214.365 261.559 207.169 260.536C205.178 260.257 203.173 259.979 201.182 259.687C196.031 258.93 191.835 255.916 187.202 253.752C179.489 250.154 170.939 246.955 162.389 246.145C159.84 245.906 159.853 249.889 162.389 250.128V250.101Z" fill="#221F20"/>
<path d="M214.364 289.903H239.31C242.523 289.903 245.882 290.182 249.094 289.903C250.78 289.757 252.652 288.536 254.166 287.859C263.061 283.902 271.956 279.959 280.851 276.003C288.644 272.538 296.437 269.086 304.23 265.621C304.548 265.475 304.867 265.343 305.199 265.197C305.265 265.17 305.345 265.13 305.411 265.104C305.398 265.104 304.628 265.183 305.491 265.263C307.721 265.475 309.673 266.059 311.093 267.931C311.731 268.781 312.182 269.803 312.368 270.852C312.461 271.37 312.487 271.888 312.461 272.405C312.434 272.923 311.903 274.065 312.036 274.463C312.102 274.676 312.806 273.985 312.235 274.463C311.969 274.689 311.651 274.861 311.359 275.047L308.173 277.185L283.625 293.687L261.255 308.715C258.042 310.879 254.816 312.844 251.033 313.919C247.249 314.995 243.412 315.008 239.522 315.008H197.822C196.203 315.008 195.18 314.49 193.561 313.959C188.237 312.22 182.927 310.481 177.603 308.755C172.279 307.029 167.168 305.343 161.964 303.644C159.521 302.847 158.472 306.697 160.902 307.481C171.854 311.052 182.807 314.636 193.76 318.208C195.26 318.699 196.335 318.991 197.822 318.991H234.305C237.252 318.991 240.199 318.991 243.147 318.991C249.665 318.964 255.958 317.039 261.375 313.428C267.575 309.286 273.761 305.104 279.948 300.949C288.882 294.948 297.804 288.947 306.739 282.947L313.961 278.088C315.527 277.039 316.072 275.326 316.324 273.467C316.921 268.94 314.505 264.334 310.363 262.369C308.212 261.346 305.398 260.789 303.154 261.771C302.265 262.156 301.375 262.555 300.499 262.953L289.214 267.958C279.204 272.405 269.181 276.853 259.171 281.3C255.958 282.721 252.758 284.141 249.546 285.575C249.201 285.735 248.842 285.867 248.51 286.04C247.687 286.451 248.762 285.681 249.147 285.934C248.656 285.615 246.917 285.934 246.359 285.934H214.351C211.789 285.934 211.789 289.916 214.351 289.916L214.364 289.903Z" fill="#221F20"/>
<path d="M172.346 248.615C173.275 223.51 183.869 199.427 201.792 181.823C205.071 178.597 208.576 175.583 212.28 172.848H210.275C224.401 179.539 240.837 179.539 254.962 172.848H252.958C260.79 177.853 267.827 184.133 273.973 191.196C284.993 203.888 292.493 219.646 293.675 236.547C294.458 247.752 292.547 258.903 288.551 269.365C287.634 271.755 291.485 272.803 292.387 270.427C297.22 257.802 298.946 244.167 297.034 230.772C295.388 219.182 290.874 208.096 284.408 198.365C279.297 190.665 273.031 183.721 266.021 177.694C263.631 175.636 261.149 173.685 258.587 171.853C257.763 171.255 256.927 170.684 256.077 170.114C254.75 169.237 253.9 168.972 252.294 169.715C239.721 175.49 224.786 175.318 212.293 169.397C211.696 169.105 210.873 168.959 210.288 169.397C190.414 184.106 176.116 205.6 170.766 229.802C169.398 235.976 168.615 242.282 168.376 248.601C168.283 251.164 172.266 251.164 172.359 248.601L172.346 248.615Z" fill="#221F20"/>
<path d="M220.352 156.838C217.736 153.744 215.639 150.16 214.271 146.336C213.422 143.96 212.798 141.491 212.479 138.995C212.346 137.906 211.762 135.915 213.236 136.525C215.878 137.641 217.989 139.127 220.777 137.335C221.825 136.658 222.861 135.954 223.896 135.251C224.6 134.786 224.852 134.494 225.622 134.799C227.6 135.596 229.406 136.844 231.344 137.747C234.411 139.167 236.801 136.95 239.23 135.37C240.412 134.6 241.646 133.99 243.067 134.6C244.116 135.052 245.072 135.994 245.974 136.658C247.342 137.68 248.762 138.331 250.515 137.813C251.577 137.494 252.599 136.884 253.608 136.419C255.108 135.715 255.573 135.304 255.44 137.388C255.254 140.176 254.657 142.924 253.728 145.566C252.227 149.815 249.718 153.651 246.545 156.838C244.74 158.656 247.554 161.471 249.36 159.652C252.48 156.519 254.989 152.828 256.715 148.766C257.883 146.018 258.693 143.163 259.118 140.216C259.436 137.986 260.047 135.145 258.401 133.286C256.98 131.693 254.909 131.494 253.037 132.317C251.935 132.795 250.714 133.724 249.546 133.963C248.669 134.149 247.594 132.954 246.864 132.41C245.377 131.295 243.877 130.458 241.952 130.392C240.027 130.325 238.58 131.069 237.093 132.025C236.084 132.675 234.915 133.764 233.787 134.162C232.964 134.454 232.128 133.724 231.371 133.326C230.083 132.662 228.822 131.985 227.521 131.348C225.914 130.551 224.308 130.352 222.688 131.281C221.626 131.892 220.617 132.662 219.595 133.352C218.679 133.963 218.254 134.534 217.285 134.069C216.103 133.512 214.842 132.742 213.554 132.45C210.886 131.839 208.363 133.95 208.284 136.632C208.204 139.486 208.934 142.606 209.731 145.327C211.271 150.624 213.966 155.47 217.511 159.665C219.17 161.617 221.971 158.789 220.325 156.851L220.352 156.838Z" fill="#221F20"/>
<path d="M250.688 167.02C250.595 169.981 248.537 171.468 245.908 172.224C242.828 173.114 239.669 173.711 236.469 173.963C232.938 174.242 229.34 174.163 225.835 173.645C223.087 173.247 219.834 172.795 217.325 171.574C213.037 169.476 213.608 162.028 218.414 160.966C219.675 160.687 220.883 161.046 222.131 161.272C223.817 161.577 225.517 161.803 227.229 161.975C230.694 162.307 234.199 162.32 237.677 162.002C239.483 161.842 241.275 161.59 243.054 161.272C244.541 161.006 245.908 160.608 247.382 161.152C249.997 162.121 250.688 164.511 250.688 167.033C250.688 169.556 254.671 169.596 254.671 167.033C254.671 163.887 253.874 160.98 251.338 158.922C248.365 156.505 245.258 156.864 241.74 157.488C237.345 158.258 232.832 158.431 228.371 158.099C226.379 157.953 224.401 157.687 222.437 157.302C220.711 156.97 219.091 156.718 217.352 157.143C210.78 158.736 208.417 167.379 212.387 172.543C214.657 175.49 218.414 176.273 221.879 177.004C226.061 177.88 230.362 178.265 234.637 178.079C238.912 177.893 243.585 177.163 247.847 175.822C251.869 174.561 254.538 171.295 254.671 167.033C254.75 164.471 250.767 164.471 250.688 167.033V167.02Z" fill="#221F20"/>
<path d="M177.789 151.633C182.236 154.421 186.498 157.899 192.047 157.514C194.211 157.368 196.375 157.143 198.539 157.023C201.739 156.85 203.996 158.284 206.465 160.023C208.456 161.431 210.435 162.838 212.426 164.232C214.524 165.719 216.515 162.267 214.431 160.793C212.731 159.585 211.032 158.391 209.333 157.182C207.116 155.616 204.991 153.943 202.257 153.332C196.72 152.084 190.985 155.164 185.834 151.965C183.816 150.717 181.812 149.442 179.807 148.168C177.63 146.801 175.625 150.239 177.802 151.606L177.789 151.633Z" fill="#221F20"/>
<path d="M183.325 179.871C183.431 179.606 183.007 180.482 183.299 179.951C183.484 179.619 183.631 179.287 183.83 178.969C184.626 177.615 184.932 177.269 186.087 176.088C189.366 172.756 193.853 170.751 198.5 169.675C203.146 168.6 207.487 168.494 212.015 168.72C214.577 168.839 214.564 164.856 212.015 164.737C200.889 164.192 187.149 166.343 180.63 176.566C180.179 177.269 179.78 178.026 179.488 178.809C178.599 181.212 182.449 182.261 183.325 179.871Z" fill="#221F20"/>
</g>
<defs>
<linearGradient id="paint0_linear_1243_9776" x1="200.106" y1="220.363" x2="252.918" y2="220.363" gradientUnits="userSpaceOnUse">
<stop stop-color="#9BCB9E"/>
<stop offset="1" stop-color="#78C1C4"/>
</linearGradient>
<clipPath id="clip0_1243_9776">
<rect width="182.704" height="188.639" fill="white" transform="translate(133.726 130.365)"/>
</clipPath>
</defs>
</svg>
