<svg width="449" height="448" viewBox="0 0 449 448" fill="none" xmlns="http://www.w3.org/2000/svg">
<rect width="447.401" height="447.401" transform="translate(0.977539 0.260742)" fill="white"/>
<g clip-path="url(#clip0_1243_9753)">
<path d="M157.462 234.781H137.336C135.349 234.781 133.738 236.392 133.738 238.379V313.136C133.738 315.123 135.349 316.734 137.336 316.734H157.462C159.449 316.734 161.06 315.123 161.06 313.136V238.379C161.06 236.392 159.449 234.781 157.462 234.781Z" fill="#C5D8E3"/>
<path d="M162.401 250.101C162.507 250.101 162.613 250.128 162.72 250.141C162.998 250.168 163.038 250.181 162.706 250.141C162.959 250.181 163.197 250.208 163.45 250.247C164.817 250.46 166.185 250.739 167.525 251.044C172.225 252.119 176.832 253.619 181.279 255.452C184.306 256.686 187.254 258.107 190.134 259.647C193.015 261.187 195.856 262.793 199.189 263.377C200.516 263.603 201.87 263.776 203.211 263.961C215.027 265.648 226.856 267.334 238.672 269.033C240.836 269.338 242.907 270.082 244.646 271.449C248.801 274.702 249.624 280.795 246.982 285.269C245.668 287.487 249.12 289.491 250.421 287.274C252.93 283.039 253.156 277.556 251.032 273.149C249.146 269.219 245.23 266.338 241.008 265.395C237.012 264.493 232.804 264.187 228.754 263.616C221.559 262.594 214.376 261.559 207.181 260.536C205.189 260.257 203.185 259.979 201.193 259.687C196.042 258.93 191.847 255.916 187.214 253.752C179.5 250.154 170.951 246.955 162.401 246.145C159.852 245.906 159.865 249.889 162.401 250.128V250.101Z" fill="#221F20"/>
<path d="M214.376 289.903H239.322C242.535 289.903 245.894 290.182 249.107 289.903C250.793 289.757 252.664 288.536 254.178 287.859C263.073 283.902 271.968 279.959 280.863 276.003C288.656 272.538 296.449 269.086 304.242 265.621C304.56 265.475 304.879 265.343 305.211 265.197C305.277 265.17 305.357 265.13 305.423 265.104C305.41 265.104 304.64 265.183 305.503 265.263C307.733 265.475 309.685 266.059 311.105 267.931C311.743 268.781 312.194 269.803 312.38 270.852C312.473 271.37 312.499 271.888 312.473 272.405C312.446 272.923 311.915 274.065 312.048 274.463C312.114 274.676 312.818 273.985 312.247 274.463C311.982 274.689 311.663 274.861 311.371 275.047L308.185 277.185L283.637 293.687L261.267 308.715C258.055 310.879 254.828 312.844 251.045 313.919C247.261 314.995 243.424 315.008 239.535 315.008H197.835C196.215 315.008 195.193 314.49 193.573 313.959C188.249 312.22 182.939 310.481 177.615 308.755C172.292 307.029 167.18 305.343 161.976 303.644C159.533 302.847 158.484 306.697 160.914 307.481C171.867 311.052 182.819 314.636 193.772 318.208C195.272 318.699 196.348 318.991 197.835 318.991H234.317C237.264 318.991 240.212 318.991 243.159 318.991C249.677 318.964 255.97 317.039 261.387 313.428C267.587 309.286 273.773 305.104 279.96 300.949C288.895 294.948 297.816 288.947 306.751 282.947L313.973 278.088C315.54 277.039 316.084 275.326 316.336 273.467C316.934 268.94 314.517 264.334 310.375 262.369C308.225 261.346 305.41 260.789 303.166 261.771C302.277 262.156 301.387 262.555 300.511 262.953L289.227 267.958C279.216 272.405 269.193 276.853 259.183 281.3L249.558 285.575C249.213 285.735 248.854 285.867 248.522 286.04C247.699 286.451 248.775 285.681 249.16 285.934C248.668 285.615 246.929 285.934 246.372 285.934H214.363C211.801 285.934 211.801 289.916 214.363 289.916L214.376 289.903Z" fill="#221F20"/>
<path d="M172.358 248.615C173.287 223.51 183.881 199.427 201.804 181.823C205.083 178.597 208.588 175.583 212.292 172.848H210.287C224.413 179.539 240.849 179.539 254.974 172.848H252.97C260.803 177.853 267.839 184.133 273.986 191.196C285.005 203.888 292.506 219.646 293.687 236.547C294.471 247.752 292.559 258.903 288.563 269.365C287.647 271.755 291.497 272.803 292.399 270.427C297.232 257.802 298.958 244.167 297.046 230.772C295.4 219.182 290.886 208.096 284.421 198.365C279.309 190.665 273.043 183.721 266.033 177.694C263.644 175.636 261.161 173.685 258.599 171.853C257.776 171.255 256.939 170.684 256.09 170.114C254.762 169.237 253.912 168.972 252.306 169.715C239.734 175.49 224.798 175.318 212.305 169.397C211.708 169.105 210.885 168.959 210.301 169.397C190.426 184.106 176.128 205.6 170.778 229.802C169.411 235.976 168.627 242.282 168.388 248.601C168.295 251.164 172.278 251.164 172.371 248.601L172.358 248.615Z" fill="#221F20"/>
<path d="M220.364 156.838C217.749 153.744 215.651 150.16 214.283 146.336C213.434 143.96 212.81 141.491 212.491 138.995C212.358 137.906 211.774 135.915 213.248 136.525C215.89 137.641 218.001 139.127 220.789 137.335C221.838 136.658 222.873 135.954 223.909 135.251C224.612 134.786 224.864 134.494 225.634 134.799C227.613 135.596 229.418 136.844 231.356 137.747C234.423 139.167 236.813 136.95 239.242 135.37C240.424 134.6 241.659 133.99 243.079 134.6C244.128 135.052 245.084 135.994 245.987 136.658C247.354 137.68 248.775 138.331 250.527 137.813C251.589 137.494 252.611 136.884 253.62 136.419C255.12 135.715 255.585 135.304 255.452 137.388C255.267 140.176 254.669 142.924 253.74 145.566C252.24 149.815 249.73 153.651 246.557 156.838C244.752 158.656 247.566 161.471 249.372 159.652C252.492 156.519 255.001 152.828 256.727 148.766C257.895 146.018 258.705 143.163 259.13 140.216C259.448 137.986 260.059 135.145 258.413 133.286C256.992 131.693 254.921 131.494 253.049 132.317C251.948 132.795 250.726 133.724 249.558 133.963C248.682 134.149 247.606 132.954 246.876 132.41C245.389 131.295 243.889 130.458 241.964 130.392C240.039 130.325 238.592 131.069 237.105 132.025C236.096 132.675 234.928 133.764 233.799 134.162C232.976 134.454 232.14 133.724 231.383 133.326C230.095 132.662 228.834 131.985 227.533 131.348C225.927 130.551 224.32 130.352 222.7 131.281C221.638 131.892 220.629 132.662 219.607 133.352C218.691 133.963 218.266 134.534 217.297 134.069C216.116 133.512 214.854 132.742 213.567 132.45C210.898 131.839 208.376 133.95 208.296 136.632C208.216 139.486 208.947 142.606 209.743 145.327C211.283 150.624 213.978 155.47 217.523 159.665C219.182 161.617 221.984 158.789 220.337 156.851L220.364 156.838Z" fill="#221F20"/>
<path d="M250.7 167.02C250.607 169.981 248.549 171.468 245.92 172.224C242.84 173.114 239.68 173.711 236.481 173.963C232.95 174.242 229.352 174.163 225.847 173.645C223.099 173.247 219.846 172.795 217.337 171.574C213.049 169.476 213.62 162.028 218.426 160.966C219.687 160.687 220.895 161.046 222.143 161.272C223.829 161.577 225.528 161.803 227.241 161.975C230.706 162.307 234.211 162.32 237.689 162.002C239.495 161.842 241.287 161.59 243.066 161.272C244.553 161.006 245.92 160.608 247.394 161.152C250.009 162.121 250.7 164.511 250.7 167.033C250.7 169.556 254.682 169.596 254.682 167.033C254.682 163.887 253.886 160.98 251.35 158.922C248.376 156.505 245.27 156.864 241.752 157.488C237.357 158.258 232.843 158.431 228.383 158.099C226.391 157.953 224.413 157.687 222.448 157.302C220.722 156.97 219.103 156.718 217.364 157.143C210.792 158.736 208.429 167.379 212.398 172.543C214.668 175.49 218.426 176.273 221.891 177.004C226.073 177.88 230.374 178.265 234.649 178.079C238.924 177.893 243.597 177.163 247.858 175.822C251.881 174.561 254.55 171.295 254.682 167.033C254.762 164.471 250.779 164.471 250.7 167.033V167.02Z" fill="#221F20"/>
<path d="M177.801 151.633C182.248 154.421 186.51 157.899 192.059 157.514C194.223 157.368 196.387 157.143 198.551 157.023C201.751 156.85 204.007 158.284 206.477 160.023C208.468 161.431 210.446 162.838 212.438 164.232C214.535 165.719 216.527 162.267 214.442 160.793C212.743 159.585 211.044 158.391 209.344 157.182C207.127 155.616 205.003 153.943 202.268 153.332C196.732 152.084 190.997 155.164 185.846 151.965C183.828 150.717 181.823 149.442 179.819 148.168C177.641 146.801 175.637 150.239 177.814 151.606L177.801 151.633Z" fill="#221F20"/>
<path d="M183.337 179.871C183.443 179.606 183.018 180.482 183.31 179.951C183.496 179.619 183.642 179.287 183.841 178.969C184.638 177.615 184.943 177.269 186.098 176.088C189.377 172.756 193.865 170.751 198.511 169.675C203.158 168.6 207.499 168.494 212.026 168.72C214.589 168.839 214.575 164.856 212.026 164.737C200.901 164.192 187.16 166.343 180.642 176.566C180.19 177.269 179.792 178.026 179.5 178.809C178.611 181.212 182.461 182.261 183.337 179.871Z" fill="#221F20"/>
<path d="M233.693 253.832C232.525 253.832 231.356 253.832 230.188 253.832C229.153 253.832 228.728 253.434 228.701 252.385C228.675 250.792 228.688 249.185 228.701 247.592C228.701 247.194 228.582 247.035 228.183 246.942C222.621 245.548 217.894 242.733 214.044 238.472C213.819 238.219 213.566 237.967 213.354 237.702C212.69 236.865 212.704 236.308 213.46 235.538C214.456 234.542 215.478 233.586 216.5 232.617C217.536 231.634 218.572 230.652 219.607 229.67C220.775 228.554 221.373 228.541 222.621 229.577C224.161 230.864 225.648 232.232 227.387 233.267C230.135 234.914 233.042 235.71 236.255 235.073C238.844 234.555 240.265 232.922 240.304 230.44C240.318 229.51 239.972 228.767 239.322 228.13C238.008 226.855 236.375 226.085 234.675 225.488C231.25 224.279 227.825 223.071 224.639 221.292C221.771 219.699 219.182 217.774 217.403 214.946C212.73 207.565 215.412 198.351 223.298 194.528C224.785 193.811 226.338 193.253 227.944 192.935C228.582 192.815 228.728 192.55 228.701 191.952C228.648 190.598 228.675 189.231 228.701 187.863C228.714 186.682 229.245 186.164 230.427 186.164C232.564 186.164 234.715 186.164 236.853 186.164C238.14 186.164 238.817 186.841 238.817 188.116C238.817 189.364 238.844 190.625 238.804 191.873C238.791 192.404 238.937 192.603 239.481 192.722C244.008 193.612 247.951 195.656 251.35 198.763C253.089 200.356 253.089 201.153 251.469 202.852C249.77 204.644 248.097 206.45 246.398 208.229C245.402 209.278 244.712 209.331 243.597 208.415C242.309 207.366 241.048 206.277 239.587 205.467C237.224 204.153 234.755 203.768 232.14 204.432C231.529 204.591 230.945 204.83 230.427 205.202C228.821 206.357 228.608 208.601 230.002 210.021C230.905 210.937 232.033 211.495 233.215 211.933C235.83 212.889 238.486 213.765 241.101 214.734C244.022 215.809 246.889 217.031 249.385 218.956C252.717 221.531 254.483 224.89 254.722 229.099C255.16 237.011 250.5 242.707 244.407 245.441C242.827 246.158 241.181 246.689 239.468 247.008C238.99 247.101 238.791 247.26 238.804 247.791C238.844 249.238 238.817 250.685 238.804 252.133C238.804 253.38 238.366 253.819 237.131 253.819C235.99 253.819 234.835 253.819 233.693 253.819V253.832Z" fill="url(#paint0_linear_1243_9753)"/>
</g>
<defs>
<linearGradient id="paint0_linear_1243_9753" x1="212.876" y1="220.005" x2="254.749" y2="220.005" gradientUnits="userSpaceOnUse">
<stop stop-color="#9BCB9E"/>
<stop offset="1" stop-color="#78C1C4"/>
</linearGradient>
<clipPath id="clip0_1243_9753">
<rect width="182.704" height="188.639" fill="white" transform="translate(133.738 130.365)"/>
</clipPath>
</defs>
</svg>
