<svg width="449" height="448" viewBox="0 0 449 448" fill="none" xmlns="http://www.w3.org/2000/svg">
<rect width="447.401" height="447.401" transform="translate(0.95459 0.260742)" fill="white"/>
<g clip-path="url(#clip0_1243_9765)">
<path d="M243.029 194.408C244.556 196.466 245.538 198.643 246.043 201.02C246.162 201.59 246.587 201.378 246.893 201.378C249.189 201.391 251.486 201.378 253.783 201.378C255.482 201.378 255.947 201.856 255.947 203.569C255.947 204.923 255.947 206.29 255.947 207.644C255.947 208.945 255.429 209.437 254.115 209.45C251.791 209.45 249.455 209.476 247.131 209.437C246.507 209.437 246.242 209.583 246.109 210.22C244.476 218.079 239.458 222.713 231.984 225.036C230.284 225.567 228.545 225.832 226.713 226.191C228.107 227.731 229.474 229.178 230.789 230.678C235.382 235.882 239.896 241.14 244.251 246.543C245.751 248.402 247.264 250.234 248.791 252.066C249.229 252.584 249.402 253.128 249.083 253.752C248.764 254.376 248.286 254.694 247.53 254.681C244.49 254.655 241.449 254.641 238.409 254.681C237.573 254.681 237.095 254.23 236.643 253.686C234.851 251.561 233.112 249.411 231.32 247.3C228.372 243.835 225.385 240.41 222.425 236.958C219.411 233.453 216.318 230.041 213.171 226.669C212.68 226.138 212.441 225.593 212.468 224.85C212.508 223.071 212.468 221.292 212.481 219.513C212.481 218.185 213.039 217.628 214.34 217.601C217.247 217.562 220.168 217.761 223.062 217.402C226.62 216.951 230.005 216.061 232.594 213.326C233.47 212.397 234.015 211.282 234.506 210.114C234.718 209.609 234.599 209.423 234.041 209.437C232.262 209.463 230.483 209.437 228.704 209.437C224.018 209.437 219.318 209.437 214.632 209.437C212.893 209.437 212.494 209.025 212.494 207.259C212.494 205.905 212.494 204.538 212.494 203.184C212.494 202.002 212.986 201.471 214.154 201.378C214.605 201.338 215.057 201.378 215.508 201.378C221.296 201.378 227.085 201.378 232.886 201.378C233.192 201.378 233.643 201.537 233.776 201.232C233.935 200.9 233.563 200.608 233.364 200.329C231.691 198.019 229.289 196.997 226.607 196.439C222.651 195.616 218.628 195.922 214.645 195.869C212.906 195.842 212.508 195.457 212.494 193.691C212.494 191.846 212.494 190.001 212.494 188.155C212.494 186.867 213.025 186.35 214.326 186.35C227.589 186.35 240.852 186.35 254.128 186.35C255.256 186.35 255.841 186.841 255.88 187.943C255.933 189.562 255.933 191.182 255.88 192.788C255.841 193.93 255.243 194.408 253.916 194.408C250.61 194.408 247.317 194.395 244.012 194.382C243.733 194.382 243.467 194.382 243.042 194.382L243.029 194.408Z" fill="url(#paint0_linear_1243_9765)"/>
<path d="M157.439 234.781H137.313C135.326 234.781 133.715 236.392 133.715 238.379V313.136C133.715 315.123 135.326 316.734 137.313 316.734H157.439C159.426 316.734 161.037 315.123 161.037 313.136V238.379C161.037 236.392 159.426 234.781 157.439 234.781Z" fill="#C5D8E3"/>
<path d="M162.378 250.101C162.484 250.101 162.59 250.128 162.697 250.141C162.975 250.168 163.015 250.181 162.683 250.141C162.936 250.181 163.175 250.208 163.427 250.247C164.794 250.46 166.162 250.739 167.503 251.044C172.202 252.119 176.809 253.619 181.256 255.452C184.283 256.686 187.231 258.107 190.112 259.647C192.992 261.187 195.833 262.793 199.166 263.377C200.493 263.603 201.848 263.776 203.188 263.961C215.004 265.648 226.833 267.334 238.649 269.033C240.813 269.338 242.884 270.082 244.623 271.449C248.778 274.702 249.601 280.795 246.959 285.269C245.645 287.487 249.097 289.491 250.398 287.274C252.907 283.039 253.133 277.556 251.009 273.149C249.123 269.219 245.207 266.338 240.985 265.395C236.989 264.493 232.781 264.187 228.731 263.616C221.536 262.594 214.354 261.559 207.158 260.536C205.167 260.257 203.162 259.979 201.17 259.687C196.019 258.93 191.824 255.916 187.191 253.752C179.477 250.154 170.928 246.955 162.378 246.145C159.829 245.906 159.842 249.889 162.378 250.128V250.101Z" fill="#221F20"/>
<path d="M214.353 289.903H239.299C242.511 289.903 245.87 290.182 249.083 289.903C250.769 289.757 252.641 288.536 254.155 287.859L280.839 276.003C288.632 272.538 296.425 269.086 304.218 265.621C304.537 265.475 304.856 265.343 305.187 265.197C305.254 265.17 305.334 265.13 305.4 265.104C305.387 265.104 304.617 265.183 305.48 265.263C307.71 265.475 309.662 266.059 311.082 267.931C311.719 268.781 312.171 269.803 312.357 270.852C312.449 271.37 312.476 271.888 312.449 272.405C312.423 272.923 311.892 274.065 312.025 274.463C312.091 274.676 312.795 273.985 312.224 274.463C311.958 274.689 311.64 274.861 311.348 275.047L308.161 277.185L283.614 293.687C276.153 298.692 268.705 303.71 261.244 308.715C258.031 310.879 254.805 312.844 251.021 313.919C247.238 314.995 243.401 315.008 239.511 315.008H197.811C196.191 315.008 195.169 314.49 193.55 313.959C188.226 312.22 182.915 310.481 177.592 308.755C172.268 307.029 167.157 305.343 161.953 303.644C159.51 302.847 158.461 306.697 160.891 307.481C171.843 311.052 182.796 314.636 193.749 318.208C195.249 318.699 196.324 318.991 197.811 318.991H234.294C237.241 318.991 240.188 318.991 243.135 318.991C249.654 318.964 255.947 317.039 261.363 313.428C267.563 309.286 273.75 305.104 279.937 300.949C288.871 294.948 297.793 288.947 306.728 282.947L313.95 278.088C315.516 277.039 316.061 275.326 316.313 273.467C316.91 268.94 314.494 264.334 310.352 262.369C308.201 261.346 305.387 260.789 303.143 261.771C302.253 262.156 301.364 262.555 300.488 262.953L289.203 267.958C279.193 272.405 269.17 276.853 259.16 281.3L249.534 285.575C249.189 285.735 248.831 285.867 248.499 286.04C247.676 286.451 248.751 285.681 249.136 285.934C248.645 285.615 246.906 285.934 246.348 285.934H214.34C211.777 285.934 211.777 289.916 214.34 289.916L214.353 289.903Z" fill="#221F20"/>
<path d="M172.334 248.615C173.264 223.51 183.858 199.427 201.781 181.823C205.06 178.597 208.565 175.583 212.269 172.848H210.264C224.39 179.539 240.825 179.539 254.951 172.848H252.946C260.779 177.853 267.815 184.133 273.962 191.196C284.981 203.888 292.482 219.646 293.664 236.547C294.447 247.752 292.535 258.903 288.539 269.365C287.623 271.755 291.473 272.803 292.376 270.427C297.209 257.802 298.934 244.167 297.023 230.772C295.376 219.182 290.863 208.096 284.397 198.365C279.286 190.665 273.02 183.721 266.01 177.694C263.62 175.636 261.138 173.685 258.575 171.853C257.752 171.255 256.916 170.684 256.066 170.114C254.739 169.237 253.889 168.972 252.283 169.715C239.71 175.49 224.775 175.318 212.282 169.397C211.684 169.105 210.861 168.959 210.277 169.397C190.403 184.106 176.105 205.6 170.755 229.802C169.387 235.976 168.604 242.282 168.365 248.601C168.272 251.164 172.255 251.164 172.348 248.601L172.334 248.615Z" fill="#221F20"/>
<path d="M220.341 156.838C217.726 153.744 215.628 150.16 214.261 146.336C213.411 143.96 212.787 141.491 212.468 138.995C212.336 137.906 211.751 135.915 213.225 136.525C215.867 137.641 217.978 139.127 220.766 137.335C221.815 136.658 222.85 135.954 223.886 135.251C224.589 134.786 224.842 134.494 225.612 134.799C227.59 135.596 229.395 136.844 231.333 137.747C234.4 139.167 236.79 136.95 239.219 135.37C240.401 134.6 241.636 133.99 243.056 134.6C244.105 135.052 245.061 135.994 245.964 136.658C247.331 137.68 248.752 138.331 250.504 137.813C251.566 137.494 252.588 136.884 253.597 136.419C255.098 135.715 255.562 135.304 255.429 137.388C255.244 140.176 254.646 142.924 253.717 145.566C252.217 149.815 249.707 153.651 246.535 156.838C244.729 158.656 247.543 161.471 249.349 159.652C252.469 156.519 254.978 152.828 256.704 148.766C257.872 146.018 258.682 143.163 259.107 140.216C259.426 137.986 260.036 135.145 258.39 133.286C256.969 131.693 254.898 131.494 253.026 132.317C251.925 132.795 250.703 133.724 249.535 133.963C248.659 134.149 247.583 132.954 246.853 132.41C245.366 131.295 243.866 130.458 241.941 130.392C240.016 130.325 238.569 131.069 237.082 132.025C236.073 132.675 234.905 133.764 233.776 134.162C232.953 134.454 232.117 133.724 231.36 133.326C230.072 132.662 228.811 131.985 227.51 131.348C225.904 130.551 224.297 130.352 222.678 131.281C221.615 131.892 220.606 132.662 219.584 133.352C218.668 133.963 218.243 134.534 217.274 134.069C216.093 133.512 214.831 132.742 213.544 132.45C210.875 131.839 208.353 133.95 208.273 136.632C208.193 139.486 208.924 142.606 209.72 145.327C211.26 150.624 213.955 155.47 217.5 159.665C219.159 161.617 221.961 158.789 220.314 156.851L220.341 156.838Z" fill="#221F20"/>
<path d="M250.677 167.02C250.584 169.981 248.526 171.468 245.897 172.224C242.817 173.114 239.658 173.711 236.458 173.963C232.927 174.242 229.329 174.163 225.824 173.645C223.076 173.247 219.823 172.795 217.314 171.574C213.026 169.476 213.597 162.028 218.403 160.966C219.664 160.687 220.872 161.046 222.12 161.272C223.806 161.577 225.505 161.803 227.218 161.975C230.683 162.307 234.188 162.32 237.666 162.002C239.472 161.842 241.264 161.59 243.043 161.272C244.53 161.006 245.897 160.608 247.371 161.152C249.986 162.121 250.677 164.511 250.677 167.033C250.677 169.556 254.659 169.596 254.659 167.033C254.659 163.887 253.863 160.98 251.327 158.922C248.353 156.505 245.247 156.864 241.729 157.488C237.334 158.258 232.82 158.431 228.36 158.099C226.368 157.953 224.39 157.687 222.425 157.302C220.699 156.97 219.08 156.718 217.341 157.143C210.769 158.736 208.406 167.379 212.375 172.543C214.646 175.49 218.403 176.273 221.868 177.004C226.05 177.88 230.351 178.265 234.626 178.079C238.901 177.893 243.574 177.163 247.836 175.822C251.858 174.561 254.527 171.295 254.659 167.033C254.739 164.471 250.756 164.471 250.677 167.033V167.02Z" fill="#221F20"/>
<path d="M177.778 151.633C182.225 154.421 186.487 157.899 192.036 157.514C194.2 157.368 196.364 157.143 198.528 157.023C201.728 156.85 203.984 158.284 206.454 160.023C208.445 161.431 210.423 162.838 212.415 164.232C214.512 165.719 216.504 162.267 214.419 160.793C212.72 159.585 211.021 158.391 209.321 157.182C207.104 155.616 204.98 153.943 202.245 153.332C196.709 152.084 190.974 155.164 185.823 151.965C183.805 150.717 181.8 149.442 179.796 148.168C177.618 146.801 175.614 150.239 177.791 151.606L177.778 151.633Z" fill="#221F20"/>
<path d="M183.314 179.871C183.42 179.606 182.995 180.482 183.287 179.951C183.473 179.619 183.619 179.287 183.818 178.969C184.615 177.615 184.92 177.269 186.075 176.088C189.355 172.756 193.842 170.751 198.488 169.675C203.135 168.6 207.476 168.494 212.003 168.72C214.566 168.839 214.552 164.856 212.003 164.737C200.878 164.192 187.137 166.343 180.619 176.566C180.168 177.269 179.769 178.026 179.477 178.809C178.588 181.212 182.438 182.261 183.314 179.871Z" fill="#221F20"/>
</g>
<defs>
<linearGradient id="paint0_linear_1243_9765" x1="212.455" y1="220.535" x2="255.947" y2="220.535" gradientUnits="userSpaceOnUse">
<stop stop-color="#9BCB9E"/>
<stop offset="1" stop-color="#78C1C4"/>
</linearGradient>
<clipPath id="clip0_1243_9765">
<rect width="182.704" height="188.639" fill="white" transform="translate(133.715 130.365)"/>
</clipPath>
</defs>
</svg>
