<svg width="652" height="652" viewBox="0 0 652 652" fill="none" xmlns="http://www.w3.org/2000/svg">
<rect width="652" height="652" fill="white"/>
<path d="M330.108 575.626C373.465 575.626 408.612 568.215 408.612 559.073C408.612 549.931 373.465 542.52 330.108 542.52C286.752 542.52 251.605 549.931 251.605 559.073C251.605 568.215 286.752 575.626 330.108 575.626Z" fill="#2A4850"/>
<path d="M331.174 403.357C375.673 403.357 411.746 392.571 411.746 379.265C411.746 365.96 375.673 355.173 331.174 355.173C286.675 355.173 250.601 365.96 250.601 379.265C250.601 392.571 286.675 403.357 331.174 403.357Z" fill="#997C3A"/>
<path d="M410.968 379.265C410.825 386.579 400.971 390.778 395.337 393.011C383.496 397.703 370.631 399.874 358.032 401.206C342.114 402.886 325.991 403.029 310.053 401.739C296.798 400.673 283.339 398.686 270.699 394.364C266.274 392.848 261.849 391.024 257.956 388.402C255.354 386.661 252.589 384.325 251.667 381.211C249.618 374.307 258.325 369.493 263.324 367.096C274.427 361.811 287.067 359.475 299.175 357.898C314.785 355.87 330.662 355.46 346.375 356.361C360.244 357.16 374.257 358.922 387.614 362.876C392.469 364.31 397.324 366.051 401.749 368.53C404.781 370.21 407.998 372.341 409.8 375.393C410.518 376.581 410.927 377.872 410.948 379.265C410.948 380.249 412.505 380.249 412.484 379.265C412.341 371.911 403.798 367.506 398.021 364.986C386.139 359.803 372.966 357.488 360.162 356.013C342.954 354.026 325.479 353.862 308.229 355.399C294.545 356.607 280.553 358.717 267.667 363.614C261.377 365.99 251.81 369.923 250.028 377.339C248.369 384.264 255.641 389.221 260.865 391.946C271.887 397.682 284.67 400.161 296.839 401.862C313.658 404.217 330.764 404.689 347.707 403.623C362.211 402.722 376.94 400.796 390.789 396.269C397.918 393.933 407.998 390.43 411.542 383.096C412.115 381.887 412.423 380.617 412.464 379.286C412.464 378.302 410.948 378.302 410.927 379.286L410.968 379.265Z" fill="#2B63A8"/>
<path d="M389.13 546.125L359.425 550.387C342.504 552.804 325.357 552.927 308.394 550.735L271.252 545.941C259.657 544.446 250.848 534.776 250.438 523.078L246.464 407.392H415.885L409.596 523.775C408.982 535.145 400.418 544.507 389.151 546.125H389.13Z" fill="#997C3A"/>
<path d="M388.925 545.388C367.169 548.502 345.494 552.373 323.389 551.308C313.494 550.817 303.661 549.362 293.848 548.092C286.33 547.129 278.77 546.269 271.272 545.183C259.636 543.503 251.605 533.813 251.175 522.259C250.991 517.321 250.827 512.384 250.663 507.447L248.676 449.368L247.754 422.531L247.426 413.19C247.365 411.612 247.631 409.605 247.242 408.068C247.201 407.863 247.242 407.617 247.221 407.413L246.443 408.191H415.885L415.106 407.413L412.546 454.941L409.083 518.96C409.001 520.579 408.94 522.177 408.817 523.795C408.08 534.858 399.824 543.667 388.925 545.408C387.942 545.572 388.372 547.047 389.335 546.883C397.734 545.552 405.007 540.082 408.387 532.215C409.8 528.937 410.251 525.536 410.456 522.013L411.706 498.904L415.639 425.973L416.643 407.413C416.663 407.003 416.274 406.634 415.864 406.634H246.484C246.074 406.634 245.705 406.982 245.705 407.413L246.934 443.304L249.024 503.862L249.618 521.316C249.925 530.146 253.449 538.258 261.152 543.114C267.994 547.457 277.234 547.477 285.059 548.502C292.885 549.526 300.609 550.509 308.373 551.513C325.745 553.726 343.261 553.48 360.592 551.001C369.361 549.751 378.129 548.481 386.897 547.231L389.335 546.883C390.318 546.74 389.888 545.265 388.925 545.408V545.388Z" fill="#2B63A8"/>
<path d="M403.224 381.375C385.913 375.249 360.06 371.378 331.174 371.378C302.288 371.378 276.414 375.27 259.124 381.375H236.609V399.567H236.855C236.855 415.136 279.077 427.776 331.174 427.776C383.271 427.776 425.493 415.157 425.493 399.567V381.375H403.224Z" fill="#997C3A"/>
<path d="M403.429 380.637C378.702 371.971 351.23 370.168 325.233 370.66C311.282 370.926 297.331 372.053 283.584 374.45C277.623 375.495 271.702 376.765 265.864 378.424C262.77 379.305 260.025 380.616 256.829 380.616H236.589C236.179 380.616 235.81 380.965 235.81 381.395V399.587C235.81 399.996 236.159 400.365 236.589 400.365H236.835L236.056 399.587C236.241 410.035 250.438 415.505 258.448 418.373C276.988 425.031 297.208 427.346 316.793 428.227C338.979 429.23 361.535 428.186 383.352 423.863C391.649 422.224 399.926 420.093 407.772 416.877C412.976 414.726 418.384 412.083 422.338 407.986C425.267 404.954 426.271 401.738 426.271 397.62V381.374C426.271 380.965 425.923 380.596 425.493 380.596H403.224C402.241 380.596 402.241 382.132 403.224 382.132H425.493L424.714 381.354V394.609C424.714 398.132 425.083 401.492 423.096 404.565C420.33 408.826 415.434 411.592 410.968 413.743C404.187 417.021 396.853 419.172 389.539 420.913C369.237 425.727 348.096 427.202 327.261 426.956C307.266 426.711 286.924 424.887 267.605 419.581C260.189 417.553 252.65 415.013 246.135 410.854C242.202 408.355 237.695 404.626 237.613 399.546C237.613 399.136 237.265 398.767 236.835 398.767H236.589L237.367 399.546V381.354L236.589 382.132H254.576C256.973 382.132 258.857 382.235 261.131 381.477C266.314 379.756 271.62 378.383 276.967 377.257C304.808 371.377 334.185 370.742 362.436 373.713C376.162 375.147 389.97 377.523 403.019 382.112C403.962 382.44 404.351 380.965 403.429 380.637Z" fill="#2B63A8"/>
<path d="M331.174 408.868C383.264 408.868 425.492 396.238 425.492 380.658C425.492 365.078 383.264 352.448 331.174 352.448C279.083 352.448 236.855 365.078 236.855 380.658C236.855 396.238 279.083 408.868 331.174 408.868Z" fill="#72531C"/>
<path d="M424.735 380.658C424.591 389.221 413.139 394.158 406.563 396.801C392.674 402.353 377.534 404.914 362.743 406.491C344.019 408.478 325.028 408.642 306.262 407.106C290.693 405.836 274.877 403.5 260.066 398.378C254.903 396.596 249.741 394.445 245.213 391.352C242.202 389.303 239.006 386.558 237.961 382.911C235.626 374.819 245.725 369.165 251.626 366.358C264.634 360.151 279.425 357.406 293.622 355.562C312.04 353.165 330.744 352.674 349.263 353.759C365.55 354.702 382 356.791 397.672 361.483C403.347 363.183 409.001 365.232 414.164 368.141C417.687 370.128 421.375 372.627 423.444 376.212C424.243 377.585 424.694 379.08 424.735 380.678C424.735 381.662 426.292 381.662 426.271 380.678C426.128 372.074 416.007 366.953 409.267 364.023C395.193 357.918 379.624 355.234 364.464 353.514C344.572 351.26 324.372 351.096 304.439 352.858C288.46 354.272 272.112 356.73 257.013 362.425C249.659 365.191 238.371 369.78 236.322 378.445C234.397 386.558 243.042 392.356 249.167 395.49C262.094 402.148 277.029 405.037 291.307 407.003C310.913 409.728 330.887 410.281 350.636 409.031C367.434 407.987 384.52 405.754 400.581 400.571C406.174 398.768 411.787 396.576 416.786 393.441C420.105 391.352 423.485 388.688 425.226 385.083C425.902 383.69 426.251 382.215 426.271 380.678C426.271 379.695 424.755 379.695 424.735 380.678V380.658Z" fill="#2B63A8"/>
<path d="M355.204 241.454C354.548 240.163 353.258 239.077 352.049 238.36C348.792 236.414 344.756 236.537 341.191 237.438C337.381 238.401 333.837 240.245 330.498 242.314C329.658 242.826 330.436 244.158 331.276 243.646C336.951 240.143 347.419 234.878 353.135 241.228C353.442 241.577 353.627 241.781 353.872 242.253C354.323 243.134 355.655 242.355 355.204 241.474V241.454Z" fill="#2B63A8"/>
<path d="M361.903 205.848C361.207 204.476 359.834 203.349 358.523 202.612C354.938 200.604 350.595 200.973 346.805 202.12C342.626 203.39 338.754 205.603 335.148 208.02C334.329 208.573 335.107 209.905 335.927 209.352C340.843 206.053 346.743 202.612 352.869 202.714C355.45 202.755 358.031 203.615 359.793 205.562C360.121 205.91 360.326 206.156 360.572 206.627C361.022 207.508 362.354 206.729 361.903 205.848Z" fill="#2B63A8"/>
<path d="M359.158 295.476C351.967 292.259 343.302 294.39 338.385 300.495C335.374 304.223 333.632 308.792 332.465 313.381C332.219 314.344 333.694 314.753 333.94 313.79C335.599 307.235 338.651 300.085 345.105 296.992C348.526 295.353 352.5 295.209 356.147 296.111C356.72 296.254 357.294 296.418 357.868 296.623C358.031 296.684 358.195 296.746 358.359 296.807C358.605 296.91 358.216 296.746 358.359 296.807C359.261 297.217 360.039 295.885 359.138 295.476H359.158Z" fill="#2B63A8"/>
<path d="M311.465 305.288C311.465 305.288 311.465 305.227 311.465 305.206C311.383 305.514 311.465 305.247 311.465 305.145C311.527 304.838 311.588 304.53 311.65 304.243C311.896 303.301 312.223 302.42 312.674 301.58C314.026 299.081 316.321 297.422 319.168 297.053C322.016 296.684 324.618 297.381 327.158 298.261C328.1 298.589 328.49 297.114 327.568 296.786C323.491 295.352 318.513 294.533 314.702 297.073C312.469 298.548 311.015 300.904 310.277 303.465C310.113 304.059 309.97 304.674 309.908 305.309C309.806 306.292 311.343 306.292 311.445 305.309L311.465 305.288Z" fill="#2B63A8"/>
<path d="M310.708 283.164C312.019 283.225 313.248 283.471 314.559 283.819C317.223 284.516 319.763 285.725 321.73 287.671C322.426 288.367 323.532 287.282 322.815 286.585C319.701 283.533 315.031 281.812 310.708 281.648C309.725 281.607 309.725 283.143 310.708 283.184V283.164Z" fill="#2B63A8"/>
<path d="M308.966 207.405C310.974 205.684 314.006 204.332 316.71 203.676C323.635 202.017 330.129 204.905 335.087 209.719C335.804 210.416 336.889 209.33 336.172 208.634C330.948 203.594 324.167 200.542 316.854 202.078C313.658 202.754 310.36 204.188 307.86 206.319C307.102 206.954 308.208 208.04 308.946 207.405H308.966Z" fill="#2B63A8"/>
<path d="M331.973 195.032C327.487 187.698 318.739 185.014 310.524 185.342C309.745 185.363 308.967 185.424 308.209 185.526C307.226 185.67 307.656 187.145 308.619 187.001C308.23 187.063 309.028 186.96 309.172 186.94C309.766 186.879 310.36 186.858 310.934 186.838C312.941 186.797 314.97 186.919 316.957 187.247C322.508 188.21 327.63 190.873 330.621 195.79C331.133 196.63 332.465 195.852 331.953 195.012L331.973 195.032Z" fill="#2B63A8"/>
<path d="M265.659 213.325C265.659 213.325 303.846 229.612 309.992 186.775C310.053 186.304 269.511 174.709 265.659 213.325Z" fill="#819B4B"/>
<path d="M265.27 214.001C277.602 219.225 293.909 218.611 302.8 207.548C306.918 202.406 309.131 195.973 310.298 189.561C310.565 188.148 311.364 186.611 309.889 185.915C309.213 185.587 308.373 185.464 307.635 185.28C300.424 183.6 292.496 183.436 285.367 185.525C280.286 187.021 275.615 189.807 272.173 193.884C267.585 199.354 265.577 206.339 264.839 213.346C264.737 214.329 266.273 214.329 266.376 213.346C267.544 202.304 272.604 191.958 283.441 187.799C290.263 185.177 297.986 185.054 305.115 186.345C306.181 186.529 307.225 186.755 308.27 187.041C308.598 187.123 308.905 187.246 309.233 187.328C309.663 187.431 309.418 187.492 309.418 187.328C309.356 186.714 308.987 187.984 309.028 187.902C308.844 188.353 308.844 188.988 308.741 189.479C308.578 190.381 308.373 191.282 308.168 192.163C307.779 193.802 307.307 195.42 306.754 197.018C305.771 199.804 304.48 202.488 302.821 204.946C297.781 212.321 289.566 215.763 280.819 215.64C277.275 215.599 273.751 215.046 270.35 214.124C269.264 213.837 268.199 213.51 267.134 213.12C266.888 213.038 265.679 212.567 266.028 212.711C265.126 212.321 264.348 213.653 265.249 214.042L265.27 214.001Z" fill="#2B63A8"/>
<path d="M306.119 185.424L281.106 201.833L277.5 204.21C276.681 204.742 277.438 206.074 278.278 205.541L303.292 189.132L306.898 186.755C307.717 186.223 306.959 184.891 306.119 185.424Z" fill="#2B63A8"/>
<path d="M254.473 163.134C254.473 163.134 265.085 211.216 310.646 187.615C311.158 187.349 294.4 140.251 254.473 163.134Z" fill="#819B4B"/>
<path d="M253.736 163.339C257.054 178.233 268.301 193.065 284.281 194.724C291.492 195.482 298.764 193.679 305.381 190.914C306.344 190.504 307.307 190.094 308.25 189.644C308.926 189.336 310.708 188.783 311.097 188.21C311.363 187.82 311.384 187.718 311.363 187.247C311.363 186.509 310.831 185.587 310.564 184.911C307.348 176.819 302.145 169.075 295.364 163.565C290.447 159.59 284.649 156.886 278.319 156.23C269.756 155.35 261.418 158.3 254.063 162.438C253.203 162.929 253.981 164.261 254.842 163.769C266.539 157.152 280.163 154.94 291.82 162.807C299.133 167.744 304.582 175.344 308.229 183.293C308.721 184.358 309.192 185.444 309.581 186.571C309.643 186.775 309.888 187.206 309.847 187.411C309.847 187.472 309.929 187.595 309.909 187.656C310.196 186.98 307.696 188.189 307.492 188.291C300.874 191.385 293.602 193.618 286.227 193.311C276.066 192.88 267.666 187.001 262.176 178.704C259.041 173.972 256.481 168.481 255.231 162.909C255.026 161.946 253.531 162.356 253.756 163.319L253.736 163.339Z" fill="#2B63A8"/>
<path d="M308.619 185.525L275.615 172.517L270.842 170.632C269.92 170.263 269.531 171.759 270.432 172.107L303.436 185.116L308.209 187C309.131 187.369 309.52 185.874 308.619 185.525Z" fill="#2B63A8"/>
<path d="M410.066 234.346C410.066 234.346 364.791 253.664 357.498 202.879C357.416 202.305 405.477 188.579 410.066 234.346Z" fill="#819B4B"/>
<path d="M409.677 233.669C410.025 233.525 408.857 233.976 408.653 234.058C407.628 234.427 406.583 234.754 405.539 235.062C402.117 236.045 398.594 236.742 395.029 237.008C385.339 237.766 375.506 235.307 368.704 227.994C363.849 222.77 361.063 215.948 359.445 209.085C359.199 208.061 358.973 207.016 358.789 205.971C358.707 205.479 358.605 205.008 358.523 204.517C358.482 204.291 358.113 203.042 358.051 203.369C358.051 203.431 357.97 203.513 358.297 203.328C359.055 202.878 360.284 202.755 361.145 202.57C369.053 200.809 377.657 200.624 385.503 202.775C391.239 204.353 396.525 207.323 400.52 211.789C406.051 217.976 408.427 226.232 409.288 234.324C409.39 235.307 410.927 235.307 410.824 234.324C409.411 220.947 403.47 208.348 390.522 202.878C381.795 199.19 371.757 199.026 362.538 200.727C361.227 200.972 357.949 201.157 356.966 202.284C356.249 203.124 357.068 205.07 357.252 206.012C357.703 208.491 358.277 210.929 359.014 213.326C360.1 216.87 361.534 220.312 363.439 223.487C369.298 233.197 379.275 238.421 390.502 238.667C397.18 238.811 404.289 237.581 410.455 234.959C411.357 234.57 410.578 233.259 409.677 233.628V233.669Z" fill="#2B63A8"/>
<path d="M361.227 202.693L390.891 222.135L395.173 224.942C395.992 225.495 396.771 224.163 395.951 223.61L366.287 204.168L362.005 201.362C361.186 200.809 360.408 202.14 361.227 202.693Z" fill="#2B63A8"/>
<path d="M404.413 183.477C404.413 183.477 395.603 223.384 357.806 203.779C357.376 203.553 371.307 164.466 404.413 183.477Z" fill="#819B4B"/>
<path d="M403.675 183.272C401.237 194.253 393.309 205.643 381.754 207.979C376.449 209.044 370.938 208.163 365.878 206.442C364.218 205.889 362.6 205.234 361.022 204.496C360.654 204.332 358.789 203.677 358.707 203.595C358.523 203.39 358.646 204.148 358.605 203.697C358.544 203.185 359.097 202.263 359.281 201.812C361.801 195.564 365.816 189.623 370.979 185.259C374.83 182.002 379.521 179.728 384.561 179.175C391.444 178.437 398.143 180.793 404.064 184.133C404.924 184.624 405.703 183.293 404.842 182.801C394.845 177.147 383.107 175.221 373.068 181.797C366.492 186.099 361.575 192.88 358.4 200.01C357.929 201.054 356.597 203.185 357.294 204.332C357.888 205.315 360.817 206.094 361.883 206.545C363.604 207.282 365.386 207.938 367.189 208.45C369.934 209.249 372.761 209.802 375.609 209.925C384.827 210.355 392.858 205.91 398.246 198.596C401.442 194.253 404.003 188.967 405.17 183.682C405.375 182.719 403.9 182.309 403.695 183.272H403.675Z" fill="#2B63A8"/>
<path d="M359.854 203.41L387.244 192.614L391.198 191.057C392.1 190.709 391.71 189.213 390.789 189.582L363.398 200.378L359.445 201.935C358.543 202.283 358.932 203.779 359.854 203.41Z" fill="#2B63A8"/>
<path d="M410.066 325.898C410.066 325.898 364.791 345.217 357.498 294.431C357.416 293.858 405.477 280.132 410.066 325.898Z" fill="#819B4B"/>
<path d="M409.677 325.222C410.025 325.079 408.857 325.529 408.653 325.611C407.628 325.98 406.583 326.308 405.539 326.615C402.117 327.598 398.594 328.295 395.029 328.561C385.339 329.319 375.506 326.861 368.704 319.547C363.849 314.323 361.063 307.501 359.445 300.638C359.199 299.614 358.973 298.569 358.789 297.525C358.707 297.033 358.605 296.562 358.523 296.07C358.482 295.845 358.113 294.595 358.051 294.923C358.051 294.984 357.97 295.066 358.297 294.882C359.055 294.431 360.284 294.308 361.145 294.124C369.053 292.362 377.657 292.178 385.503 294.329C391.239 295.906 396.525 298.877 400.52 303.343C406.051 309.53 408.427 317.786 409.288 325.878C409.39 326.861 410.927 326.861 410.824 325.878C409.411 312.5 403.47 299.901 390.522 294.431C381.795 290.744 371.757 290.58 362.538 292.28C361.227 292.526 357.949 292.71 356.966 293.837C356.249 294.677 357.068 296.623 357.252 297.566C357.703 300.044 358.277 302.482 359.014 304.879C360.1 308.423 361.534 311.865 363.439 315.04C369.298 324.751 379.275 329.975 390.502 330.221C397.18 330.364 404.289 329.135 410.455 326.513C411.357 326.123 410.578 324.812 409.677 325.181V325.222Z" fill="#2B63A8"/>
<path d="M361.227 294.247L390.891 313.688L395.173 316.495C395.992 317.048 396.771 315.716 395.951 315.163L366.287 295.722L362.005 292.915C361.186 292.362 360.408 293.693 361.227 294.247Z" fill="#2B63A8"/>
<path d="M406.42 274.211C406.42 274.211 397.222 315.88 357.745 295.414C357.294 295.189 371.84 254.36 406.42 274.211Z" fill="#819B4B"/>
<path d="M405.683 274.006C403.122 285.499 394.846 297.401 382.779 299.819C377.227 300.925 371.471 300.024 366.185 298.221C364.464 297.627 362.764 296.951 361.105 296.193C360.715 296.029 358.769 295.353 358.667 295.23C358.462 295.004 358.605 295.783 358.544 295.312C358.462 294.8 359.056 293.796 359.24 293.345C361.863 286.83 366.083 280.603 371.45 276.055C375.486 272.654 380.382 270.257 385.668 269.683C392.879 268.905 399.865 271.363 406.052 274.866C406.912 275.358 407.69 274.026 406.83 273.535C396.403 267.635 384.152 265.607 373.683 272.49C366.82 276.976 361.678 284.065 358.38 291.481C357.888 292.567 356.516 294.759 357.233 295.947C357.827 296.951 360.92 297.77 362.027 298.241C363.829 298.999 365.673 299.675 367.558 300.249C370.405 301.089 373.376 301.642 376.346 301.785C385.955 302.236 394.333 297.606 399.947 289.965C403.286 285.437 405.949 279.926 407.178 274.395C407.383 273.432 405.908 273.023 405.703 273.985L405.683 274.006Z" fill="#2B63A8"/>
<path d="M359.875 295.004L388.474 283.737L392.612 282.118C393.514 281.77 393.124 280.275 392.202 280.643L363.604 291.911L359.465 293.529C358.564 293.878 358.953 295.373 359.875 295.004Z" fill="#2B63A8"/>
<path d="M355.101 120.441C355.101 120.441 306.774 129.783 329.186 175.959C329.432 176.471 376.96 160.942 355.101 120.441Z" fill="#819B4B"/>
<path d="M354.897 119.704C339.942 122.613 324.802 133.511 322.754 149.409C321.832 156.64 323.43 163.954 326.032 170.673C326.4 171.636 326.81 172.599 327.22 173.542C327.507 174.218 328.019 176.02 328.572 176.41C328.982 176.696 329.084 176.696 329.555 176.676C330.272 176.676 331.174 176.205 331.829 175.959C340.003 172.968 347.89 167.949 353.586 161.332C357.703 156.538 360.551 150.781 361.37 144.472C362.456 135.929 359.752 127.509 355.778 120.031C355.307 119.15 353.995 119.929 354.446 120.81C360.735 132.63 362.579 146.254 354.508 157.685C349.406 164.917 341.601 170.202 333.55 173.644C332.464 174.095 331.379 174.545 330.252 174.894C330.047 174.955 329.576 175.201 329.35 175.16C329.187 175.119 329.207 175.16 329.268 175.18C329.535 175.344 328.736 173.152 328.572 172.763C325.663 166.126 323.635 158.853 324.085 151.539C324.721 141.276 330.887 132.938 339.43 127.611C344.223 124.62 349.734 122.244 355.307 121.158C356.269 120.974 355.86 119.478 354.897 119.683V119.704Z" fill="#2B63A8"/>
<path d="M331.235 174.156L345.104 141.46L347.091 136.789C347.481 135.888 346.149 135.109 345.76 136.011L331.891 168.707L329.904 173.378C329.514 174.279 330.846 175.058 331.235 174.156Z" fill="#2B63A8"/>
<path d="M249.658 284.352C249.658 284.352 280.04 323.092 310.871 282.078C311.22 281.628 275.697 246.432 249.658 284.352Z" fill="#819B4B"/>
<path d="M249.126 284.905C259.328 297.853 277.397 306.17 293.192 298.672C296.49 297.095 299.522 294.985 302.288 292.608C305.443 289.883 309.151 286.503 311.24 282.877C312.203 281.218 309.909 279.866 308.72 278.821C302.083 273.044 293.909 268.414 285.223 266.693C279.179 265.505 272.91 265.874 267.174 268.188C259.512 271.282 253.653 277.284 248.982 283.963C248.409 284.782 249.74 285.54 250.314 284.741C257.71 274.15 268.506 266.283 281.924 267.738C290.59 268.68 298.805 272.921 305.607 278.247C306.651 279.067 307.676 279.927 308.639 280.828C308.925 281.095 310.114 281.996 310.134 282.344C310.134 282.344 307.635 284.926 307.266 285.356C305.832 287.036 304.316 288.634 302.698 290.15C300.034 292.649 297.084 294.882 293.868 296.603C284.26 301.745 273.464 300.823 264.142 295.558C258.918 292.608 253.94 288.552 250.191 283.819C249.577 283.041 248.491 284.147 249.105 284.905H249.126Z" fill="#2B63A8"/>
<path d="M308.311 281.074L272.931 283.655L267.83 284.024C266.847 284.085 266.847 285.642 267.83 285.56L303.21 282.979L308.311 282.61C309.295 282.549 309.295 280.992 308.311 281.074Z" fill="#2B63A8"/>
<path d="M307.144 251.45C319.454 251.45 329.433 241.47 329.433 229.161C329.433 216.851 319.454 206.871 307.144 206.871C294.834 206.871 284.855 216.851 284.855 229.161C284.855 241.47 294.834 251.45 307.144 251.45Z" fill="#2B63A8"/>
<path d="M328.019 223.916C330.088 232.623 326.729 241.903 319.251 246.984C311.774 252.065 301.94 251.88 294.668 246.718C287.395 241.555 283.933 231.865 286.473 223.179C289.013 214.493 297.044 208.08 306.16 207.671C316.383 207.2 325.418 214.124 328.019 223.916C328.265 224.879 329.761 224.469 329.494 223.507C327.036 214.267 319.21 207.322 309.664 206.237C300.117 205.151 290.386 210.539 286.268 219.368C282.151 228.198 284.035 238.728 290.898 245.529C297.761 252.331 308.271 254.093 316.977 250.036C326.954 245.386 332.035 234.098 329.515 223.507C329.29 222.544 327.794 222.953 328.04 223.916H328.019Z" fill="#2B63A8"/>
<path d="M309.684 250.036C321.994 250.036 331.973 240.057 331.973 227.747C331.973 215.437 321.994 205.458 309.684 205.458C297.374 205.458 287.395 215.437 287.395 227.747C287.395 240.057 297.374 250.036 309.684 250.036Z" fill="#FCBC00"/>
<path d="M330.559 222.503C332.628 231.21 329.269 240.49 321.791 245.571C314.314 250.651 304.48 250.467 297.207 245.304C289.935 240.142 286.473 230.452 289.013 221.766C291.553 213.079 299.584 206.667 308.7 206.257C318.923 205.786 327.957 212.711 330.559 222.503C330.805 223.466 332.3 223.056 332.034 222.093C329.576 212.854 321.75 205.909 312.203 204.823C302.657 203.738 292.926 209.125 288.808 217.955C284.69 226.785 286.575 237.315 293.438 244.116C300.301 250.917 310.81 252.679 319.517 248.623C329.494 243.973 334.574 232.685 332.055 222.093C331.829 221.13 330.334 221.54 330.58 222.503H330.559Z" fill="#2B63A8"/>
<path d="M307.39 349.867C319.7 349.867 329.679 339.888 329.679 327.578C329.679 315.268 319.7 305.289 307.39 305.289C295.08 305.289 285.101 315.268 285.101 327.578C285.101 339.888 295.08 349.867 307.39 349.867Z" fill="#2B63A8"/>
<path d="M328.49 331.859C326.585 340.545 319.702 347.388 310.831 348.842C301.96 350.297 292.701 345.728 288.399 337.739C284.096 329.749 285.387 319.731 291.451 313.094C297.515 306.456 306.939 304.326 315.195 307.522C324.926 311.271 330.416 321.719 328.49 331.859C328.306 332.822 329.781 333.232 329.965 332.269C331.747 322.927 327.855 313.299 319.783 308.136C311.712 302.974 300.752 303.486 293.151 309.447C285.551 315.409 282.376 325.939 285.592 335.137C288.808 344.335 297.31 350.42 306.877 350.645C317.96 350.911 327.609 343.004 329.965 332.269C330.17 331.306 328.695 330.896 328.49 331.859Z" fill="#2B63A8"/>
<path d="M304.931 347.06C317.241 347.06 327.22 337.081 327.22 324.771C327.22 312.461 317.241 302.482 304.931 302.482C292.621 302.482 282.642 312.461 282.642 324.771C282.642 337.081 292.621 347.06 304.931 347.06Z" fill="#FCBC00"/>
<path d="M326.032 329.053C324.127 337.739 317.244 344.581 308.373 346.036C299.502 347.49 290.243 342.922 285.94 334.932C281.638 326.943 282.929 316.925 288.993 310.287C295.057 303.65 304.481 301.519 312.737 304.715C322.468 308.464 327.958 318.912 326.032 329.053C325.848 330.016 327.323 330.425 327.507 329.462C329.289 320.121 325.397 310.492 317.325 305.33C309.254 300.167 298.294 300.679 290.693 306.641C283.093 312.602 279.918 323.132 283.134 332.331C286.35 341.529 294.852 347.613 304.419 347.839C315.502 348.105 325.151 340.197 327.507 329.462C327.712 328.5 326.237 328.09 326.032 329.053Z" fill="#2B63A8"/>
<path d="M360.879 274.58C371.265 274.58 379.685 266.16 379.685 255.773C379.685 245.387 371.265 236.967 360.879 236.967C350.492 236.967 342.073 245.387 342.073 255.773C342.073 266.16 350.492 274.58 360.879 274.58Z" fill="#2B63A8"/>
<path d="M378.374 260.157C376.448 267.389 370.302 272.941 362.784 273.719C355.266 274.498 348.054 270.462 344.715 263.763C341.376 257.064 342.687 248.542 347.993 243.133C353.299 237.725 361.78 236.168 368.664 239.487C376.387 243.195 380.341 251.881 378.374 260.157C378.149 261.12 379.624 261.53 379.849 260.567C381.734 252.659 378.702 244.321 371.982 239.671C365.263 235.021 355.839 235.123 349.222 240.04C342.605 244.956 339.737 253.622 342.134 261.448C344.531 269.274 351.66 274.846 359.793 275.317C369.114 275.85 377.473 269.478 379.849 260.567C380.095 259.604 378.62 259.194 378.374 260.157Z" fill="#2B63A8"/>
<path d="M358.072 274.866C368.459 274.866 376.878 266.446 376.878 256.059C376.878 245.673 368.459 237.253 358.072 237.253C347.686 237.253 339.266 245.673 339.266 256.059C339.266 266.446 347.686 274.866 358.072 274.866Z" fill="#FCBC00"/>
<path d="M375.567 260.444C373.642 267.676 367.496 273.227 359.977 274.006C352.459 274.784 345.248 270.749 341.908 264.05C338.569 257.351 339.88 248.828 345.186 243.42C350.492 238.012 358.974 236.455 365.857 239.773C373.58 243.481 377.534 252.168 375.567 260.444C375.342 261.407 376.817 261.817 377.042 260.854C378.927 252.946 375.895 244.608 369.176 239.958C362.456 235.307 353.033 235.41 346.415 240.326C339.798 245.243 336.93 253.909 339.327 261.735C341.724 269.56 348.853 275.133 356.986 275.604C366.308 276.136 374.666 269.765 377.042 260.854C377.288 259.891 375.813 259.481 375.567 260.444Z" fill="#2B63A8"/>
<path d="M194.407 231.005L198.463 239.814C198.586 240.08 198.812 240.306 199.078 240.428L207.887 244.485C208.85 244.935 208.85 246.308 207.887 246.738L199.078 250.794C198.812 250.917 198.586 251.143 198.463 251.409L194.407 260.218C193.956 261.181 192.584 261.181 192.154 260.218L188.097 251.409C187.974 251.143 187.749 250.917 187.483 250.794L178.674 246.738C177.711 246.288 177.711 244.915 178.674 244.485L187.483 240.428C187.749 240.306 187.974 240.08 188.097 239.814L192.154 231.005C192.604 230.042 193.977 230.042 194.407 231.005Z" fill="white"/>
<path d="M193.752 231.394L197.46 239.466C197.89 240.388 198.361 240.962 199.304 241.392L203.893 243.502L206.228 244.588C206.535 244.731 207.293 244.915 207.498 245.161C208.379 246.247 205.409 247.066 204.896 247.292L199.775 249.648C198.873 250.057 198.177 250.344 197.685 251.287C196.948 252.68 196.374 254.155 195.719 255.589L194.633 257.965C194.407 258.436 194.203 259.317 193.834 259.707C192.789 260.833 192.174 258.457 191.888 257.842L189.532 252.721C189.102 251.778 188.794 250.672 187.831 250.119C186.623 249.422 185.25 248.931 184 248.357C182.566 247.702 180.866 247.169 179.534 246.308C178.203 245.448 179.678 244.874 180.538 244.485L186.192 241.883C187.278 241.392 188.303 241.084 188.876 239.978C189.696 238.421 190.351 236.762 191.089 235.164L192.318 232.501C192.42 232.296 193.076 230.35 193.752 231.415C194.285 232.255 195.616 231.476 195.083 230.636C194.039 228.977 192.113 229.387 191.335 230.985C190.515 232.665 189.778 234.385 188.979 236.086C188.507 237.11 188.036 239.077 187.094 239.794C185.967 240.634 184.226 241.105 182.956 241.699C181.44 242.396 179.821 243.01 178.367 243.809C176.81 244.67 176.81 246.616 178.367 247.476C179.821 248.275 181.44 248.89 182.956 249.586C184.226 250.16 185.967 250.652 187.094 251.492C188.057 252.209 188.507 254.175 188.979 255.2C189.757 256.9 190.495 258.621 191.335 260.301C192.113 261.878 194.059 262.349 195.083 260.649C195.801 259.461 196.292 258.027 196.866 256.777C197.583 255.241 198.156 253.438 199.058 252.004C199.631 251.102 201.147 250.734 202.069 250.303L207.519 247.783C208.85 247.169 210.141 245.878 208.932 244.383C208.543 243.891 207.908 243.686 207.355 243.42L204.384 242.047L201.127 240.552C200.615 240.326 199.898 240.122 199.447 239.773C198.996 239.425 198.832 238.831 198.607 238.339L197.194 235.287L195.043 230.616C194.633 229.715 193.301 230.493 193.711 231.394H193.752Z" fill="#2B63A8"/>
<path d="M193.937 231.271L197.645 239.343C198.054 240.244 198.485 240.757 199.406 241.187L203.995 243.297L206.331 244.383C206.659 244.547 207.335 244.69 207.601 244.956C208.871 246.288 205.573 247.21 204.999 247.476L199.878 249.832C198.997 250.242 198.341 250.488 197.87 251.389C197.132 252.782 196.559 254.257 195.903 255.691L194.818 258.068C194.592 258.58 194.387 259.379 194.019 259.809C192.769 261.304 192.011 258.6 191.704 257.945L189.348 252.823C188.938 251.922 188.631 250.836 187.729 250.303C186.521 249.607 185.148 249.115 183.898 248.541C182.444 247.865 180.784 247.333 179.432 246.493C178.961 246.206 177.875 246.042 179.002 244.956C179.309 244.649 180.047 244.465 180.436 244.301L186.09 241.699C187.135 241.228 188.139 240.941 188.692 239.876C189.512 238.319 190.167 236.659 190.905 235.061L192.134 232.398C192.236 232.152 192.359 231.763 192.523 231.558C192.769 231.251 192.83 229.53 193.937 231.312C194.305 231.907 195.268 231.353 194.879 230.759C193.916 229.223 192.216 229.653 191.499 231.108C190.679 232.787 189.942 234.508 189.143 236.209C188.672 237.253 188.18 239.282 187.176 239.978C186.008 240.798 184.349 241.289 183.038 241.883C181.542 242.58 179.883 243.154 178.449 243.993C177.056 244.813 177.035 246.472 178.449 247.292C179.863 248.111 181.522 248.705 183.038 249.402C184.329 249.996 185.988 250.488 187.176 251.307C188.18 252.004 188.672 254.032 189.143 255.077C189.921 256.777 190.659 258.498 191.499 260.178C192.195 261.612 193.916 262.083 194.879 260.526C195.596 259.338 196.088 257.904 196.661 256.654C197.378 255.118 197.952 253.335 198.853 251.881C199.447 250.918 200.984 250.549 201.947 250.119L207.396 247.599C208.584 247.046 209.854 245.94 208.769 244.547C208.4 244.075 207.765 243.871 207.232 243.625L204.262 242.252C202.705 241.535 200.738 240.961 199.345 239.978C198.833 239.63 198.669 239.015 198.423 238.462L197.01 235.41L194.858 230.739C194.572 230.104 193.609 230.657 193.916 231.292L193.937 231.271Z" fill="white"/>
<path d="M193.281 231.66L196.005 237.581C196.661 238.994 197.153 240.654 198.505 241.555C200.021 242.559 201.946 243.194 203.626 243.952C204.405 244.3 205.183 244.689 205.962 245.038C206.74 245.386 207.498 245.427 206.494 246.021C203.913 247.537 200.635 248.049 198.218 249.852C197.112 250.692 196.64 252.146 196.108 253.355C195.35 255.076 194.53 256.797 193.813 258.538C193.424 259.48 193.26 259.521 192.83 258.641C192.666 258.292 192.543 257.903 192.379 257.534C191.539 255.588 190.597 253.662 189.737 251.716C188.384 248.684 184.39 247.947 181.563 246.697C181.153 246.513 179.883 246.103 179.616 245.693L179.391 245.591C179.657 245.365 179.944 245.202 180.292 245.14C180.477 245.079 180.641 244.997 180.825 244.935C182.853 244.054 184.84 243.071 186.869 242.17C188.262 241.534 189.04 240.92 189.716 239.527C190.638 237.663 191.437 235.716 192.318 233.811C192.605 233.176 192.912 232.541 193.199 231.906C193.26 231.763 193.322 231.599 193.404 231.455C193.69 230.861 193.199 231.127 193.301 231.66C193.465 232.602 195.043 232.316 195.473 231.803C196.169 230.984 195.514 229.96 194.776 229.448C193.875 228.812 192.728 228.894 191.847 229.53C190.597 230.451 190.064 232.398 189.45 233.75C188.794 235.204 188.262 236.741 187.586 238.175C186.787 239.875 184.902 240.264 183.283 240.961C181.665 241.657 180.047 242.251 178.551 243.071C177.506 243.645 176.605 244.505 176.687 245.796C176.769 247.086 177.896 247.865 178.981 248.418C180.497 249.176 182.116 249.831 183.673 250.466C184.472 250.794 185.291 251.081 186.049 251.491C187.053 252.044 187.442 252.761 187.852 253.806C188.425 255.24 189.02 256.633 189.655 258.026C190.29 259.419 190.802 261.283 192.256 262C195.411 263.557 196.702 258.538 197.542 256.571C198.382 254.605 198.894 252.208 201.065 251.286C202.971 250.487 204.835 249.627 206.72 248.746C208.031 248.152 209.875 247.394 209.977 245.693C210.079 243.993 208.441 243.296 207.15 242.702C205.265 241.842 203.339 241.084 201.455 240.244C200.082 239.629 199.468 238.912 198.853 237.56C198.382 236.536 197.911 235.512 197.439 234.487L196.005 231.373C195.739 230.8 195.534 230.021 194.879 229.755C193.731 229.304 193.014 230.513 193.178 231.476C193.342 232.439 194.817 232.029 194.653 231.066L194.448 231.619L194.92 232.664L195.391 233.709L196.579 236.29C197.194 237.601 197.665 239.527 198.792 240.49C199.918 241.453 201.414 241.862 202.704 242.395C203.606 242.764 204.466 243.153 205.347 243.563C206.044 243.89 207.068 244.116 207.662 244.628C209.301 246.041 207.437 246.697 206.453 247.168C205.552 247.598 204.63 248.008 203.729 248.418C202.295 249.073 200.635 249.565 199.304 250.405C198.075 251.163 197.562 252.536 197.009 253.826C196.313 255.445 195.657 257.104 194.92 258.722C194.571 259.501 193.977 261.119 192.851 260.587C192.133 260.238 191.724 258.927 191.416 258.272C190.699 256.715 189.982 255.178 189.368 253.58C188.979 252.556 188.569 251.47 187.708 250.753C186.664 249.913 185.271 249.504 184.041 249.012C182.464 248.356 180.702 247.762 179.268 246.881C176.502 245.181 180.374 243.87 181.849 243.235C184.062 242.292 187.422 241.575 188.671 239.322C189.327 238.154 189.696 236.802 190.249 235.573C190.597 234.794 190.945 234.036 191.294 233.258C191.642 232.48 192.011 231.086 192.83 230.677C193.363 230.41 194.961 230.759 193.752 229.98C193.465 229.796 193.158 229.673 192.81 229.775C192.154 229.939 192.031 230.636 191.785 231.168C191.13 232.664 190.413 234.139 189.737 235.634C189.061 237.13 188.507 239.404 187.114 240.346C185.721 241.289 184.021 241.78 182.546 242.456C181.276 243.03 179.432 243.481 178.387 244.423C176.195 246.39 179.76 247.66 181.173 248.274C182.73 248.95 184.328 249.586 185.865 250.303C186.643 250.651 187.401 250.958 187.913 251.675C188.323 252.269 188.569 253.089 188.876 253.744C189.593 255.342 190.372 256.899 191.068 258.518C191.396 259.276 191.662 260.177 192.338 260.689C194.428 262.287 195.534 258.231 196.087 257.043C196.866 255.342 197.46 253.355 198.505 251.798C199.447 250.385 201.844 249.79 203.319 249.094C204.528 248.541 205.798 248.09 206.966 247.496C207.703 247.127 208.625 246.533 208.625 245.611C208.625 244.525 207.642 244.116 206.802 243.767C204.937 242.989 203.114 242.088 201.27 241.248C200.369 240.838 199.242 240.49 198.628 239.67C198.136 238.994 197.87 238.134 197.521 237.376L194.551 230.923C194.141 230.021 192.81 230.8 193.219 231.701L193.281 231.66Z" fill="#2B63A8"/>
<path d="M464.375 303.24L467.202 309.386C467.284 309.571 467.448 309.734 467.633 309.816L473.779 312.644C474.455 312.951 474.455 313.914 473.779 314.221L467.633 317.048C467.448 317.13 467.284 317.294 467.202 317.478L464.375 323.624C464.068 324.3 463.105 324.3 462.798 323.624L459.971 317.478C459.889 317.294 459.725 317.13 459.541 317.048L453.395 314.221C452.719 313.914 452.719 312.951 453.395 312.644L459.541 309.816C459.725 309.734 459.889 309.571 459.971 309.386L462.798 303.24C463.105 302.564 464.068 302.564 464.375 303.24Z" fill="white"/>
<path d="M463.7 303.608L466.281 309.222C467.039 310.881 469.272 311.393 470.849 312.11L472.488 312.868C472.632 312.93 473.308 313.134 473.369 313.278C473.554 313.708 471.833 314.241 471.566 314.364L468.002 316.003C467.346 316.31 466.814 316.535 466.465 317.232C465.953 318.195 465.544 319.239 465.093 320.223L464.335 321.882C464.212 322.169 464.028 322.886 463.782 323.091C463.331 323.48 463.003 322.148 462.839 321.8L461.2 318.236C460.873 317.539 460.647 316.76 459.93 316.351C459.09 315.88 458.128 315.531 457.247 315.122C456.243 314.671 455.055 314.302 454.133 313.688C453.948 313.565 453.661 313.585 453.825 313.278C453.928 313.093 454.645 312.909 454.829 312.827L458.763 311.024C459.562 310.656 460.299 310.43 460.709 309.611C461.282 308.525 461.733 307.357 462.245 306.251L463.106 304.407C463.106 304.407 463.515 303.342 463.7 303.649C464.232 304.489 465.564 303.711 465.031 302.871C464.212 301.56 462.655 301.826 462.02 303.117C461.446 304.284 460.934 305.493 460.381 306.681C460.053 307.378 459.746 308.668 459.152 309.181C458.906 309.385 458.476 309.488 458.189 309.611L456.263 310.492C455.218 310.983 454.092 311.393 453.067 311.967C451.838 312.643 451.838 314.241 453.067 314.937C454.092 315.49 455.198 315.921 456.263 316.412L458.189 317.293C458.476 317.416 458.906 317.539 459.152 317.723C459.766 318.236 460.074 319.526 460.381 320.223C460.934 321.411 461.446 322.62 462.02 323.787C462.634 325.016 464.253 325.385 465.031 324.033C465.523 323.193 465.871 322.21 466.281 321.329C466.773 320.284 467.162 318.953 467.818 318.01C468.207 317.437 469.211 317.191 469.825 316.904L473.636 315.163C474.701 314.671 475.623 313.565 474.66 312.417C474.353 312.049 473.922 311.905 473.513 311.721L471.444 310.778L469.17 309.734C468.821 309.57 468.289 309.447 468.002 309.201C467.736 308.976 467.633 308.586 467.49 308.279L466.506 306.149L465.011 302.891C464.601 301.99 463.27 302.768 463.679 303.67L463.7 303.608Z" fill="#2B63A8"/>
<path d="M464.028 303.425L466.609 309.038C466.896 309.673 467.203 310.021 467.838 310.328L471.034 311.803L472.673 312.561C472.899 312.664 473.37 312.787 473.554 312.971C474.435 313.893 472.141 314.549 471.751 314.713L468.187 316.351C467.572 316.638 467.121 316.823 466.773 317.437C466.261 318.4 465.851 319.445 465.401 320.428L464.643 322.088C464.479 322.436 464.335 323.009 464.089 323.296C463.209 324.341 462.696 322.456 462.471 322.006L460.832 318.441C460.545 317.806 460.34 317.048 459.705 316.679C458.865 316.208 457.903 315.86 457.022 315.45C456.018 314.979 454.85 314.61 453.908 314.016C453.58 313.811 452.822 313.709 453.6 312.93C453.826 312.725 454.338 312.602 454.604 312.48L458.538 310.677C459.255 310.349 459.972 310.144 460.361 309.407C460.935 308.321 461.385 307.153 461.897 306.047L462.758 304.203C462.84 304.039 462.901 303.752 463.024 303.609C463.188 303.404 463.229 302.195 464.008 303.445C464.274 303.855 464.929 303.486 464.663 303.056C463.987 301.991 462.799 302.298 462.307 303.302C461.734 304.469 461.221 305.678 460.668 306.866C460.34 307.583 459.992 309.017 459.296 309.509C458.476 310.083 457.329 310.41 456.407 310.841C455.362 311.312 454.215 311.722 453.211 312.316C452.207 312.91 452.228 314.036 453.211 314.61C454.195 315.184 455.362 315.593 456.407 316.085C457.309 316.495 458.476 316.843 459.296 317.417C459.992 317.908 460.34 319.322 460.668 320.059C461.221 321.248 461.734 322.456 462.307 323.624C462.799 324.628 464.008 324.956 464.663 323.87C465.175 323.05 465.503 322.047 465.913 321.166C466.404 320.08 466.814 318.851 467.449 317.847C467.859 317.171 468.924 316.925 469.6 316.618L473.411 314.876C474.23 314.487 475.132 313.709 474.353 312.746C474.087 312.418 473.657 312.275 473.288 312.111L471.219 311.168C470.133 310.677 468.76 310.267 467.777 309.591C467.429 309.345 467.306 308.915 467.142 308.546L466.159 306.416L464.663 303.158C464.458 302.708 463.803 303.097 464.008 303.547L464.028 303.425Z" fill="white"/>
<path d="M463.372 303.814L465.277 307.931C465.749 308.956 466.117 310.144 467.101 310.779C468.166 311.476 469.498 311.926 470.665 312.459C471.198 312.705 471.751 312.971 472.304 313.217C472.53 313.319 472.775 313.381 473.001 313.504C473.103 313.217 473.062 313.176 472.919 313.36C472.837 313.422 472.755 313.463 472.673 313.504C470.87 314.569 468.617 314.938 466.896 316.167C466.076 316.761 465.728 317.806 465.339 318.707C464.827 319.875 464.048 321.125 463.72 322.374C463.7 322.477 463.454 322.825 463.761 322.886C463.659 322.886 463.516 322.477 463.475 322.395C463.352 322.149 463.27 321.883 463.167 321.616C462.573 320.264 461.918 318.912 461.324 317.56C460.361 315.409 457.554 314.876 455.546 313.975C455.178 313.811 454.584 313.34 454.194 313.278L454.03 313.196C454.153 313.504 454.338 313.545 454.604 313.299C454.747 313.258 454.891 313.176 455.034 313.135C456.448 312.52 457.841 311.844 459.254 311.209C460.258 310.759 460.832 310.287 461.324 309.284C461.959 307.972 462.532 306.62 463.126 305.309C463.331 304.858 463.536 304.428 463.741 303.978C463.802 303.855 463.905 303.732 463.905 303.609C463.946 303.076 463.413 303.814 463.413 303.814C463.413 304.08 464.028 304.305 464.212 304.346C464.601 304.408 465.011 304.264 465.277 303.957C465.872 303.281 465.38 302.38 464.745 301.949C464.048 301.458 463.167 301.519 462.471 302.011C461.549 302.666 461.16 304.06 460.729 305.043C460.299 306.026 459.89 307.112 459.418 308.116C458.886 309.243 457.616 309.488 456.571 309.939C455.444 310.41 454.276 310.84 453.211 311.435C452.412 311.885 451.757 312.541 451.797 313.524C451.838 314.508 452.678 315.122 453.518 315.552C454.604 316.085 455.731 316.556 456.858 317.007C457.39 317.232 457.943 317.417 458.456 317.703C459.111 318.052 459.336 318.502 459.603 319.178C460.012 320.182 460.443 321.186 460.893 322.169C461.344 323.153 461.733 324.484 462.778 325.017C465.155 326.205 466.117 322.682 466.793 321.166C467.367 319.854 467.695 318.216 469.108 317.601C470.44 317.027 471.772 316.433 473.103 315.819C474.107 315.368 475.418 314.774 475.48 313.483C475.541 312.193 474.394 311.66 473.39 311.209C472.079 310.615 470.747 310.083 469.416 309.488C468.473 309.058 468.105 308.628 467.695 307.706C467.367 306.989 467.039 306.293 466.711 305.576L465.708 303.404C465.482 302.933 465.318 302.359 464.786 302.175C463.802 301.806 463.167 302.81 463.311 303.67C463.475 304.633 464.95 304.223 464.786 303.261L464.212 303.834L464.54 304.551L464.868 305.268L465.687 307.071C466.117 308.013 466.466 309.345 467.265 310.042C468.064 310.738 469.149 311.045 470.092 311.435C470.686 311.68 471.28 311.947 471.874 312.234C472.345 312.459 473.103 312.623 473.472 312.971C474.332 313.729 473.185 314.077 472.632 314.344C471.997 314.63 471.362 314.917 470.727 315.225C469.723 315.675 468.576 316.024 467.633 316.618C466.691 317.212 466.343 318.154 465.954 319.076C465.462 320.203 465.011 321.35 464.499 322.477C464.294 322.927 464.007 323.89 463.372 323.685C462.942 323.542 462.614 322.497 462.471 322.149C461.979 321.084 461.487 320.018 461.078 318.933C460.791 318.175 460.484 317.396 459.849 316.863C459.091 316.228 458.087 315.942 457.206 315.593C456.12 315.143 454.932 314.733 453.928 314.139C453.313 313.75 453.047 313.401 453.785 312.91C454.358 312.541 455.055 312.295 455.69 312.029C457.308 311.353 459.685 310.84 460.586 309.202C461.037 308.382 461.303 307.44 461.692 306.6C461.938 306.067 462.164 305.535 462.409 305.002C462.676 304.449 462.881 303.67 463.393 303.281C463.905 302.892 464.97 302.994 464.048 302.4C463.802 302.236 463.516 302.154 463.208 302.236C462.676 302.38 462.553 302.871 462.368 303.322C461.918 304.367 461.406 305.391 460.934 306.436C460.504 307.419 460.094 308.997 459.193 309.632C458.292 310.267 457.021 310.636 456.018 311.107C455.116 311.517 453.805 311.844 453.068 312.52C451.388 314.057 453.887 315.061 455.055 315.573C456.141 316.044 457.247 316.495 458.333 316.986C458.824 317.212 459.336 317.417 459.664 317.867C459.951 318.277 460.115 318.851 460.34 319.322C460.832 320.408 461.365 321.493 461.836 322.6C462.082 323.173 462.266 323.808 462.778 324.218C464.438 325.509 465.298 322.641 465.769 321.616C466.302 320.428 466.732 319.035 467.449 317.97C468.084 317.027 469.723 316.638 470.727 316.167C471.792 315.675 474.537 315.061 474.537 313.545C474.537 312.664 473.779 312.316 473.103 312.049C471.813 311.517 470.563 310.902 469.313 310.308C468.719 310.042 467.961 309.816 467.551 309.284C467.203 308.833 467.019 308.198 466.773 307.686L464.704 303.199C464.294 302.298 462.962 303.076 463.372 303.978V303.814Z" fill="#2B63A8"/>
<path d="M404.126 75.2082L407.711 82.993C407.813 83.2388 408.018 83.4232 408.244 83.5256L416.028 87.1107C416.889 87.5 416.889 88.7086 416.028 89.0979L408.244 92.683C407.998 92.7854 407.813 92.9903 407.711 93.2156L404.126 101C403.737 101.861 402.528 101.861 402.139 101L398.554 93.2156C398.451 92.9698 398.246 92.7854 398.021 92.683L390.236 89.0979C389.376 88.7086 389.376 87.5 390.236 87.1107L398.021 83.5256C398.267 83.4232 398.451 83.2183 398.554 82.993L402.139 75.2082C402.528 74.3478 403.737 74.3478 404.126 75.2082Z" fill="white"/>
<path d="M403.45 75.5973L406.728 82.706C407.117 83.5255 407.547 84.0377 408.387 84.4269L412.443 86.2911L414.512 87.2335C414.758 87.3564 415.475 87.5203 415.639 87.7457C416.254 88.6061 413.775 89.2821 413.345 89.4665L408.817 91.5356C407.998 91.9044 407.383 92.1707 406.932 93.0106C406.277 94.2398 405.765 95.5509 405.191 96.8006L404.228 98.8902C404.044 99.2999 403.839 100.099 403.511 100.427C402.692 101.267 402.2 99.2999 401.954 98.7878L399.885 94.2808C399.496 93.4204 399.209 92.4575 398.349 91.9658C397.283 91.3513 396.075 90.921 394.968 90.4089C393.698 89.8353 392.182 89.3641 391.035 88.6061C389.888 87.8481 391.199 87.4794 391.916 87.1516L396.894 84.8571C397.857 84.4064 398.779 84.1401 399.291 83.1363C400.008 81.7637 400.602 80.2887 401.258 78.8751L402.343 76.5397C402.405 76.4168 402.958 74.7983 403.45 75.5768C403.982 76.4168 405.314 75.6383 404.781 74.7983C403.818 73.2619 402.036 73.6306 401.319 75.1056C400.602 76.5806 399.947 78.1171 399.25 79.6126C398.84 80.514 398.431 82.2144 397.611 82.8495C397.283 83.0953 396.771 83.2387 396.402 83.4026L393.965 84.5293C392.633 85.1439 391.199 85.6766 389.929 86.3936C388.495 87.1925 388.495 88.9953 389.929 89.7943C391.219 90.5113 392.633 91.044 393.965 91.6586L396.402 92.7853C396.771 92.9492 397.283 93.0926 397.611 93.3384C398.431 93.9735 398.84 95.6739 399.25 96.5753C399.947 98.0708 400.602 99.6072 401.319 101.082C402.036 102.557 403.859 102.946 404.781 101.39C405.416 100.324 405.847 99.0746 406.359 97.9683C406.994 96.6162 407.506 95.0183 408.305 93.7482C408.797 92.9697 410.128 92.6624 410.927 92.2936L415.742 90.0811C416.971 89.528 418.118 88.2988 417.012 86.9467C416.643 86.496 416.11 86.3116 415.598 86.0863L412.976 84.8776L410.108 83.5665C409.657 83.3616 409.022 83.1977 408.633 82.8904C408.244 82.5831 408.121 82.0915 407.916 81.6612L406.687 78.9775L404.781 74.8598C404.372 73.9584 403.04 74.7369 403.45 75.6383V75.5973Z" fill="#2B63A8"/>
<path d="M403.695 75.4534L406.973 82.5622C407.342 83.3611 407.731 83.8118 408.53 84.1806L412.586 86.0448L414.655 86.9872C414.942 87.1306 415.557 87.2535 415.782 87.4994C416.909 88.6671 414 89.4865 413.488 89.7119L408.96 91.781C408.182 92.1293 407.608 92.3751 407.178 93.1536C406.522 94.3828 406.01 95.6939 405.437 96.9435L404.474 99.0331C404.269 99.4838 404.085 100.201 403.757 100.57C402.651 101.881 401.974 99.5043 401.708 98.9307L399.639 94.4237C399.27 93.6248 399.004 92.6619 398.205 92.2112C397.14 91.5966 395.931 91.1664 394.825 90.6543C393.555 90.0602 392.08 89.589 390.891 88.8515C390.482 88.6056 389.519 88.4417 390.523 87.4789C390.789 87.2126 391.445 87.0487 391.793 86.9053L396.771 84.6108C397.693 84.1806 398.574 83.9348 399.065 82.9924C399.782 81.6198 400.377 80.1448 401.032 78.7312L402.118 76.3958C402.22 76.1705 402.302 75.8427 402.466 75.6583C402.691 75.392 402.732 73.8555 403.716 75.4329C404.044 75.9656 404.884 75.4739 404.556 74.9413C403.695 73.5892 402.2 73.9784 401.585 75.2486C400.848 76.7236 400.213 78.2601 399.516 79.7556C399.086 80.6774 398.656 82.4597 397.775 83.0948C396.73 83.8323 395.275 84.2421 394.128 84.7747C392.797 85.3893 391.342 85.9014 390.092 86.6389C388.843 87.3765 388.863 88.831 390.092 89.548C391.342 90.2855 392.817 90.7977 394.128 91.4122C395.275 91.9449 396.73 92.3546 397.775 93.0921C398.656 93.7067 399.086 95.5095 399.516 96.4314C400.213 97.9269 400.868 99.4634 401.585 100.938C402.2 102.209 403.716 102.618 404.556 101.246C405.191 100.201 405.621 98.9307 406.133 97.8245C406.768 96.4519 407.28 94.8949 408.079 93.6043C408.612 92.7643 409.944 92.4366 410.804 92.0473L415.618 89.8348C416.663 89.3431 417.79 88.3598 416.827 87.1306C416.499 86.7004 415.946 86.5365 415.475 86.3112L412.853 85.1025C411.48 84.4674 409.739 83.9757 408.51 83.0948C408.059 82.7875 407.915 82.2344 407.69 81.7632L406.461 79.0795L404.556 74.9618C404.289 74.3881 403.449 74.8798 403.716 75.4534H403.695Z" fill="white"/>
<path d="M403.04 75.8426L405.437 81.0666C406.01 82.3367 406.461 83.8117 407.67 84.6107C409.022 85.4916 410.722 86.0447 412.177 86.7208C412.873 87.0281 413.549 87.3763 414.246 87.6632C414.901 87.95 415.557 87.8885 414.717 88.3802C412.443 89.7118 409.554 90.183 407.403 91.7604C406.4 92.4979 405.99 93.7886 405.498 94.8948C404.822 96.4313 404.085 97.9473 403.47 99.4837C403.572 99.2174 403.163 100.221 403.163 100.221C403.06 100.221 402.814 99.6271 402.773 99.5452C402.61 99.2379 402.507 98.8896 402.364 98.5619C401.626 96.841 400.786 95.1406 400.028 93.4403C398.82 90.7566 395.296 90.101 392.797 88.9743C392.366 88.7899 391.404 88.4621 391.076 88.0934L390.871 87.9909C391.137 87.9909 391.404 87.8885 391.649 87.7451C391.813 87.6836 391.977 87.6222 392.141 87.5402C393.944 86.7618 395.685 85.9013 397.468 85.1024C398.697 84.5492 399.414 83.9756 400.008 82.7464C400.827 81.0871 401.524 79.3867 402.302 77.7068C402.569 77.1537 402.835 76.5801 403.081 76.0269C403.142 75.8835 403.224 75.7606 403.265 75.5967C403.45 74.9002 402.999 75.6992 403.019 75.8016C403.081 76.7235 404.699 76.3752 405.068 75.945C405.723 75.187 405.129 74.2037 404.433 73.712C403.613 73.1384 402.569 73.1998 401.77 73.7735C400.643 74.5929 400.172 76.3138 399.619 77.5224C399.045 78.8131 398.574 80.1652 397.959 81.4148C397.263 82.8898 395.624 83.2381 394.231 83.8322C392.838 84.4263 391.363 84.9795 390.031 85.717C389.089 86.2496 388.269 87.0281 388.351 88.1958C388.433 89.3635 389.437 90.0805 390.42 90.5927C391.772 91.2687 393.186 91.8424 394.599 92.416C395.296 92.7028 396.013 92.9486 396.669 93.2969C397.529 93.7681 397.857 94.3827 398.226 95.284C398.717 96.5542 399.27 97.7834 399.823 99.033C400.377 100.283 400.848 101.922 402.138 102.557C404.986 103.97 406.154 99.5247 406.932 97.7424C407.711 95.9601 408.12 93.9115 409.985 93.133C411.665 92.416 413.324 91.658 414.983 90.9C416.171 90.3469 417.81 89.6708 417.892 88.1343C417.974 86.5979 416.54 85.9628 415.352 85.4301C413.693 84.6722 411.992 83.9961 410.333 83.2586C409.124 82.7055 408.612 82.1114 408.079 80.9232C407.67 80.0218 407.26 79.1204 406.83 78.219L405.56 75.4738C405.314 74.9412 405.109 74.2446 404.515 73.9988C403.429 73.5891 402.753 74.7158 402.896 75.6377C403.06 76.6006 404.535 76.1908 404.371 75.228L404.023 75.7811L404.453 76.703L404.884 77.6249L405.928 79.8989C406.461 81.0666 406.891 82.7669 407.895 83.6274C408.899 84.4878 410.23 84.8565 411.398 85.3277C412.177 85.635 412.935 86.0038 413.713 86.352C414.328 86.6388 415.25 86.8437 415.741 87.2739C417.073 88.4416 415.495 88.9743 414.676 89.343C413.857 89.7118 413.078 90.0805 412.259 90.4493C410.988 91.0229 409.534 91.4736 408.346 92.2111C407.26 92.8872 406.768 94.1163 406.297 95.2636C405.683 96.6976 405.109 98.1521 404.453 99.5862C404.146 100.262 403.716 101.553 402.753 101.205C402.138 100.979 401.77 99.7091 401.524 99.1969C400.889 97.8448 400.254 96.4723 399.721 95.0792C399.373 94.1573 399.004 93.1944 398.226 92.5389C397.304 91.7809 396.054 91.4121 394.948 90.9614C393.575 90.3878 392.018 89.8757 390.748 89.0972C389.847 88.5441 389.498 87.8885 390.564 87.192C391.301 86.7003 392.203 86.393 393.022 86.0447C395.009 85.2048 397.98 84.5697 399.106 82.5416C399.68 81.4968 400.008 80.3291 400.499 79.2433C400.807 78.5672 401.114 77.8912 401.421 77.2151C401.749 76.4981 402.036 75.4124 402.753 74.9821C403.245 74.6748 404.699 74.9412 403.572 74.2037C403.306 74.0398 402.999 73.9169 402.671 73.9988C402.056 74.1627 401.934 74.7773 401.708 75.269C401.135 76.6006 400.499 77.8912 399.905 79.2228C399.311 80.5544 398.82 82.5416 397.611 83.361C396.402 84.1805 394.866 84.6312 393.575 85.2253C392.448 85.7374 390.809 86.1472 389.888 86.9666C387.88 88.7489 391.055 89.9371 392.366 90.4903C393.739 91.0844 395.153 91.6375 396.505 92.2726C397.181 92.5799 397.836 92.8462 398.266 93.4608C398.635 93.9934 398.84 94.7104 399.106 95.284C399.741 96.6771 400.418 98.0702 401.032 99.4837C401.319 100.16 401.565 100.959 402.179 101.43C404.105 102.905 405.109 99.3198 405.642 98.1931C406.338 96.6976 406.85 94.9358 407.772 93.5632C408.592 92.334 410.702 91.8014 411.992 91.2278C413.058 90.7361 414.164 90.3469 415.209 89.8142C415.885 89.4659 416.704 88.9333 416.725 88.0729C416.725 87.0691 415.844 86.6798 415.045 86.3725C413.406 85.6965 411.808 84.8975 410.189 84.16C409.411 83.7912 408.428 83.5044 407.895 82.7874C407.465 82.1933 407.219 81.4148 406.912 80.7593L404.289 75.0641C403.88 74.1627 402.548 74.9412 402.958 75.8426H403.04Z" fill="#2B63A8"/>
<path d="M331.174 378.731C293.705 378.731 262.873 387.213 258.939 398.091C276.25 404.257 302.186 408.17 331.174 408.17C360.162 408.17 386.118 404.257 403.409 398.091C399.475 387.192 368.643 378.731 331.174 378.731Z" fill="#3C2415"/>
<path d="M334.37 408.539V335.137C334.37 323.275 335.394 311.127 330.539 299.982C327.61 293.283 323.533 287.281 321.279 280.254C319.743 275.481 318.821 270.461 319.108 265.422C319.374 260.935 320.665 256.531 322.98 252.679C325.684 248.172 329.617 244.772 333.264 241.064C336.91 237.356 340.024 233.074 340.967 227.768C341.704 223.568 341.171 219.533 339.676 215.558C337.812 210.641 335.538 205.95 334.022 200.89C331.645 193.023 330.375 184.849 329.945 176.655C329.883 175.671 328.347 175.671 328.408 176.655C329.064 188.987 331.768 200.829 336.623 212.178C338.119 215.661 339.635 219.164 339.778 223.015C339.983 228.383 338.037 233.32 334.595 237.376C331.42 241.125 327.548 244.178 324.455 247.988C321.546 251.553 319.395 255.65 318.35 260.116C316.178 269.417 318.678 279.045 322.488 287.567C325.622 294.553 329.965 300.761 331.748 308.341C332.547 311.782 332.874 315.265 332.874 318.768C332.874 322.681 332.874 326.594 332.874 330.507V408.559C332.874 409.543 334.411 409.543 334.411 408.559L334.37 408.539Z" fill="#2B63A8"/>
<path d="M301.919 324.299L307.287 336.529C307.184 336.632 307.103 336.57 307.021 336.529C306.037 336.263 305.074 335.997 304.091 335.751C303.886 335.69 303.763 335.587 303.681 335.403C302.022 331.572 300.342 327.761 298.662 323.951C298.58 323.767 298.56 323.582 298.621 323.377C298.744 322.988 298.867 322.599 298.928 322.189C298.99 321.82 299.133 321.718 299.502 321.841C300.301 322.087 301.121 322.312 301.94 322.455C302.964 322.64 304.009 322.64 305.013 322.292C306.017 321.943 306.775 321.288 307.225 320.304C307.369 320.018 307.328 319.895 306.98 319.792C304.644 319.178 302.309 318.543 299.994 317.928L299.318 317.744C299.973 317.17 300.567 316.637 301.161 316.125C301.305 316.002 301.448 316.125 301.571 316.125C303.456 316.617 305.341 317.129 307.225 317.641C307.348 317.682 307.492 317.785 307.594 317.682C307.676 317.58 307.594 317.436 307.553 317.313C307.184 316.064 306.242 315.388 305.136 314.916C303.804 314.343 302.391 314.036 300.998 313.667C300.854 313.626 300.711 313.585 300.465 313.523C301.121 312.95 301.715 312.417 302.309 311.905C302.411 311.823 302.514 311.864 302.596 311.905C307 313.073 311.384 314.261 315.768 315.429C315.809 315.593 315.686 315.613 315.625 315.674C315.174 316.084 314.682 316.473 314.252 316.904C314.047 317.108 313.863 317.129 313.597 317.047C312.572 316.76 311.528 316.494 310.421 316.187C310.524 316.514 310.626 316.801 310.708 317.108C310.811 317.498 310.872 317.907 310.831 318.317C310.831 318.583 310.913 318.665 311.159 318.727C312.327 319.014 313.494 319.341 314.744 319.69C314.334 320.059 313.945 320.325 313.638 320.694C313.105 321.308 312.531 321.452 311.794 321.124C311.405 320.96 310.995 320.898 310.585 320.776C310.401 320.735 310.298 320.735 310.216 320.919C309.213 322.988 307.451 323.992 305.238 324.32C304.255 324.463 303.272 324.443 302.309 324.258C302.227 324.258 302.124 324.238 302.042 324.217C302.022 324.217 302.001 324.217 301.94 324.258L301.919 324.299Z" fill="white"/>
<path d="M307.902 230.083L318.964 237.581C318.944 237.724 318.821 237.704 318.739 237.724C317.776 238.031 316.813 238.318 315.85 238.626C315.645 238.687 315.482 238.666 315.297 238.544C311.855 236.208 308.393 233.852 304.952 231.517C304.767 231.394 304.665 231.271 304.624 231.066C304.521 230.677 304.419 230.288 304.255 229.898C304.112 229.55 304.173 229.407 304.562 229.304C305.361 229.079 306.181 228.854 306.959 228.526C307.922 228.116 308.803 227.583 309.479 226.764C310.155 225.924 310.442 224.982 310.298 223.896C310.258 223.568 310.176 223.486 309.827 223.589C307.533 224.326 305.218 225.023 302.923 225.74L302.247 225.945C302.493 225.105 302.719 224.347 302.944 223.589C303.005 223.425 303.169 223.425 303.292 223.384C305.156 222.81 307.021 222.236 308.885 221.642C309.008 221.601 309.192 221.642 309.213 221.478C309.213 221.356 309.069 221.274 308.967 221.192C307.984 220.331 306.836 220.27 305.628 220.454C304.194 220.68 302.841 221.171 301.448 221.581C301.305 221.622 301.162 221.663 300.916 221.745C301.162 220.905 301.387 220.147 301.612 219.389C301.653 219.266 301.756 219.245 301.858 219.225C306.201 217.873 310.544 216.541 314.887 215.189C315.01 215.292 314.928 215.394 314.887 215.476C314.724 216.07 314.519 216.664 314.375 217.258C314.314 217.545 314.17 217.668 313.884 217.73C312.859 218.037 311.835 218.365 310.749 218.692C311.015 218.918 311.261 219.102 311.466 219.307C311.774 219.594 312.019 219.901 312.224 220.249C312.347 220.475 312.491 220.495 312.736 220.434C313.884 220.065 315.031 219.717 316.28 219.327C316.137 219.86 315.932 220.29 315.871 220.761C315.748 221.56 315.338 221.991 314.539 222.114C314.129 222.175 313.74 222.359 313.33 222.462C313.146 222.503 313.085 222.585 313.105 222.79C313.351 225.084 312.388 226.866 310.708 228.321C309.95 228.976 309.11 229.468 308.188 229.837C308.106 229.878 308.025 229.919 307.943 229.96C307.943 229.96 307.922 230.001 307.881 230.042L307.902 230.083Z" fill="white"/>
<path d="M355.737 256.839L361.104 269.07C361.002 269.172 360.92 269.11 360.838 269.07C359.855 268.803 358.892 268.537 357.908 268.291C357.704 268.23 357.581 268.127 357.499 267.943C355.839 264.112 354.159 260.301 352.48 256.491C352.398 256.307 352.377 256.122 352.439 255.917C352.561 255.528 352.684 255.139 352.746 254.729C352.807 254.36 352.951 254.258 353.319 254.381C354.118 254.627 354.938 254.852 355.757 254.995C356.782 255.18 357.826 255.18 358.83 254.832C359.834 254.483 360.592 253.828 361.043 252.844C361.186 252.558 361.145 252.435 360.797 252.332C358.462 251.718 356.126 251.083 353.811 250.468L353.135 250.284C353.791 249.71 354.385 249.177 354.979 248.665C355.122 248.542 355.266 248.665 355.389 248.665C357.273 249.157 359.158 249.669 361.043 250.181C361.166 250.222 361.309 250.325 361.412 250.222C361.494 250.12 361.412 249.976 361.371 249.853C361.002 248.604 360.059 247.928 358.953 247.457C357.622 246.883 356.208 246.576 354.815 246.207C354.672 246.166 354.528 246.125 354.282 246.063C354.938 245.49 355.532 244.957 356.126 244.445C356.229 244.363 356.331 244.404 356.413 244.445C360.817 245.613 365.202 246.801 369.586 247.969C369.627 248.133 369.504 248.153 369.442 248.214C368.991 248.624 368.5 249.013 368.07 249.444C367.865 249.649 367.68 249.669 367.414 249.587C366.39 249.3 365.345 249.034 364.239 248.727C364.341 249.054 364.444 249.341 364.525 249.649C364.628 250.038 364.689 250.447 364.648 250.857C364.648 251.124 364.73 251.205 364.976 251.267C366.144 251.554 367.312 251.882 368.561 252.23C368.152 252.599 367.762 252.865 367.455 253.234C366.922 253.848 366.349 253.992 365.611 253.664C365.222 253.5 364.812 253.438 364.403 253.316C364.218 253.275 364.116 253.275 364.034 253.459C363.03 255.528 361.268 256.532 359.056 256.86C358.072 257.003 357.089 256.983 356.126 256.798C356.044 256.798 355.942 256.778 355.86 256.757C355.839 256.757 355.819 256.757 355.757 256.798L355.737 256.839Z" fill="white"/>
</svg>
