<svg width="448" height="448" viewBox="0 0 448 448" fill="none" xmlns="http://www.w3.org/2000/svg">
<rect width="447.401" height="447.401" fill="white"/>
<g clip-path="url(#clip0_1243_9779)">
<path d="M285.992 267.856H155.462C151.041 267.856 146.634 267.883 142.213 267.856C137.792 267.83 134.194 264.537 134.128 259.997C134.101 258.178 134.128 256.359 134.128 254.541V181.722C134.128 179.969 133.929 178.004 134.274 176.265C135.084 172.15 138.682 169.972 142.638 169.972H284.2C286.178 169.972 288.05 169.972 289.869 170.995C293.188 172.893 293.785 176.186 293.785 179.624V237.64C293.785 244.836 293.785 252.045 293.785 259.24C293.785 263.834 290.878 267.737 286.005 267.843C283.443 267.896 283.443 271.879 286.005 271.826C292.67 271.667 297.728 266.383 297.768 259.771C297.781 257.528 297.768 255.284 297.768 253.054V179.85C297.768 176.279 297.343 172.96 294.9 170.065C290.838 165.273 284.784 165.99 279.208 165.99H142.585C138.084 165.99 133.836 168.008 131.619 172.07C130.132 174.778 130.145 177.58 130.145 180.514V241.132C130.145 247.398 130.052 253.678 130.145 259.957C130.238 266.237 135.363 271.72 141.934 271.839C143.036 271.866 144.138 271.839 145.24 271.839H285.992C288.554 271.839 288.554 267.856 285.992 267.856Z" fill="#221F20"/>
<path d="M293.865 190.205H134.181V208.964H293.865V190.205Z" fill="url(#paint0_linear_1243_9779)"/>
<path d="M311.296 268.945L297.064 277.668C292.803 280.27 287.452 280.27 283.191 277.668L268.959 268.945C265.029 266.529 262.626 262.254 262.626 257.634V223.448C265.653 221.059 275.026 214.248 288.846 213.85C304.233 213.412 314.801 221.205 317.629 223.448V257.634C317.629 262.254 315.226 266.542 311.296 268.945Z" fill="#C5D8E3"/>
<path d="M271.707 247.053C274.88 250.226 278.053 253.399 281.213 256.559C282.023 257.368 283.204 257.249 284.027 256.559C290.851 250.797 297.675 245.035 304.499 239.287C305.481 238.463 306.45 237.64 307.433 236.804C309.398 235.144 306.57 232.343 304.618 233.989C297.794 239.751 290.971 245.513 284.147 251.261C283.164 252.085 282.195 252.908 281.213 253.744H284.027C280.854 250.571 277.681 247.398 274.522 244.238C272.703 242.42 269.888 245.234 271.707 247.053Z" fill="#221F20"/>
<path d="M166.229 244.889C166.176 248.42 164.012 251.726 160.64 252.947C157.268 254.169 153.232 253.133 150.922 250.252C148.612 247.372 148.466 243.508 150.271 240.481C152.077 237.454 155.675 235.795 159.14 236.432C163.242 237.189 166.176 240.76 166.229 244.902C166.269 247.464 170.252 247.464 170.212 244.902C170.146 239.632 166.893 234.972 161.968 233.1C157.042 231.228 151.307 232.821 148.014 236.83C144.722 240.84 144.098 246.761 146.833 251.328C149.568 255.895 154.865 258.165 160.056 257.236C165.937 256.174 170.132 250.783 170.212 244.902C170.252 242.34 166.269 242.34 166.229 244.902V244.889Z" fill="#221F20"/>
<path d="M166.933 238.357C171.128 234.773 177.62 236.14 180.156 240.959C182.505 245.42 180.249 251.235 175.509 252.948C172.429 254.063 169.017 253.359 166.614 251.142C164.729 249.403 161.914 252.217 163.8 253.957C166.919 256.851 171.168 258.059 175.336 257.143C178.762 256.386 181.842 254.036 183.514 250.956C187.179 244.239 183.926 235.795 176.823 233.087C172.456 231.427 167.596 232.556 164.092 235.543C163.269 236.246 163.375 237.64 164.092 238.357C164.901 239.167 166.083 239.061 166.906 238.357H166.933Z" fill="#221F20"/>
</g>
<defs>
<linearGradient id="paint0_linear_1243_9779" x1="134.181" y1="199.578" x2="293.865" y2="199.578" gradientUnits="userSpaceOnUse">
<stop stop-color="#9BCB9E"/>
<stop offset="1" stop-color="#78C1C4"/>
</linearGradient>
<clipPath id="clip0_1243_9779">
<rect width="187.524" height="113.669" fill="white" transform="translate(130.105 165.95)"/>
</clipPath>
</defs>
</svg>
