<svg width="448" height="448" viewBox="0 0 448 448" fill="none" xmlns="http://www.w3.org/2000/svg">
<rect width="447.401" height="447.401" transform="translate(0 0.260742)" fill="white"/>
<g clip-path="url(#clip0_1243_9762)">
<path d="M315.093 213.514C313.924 215.903 312.052 216.806 309.357 216.753C302.308 216.62 295.245 216.713 288.195 216.7C284.956 216.7 283.376 215.306 283.018 212.133C280.787 192.551 271.109 178.014 253.598 168.853C247.77 165.8 241.49 164.167 234.919 163.623C231.932 163.37 230.259 161.698 230.232 158.671C230.179 151.382 230.232 144.08 230.206 136.792C230.206 134.508 231.281 132.995 233.193 131.946C233.95 131.813 234.839 131.707 235.822 131.68C237.136 131.654 238.304 131.773 239.247 131.946C241.198 132.211 243.668 132.65 246.522 133.234C247.332 133.393 248.142 133.579 248.952 133.791C283.217 142.739 304.697 164.393 313.327 198.764C314.19 202.216 314.362 205.774 315.106 209.239C315.252 209.81 315.398 210.593 315.371 211.536C315.358 212.332 315.239 212.996 315.106 213.514H315.093Z" fill="#C5D8E3"/>
<path d="M217.806 160.317C217.806 163.875 217.833 167.433 217.806 171.004C217.779 174.164 216.306 175.797 213.146 176.155C194.971 178.213 180.952 186.922 171.632 202.681C153.59 233.202 171.021 273.282 205.632 281.208C234.574 287.833 262.998 270.056 269.742 241.088C270.313 238.619 270.578 236.07 270.923 233.547C271.282 230.972 272.915 229.299 275.53 229.272C283.004 229.219 290.492 229.206 297.967 229.272C301.007 229.299 302.799 231.343 302.6 234.556C301.856 246.85 298.697 258.519 292.762 269.313C280.641 291.364 262.4 305.702 237.972 311.862C192.17 323.399 145.226 294.351 134.871 248.204C125.325 205.668 148.943 163.145 190.072 148.873C196.989 146.47 204.132 145.076 211.42 144.505C216.067 144.147 217.806 145.806 217.806 150.532C217.806 153.798 217.806 157.064 217.806 160.33V160.317Z" fill="url(#paint0_linear_1243_9762)"/>
<path d="M236.299 201.618C236.18 203.703 234.215 205.827 233.126 207.513C231.812 209.544 230.511 211.589 229.197 213.62C226.688 217.51 224.192 221.386 221.683 225.276C216.558 233.229 211.433 241.194 206.296 249.147C205.446 250.461 204.225 253.488 202.446 253.78C200.959 254.019 199.671 252.558 199.366 251.244C198.967 249.465 200.467 247.859 201.37 246.451C202.685 244.434 203.986 242.402 205.3 240.384C210.424 232.472 215.549 224.559 220.66 216.647C223.515 212.226 226.382 207.818 229.237 203.397C230.153 201.977 231.48 198.684 233.472 198.525C235.237 198.392 236.233 200.092 236.273 201.618C236.339 204.181 240.322 204.181 240.256 201.618C240.149 197.596 236.937 193.971 232.675 194.622C230.445 194.967 228.958 196.547 227.763 198.339C226.196 200.716 224.67 203.119 223.116 205.522C216.863 215.186 210.61 224.851 204.357 234.503C202.804 236.893 201.264 239.282 199.711 241.685C198.303 243.863 196.405 246.093 195.622 248.589C194.334 252.612 197.255 257.178 201.437 257.71C203.508 257.975 205.459 257.099 206.8 255.532C208.566 253.474 209.88 250.939 211.341 248.669C214.5 243.77 217.66 238.858 220.82 233.959C224.271 228.595 227.736 223.232 231.188 217.855C232.98 215.08 234.759 212.306 236.552 209.531C238.158 207.035 240.096 204.698 240.269 201.632C240.402 199.069 236.419 199.083 236.286 201.632L236.299 201.618Z" fill="#221F20"/>
<path d="M210.199 208.827C210.159 211.629 208.42 214.31 205.778 215.226C202.937 216.222 199.897 215.426 197.985 213.062C196.259 210.938 196.06 207.712 197.494 205.309C198.927 202.906 201.822 201.565 204.517 202.083C207.849 202.707 210.146 205.522 210.185 208.827C210.225 211.39 214.208 211.39 214.168 208.827C214.102 204.274 211.301 200.278 207.039 198.658C202.777 197.038 197.879 198.419 195.077 201.858C192.276 205.296 191.679 210.394 194.042 214.35C196.405 218.306 200.972 220.232 205.446 219.435C210.504 218.519 214.089 213.859 214.168 208.827C214.208 206.265 210.225 206.265 210.185 208.827H210.199Z" fill="#221F20"/>
<path d="M238.291 247.514C238.251 250.315 236.512 252.997 233.87 253.913C231.029 254.909 227.989 254.112 226.077 251.749C224.351 249.625 224.152 246.399 225.586 243.996C227.019 241.593 229.914 240.252 232.609 240.77C235.941 241.394 238.238 244.208 238.278 247.514C238.317 250.076 242.3 250.076 242.26 247.514C242.194 242.96 239.393 238.964 235.131 237.345C230.87 235.725 225.971 237.106 223.169 240.544C220.368 243.983 219.771 249.081 222.134 253.037C224.497 256.993 229.064 258.918 233.538 258.121C238.596 257.205 242.181 252.546 242.26 247.514C242.3 244.952 238.317 244.952 238.278 247.514H238.291Z" fill="#221F20"/>
</g>
<defs>
<linearGradient id="paint0_linear_1243_9762" x1="132.76" y1="229.418" x2="302.6" y2="229.418" gradientUnits="userSpaceOnUse">
<stop stop-color="#9BCB9E"/>
<stop offset="1" stop-color="#78C1C4"/>
</linearGradient>
<clipPath id="clip0_1243_9762">
<rect width="182.611" height="182.704" fill="white" transform="translate(132.76 131.693)"/>
</clipPath>
</defs>
</svg>
