<svg width="449" height="448" viewBox="0 0 449 448" fill="none" xmlns="http://www.w3.org/2000/svg">
<rect width="447.401" height="447.401" transform="translate(0.98877)" fill="white"/>
<g clip-path="url(#clip0_1243_9771)">
<path d="M202.598 283.575C185.339 281.889 170.736 270.923 162.372 256.028C161.88 255.165 161.429 254.288 160.991 253.399C160.871 253.147 160.274 251.766 160.712 252.841C160.367 252.018 159.743 251.381 158.787 251.381H146.998L148.405 251.965C143.121 247.796 139.882 241.716 137.851 235.383C137.453 234.122 137.094 232.834 136.776 231.547C136.55 230.617 135.952 229.21 136.47 228.307C137.107 227.219 139.417 226.927 140.493 226.581C144.648 225.227 149.348 224.178 153.012 221.722C157.021 219.041 159.265 215.257 161.575 211.208C163.567 207.729 165.558 204.251 167.563 200.773C168.837 198.542 165.399 196.538 164.124 198.768C161.801 202.817 159.478 206.867 157.154 210.929C155.813 213.266 154.472 215.456 152.388 217.248C150.078 219.24 147.343 220.169 144.502 221.098C141.927 221.935 139.338 222.771 136.762 223.621C133.257 224.789 131.797 227.524 132.567 231.122C134.227 238.875 137.426 246.814 143.042 252.549C144.21 253.731 145.564 255.311 147.303 255.377C148.551 255.417 149.826 255.377 151.074 255.377H158.734L156.809 253.917C158.415 257.753 160.686 261.338 163.155 264.657C168.598 271.972 175.528 278.238 183.719 282.301C189.627 285.235 195.96 286.947 202.518 287.585C205.067 287.837 205.054 283.854 202.518 283.602L202.598 283.575Z" fill="#221F20"/>
<path d="M172.727 276.34C172.302 280.243 171.864 284.146 171.439 288.062C171.254 289.788 170.948 291.488 171.227 293.213C171.811 296.904 174.586 299.984 178.184 300.967C181.782 301.949 185.671 302.533 189.375 303.317C194.049 304.286 198.536 305.52 203.196 303.595C206.979 302.029 209.927 298.989 211.4 295.178C212.17 293.187 212.715 291.089 213.365 289.045L210.909 290.439C219.167 292.643 228.447 292.656 236.718 290.638L234.195 288.713C234.275 292.005 233.677 296.214 236.333 298.696C237.966 300.223 240.554 300.953 242.625 301.657C245.4 302.6 248.241 303.277 251.149 303.675C254.561 304.14 257.973 304.193 261.398 303.715C264.584 303.277 268.354 302.693 270.518 300.077C273.373 296.639 275.616 292.404 277.568 288.421C280.422 282.633 282.785 276.22 282.573 269.675L281.591 271.401C288.693 265.971 293.818 257.435 296.446 249.018C302.434 229.953 295.743 207.716 281.617 193.962C277.01 189.475 271.634 186.036 266.044 182.903C260.827 179.982 255.424 177.194 249.768 175.203C247.352 174.353 246.303 178.19 248.706 179.04C256.313 181.722 263.641 185.811 270.425 190.139C277.209 194.467 282.653 200.016 286.742 206.68C294.043 218.602 296.831 233.949 292.769 247.451C290.552 254.846 286.357 261.683 280.741 266.927C280.276 267.365 279.785 267.777 279.294 268.188C279.121 268.334 279.068 268.494 279.573 267.976C279.002 268.56 278.683 268.799 278.59 269.702C278.378 271.56 278.497 273.366 278.125 275.224C276.758 282.035 273.439 288.394 269.735 294.209C269.071 295.245 268.421 296.333 267.677 297.302C266.23 299.174 263.15 299.506 260.933 299.825C256.26 300.489 251.481 300.011 246.927 298.829C245.188 298.378 243.488 297.82 241.816 297.17C240.475 296.652 238.709 296.174 238.364 294.568C237.966 292.749 238.231 290.611 238.191 288.753C238.165 287.438 236.943 286.522 235.669 286.828C228.088 288.686 219.552 288.647 211.984 286.629C210.922 286.35 209.86 286.987 209.528 288.023C208.161 292.404 207.218 296.931 202.877 299.387C198.987 301.591 195.071 300.475 191.035 299.639C187.331 298.869 183.614 298.139 179.91 297.329C177.507 296.798 175.568 295.165 175.144 292.643C174.918 291.288 175.25 289.722 175.396 288.354C175.834 284.358 176.272 280.362 176.71 276.38C176.989 273.831 173.006 273.857 172.727 276.38V276.34Z" fill="#221F20"/>
<path d="M176.869 201.211C169.076 198.927 156.238 192.502 158.787 182.385L157.871 183.58C158.907 182.97 159.77 182.638 160.686 182.293C163.474 181.244 166.408 180.527 169.368 180.168C173.975 179.598 178.701 179.783 183.255 180.66C184.596 180.912 185.924 181.217 187.238 181.576C188.619 181.947 190.026 182.638 191.433 182.89C192.482 183.076 193.517 182.452 194.46 182.04C196.903 180.978 199.346 179.903 201.788 178.841C204.231 177.779 202.107 174.38 199.784 175.402C196.836 176.69 193.902 177.965 190.955 179.252L192.495 179.053C184.835 176.385 176.657 175.23 168.585 176.292C164.456 176.836 160.142 177.858 156.438 179.85C154.805 180.726 154.605 182.492 154.486 184.231C154.313 186.793 154.964 189.342 156.159 191.599C158.455 195.887 162.677 198.994 166.859 201.277C169.687 202.817 172.714 204.158 175.807 205.074C178.277 205.791 179.325 201.954 176.869 201.237V201.211Z" fill="#221F20"/>
<path d="M193.305 211.964C193.305 209.215 191.076 206.986 188.326 206.986C185.577 206.986 183.348 209.215 183.348 211.964V221.244C183.348 223.994 185.577 226.223 188.326 226.223C191.076 226.223 193.305 223.994 193.305 221.244V211.964Z" fill="#C5D8E3"/>
<path d="M195.35 195.144C211.48 186.992 230.465 185.492 247.684 190.935C251.242 192.064 254.68 193.471 258.012 195.144C260.296 196.299 262.314 192.86 260.017 191.705C242.891 183.049 222.711 181.31 204.391 187.165C200.594 188.373 196.89 189.913 193.318 191.705C191.035 192.86 193.04 196.299 195.323 195.144H195.35Z" fill="#221F20"/>
<path d="M226.442 181.071C225.951 181.071 225.46 181.071 224.955 181.071C224.517 181.071 224.331 180.899 224.331 180.461C224.331 179.783 224.331 179.106 224.331 178.429C224.331 178.257 224.278 178.19 224.119 178.15C221.769 177.553 219.764 176.372 218.131 174.566C218.038 174.46 217.932 174.354 217.839 174.247C217.56 173.889 217.56 173.65 217.879 173.331C218.304 172.906 218.742 172.508 219.167 172.097C219.605 171.685 220.043 171.26 220.481 170.849C220.972 170.384 221.225 170.371 221.756 170.809C222.406 171.353 223.03 171.924 223.774 172.375C224.942 173.079 226.163 173.411 227.531 173.145C228.633 172.933 229.23 172.243 229.243 171.181C229.243 170.782 229.097 170.477 228.818 170.211C228.261 169.667 227.57 169.349 226.854 169.096C225.406 168.592 223.959 168.074 222.605 167.317C221.397 166.64 220.295 165.83 219.538 164.636C217.56 161.516 218.702 157.613 222.034 155.993C222.658 155.687 223.322 155.449 223.999 155.316C224.265 155.263 224.331 155.156 224.318 154.904C224.305 154.333 224.318 153.749 224.318 153.178C224.318 152.674 224.544 152.461 225.048 152.461C225.951 152.461 226.867 152.461 227.77 152.461C228.314 152.461 228.606 152.753 228.606 153.285C228.606 153.816 228.606 154.347 228.606 154.878C228.606 155.103 228.659 155.183 228.898 155.236C230.81 155.621 232.483 156.471 233.916 157.798C234.647 158.475 234.647 158.807 233.969 159.524C233.253 160.281 232.536 161.038 231.832 161.794C231.407 162.233 231.115 162.259 230.65 161.874C230.106 161.423 229.575 160.971 228.951 160.626C227.955 160.069 226.907 159.909 225.791 160.188C225.539 160.254 225.287 160.347 225.075 160.507C224.397 160.998 224.305 161.94 224.889 162.538C225.274 162.923 225.752 163.162 226.243 163.348C227.358 163.746 228.473 164.118 229.575 164.529C230.81 164.981 232.031 165.498 233.08 166.322C234.487 167.41 235.231 168.831 235.337 170.61C235.523 173.955 233.545 176.372 230.969 177.527C230.292 177.832 229.602 178.058 228.885 178.19C228.686 178.23 228.593 178.297 228.606 178.522C228.619 179.133 228.606 179.744 228.606 180.354C228.606 180.885 228.42 181.071 227.902 181.071C227.411 181.071 226.933 181.071 226.442 181.071Z" fill="url(#paint0_linear_1243_9771)"/>
<path d="M212.369 184.669C206.223 179.73 202.864 172.11 203.82 164.211C204.629 157.586 208.546 151.519 214.215 148.014C226.402 140.473 243.037 146.593 247.272 160.334C249.914 168.884 247.126 178.058 240.461 183.939C238.536 185.638 241.364 188.453 243.276 186.753C250.126 180.699 253.326 171.552 251.879 162.551C250.618 154.732 245.546 147.709 238.603 143.912C231.301 139.916 222.459 139.69 214.905 143.128C207.351 146.567 202.253 153.112 200.421 160.772C198.071 170.623 201.656 181.138 209.555 187.484C211.533 189.077 214.374 186.275 212.369 184.669Z" fill="#221F20"/>
<path d="M289.317 205.805C289.569 205.672 289.835 205.552 290.1 205.433C290.246 205.366 290.406 205.3 290.552 205.234C290.605 205.207 290.366 205.3 290.711 205.167C291.162 204.981 291.627 204.809 292.092 204.65C294.402 203.826 296.831 203.216 299.287 202.99C302.407 202.711 305.607 202.964 308.514 204.172C311.01 205.207 313.28 206.933 313.479 209.827C313.639 212.137 312.311 214.168 310.16 215.005C307.479 216.04 305.368 214.739 304.013 212.403C301.531 208.141 302.951 203.322 305.394 199.406C307.093 196.684 309.284 194.135 311.78 192.077C313.758 190.444 310.93 187.643 308.965 189.263C301.876 195.117 295.225 205.937 300.827 214.846C302.872 218.098 306.111 219.93 309.974 219.2C313.28 218.576 316.095 216.133 317.09 212.921C318.086 209.708 317.037 205.751 314.555 203.322C311.78 200.614 307.598 199.406 303.828 199.034C298.318 198.476 292.238 199.83 287.312 202.393C285.042 203.574 287.047 207.013 289.317 205.831V205.805Z" fill="#221F20"/>
</g>
<defs>
<linearGradient id="paint0_linear_1243_9771" x1="217.627" y1="166.76" x2="235.337" y2="166.76" gradientUnits="userSpaceOnUse">
<stop stop-color="#9BCB9E"/>
<stop offset="1" stop-color="#78C1C4"/>
</linearGradient>
<clipPath id="clip0_1243_9771">
<rect width="185.054" height="163.879" fill="white" transform="translate(132.421 140.726)"/>
</clipPath>
</defs>
</svg>
