<svg width="40" height="40" viewBox="0 0 40 40" fill="none" xmlns="http://www.w3.org/2000/svg">
<rect width="40" height="40" fill="white"/>
<g clip-path="url(#clip0_1202_5256)">
<path d="M18.6115 30.4804C23.8811 30.4804 28.1529 25.9412 28.1529 20.3417C28.1529 14.7423 23.8811 10.2031 18.6115 10.2031C13.3419 10.2031 9.07007 14.7423 9.07007 20.3417C9.07007 25.9412 13.3419 30.4804 18.6115 30.4804Z" fill="#223838"/>
<path d="M20.4169 30.4804C25.6865 30.4804 29.9583 25.9412 29.9583 20.3417C29.9583 14.7423 25.6865 10.2031 20.4169 10.2031C15.1473 10.2031 10.8755 14.7423 10.8755 20.3417C10.8755 25.9412 15.1473 30.4804 20.4169 30.4804Z" fill="#9BC650"/>
<path d="M29.9029 20.3415C29.9029 22.4108 29.3056 24.4525 28.1529 26.1746C27.0696 27.7996 25.5002 29.1051 23.6669 29.8134C21.8336 30.5217 19.7365 30.619 17.8337 30.0356C15.9588 29.4662 14.306 28.2996 13.1116 26.758C11.8478 25.1469 11.1117 23.1469 10.9728 21.1053C10.8339 19.0637 11.2783 16.9249 12.3061 15.1194C13.2783 13.4111 14.7366 11.9945 16.5004 11.1473C18.2921 10.2723 20.3614 10.0223 22.3197 10.4528C24.2224 10.8695 25.9585 11.9111 27.264 13.3555C28.5696 14.7999 29.5001 16.7721 29.7917 18.7721C29.8751 19.2859 29.9029 19.8137 29.9029 20.3415C29.9029 20.4109 30.014 20.4109 30.014 20.3415C30.014 18.2443 29.4029 16.1749 28.2362 14.4249C27.139 12.7861 25.5696 11.4806 23.7225 10.7723C21.8753 10.064 19.7365 9.95285 17.806 10.5362C15.8754 11.1195 14.2366 12.3 13.0144 13.8694C11.7506 15.4944 11.0006 17.4943 10.8617 19.5498C10.7228 21.6053 11.1672 23.7858 12.2089 25.6191C13.195 27.3413 14.681 28.7857 16.4727 29.6468C18.2643 30.5079 20.3614 30.7717 22.3336 30.3551C24.3058 29.9384 26.0418 28.8829 27.3613 27.4107C28.7362 25.883 29.6112 23.9525 29.9029 21.9248C29.9723 21.4109 30.014 20.897 30.014 20.3831C30.014 20.3137 29.9167 20.3137 29.9029 20.3831V20.3415Z" fill="#375D97"/>
<path d="M20.292 18.8142C21.9948 18.8142 23.3752 17.5146 23.3752 15.9115C23.3752 14.3084 21.9948 13.0088 20.292 13.0088C18.5892 13.0088 17.2087 14.3084 17.2087 15.9115C17.2087 17.5146 18.5892 18.8142 20.292 18.8142Z" fill="#223838"/>
<path d="M26.4863 25.6609C26.4863 22.661 23.9169 20.2305 20.7364 20.2305C17.5559 20.2305 14.9866 22.661 14.9866 25.6609C15.3477 26.022 17.6254 28.2303 21.1253 28.0636C24.153 27.9247 26.0557 26.0914 26.5002 25.6609H26.4863Z" fill="#223838"/>
<path d="M21.0974 18.8142C22.8002 18.8142 24.1807 17.5146 24.1807 15.9115C24.1807 14.3084 22.8002 13.0088 21.0974 13.0088C19.3946 13.0088 18.0142 14.3084 18.0142 15.9115C18.0142 17.5146 19.3946 18.8142 21.0974 18.8142Z" fill="white"/>
<path d="M24.1669 15.9109C24.1669 17.133 23.3197 18.1886 22.1809 18.5913C21.042 18.9941 19.6393 18.6747 18.806 17.7303C17.9727 16.7858 17.8893 15.4664 18.5421 14.4387C19.1948 13.4109 20.5281 12.8832 21.7364 13.1193C23.0836 13.3831 24.153 14.522 24.1669 15.9109C24.1669 15.9803 24.278 15.9803 24.278 15.9109C24.278 14.6331 23.4031 13.5359 22.2087 13.1332C21.0142 12.7304 19.5698 13.0637 18.7226 14.0359C17.8754 15.0081 17.7782 16.397 18.4726 17.4525C19.1671 18.508 20.5004 19.0358 21.7503 18.8136C23.1531 18.5636 24.2642 17.3553 24.278 15.9109C24.278 15.8414 24.1808 15.8414 24.1669 15.9109Z" fill="#0565AD"/>
<path d="M27.2917 25.6609C27.2917 22.661 24.7223 20.2305 21.5418 20.2305C18.3614 20.2305 15.792 22.661 15.792 25.6609C16.1531 26.022 18.4308 28.2303 21.9307 28.0636C24.9584 27.9247 26.8611 26.0914 27.3056 25.6609H27.2917Z" fill="white"/>
<path d="M27.3056 25.6751C27.3056 23.4807 25.889 21.5363 23.889 20.6752C21.8196 19.8002 19.3336 20.1475 17.6114 21.6058C16.8059 22.2863 16.2087 23.189 15.9031 24.2029C15.8337 24.4529 15.7781 24.7168 15.7365 24.9807C15.7226 25.1196 15.7087 25.2584 15.6948 25.3973C15.6948 25.4945 15.6531 25.6334 15.6948 25.7168C15.7226 25.7723 15.8059 25.8279 15.8614 25.8834C15.9448 25.9667 16.042 26.0501 16.1392 26.1334C17.6531 27.425 19.6113 28.1889 21.6113 28.1611C23.6112 28.1334 25.5973 27.3 27.0695 25.9251C27.1389 25.8556 27.2084 25.7862 27.2778 25.7306C27.3195 25.689 27.25 25.6056 27.2084 25.6612C26.014 26.8556 24.4446 27.6889 22.7779 27.9667C20.6252 28.3278 18.4308 27.7306 16.6809 26.439C16.4448 26.2723 16.2226 26.0779 16.0003 25.8834C15.9448 25.8279 15.8614 25.7723 15.8059 25.7029C15.7642 25.6473 15.7781 25.6334 15.7781 25.5501C15.7781 25.4112 15.7781 25.2723 15.8059 25.1334C15.917 24.0918 16.3753 23.0918 17.0559 22.3002C18.5142 20.6197 20.8891 19.953 23.014 20.5224C25.139 21.0919 26.7639 22.7446 27.1112 24.8696C27.1528 25.1473 27.1806 25.4251 27.1806 25.689C27.1806 25.7584 27.2917 25.7584 27.2778 25.689L27.3056 25.6751Z" fill="#0565AD"/>
</g>
<defs>
<clipPath id="clip0_1202_5256">
<rect width="20.93" height="20.3745" fill="white" transform="translate(9.07007 10.1475)"/>
</clipPath>
</defs>
</svg>
