<svg width="652" height="652" viewBox="0 0 652 652" fill="none" xmlns="http://www.w3.org/2000/svg">
<rect width="652" height="652" fill="white"/>
<path d="M294.761 324.205C294.761 324.205 107.085 394.11 114.791 397.147C122.497 400.184 258.767 567.364 258.767 567.364L518.43 460.978L294.761 324.205Z" fill="#273738"/>
<path d="M103.614 173.496L319.283 101.543C319.283 101.543 334.625 229.344 370.411 250.829L183.308 337.742C183.308 337.742 127.2 356.885 103.614 173.496Z" fill="#7694CC"/>
<path d="M103.787 174.121L125.324 166.936L176.834 149.754L239.103 128.981L292.92 111.018L310.622 105.118L316.245 103.243C317.009 102.983 318.467 102.809 319.109 102.289C319.196 102.219 319.369 102.202 319.473 102.167L318.658 101.543C320.48 116.624 323.101 131.653 326.068 146.561C331.327 172.958 337.679 199.997 349.341 224.398C354.131 234.411 360.327 245.449 370.098 251.384V250.256L352.795 258.292L310.987 277.712L259.148 301.8L212.376 323.529L185.129 336.18C183.272 337.048 182.439 337.43 180.426 337.586C176.053 337.951 171.627 336.875 167.653 335.087C159.843 331.547 153.491 325.316 148.285 318.635C138.636 306.226 132.11 291.492 126.834 276.792C117.862 251.836 112.343 225.682 108.091 199.563C106.685 190.903 105.436 182.208 104.308 173.496C104.204 172.68 102.902 172.663 103.006 173.496C106.859 203.329 111.979 233.179 120.621 262.023C125.776 279.239 132.18 296.49 141.864 311.727C147.209 320.127 153.752 328.232 162.238 333.629C166.837 336.562 172.131 338.662 177.632 338.94C179.593 339.044 181.815 339.009 183.689 338.298C185.563 337.586 187.247 336.649 188.982 335.833L202.415 329.585L245.542 309.558L298.075 285.157L344.551 263.568L369.594 251.94L370.757 251.402C371.226 251.194 371.139 250.517 370.757 250.274C362.184 245.067 356.543 235.73 352.083 227.018C346.061 215.252 341.705 202.652 337.956 190.018C330.91 166.294 326.034 141.893 322.233 117.457C321.417 112.164 320.619 106.87 319.977 101.56C319.925 101.161 319.595 100.779 319.161 100.935L297.624 108.12L246.114 125.301L183.845 146.075L130.028 164.037L112.326 169.938C109.549 170.858 106.529 171.587 103.856 172.767C103.735 172.819 103.614 172.854 103.492 172.888C102.694 173.149 103.041 174.416 103.839 174.138L103.787 174.121Z" fill="#2B63A8"/>
<path d="M183.308 337.723C183.308 337.723 204.324 332.153 169.701 295.829C135.078 259.505 138.515 211.866 154.672 207.874C170.829 203.883 226.452 195.934 226.452 195.934L267.323 298.658L183.308 337.723Z" fill="#5275BF"/>
<path d="M183.463 338.348C189 336.855 190.891 330.764 189.989 325.644C188.531 317.331 182.7 309.851 177.459 303.534C173.051 298.224 168.052 293.434 163.766 288.002C159.774 282.951 156.268 277.519 153.335 271.792C148.337 262.056 144.901 251.365 143.842 240.449C143.096 232.622 143.339 224.049 146.584 216.742C147.712 214.209 149.274 211.71 151.531 210.043C153.63 208.499 156.234 208.117 158.715 207.579C166.629 205.896 174.613 204.577 182.596 203.258C191.551 201.783 200.523 200.394 209.513 199.04C212.949 198.52 216.386 198.017 219.822 197.513C221.783 197.218 223.866 197.097 225.792 196.646C226.052 196.576 226.347 196.559 226.625 196.524L225.827 196.073L239.641 230.817L261.647 286.145L266.68 298.796L266.975 298.067L238.669 311.222L193.321 332.309L182.943 337.133C182.179 337.48 182.839 338.608 183.602 338.261L211.908 325.106L257.256 304.02L267.635 299.195C267.878 299.091 268.034 298.709 267.93 298.467L254.115 263.722L232.109 208.395L227.076 195.743C226.937 195.379 226.66 195.24 226.278 195.292C213.921 197.062 201.582 198.936 189.243 200.897C180.548 202.286 171.87 203.709 163.228 205.375C158.039 206.382 152.277 206.798 148.615 211.05C144.38 215.944 142.94 222.886 142.419 229.169C141.656 238.558 143.165 248.137 145.925 257.11C149.379 268.304 154.984 278.786 162.152 288.054C169.753 297.876 179.333 306.016 185.338 317.054C187.75 321.479 190.405 327.588 188.167 332.604C187.195 334.773 185.442 336.005 183.481 336.994C183.377 337.046 183.238 337.081 183.116 337.116C182.301 337.341 182.648 338.591 183.463 338.365V338.348Z" fill="#2B63A8"/>
<path d="M154.673 207.875C154.673 207.875 218.071 187.431 223.173 356.138C228.275 524.844 312.134 521.773 312.134 521.773L547.31 441.003C547.31 441.003 450.175 360.233 466.54 217.09C482.906 73.9475 345.889 142.447 345.889 142.447L154.673 207.875Z" fill="#EBF0F8"/>
<path d="M154.846 208.499C156.408 207.996 157.918 207.857 159.515 207.787C163.576 207.579 167.637 208.239 171.472 209.575C177.529 211.675 182.857 215.458 187.335 219.988C194.363 227.069 199.448 235.902 203.457 244.979C209.879 259.54 213.697 275.211 216.456 290.83C220.639 314.607 221.732 338.574 222.773 362.645C223.745 384.911 226.157 407.229 231.329 428.923C235.008 444.334 240.093 459.554 247.521 473.594C252.867 483.695 259.461 493.205 267.618 501.241C273.484 507.02 280.183 512.036 287.542 515.767C292.627 518.335 298.024 520.314 303.612 521.459C306.198 521.997 309.148 522.639 311.804 522.431C313.852 522.275 316.038 521.129 317.947 520.453L339.971 512.886L373.743 501.293L414.527 487.287L456.925 472.727L496.303 459.207L527.282 448.569L545.105 442.442L547.448 441.644C547.865 441.505 548.142 440.898 547.743 440.551C538.962 433.244 531.273 424.341 524.123 415.508C506.473 393.675 492.294 368.962 482.333 342.704C468.275 305.669 463.017 265.77 466.262 226.322C467.078 216.465 468.397 206.694 468.518 196.802C468.605 189.096 468.171 181.356 466.869 173.772C464.978 162.734 461.09 151.748 453.819 143.071C441.826 128.736 422.927 124.605 404.999 125.577C388.686 126.462 372.58 130.871 357.43 136.789C351.355 139.166 346.184 141.683 340.352 143.678L284.505 162.786L207.032 189.304L156.998 206.434L154.517 207.284C153.736 207.562 154.065 208.811 154.864 208.534L190.875 196.212L265.796 170.579L331.328 148.156C337.871 145.917 344.327 143.783 350.644 141.006C363.677 135.279 377.457 130.853 391.497 128.441C408.887 125.456 428.602 125.456 443.77 135.713C464.995 150.065 468.119 178.839 467.095 202.303C466.626 212.907 465.047 223.424 464.474 234.028C463.902 244.632 463.902 255.357 464.561 266.013C465.741 285.155 468.987 304.176 474.297 322.625C482.68 351.729 496.147 379.34 513.762 403.967C523.012 416.896 533.339 429.374 545.192 440.03C545.747 440.533 546.303 441.037 546.893 441.505L547.188 440.412L537.608 443.692L512.409 452.352L476.397 464.726L434.919 478.974L392.625 493.501L354.931 506.447L326.503 516.218C321.887 517.797 317.218 519.307 312.637 520.973C311.89 521.251 312.359 521.147 311.734 521.164C310.745 521.199 309.721 521.077 308.732 520.973C304.358 520.522 300.037 519.429 295.889 517.954C289.121 515.541 282.786 511.983 277.042 507.679C268.92 501.571 262.013 493.917 256.268 485.552C248.268 473.907 242.402 460.891 237.959 447.51C231.642 428.489 228.066 408.6 225.984 388.694C223.363 363.582 223.745 338.296 220.951 313.201C218.903 294.891 215.797 276.53 210.139 258.967C206.529 247.773 201.843 236.683 194.971 227.069C190.58 220.925 185.2 215.337 178.64 211.484C174.301 208.933 169.476 207.215 164.461 206.659C161.563 206.33 158.578 206.382 155.714 206.972C155.315 207.058 154.916 207.145 154.534 207.267C153.736 207.527 154.083 208.777 154.881 208.516L154.846 208.499Z" fill="#2B63A8"/>
<path d="M231.797 235.123L308.541 209.802C308.541 209.802 339.398 260.443 325.149 291.3L248.406 321.359C248.406 321.359 255.522 263.602 231.797 235.123Z" fill="#7694CC"/>
<path d="M231.971 235.746L257.812 227.225L299.238 213.549L308.714 210.426L307.985 210.131C312.914 218.235 316.94 227.017 320.342 235.833C326.191 251.019 331.05 268.859 326.711 285.051C326.312 286.579 325.843 289.269 324.802 290.501C324.715 290.605 324.958 290.57 324.524 290.831C323.691 291.351 322.546 291.612 321.626 291.959L308.922 296.94L272.581 311.171L248.25 320.698L249.066 321.323C249.951 314.138 250.124 306.797 250.055 299.578C249.916 284.999 248.371 270.144 243.755 256.26C241.152 248.467 237.507 241.005 232.249 234.636C231.711 233.993 230.791 234.913 231.329 235.555C240.926 247.201 245.109 262.508 247.156 277.19C248.857 289.355 249.135 301.764 248.371 314.034C248.215 316.464 248.042 318.911 247.747 321.341C247.694 321.74 248.198 322.104 248.562 321.965L307.187 299.005L320.811 293.677L324.438 292.254C325.618 291.785 325.809 291.438 326.364 290.102C332.716 274.639 328.828 256.451 323.657 241.23C319.925 230.28 315.118 219.381 309.096 209.471C308.957 209.228 308.627 209.089 308.367 209.176L282.526 217.697L241.1 231.373L231.624 234.497C230.826 234.757 231.173 236.024 231.971 235.746Z" fill="#2B63A8"/>
<path d="M282.837 267.558C290.485 267.558 296.686 260.122 296.686 250.95C296.686 241.777 290.485 234.341 282.837 234.341C275.188 234.341 268.988 241.777 268.988 250.95C268.988 260.122 275.188 267.558 282.837 267.558Z" fill="#A5C661"/>
<path d="M296.027 250.95C295.958 256.92 293.181 263.254 287.523 265.875C281.866 268.496 275.809 265.875 272.563 260.964C269.092 255.705 268.693 248.555 271.453 242.897C274.021 237.639 279.575 233.803 285.562 235.33C292.435 237.083 295.958 244.355 296.045 250.95C296.045 251.783 297.364 251.783 297.346 250.95C297.259 244.338 294.031 237.309 287.627 234.654C281.675 232.189 275.271 234.827 271.696 239.912C267.669 245.639 267.305 253.657 270.429 259.87C273.24 265.441 279.158 269.311 285.51 267.923C293.164 266.257 297.259 258.239 297.346 250.95C297.346 250.117 296.062 250.117 296.045 250.95H296.027Z" fill="#2B63A8"/>
<path d="M315.83 286.353C311.561 276.704 301.582 269.918 289.954 269.918C274.439 269.918 261.874 281.962 261.874 296.818C261.874 299.803 262.377 302.666 263.314 305.356L315.847 286.353H315.83Z" fill="#A5C661"/>
<path d="M316.384 286.041C311.577 275.472 300.574 268.946 289.016 269.311C278.238 269.641 268.016 275.993 263.556 285.92C260.762 292.133 260.519 299.109 262.671 305.548C262.775 305.86 263.122 306.121 263.469 305.999L309.39 289.391L315.985 286.996C316.766 286.718 316.437 285.451 315.638 285.746L269.717 302.355L263.122 304.75L263.921 305.201C259.339 291.421 267.045 276.774 280.686 272.122C294.326 267.471 309.356 273.719 315.256 286.7C315.604 287.464 316.732 286.805 316.384 286.041Z" fill="#2B63A8"/>
<path d="M436.359 235.001C477.909 235.001 511.592 201.318 511.592 159.767C511.592 118.217 477.909 84.5339 436.359 84.5339C394.809 84.5339 361.126 118.217 361.126 159.767C361.126 201.318 394.809 235.001 436.359 235.001Z" fill="#E0EBC5"/>
<path d="M510.933 159.767C510.812 190.849 491.027 219.346 461.715 229.933C432.454 240.484 398.942 231.338 379.036 207.493C359.13 183.647 356.249 148.035 372.545 121.152C388.737 94.4605 420.74 80.4378 451.354 86.7029C481.412 92.8465 505.171 117.699 510.013 147.983C510.638 151.888 510.916 155.827 510.933 159.784C510.933 160.617 512.235 160.617 512.235 159.784C512.113 128.302 492.19 99.4934 462.6 88.5599C432.645 77.4875 398.005 86.9285 377.752 111.572C357.551 136.147 354.896 171.811 371.417 199.058C387.852 226.184 420.306 240.415 451.406 234.167C482.176 227.989 506.664 202.39 511.367 171.343C511.94 167.507 512.235 163.654 512.252 159.784C512.252 158.951 510.95 158.951 510.95 159.784L510.933 159.767Z" fill="#2B63A8"/>
<path d="M436.724 211.571C464.098 211.571 486.289 189.38 486.289 162.006C486.289 134.632 464.098 112.44 436.724 112.44C409.349 112.44 387.158 134.632 387.158 162.006C387.158 189.38 409.349 211.571 436.724 211.571Z" fill="#A5C661"/>
<path d="M485.63 162.005C485.508 182.362 472.648 201.036 453.419 207.995C434.172 214.955 412.149 208.95 399.064 193.226C385.891 177.399 384.19 154.247 394.864 136.65C405.502 119.104 426.571 109.906 446.668 114.088C469.195 118.774 485.491 139.079 485.63 161.988C485.63 162.821 486.931 162.821 486.931 161.988C486.81 141.127 473.672 122.071 454.026 114.834C434.224 107.545 411.351 113.776 397.953 130.055C384.555 146.316 382.785 169.954 393.736 187.985C404.582 205.878 425.912 215.267 446.442 211.258C466.973 207.249 483.217 190.259 486.341 169.658C486.723 167.107 486.914 164.556 486.931 161.97C486.931 161.137 485.63 161.137 485.63 161.97V162.005Z" fill="#2B63A8"/>
<path d="M410.414 162.146L417.929 155.881L431.726 168.411L456.803 137.068C456.803 137.068 468.709 140.209 468.084 150.865C468.084 150.865 434.867 185.332 432.35 184.082C429.834 182.833 410.414 162.146 410.414 162.146Z" fill="white"/>
<path d="M249.95 358.897L268.503 352.389L313.053 336.787L366.731 317.991L413.138 301.73C420.688 299.092 428.306 296.558 435.821 293.781C435.925 293.747 436.029 293.712 436.133 293.677C438.338 292.896 439.813 290.709 439.171 288.332C438.58 286.18 436.047 284.531 433.825 285.295L415.273 291.803L370.723 307.405L317.044 326.2L270.637 342.462C263.088 345.1 255.469 347.633 247.955 350.41C247.85 350.445 247.746 350.48 247.642 350.514C245.438 351.295 243.963 353.482 244.605 355.86C245.195 358.012 247.729 359.66 249.95 358.897Z" fill="#2B63A8"/>
<path d="M258.454 389.147L277.006 382.639L321.556 367.037L375.235 348.241L421.642 331.98C429.191 329.342 436.81 326.808 444.325 324.031C444.429 323.997 444.533 323.962 444.637 323.927C446.841 323.146 448.316 320.959 447.674 318.582C447.084 316.43 444.55 314.781 442.329 315.545L423.777 322.053L379.227 337.655L325.548 356.45L279.141 372.712C271.592 375.35 263.973 377.883 256.458 380.66C256.354 380.695 256.25 380.73 256.146 380.764C253.942 381.545 252.467 383.732 253.109 386.11C253.699 388.262 256.233 389.91 258.454 389.147Z" fill="#2B63A8"/>
<path d="M266.975 416.55L285.528 410.042L330.077 394.44L383.756 375.645L430.163 359.384C437.712 356.746 445.331 354.212 452.846 351.435C452.95 351.4 453.054 351.366 453.158 351.331C455.362 350.55 456.837 348.363 456.195 345.986C455.605 343.834 453.071 342.185 450.85 342.948L432.298 349.457L387.748 365.059L334.069 383.854L287.662 400.115C280.113 402.753 272.494 405.287 264.979 408.064C264.875 408.099 264.771 408.133 264.667 408.168C262.463 408.949 260.988 411.136 261.63 413.513C262.22 415.665 264.754 417.314 266.975 416.55Z" fill="#2B63A8"/>
<path d="M280.564 447.545L312.549 436.351L363.468 418.511L375.079 414.45C377.699 413.53 376.571 409.347 373.933 410.267L341.948 421.461L291.029 439.302L279.419 443.363C276.798 444.283 277.926 448.465 280.564 447.545Z" fill="#2B63A8"/>
<path d="M375.373 319.571C380.568 319.571 384.78 315.36 384.78 310.165C384.78 304.97 380.568 300.758 375.373 300.758C370.178 300.758 365.967 304.97 365.967 310.165C365.967 315.36 370.178 319.571 375.373 319.571Z" fill="#A5C661"/>
<path d="M384.138 310.165C384.086 313.827 381.83 317.159 378.342 318.409C374.853 319.658 370.948 318.565 368.605 315.719C366.263 312.872 365.985 308.794 367.859 305.67C369.734 302.546 373.43 300.863 377.005 301.557C381.136 302.355 384.069 306 384.138 310.165C384.138 310.998 385.457 310.998 385.44 310.165C385.388 306 382.836 302.251 378.932 300.759C375.027 299.266 370.306 300.498 367.616 303.779C364.926 307.059 364.579 311.692 366.748 315.302C368.918 318.912 373.135 320.786 377.231 320.04C381.986 319.19 385.37 314.92 385.44 310.165C385.44 309.332 384.155 309.332 384.138 310.165Z" fill="#2B63A8"/>
<path d="M427.161 334.477C432.356 334.477 436.567 330.266 436.567 325.071C436.567 319.876 432.356 315.665 427.161 315.665C421.966 315.665 417.755 319.876 417.755 325.071C417.755 330.266 421.966 334.477 427.161 334.477Z" fill="#A5C661"/>
<path d="M435.908 325.071C435.856 328.733 433.6 332.065 430.112 333.315C426.623 334.564 422.718 333.471 420.375 330.625C418.033 327.779 417.755 323.7 419.629 320.576C421.504 317.452 425.2 315.769 428.775 316.463C432.906 317.262 435.839 320.906 435.908 325.071C435.908 325.904 437.227 325.904 437.21 325.071C437.158 320.906 434.607 317.157 430.702 315.665C426.797 314.172 422.076 315.405 419.386 318.685C416.696 321.965 416.349 326.599 418.519 330.208C420.688 333.818 424.905 335.692 429.001 334.946C433.756 334.096 437.14 329.827 437.21 325.071C437.21 324.238 435.925 324.238 435.908 325.071Z" fill="#2B63A8"/>
<path d="M358.141 388.366C363.336 388.366 367.547 384.154 367.547 378.959C367.547 373.764 363.336 369.553 358.141 369.553C352.946 369.553 348.734 373.764 348.734 378.959C348.734 384.154 352.946 388.366 358.141 388.366Z" fill="#A5C661"/>
<path d="M366.888 378.959C366.836 382.621 364.58 385.953 361.091 387.203C357.603 388.452 353.698 387.359 351.355 384.513C349.012 381.667 348.735 377.588 350.609 374.464C352.483 371.341 356.18 369.657 359.755 370.351C363.886 371.15 366.819 374.794 366.888 378.959C366.888 379.792 368.207 379.792 368.19 378.959C368.137 374.794 365.586 371.046 361.681 369.553C357.777 368.06 353.056 369.293 350.366 372.573C347.676 375.853 347.329 380.487 349.498 384.096C351.668 387.706 355.885 389.581 359.981 388.834C364.736 387.984 368.12 383.715 368.19 378.959C368.19 378.126 366.905 378.126 366.888 378.959Z" fill="#2B63A8"/>
</svg>
