<svg width="449" height="448" viewBox="0 0 449 448" fill="none" xmlns="http://www.w3.org/2000/svg">
<rect width="447.401" height="447.401" transform="translate(0.977539 0.0566406)" fill="white"/>
<g clip-path="url(#clip0_1243_9750)">
<path d="M151.327 188.333C151.327 180.229 151.209 172.108 151.327 163.987C151.428 156.605 156.926 150.115 164.374 149.241C168.376 148.77 172.596 149.157 176.615 149.157H190.436C193.681 149.157 193.681 144.113 190.436 144.113H177.859C173.571 144.113 169.217 143.878 164.946 144.147C156.388 144.718 148.822 150.906 146.838 159.312C145.795 163.751 146.283 168.728 146.283 173.251V188.333C146.283 191.578 151.327 191.578 151.327 188.333Z" fill="url(#paint0_linear_1243_9750)"/>
<path d="M290.342 188.333V175.723C290.342 171.435 290.577 167.064 290.308 162.776C289.753 154.218 283.566 146.652 275.159 144.668C270.72 143.625 265.76 144.113 261.254 144.113H246.206C242.961 144.113 242.961 149.157 246.206 149.157C254.293 149.157 262.397 149.039 270.485 149.157C277.866 149.258 284.356 154.756 285.23 162.204C285.701 166.206 285.314 170.443 285.314 174.478V188.333C285.314 191.578 290.358 191.578 290.358 188.333H290.342Z" fill="url(#paint1_linear_1243_9750)"/>
<path d="M144.837 241.161V254.209C144.837 258.648 144.584 263.154 144.87 267.592C145.459 276.453 151.848 284.272 160.557 286.289C165.131 287.348 170.259 286.827 174.916 286.827H190.418C193.663 286.827 193.663 281.783 190.418 281.783C182.045 281.783 173.655 281.901 165.282 281.783C157.413 281.665 150.452 275.596 149.914 267.592C149.645 263.574 149.881 259.471 149.881 255.453V241.161C149.881 237.916 144.837 237.916 144.837 241.161Z" fill="url(#paint2_linear_1243_9750)"/>
<path d="M285.298 242.877C285.298 250.981 285.415 259.102 285.298 267.223C285.197 274.604 279.699 281.094 272.25 281.969C268.249 282.439 264.028 282.053 260.01 282.053H246.189C242.944 282.053 242.944 287.097 246.189 287.097H258.766C263.053 287.097 267.408 287.332 271.679 287.063C280.237 286.508 287.803 280.321 289.787 271.914C290.829 267.475 290.342 262.498 290.342 257.976V242.894C290.342 239.649 285.298 239.649 285.298 242.894V242.877Z" fill="url(#paint3_linear_1243_9750)"/>
<path d="M196.253 201.716C186.82 201.716 177.388 201.767 167.956 201.716C165.467 201.716 163.164 200.724 162.34 198.152C161.886 196.756 162.104 194.991 162.104 193.545V175.605C162.104 172.074 160.927 165.718 164.324 163.365C165.871 162.288 167.72 162.49 169.502 162.49H194.403C196.202 162.49 197.951 162.406 199.464 163.617C201.297 165.08 201.347 167.114 201.347 169.216V188.215C201.347 192.671 202.945 201.464 196.253 201.716C193.025 201.834 193.008 206.878 196.253 206.761C201.381 206.576 205.702 202.944 206.307 197.748C206.492 196.134 206.392 194.47 206.392 192.839V173.083C206.392 171.267 206.442 169.451 206.392 167.635C206.274 163.23 203.634 159.346 199.38 157.934C197.447 157.278 195.328 157.429 193.311 157.429H184.231C178.666 157.429 173.101 157.362 167.535 157.429C163.685 157.48 160.07 159.346 158.254 162.843C157.111 165.012 157.077 167.282 157.077 169.636V188.77C157.077 194.184 156.085 200.64 160.843 204.474C164.996 207.803 171.621 206.744 176.598 206.744H196.27C199.515 206.744 199.515 201.7 196.27 201.7L196.253 201.716Z" fill="#221F20"/>
<path d="M231.394 162.49H265.088C266.736 162.49 268.653 162.271 270.183 162.994C272.739 164.188 273.159 166.626 273.159 169.114V204.255C273.159 207.5 278.203 207.5 278.203 204.255V169.568C278.203 166.895 278.035 164.306 276.454 161.985C274.336 158.858 270.973 157.462 267.291 157.446C261.204 157.412 255.135 157.446 249.048 157.446H231.394C228.149 157.446 228.149 162.49 231.394 162.49Z" fill="#221F20"/>
<path d="M257.169 215.538C247.737 215.538 238.305 215.588 228.872 215.538C226.384 215.538 224.08 214.546 223.256 211.973C222.802 210.578 223.021 208.812 223.021 207.366V189.426C223.021 185.895 221.844 179.54 225.24 177.186C226.787 176.11 228.637 176.312 230.419 176.312H255.32C257.119 176.312 258.868 176.227 260.381 177.438C262.214 178.901 262.264 180.935 262.264 183.037V202.036C262.264 206.492 263.861 215.286 257.169 215.538C253.941 215.655 253.924 220.7 257.169 220.582C262.298 220.397 266.619 216.765 267.224 211.57C267.409 209.956 267.308 208.291 267.308 206.66V186.904C267.308 185.088 267.358 183.272 267.308 181.456C267.19 177.051 264.551 173.167 260.297 171.755C258.363 171.099 256.245 171.251 254.227 171.251H245.148C239.582 171.251 234.017 171.183 228.452 171.251C224.601 171.301 220.986 173.167 219.171 176.665C218.027 178.834 217.994 181.103 217.994 183.457V202.591C217.994 208.005 217.002 214.462 221.76 218.295C225.913 221.624 232.537 220.565 237.514 220.565H257.186C260.431 220.565 260.431 215.521 257.186 215.521L257.169 215.538Z" fill="#221F20"/>
<path d="M262.264 227.458V233.578C262.264 235.529 262.869 238.656 260.162 238.942C257.455 239.228 254.546 238.942 251.806 238.942H235.328C232.016 238.942 228.569 239.211 225.274 238.942C222.718 238.74 223.021 236.453 223.021 234.537V227.458C223.021 224.213 217.977 224.213 217.977 227.458V234.537C217.977 237.647 218.145 240.59 220.953 242.624C223.996 244.827 229.208 243.986 232.756 243.986H250.696C254.143 243.986 257.993 244.474 261.406 243.868C268.989 242.506 267.291 233.057 267.291 227.458C267.291 224.213 262.247 224.213 262.247 227.458H262.264Z" fill="#221F20"/>
<path d="M196.253 271.224C186.82 271.224 177.388 271.275 167.956 271.224C165.467 271.224 163.164 270.232 162.34 267.66C161.886 266.264 162.104 264.499 162.104 263.053V245.113C162.104 241.582 160.927 235.226 164.324 232.872C165.871 231.796 167.72 231.998 169.502 231.998H194.403C196.202 231.998 197.951 231.914 199.464 233.125C201.297 234.587 201.347 236.622 201.347 238.723V257.723C201.347 262.179 202.945 270.972 196.253 271.224C193.025 271.342 193.008 276.386 196.253 276.268C201.381 276.083 205.702 272.452 206.307 267.256C206.492 265.642 206.392 263.978 206.392 262.347V242.591C206.392 240.775 206.442 238.959 206.392 237.143C206.274 232.738 203.634 228.854 199.38 227.442C197.447 226.786 195.328 226.937 193.311 226.937H184.231C178.666 226.937 173.101 226.87 167.535 226.937C163.685 226.988 160.07 228.854 158.254 232.351C157.111 234.52 157.077 236.79 157.077 239.144V258.278C157.077 263.692 156.085 270.148 160.843 273.982C164.996 277.311 171.621 276.252 176.598 276.252H196.27C199.515 276.252 199.515 271.207 196.27 271.207L196.253 271.224Z" fill="#221F20"/>
<path d="M278.186 233.41V212.998C278.186 209.753 273.142 209.753 273.142 212.998V233.41C273.142 236.655 278.186 236.655 278.186 233.41Z" fill="#221F20"/>
<path d="M231.393 276.638H258.345C261.54 276.638 264.751 276.739 267.946 276.638C272.032 276.504 275.714 274.234 277.345 270.417C278.253 268.299 278.185 266.163 278.185 263.927V248.593C278.185 245.348 273.141 245.348 273.141 248.593V261.153C273.141 265.356 273.831 271.342 267.912 271.594C259.287 271.964 250.577 271.594 241.952 271.594H231.41C228.165 271.594 228.165 276.638 231.41 276.638H231.393Z" fill="#221F20"/>
<path d="M158.725 218.362H204.307C207.552 218.362 207.552 213.318 204.307 213.318H158.725C155.48 213.318 155.48 218.362 158.725 218.362Z" fill="#221F20"/>
<path d="M220.43 261.96H266.012C269.257 261.96 269.257 256.916 266.012 256.916H220.43C217.185 256.916 217.185 261.96 220.43 261.96Z" fill="#221F20"/>
<path d="M213.32 276.756H222.819C224.131 276.756 225.409 275.596 225.341 274.234C225.274 272.872 224.232 271.712 222.819 271.712H213.32C212.008 271.712 210.73 272.872 210.797 274.234C210.865 275.596 211.907 276.756 213.32 276.756Z" fill="#221F20"/>
<path d="M271.712 302.75C290.219 302.75 305.222 287.747 305.222 269.24C305.222 250.733 290.219 235.73 271.712 235.73C253.205 235.73 238.203 250.733 238.203 269.24C238.203 287.747 253.205 302.75 271.712 302.75Z" fill="#C5D8E3"/>
<path d="M254.865 270.821C258.009 273.965 261.153 277.109 264.297 280.253C265.323 281.279 266.819 281.128 267.862 280.253C274.637 274.537 281.397 268.82 288.172 263.12C289.148 262.296 290.106 261.489 291.081 260.665C293.57 258.564 289.988 255.016 287.517 257.101C280.741 262.817 273.982 268.534 267.206 274.234C266.231 275.058 265.272 275.865 264.297 276.689H267.862C264.717 273.545 261.573 270.4 258.429 267.256C256.126 264.953 252.561 268.517 254.865 270.821Z" fill="#221F20"/>
</g>
<defs>
<linearGradient id="paint0_linear_1243_9750" x1="147.964" y1="167.4" x2="190.436" y2="167.4" gradientUnits="userSpaceOnUse">
<stop stop-color="#9BCB9E"/>
<stop offset="1" stop-color="#78C1C4"/>
</linearGradient>
<linearGradient id="paint1_linear_1243_9750" x1="246.206" y1="167.383" x2="288.66" y2="167.383" gradientUnits="userSpaceOnUse">
<stop stop-color="#9BCB9E"/>
<stop offset="1" stop-color="#78C1C4"/>
</linearGradient>
<linearGradient id="paint2_linear_1243_9750" x1="146.518" y1="262.834" x2="190.435" y2="262.834" gradientUnits="userSpaceOnUse">
<stop stop-color="#9BCB9E"/>
<stop offset="1" stop-color="#78C1C4"/>
</linearGradient>
<linearGradient id="paint3_linear_1243_9750" x1="246.206" y1="263.827" x2="288.66" y2="263.827" gradientUnits="userSpaceOnUse">
<stop stop-color="#9BCB9E"/>
<stop offset="1" stop-color="#78C1C4"/>
</linearGradient>
<clipPath id="clip0_1243_9750">
<rect width="160.469" height="158.754" fill="white" transform="translate(144.736 143.995)"/>
</clipPath>
</defs>
</svg>
