<svg width="40" height="40" viewBox="0 0 40 40" fill="none" xmlns="http://www.w3.org/2000/svg">
<rect width="40" height="40" fill="white"/>
<g clip-path="url(#clip0_1202_5318)">
<path d="M30.8607 14.1416H9.81936C8.95856 14.1416 8.26074 14.8394 8.26074 15.7002V25.4416C8.26074 26.3024 8.95856 27.0002 9.81936 27.0002H30.8607C31.7215 27.0002 32.4194 26.3024 32.4194 25.4416V15.7002C32.4194 14.8394 31.7215 14.1416 30.8607 14.1416Z" fill="#223838"/>
<path d="M30.8607 13.4922H9.81936C8.95856 13.4922 8.26074 14.19 8.26074 15.0508V24.7922C8.26074 25.653 8.95856 26.3508 9.81936 26.3508H30.8607C31.7215 26.3508 32.4194 25.653 32.4194 24.7922V15.0508C32.4194 14.19 31.7215 13.4922 30.8607 13.4922Z" fill="white"/>
<path d="M30.8607 26.2991H10.209C10.0791 26.2991 9.9492 26.2991 9.80633 26.2991C8.94909 26.2991 8.29966 25.5847 8.29966 24.7404C8.29966 23.7403 8.29966 22.7532 8.29966 21.7531V15.5056C8.29966 15.1159 8.27368 14.7263 8.46851 14.3626C8.75426 13.8171 9.31276 13.5443 9.91023 13.5443H30.7438C31.3023 13.5443 31.8218 13.7651 32.1336 14.2587C32.3804 14.6484 32.3674 15.051 32.3674 15.4796V21.6751C32.3674 22.6882 32.3674 23.7143 32.3674 24.7274C32.3674 25.5847 31.7309 26.2861 30.8607 26.2991C30.7958 26.2991 30.7958 26.403 30.8607 26.403C31.7569 26.403 32.4583 25.6626 32.4713 24.7664C32.4713 24.4417 32.4713 24.13 32.4713 23.8053V15.5056C32.4713 15.1289 32.4972 14.7653 32.3414 14.4016C32.0686 13.7911 31.4582 13.4404 30.8087 13.4404C30.1853 13.4404 29.5748 13.4404 28.9514 13.4404H9.89725C9.33874 13.4404 8.83219 13.6612 8.49449 14.1288C8.22173 14.5315 8.20874 14.9601 8.20874 15.4147V23.6494C8.20874 24.0131 8.20874 24.3768 8.20874 24.7274C8.20874 25.5068 8.72828 26.2081 9.52058 26.364C9.71541 26.403 9.91023 26.39 10.1181 26.39H30.8607C30.8607 26.39 30.9256 26.2861 30.8607 26.2861V26.2991Z" fill="#0565AD"/>
<path d="M20.5998 15.8691L21.6519 19.1293L25.1198 18.6876L25.0809 19.1293L22.3013 21.1425L23.3924 23.961L23.3664 24.3896L20.5998 22.3764L17.8203 24.3896L17.7943 23.961L18.8854 21.1425L16.1058 19.1293L16.0798 18.6876L19.5348 19.1293L20.5998 15.8691Z" fill="#223838"/>
<path d="M20.5997 15.4404L21.6518 18.6876H25.0808L22.3012 20.7008L23.3663 23.9609L20.5997 21.9477L17.8202 23.9609L18.8853 20.7008L16.1057 18.6876H19.5347L20.5997 15.4404Z" fill="#F4AD00"/>
<path d="M23.3922 24.0003L23.3533 23.9744L20.5997 21.9741L17.7942 24.0133V23.9614L18.8592 20.7143L16.0537 18.6751H19.5216L20.5867 15.376L21.6518 18.6751H25.1197L25.0807 18.701L22.3142 20.7013L23.3792 24.0003H23.3922ZM20.5997 21.9352L23.3273 23.9224L22.2752 20.7013L25.0028 18.714H21.6128L20.5737 15.4929L19.5216 18.714H16.1316L18.8722 20.7013L17.8331 23.9224L20.5737 21.9352H20.5997Z" fill="#375D97"/>
<path d="M27.4836 17.9473L28.2889 20.4411L30.9515 20.1163L30.9256 20.4411L28.7954 21.9867L29.6267 24.1688L29.6007 24.4935L27.4836 22.9478L25.3535 24.4935L25.3275 24.1688L26.1588 21.9867L24.0417 20.4411L24.0027 20.1163L26.6653 20.4411L27.4836 17.9473Z" fill="#223838"/>
<path d="M27.4837 17.6094L28.289 20.1162H30.9257L28.7955 21.6618L29.6008 24.1556L27.4837 22.6099L25.3536 24.1556L26.1589 21.6618L24.0417 20.1162H26.6654L27.4837 17.6094Z" fill="#F4AD00"/>
<path d="M25.3146 24.2077V24.1558L26.1329 21.662L23.9768 20.0904H26.6394L27.4577 17.5576L28.276 20.0904H30.9386L30.8997 20.1164L28.7826 21.662L29.6008 24.1947L29.5619 24.1688L27.4447 22.6361L25.2886 24.2077H25.3146ZM24.0807 20.1293L26.1849 21.649L25.3926 24.1168L27.4837 22.5972L29.5749 24.1168L28.7696 21.649L30.8607 20.1293H28.263L27.4707 17.6615L26.6654 20.1293H24.0677H24.0807Z" fill="#375D97"/>
<path d="M13.5859 17.9473L14.3912 20.4411L17.0538 20.1163L17.0279 20.4411L14.8977 21.9867L15.729 24.1688L15.703 24.4935L13.5859 22.9478L11.4558 24.4935L11.4298 24.1688L12.2611 21.9867L10.1439 20.4411L10.105 20.1163L12.7676 20.4411L13.5859 17.9473Z" fill="#223838"/>
<path d="M13.586 17.6094L14.3913 20.1162H17.028L14.8978 21.6618L15.7031 24.1556L13.586 22.6099L11.4559 24.1556L12.2612 21.6618L10.144 20.1162H12.7677L13.586 17.6094Z" fill="#F4AD00"/>
<path d="M11.4169 24.2077V24.1558L12.2352 21.662L10.0791 20.0904H12.7417L13.56 17.5576L14.3783 20.0904H17.0409L17.002 20.1164L14.8848 21.662L15.7031 24.1947L15.6642 24.1688L13.547 22.6361L11.3909 24.2077H11.4169ZM10.183 20.1293L12.2871 21.649L11.4948 24.1168L13.586 22.5972L15.6771 24.1168L14.8719 21.649L16.963 20.1293H14.3653L13.573 17.6615L12.7677 20.1293H10.17H10.183Z" fill="#375D97"/>
</g>
<defs>
<clipPath id="clip0_1202_5318">
<rect width="24.2625" height="13.56" fill="white" transform="translate(8.20874 13.4404)"/>
</clipPath>
</defs>
</svg>
