<svg width="652" height="652" viewBox="0 0 652 652" fill="none" xmlns="http://www.w3.org/2000/svg">
<rect width="652" height="652" fill="white"/>
<path d="M331.681 354.3L301.233 330.471C297.579 327.63 287.29 320.144 282.7 316.571L251.59 292.081C249.59 290.517 247.345 290.501 244.971 291.419L197.976 309.952C192.782 311.99 184.421 315.049 182.09 315.909L134.433 333.119C129.124 335.056 127.987 342.237 132.447 345.695L211.214 406.59C213.171 408.111 215.502 408.113 217.833 407.252L329.695 366.876C335.004 364.939 336.141 357.758 331.681 354.3V354.3Z" fill="#2A4850"/>
<path d="M260.857 121.31C258.553 118.623 255.076 117.411 251.59 118L193.343 127.929L134.433 136.533C129.004 137.323 124.908 141.752 123.843 147.124L113.914 196.767L102 252.367C101.28 255.843 102.343 258.947 104.648 261.633L138.405 301.348L171.5 340.4C174.639 344.063 179.957 345.752 184.738 345.033L244.309 335.767L301.895 327.162C307.396 326.343 312.154 322.03 313.148 316.571L322.414 265.605L333.005 205.371L295.276 161.686L260.857 121.31Z" fill="#2B63A8"/>
<path d="M302.557 316.572L278.067 287.448C275.059 283.913 266.599 274.02 262.843 269.576L237.028 239.791C235.388 237.843 232.914 236.71 230.409 237.143L180.767 245.748C175.269 246.7 166.68 248.02 164.219 248.395L113.914 256.338C108.33 257.175 106.273 263.292 109.943 267.591L174.147 343.71C175.759 345.6 178.32 346.718 180.767 346.357L298.586 328.486C304.17 327.649 306.227 320.871 302.557 316.572V316.572Z" fill="#57ABAF"/>
<path d="M302.557 315.909C292.282 303.871 282.356 292.234 272.109 280.167C260.699 266.733 249.159 253.166 237.69 239.79C235.477 237.216 232.391 235.906 229.086 236.481L219.819 238.467L189.371 243.762C174.526 246.308 159.912 248.152 145.024 250.381L117.224 255.014C114.507 255.417 111.336 255.533 109.281 257.662C106.306 260.725 106.651 265.103 109.281 268.252C119.024 279.859 129.222 291.137 139.067 302.671L172.162 342.386C173.671 344.155 175.043 345.753 177.457 346.357C179.182 346.789 181.042 345.94 182.752 345.695L200.624 343.048L262.181 334.443L287.995 330.471C291.588 329.939 295.021 329.262 298.586 328.486C304.363 327.234 306.121 320.339 302.557 315.909C302.126 315.363 301.464 316.039 301.895 316.571C305.373 320.886 302.464 327.004 297.262 327.824C295.753 328.054 294.137 328.256 292.628 328.486L272.109 331.795L211.876 340.4L188.709 344.371L182.09 345.033C179.259 345.45 176.965 345.421 174.809 343.048C172.079 340.042 169.496 336.873 166.867 333.781L148.995 312.6L113.252 270.9C112.189 269.663 110.977 268.856 109.943 267.59C106.537 263.463 108.568 257.287 113.914 256.338C120.554 255.159 127.117 254.683 133.771 253.69C149.795 251.289 166.124 248.495 182.09 245.748C198.057 243.001 213.752 240.394 229.747 237.805C233.355 237.215 235.592 239.302 237.69 241.776L246.295 251.043C251.541 257.227 256.273 263.392 261.519 269.576C273.433 283.628 285.305 297.929 297.262 311.938L301.895 316.571C302.341 317.104 303.002 316.427 302.557 315.909V315.909Z" fill="#2B63A8"/>
<path d="M522.309 481.386L491.862 457.557C488.207 454.716 477.918 447.23 473.328 443.657L442.219 419.167C440.219 417.603 437.974 417.587 435.6 418.505L388.605 437.038C383.411 439.076 375.05 442.135 372.719 442.995L325.062 460.205C319.753 462.142 318.616 469.323 323.076 472.781L401.843 533.676C403.799 535.197 406.131 535.199 408.462 534.338L520.324 493.962C525.633 492.025 526.77 484.844 522.309 481.386V481.386Z" fill="#2A4850"/>
<path d="M248.281 118.662L198.638 127.267C195.703 127.771 188.335 129.194 183.414 129.914L131.124 137.195C128.117 137.642 125.756 140.168 125.167 143.153L115.9 187.5C114.936 192.388 113.842 199.063 113.252 202.062L103.986 247.734C103.007 252.621 107.008 257.045 111.928 256.338L164.881 248.395C167.888 247.949 175.126 246.613 180.105 245.748L230.409 237.805C233.345 237.3 235.129 234.774 235.705 231.848L244.971 186.176C245.964 181.217 247.705 174.556 248.281 171.614L256.886 127.267C257.864 122.307 253.259 117.812 248.281 118.662V118.662Z" fill="white"/>
<path d="M247.619 118L200.624 125.943C184.534 128.706 168.452 130.863 152.305 133.224C145.151 134.275 137.573 135.31 130.462 136.533C126.612 137.195 124.575 140.173 123.843 143.814L121.857 154.405C118.553 171.044 115.247 187.408 111.928 204.048L106.633 231.848L103.986 244.424C103.368 247.547 102.593 250.164 104.647 253.029C106.917 256.181 110.452 256.842 113.914 256.338L124.505 254.352L154.952 250.381C169.778 248.222 184.546 245.633 199.3 243.1L227.1 237.805C230.102 237.287 233.146 237.273 235.043 234.495C236.465 232.394 236.54 228.985 237.028 226.552C240.677 208.215 243.97 189.952 247.619 171.614C250.564 156.817 254.199 142.107 256.886 127.267C257.877 121.797 253.107 117.251 247.619 118C246.929 118.101 247.606 119.425 248.281 119.324C252.863 118.69 256.309 122.718 255.562 127.267C255.461 127.871 255.677 127.986 255.562 128.59L252.914 139.843L247.619 167.643C244.444 183.649 241.527 199.97 238.352 215.962L235.705 227.876C234.986 231.503 234.057 235.401 229.747 236.481C227.851 236.956 226.377 237.474 224.452 237.805L210.552 239.79C194.621 242.525 178.884 245.387 162.895 247.733L113.252 255.014C112.649 255.101 111.87 255.633 111.267 255.676C106.856 256.007 103.944 252.023 104.647 247.733C105.007 245.574 105.54 243.259 105.971 241.114L111.267 211.99C114.255 197.006 117.56 181.979 120.533 166.981C122.099 159.079 123.543 151.04 125.167 143.152C125.928 139.468 128.309 137.699 131.786 137.195L141.714 135.871C159.355 133.295 177.069 131.354 194.667 128.59C210.842 126.043 226.853 122.749 242.986 119.986L248.281 119.324C248.956 119.209 248.294 117.885 247.619 118V118Z" fill="#2B63A8"/>
<path d="M330.357 202.724L266.814 128.591C262.874 123.973 255.302 125.93 254.238 131.9L246.957 174.262C246.569 176.391 245.46 181.04 244.971 183.529L235.043 233.172C234.611 235.33 235.605 237.46 237.028 239.129L262.843 269.576C266.007 273.274 273.406 282.34 276.081 285.462L301.233 314.586C305.174 319.204 312.745 317.247 313.809 311.276L332.343 208.681C332.731 206.552 331.752 204.364 330.357 202.724V202.724Z" fill="#57ABAF"/>
<path d="M330.357 202.724L306.529 173.6L271.448 133.224C268.507 129.752 265.445 124.517 260.195 125.281C256.336 125.843 254.222 128.946 253.576 132.562L251.59 142.49C248.965 157.111 246.545 171.613 243.648 186.176C240.563 201.705 237.264 216.938 234.381 232.509C233.793 235.65 235.063 238.148 237.029 240.452L244.309 249.057L260.857 268.914C271.515 281.432 282.632 294.125 293.29 306.643L299.909 314.586C302.319 317.409 305.504 318.731 309.176 317.233C313.982 315.274 314.344 309.712 315.133 305.319L324.4 253.69L332.343 210.005C332.845 207.239 332.179 205.057 330.357 202.724C329.927 202.176 329.265 202.838 329.695 203.386C332.578 207.059 330.441 213.123 329.695 217.286L325.724 240.452L315.795 295.39L313.148 310.614C312.559 313.884 310.748 316.254 307.19 316.571C303.633 316.888 301.284 314.344 299.248 311.938C288.503 299.305 277.558 286.857 266.814 274.209C256.988 262.657 247.502 251.343 237.69 239.79C236.701 238.624 235.977 237.389 235.705 235.819C235.504 234.623 235.475 233.662 235.705 232.509L237.69 223.243L242.986 195.443C245.539 182.594 247.957 169.959 250.267 157.052L254.9 133.224C255.086 132.215 255.088 130.851 255.562 129.914C256.968 127.062 260.478 125.668 263.505 126.605C265.456 127.195 266.242 128.445 267.476 129.914L297.262 164.995L327.709 201.4L329.695 203.386C330.14 203.919 330.802 203.242 330.357 202.724V202.724Z" fill="#2B63A8"/>
<path d="M377.352 237.805C373.843 237.359 370.934 238.983 368.747 241.776L332.343 288.11L293.952 333.781C290.472 338.014 290.471 344.311 293.29 349.005L319.105 392.691L348.228 441.672C350.026 444.738 352.648 446.521 356.171 446.967L407.8 453.586L458.767 460.205C463.556 460.824 468.279 458.653 471.343 454.91L509.733 408.576L546.8 362.905C550.309 358.614 550.41 353.051 547.462 348.343L519.662 303.995L487.228 251.705L430.305 244.424L377.352 237.805V237.805Z" fill="#2B63A8"/>
<path d="M539.519 354.3L501.129 349.005C496.535 348.413 483.704 347.123 477.962 346.357L439.571 341.062C437.059 340.73 434.517 341.702 432.952 343.71L401.843 383.424C398.412 387.829 392.817 394.727 391.252 396.662L358.819 436.376C355.245 440.767 357.868 447.568 363.452 448.291L462.076 460.867C464.531 461.185 467.131 460.14 468.695 458.219L544.152 366.214C547.727 361.823 545.103 355.022 539.519 354.3Z" fill="white"/>
<path d="M539.519 353.638C523.804 351.621 508.224 349.741 492.524 347.681C475.055 345.39 457.054 342.619 439.571 340.4C436.221 339.982 433.684 341.087 431.628 343.71L425.671 351.652L406.476 376.143C397.174 388.044 388.237 399.525 378.676 411.224L360.805 433.067C359.065 435.199 356.934 437.394 356.833 440.348C356.675 444.627 360.06 447.743 364.114 448.29C379.139 450.322 394.099 452.317 409.124 454.248L460.09 460.867C462.29 461.155 464.596 461.242 466.709 460.205C468.392 459.384 469.531 457.631 470.681 456.233L481.933 442.333L520.986 394.676C528.721 385.21 537.352 375.911 544.814 366.214C548.452 361.489 545.399 354.575 539.519 353.638C538.843 353.537 538.829 354.199 539.519 354.3C544.939 355.164 546.812 361.345 543.49 365.552C542.541 366.748 541.806 368.342 540.843 369.524L526.943 385.41L488.552 433.067L473.328 450.938L469.357 456.233C467.545 458.452 465.239 459.86 462.076 459.543C458.122 459.154 454.778 458.723 450.824 458.219L423.024 454.91L368.747 447.629C367.094 447.412 365.768 447.197 364.114 446.967C358.924 446.203 356.174 440.684 359.481 436.376C363.578 431.016 367.787 425.706 372.057 420.49C382.351 407.884 393.145 395.585 403.167 382.762C413.13 370.011 422.859 357.021 432.952 344.371C434.591 342.311 436.911 341.464 439.571 341.724C440.261 341.796 440.867 341.637 441.557 341.724L453.471 343.71C461.508 344.776 469.939 345.291 477.962 346.357C496.236 348.778 514.626 351.29 532.9 353.638L539.519 354.3C540.209 354.386 540.195 353.725 539.519 353.638V353.638Z" fill="#2B63A8"/>
<path d="M366.762 244.424L334.99 284.138C333.142 286.476 328.9 292.223 325.724 296.053L291.305 337.091C289.356 339.429 289.731 342.437 291.305 345.034L314.471 383.424C317.041 387.67 320.193 394.066 321.752 396.662L346.243 436.376C348.798 440.622 354.319 440.868 357.495 437.038L391.914 396C393.863 393.662 398.063 388.045 401.181 384.086L432.952 344.372C434.8 342.034 434.483 338.968 432.952 336.429L409.786 296.715C407.187 292.397 403.373 286.03 401.843 283.476L378.676 245.086C376.078 240.769 369.88 240.48 366.762 244.424V244.424Z" fill="#CCE7A0"/>
<path d="M365.438 243.762L336.314 281.49C326.217 294.333 315.619 307.282 305.205 319.881C300.581 325.469 295.842 330.783 291.305 336.429C288.827 339.532 288.698 343.125 290.643 346.357L296.6 355.624C305.329 370.147 313.686 384.786 322.414 399.31L336.976 423.138L343.595 433.729C345.194 436.401 346.873 439.586 350.214 440.348C354.002 441.21 356.572 439.077 358.819 436.376L365.438 427.771L385.295 403.943C394.845 392.393 403.834 380.642 413.095 368.862L430.967 347.019C432.94 344.505 434.867 341.92 434.276 338.414C433.858 335.915 431.572 333.936 430.305 331.795C420.683 315.763 411.479 299.508 401.843 283.476C394.137 270.648 386.685 257.727 378.676 245.086C375.781 240.517 369.614 239.567 366.1 243.762C365.653 244.293 366.315 244.955 366.762 244.424C369.383 241.292 373.882 241.249 376.69 244.424C377.281 245.085 377.553 245.648 378.014 246.41L383.971 255.676L398.533 280.829C406.83 294.648 415.389 308.047 423.686 321.867L430.305 333.119C432.177 336.236 434.393 339.269 432.29 343.048C431.253 344.901 429.63 346.676 428.319 348.343L420.376 358.933C410.38 371.647 400.242 384.193 389.929 396.662L357.495 435.714C357.121 436.174 357.251 436.607 356.833 437.038C353.967 440.041 348.648 439.795 346.243 436.376C344.99 434.609 344.042 432.934 342.933 431.081L327.709 405.929C319.874 392.87 312.378 379.273 304.543 366.214C300.308 359.161 295.511 352.116 291.305 345.033C289.389 341.801 290.367 339.158 292.629 336.429L298.586 329.148C309.936 315.428 321.137 301.958 332.343 288.11C342.713 275.31 353.269 262.001 363.452 249.057L366.762 244.424C367.18 243.878 365.87 243.216 365.438 243.762V243.762Z" fill="#2B63A8"/>
<path d="M484.581 251.705L387.281 239.129C381.264 238.352 377.452 245.231 380.662 250.381L403.167 286.124C404.304 287.951 407.152 292.556 408.462 294.729L434.276 338.415C435.413 340.299 437.384 341.451 439.572 341.724L478.624 346.357C483.46 346.976 495.717 348.487 499.805 349.005L538.195 354.3C544.212 355.077 548.024 348.198 544.814 343.048L489.876 255.015C488.739 253.187 486.711 251.978 484.581 251.705V251.705Z" fill="#CCE7A0"/>
<path d="M484.581 251.043L447.514 246.41L393.9 239.129C389.358 238.54 384.068 236.993 380.662 241.114C378.118 244.202 378.693 247.898 380.662 251.043L385.957 259.648C393.775 272.171 401.535 284.71 409.124 297.376C417.215 310.876 425.365 324.353 433.614 337.752C435.238 340.409 437.287 341.336 440.233 341.724L450.824 343.048L476.638 346.357C492.821 348.44 509.436 350.894 525.619 352.976L536.209 354.3C539.917 354.774 543.651 353.976 545.476 350.329C547.847 345.575 543.905 340.925 541.505 337.091L513.705 292.743L490.538 255.676C489.086 253.364 487.427 251.517 484.581 251.043C483.905 250.928 483.229 251.59 483.919 251.705C486.793 252.179 488.482 254.098 489.876 256.338L493.186 262.295L505.762 281.491L535.548 329.148L543.49 342.386C545.129 345.014 545.502 347.6 543.49 350.329C541.09 353.574 537.63 353.407 534.224 352.976C517.811 350.865 501.655 348.468 485.243 346.357C470.21 344.433 455.266 343.001 440.233 341.062C437.46 340.703 435.051 338.841 433.614 336.429L429.643 329.148L415.081 305.319C408.369 294.132 401.46 282.634 394.562 271.562L381.324 251.043C380.964 250.468 380.964 249.66 380.662 249.057C379.081 245.869 380.162 242.104 383.309 240.452C385.25 239.433 387.255 239.518 389.267 239.79L434.276 245.748L481.271 251.705H484.581C485.271 251.791 485.256 251.129 484.581 251.043V251.043Z" fill="#2B63A8"/>
<path d="M204.595 149.772C209.577 154.844 211.805 161.114 211.214 168.967C210.552 177.736 207.29 184.365 201.286 188.162C195.282 191.959 187.161 193.526 177.457 192.795L176.133 204.71L166.205 204.048L166.867 184.191H170.838C179.491 184.835 186.275 184.34 191.357 182.205C196.44 180.07 199.444 175.226 199.962 168.305C200.336 163.29 198.913 159.557 195.99 156.391C193.068 153.238 188.742 151.497 183.414 151.095C178.087 150.694 173.488 151.84 170.176 154.405C166.865 156.97 165.241 160.166 164.881 164.995L153.629 164.334C154.003 159.318 155.613 154.721 158.262 151.095C160.911 147.47 164.36 144.915 168.852 143.153C173.33 141.39 178.389 140.737 184.076 141.167C192.729 141.812 199.628 144.699 204.595 149.772ZM163.557 227.214C162.103 225.595 161.413 223.435 161.571 221.257C161.73 219.079 162.534 217.338 164.219 215.962C165.904 214.586 167.901 214.466 170.176 214.638C172.451 214.81 174.06 215.681 175.471 217.286C176.882 218.905 177.63 220.417 177.457 222.581C177.284 224.745 176.451 226.486 174.809 227.876C173.168 229.266 171.041 230.034 168.852 229.862C166.664 229.69 165.026 228.834 163.557 227.214V227.214Z" fill="#57ABAF"/>
<path d="M490.538 381.438C493.564 387.283 493.937 393.436 491.2 399.972C488.146 407.27 483.74 411.77 477.3 413.21C470.86 414.649 463.281 413.442 454.795 409.9L450.162 419.829L440.895 415.857L447.514 399.31L450.824 400.634C458.388 403.801 464.861 404.893 470.019 404.605C475.177 404.303 478.865 401.787 481.271 396C483.015 391.825 483.015 387.671 481.271 384.086C479.543 380.501 476.673 377.439 472.005 375.481C467.265 373.494 462.455 373.624 458.767 374.819C455.078 376.014 452.509 378.069 450.824 382.1L440.895 378.129C442.639 373.954 445.452 371.165 448.838 368.862C452.224 366.559 456.229 365.049 460.752 364.891C465.262 364.732 469.682 365.465 474.652 367.538C482.216 370.705 487.498 375.593 490.538 381.438V381.438ZM432.29 435.053C431.44 433.224 431.541 431.571 432.29 429.757C433.04 427.943 434.36 426.463 436.262 425.786C438.164 425.109 440.231 424.951 442.219 425.786C444.207 426.621 445.369 427.943 446.19 429.757C446.997 431.571 446.94 433.915 446.19 435.714C445.441 437.514 444.078 438.319 442.219 439.024C440.361 439.715 438.178 439.816 436.262 439.024C434.346 438.232 433.14 436.881 432.29 435.053Z" fill="#CCE7A0"/>
</svg>
