<svg width="40" height="40" viewBox="0 0 40 40" fill="none" xmlns="http://www.w3.org/2000/svg">
<rect width="40" height="40" fill="white"/>
<g clip-path="url(#clip0_1202_5096)">
<path d="M18.9754 30.0218C23.7047 30.0218 27.5386 25.8364 27.5386 20.6735C27.5386 15.5106 23.7047 11.3252 18.9754 11.3252C14.246 11.3252 10.4121 15.5106 10.4121 20.6735C10.4121 25.8364 14.246 30.0218 18.9754 30.0218Z" fill="#7A9B3D"/>
<path d="M18.9752 30.0333C14.2528 30.0333 10.3999 25.8302 10.3999 20.6729C10.3999 15.5156 14.2407 11.3125 18.9752 11.3125C23.7098 11.3125 27.5506 15.5156 27.5506 20.6729C27.5506 25.8302 23.6977 30.0333 18.9752 30.0333ZM18.9752 11.3487C14.2648 11.3487 10.4361 15.5277 10.4361 20.6729C10.4361 25.8181 14.2648 29.997 18.9752 29.997C23.6856 29.997 27.5143 25.8181 27.5143 20.6729C27.5143 15.5277 23.6856 11.3487 18.9752 11.3487Z" fill="#0565AD"/>
<path d="M20.1225 30.1059C24.8919 30.1059 28.7582 25.8827 28.7582 20.6731C28.7582 15.4635 24.8919 11.2402 20.1225 11.2402C15.3532 11.2402 11.4868 15.4635 11.4868 20.6731C11.4868 25.8827 15.3532 30.1059 20.1225 30.1059Z" fill="#AACD76"/>
<path d="M20.1228 30.1305C15.352 30.1305 11.4629 25.8911 11.4629 20.6855C11.4629 15.4799 15.352 11.2285 20.1228 11.2285C24.8935 11.2285 28.7826 15.4679 28.7826 20.6735C28.7826 25.879 24.9056 30.1184 20.1228 30.1184V30.1305ZM20.1228 11.2527C15.3641 11.2527 11.4991 15.4799 11.4991 20.6735C11.4991 25.867 15.3641 30.0942 20.1228 30.0942C24.8815 30.0942 28.7464 25.867 28.7464 20.6735C28.7464 15.4799 24.8815 11.2527 20.1228 11.2527Z" fill="#0565AD"/>
<path d="M27.1278 15.0204C26.6688 15.3948 26.0891 15.6243 25.4731 15.6243C23.9513 15.6243 22.7073 14.2715 22.7073 12.6169C22.7073 12.3149 22.7435 12.0251 22.8281 11.7473C22.8401 11.6869 24.362 12.3028 25.2316 13.0034C26.1012 13.716 26.7171 14.4527 27.1278 15.0204Z" fill="#223838"/>
<path d="M25.8233 15.2619C27.3442 15.2619 28.5771 13.9154 28.5771 12.2545C28.5771 10.5935 27.3442 9.24707 25.8233 9.24707C24.3025 9.24707 23.0696 10.5935 23.0696 12.2545C23.0696 13.9154 24.3025 15.2619 25.8233 15.2619Z" fill="#AACD76"/>
<path d="M25.8233 15.2868C24.2894 15.2868 23.0454 13.934 23.0454 12.2552C23.0454 10.5764 24.2894 9.22363 25.8233 9.22363C27.3572 9.22363 28.6013 10.5764 28.6013 12.2552C28.6013 13.934 27.3572 15.2868 25.8233 15.2868ZM25.8233 9.25987C24.3136 9.25987 23.0816 10.6005 23.0816 12.2552C23.0816 13.9099 24.3136 15.2505 25.8233 15.2505C27.3331 15.2505 28.565 13.9099 28.565 12.2552C28.565 10.6005 27.3331 9.25987 25.8233 9.25987Z" fill="#0565AD"/>
<path d="M26.1977 15.2982C27.7386 15.2982 28.9877 13.9355 28.9877 12.2546C28.9877 10.5736 27.7386 9.21094 26.1977 9.21094C24.6568 9.21094 23.4077 10.5736 23.4077 12.2546C23.4077 13.9355 24.6568 15.2982 26.1977 15.2982Z" fill="#DCEAC0"/>
<path d="M26.1978 15.3106C24.6519 15.3106 23.3958 13.9338 23.3958 12.2549C23.3958 10.5761 24.6519 9.19922 26.1978 9.19922C27.7438 9.19922 28.9999 10.564 28.9999 12.2549C28.9999 13.9458 27.7438 15.3106 26.1978 15.3106ZM26.1978 9.23545C24.6639 9.23545 23.432 10.5882 23.432 12.2549C23.432 13.9217 24.676 15.2865 26.1978 15.2865C27.7196 15.2865 28.9637 13.9338 28.9637 12.2549C28.9637 10.5761 27.7196 9.23545 26.1978 9.23545Z" fill="#0565AD"/>
<path d="M18.7096 21.8809C18.8787 22.062 19.0357 22.2432 19.1927 22.4123C19.7966 23.0766 20.3764 23.765 20.9561 24.4535C21.3305 24.9003 21.7049 25.3593 22.0793 25.8183C22.1518 25.9028 22.2001 25.9874 22.1518 26.1081C22.0914 26.2289 22.0069 26.2531 21.8861 26.2531C21.4271 26.2531 20.9802 26.2531 20.5213 26.2531C20.4126 26.2531 20.328 26.2168 20.2677 26.1323C19.6034 25.3351 18.927 24.538 18.2386 23.7529C17.7313 23.1732 17.2119 22.5814 16.6805 22.0258C16.5718 21.905 16.5114 21.7842 16.5235 21.6272C16.5235 21.3857 16.5235 21.132 16.5235 20.8905C16.5235 20.661 16.608 20.5764 16.8496 20.5764C17.1636 20.5764 17.4777 20.5764 17.7917 20.5764C18.311 20.5644 18.8304 20.4798 19.2893 20.202C19.5792 20.0209 19.7966 19.7672 19.9053 19.4411C19.9295 19.3566 19.9295 19.3324 19.8328 19.3324C18.8425 19.3324 17.84 19.3324 16.8496 19.3324C16.608 19.3324 16.5356 19.26 16.5356 19.0184C16.5356 18.8131 16.5356 18.6077 16.5356 18.3903C16.5356 18.1729 16.608 18.1005 16.8375 18.1005C17.7917 18.1005 18.7458 18.1005 19.7 18.1005C19.7241 18.1005 19.7483 18.1005 19.7725 18.1005C19.8328 18.1005 19.8449 18.0763 19.8087 18.028C19.6879 17.8348 19.5309 17.6777 19.3256 17.569C18.9512 17.3637 18.5526 17.2792 18.1299 17.2671C17.7071 17.255 17.2844 17.2671 16.8617 17.2671C16.608 17.2671 16.5356 17.1825 16.5356 16.941C16.5356 16.6511 16.5356 16.3733 16.5356 16.0835C16.5356 15.8902 16.6201 15.8057 16.8134 15.8057C18.8425 15.8057 20.8715 15.8057 22.9006 15.8057C23.0939 15.8057 23.1784 15.8902 23.1905 16.0714C23.1905 16.3009 23.1905 16.5303 23.1905 16.7719C23.1905 16.9651 23.106 17.0376 22.9127 17.0376C22.3934 17.0376 21.8619 17.0376 21.3426 17.0376C21.3184 17.0376 21.2701 17.0255 21.258 17.0376C21.2339 17.0738 21.2822 17.098 21.2943 17.1222C21.4754 17.3879 21.6083 17.6777 21.6808 17.9918C21.6928 18.0763 21.7291 18.1005 21.8136 18.1005C22.188 18.1005 22.5504 18.1005 22.9248 18.1005C23.1301 18.1005 23.2147 18.1729 23.2147 18.3783C23.2147 18.6077 23.2147 18.8372 23.2147 19.0667C23.2147 19.2479 23.1301 19.3324 22.949 19.3324C22.5745 19.3324 22.2001 19.3324 21.8257 19.3324C21.7532 19.3324 21.7291 19.3445 21.717 19.417C21.5962 20.0812 21.2822 20.6368 20.7749 21.0716C20.328 21.4461 19.8087 21.6755 19.229 21.7963C19.0719 21.8325 18.9149 21.8567 18.7338 21.8929L18.7096 21.8809Z" fill="#223838"/>
<path d="M19.7965 21.8809C19.9656 22.062 20.1226 22.2432 20.2796 22.4123C20.8835 23.0766 21.4633 23.765 22.043 24.4535C22.4174 24.9003 22.7918 25.3593 23.1663 25.8183C23.2387 25.9028 23.287 25.9874 23.2387 26.1081C23.1783 26.2289 23.0938 26.2531 22.973 26.2531C22.514 26.2531 22.0672 26.2531 21.6082 26.2531C21.4995 26.2531 21.415 26.2168 21.3546 26.1323C20.6903 25.3351 20.0139 24.538 19.3255 23.7529C18.8182 23.1732 18.2989 22.5814 17.7674 22.0258C17.6587 21.905 17.5983 21.7842 17.6104 21.6272C17.6104 21.3857 17.6104 21.132 17.6104 20.8905C17.6104 20.661 17.695 20.5764 17.9365 20.5764C18.2505 20.5764 18.5646 20.5764 18.8786 20.5764C19.3979 20.5644 19.9173 20.4798 20.3763 20.202C20.6661 20.0209 20.8835 19.7672 20.9922 19.4411C21.0164 19.3566 21.0164 19.3324 20.9198 19.3324C19.9294 19.3324 18.9269 19.3324 17.9365 19.3324C17.695 19.3324 17.6225 19.26 17.6225 19.0184C17.6225 18.8131 17.6225 18.6077 17.6225 18.3903C17.6225 18.1729 17.695 18.1005 17.9244 18.1005C18.8786 18.1005 19.8327 18.1005 20.7869 18.1005C20.8111 18.1005 20.8352 18.1005 20.8594 18.1005C20.9198 18.1005 20.9318 18.0763 20.8956 18.028C20.7748 17.8348 20.6178 17.6777 20.4125 17.569C20.0381 17.3637 19.6395 17.2792 19.2168 17.2671C18.794 17.255 18.3713 17.2671 17.9486 17.2671C17.695 17.2671 17.6225 17.1825 17.6225 16.941C17.6225 16.6511 17.6225 16.3733 17.6225 16.0835C17.6225 15.8902 17.707 15.8057 17.9003 15.8057C19.9294 15.8057 21.9585 15.8057 23.9876 15.8057C24.1808 15.8057 24.2653 15.8902 24.2774 16.0714C24.2774 16.3009 24.2774 16.5303 24.2774 16.7719C24.2774 16.9651 24.1929 17.0376 23.9996 17.0376C23.4803 17.0376 22.9489 17.0376 22.4295 17.0376C22.4053 17.0376 22.357 17.0255 22.345 17.0376C22.3208 17.0738 22.3691 17.098 22.3812 17.1222C22.5624 17.3879 22.6952 17.6777 22.7677 17.9918C22.7798 18.0763 22.816 18.1005 22.9005 18.1005C23.275 18.1005 23.6373 18.1005 24.0117 18.1005C24.217 18.1005 24.3016 18.1729 24.3016 18.3783C24.3016 18.6077 24.3016 18.8372 24.3016 19.0667C24.3016 19.2479 24.217 19.3324 24.0359 19.3324C23.6615 19.3324 23.287 19.3324 22.9126 19.3324C22.8402 19.3324 22.816 19.3445 22.8039 19.417C22.6831 20.0812 22.3691 20.6368 21.8618 21.0716C21.415 21.4461 20.8956 21.6755 20.3159 21.7963C20.1589 21.8325 20.0018 21.8567 19.8207 21.8929L19.7965 21.8809Z" fill="white"/>
</g>
<defs>
<clipPath id="clip0_1202_5096">
<rect width="18.6" height="20.931" fill="white" transform="translate(10.3999 9.19922)"/>
</clipPath>
</defs>
</svg>
