<svg width="652" height="652" viewBox="0 0 652 652" fill="none" xmlns="http://www.w3.org/2000/svg">
<rect width="652" height="652" fill="white"/>
<path d="M473.245 501.779L198.563 516.473L229.121 563.815L501.641 550.715L473.245 501.779Z" fill="#273738"/>
<path d="M429.646 409.862L232.985 518.511L155.781 342.583C152.019 333.997 155.424 323.952 163.646 319.404L329.034 228.013C338.006 223.058 349.327 226.859 353.446 236.243L429.646 409.845V409.862Z" fill="#819B4B"/>
<path d="M429.323 409.318L409.728 420.144L362.674 446.139L305.967 477.48L256.938 504.561L240.714 513.521L235.692 516.303C234.943 516.711 233.615 517.152 233.019 517.78C232.951 517.864 232.781 517.915 232.679 517.966L233.547 518.187L228.814 507.395L216.659 479.686L200.384 442.593L183.037 403.057L167.971 368.73L158.25 346.569C157.637 345.195 157.024 343.82 156.428 342.429C152.989 334.352 155.832 324.833 163.459 320.251C167 318.13 170.694 316.247 174.321 314.245L201.099 299.448L236.85 279.697L274.643 258.809L306.869 241.009L326.515 230.15C327.468 229.624 328.422 229.081 329.375 228.571C338.108 223.905 348.85 227.638 352.919 236.597C354.707 240.551 356.409 244.539 358.145 248.509L370.692 277.101L387.171 314.652L404.451 354.018L419.074 387.361L427.893 407.435L429.101 410.183C429.425 410.93 430.531 410.285 430.208 409.539L425.288 398.323L412.792 369.833L396.194 332.027L378.744 292.271L363.917 258.487L355.115 238.413C354.451 236.886 353.821 235.291 352.953 233.866C348.22 226.077 338.04 223.074 329.783 226.943C325.851 228.792 322.106 231.134 318.309 233.238L291.139 248.238L254.759 268.345L216.846 289.284L184.535 307.135L165.536 317.638C163.783 318.605 162.029 319.522 160.463 320.811C153.926 326.173 151.985 335.268 155.254 342.955C157.007 347.061 158.846 351.134 160.633 355.223L173.35 384.205L190.085 422.333L207.517 462.056L222.345 495.84L231.215 516.049L232.423 518.815C232.56 519.137 233.019 519.188 233.292 519.035L252.886 508.209L299.94 482.214L356.647 450.873L405.676 423.792L421.9 414.833C424.403 413.441 427.246 412.237 429.595 410.574C429.697 410.506 429.816 410.455 429.935 410.387C430.65 409.997 430.004 408.894 429.289 409.284L429.323 409.318Z" fill="#2B63A8"/>
<path d="M306.308 291.457C326.335 291.457 342.569 275.275 342.569 255.314C342.569 235.353 326.335 219.172 306.308 219.172C286.282 219.172 270.047 235.353 270.047 255.314C270.047 275.275 286.282 291.457 306.308 291.457Z" fill="#2B63A8"/>
<path d="M340.798 246.406C344.407 260.778 338.755 276.253 326.396 284.636C314.037 293.018 297.455 292.73 285.402 284.042C273.298 275.32 267.919 259.455 272.175 245.184C276.431 230.914 289.471 220.665 304.333 219.834C321.187 218.9 336.457 230.218 340.798 246.389C341.003 247.187 342.245 246.847 342.024 246.05C338.074 231.355 325.392 220.326 310.155 218.714C294.629 217.068 279.308 225.773 272.805 239.907C266.37 253.855 269.451 270.806 280.482 281.564C291.514 292.322 308.572 295.071 322.481 288.352C338.177 280.767 346.229 262.814 342.024 246.05C341.82 245.252 340.594 245.592 340.798 246.389V246.406Z" fill="#2B63A8"/>
<path d="M300.706 289.114C320.733 289.114 336.967 272.933 336.967 252.972C336.967 233.011 320.733 216.829 300.706 216.829C280.68 216.829 264.445 233.011 264.445 252.972C264.445 272.933 280.68 289.114 300.706 289.114Z" fill="#FCBC00"/>
<path d="M335.18 244.063C338.789 258.436 333.137 273.911 320.778 282.293C308.47 290.641 291.837 290.387 279.784 281.699C267.68 272.977 262.301 257.112 266.557 242.842C270.796 228.639 283.853 218.322 298.715 217.491C315.569 216.558 330.839 227.876 335.18 244.046C335.385 244.844 336.627 244.505 336.406 243.707C332.457 229.013 319.774 217.983 304.537 216.371C289.011 214.725 273.69 223.43 267.187 237.565C260.683 251.699 263.833 268.464 274.864 279.222C285.896 289.98 302.954 292.729 316.863 286.009C332.559 278.424 340.611 260.472 336.406 243.707C336.202 242.91 334.976 243.249 335.18 244.046V244.063Z" fill="#2B63A8"/>
<path d="M295.991 254.432L312.572 268.397C312.504 268.618 312.334 268.584 312.198 268.601C310.58 268.923 308.98 269.228 307.363 269.551C307.022 269.619 306.767 269.551 306.495 269.33C301.319 264.952 296.144 260.592 290.952 256.248C290.696 256.027 290.543 255.79 290.492 255.45C290.39 254.805 290.288 254.144 290.1 253.516C289.93 252.939 290.066 252.701 290.696 252.599C292.041 252.379 293.386 252.141 294.697 251.751C296.331 251.276 297.846 250.563 299.055 249.325C300.281 248.086 300.911 246.61 300.877 244.845C300.877 244.319 300.723 244.166 300.162 244.268C296.314 245.049 292.467 245.795 288.619 246.542C288.296 246.61 287.972 246.678 287.496 246.762C288.041 245.456 288.534 244.268 289.028 243.08C289.147 242.809 289.42 242.86 289.641 242.809C292.756 242.198 295.872 241.587 298.987 240.959C299.174 240.925 299.481 240.976 299.532 240.756C299.583 240.552 299.345 240.399 299.191 240.247C297.761 238.702 295.906 238.397 293.931 238.482C291.582 238.584 289.3 239.178 286.985 239.602C286.747 239.653 286.491 239.704 286.1 239.771C286.645 238.465 287.138 237.277 287.632 236.089C287.717 235.903 287.887 235.886 288.058 235.852C295.31 234.426 302.579 233.001 309.831 231.576C310.002 231.762 309.831 231.915 309.797 232.051C309.423 232.984 309.014 233.883 308.657 234.834C308.486 235.275 308.248 235.445 307.788 235.529C306.069 235.835 304.35 236.191 302.545 236.547C302.937 236.955 303.294 237.294 303.618 237.667C304.06 238.159 304.418 238.719 304.673 239.33C304.826 239.721 305.048 239.788 305.456 239.704C307.38 239.296 309.304 238.94 311.38 238.533C311.04 239.347 310.665 240.043 310.478 240.79C310.155 242.062 309.406 242.69 308.078 242.741C307.397 242.775 306.733 242.995 306.069 243.114C305.78 243.165 305.643 243.267 305.643 243.606C305.643 247.339 303.788 250.037 300.826 252.107C299.498 253.024 298.051 253.685 296.502 254.127C296.365 254.161 296.212 254.211 296.076 254.279C296.042 254.279 296.025 254.347 295.957 254.415L295.991 254.432Z" fill="white"/>
<path d="M209.866 225.84C226.574 225.84 240.118 212.34 240.118 195.687C240.118 179.034 226.574 165.534 209.866 165.534C193.159 165.534 179.615 179.034 179.615 195.687C179.615 212.34 193.159 225.84 209.866 225.84Z" fill="#2B63A8"/>
<path d="M238.62 202.729C235.538 214.675 225.307 223.787 212.913 225.06C200.707 226.298 188.739 219.698 183.292 208.736C177.844 197.775 180.023 183.691 188.859 174.85C197.592 166.129 211.211 163.719 222.413 168.928C235.147 174.867 241.82 189.172 238.62 202.712C238.432 203.51 239.658 203.849 239.845 203.052C242.808 190.563 237.82 177.345 227.111 170.116C216.335 162.854 201.695 163.278 191.31 171.049C180.925 178.821 176.516 192.48 180.347 204.749C184.16 216.966 195.43 225.721 208.266 226.417C222.975 227.215 236.236 217.169 239.862 203.052C240.067 202.254 238.841 201.915 238.637 202.712L238.62 202.729Z" fill="#2B63A8"/>
<path d="M206.666 221.904C223.374 221.904 236.918 208.404 236.918 191.751C236.918 175.098 223.374 161.599 206.666 161.599C189.959 161.599 176.415 175.098 176.415 191.751C176.415 208.404 189.959 221.904 206.666 221.904Z" fill="#FCBC00"/>
<path d="M235.437 198.793C232.355 210.739 222.124 219.85 209.731 221.123C197.337 222.396 185.557 215.761 180.109 204.8C174.661 193.838 176.84 179.754 185.676 170.914C194.511 162.073 208.028 159.783 219.23 164.992C231.964 170.931 238.637 185.235 235.437 198.776C235.25 199.573 236.475 199.913 236.663 199.115C239.625 186.627 234.637 173.408 223.929 166.18C213.152 158.917 198.512 159.341 188.127 167.113C177.743 174.884 173.333 188.544 177.164 200.812C180.994 213.08 192.247 221.785 205.083 222.481C219.792 223.278 233.053 213.233 236.68 199.115C236.884 198.318 235.658 197.978 235.454 198.776L235.437 198.793Z" fill="#2B63A8"/>
<path d="M202.631 190.97L209.254 207.785C209.117 207.921 208.998 207.819 208.896 207.785C207.585 207.378 206.274 206.971 204.964 206.581C204.674 206.496 204.521 206.36 204.419 206.072C202.359 200.811 200.299 195.568 198.222 190.325C198.12 190.054 198.103 189.833 198.205 189.561C198.392 189.035 198.563 188.526 198.699 187.983C198.801 187.491 198.988 187.373 199.499 187.542C200.571 187.916 201.661 188.272 202.768 188.509C204.163 188.798 205.559 188.883 206.938 188.459C208.334 188.034 209.373 187.186 210.054 185.879C210.258 185.489 210.224 185.319 209.764 185.184C206.632 184.233 203.5 183.266 200.384 182.299C200.112 182.214 199.856 182.129 199.482 182.011C200.401 181.264 201.235 180.585 202.07 179.906C202.257 179.754 202.444 179.906 202.631 179.957C205.168 180.738 207.704 181.518 210.224 182.299C210.377 182.35 210.582 182.503 210.701 182.367C210.82 182.231 210.701 182.028 210.65 181.858C210.224 180.161 208.981 179.194 207.483 178.481C205.713 177.633 203.806 177.158 201.95 176.564C201.746 176.496 201.559 176.445 201.235 176.343C202.155 175.597 202.989 174.918 203.823 174.239C203.959 174.137 204.095 174.188 204.232 174.239C210.122 176.072 216.029 177.887 221.919 179.703C221.971 179.906 221.8 179.957 221.698 180.042C221.051 180.568 220.387 181.077 219.757 181.637C219.468 181.892 219.213 181.926 218.855 181.807C217.476 181.349 216.08 180.942 214.599 180.483C214.718 180.942 214.838 181.332 214.94 181.739C215.059 182.282 215.11 182.825 215.059 183.385C215.025 183.741 215.161 183.877 215.484 183.962C217.051 184.42 218.617 184.912 220.302 185.438C219.723 185.896 219.179 186.27 218.736 186.728C217.987 187.525 217.204 187.695 216.199 187.22C215.689 186.982 215.11 186.88 214.582 186.694C214.344 186.609 214.208 186.626 214.071 186.88C212.59 189.629 210.156 190.885 207.16 191.224C205.832 191.377 204.504 191.292 203.176 191.004C203.057 190.97 202.938 190.953 202.802 190.953C202.768 190.953 202.733 190.97 202.665 191.004L202.631 190.97Z" fill="white"/>
<path d="M285.743 153.843C302.45 153.843 315.994 140.343 315.994 123.69C315.994 107.037 302.45 93.5374 285.743 93.5374C269.035 93.5374 255.491 107.037 255.491 123.69C255.491 140.343 269.035 153.843 285.743 153.843Z" fill="#2B63A8"/>
<path d="M314.496 130.75C311.415 142.695 301.183 151.807 288.79 153.08C276.584 154.319 264.616 147.718 259.168 136.757C253.721 125.795 255.9 111.711 264.735 102.871C273.468 94.149 287.088 91.7395 298.289 96.9488C311.023 102.888 317.697 117.192 314.496 130.733C314.309 131.53 315.535 131.87 315.722 131.072C318.684 118.583 313.696 105.365 302.988 98.1366C292.28 90.9081 277.571 91.2984 267.187 99.0699C256.904 106.773 252.393 120.501 256.223 132.769C260.036 144.986 271.306 153.742 284.142 154.438C298.851 155.235 312.113 145.19 315.739 131.072C315.943 130.275 314.718 129.935 314.513 130.733L314.496 130.75Z" fill="#2B63A8"/>
<path d="M282.542 149.907C299.25 149.907 312.794 136.407 312.794 119.754C312.794 103.101 299.25 89.6014 282.542 89.6014C265.835 89.6014 252.291 103.101 252.291 119.754C252.291 136.407 265.835 149.907 282.542 149.907Z" fill="#FCBC00"/>
<path d="M311.312 126.796C308.231 138.742 297.999 147.854 285.606 149.126C273.212 150.399 261.432 143.764 255.984 132.803C250.537 121.841 252.716 107.758 261.551 98.9171C270.284 90.1954 283.903 87.7859 295.105 92.9952C307.839 98.9341 314.513 113.238 311.312 126.779C311.125 127.577 312.351 127.916 312.538 127.118C315.5 114.63 310.512 101.411 299.804 94.183C289.028 86.9205 274.387 87.3447 264.002 95.1162C253.72 102.82 249.209 116.547 253.039 128.815C256.852 141.032 268.122 149.788 280.958 150.484C295.667 151.281 308.929 141.236 312.555 127.118C312.759 126.321 311.533 125.982 311.329 126.779L311.312 126.796Z" fill="#2B63A8"/>
<path d="M278.507 118.973L285.129 135.789C284.993 135.924 284.874 135.823 284.772 135.789C283.461 135.381 282.15 134.974 280.839 134.584C280.55 134.499 280.397 134.363 280.295 134.075C278.235 128.815 276.175 123.571 274.098 118.328C273.996 118.057 273.979 117.836 274.081 117.565C274.268 117.039 274.438 116.53 274.575 115.987C274.677 115.495 274.864 115.376 275.375 115.545C276.447 115.919 277.537 116.275 278.643 116.513C280.039 116.801 281.435 116.886 282.814 116.462C284.21 116.038 285.249 115.189 285.93 113.883C286.134 113.492 286.1 113.323 285.64 113.187C282.508 112.237 279.375 111.269 276.26 110.302C275.988 110.217 275.732 110.133 275.358 110.014C276.277 109.267 277.111 108.588 277.945 107.91C278.133 107.757 278.32 107.91 278.507 107.961C281.044 108.741 283.58 109.522 286.1 110.302C286.253 110.353 286.457 110.506 286.576 110.37C286.696 110.234 286.576 110.031 286.525 109.861C286.1 108.164 284.857 107.197 283.359 106.484C281.588 105.636 279.682 105.161 277.826 104.567C277.622 104.499 277.435 104.448 277.111 104.346C278.03 103.6 278.865 102.921 279.699 102.242C279.835 102.141 279.971 102.191 280.107 102.242C285.998 104.075 291.905 105.891 297.795 107.706C297.846 107.91 297.676 107.961 297.574 108.045C296.927 108.571 296.263 109.081 295.633 109.641C295.344 109.895 295.088 109.929 294.731 109.81C293.352 109.352 291.956 108.945 290.475 108.487C290.594 108.945 290.713 109.335 290.815 109.742C290.935 110.285 290.986 110.828 290.935 111.388C290.901 111.745 291.037 111.88 291.36 111.965C292.926 112.423 294.493 112.915 296.178 113.441C295.599 113.9 295.054 114.273 294.612 114.731C293.863 115.529 293.08 115.698 292.075 115.223C291.564 114.986 290.986 114.884 290.458 114.697C290.22 114.612 290.083 114.629 289.947 114.884C288.466 117.633 286.032 118.888 283.035 119.228C281.708 119.38 280.38 119.295 279.052 119.007C278.933 118.973 278.813 118.956 278.677 118.956C278.643 118.956 278.609 118.973 278.541 119.007L278.507 118.973Z" fill="white"/>
<path d="M464.443 451.84L235.828 528.452C227.112 531.371 217.664 526.705 214.736 518L153.364 336.065L397.76 254.159C406.477 251.241 415.925 255.907 418.853 264.612L474.93 430.834C477.858 439.521 473.177 448.939 464.443 451.857V451.84Z" fill="#A5C661"/>
<path d="M464.29 451.23L444.661 457.813L396.5 473.95L336.116 494.193L279.324 513.232L241.991 525.737C239.914 526.433 237.837 527.163 235.743 527.842C226.669 530.743 217.987 525.636 215.042 516.897L204.504 485.658L185.284 428.696L165.774 370.834L154.521 337.457L153.994 335.896L153.551 336.676L173.026 330.144L221.085 314.041L282.814 293.356L342.67 273.3L385.741 258.86L396.296 255.33C396.841 255.144 397.385 254.957 397.93 254.787C404.859 252.581 412.588 255.076 416.571 261.252C418.444 264.154 419.312 267.887 420.419 271.128L426.616 289.487L446.04 347.095L465.617 405.11L471.984 423.978C472.904 426.676 473.976 429.391 474.691 432.14C476.802 440.217 472.121 448.481 464.324 451.247C463.558 451.518 463.881 452.757 464.664 452.468C474.3 449.058 478.419 439.063 475.253 429.68L471.082 417.327L453.394 364.895L432.506 302.96L420.027 265.952C419.585 264.646 419.159 263.339 418.546 262.101C415.363 255.771 408.281 251.971 401.233 252.751C398.475 253.056 395.785 254.159 393.146 255.042L357.992 266.818L300.468 286.094L237.088 307.338L182.951 325.477L154.521 334.997L153.211 335.438C152.904 335.54 152.649 335.879 152.768 336.218L160.905 360.33L179.342 414.968L199.533 474.816L212.76 514.029C214.139 518.102 215.331 522.072 218.6 525.178C223.894 530.217 230.942 530.777 237.581 528.554L266.829 518.747L320.233 500.845L381.808 480.211L434.991 462.395L463.353 452.892L464.647 452.451C465.43 452.197 465.09 450.958 464.307 451.23H464.29Z" fill="#2B63A8"/>
<path d="M175.24 356.563L197.694 349.505L251.626 332.553L316.879 312.056L373.279 294.324L391.87 288.487C394.764 287.57 397.896 286.891 400.688 285.721C400.807 285.67 400.943 285.636 401.063 285.602C401.846 285.364 401.505 284.126 400.722 284.38L378.268 291.439L324.336 308.39L259.083 328.888L202.682 346.62L184.092 352.457C181.198 353.373 178.066 354.052 175.274 355.223C175.154 355.274 175.018 355.308 174.899 355.342C174.116 355.579 174.456 356.818 175.24 356.563Z" fill="#2B63A8"/>
<path d="M179.785 370.172L202.24 363.113L256.172 346.162L321.425 325.664L377.825 307.932L396.416 302.095C399.31 301.179 402.442 300.5 405.234 299.329C405.353 299.278 405.489 299.244 405.608 299.21C406.392 298.973 406.051 297.734 405.268 297.989L382.813 305.047L328.881 321.999L263.629 342.497L207.228 360.228L188.638 366.066C185.744 366.982 182.611 367.661 179.82 368.831C179.7 368.882 179.564 368.916 179.445 368.95C178.662 369.188 179.002 370.426 179.785 370.172Z" fill="#2B63A8"/>
<path d="M428.863 371.19L426.922 340.715L427.892 355.952L426.888 340.715C437.341 340.002 455.165 335.658 460.187 328.565C460.834 327.666 462.162 325.783 460.8 320.947C459.199 315.228 456.612 313.922 455.761 313.481C451.896 311.495 445.001 312.055 436.83 315.008L426.394 286.297C447.402 278.713 461.583 282.123 469.771 286.331C479.781 291.473 486.88 300.585 490.285 312.717C494.66 328.311 489.911 339.578 485.144 346.263C469.652 368.017 432.983 370.935 428.846 371.19H428.863Z" fill="#2B63A8"/>
<path d="M430.055 367.729C436.129 367.729 441.052 362.821 441.052 356.767C441.052 350.713 436.129 345.806 430.055 345.806C423.981 345.806 419.057 350.713 419.057 356.767C419.057 362.821 423.981 367.729 430.055 367.729Z" fill="white"/>
<path d="M305.643 378.961C312.215 399.798 304.486 413.577 291.667 417.581C279.307 421.45 265.518 414.917 259.083 395.03C252.852 375.262 260.189 360.771 273.315 356.665C287.189 352.321 299.702 360.093 305.643 378.961ZM269.621 391.23C273.298 403.939 281.044 412.05 289.436 409.42C298.289 406.654 299.276 395.981 295.156 382.898C291.377 370.884 284.704 361.942 275.392 364.861C266.999 367.491 265.688 378.758 269.621 391.23ZM303.822 459.374L329.902 338.95L338.448 336.269L312.368 456.693L303.822 459.374ZM383.051 399.663C389.623 420.5 381.894 434.278 369.228 438.232C356.868 442.101 343.079 435.551 336.695 415.834C330.413 395.913 337.75 381.422 350.876 377.315C364.75 372.972 377.11 380.794 383.051 399.646V399.663ZM347.029 411.948C350.859 424.623 358.758 432.666 366.998 430.087C375.85 427.321 376.838 416.648 372.718 403.565C368.938 391.552 362.265 382.61 352.953 385.528C344.56 388.158 343.096 399.476 347.029 411.948Z" fill="white"/>
</svg>
