<svg width="40" height="40" viewBox="0 0 40 40" fill="none" xmlns="http://www.w3.org/2000/svg">
<rect width="40" height="40" fill="white"/>
<g clip-path="url(#clip0_1202_5191)">
<path d="M21.3768 26.6947C22.485 27.0386 23.574 27.3634 24.6822 27.7073C24.6822 27.7456 24.644 27.7647 24.6249 27.7647C24.3765 27.9366 24.1281 28.1277 23.8797 28.2996C23.8224 28.3378 23.7842 28.357 23.7269 28.3378C22.6951 28.013 21.6634 27.7073 20.6317 27.4017C20.5744 27.4017 20.5362 27.3634 20.5171 27.3061C20.4788 27.2106 20.4215 27.1151 20.3642 27.0195C20.3069 26.9431 20.326 26.8858 20.4215 26.8285C20.6317 26.6947 20.8419 26.5419 21.0329 26.3699C21.2813 26.1598 21.4915 25.9305 21.6252 25.6248C21.7589 25.3191 21.7972 25.0325 21.7207 24.7459C21.7016 24.6504 21.6634 24.6504 21.587 24.7077C20.9947 25.128 20.4024 25.5675 19.8292 25.9878C19.7719 26.026 19.7337 26.0642 19.6573 26.1024C19.6955 25.835 19.7146 25.6057 19.7337 25.3764C19.7337 25.3191 19.791 25.3 19.8292 25.2809C20.3069 24.937 20.7845 24.5931 21.2622 24.2492C21.3004 24.2301 21.3386 24.2109 21.3386 24.1727C21.3386 24.1345 21.3004 24.1345 21.2622 24.1154C20.9565 23.9626 20.6508 24.0581 20.326 24.2301C19.9439 24.4402 19.6 24.7077 19.2561 24.9561C19.2178 24.9752 19.1796 25.0134 19.1223 25.0516C19.1605 24.8032 19.1796 24.5549 19.1987 24.3256C19.1987 24.2874 19.237 24.2683 19.2561 24.2492C20.3642 23.4467 21.4724 22.6443 22.5805 21.8418C22.6187 21.8418 22.5805 21.8991 22.5805 21.9182C22.5614 22.1093 22.5423 22.2812 22.5232 22.4723C22.5232 22.5487 22.485 22.606 22.4086 22.6634C22.1411 22.8544 21.8927 23.0455 21.6061 23.2365C21.6825 23.2747 21.7589 23.2939 21.8354 23.3321C21.9309 23.3894 22.0073 23.4467 22.0837 23.5231C22.122 23.5804 22.1602 23.5613 22.2175 23.5231C22.5041 23.313 22.8098 23.1028 23.1155 22.8735C23.1155 23.0264 23.0582 23.1792 23.0773 23.313C23.0773 23.5422 22.9817 23.7142 22.7716 23.8288C22.6569 23.8861 22.5614 23.9817 22.4659 24.039C22.4277 24.0772 22.4086 24.0963 22.4086 24.1536C22.5805 24.765 22.4086 25.3573 22.0073 25.9305C21.8354 26.1789 21.6252 26.4081 21.3959 26.5992C21.3768 26.5992 21.3577 26.6374 21.3386 26.6565C21.3386 26.6565 21.3386 26.6565 21.3386 26.6947H21.3768Z" fill="white"/>
<path d="M21.759 29.4274C25.716 29.4274 28.9238 27.862 28.9238 25.931C28.9238 24 25.716 22.4346 21.759 22.4346C17.802 22.4346 14.5942 24 14.5942 25.931C14.5942 27.862 17.802 29.4274 21.759 29.4274Z" fill="#C78700"/>
<path d="M28.8472 25.9302C28.8472 26.8091 28.1785 27.4969 27.4907 27.9364C26.4971 28.586 25.3317 28.9299 24.1853 29.14C22.7715 29.3884 21.3194 29.4075 19.8865 29.2165C18.6637 29.0636 17.4409 28.7388 16.371 28.1274C15.6449 27.7071 14.8616 27.0766 14.7087 26.2168C14.5559 25.357 15.11 24.631 15.7405 24.1343C16.6384 23.4273 17.7657 23.0452 18.8738 22.8159C20.2495 22.5102 21.7015 22.4529 23.0963 22.5676C24.3764 22.6822 25.6756 22.9688 26.822 23.542C27.6053 23.9241 28.4651 24.5164 28.7708 25.3762C28.8281 25.5481 28.8663 25.7392 28.8663 25.9302C28.8663 26.0258 29.0191 26.0258 29.0191 25.9302C29.0191 25.0705 28.4078 24.3826 27.739 23.905C26.7455 23.1981 25.5036 22.8159 24.3 22.5867C22.8097 22.3192 21.2812 22.3001 19.7909 22.4911C18.5299 22.6631 17.2498 23.007 16.1417 23.6757C15.4157 24.1152 14.6896 24.7648 14.5559 25.6436C14.4412 26.4843 14.9189 27.2103 15.5494 27.7262C16.4474 28.4713 17.6128 28.8917 18.7401 29.14C20.2304 29.4839 21.778 29.5413 23.2873 29.3884C24.5865 29.2547 25.9049 28.949 27.0512 28.3567C27.8346 27.9555 28.6561 27.3441 28.9427 26.4652C29 26.2932 29.0191 26.1022 29.0191 25.9111C29.0191 25.8156 28.8854 25.8156 28.8663 25.9111L28.8472 25.9302Z" fill="#0565AD"/>
<path d="M21.759 28.2428C25.716 28.2428 28.9238 26.6774 28.9238 24.7464C28.9238 22.8154 25.716 21.25 21.759 21.25C17.802 21.25 14.5942 22.8154 14.5942 24.7464C14.5942 26.6774 17.802 28.2428 21.759 28.2428Z" fill="#FFB800"/>
<path d="M28.8472 24.7457C28.8472 25.6245 28.1785 26.3124 27.4907 26.7518C26.4971 27.4014 25.3317 27.7453 24.1853 27.9555C22.7715 28.2038 21.3194 28.223 19.8865 28.0319C18.6637 27.879 17.4409 27.5542 16.371 26.9429C15.6449 26.5225 14.8616 25.892 14.7087 25.0322C14.5559 24.1725 15.11 23.4464 15.7405 22.9497C16.6384 22.2428 17.7657 21.8606 18.8738 21.6314C20.2495 21.3257 21.7015 21.2684 23.0963 21.383C24.3764 21.4976 25.6756 21.7842 26.822 22.3574C27.6053 22.7395 28.4651 23.3318 28.7708 24.1916C28.8281 24.3635 28.8663 24.5546 28.8663 24.7457C28.8663 24.8412 29.0191 24.8412 29.0191 24.7457C29.0191 23.8859 28.4078 23.1981 27.739 22.7204C26.7455 22.0135 25.5036 21.6314 24.3 21.4021C22.8097 21.1346 21.2812 21.1155 19.7909 21.3066C18.5299 21.4785 17.2498 21.8224 16.1417 22.4911C15.4157 22.9306 14.6896 23.5802 14.5559 24.4591C14.4412 25.2997 14.9189 26.0258 15.5494 26.5416C16.4474 27.2868 17.6128 27.7071 18.7401 27.9555C20.2304 28.2994 21.778 28.3567 23.2873 28.2038C24.5865 28.0701 25.9049 27.7644 27.0512 27.1721C27.8346 26.7709 28.6561 26.1595 28.9427 25.2806C29 25.1087 29.0191 24.9176 29.0191 24.7266C29.0191 24.631 28.8854 24.631 28.8663 24.7266L28.8472 24.7457Z" fill="#0565AD"/>
<path d="M21.3768 24.5932C22.485 24.9371 23.574 25.2619 24.6822 25.6058C24.6822 25.644 24.644 25.6631 24.6249 25.6631C24.3765 25.8351 24.1281 26.0261 23.8797 26.1981C23.8224 26.2363 23.7842 26.2554 23.7269 26.2363C22.6951 25.9115 21.6634 25.6058 20.6317 25.3001C20.5744 25.3001 20.5362 25.2619 20.5171 25.2046C20.4788 25.109 20.4215 25.0135 20.3642 24.918C20.3069 24.8415 20.326 24.7842 20.4215 24.7269C20.6317 24.5932 20.8419 24.4403 21.0329 24.2684C21.2813 24.0582 21.4915 23.8289 21.6252 23.5232C21.7589 23.2175 21.7972 22.9309 21.7207 22.6444C21.7016 22.5488 21.6634 22.5488 21.587 22.6061C20.9947 23.0265 20.4024 23.4659 19.8292 23.8862C19.7719 23.9245 19.7337 23.9627 19.6573 24.0009C19.6955 23.7334 19.7146 23.5041 19.7337 23.2748C19.7337 23.2175 19.791 23.1984 19.8292 23.1793C20.3069 22.8354 20.7845 22.4915 21.2622 22.1476C21.3004 22.1285 21.3386 22.1094 21.3386 22.0712C21.3386 22.033 21.3004 22.033 21.2622 22.0139C20.9565 21.861 20.6508 21.9565 20.326 22.1285C19.9439 22.3387 19.6 22.6061 19.2561 22.8545C19.2178 22.8736 19.1796 22.9118 19.1223 22.95C19.1605 22.7017 19.1796 22.4533 19.1987 22.224C19.1987 22.1858 19.237 22.1667 19.2561 22.1476C20.3642 21.3451 21.4724 20.5427 22.5805 19.7402C22.6187 19.7402 22.5805 19.7976 22.5805 19.8167C22.5614 20.0077 22.5423 20.1797 22.5232 20.3707C22.5232 20.4472 22.485 20.5045 22.4086 20.5618C22.1411 20.7529 21.8927 20.9439 21.6061 21.135C21.6825 21.1732 21.7589 21.1923 21.8354 21.2305C21.9309 21.2878 22.0073 21.3451 22.0837 21.4216C22.122 21.4789 22.1602 21.4598 22.2175 21.4216C22.5041 21.2114 22.8098 21.0012 23.1155 20.772C23.1155 20.9248 23.0582 21.0777 23.0773 21.2114C23.0773 21.4407 22.9817 21.6126 22.7716 21.7273C22.6569 21.7846 22.5614 21.8801 22.4659 21.9374C22.4277 21.9756 22.4086 21.9947 22.4086 22.0521C22.5805 22.6635 22.4086 23.2557 22.0073 23.8289C21.8354 24.0773 21.6252 24.3066 21.3959 24.4976C21.3768 24.4976 21.3577 24.5358 21.3386 24.555C21.3386 24.555 21.3386 24.555 21.3386 24.5932H21.3768Z" fill="white"/>
<path d="M21.759 27.6696C25.716 27.6696 28.9238 26.1042 28.9238 24.1732C28.9238 22.2422 25.716 20.6768 21.759 20.6768C17.802 20.6768 14.5942 22.2422 14.5942 24.1732C14.5942 26.1042 17.802 27.6696 21.759 27.6696Z" fill="#C78700"/>
<path d="M28.8472 24.1919C28.8472 25.0708 28.1785 25.7586 27.4907 26.1981C26.4971 26.8477 25.3317 27.1916 24.1853 27.4018C22.7715 27.6501 21.3194 27.6692 19.8865 27.4782C18.6637 27.3253 17.4409 27.0005 16.371 26.3891C15.6449 25.9688 14.8616 25.3383 14.7087 24.4785C14.5559 23.6188 15.11 22.8927 15.7405 22.396C16.6384 21.6891 17.7657 21.3069 18.8738 21.0777C20.2495 20.772 21.7015 20.7147 23.0963 20.8293C24.3764 20.9439 25.6756 21.2305 26.822 21.8037C27.6053 22.1858 28.4651 22.7781 28.7708 23.6379C28.8281 23.8098 28.8663 24.0009 28.8663 24.1919C28.8663 24.2875 29.0191 24.2875 29.0191 24.1919C29.0191 23.3322 28.4078 22.6444 27.739 22.1667C26.7455 21.4598 25.5036 21.0777 24.3 20.8484C22.8097 20.5809 21.2812 20.5618 19.7909 20.7529C18.5299 20.9248 17.2498 21.2687 16.1417 21.9374C15.4157 22.3769 14.6896 23.0265 14.5559 23.9054C14.4412 24.746 14.9189 25.4721 15.5494 25.9879C16.4474 26.733 17.6128 27.1534 18.7401 27.4018C20.2304 27.7457 21.778 27.803 23.2873 27.6501C24.5865 27.5164 25.9049 27.2107 27.0512 26.6184C27.8346 26.2172 28.6561 25.6058 28.9427 24.7269C29 24.555 29.0191 24.3639 29.0191 24.1728C29.0191 24.0773 28.8854 24.0773 28.8663 24.1728L28.8472 24.1919Z" fill="#0565AD"/>
<path d="M21.759 26.5035C25.716 26.5035 28.9238 24.9382 28.9238 23.0071C28.9238 21.0761 25.716 19.5107 21.759 19.5107C17.802 19.5107 14.5942 21.0761 14.5942 23.0071C14.5942 24.9382 17.802 26.5035 21.759 26.5035Z" fill="#FFB800"/>
<path d="M28.8472 23.0074C28.8472 23.8863 28.1785 24.5741 27.4907 25.0135C26.4971 25.6631 25.3317 26.007 24.1853 26.2172C22.7715 26.4656 21.3194 26.4847 19.8865 26.2936C18.6637 26.1408 17.4409 25.816 16.371 25.2046C15.6449 24.7842 14.8616 24.1537 14.7087 23.294C14.5559 22.4342 15.11 21.7082 15.7405 21.2114C16.6384 20.5045 17.7657 20.1224 18.8738 19.8931C20.2495 19.5874 21.7015 19.5301 23.0963 19.6447C24.3764 19.7594 25.6756 20.0459 26.822 20.6191C27.6053 21.0012 28.4651 21.5935 28.7708 22.4533C28.8281 22.6253 28.8663 22.8163 28.8663 23.0074C28.8663 23.1029 29.0191 23.1029 29.0191 23.0074C29.0191 22.1476 28.4078 21.4598 27.739 20.9821C26.7455 20.2752 25.5036 19.8931 24.3 19.6638C22.8097 19.3963 21.2812 19.3772 19.7909 19.5683C18.5299 19.7402 17.2498 20.0842 16.1417 20.7529C15.4157 21.1923 14.6896 21.8419 14.5559 22.7208C14.4412 23.5615 14.9189 24.2875 15.5494 24.8033C16.4474 25.5485 17.6128 25.9688 18.7401 26.2172C20.2304 26.5611 21.778 26.6184 23.2873 26.4656C24.5865 26.3318 25.9049 26.0261 27.0512 25.4338C27.8346 25.0326 28.6561 24.4212 28.9427 23.5423C29 23.3704 29.0191 23.1793 29.0191 22.9883C29.0191 22.8927 28.8854 22.8927 28.8663 22.9883L28.8472 23.0074Z" fill="#0565AD"/>
<path d="M21.3768 22.4916C22.485 22.8355 23.574 23.1603 24.6822 23.5042C24.6822 23.5424 24.644 23.5615 24.6249 23.5615C24.3765 23.7335 24.1281 23.9246 23.8797 24.0965C23.8224 24.1347 23.7842 24.1538 23.7269 24.1347C22.6951 23.8099 21.6634 23.5042 20.6317 23.1985C20.5744 23.1985 20.5362 23.1603 20.5171 23.103C20.4788 23.0075 20.4215 22.9119 20.3642 22.8164C20.3069 22.74 20.326 22.6827 20.4215 22.6253C20.6317 22.4916 20.8419 22.3388 21.0329 22.1668C21.2813 21.9566 21.4915 21.7274 21.6252 21.4217C21.7589 21.116 21.7972 20.8294 21.7207 20.5428C21.7016 20.4473 21.6634 20.4473 21.587 20.5046C20.9947 20.9249 20.4024 21.3643 19.8292 21.7847C19.7719 21.8229 19.7337 21.8611 19.6573 21.8993C19.6955 21.6318 19.7146 21.4026 19.7337 21.1733C19.7337 21.116 19.791 21.0969 19.8292 21.0778C20.3069 20.7338 20.7845 20.3899 21.2622 20.046C21.3004 20.0269 21.3386 20.0078 21.3386 19.9696C21.3386 19.9314 21.3004 19.9314 21.2622 19.9123C20.9565 19.7594 20.6508 19.855 20.326 20.0269C19.9439 20.2371 19.6 20.5046 19.2561 20.753C19.2178 20.7721 19.1796 20.8103 19.1223 20.8485C19.1605 20.6001 19.1796 20.3517 19.1987 20.1225C19.1987 20.0842 19.237 20.0651 19.2561 20.046C20.3642 19.2436 21.4724 18.4411 22.5805 17.6387C22.6187 17.6387 22.5805 17.696 22.5805 17.7151C22.5614 17.9062 22.5423 18.0781 22.5232 18.2692C22.5232 18.3456 22.485 18.4029 22.4086 18.4602C22.1411 18.6513 21.8927 18.8424 21.6061 19.0334C21.6825 19.0716 21.7589 19.0907 21.8354 19.1289C21.9309 19.1863 22.0073 19.2436 22.0837 19.32C22.122 19.3773 22.1602 19.3582 22.2175 19.32C22.5041 19.1098 22.8098 18.8997 23.1155 18.6704C23.1155 18.8232 23.0582 18.9761 23.0773 19.1098C23.0773 19.3391 22.9817 19.5111 22.7716 19.6257C22.6569 19.683 22.5614 19.7785 22.4659 19.8359C22.4277 19.8741 22.4086 19.8932 22.4086 19.9505C22.5805 20.5619 22.4086 21.1542 22.0073 21.7274C21.8354 21.9757 21.6252 22.205 21.3959 22.3961C21.3768 22.3961 21.3577 22.4343 21.3386 22.4534C21.3386 22.4534 21.3386 22.4534 21.3386 22.4916H21.3768Z" fill="white"/>
<path d="M21.759 25.9303C25.716 25.9303 28.9238 24.3649 28.9238 22.4339C28.9238 20.5029 25.716 18.9375 21.759 18.9375C17.802 18.9375 14.5942 20.5029 14.5942 22.4339C14.5942 24.3649 17.802 25.9303 21.759 25.9303Z" fill="#C78700"/>
<path d="M28.8472 22.4341C28.8472 23.313 28.1785 24.0008 27.4907 24.4403C26.4971 25.0899 25.3317 25.4338 24.1853 25.6439C22.7715 25.8923 21.3194 25.9114 19.8865 25.7204C18.6637 25.5675 17.4409 25.2427 16.371 24.6313C15.6449 24.211 14.8616 23.5805 14.7087 22.7207C14.5559 21.861 15.11 21.1349 15.7405 20.6382C16.6384 19.9312 17.7657 19.5491 18.8738 19.3199C20.2495 19.0142 21.7015 18.9568 23.0963 19.0715C24.3764 19.1861 25.6756 19.4727 26.822 20.0459C27.6053 20.428 28.4651 21.0203 28.7708 21.8801C28.8281 22.052 28.8663 22.2431 28.8663 22.4341C28.8663 22.5297 29.0191 22.5297 29.0191 22.4341C29.0191 21.5744 28.4078 20.8865 27.739 20.4089C26.7455 19.702 25.5036 19.3199 24.3 19.0906C22.8097 18.8231 21.2812 18.804 19.7909 18.995C18.5299 19.167 17.2498 19.5109 16.1417 20.1796C15.4157 20.6191 14.6896 21.2687 14.5559 22.1475C14.4412 22.9882 14.9189 23.7142 15.5494 24.2301C16.4474 24.9752 17.6128 25.3956 18.7401 25.6439C20.2304 25.9879 21.778 26.0452 23.2873 25.8923C24.5865 25.7586 25.9049 25.4529 27.0512 24.8606C27.8346 24.4594 28.6561 23.848 28.9427 22.9691C29 22.7971 29.0191 22.6061 29.0191 22.415C29.0191 22.3195 28.8854 22.3195 28.8663 22.415L28.8472 22.4341Z" fill="#0565AD"/>
<path d="M21.759 24.7457C25.716 24.7457 28.9238 23.1803 28.9238 21.2493C28.9238 19.3183 25.716 17.7529 21.759 17.7529C17.802 17.7529 14.5942 19.3183 14.5942 21.2493C14.5942 23.1803 17.802 24.7457 21.759 24.7457Z" fill="#FFB800"/>
<path d="M28.8472 21.2496C28.8472 22.1284 28.1785 22.8163 27.4907 23.2557C26.4971 23.9053 25.3317 24.2492 24.1853 24.4594C22.7715 24.7078 21.3194 24.7269 19.8865 24.5358C18.6637 24.383 17.4409 24.0582 16.371 23.4468C15.6449 23.0264 14.8616 22.3959 14.7087 21.5362C14.5559 20.6764 15.11 19.9504 15.7405 19.4536C16.6384 18.7467 17.7657 18.3646 18.8738 18.1353C20.2495 17.8296 21.7015 17.7723 23.0963 17.8869C24.3764 18.0015 25.6756 18.2881 26.822 18.8613C27.6053 19.2434 28.4651 19.8357 28.7708 20.6955C28.8281 20.8674 28.8663 21.0585 28.8663 21.2496C28.8663 21.3451 29.0191 21.3451 29.0191 21.2496C29.0191 20.3898 28.4078 19.702 27.739 19.2243C26.7455 18.5174 25.5036 18.1353 24.3 17.906C22.8097 17.6385 21.2812 17.6194 19.7909 17.8105C18.5299 17.9824 17.2498 18.3263 16.1417 18.9951C15.4157 19.4345 14.6896 20.0841 14.5559 20.963C14.4412 21.8036 14.9189 22.5297 15.5494 23.0455C16.4474 23.7907 17.6128 24.211 18.7401 24.4594C20.2304 24.8033 21.778 24.8606 23.2873 24.7078C24.5865 24.574 25.9049 24.2683 27.0512 23.676C27.8346 23.2748 28.6561 22.6634 28.9427 21.7845C29 21.6126 29.0191 21.4215 29.0191 21.2305C29.0191 21.1349 28.8854 21.1349 28.8663 21.2305L28.8472 21.2496Z" fill="#0565AD"/>
<path d="M21.3768 20.39C22.485 20.7339 23.574 21.0588 24.6822 21.4027C24.6822 21.4409 24.644 21.46 24.6249 21.46C24.3765 21.6319 24.1281 21.823 23.8797 21.9949C23.8224 22.0332 23.7842 22.0523 23.7269 22.0332C22.6951 21.7084 21.6634 21.4027 20.6317 21.097C20.5744 21.097 20.5362 21.0588 20.5171 21.0014C20.4788 20.9059 20.4215 20.8104 20.3642 20.7148C20.3069 20.6384 20.326 20.5811 20.4215 20.5238C20.6317 20.39 20.8419 20.2372 21.0329 20.0652C21.2813 19.8551 21.4915 19.6258 21.6252 19.3201C21.7589 19.0144 21.7972 18.7278 21.7207 18.4412C21.7016 18.3457 21.6634 18.3457 21.587 18.403C20.9947 18.8233 20.4024 19.2628 19.8292 19.6831C19.7719 19.7213 19.7337 19.7595 19.6573 19.7978C19.6955 19.5303 19.7146 19.301 19.7337 19.0717C19.7337 19.0144 19.791 18.9953 19.8292 18.9762C20.3069 18.6323 20.7845 18.2884 21.2622 17.9445C21.3004 17.9254 21.3386 17.9063 21.3386 17.868C21.3386 17.8298 21.3004 17.8298 21.2622 17.8107C20.9565 17.6579 20.6508 17.7534 20.326 17.9254C19.9439 18.1355 19.6 18.403 19.2561 18.6514C19.2178 18.6705 19.1796 18.7087 19.1223 18.7469C19.1605 18.4985 19.1796 18.2502 19.1987 18.0209C19.1987 17.9827 19.237 17.9636 19.2561 17.9445C20.3642 17.142 21.4724 16.3396 22.5805 15.5371C22.6187 15.5371 22.5805 15.5944 22.5805 15.6135C22.5614 15.8046 22.5423 15.9765 22.5232 16.1676C22.5232 16.244 22.485 16.3014 22.4086 16.3587C22.1411 16.5497 21.8927 16.7408 21.6061 16.9318C21.6825 16.9701 21.7589 16.9892 21.8354 17.0274C21.9309 17.0847 22.0073 17.142 22.0837 17.2184C22.122 17.2758 22.1602 17.2567 22.2175 17.2184C22.5041 17.0083 22.8098 16.7981 23.1155 16.5688C23.1155 16.7217 23.0582 16.8745 23.0773 17.0083C23.0773 17.2375 22.9817 17.4095 22.7716 17.5241C22.6569 17.5815 22.5614 17.677 22.4659 17.7343C22.4277 17.7725 22.4086 17.7916 22.4086 17.8489C22.5805 18.4603 22.4086 19.0526 22.0073 19.6258C21.8354 19.8742 21.6252 20.1035 21.3959 20.2945C21.3768 20.2945 21.3577 20.3327 21.3386 20.3518C21.3386 20.3518 21.3386 20.3518 21.3386 20.39H21.3768Z" fill="white"/>
<path d="M21.759 24.192C25.716 24.192 28.9238 22.6266 28.9238 20.6956C28.9238 18.7646 25.716 17.1992 21.759 17.1992C17.802 17.1992 14.5942 18.7646 14.5942 20.6956C14.5942 22.6266 17.802 24.192 21.759 24.192Z" fill="#C78700"/>
<path d="M28.8472 20.6959C28.8472 21.5747 28.1785 22.2625 27.4907 22.702C26.4971 23.3516 25.3317 23.6955 24.1853 23.9057C22.7715 24.154 21.3194 24.1732 19.8865 23.9821C18.6637 23.8292 17.4409 23.5044 16.371 22.893C15.6449 22.4727 14.8616 21.8422 14.7087 20.9824C14.5559 20.1227 15.11 19.3966 15.7405 18.8999C16.6384 18.193 17.7657 17.8108 18.8738 17.5816C20.2495 17.2759 21.7015 17.2186 23.0963 17.3332C24.3764 17.4478 25.6756 17.7344 26.822 18.3076C27.6053 18.6897 28.4651 19.282 28.7708 20.1418C28.8281 20.3137 28.8663 20.5048 28.8663 20.6959C28.8663 20.7914 29.0191 20.7914 29.0191 20.6959C29.0191 19.8361 28.4078 19.1483 27.739 18.6706C26.7455 17.9637 25.5036 17.5816 24.3 17.3523C22.8097 17.0848 21.2812 17.0657 19.7909 17.2568C18.5299 17.4287 17.2498 17.7726 16.1417 18.4413C15.4157 18.8808 14.6896 19.5304 14.5559 20.4093C14.4412 21.2499 14.9189 21.976 15.5494 22.4918C16.4474 23.237 17.6128 23.6573 18.7401 23.9057C20.2304 24.2496 21.778 24.3069 23.2873 24.154C24.5865 24.0203 25.9049 23.7146 27.0512 23.1223C27.8346 22.7211 28.6561 22.1097 28.9427 21.2308C29 21.0589 29.0191 20.8678 29.0191 20.6767C29.0191 20.5812 28.8854 20.5812 28.8663 20.6767L28.8472 20.6959Z" fill="#0565AD"/>
<path d="M21.759 23.0075C25.716 23.0075 28.9238 21.4421 28.9238 19.5111C28.9238 17.58 25.716 16.0146 21.759 16.0146C17.802 16.0146 14.5942 17.58 14.5942 19.5111C14.5942 21.4421 17.802 23.0075 21.759 23.0075Z" fill="#FFB800"/>
<path d="M28.8472 19.5113C28.8472 20.3902 28.1785 21.078 27.4907 21.5174C26.4971 22.167 25.3317 22.5109 24.1853 22.7211C22.7715 22.9695 21.3194 22.9886 19.8865 22.7975C18.6637 22.6447 17.4409 22.3199 16.371 21.7085C15.6449 21.2881 14.8616 20.6576 14.7087 19.7979C14.5559 18.9381 15.11 18.2121 15.7405 17.7153C16.6384 17.0084 17.7657 16.6263 18.8738 16.397C20.2495 16.0913 21.7015 16.034 23.0963 16.1486C24.3764 16.2633 25.6756 16.5498 26.822 17.123C27.6053 17.5052 28.4651 18.0974 28.7708 18.9572C28.8281 19.1292 28.8663 19.3202 28.8663 19.5113C28.8663 19.6068 29.0191 19.6068 29.0191 19.5113C29.0191 18.6515 28.4078 17.9637 27.739 17.486C26.7455 16.7791 25.5036 16.397 24.3 16.1677C22.8097 15.9002 21.2812 15.8811 19.7909 16.0722C18.5299 16.2442 17.2498 16.5881 16.1417 17.2568C15.4157 17.6962 14.6896 18.3458 14.5559 19.2247C14.4412 20.0654 14.9189 20.7914 15.5494 21.3073C16.4474 22.0524 17.6128 22.4727 18.7401 22.7211C20.2304 23.065 21.778 23.1223 23.2873 22.9695C24.5865 22.8357 25.9049 22.53 27.0512 21.9377C27.8346 21.5365 28.6561 20.9251 28.9427 20.0463C29 19.8743 29.0191 19.6832 29.0191 19.4922C29.0191 19.3966 28.8854 19.3966 28.8663 19.4922L28.8472 19.5113Z" fill="#0565AD"/>
<path d="M26.0577 11.8114C26.0577 11.8114 21.3003 11.2955 22.0646 16.2248C22.0646 16.2822 26.9366 16.2057 26.0577 11.8114Z" fill="#7A9B3D"/>
<path d="M26.0385 11.7158C24.5482 11.5629 22.8096 12.1552 22.1791 13.6073C21.8925 14.2569 21.8543 15.002 21.9116 15.7089C21.9116 15.8236 21.9307 15.9573 21.9498 16.072C21.9498 16.1293 21.9498 16.2057 21.988 16.2439C22.0071 16.2821 22.0453 16.263 22.0645 16.2821C22.1409 16.2821 22.2364 16.2821 22.3319 16.2821C23.1726 16.2248 24.0515 15.9955 24.7775 15.5179C25.2934 15.174 25.7137 14.7154 25.9621 14.1422C26.2869 13.3971 26.2678 12.5564 26.1149 11.7731C26.1149 11.6776 25.9621 11.7158 25.9812 11.8113C26.2296 13.0723 26.0003 14.3906 24.9495 15.2122C24.2808 15.7471 23.4019 16.0146 22.5612 16.1102C22.4466 16.1102 22.3319 16.1293 22.1982 16.1293C22.16 16.1293 22.1218 16.1293 22.1027 16.1293C22.1027 16.1293 22.0836 16.1293 22.0645 16.1293C22.1027 16.1675 22.1027 16.0528 22.0836 16.0146C21.988 15.3077 21.988 14.5435 22.2364 13.8557C22.5803 12.9003 23.3828 12.2699 24.3381 12.0215C24.873 11.8686 25.4844 11.8113 26.0385 11.8686C26.134 11.8686 26.134 11.7349 26.0385 11.7349V11.7158Z" fill="#0565AD"/>
<path d="M21.8161 19.2626C21.5486 16.7979 22.7714 14.4288 24.8921 13.1678C24.9686 13.1296 24.8921 12.9958 24.8157 13.0531C22.6567 14.3332 21.3957 16.7597 21.6632 19.2626C21.6632 19.3581 21.8161 19.3581 21.8161 19.2626Z" fill="#0565AD"/>
<path d="M17.4791 10.1678C17.4791 10.1678 22.2365 9.65193 21.4723 14.5813C21.4723 14.6386 16.6002 14.5622 17.4791 10.1678Z" fill="#7A9B3D"/>
<path d="M17.5364 10.2827C18.8929 10.1298 20.4978 10.6266 21.1665 11.8876C21.4722 12.4608 21.5678 13.1486 21.5486 13.7982C21.5486 14.0083 21.5295 14.1994 21.4913 14.4096C21.4913 14.4478 21.4722 14.5815 21.4913 14.5624C21.4149 14.5624 21.3194 14.5624 21.2429 14.5624C20.4405 14.5051 19.6189 14.2758 18.9502 13.8555C18.4535 13.5498 18.0331 13.1104 17.7848 12.5754C17.46 11.8494 17.46 11.0278 17.6128 10.2445C17.6128 10.1489 17.4982 10.1107 17.4791 10.2062C17.2307 11.5055 17.4408 12.862 18.5299 13.7409C19.2368 14.314 20.173 14.6006 21.071 14.6962C21.1856 14.6962 21.5104 14.7917 21.606 14.6962C21.6824 14.6197 21.6824 14.2949 21.6824 14.1803C21.7015 13.951 21.7206 13.7218 21.7015 13.4925C21.7015 13.1486 21.6442 12.8047 21.5486 12.4608C21.2621 11.429 20.4596 10.703 19.447 10.3782C18.8547 10.1871 18.1669 10.1107 17.5364 10.168C17.4408 10.168 17.4408 10.3209 17.5364 10.3209V10.2827Z" fill="#0565AD"/>
<path d="M21.8736 17.6C22.1411 15.0971 20.8992 12.6515 18.7211 11.3905C18.6447 11.3523 18.5683 11.4669 18.6447 11.5051C20.7655 12.747 21.9882 15.1353 21.7208 17.6C21.7208 17.6955 21.8545 17.6955 21.8736 17.6Z" fill="#0565AD"/>
<path d="M17.0207 30.6307C20.5239 30.6307 23.3639 27.7908 23.3639 24.2875C23.3639 20.7843 20.5239 17.9443 17.0207 17.9443C13.5174 17.9443 10.6775 20.7843 10.6775 24.2875C10.6775 27.7908 13.5174 30.6307 17.0207 30.6307Z" fill="#C78700"/>
<path d="M22.676 21.5173C23.7841 23.8865 23.3256 26.7524 21.4914 28.6248C19.6572 30.4972 16.7531 31.0321 14.3648 29.9049C11.9957 28.7967 10.5436 26.2365 10.792 23.619C11.0404 21.0015 12.951 18.7852 15.4921 18.1356C18.0332 17.486 20.7463 18.5177 22.1983 20.6767C22.3894 20.9442 22.5422 21.2307 22.676 21.5173C22.7142 21.5938 22.8479 21.5173 22.7906 21.4409C21.6251 19.0336 19.0076 17.5624 16.3519 17.849C13.6961 18.1356 11.4416 20.1035 10.792 22.7019C10.1424 25.3003 11.2506 28.1089 13.5051 29.5801C15.7596 31.0704 18.7974 30.9366 20.9373 29.2935C23.0772 27.6504 23.937 24.8609 23.1727 22.3389C23.0772 22.0332 22.9626 21.7275 22.8097 21.4218C22.7715 21.3454 22.6378 21.4218 22.6951 21.4982L22.676 21.5173Z" fill="#0565AD"/>
<path d="M17.7658 30.4208C21.2691 30.4208 24.109 27.5808 24.109 24.0776C24.109 20.5743 21.2691 17.7344 17.7658 17.7344C14.2626 17.7344 11.4226 20.5743 11.4226 24.0776C11.4226 27.5808 14.2626 30.4208 17.7658 30.4208Z" fill="#FFB800"/>
<path d="M23.402 21.3259C24.5102 23.6951 24.0516 26.561 22.2175 28.4334C20.3833 30.3058 17.4792 30.8407 15.0909 29.7135C12.7027 28.6053 11.2506 26.0451 11.499 23.4276C11.7474 20.8101 13.658 18.5938 16.1991 17.9442C18.7211 17.2946 21.4532 18.3263 22.9053 20.4853C23.0963 20.7527 23.2492 21.0393 23.3829 21.3259C23.4211 21.4024 23.5549 21.3259 23.4976 21.2495C22.3321 18.8421 19.7146 17.371 17.0588 17.6576C14.384 17.9442 12.1295 19.9121 11.499 22.5105C10.8685 25.1089 11.9575 27.9175 14.212 29.3887C16.4666 30.8789 19.5044 30.7452 21.6443 29.1021C23.7842 27.459 24.6439 24.6695 23.8797 22.1475C23.7842 21.8418 23.6695 21.5361 23.5167 21.2304C23.4785 21.154 23.3447 21.2304 23.402 21.3068V21.3259Z" fill="#0565AD"/>
<path d="M17.0014 24.4975C18.1095 25.1089 19.2177 25.7203 20.3258 26.3508C20.3258 26.389 20.2876 26.389 20.2685 26.4081C20.001 26.5227 19.7336 26.6182 19.4661 26.7329C19.4088 26.752 19.3705 26.752 19.3132 26.7329C18.2815 26.1597 17.2498 25.5865 16.1989 24.9942C16.1416 24.956 16.1225 24.9369 16.0843 24.8796C16.0461 24.765 16.0079 24.6694 15.9506 24.5548C15.8932 24.4593 15.9123 24.4211 16.027 24.3828C16.2563 24.3064 16.4664 24.2109 16.6766 24.0963C16.9441 23.9625 17.1733 23.7906 17.3453 23.5231C17.5173 23.2747 17.5746 22.9881 17.4981 22.6824C17.479 22.5869 17.4408 22.5678 17.3644 22.606C16.7339 22.8735 16.1034 23.1218 15.4538 23.3893C15.3965 23.4084 15.3392 23.4275 15.2627 23.4658C15.3201 23.2174 15.3583 23.0072 15.3965 22.7779C15.3965 22.7206 15.4538 22.7206 15.492 22.7206C16.0079 22.5105 16.5237 22.3003 17.0396 22.0901C17.0778 22.0901 17.116 22.0901 17.1351 22.0328C17.1351 21.9946 17.0969 21.9755 17.0587 21.9564C16.753 21.7462 16.4282 21.7462 16.1034 21.8226C15.7022 21.9182 15.3392 22.0901 14.957 22.243C14.9188 22.243 14.8806 22.2812 14.8042 22.3003C14.8615 22.0519 14.8997 21.8417 14.9379 21.6125C14.9379 21.5743 14.9762 21.5743 14.9953 21.5551C16.1989 21.0584 17.3835 20.5807 18.5872 20.084C18.6254 20.1031 18.5872 20.1413 18.5872 20.1604C18.549 20.3324 18.5108 20.5043 18.4917 20.6763C18.4917 20.7527 18.4343 20.7909 18.3579 20.8291C18.0713 20.9438 17.7847 21.0584 17.4981 21.173C17.5746 21.2303 17.651 21.2686 17.7274 21.3259C17.823 21.4023 17.8994 21.4787 17.9567 21.5743C17.9949 21.6316 18.0331 21.6316 18.1095 21.6125C18.4343 21.4787 18.74 21.345 19.0839 21.2112C19.0457 21.3641 19.0075 21.4978 19.0075 21.6316C19.0075 21.8608 18.8929 21.9946 18.6636 22.0519C18.549 22.071 18.4343 22.1474 18.3388 22.1856C18.2815 22.1856 18.2624 22.2239 18.2815 22.2812C18.4152 22.9308 18.186 23.4466 17.7465 23.9052C17.5555 24.1154 17.3262 24.2682 17.0778 24.4019C17.0587 24.4019 17.0396 24.4211 17.0014 24.4402C17.0014 24.4402 17.0014 24.4402 17.0014 24.4593V24.4975Z" fill="white"/>
</g>
<defs>
<clipPath id="clip0_1202_5191">
<rect width="18.38" height="20.5199" fill="white" transform="translate(10.6201 10.1104)"/>
</clipPath>
</defs>
</svg>
