<svg width="652" height="652" viewBox="0 0 652 652" fill="none" xmlns="http://www.w3.org/2000/svg">
<rect width="652" height="652" fill="white"/>
<path d="M520.523 416.376C533.002 430.103 552.893 435.859 570.546 429.555C586.265 423.939 598.862 409.361 600.866 392.605C602.952 375.197 591.952 358.685 578.214 349.037C561.061 337 539.271 335.194 519.218 339.564C496.81 344.446 476.978 356.564 458.439 369.592C438.233 383.784 418.401 398.513 398.406 412.997C388.548 420.14 378.748 427.364 368.809 434.368C359.615 440.846 350.176 447.057 340.155 452.184C324.693 460.096 306.958 465.701 289.421 465.165C280.169 464.885 270.917 462.613 263.121 457.486C255.326 452.359 249.919 445.181 246.563 436.814C241.844 425.022 241.145 411.622 242.916 399.131C243.067 398.105 243.219 397.068 243.429 396.054C243.545 395.507 242.695 395.274 242.59 395.821C240.749 404.969 240.725 414.745 242.182 423.939C244.769 440.17 253.648 454.957 269.122 461.739C284.107 468.311 301.446 466.598 316.816 462.322C336.671 456.798 354.161 445.833 370.836 434.018C390.692 419.93 410.303 405.47 430.007 391.184C449.711 376.898 467.469 362.833 488.222 352.055C508.311 341.614 531.686 335.042 554.338 339.715C572.621 343.49 589.854 355.609 597.091 373.204C600.411 381.279 601.227 389.914 598.862 398.35C596.496 406.786 591.509 414.325 584.972 420.058C570.337 432.888 548.92 434.694 532.21 424.789C528.085 422.342 524.403 419.278 521.175 415.735C520.791 415.316 520.185 415.933 520.558 416.353L520.523 416.376Z" fill="#2B63A8"/>
<path d="M136.949 251.809C123.432 247.09 109.123 242.15 94.6043 244.154C84.6532 245.529 75.5061 250.411 68.2699 257.298C52.9587 271.863 46.3984 294.236 51.7701 314.674C57.4449 336.278 74.2476 353.884 94.0683 363.451C118.387 375.197 146.935 374.684 172.605 368.03C200.315 360.853 225.426 346.369 249.511 331.314C271.453 317.599 293.313 303.767 315.289 290.134C327.92 282.304 340.68 274.59 352.833 266.049C371.162 253.161 388.431 237.582 409.021 228.307C428.445 219.567 452.088 216.153 472.911 221.408C491.217 226.034 507.041 238.351 517.982 253.499C519.579 255.713 521.07 257.985 522.48 260.327C522.772 260.805 523.529 260.374 523.238 259.885C514.487 245.284 501.821 232.828 486.393 225.44C469.707 217.447 450.841 216.771 432.838 220.092C422.608 221.979 412.703 225.242 403.451 230.019C394.199 234.797 385.32 241.124 376.767 247.405C362.691 257.729 348.778 268.041 334.026 277.386C316.827 288.281 299.43 298.873 282.173 309.675C258.192 324.684 234.643 340.81 209.159 353.232C183.675 365.653 155.535 373.985 127.01 371.375C102.237 369.114 78.559 357.636 63.6672 337.315C56.7923 327.935 52.0731 316.853 50.9079 305.236C49.8242 294.399 52.2129 283.341 57.1652 273.669C62.0476 264.138 69.4818 255.771 78.8387 250.458C90.3396 243.921 103.344 243.501 116.045 246.333C123.083 247.906 129.899 250.26 136.704 252.637C137.24 252.823 137.462 251.984 136.937 251.798L136.949 251.809Z" fill="#2B63A8"/>
<path d="M213.525 175.616L130.643 211.706C121.314 215.768 117.045 226.623 121.107 235.952L192.259 399.356C196.321 408.684 207.176 412.954 216.504 408.892L299.387 372.802C308.715 368.74 312.985 357.885 308.923 348.556L237.771 185.152C233.709 175.824 222.854 171.554 213.525 175.616Z" fill="#2B63A8"/>
<path d="M299.15 372.435L279.155 381.139L241.075 397.72C232.965 401.251 224.866 404.805 216.745 408.312C209.543 411.424 201.142 409.967 195.794 404.071C193.929 402.02 192.834 399.62 191.75 397.138L183.326 377.771L168.713 344.224L151.724 305.2L135.795 268.623L124.598 242.918L121.906 236.743C119.948 232.245 119.366 227.432 120.997 222.701C122.628 217.97 126.264 214.137 130.855 212.098C131.391 211.865 131.927 211.632 132.463 211.399L143.113 206.761L179.725 190.82L210.371 177.478C213.901 175.94 217.257 174.46 221.242 174.542C228.467 174.694 234.654 179.191 237.521 185.728C239.665 190.634 241.797 195.551 243.93 200.457L257.388 231.359L274.109 269.765L290.644 307.729L303.322 336.837C305.058 340.822 306.829 344.784 308.519 348.78C312.376 357.904 308.146 368.403 299.139 372.435C298.626 372.668 299.069 373.413 299.582 373.192C308.484 369.207 313.098 358.848 309.777 349.596C309.288 348.233 308.647 346.904 308.064 345.564L298.801 324.299L283.641 289.47L266.314 249.677L250.537 213.449L240.178 189.644C239.525 188.14 238.873 186.637 238.22 185.134C235.284 178.446 228.782 173.901 221.441 173.668C217.397 173.54 213.913 174.985 210.324 176.546L197.973 181.93L159.741 198.569L131.822 210.723C126.823 212.902 122.71 216.223 120.566 221.396C118.422 226.57 118.853 231.895 121.009 236.859L128.221 253.417L142.332 285.834L159.543 325.359L175.996 363.148L187.987 390.694C190.259 395.914 192.205 402.195 196.551 406.075C202.191 411.097 210.138 412.134 217.001 409.163C219.716 407.986 222.419 406.809 225.134 405.621L260.686 390.135L294.128 375.569L299.593 373.192C300.106 372.971 299.663 372.213 299.15 372.435Z" fill="#2B63A8"/>
<path d="M219.614 172.961L136.731 209.051C127.402 213.113 123.133 223.968 127.195 233.297L198.347 396.701C202.409 406.03 213.264 410.299 222.592 406.237L305.475 370.147C314.803 366.085 319.073 355.23 315.011 345.902L243.859 182.497C239.797 173.169 228.942 168.9 219.614 172.961Z" fill="white"/>
<path d="M305.245 369.778L285.249 378.483L247.169 395.064C239.059 398.595 230.961 402.149 222.839 405.656C215.638 408.767 207.236 407.311 201.888 401.414C200.023 399.364 198.928 396.963 197.845 394.481L189.42 375.115L174.808 341.568L157.819 302.544L141.89 265.967L130.692 240.262L128 234.086C126.042 229.588 125.46 224.776 127.091 220.045C128.746 215.279 132.358 211.48 136.949 209.441C137.485 209.208 138.021 208.975 138.557 208.742L149.207 204.104L185.819 188.164L216.465 174.822C219.996 173.284 223.352 171.804 227.337 171.886C234.561 172.037 240.749 176.535 243.615 183.072C245.759 187.978 247.892 192.895 250.024 197.801L263.482 228.703L280.204 267.109L296.738 305.072L309.416 334.18C311.152 338.165 312.924 342.127 314.613 346.124C318.47 355.248 314.24 365.746 305.233 369.778C304.72 370.011 305.163 370.757 305.676 370.536C314.578 366.551 319.193 356.192 315.872 346.94C315.382 345.576 314.741 344.248 314.159 342.908L304.895 321.642L289.735 286.813L272.408 247.02L256.631 210.793L246.272 186.987C245.619 185.484 244.967 183.981 244.314 182.478C241.378 175.789 234.887 171.245 227.535 171C223.491 170.872 220.007 172.317 216.418 173.878L204.067 179.262L165.835 195.901L137.916 208.055C132.917 210.234 128.804 213.555 126.66 218.728C124.516 223.902 124.947 229.227 127.103 234.191L134.316 250.749L148.427 283.166L165.637 322.691L182.09 360.48L194.081 388.026C196.353 393.246 198.299 399.527 202.645 403.407C208.285 408.429 216.232 409.466 223.095 406.495C225.81 405.318 228.514 404.141 231.229 402.953L266.78 387.467L300.222 372.901L305.687 370.524C306.2 370.303 305.757 369.545 305.245 369.767V369.778Z" fill="#2B63A8"/>
<path d="M219.467 180.851L143.935 213.741C134.606 217.802 130.337 228.658 134.399 237.986L200.141 388.965C204.202 398.294 215.057 402.563 224.386 398.501L299.918 365.612C309.247 361.55 313.516 350.695 309.454 341.366L243.712 190.387C239.651 181.059 228.796 176.789 219.467 180.851Z" fill="white"/>
<path d="M299.698 365.245L280.984 373.39L245.759 388.725C238.628 391.836 231.508 394.994 224.354 398.047C217.199 401.1 208.029 399.212 202.937 392.78C201.48 390.939 200.583 388.865 199.662 386.756L191.704 368.462L178.14 337.303L162.34 301.006L147.611 267.191L137.473 243.897L135.108 238.467C132.999 233.632 132.684 228.295 134.84 223.389C136.996 218.484 140.946 215.512 145.677 213.45L155.64 209.115L189.758 194.258L217.292 182.268C221.184 180.578 225.041 179.285 229.411 179.926C235.796 180.858 240.958 185.111 243.51 190.961C245.549 195.622 247.565 200.283 249.604 204.943L262.119 233.678L277.745 269.568L292.951 304.49L304.58 331.186C306.2 334.914 308.03 338.62 309.451 342.442C312.784 351.391 308.367 361.377 299.733 365.245C299.22 365.479 299.663 366.224 300.176 366.003C308.274 362.367 312.935 353.442 311.036 344.714C310.593 342.698 309.742 340.869 308.938 338.993L300.63 319.918L286.647 287.804L270.532 250.796L255.838 217.05L246.132 194.771C245.491 193.314 244.862 191.846 244.221 190.39C241.564 184.342 236.041 179.996 229.469 179.075C225.099 178.458 221.184 179.658 217.269 181.359L206.421 186.078L171.242 201.389L145.129 212.762C140.433 214.801 136.483 217.854 134.257 222.608C131.857 227.759 131.997 233.457 134.234 238.619C136.355 243.513 138.499 248.407 140.62 253.289L153.554 282.991L169.471 319.556L184.84 354.84L196.097 380.697C198.136 385.369 199.895 390.986 203.496 394.714C208.984 400.401 217.502 401.939 224.703 398.839C226.894 397.895 229.073 396.94 231.252 395.984L263.727 381.838L294.979 368.228L300.164 365.968C300.677 365.747 300.234 364.989 299.721 365.211L299.698 365.245Z" fill="#2B63A8"/>
<path d="M244.629 232.163H307.459C319.682 232.163 329.692 242.173 329.692 254.396V294.911C329.692 303.919 324.262 311.702 316.513 315.187L316.431 324.916C316.396 329.065 311.793 331.535 308.309 329.274L289.689 317.144H244.629C232.406 317.144 222.396 307.135 222.396 294.911V254.396C222.396 242.173 232.406 232.163 244.629 232.163Z" fill="#2B63A8"/>
<path d="M244.629 232.594H301.702C304.336 232.594 307.051 232.443 309.673 232.711C318.633 233.608 326.336 240.285 328.573 249.001C329.563 252.835 329.249 256.971 329.249 260.898V293.443C329.249 295.331 329.214 297.195 328.853 299.06C327.944 303.709 325.497 307.962 321.978 311.12C320.276 312.646 318.354 313.87 316.28 314.825C316.14 314.884 316.07 315.058 316.058 315.198L315.988 323.67C315.977 325.324 315.907 326.886 314.683 328.179C313.017 329.938 310.477 330.102 308.472 328.866C303.439 325.779 298.568 322.411 293.627 319.195L290.668 317.272C290.33 317.051 290.038 316.795 289.642 316.713C288.43 316.457 286.881 316.713 285.645 316.713H247.146C245.503 316.713 243.848 316.76 242.205 316.585C236.927 316.002 231.986 313.415 228.444 309.489C224.902 305.562 222.874 300.295 222.827 294.923C222.827 293.688 222.827 292.453 222.827 291.218V271.047C222.827 265.664 222.827 260.28 222.827 254.897C222.827 245.715 228.292 237.255 236.997 233.993C239.444 233.072 242.007 232.629 244.617 232.606C245.177 232.606 245.177 231.732 244.617 231.732C235.214 231.814 226.661 237.721 223.363 246.554C221.604 251.238 221.953 256.214 221.953 261.119C221.953 272.352 221.884 283.597 221.953 294.83C222.012 303.523 227.011 311.609 234.899 315.373C239.642 317.634 244.501 317.587 249.581 317.587C262.038 317.587 274.494 317.587 286.951 317.587H289.048C289.339 317.587 289.852 317.703 289.514 317.552C290.12 317.82 290.703 318.333 291.262 318.694L294.781 320.989C299.255 323.903 303.637 327.107 308.263 329.764C311.712 331.745 316.256 329.705 316.816 325.685C317.188 323.017 316.92 320.15 316.944 317.47C316.944 316.899 316.874 316.27 316.955 315.699C316.967 315.618 316.909 315.326 316.955 315.245C316.769 315.524 318.086 314.919 318.214 314.849C320.393 313.672 322.385 312.122 324.063 310.316C327.338 306.797 329.435 302.276 329.983 297.51C330.472 293.28 330.134 288.852 330.134 284.599V263.73C330.134 259.523 330.507 255.072 329.855 250.9C328.421 241.683 321.092 234.039 311.945 232.198C308.472 231.499 304.779 231.744 301.26 231.744H244.629C244.07 231.744 244.07 232.618 244.629 232.618V232.594Z" fill="#2B63A8"/>
<path d="M253.228 231.091H316.058C328.281 231.091 338.291 241.101 338.291 253.324V293.839C338.291 302.847 332.861 310.63 325.112 314.115L325.03 323.844C324.995 327.993 320.393 330.463 316.909 328.202L298.288 316.072H253.228C241.005 316.072 230.996 306.063 230.996 293.839V253.324C230.996 241.101 241.005 231.091 253.228 231.091Z" fill="#DFFBFF"/>
<path d="M253.228 231.522H310.302C312.935 231.522 315.65 231.371 318.272 231.639C327.233 232.536 334.935 239.213 337.172 247.929C338.163 251.763 337.848 255.899 337.848 259.826V292.371C337.848 294.259 337.813 296.123 337.452 297.988C336.543 302.637 334.096 306.89 330.577 310.048C328.876 311.574 326.953 312.798 324.879 313.753C324.739 313.812 324.669 313.986 324.657 314.126L324.588 322.598C324.576 324.252 324.506 325.814 323.283 327.107C321.616 328.867 319.076 329.03 317.072 327.795C312.038 324.707 307.167 321.339 302.227 318.123L299.267 316.2C298.929 315.979 298.638 315.723 298.242 315.641C297.03 315.385 295.48 315.641 294.245 315.641H255.745C254.102 315.641 252.448 315.688 250.805 315.513C245.526 314.93 240.585 312.344 237.043 308.417C233.501 304.49 231.473 299.223 231.427 293.851C231.427 292.616 231.427 291.381 231.427 290.146V269.975C231.427 264.592 231.427 259.209 231.427 253.825C231.427 244.643 236.892 236.183 245.596 232.921C248.043 232 250.607 231.557 253.217 231.534C253.776 231.534 253.776 230.66 253.217 230.66C243.813 230.742 235.26 236.65 231.963 245.482C230.203 250.166 230.553 255.142 230.553 260.048C230.553 271.28 230.483 282.525 230.553 293.758C230.611 302.451 235.61 310.537 243.499 314.301C248.241 316.562 253.1 316.515 258.181 316.515H297.647C297.939 316.515 298.451 316.632 298.113 316.48C298.719 316.748 299.302 317.261 299.861 317.622L303.38 319.918C307.855 322.831 312.236 326.035 316.862 328.692C320.311 330.673 324.856 328.634 325.415 324.613C325.788 321.945 325.52 319.079 325.543 316.399C325.543 315.828 325.473 315.198 325.555 314.627C325.566 314.546 325.508 314.254 325.555 314.173C325.368 314.453 326.685 313.847 326.813 313.777C328.992 312.6 330.985 311.05 332.663 309.244C335.937 305.725 338.034 301.204 338.582 296.438C339.071 292.208 338.734 287.78 338.734 283.527V262.658C338.734 258.451 339.106 254 338.454 249.828C337.021 240.611 329.691 232.967 320.544 231.126C317.072 230.427 313.378 230.672 309.859 230.672C303.765 230.672 297.671 230.672 291.576 230.672H253.228C252.669 230.672 252.669 231.546 253.228 231.546V231.522Z" fill="#2B63A8"/>
<path d="M304.965 276.396C306.458 276.396 307.668 275.185 307.668 273.692C307.668 272.199 306.458 270.989 304.965 270.989C303.472 270.989 302.262 272.199 302.262 273.692C302.262 275.185 303.472 276.396 304.965 276.396Z" fill="#231F20"/>
<path d="M285.925 276.396C287.418 276.396 288.628 275.185 288.628 273.692C288.628 272.199 287.418 270.989 285.925 270.989C284.432 270.989 283.222 272.199 283.222 273.692C283.222 275.185 284.432 276.396 285.925 276.396Z" fill="#231F20"/>
<path d="M266.885 276.396C268.378 276.396 269.588 275.185 269.588 273.692C269.588 272.199 268.378 270.989 266.885 270.989C265.392 270.989 264.182 272.199 264.182 273.692C264.182 275.185 265.392 276.396 266.885 276.396Z" fill="#231F20"/>
<path d="M448.134 238.952L371.19 415.658C367.128 424.986 371.397 435.841 380.726 439.903L471.482 479.422C480.811 483.483 491.666 479.214 495.728 469.886L572.671 293.18C576.733 283.852 572.464 272.997 563.136 268.935L472.379 229.416C463.051 225.355 452.196 229.624 448.134 238.952Z" fill="#2B63A8"/>
<path d="M380.496 440.264L402.379 449.795L444.083 467.95L470.709 479.544C477.607 482.55 485.507 481.711 491.264 476.689C493.932 474.358 495.528 471.399 496.903 468.229L505.911 447.535L521.77 411.121L540.414 368.298L557.752 328.47L569.859 300.668L572.667 294.212C574.858 289.179 575.324 283.749 573.18 278.587C571.316 274.089 567.773 270.511 563.334 268.531C562.751 268.274 562.169 268.029 561.586 267.773L550.038 262.751L509.721 245.202L476.279 230.637C472.876 229.157 469.602 227.607 465.792 227.444C457.949 227.106 450.772 231.814 447.649 238.933C445.365 244.119 443.128 249.316 440.867 254.513L426.337 287.885L407.996 330.009L389.934 371.503L376.22 402.999C374.355 407.287 372.398 411.54 370.626 415.863C366.781 425.267 371.291 436.15 380.508 440.275C381.02 440.508 381.463 439.751 380.95 439.518C371.908 435.463 367.725 424.941 371.605 415.794C372.2 414.395 372.817 412.997 373.435 411.599L383.922 387.502L400.317 349.853L418.751 307.519L435.355 269.37L446.297 244.224C446.996 242.616 447.695 240.996 448.406 239.388C451.82 231.604 460.163 226.931 468.611 228.668C471.525 229.274 474.298 230.719 477.013 231.895L491.427 238.176L532.373 256.004L561.446 268.659C562.122 268.95 562.809 269.241 563.485 269.556C568.484 271.933 572.143 276.536 573.355 281.931C574.334 286.3 573.401 290.449 571.665 294.434L563.171 313.94L547.848 349.142L529.553 391.16L512.156 431.128L499.479 460.236C497.078 465.747 495.016 472.552 490.238 476.456C485.939 479.963 480.089 481.315 474.694 480.022C473.284 479.684 471.967 479.136 470.639 478.565L460.338 474.079L421.559 457.194L386.567 441.953L380.985 439.518C380.473 439.296 380.03 440.054 380.543 440.275L380.496 440.264Z" fill="#2B63A8"/>
<path d="M441.625 236.116L364.681 412.821C360.619 422.15 364.889 433.005 374.217 437.067L464.974 476.585C474.302 480.647 485.157 476.378 489.219 467.05L566.163 290.344C570.225 281.016 565.955 270.161 556.627 266.099L465.87 226.58C456.542 222.518 445.687 226.788 441.625 236.116Z" fill="white"/>
<path d="M373.994 437.432L395.877 446.964L437.581 465.118L464.207 476.712C471.105 479.718 479.005 478.879 484.761 473.857C487.43 471.527 489.026 468.567 490.401 465.398L499.409 444.703L515.267 408.289L533.911 365.467L551.25 325.639L563.357 297.836L566.165 291.381C568.356 286.347 568.822 280.917 566.678 275.755C564.813 271.257 561.271 267.68 556.832 265.699C556.249 265.443 555.666 265.198 555.084 264.941L543.536 259.919L503.219 242.371L469.776 227.805C466.374 226.325 463.1 224.776 459.289 224.613C451.447 224.275 444.269 228.982 441.147 236.102C438.863 241.287 436.625 246.484 434.365 251.681L419.834 285.054L401.493 327.177L383.432 368.671L369.717 400.168C367.853 404.456 365.895 408.709 364.124 413.032C360.279 422.435 364.788 433.319 374.005 437.444C374.518 437.677 374.961 436.919 374.448 436.686C365.406 432.631 361.223 422.109 365.103 412.962C365.697 411.564 366.315 410.165 366.932 408.767L377.42 384.67L393.814 347.021L412.249 304.688L428.853 266.538L439.795 241.392C440.494 239.784 441.193 238.164 441.904 236.556C445.318 228.772 453.661 224.1 462.109 225.836C465.022 226.442 467.796 227.887 470.511 229.064L484.925 235.344L525.871 253.173L554.944 265.827C555.62 266.118 556.307 266.41 556.983 266.724C561.982 269.101 565.641 273.704 566.853 279.099C567.831 283.469 566.899 287.617 565.163 291.602L556.668 311.108L541.345 346.31L523.051 388.329L505.654 428.296L492.976 457.404C490.576 462.916 488.513 469.721 483.736 473.624C479.436 477.132 473.587 478.483 468.192 477.19C466.782 476.852 465.465 476.304 464.137 475.733L453.836 471.247L415.057 454.363L380.065 439.121L374.483 436.686C373.97 436.465 373.528 437.222 374.04 437.444L373.994 437.432Z" fill="#2B63A8"/>
<path d="M441.777 244.534L370.606 407.981C366.544 417.31 370.814 428.165 380.142 432.226L463.046 468.326C472.375 472.388 483.23 468.118 487.292 458.79L558.462 295.343C562.524 286.014 558.255 275.159 548.926 271.098L466.022 234.998C456.694 230.936 445.839 235.206 441.777 244.534Z" fill="white"/>
<path d="M379.913 432.596L400.386 441.51L439.235 458.43C447.031 461.82 454.803 465.235 462.61 468.602C469.8 471.702 478.259 470.303 483.817 464.675C485.95 462.508 487.255 459.921 488.443 457.183L496.961 437.63L511.795 403.558L529.087 363.847L545.121 327.025L556.144 301.693L558.567 296.135C560.84 290.915 561.061 285.182 558.626 279.961C556.342 275.079 552.275 272.073 547.486 269.999L536.579 265.244L499.199 248.966L468.891 235.776C465.104 234.121 461.387 232.723 457.122 233.084C450.095 233.678 444.094 238.153 441.274 244.561C439.119 249.467 436.998 254.384 434.866 259.29L421.267 290.53L404.185 329.775L387.452 368.205L374.902 397.021L371.348 405.201C370.638 406.821 369.857 408.452 369.368 410.154C366.781 419.161 371.442 428.786 379.936 432.596C380.449 432.829 380.892 432.072 380.379 431.839C371.372 427.795 367.142 417.297 371.011 408.161C371.512 406.961 372.048 405.784 372.56 404.595L382.069 382.747L397.193 348L414.311 308.696L429.75 273.238L440.028 249.619C440.704 248.069 441.368 246.531 442.044 244.981C445.062 238.094 451.867 233.562 459.452 233.888C463.088 234.039 466.199 235.519 469.45 236.941L482.314 242.546L520.138 259.01L547.3 270.838C547.894 271.094 548.5 271.35 549.082 271.618C553.802 273.809 557.402 277.969 558.847 282.968C560.164 287.512 559.441 291.998 557.589 296.24L549.968 313.73L535.869 346.124L518.903 385.089L502.741 422.202L490.855 449.504C488.723 454.409 486.847 460.515 482.943 464.314C477.502 469.616 469.532 470.641 462.692 467.67L453.906 463.848L418.354 448.374L385.693 434.158L380.367 431.839C379.855 431.617 379.412 432.375 379.925 432.596H379.913Z" fill="#2B63A8"/>
<path d="M382.022 381.698H444.025C456.097 381.698 465.966 371.829 465.966 359.757V319.952C465.966 307.88 456.097 298.011 444.025 298.011H400.503L383.992 287.256C380.566 285.018 376.021 287.454 375.975 291.555L375.905 298.896C366.781 301.565 360.069 310.001 360.069 319.952V359.757C360.069 371.829 369.939 381.698 382.011 381.698H382.022Z" fill="#2B63A8"/>
<path d="M382.022 382.141H440.331C442.498 382.141 444.701 382.234 446.856 381.955C453.533 381.104 459.581 377.142 463.1 371.421C465.535 367.459 466.397 363.078 466.397 358.487V320.966C466.397 316.142 465.314 311.528 462.575 307.484C458.753 301.833 452.461 298.139 445.644 297.638C443.291 297.463 440.879 297.58 438.525 297.58H409.417C406.551 297.58 403.661 297.486 400.806 297.58C400.456 297.58 400.561 297.556 400.666 297.603C400.258 297.417 399.874 297.09 399.501 296.846L394.036 293.292C390.773 291.171 387.569 288.957 384.248 286.918C382.139 285.624 379.505 285.694 377.559 287.291C375.613 288.887 375.532 290.949 375.52 293.175L375.474 298.908L375.8 298.489C366.688 301.239 360.023 309.535 359.661 319.113C359.51 323.063 359.65 327.037 359.65 330.975V351.286C359.65 355.527 359.254 360.106 360.116 364.29C362.237 374.602 371.582 382.048 382.034 382.141C382.593 382.141 382.593 381.267 382.034 381.267C372.374 381.174 363.716 374.59 361.234 365.21C360.162 361.178 360.535 356.739 360.535 352.591C360.535 341.859 360.512 331.115 360.535 320.383C360.559 310.689 366.723 302.147 376.056 299.328C376.243 299.269 376.371 299.106 376.383 298.908L376.429 293.175C376.429 292.418 376.394 291.637 376.511 290.88C376.79 289.038 378.154 287.524 379.948 287.034C381.929 286.487 383.467 287.419 385.029 288.444L390.249 291.847L396.46 295.89C397.648 296.659 398.86 297.696 400.153 298.29C400.573 298.489 400.899 298.454 401.377 298.454H442.894C447.567 298.454 451.983 299.432 455.922 302.043C461.911 306.016 465.5 312.798 465.558 319.964C465.582 322.236 465.558 324.508 465.558 326.792V354.758C465.558 357.438 465.733 360.223 465.337 362.891C464.288 369.999 459.581 376.268 453.067 379.298C447.113 382.06 440.005 381.291 433.596 381.291H382.057C381.498 381.291 381.498 382.164 382.057 382.164L382.022 382.141Z" fill="#2B63A8"/>
<path d="M373.924 381.698H435.926C447.998 381.698 457.868 371.829 457.868 359.757V319.952C457.868 307.88 447.998 298.011 435.926 298.011H392.405L375.893 287.256C372.468 285.018 367.923 287.454 367.876 291.555L367.807 298.896C358.683 301.565 351.971 310.001 351.971 319.952V359.757C351.971 371.829 361.841 381.698 373.912 381.698H373.924Z" fill="#DFFBFF"/>
<path d="M373.924 382.141H432.233C434.4 382.141 436.602 382.234 438.758 381.955C445.435 381.104 451.482 377.142 455.001 371.421C457.437 367.459 458.299 363.078 458.299 358.487V320.966C458.299 316.142 457.215 311.528 454.477 307.484C450.655 301.833 444.363 298.139 437.546 297.638C435.192 297.463 432.78 297.58 430.426 297.58H401.319C398.452 297.58 395.562 297.486 392.708 297.58C392.358 297.58 392.463 297.556 392.568 297.603C392.16 297.417 391.775 297.09 391.403 296.846L385.938 293.292C382.675 291.171 379.471 288.957 376.15 286.918C374.04 285.624 371.407 285.694 369.461 287.291C367.515 288.887 367.434 290.949 367.422 293.175L367.375 298.908L367.702 298.489C358.589 301.239 351.924 309.535 351.563 319.113C351.412 323.063 351.551 327.037 351.551 330.975V351.286C351.551 355.527 351.155 360.106 352.017 364.29C354.138 374.602 363.483 382.048 373.936 382.141C374.495 382.141 374.495 381.267 373.936 381.267C364.276 381.174 355.618 374.59 353.136 365.21C352.064 361.178 352.437 356.739 352.437 352.591C352.437 341.859 352.414 331.115 352.437 320.383C352.46 310.689 358.624 302.147 367.958 299.328C368.144 299.269 368.273 299.106 368.284 298.908L368.331 293.175C368.331 292.418 368.296 291.637 368.412 290.88C368.692 289.038 370.055 287.524 371.85 287.034C373.831 286.487 375.369 287.419 376.93 288.444L382.151 291.847L388.361 295.89C389.55 296.659 390.762 297.696 392.055 298.29C392.475 298.489 392.801 298.454 393.279 298.454H434.796C439.469 298.454 443.885 299.432 447.823 302.043C453.813 306.016 457.402 312.798 457.46 319.964C457.483 322.236 457.46 324.508 457.46 326.792V354.758C457.46 357.438 457.635 360.223 457.239 362.891C456.19 369.999 451.482 376.268 444.969 379.298C439.014 382.06 431.906 381.291 425.497 381.291H373.959C373.4 381.291 373.4 382.164 373.959 382.164L373.924 382.141Z" fill="#2B63A8"/>
<path d="M425.824 340.519C427.066 340.519 428.073 339.512 428.073 338.27C428.073 337.028 427.066 336.021 425.824 336.021C424.582 336.021 423.575 337.028 423.575 338.27C423.575 339.512 424.582 340.519 425.824 340.519Z" fill="#231F20"/>
<path d="M409.977 340.519C411.219 340.519 412.226 339.512 412.226 338.27C412.226 337.028 411.219 336.021 409.977 336.021C408.735 336.021 407.728 337.028 407.728 338.27C407.728 339.512 408.735 340.519 409.977 340.519Z" fill="#231F20"/>
<path d="M394.129 340.519C395.371 340.519 396.378 339.512 396.378 338.27C396.378 337.028 395.371 336.021 394.129 336.021C392.887 336.021 391.88 337.028 391.88 338.27C391.88 339.512 392.887 340.519 394.129 340.519Z" fill="#231F20"/>
<path d="M118.62 255.655C123.234 255.655 126.975 251.914 126.975 247.3C126.975 242.686 123.234 238.945 118.62 238.945C114.006 238.945 110.265 242.686 110.265 247.3C110.265 251.914 114.006 255.655 118.62 255.655Z" fill="#B2CD80"/>
<path d="M126.532 247.3C126.485 250.609 124.434 253.627 121.288 254.757C118.142 255.888 114.611 254.886 112.514 252.334C110.417 249.782 110.137 246.076 111.826 243.245C113.516 240.413 116.872 238.898 120.111 239.528C123.84 240.25 126.485 243.548 126.543 247.3C126.543 247.859 127.429 247.859 127.417 247.3C127.371 243.664 125.145 240.378 121.743 239.085C118.34 237.791 114.192 238.852 111.838 241.742C109.484 244.631 109.205 248.663 111.081 251.809C112.957 254.955 116.651 256.598 120.239 255.946C124.399 255.2 127.371 251.471 127.429 247.311C127.429 246.752 126.567 246.752 126.555 247.311L126.532 247.3Z" fill="#2B63A8"/>
<path d="M510.513 255.002C515.127 255.002 518.868 251.261 518.868 246.647C518.868 242.033 515.127 238.292 510.513 238.292C505.899 238.292 502.158 242.033 502.158 246.647C502.158 251.261 505.899 255.002 510.513 255.002Z" fill="#B2CD80"/>
<path d="M518.425 246.647C518.379 249.956 516.328 252.974 513.182 254.105C510.036 255.235 506.505 254.233 504.407 251.681C502.31 249.129 502.03 245.424 503.72 242.592C505.41 239.761 508.765 238.246 512.005 238.875C515.734 239.598 518.379 242.895 518.437 246.647C518.437 247.207 519.322 247.207 519.311 246.647C519.264 243.012 517.039 239.726 513.636 238.432C510.234 237.139 506.085 238.199 503.732 241.089C501.378 243.979 501.098 248.011 502.974 251.157C504.85 254.303 508.544 255.946 512.133 255.293C516.293 254.548 519.264 250.819 519.322 246.659C519.322 246.1 518.46 246.1 518.449 246.659L518.425 246.647Z" fill="#2B63A8"/>
<path d="M242.986 404.304C247.6 404.304 251.341 400.564 251.341 395.949C251.341 391.335 247.6 387.595 242.986 387.595C238.372 387.595 234.631 391.335 234.631 395.949C234.631 400.564 238.372 404.304 242.986 404.304Z" fill="#B2CD80"/>
<path d="M250.898 395.949C250.851 399.259 248.801 402.277 245.654 403.407C242.508 404.537 238.978 403.535 236.88 400.983C234.783 398.431 234.503 394.726 236.193 391.894C237.882 389.063 241.238 387.548 244.478 388.177C248.206 388.9 250.851 392.197 250.91 395.949C250.91 396.509 251.795 396.509 251.784 395.949C251.737 392.314 249.511 389.028 246.109 387.735C242.706 386.441 238.558 387.501 236.204 390.391C233.851 393.281 233.571 397.313 235.447 400.459C237.323 403.605 241.017 405.248 244.606 404.596C248.766 403.85 251.737 400.121 251.795 395.961C251.795 395.402 250.933 395.402 250.921 395.961L250.898 395.949Z" fill="#2B63A8"/>
<path d="M520.301 425.698C524.916 425.698 528.656 421.957 528.656 417.343C528.656 412.729 524.916 408.988 520.301 408.988C515.687 408.988 511.947 412.729 511.947 417.343C511.947 421.957 515.687 425.698 520.301 425.698Z" fill="#B2CD80"/>
<path d="M528.213 417.343C528.167 420.652 526.116 423.67 522.97 424.801C519.824 425.931 516.293 424.929 514.196 422.377C512.098 419.825 511.818 416.12 513.508 413.288C515.198 410.457 518.554 408.942 521.793 409.571C525.522 410.293 528.167 413.591 528.225 417.343C528.225 417.902 529.111 417.902 529.099 417.343C529.052 413.708 526.827 410.422 523.424 409.128C520.022 407.835 515.873 408.895 513.52 411.785C511.166 414.675 510.886 418.706 512.762 421.853C514.638 424.999 518.332 426.642 521.921 425.989C526.081 425.243 529.052 421.515 529.111 417.355C529.111 416.795 528.248 416.795 528.237 417.355L528.213 417.343Z" fill="#2B63A8"/>
</svg>
