<svg width="40" height="40" viewBox="0 0 40 40" fill="none" xmlns="http://www.w3.org/2000/svg">
<rect width="40" height="40" fill="white"/>
<g clip-path="url(#clip0_1202_5268)">
<path d="M26.5758 14.1394C26.5758 13.7925 26.5758 13.4456 26.5642 13.0871C26.5642 12.9368 26.4833 12.9599 26.3907 12.9599C25.3269 12.9368 24.2747 12.8327 23.2455 12.5552C21.5804 12.1158 21.06 11.2023 19.8228 10.0113C19.7996 9.98813 18.7821 10.0113 18.7589 10.0113C18.5277 10.3003 18.2502 10.52 17.9611 10.7397C16.5041 11.8961 14.8505 12.5668 13.0235 12.8211C12.4107 12.9021 11.8094 12.9368 11.1965 12.9599C11.0809 12.9599 11.0462 12.983 11.0346 13.1102C11.0115 14.4747 10.9768 15.8276 11.0115 17.1921C11.0462 18.8803 11.2081 20.5686 11.74 22.1875C12.4338 24.292 13.6711 25.9802 15.4981 27.2291C16.4925 27.9113 17.5679 28.4201 18.6896 28.8248C18.7589 28.8479 19.7418 28.8942 19.8228 28.8711C21.1757 28.3854 21.5226 27.7147 22.6558 26.8244C24.1012 25.6911 25.1188 24.2457 25.7432 22.5228C26.1595 21.3665 26.3792 20.1639 26.4948 18.9382C26.5295 18.5797 26.5526 18.2212 26.5642 17.8628C26.622 16.6255 26.5989 15.3766 26.5758 14.1394Z" fill="#223838"/>
<path d="M27.6164 14.14C27.6164 13.7931 27.6164 13.4462 27.6049 13.0877C27.6049 12.9374 27.5239 12.9605 27.4314 12.9605C26.3676 12.9374 25.3153 12.8333 24.2862 12.5558C22.6211 12.1164 21.1757 11.2838 19.9384 10.1044C19.9153 10.0813 19.8806 10.0581 19.8806 10.0234H19.8112C19.5799 10.3125 19.3024 10.5322 19.0133 10.7519C17.5563 11.9083 15.9028 12.5789 14.0758 12.8333C13.4629 12.9143 12.8616 12.949 12.2488 12.9721C12.1331 12.9721 12.0984 12.9952 12.0869 13.1224C12.0637 14.4869 12.0291 15.8398 12.0637 17.2043C12.0984 18.8925 12.2603 20.5808 12.7922 22.1996C13.486 24.3042 14.7233 25.9924 16.5503 27.2413C17.5448 27.9235 18.6202 28.4323 19.7418 28.837C19.8112 28.8601 19.8806 28.8601 19.9499 28.837C21.3029 28.3513 22.5748 27.7269 23.708 26.825C25.1535 25.6918 26.171 24.2463 26.7954 22.5234C27.2117 21.3671 27.4314 20.1645 27.5471 18.9388C27.5818 18.5803 27.6049 18.2218 27.6164 17.8634C27.6743 16.6261 27.6511 15.3773 27.628 14.14H27.6164Z" fill="#DCEAC0"/>
<path d="M19.8458 28.8482C19.8458 28.8482 19.7764 28.8482 19.7418 28.8251C18.5045 28.3857 17.4638 27.8654 16.5503 27.2294C14.7464 25.9805 13.4744 24.2923 12.7806 22.1762C12.1909 20.3839 12.0868 18.5684 12.0521 17.1808C12.029 16.1054 12.0521 15.0185 12.0637 13.9662C12.0637 13.6771 12.0637 13.3881 12.0753 13.099C12.0753 12.9602 12.1331 12.9371 12.2487 12.9371C12.9078 12.9255 13.5091 12.8793 14.0757 12.7983C15.9374 12.5439 17.6025 11.8501 19.0133 10.7285L19.0826 10.6707C19.337 10.4741 19.5914 10.266 19.7996 10H19.8921C19.8921 10 19.9152 10.0578 19.9268 10.0694C19.9268 10.0694 19.9383 10.0694 19.9499 10.0809C21.1987 11.272 22.6557 12.1045 24.2861 12.5324C25.2112 12.7752 26.2404 12.914 27.4198 12.9255C27.4198 12.9255 27.4429 12.9255 27.4545 12.9255H27.4776C27.4776 12.9255 27.547 12.9255 27.5701 12.9487C27.5933 12.9718 27.6048 13.0065 27.6048 13.0643C27.6048 13.3765 27.6048 13.7118 27.6164 14.1165V14.3941C27.6395 15.5273 27.6626 16.6952 27.6048 17.8399C27.5817 18.2331 27.5586 18.58 27.5354 18.9038C27.4083 20.2682 27.1654 21.4361 26.7838 22.4884C26.1594 24.2229 25.1187 25.6683 23.6964 26.79C22.6673 27.611 21.43 28.2585 19.9383 28.802C19.9036 28.8136 19.869 28.8251 19.8343 28.8251L19.8458 28.8482ZM19.8111 10.0347C19.603 10.2891 19.3486 10.4972 19.0942 10.7054L19.0248 10.7632C17.6141 11.8848 15.9374 12.5902 14.0757 12.8446C13.5091 12.9255 12.9078 12.9602 12.2487 12.9833C12.1446 12.9833 12.1099 13.0065 12.1099 13.1221C12.1099 13.4112 12.1099 13.7003 12.0984 13.9894C12.0753 15.0416 12.0637 16.1286 12.0868 17.204C12.1215 18.5916 12.2256 20.407 12.8153 22.1993C13.5091 24.3039 14.7695 25.9921 16.5734 27.2294C17.4869 27.8538 18.5276 28.3742 19.7649 28.8251C19.8343 28.8482 19.8921 28.8482 19.9615 28.8251C21.4531 28.2932 22.6788 27.6341 23.708 26.8247C25.1303 25.703 26.1594 24.2576 26.7838 22.5347C27.1654 21.4824 27.4083 20.3145 27.5239 18.9616C27.5586 18.6378 27.5817 18.2909 27.5933 17.8978C27.6511 16.753 27.628 15.5851 27.6048 14.4519V14.1744C27.6048 13.7812 27.5933 13.4459 27.5933 13.1221C27.5933 13.0758 27.5933 13.0412 27.5701 13.0296C27.547 13.018 27.5239 13.0065 27.4892 13.0065C27.4776 13.0065 27.4545 13.0065 27.4429 13.0065C26.2519 12.9833 25.2228 12.8561 24.2977 12.6018C22.6557 12.1739 21.1987 11.3413 19.9499 10.1388C19.9499 10.1388 19.9499 10.1388 19.9383 10.1272C19.9152 10.1156 19.8921 10.0925 19.8921 10.0578H19.8343L19.8111 10.0347Z" fill="#0565AD"/>
<path d="M19.9383 25.2751C23.1953 25.2751 25.8356 22.6348 25.8356 19.3778C25.8356 16.1208 23.1953 13.4805 19.9383 13.4805C16.6813 13.4805 14.041 16.1208 14.041 19.3778C14.041 22.6348 16.6813 25.2751 19.9383 25.2751Z" fill="#AACD76"/>
<path d="M25.8473 19.3894C25.8473 21.8293 24.2862 24.061 21.9967 24.8936C19.684 25.7261 17.036 24.9977 15.4749 23.1128C13.9139 21.228 13.7173 18.4759 14.9777 16.3714C16.2381 14.2669 18.7589 13.1684 21.1757 13.654C23.5924 14.1397 25.4078 16.0939 25.7779 18.4875C25.8241 18.7881 25.8473 19.0888 25.8473 19.3894C25.8473 19.4472 25.9398 19.4472 25.9398 19.3894C25.9398 18.1637 25.5582 16.9496 24.8412 15.9436C24.1474 14.9722 23.1761 14.2206 22.0545 13.8159C19.7071 12.9486 17.0013 13.6887 15.4171 15.6082C13.8329 17.5277 13.6248 20.3145 14.9083 22.4537C16.1919 24.5814 18.7242 25.703 21.1641 25.2174C23.5693 24.7433 25.4888 22.7428 25.8704 20.3145C25.9166 20.0023 25.9398 19.7016 25.9398 19.3894C25.9398 19.3316 25.8588 19.3316 25.8473 19.3894Z" fill="#0565AD"/>
<path d="M23.523 16.6258C21.7885 17.9672 20.054 19.297 18.3195 20.6383C17.8569 20.1758 17.406 19.7248 16.9434 19.2623C16.4115 18.7303 15.6021 19.5513 16.1224 20.0833L17.8569 21.8178C18.0188 21.9796 18.3542 22.0606 18.5623 21.9103C20.4124 20.488 22.2626 19.0541 24.1127 17.6318C24.6909 17.1809 24.1127 16.1748 23.5345 16.6374L23.523 16.6258Z" fill="white"/>
</g>
<defs>
<clipPath id="clip0_1202_5268">
<rect width="17.16" height="19.8774" fill="white" transform="translate(11 10)"/>
</clipPath>
</defs>
</svg>
