<svg width="449" height="449" viewBox="0 0 449 449" fill="none" xmlns="http://www.w3.org/2000/svg">
<rect width="447.401" height="447.401" transform="translate(0.96582 0.859375)" fill="white"/>
<g clip-path="url(#clip0_1243_9769)">
<path d="M190.72 311.371H150.481C146.817 311.371 143.843 308.397 143.843 304.733V275.42C143.843 273.627 144.573 271.902 145.861 270.654L165.522 251.642C168.058 249.186 172.068 249.146 174.643 251.549L195.221 270.64C196.575 271.902 197.345 273.654 197.345 275.499V304.733C197.345 308.397 194.371 311.371 190.707 311.371H190.72Z" fill="#C5D8E3"/>
<path d="M253.874 311.372H213.635C209.97 311.372 206.997 308.398 206.997 304.734V247.541C206.997 245.749 207.727 244.023 209.015 242.775L228.676 223.763C231.212 221.307 235.221 221.268 237.797 223.671L258.375 242.761C259.729 244.023 260.499 245.775 260.499 247.62V304.734C260.499 308.398 257.525 311.372 253.861 311.372H253.874Z" fill="#C5D8E3"/>
<path d="M317.015 311.371H276.775C273.111 311.371 270.137 308.397 270.137 304.733V235.592C270.137 233.799 270.867 232.073 272.155 230.825L291.817 211.814C294.353 209.358 298.362 209.318 300.938 211.721L321.515 230.812C322.87 232.073 323.64 233.826 323.64 235.671V304.733C323.64 308.397 320.666 311.371 317.002 311.371H317.015Z" fill="url(#paint0_linear_1243_9769)"/>
<path d="M312.7 187.533C312.621 194.158 308.505 200.265 302.199 202.508C295.893 204.752 288.618 202.774 284.356 197.517C280.094 192.259 279.736 184.904 283.174 179.249C286.613 173.593 293.397 170.58 299.862 171.907C307.31 173.434 312.607 179.966 312.7 187.533C312.727 190.095 316.71 190.095 316.683 187.533C316.577 179.222 311.466 171.814 303.673 168.867C295.88 165.92 286.785 168.376 281.555 174.735C276.324 181.094 275.342 190.586 279.749 197.835C284.157 205.084 292.534 208.615 300.712 207.049C309.979 205.27 316.577 196.853 316.696 187.533C316.723 184.971 312.74 184.971 312.714 187.533H312.7Z" fill="#221F20"/>
<path d="M137.151 258.745C145.794 250.554 154.45 242.363 163.093 234.172C176.727 221.254 190.362 208.336 203.996 195.432C207.023 192.565 210.023 189.657 213.09 186.816C217.272 182.953 223.764 182.448 228.278 186.099C232.181 189.259 234.916 193.348 240.041 194.755C245.47 196.255 251.139 194.596 255.162 190.746C256.45 189.511 257.737 188.25 259.025 187.002C264.933 181.28 270.841 175.545 276.735 169.823L311.28 136.327L311.957 135.677C313.802 133.885 310.988 131.07 309.142 132.862C299.132 142.567 289.122 152.285 279.112 161.99L259.556 180.948L253.635 186.683C251.763 188.502 249.944 190.162 247.329 190.905C243.93 191.874 240.2 191.21 237.346 189.113C235.659 187.878 234.199 186.219 232.699 184.785C227.946 180.244 221.547 178.187 215.228 180.789C211.059 182.501 207.713 186.444 204.487 189.498C191.464 201.831 178.44 214.165 165.416 226.511C155.22 236.163 145.037 245.815 134.841 255.466L134.324 255.957C132.465 257.723 135.28 260.538 137.138 258.772L137.151 258.745Z" fill="#221F20"/>
<path d="M289.866 136.473H310.908L308.917 134.482V154.528C308.917 157.091 312.899 157.091 312.899 154.528V134.482C312.899 133.406 311.983 132.49 310.908 132.49H289.866C287.303 132.49 287.303 136.473 289.866 136.473Z" fill="#221F20"/>
<path d="M299.132 179.926C299.61 180.563 299.915 181.24 300.074 181.984C300.114 182.156 300.247 182.09 300.34 182.09C301.057 182.09 301.774 182.09 302.491 182.09C303.022 182.09 303.168 182.236 303.168 182.78C303.168 183.205 303.168 183.63 303.168 184.055C303.168 184.453 303.008 184.612 302.597 184.612C301.867 184.612 301.136 184.612 300.42 184.612C300.22 184.612 300.141 184.652 300.101 184.851C299.596 187.307 298.03 188.755 295.693 189.471C295.162 189.631 294.618 189.724 294.047 189.83C294.485 190.308 294.91 190.759 295.322 191.224C296.755 192.844 298.163 194.49 299.517 196.176C299.981 196.76 300.459 197.331 300.937 197.902C301.07 198.061 301.123 198.234 301.03 198.433C300.937 198.632 300.778 198.725 300.552 198.725C299.61 198.725 298.654 198.725 297.711 198.725C297.446 198.725 297.3 198.579 297.154 198.419C296.596 197.756 296.052 197.079 295.494 196.428C294.578 195.353 293.649 194.277 292.719 193.202C291.777 192.113 290.808 191.038 289.825 189.989C289.666 189.83 289.6 189.657 289.6 189.418C289.613 188.861 289.6 188.303 289.6 187.759C289.6 187.347 289.772 187.175 290.184 187.161C291.087 187.161 292.003 187.215 292.905 187.095C294.021 186.962 295.069 186.683 295.879 185.821C296.158 185.528 296.317 185.183 296.477 184.825C296.543 184.666 296.503 184.612 296.331 184.612C295.773 184.612 295.215 184.612 294.671 184.612C293.211 184.612 291.737 184.612 290.277 184.612C289.732 184.612 289.613 184.48 289.613 183.935C289.613 183.51 289.613 183.086 289.613 182.661C289.613 182.289 289.772 182.13 290.131 182.103C290.277 182.103 290.409 182.103 290.555 182.103C292.361 182.103 294.167 182.103 295.972 182.103C296.065 182.103 296.211 182.156 296.251 182.063C296.304 181.957 296.185 181.864 296.118 181.785C295.6 181.068 294.844 180.749 294.007 180.576C292.773 180.324 291.525 180.417 290.277 180.404C289.732 180.404 289.613 180.271 289.613 179.727C289.613 179.156 289.613 178.572 289.613 178.001C289.613 177.603 289.772 177.443 290.184 177.443C294.326 177.443 298.468 177.443 302.597 177.443C302.942 177.443 303.128 177.589 303.141 177.948C303.154 178.452 303.154 178.957 303.141 179.461C303.141 179.82 302.942 179.966 302.53 179.966C301.495 179.966 300.473 179.966 299.437 179.966C299.357 179.966 299.265 179.966 299.132 179.966V179.926Z" fill="url(#paint1_linear_1243_9769)"/>
</g>
<defs>
<linearGradient id="paint0_linear_1243_9769" x1="270.15" y1="260.657" x2="323.653" y2="260.657" gradientUnits="userSpaceOnUse">
<stop stop-color="#9BCB9E"/>
<stop offset="1" stop-color="#78C1C4"/>
</linearGradient>
<linearGradient id="paint1_linear_1243_9769" x1="289.586" y1="188.077" x2="303.168" y2="188.077" gradientUnits="userSpaceOnUse">
<stop stop-color="#9BCB9E"/>
<stop offset="1" stop-color="#78C1C4"/>
</linearGradient>
<clipPath id="clip0_1243_9769">
<rect width="189.927" height="179.08" fill="white" transform="translate(133.726 132.292)"/>
</clipPath>
</defs>
</svg>
