<svg width="449" height="449" viewBox="0 0 449 449" fill="none" xmlns="http://www.w3.org/2000/svg">
<rect width="447.401" height="447.401" transform="translate(0.95459 0.859375)" fill="white"/>
<g clip-path="url(#clip0_1243_9766)">
<path d="M186.726 314.027H146.487C142.822 314.027 139.849 311.054 139.849 307.389V278.076C139.849 276.284 140.579 274.558 141.867 273.31L161.528 254.299C164.064 251.843 168.073 251.803 170.649 254.206L191.227 273.297C192.581 274.558 193.351 276.31 193.351 278.156V307.389C193.351 311.054 190.377 314.027 186.713 314.027H186.726Z" fill="#C5D8E3"/>
<path d="M249.88 314.028H209.64C205.976 314.028 203.002 311.054 203.002 307.39V250.197C203.002 248.405 203.733 246.679 205.02 245.431L224.682 226.42C227.218 223.964 231.227 223.924 233.803 226.327L254.381 245.418C255.735 246.679 256.505 248.431 256.505 250.277V307.39C256.505 311.054 253.531 314.028 249.867 314.028H249.88Z" fill="#C5D8E3"/>
<path d="M313.021 314.027H272.781C269.117 314.027 266.143 311.053 266.143 307.389V238.248C266.143 236.456 266.873 234.73 268.161 233.482L287.823 214.471C290.359 212.014 294.368 211.975 296.943 214.378L317.521 233.468C318.875 234.73 319.645 236.482 319.645 238.327V307.389C319.645 311.053 316.672 314.027 313.007 314.027H313.021Z" fill="url(#paint0_linear_1243_9766)"/>
<path d="M293.12 200.584C292.762 200.584 292.39 200.584 292.032 200.584C291.713 200.584 291.58 200.464 291.567 200.132C291.567 199.628 291.567 199.137 291.567 198.632C291.567 198.513 291.527 198.46 291.408 198.433C289.669 197.995 288.195 197.119 287 195.791C286.934 195.712 286.854 195.632 286.788 195.552C286.575 195.287 286.588 195.114 286.827 194.875C287.133 194.57 287.465 194.264 287.77 193.959C288.089 193.654 288.421 193.348 288.739 193.043C289.098 192.698 289.297 192.685 289.682 193.017C290.16 193.415 290.624 193.84 291.169 194.172C292.032 194.689 292.934 194.942 293.93 194.729C294.74 194.57 295.178 194.065 295.191 193.282C295.191 192.99 295.085 192.764 294.886 192.565C294.474 192.167 293.97 191.928 293.439 191.742C292.364 191.37 291.301 190.985 290.306 190.441C289.416 189.95 288.606 189.339 288.049 188.463C286.588 186.166 287.425 183.285 289.894 182.09C290.359 181.865 290.837 181.692 291.341 181.599C291.54 181.559 291.58 181.48 291.58 181.294C291.567 180.869 291.58 180.444 291.58 180.019C291.58 179.648 291.753 179.488 292.111 179.488C292.775 179.488 293.452 179.488 294.116 179.488C294.514 179.488 294.727 179.701 294.727 180.099C294.727 180.484 294.727 180.882 294.727 181.267C294.727 181.427 294.767 181.493 294.939 181.533C296.346 181.812 297.581 182.449 298.643 183.418C299.187 183.909 299.187 184.161 298.683 184.692C298.152 185.25 297.634 185.808 297.103 186.365C296.798 186.697 296.572 186.71 296.227 186.418C295.829 186.086 295.43 185.755 294.979 185.502C294.249 185.091 293.479 184.971 292.656 185.184C292.47 185.237 292.284 185.303 292.125 185.423C291.62 185.781 291.554 186.485 291.992 186.923C292.271 187.215 292.629 187.388 292.988 187.52C293.811 187.812 294.634 188.091 295.444 188.396C296.36 188.728 297.249 189.113 298.032 189.711C299.068 190.507 299.626 191.556 299.692 192.87C299.825 195.34 298.378 197.119 296.479 197.968C295.988 198.194 295.47 198.353 294.939 198.46C294.793 198.486 294.727 198.539 294.727 198.699C294.727 199.15 294.727 199.601 294.727 200.053C294.727 200.438 294.594 200.584 294.209 200.584C293.85 200.584 293.492 200.584 293.134 200.584H293.12Z" fill="url(#paint1_linear_1243_9766)"/>
<path d="M308.706 190.189C308.626 196.814 304.511 202.921 298.205 205.165C291.899 207.408 284.623 205.43 280.362 200.173C276.1 194.915 275.742 187.561 279.18 181.905C282.619 176.249 289.403 173.236 295.868 174.563C303.316 176.09 308.613 182.622 308.706 190.189C308.733 192.751 312.715 192.751 312.689 190.189C312.583 181.878 307.471 174.47 299.678 171.523C291.885 168.576 282.791 171.032 277.561 177.391C272.33 183.75 271.347 193.243 275.755 200.491C280.163 207.74 288.54 211.272 296.718 209.705C305.985 207.926 312.583 199.509 312.702 190.189C312.729 187.627 308.746 187.627 308.719 190.189H308.706Z" fill="#221F20"/>
<path d="M133.157 261.402C141.8 253.21 150.456 245.019 159.099 236.828L200.002 198.088C203.029 195.221 206.029 192.313 209.096 189.472C213.278 185.609 219.77 185.104 224.284 188.755C228.187 191.915 230.922 196.004 236.046 197.411C241.476 198.912 247.145 197.252 251.168 193.402C252.456 192.167 253.743 190.906 255.031 189.658C260.939 183.936 266.847 178.201 272.741 172.479C284.252 161.314 295.775 150.149 307.285 138.984L307.963 138.333C309.808 136.541 306.993 133.726 305.148 135.519C295.138 145.223 285.128 154.941 275.118 164.646L255.562 183.604L249.641 189.34C247.769 191.158 245.95 192.818 243.335 193.561C239.936 194.53 236.206 193.867 233.351 191.769C231.665 190.534 230.205 188.875 228.705 187.441C223.952 182.901 217.553 180.843 211.234 183.445C207.065 185.158 203.719 189.101 200.493 192.154C187.469 204.487 174.446 216.821 161.422 229.168C151.226 238.819 141.043 248.471 130.847 258.122L130.33 258.614C128.471 260.379 131.285 263.194 133.144 261.428L133.157 261.402Z" fill="#221F20"/>
<path d="M285.871 139.129H306.914L304.922 137.138V157.185C304.922 159.747 308.905 159.747 308.905 157.185V137.138C308.905 136.063 307.989 135.146 306.914 135.146H285.871C283.309 135.146 283.309 139.129 285.871 139.129Z" fill="#221F20"/>
</g>
<defs>
<linearGradient id="paint0_linear_1243_9766" x1="266.156" y1="263.313" x2="319.659" y2="263.313" gradientUnits="userSpaceOnUse">
<stop stop-color="#9BCB9E"/>
<stop offset="1" stop-color="#78C1C4"/>
</linearGradient>
<linearGradient id="paint1_linear_1243_9766" x1="286.628" y1="190.029" x2="299.692" y2="190.029" gradientUnits="userSpaceOnUse">
<stop stop-color="#9BCB9E"/>
<stop offset="1" stop-color="#78C1C4"/>
</linearGradient>
<clipPath id="clip0_1243_9766">
<rect width="189.927" height="179.08" fill="white" transform="translate(129.732 134.947)"/>
</clipPath>
</defs>
</svg>
