<svg width="449" height="449" viewBox="0 0 449 449" fill="none" xmlns="http://www.w3.org/2000/svg">
<rect width="447.401" height="447.401" transform="translate(0.943359 0.859375)" fill="white"/>
<g clip-path="url(#clip0_1243_9754)">
<path d="M186.714 314.027H146.474C142.81 314.027 139.836 311.054 139.836 307.389V278.076C139.836 276.284 140.567 274.558 141.854 273.31L161.516 254.299C164.052 251.843 168.061 251.803 170.637 254.206L191.215 273.297C192.569 274.558 193.339 276.31 193.339 278.156V307.389C193.339 311.054 190.365 314.027 186.701 314.027H186.714Z" fill="#C5D8E3"/>
<path d="M249.868 314.028H209.629C205.965 314.028 202.991 311.054 202.991 307.39V250.197C202.991 248.405 203.721 246.679 205.009 245.431L224.67 226.42C227.206 223.964 231.216 223.924 233.791 226.327L254.369 245.418C255.723 246.679 256.493 248.431 256.493 250.277V307.39C256.493 311.054 253.519 314.028 249.855 314.028H249.868Z" fill="#C5D8E3"/>
<path d="M313.009 314.027H272.769C269.105 314.027 266.131 311.053 266.131 307.389V238.248C266.131 236.456 266.862 234.73 268.149 233.482L287.811 214.471C290.347 212.014 294.356 211.975 296.932 214.378L317.509 233.468C318.864 234.73 319.634 236.482 319.634 238.327V307.389C319.634 311.053 316.66 314.027 312.996 314.027H313.009Z" fill="url(#paint0_linear_1243_9754)"/>
<path d="M308.694 190.189C308.615 196.814 304.499 202.921 298.193 205.165C291.887 207.408 284.612 205.43 280.35 200.173C276.089 194.915 275.73 187.561 279.169 181.905C282.607 176.249 289.391 173.236 295.856 174.563C303.304 176.09 308.601 182.622 308.694 190.189C308.721 192.751 312.704 192.751 312.677 190.189C312.571 181.878 307.46 174.47 299.667 171.523C291.874 168.576 282.78 171.032 277.549 177.391C272.318 183.75 271.336 193.243 275.743 200.491C280.151 207.74 288.528 211.272 296.706 209.705C305.973 207.926 312.571 199.509 312.69 190.189C312.717 187.627 308.734 187.627 308.708 190.189H308.694Z" fill="#221F20"/>
<path d="M133.146 261.402C141.788 253.21 150.444 245.019 159.087 236.828C172.721 223.91 186.356 210.993 199.99 198.088C203.017 195.221 206.018 192.313 209.084 189.472C213.266 185.609 219.758 185.104 224.272 188.755C228.175 191.915 230.91 196.004 236.035 197.411C241.465 198.912 247.133 197.252 251.156 193.402C252.444 192.167 253.732 190.906 255.019 189.658C260.927 183.936 266.835 178.201 272.73 172.479C284.24 161.314 295.763 150.149 307.274 138.984L307.951 138.333C309.796 136.541 306.982 133.726 305.136 135.519C295.126 145.223 285.116 154.941 275.106 164.646L255.55 183.604L249.629 189.34C247.757 191.158 245.939 192.818 243.323 193.561C239.925 194.53 236.194 193.867 233.34 191.769C231.654 190.534 230.193 188.875 228.693 187.441C223.94 182.901 217.541 180.843 211.222 183.445C207.053 185.158 203.708 189.101 200.482 192.154C187.458 204.487 174.434 216.821 161.41 229.168C151.214 238.819 141.032 248.471 130.836 258.122L130.318 258.614C128.459 260.379 131.274 263.194 133.132 261.428L133.146 261.402Z" fill="#221F20"/>
<path d="M285.859 139.129H306.902L304.91 137.138V157.185C304.91 159.747 308.893 159.747 308.893 157.185V137.138C308.893 136.063 307.977 135.146 306.902 135.146H285.859C283.297 135.146 283.297 139.129 285.859 139.129Z" fill="#221F20"/>
<path d="M292.75 190.747C293.931 190.747 295.1 190.747 296.281 190.747C296.613 190.747 296.719 190.84 296.693 191.158C296.666 191.557 296.666 191.955 296.693 192.353C296.719 192.712 296.587 192.805 296.241 192.791C294.091 192.791 291.927 192.791 289.776 192.791C289.218 192.791 289.232 192.791 289.391 193.322C290.068 195.686 292.391 196.562 294.582 196.376C295.458 196.296 296.308 196.11 297.131 195.765C297.383 195.659 297.45 195.686 297.516 195.978C297.675 196.801 297.874 197.624 298.074 198.447C298.127 198.699 298.127 198.885 297.835 199.005C294.383 200.385 291.051 200.345 287.917 198.181C286.258 197.026 285.275 195.38 284.864 193.402C284.771 192.924 284.585 192.778 284.094 192.791C282.833 192.831 282.833 192.805 282.819 191.517C282.819 191.021 283.072 190.769 283.576 190.76C284.452 190.76 284.426 190.76 284.466 189.871C284.492 189.379 284.373 189.22 283.855 189.247C282.819 189.287 282.819 189.247 282.806 188.238C282.806 187.556 283.142 187.215 283.815 187.215C284.758 187.215 284.731 187.202 285.05 186.286C286.258 182.768 288.674 180.697 292.391 180.192C294.157 179.953 295.856 180.219 297.516 180.777C297.888 180.896 298.047 181.029 297.914 181.467C297.675 182.237 297.489 183.034 297.33 183.817C297.25 184.228 297.144 184.308 296.719 184.162C295.379 183.671 294.011 183.405 292.591 183.777C291.011 184.202 289.988 185.211 289.431 186.724C289.298 187.109 289.338 187.229 289.776 187.215C291.9 187.189 294.024 187.215 296.149 187.189C296.573 187.189 296.759 187.282 296.693 187.733C296.626 188.224 296.892 188.875 296.587 189.154C296.308 189.393 295.671 189.233 295.193 189.233C293.215 189.233 291.25 189.233 289.272 189.233C288.926 189.233 288.82 189.326 288.82 189.672C288.82 190.734 288.807 190.734 289.869 190.734C290.825 190.734 291.794 190.734 292.75 190.734V190.747Z" fill="url(#paint1_linear_1243_9754)"/>
</g>
<defs>
<linearGradient id="paint0_linear_1243_9754" x1="266.145" y1="263.313" x2="319.647" y2="263.313" gradientUnits="userSpaceOnUse">
<stop stop-color="#9BCB9E"/>
<stop offset="1" stop-color="#78C1C4"/>
</linearGradient>
<linearGradient id="paint1_linear_1243_9754" x1="282.793" y1="190.017" x2="298.087" y2="190.017" gradientUnits="userSpaceOnUse">
<stop stop-color="#9BCB9E"/>
<stop offset="1" stop-color="#78C1C4"/>
</linearGradient>
<clipPath id="clip0_1243_9754">
<rect width="189.927" height="179.08" fill="white" transform="translate(129.721 134.947)"/>
</clipPath>
</defs>
</svg>
