<svg width="652" height="652" viewBox="0 0 652 652" fill="none" xmlns="http://www.w3.org/2000/svg">
<rect width="652" height="652" fill="white"/>
<path d="M519.397 253.346C537.948 253.346 552.987 247.905 552.987 241.193C552.987 234.481 537.948 229.04 519.397 229.04C500.846 229.04 485.807 234.481 485.807 241.193C485.807 247.905 500.846 253.346 519.397 253.346Z" fill="#2A4850"/>
<path d="M576.333 343.67C577.525 341.023 577.081 338.002 575.242 336.063C573.252 333.972 570.484 334.062 570.04 334.083L554.876 341.629L554.967 341.75C523.317 358.793 456.39 401.141 456.39 401.141L451.45 406.223L451.399 406.132L446.136 411.698L454.127 410.455L454.097 410.405L462.461 409.051L562.008 351.893L562.12 352.044L576.333 343.67Z" fill="#2A4850"/>
<path d="M127.229 510.062L110.116 505.93L180.488 414.364L197.601 418.486L127.229 510.062Z" fill="#2A4850"/>
<path d="M499.243 363.894L231.999 453.996L125.259 298.371L383.451 213.886L499.243 363.894Z" fill="#2A4850"/>
<path d="M481.079 220.554C479.907 220.554 478.786 220.342 477.715 219.917C472.886 218.008 471.563 212.684 471.422 212.078L471.351 211.674C468.734 187.176 471.714 179.417 472.331 178.104C473.381 175.892 475.23 174.589 477.382 174.538C477.422 174.538 477.463 174.538 477.503 174.538C482.716 174.538 488.171 182.66 491.838 189.51L485.605 192.853C483.282 188.509 480.19 184.145 478.281 182.367C476.755 187.934 477.453 202.158 478.352 210.674C478.554 211.351 479.22 212.937 480.322 213.351C481.382 213.765 483.241 213.149 485.413 211.674L489.383 217.533C486.413 219.543 483.625 220.554 481.069 220.554H481.079Z" fill="#2B63A8"/>
<path d="M515.82 323.475C522.427 332.86 511.679 345.114 493.424 346.558C484.18 347.296 486.787 342.74 483.897 333.92C481.008 325.101 485.817 315.615 494.636 312.736C503.455 309.847 510.476 315.888 515.82 323.475Z" fill="#3A62A2"/>
<path d="M493.424 346.568L226.17 436.659L139.705 263.083L397.908 178.598L493.424 346.568Z" fill="#EBF0F8"/>
<path d="M493.323 346.195L473.806 352.771L425.224 369.147L361.873 390.503L298.057 412.021L248.061 428.881L232.777 434.033L228.221 435.569C227.645 435.761 226.685 435.892 226.19 436.256C225.968 436.418 226.483 436.63 226.453 436.357C226.423 436.084 226.14 435.731 226.029 435.498L223.937 431.296L215.482 414.314L188.085 359.307L158.485 299.876L140.907 264.589L140.059 262.882L139.836 263.437L159.122 257.123L206.976 241.465L269.438 221.028L331.496 200.723L379.32 185.074L393.17 180.538L396.837 179.336C397.079 179.255 397.564 179.205 397.756 179.033C398.201 178.67 397.918 179.478 397.615 178.771C398.645 181.145 400.251 183.407 401.524 185.65L411.374 202.965L441.529 255.992L473.513 312.241L492.222 345.134L493.131 346.73C493.374 347.154 494.03 346.77 493.788 346.346L484.302 329.657L461.511 289.572L433.932 241.061L410.071 199.106L402.201 185.266C400.999 183.145 399.948 180.619 398.453 178.68C398.382 178.589 398.342 178.478 398.281 178.387C398.201 178.245 398.009 178.164 397.857 178.215L390.967 180.468L372.198 186.61L344.437 195.692L310.564 206.774L273.287 218.967L235.828 231.221L200.894 242.647L171.376 252.305L150.151 259.255C146.817 260.346 143.342 261.255 140.089 262.548C139.948 262.609 139.796 262.639 139.655 262.69C139.412 262.771 139.311 263.023 139.432 263.245L148.06 280.571L168.698 322.01L193.661 372.117L215.29 415.546L222.372 429.76C223.452 431.922 224.341 434.539 225.736 436.519C225.796 436.609 225.837 436.721 225.887 436.822C225.958 436.963 226.17 437.044 226.311 436.993L233.474 434.579L252.961 428.012L281.641 418.345L316.767 406.505L355.084 393.584L393.927 380.492L430.154 368.278L460.754 357.964L482.675 350.569C486.13 349.407 489.727 348.417 493.111 347.053C493.252 346.993 493.414 346.952 493.555 346.902C494.01 346.75 493.818 346.013 493.353 346.174L493.323 346.195Z" fill="#2A4850"/>
<path d="M366.813 326.153L319.403 299.149L319.323 298.927L319.272 299.069L319.141 298.998L319.222 299.22L301.785 350.792L301.755 361.682L337.274 348.125L338.527 347.65L374.046 334.093L366.813 326.153Z" fill="white"/>
<path d="M366.883 326.042L362.145 323.344L350.78 316.869L337.052 309.05L325.212 302.312L321.312 300.089C320.767 299.776 319.999 299.503 319.534 299.079C319.433 298.988 319.524 299.099 319.443 298.897C319.403 298.786 319.241 298.776 319.201 298.897L319.15 299.038L319.332 298.968L319.201 298.897C319.11 298.846 318.979 298.927 319.019 299.038C319.11 299.271 319.039 299.372 318.948 299.655L318.474 301.059L316.716 306.262L311.22 322.526L305.371 339.831L301.866 350.196C301.583 351.035 301.664 351.843 301.664 352.742L301.643 361.056V361.682C301.643 361.753 301.724 361.834 301.805 361.803L314.221 357.066L333.435 349.731L340.931 346.872L359.155 339.912L373.854 334.305L374.096 334.214C374.187 334.184 374.218 334.073 374.157 334.002L366.934 326.062C366.823 325.941 366.651 326.122 366.752 326.244L373.975 334.184L374.036 333.972L361.62 338.71L342.406 346.044L334.91 348.903L316.686 355.863L301.987 361.47L301.744 361.561L301.906 361.682L301.926 354.813V351.226C301.936 350.913 301.926 350.873 302.007 350.62C303.068 347.58 304.068 344.508 305.108 341.458L310.857 324.445L316.514 307.696L318.453 301.968L319.049 300.2C319.14 299.927 319.302 299.614 319.342 299.321C319.363 299.18 319.342 299.129 319.282 298.958L319.1 299.099L319.231 299.17C319.302 299.21 319.393 299.17 319.413 299.099L319.464 298.958H319.221C319.413 299.432 319.999 299.614 320.433 299.857L323.757 301.756L335.051 308.181L348.831 316.03L360.852 322.88L364.802 325.122C365.398 325.456 366.055 325.981 366.702 326.203C366.732 326.203 366.762 326.234 366.782 326.254C366.924 326.335 367.055 326.112 366.914 326.032L366.883 326.042Z" fill="#2B63A8"/>
<path d="M366.864 326.042L365.591 325.314L362.105 323.334L356.984 320.415L350.74 316.859L343.871 312.949L336.981 309.02L330.566 305.363L325.141 302.271L321.293 300.079C320.707 299.746 320.1 299.433 319.525 299.069C319.515 299.069 319.494 299.049 319.474 299.039C319.575 299.14 319.474 298.938 319.444 298.877C319.414 298.786 319.262 298.766 319.232 298.877L319.181 299.018L319.333 298.958L319.201 298.887C319.11 298.837 319.009 298.948 319.04 299.039C319.06 299.099 319.11 299.311 319.121 299.17C319.121 299.17 319.121 299.18 319.121 299.19C319.121 299.22 319.1 299.251 319.09 299.271C319.05 299.382 319.009 299.503 318.969 299.625L318.494 301.039L316.747 306.221L314.231 313.677L311.261 322.445L308.2 331.497L305.402 339.791L303.179 346.378L301.886 350.206C301.826 350.388 301.735 350.58 301.694 350.772C301.664 350.934 301.684 351.116 301.684 351.287V352.772L301.654 361.107V361.723C301.654 361.804 301.745 361.844 301.815 361.824L305.483 360.42L314.201 357.096L324.636 353.116L333.486 349.742L337.335 348.277L340.941 346.903L348.872 343.872L359.226 339.922L368.692 336.306L373.864 334.336L374.107 334.245C374.168 334.225 374.208 334.124 374.157 334.063L367.823 327.103L366.924 326.123C366.823 326.012 366.631 326.153 366.732 326.264L373.066 333.225L373.965 334.204L374.016 334.023L370.349 335.427L361.631 338.75L351.195 342.731L342.346 346.105L338.497 347.57L334.89 348.944L326.96 351.974L316.605 355.924L307.139 359.541L301.967 361.511L301.725 361.602L301.886 361.703L301.906 354.853V351.237C301.916 351.116 301.916 351.004 301.916 350.883C301.916 350.802 301.916 350.833 301.916 350.873C301.927 350.812 301.957 350.742 301.977 350.681L303.018 347.59L305.068 341.518L307.786 333.487L310.827 324.506L313.827 315.626L316.484 307.757L318.423 302.029C318.716 301.15 319.09 300.271 319.323 299.382C319.363 299.241 319.323 299.16 319.262 298.998L319.1 299.15L319.232 299.22C319.282 299.251 319.373 299.22 319.383 299.16L319.434 299.018H319.222C319.333 299.281 319.383 299.301 319.605 299.433L320.464 299.928L323.808 301.827L328.859 304.706L335.082 308.252L341.962 312.171L348.902 316.121L355.388 319.809L360.873 322.93L364.823 325.183C365.439 325.537 366.055 325.961 366.702 326.254C366.732 326.264 366.752 326.284 366.783 326.304C366.914 326.375 367.005 326.163 366.884 326.092L366.864 326.042Z" fill="black"/>
<path d="M366.934 325.931L329.546 304.635L319.525 298.927L319.424 299.16L319.464 299.18C319.555 299.21 319.646 299.109 319.616 299.029C319.484 298.645 319.181 298.574 319.04 298.998C319.009 299.089 319.11 299.19 319.191 299.15L319.343 299.089C319.444 299.049 319.474 298.917 319.373 298.857C319.009 298.655 318.807 298.877 318.959 299.251C318.999 299.342 319.131 299.392 319.191 299.281L319.211 299.241L318.979 299.14L308.18 331.093L302.704 347.277L302.058 349.186C301.876 349.732 301.563 350.328 301.522 350.903C301.432 352.237 301.522 353.601 301.522 354.944V359.238L301.502 361.177C301.502 361.41 301.401 361.773 301.664 361.895C301.826 361.965 302.028 361.824 302.159 361.773L303.189 361.379L305.25 360.591L309.251 359.066L317.211 356.025L333.243 349.903L364.985 337.791L372.915 334.77C373.42 334.578 374.663 334.427 374.046 333.74C373.076 332.669 372.107 331.608 371.127 330.537L368.298 327.426L367.581 326.638C367.419 326.456 367.197 326.092 366.985 325.981C366.853 325.91 366.732 325.86 366.611 325.991C366.449 326.173 366.651 326.345 366.783 326.476C367.278 327.022 367.783 327.577 368.278 328.123L371.107 331.234L373.834 334.235C373.905 334.305 374.016 334.265 374.046 334.174L374.097 333.992C374.127 333.901 374.036 333.8 373.945 333.841L345.538 344.68L317.363 355.429L301.654 361.42C301.553 361.46 301.522 361.592 301.623 361.652L301.785 361.753C301.866 361.804 301.977 361.733 301.977 361.642C301.987 358.015 302.028 354.389 302.007 350.772C302.007 350.631 301.785 350.59 301.755 350.742V350.782C301.714 350.944 301.937 351.004 301.987 350.853L315.837 309.878L317.777 304.15C318.09 303.211 318.403 302.271 318.737 301.342C318.979 300.665 319.575 299.625 319.343 298.897C319.312 298.806 319.201 298.776 319.131 298.837L318.969 298.988C318.908 299.039 318.929 299.15 318.999 299.19C319.272 299.352 319.424 299.291 319.525 298.988C319.555 298.907 319.484 298.826 319.403 298.826H319.191C319.09 298.826 319.05 298.927 319.08 299.008C319.302 299.513 319.919 299.705 320.373 299.968L322.879 301.392L327.718 304.15L337.355 309.636L356.984 320.809L362.237 323.799C363.126 324.304 364.035 324.809 364.914 325.325C365.288 325.547 365.651 325.779 366.035 325.991C366.288 326.133 366.571 326.355 366.864 326.345C366.904 326.345 366.955 326.325 366.975 326.284C367.045 326.123 367.056 326.102 366.955 325.951C366.874 325.809 366.651 325.941 366.732 326.082C366.631 325.9 365.975 325.688 365.773 325.567C365.459 325.385 365.156 325.193 364.843 325.011C364.085 324.567 363.318 324.143 362.56 323.708L357.943 321.082L348.498 315.697L329.536 304.898L324.263 301.898L321.757 300.473L320.505 299.756C320.111 299.534 319.494 299.332 319.302 298.887L319.191 299.079H319.403L319.282 298.927L319.131 298.978L319.161 299.18L319.323 299.029L319.11 298.968C319.262 299.422 318.939 300.079 318.787 300.503C318.646 300.908 318.494 301.312 318.353 301.716C318.05 302.584 317.767 303.453 317.474 304.322L315.777 309.333L312.372 319.395L305.563 339.548L301.765 350.792L302.007 350.863V350.823L301.765 350.792C301.785 354.419 301.745 358.046 301.735 361.662L301.927 361.551L301.765 361.45L301.735 361.682L330.001 350.893L358.044 340.195L374.026 334.093L373.875 333.942L373.824 334.124L374.036 334.063L368.722 328.224L367.47 326.85C367.379 326.749 367.045 326.325 366.965 326.325C367.126 326.335 367.52 326.931 367.641 327.062L370.379 330.073L373.046 333.002C373.268 333.245 373.521 333.477 373.713 333.73C373.965 334.073 373.976 334.093 373.571 334.245L371.692 334.962L364.136 337.851L334.112 349.307L304.058 360.783C303.482 361.006 302.836 361.369 302.23 361.48C301.795 361.561 301.775 361.501 301.775 361.066V356.035L301.805 351.984C301.805 351.398 301.765 350.853 301.967 350.297C302.209 349.631 302.422 348.964 302.644 348.297L307.796 333.053L318.131 302.473L319.232 299.2C319.282 299.069 319.07 298.978 318.999 299.099L318.979 299.14L319.211 299.17C319.151 299.099 319.161 299.059 319.252 299.059L319.282 298.826L319.131 298.887L319.282 299.039L319.373 299.069L319.525 298.917L319.484 298.897C319.353 298.847 319.262 299.059 319.383 299.13L356.266 320.132L366.793 326.123C366.934 326.203 367.066 325.981 366.924 325.9L366.934 325.931Z" fill="#2B63A8"/>
<path d="M329.567 326.313L329.93 367.5L356.368 357.408L329.567 326.313Z" fill="#2B63A8"/>
<path d="M301.785 350.882L303.533 350.215L308.251 348.427L315.272 345.77L323.788 342.548L333.173 338.992L342.588 335.426L351.428 332.082L358.843 329.273L364.217 327.243C365.056 326.919 365.904 326.616 366.743 326.283C366.783 326.273 366.813 326.253 366.854 326.243C366.995 326.192 366.914 325.97 366.773 326.02L365.025 326.687L360.307 328.475L353.286 331.132L344.77 334.355L335.385 337.911L325.97 341.477L317.131 344.821L309.716 347.629L304.341 349.66C303.503 349.983 302.654 350.286 301.816 350.619C301.775 350.629 301.745 350.65 301.705 350.66C301.563 350.71 301.644 350.932 301.785 350.882Z" fill="black"/>
<path d="M323.788 267.519C311.433 255.528 301.058 252.234 301.058 252.234C301.058 252.234 295.522 261.609 294.289 278.773C293.35 292.007 295.421 305.281 300.149 317.677L315.009 356.611L337.597 347.993L360.186 339.376L345.326 300.442C340.598 288.047 333.294 276.763 323.778 267.519H323.788Z" fill="#CCE7A0"/>
<path d="M324.051 267.246C319.202 262.569 313.857 258.356 307.978 255.053C305.816 253.841 303.533 252.628 301.159 251.871C300.997 251.82 300.815 251.901 300.735 252.042C297.734 257.154 296.199 263.407 295.138 269.166C292.774 281.975 293.37 295.28 296.633 307.877C298.088 313.474 300.199 318.828 302.26 324.223L309.625 343.508L314.666 356.721C314.736 356.903 314.928 357.065 315.13 356.984L334.951 349.418L351.003 343.286L360.307 339.74C360.489 339.669 360.651 339.477 360.57 339.275L352.246 317.454C349.134 309.302 346.336 300.866 342.548 292.987C337.931 283.41 331.678 274.671 324.061 267.246C323.707 266.903 323.172 267.438 323.525 267.782C330.324 274.419 336.042 282.096 340.457 290.512C342.639 294.674 344.396 298.997 346.063 303.382L356.62 331.042L359.833 339.467L360.095 339.002L340.275 346.569L324.222 352.701L314.918 356.247L315.383 356.509L303.927 326.506C302.341 322.354 300.654 318.222 299.24 314.009C294.946 301.24 293.461 287.582 295.108 274.196C295.795 268.681 296.997 263.185 298.916 257.962C299.603 256.073 300.361 254.154 301.381 252.416L300.957 252.588C303.27 253.325 305.493 254.517 307.594 255.699C313.423 258.972 318.707 263.145 323.515 267.782C323.869 268.125 324.404 267.59 324.051 267.246Z" fill="#2B63A8"/>
<path d="M323.859 267.428C319.858 263.549 315.504 260.013 310.786 257.033C308.16 255.366 305.412 253.85 302.533 252.668C302.068 252.477 301.593 252.285 301.108 252.133C301.038 252.113 300.987 252.133 300.957 252.194C300.118 253.618 299.472 255.194 298.876 256.73C297.229 260.932 296.088 265.327 295.29 269.772C294.158 276.156 293.754 282.672 294.047 289.137C294.35 295.684 295.37 302.19 297.057 308.514C297.977 311.938 299.108 315.292 300.381 318.616L302.594 324.404L306.079 333.537L309.908 343.558L313.12 351.983L314.827 356.459L314.908 356.661C314.928 356.721 314.999 356.752 315.06 356.731L322.677 353.822L334.87 349.165L339.396 347.437L351.034 342.992C354.044 341.841 357.095 340.76 360.085 339.537C360.136 339.517 360.186 339.497 360.237 339.477C360.297 339.457 360.328 339.386 360.307 339.325L357.752 332.617L352.276 318.272L347.134 304.806C345.831 301.391 344.568 297.977 343.043 294.653C338.881 285.602 333.264 277.207 326.404 269.984C325.576 269.115 324.727 268.256 323.869 267.418C323.758 267.317 323.616 267.499 323.717 267.6C330.981 274.661 337.002 282.965 341.527 292.027C343.447 295.876 345.003 299.856 346.528 303.867L351.428 316.696L356.994 331.274L359.045 336.638L359.701 338.355C359.812 338.638 359.893 339.032 360.055 339.285C360.075 339.315 360.085 339.366 360.105 339.406L360.176 339.255L352.559 342.164L340.366 346.821L335.84 348.549L324.202 352.994L318.353 355.226L316.292 356.014C315.928 356.156 315.494 356.257 315.151 356.449C315.11 356.479 315.05 356.489 314.999 356.509L315.151 356.58L313.969 353.489L311.059 345.872L307.311 336.062L303.664 326.506L301.048 319.636C300.3 317.686 299.553 315.727 298.896 313.746C296.795 307.433 295.381 300.886 294.694 294.259C294.007 287.632 294.057 280.955 294.865 274.358C295.492 269.206 296.573 264.094 298.25 259.174C299.017 256.922 299.896 254.669 301.038 252.567C301.088 252.477 301.139 252.386 301.189 252.295L301.038 252.355C302.492 252.82 303.887 253.497 305.25 254.174C309.029 256.053 312.595 258.366 315.949 260.912C318.676 262.993 321.272 265.246 323.737 267.63C323.849 267.731 323.99 267.549 323.889 267.448L323.859 267.428Z" fill="#CCE7A0"/>
<path d="M324.131 267.155C317.989 261.235 310.958 255.82 303.068 252.477C302.543 252.254 301.633 251.679 301.068 251.749C300.441 251.83 300.229 252.709 299.987 253.184C299.047 255.053 298.31 257.043 297.633 259.023C296.158 263.326 295.158 267.792 294.501 272.287C293.198 281.217 293.299 290.32 294.713 299.22C296.168 308.413 299.371 316.959 302.674 325.617L312.857 352.287L314.049 355.418C314.241 355.913 314.342 356.812 314.878 357.035C315.383 357.247 316.251 356.661 316.736 356.469L320.1 355.186L333.577 350.044L346.962 344.932C351.296 343.275 355.701 341.77 359.974 339.972C360.317 339.83 360.62 339.77 360.691 339.356C360.742 339.053 360.449 338.598 360.348 338.315L359.661 336.527L357.155 329.961L352.033 316.535C348.811 308.089 345.942 299.361 341.85 291.279C338.102 283.864 333.344 276.954 327.728 270.822C327.02 270.054 326.313 269.307 325.576 268.559C325.162 268.135 324.475 267.135 323.858 267.004C323.737 266.973 323.576 267.004 323.495 267.105C323.141 267.549 323.424 267.802 323.778 268.155C324.707 269.095 325.636 270.024 326.546 270.994C328.293 272.873 329.96 274.833 331.546 276.853C334.779 280.985 337.638 285.41 340.103 290.047C342.8 295.108 344.841 300.442 346.881 305.786L353.054 321.95L359.752 339.487C359.853 339.75 360.297 339.901 360.449 339.578L360.519 339.426C360.641 339.164 360.439 338.739 360.095 338.871L314.918 356.115C314.655 356.216 314.504 356.661 314.827 356.812L314.979 356.883C315.241 357.004 315.665 356.802 315.534 356.459C310.463 343.164 305.25 329.92 300.32 316.575C295.411 303.271 293.552 288.915 295.198 274.813C296.077 267.246 297.785 259.164 301.532 252.456C301.684 252.194 301.431 251.78 301.108 251.901L300.957 251.961C300.613 252.093 300.583 252.568 300.957 252.689C305.402 254.174 309.594 256.79 313.413 259.467C315.403 260.861 317.322 262.357 319.171 263.933C320.06 264.69 320.939 265.468 321.798 266.256C322.313 266.731 323.081 267.842 323.778 267.984C323.899 268.004 324.06 267.984 324.141 267.883C324.303 267.68 324.353 267.569 324.273 267.307C324.141 266.842 323.404 267.034 323.545 267.509C323.818 267.145 323.757 266.862 323.353 266.68C323.131 266.468 322.899 266.256 322.676 266.044C322.222 265.62 321.757 265.195 321.292 264.781C320.363 263.953 319.413 263.145 318.454 262.346C316.767 260.973 315.029 259.659 313.241 258.427C309.523 255.861 305.462 253.396 301.159 251.961V252.689L301.31 252.628L300.886 252.073C297.613 257.932 295.936 264.842 294.905 271.428C293.804 278.49 293.572 285.673 294.198 292.784C294.825 299.896 296.229 306.695 298.411 313.373C300.593 320.05 303.401 326.758 305.937 333.416L314.807 356.671L315.362 356.247L315.211 356.176L315.12 356.873L360.297 339.628L359.873 339.073L359.802 339.224L360.499 339.315L348.336 307.443C346.356 302.26 344.467 297.038 342.002 292.057C339.689 287.38 336.971 282.915 333.89 278.702C332.395 276.661 330.819 274.691 329.172 272.782C328.404 271.893 327.616 271.024 326.808 270.166C326.354 269.681 325.899 269.206 325.434 268.741C325.212 268.519 324.929 268.095 324.656 267.963L324.343 267.65C323.909 267.822 323.838 267.994 324.121 268.165C324.273 268.61 325.202 269.246 325.556 269.61C325.97 270.034 326.374 270.469 326.788 270.903C327.687 271.873 328.566 272.853 329.415 273.863C331.193 275.954 332.88 278.136 334.466 280.389C337.456 284.652 340.072 289.158 342.305 293.865C344.79 299.108 346.71 304.614 348.781 310.029L355.064 326.485L358.125 334.517L359.58 338.315C359.63 338.457 360.045 339.184 360.055 339.174C360.034 339.234 359.125 339.548 359.156 339.538C358.408 339.841 357.65 340.123 356.903 340.416C345.962 344.589 335.001 348.741 324.06 352.913L316.15 355.933C315.948 356.014 315.524 356.287 315.373 356.267C315.14 356.236 315.049 355.792 314.928 355.449L314.241 353.66L312.665 349.529L306.341 332.961C302.3 322.374 297.774 311.898 295.784 300.684C293.754 289.228 293.905 277.318 296.512 265.973C297.118 263.316 297.875 260.69 298.805 258.134C299.31 256.73 299.856 255.336 300.492 253.982C300.674 253.588 300.926 252.689 301.421 252.618C301.967 252.537 303.209 253.335 303.684 253.547C308.735 255.82 313.433 258.972 317.736 262.448C319.787 264.104 321.757 265.862 323.656 267.701C324.01 268.044 324.545 267.509 324.192 267.165L324.131 267.155Z" fill="#2B63A8"/>
<path d="M356.68 330.163L360.196 339.376L337.607 347.993L315.019 356.621L311.442 347.236L356.68 330.163Z" fill="white"/>
<path d="M356.316 330.264L359.832 339.477L360.095 339.013L340.274 346.579L324.222 352.711L314.918 356.257L315.382 356.52L311.806 347.145L311.543 347.61L326.858 341.831L351.154 332.658L356.781 330.537C357.236 330.365 357.034 329.638 356.579 329.809L341.264 335.588L316.968 344.761L311.341 346.882C311.16 346.953 310.998 347.145 311.079 347.347L314.655 356.722C314.726 356.904 314.918 357.065 315.12 356.984L334.94 349.418L350.993 343.286L360.297 339.74C360.479 339.669 360.64 339.477 360.559 339.275L357.044 330.062C356.872 329.607 356.135 329.809 356.316 330.264Z" fill="#2B63A8"/>
<path d="M356.569 330.203L357.761 333.325L359.65 338.275L360.085 339.416L360.155 339.265L357.903 340.124L352.508 342.184L345.992 344.67L340.335 346.832L337.607 347.872L335.809 348.559L330.677 350.519L324.192 352.994L318.342 355.226L315.14 356.449L314.999 356.509L315.15 356.58L313.948 353.418L312.018 348.367L311.574 347.195L311.503 347.347L312.715 346.892L315.999 345.65L320.878 343.811L326.818 341.568L333.324 339.113L339.89 336.638L346.012 334.325L351.205 332.365L354.912 330.971C355.498 330.749 356.094 330.537 356.68 330.304C356.701 330.304 356.731 330.284 356.751 330.274C356.892 330.223 356.812 330.001 356.67 330.052L355.458 330.506L352.175 331.749L347.295 333.588L341.355 335.83L334.849 338.285L328.283 340.76L322.161 343.073L316.969 345.033L313.261 346.427C312.675 346.65 312.079 346.862 311.493 347.094C311.473 347.094 311.443 347.114 311.422 347.124C311.362 347.145 311.331 347.215 311.352 347.276L312.554 350.438L314.483 355.489L314.928 356.661C314.948 356.722 315.019 356.752 315.079 356.732L317.332 355.873L322.727 353.812L329.243 351.327L334.9 349.165L337.628 348.125L339.426 347.438L344.558 345.478L351.043 343.003L356.892 340.77L360.095 339.548L360.236 339.487C360.297 339.467 360.327 339.396 360.307 339.336L359.115 336.214L357.226 331.264L356.791 330.122C356.741 329.981 356.519 330.062 356.569 330.203Z" fill="white"/>
<path d="M356.205 330.304L359.721 339.517C359.822 339.78 360.267 339.931 360.418 339.608L360.489 339.456C360.61 339.194 360.408 338.769 360.064 338.901L314.887 356.145C314.625 356.246 314.473 356.691 314.796 356.842L314.948 356.913C315.211 357.034 315.635 356.832 315.504 356.489L311.927 347.114C311.826 346.851 311.382 346.7 311.23 347.023L311.16 347.174C311.038 347.437 311.24 347.861 311.584 347.73L346.558 334.526C349.518 333.415 352.468 332.294 355.428 331.183C355.852 331.021 357.024 330.88 357.165 330.294C357.266 329.859 356.882 329.698 356.539 329.698C356.034 329.698 355.337 330.152 354.852 330.334L352.508 331.223L348.265 332.819L339.587 336.092L322.03 342.719C319.07 343.841 316.1 344.962 313.13 346.073C312.564 346.285 311.271 346.457 310.988 347.094C310.816 347.478 311.16 347.942 311.291 348.286L312.15 350.549L313.726 354.68C313.958 355.276 314.19 356.913 314.938 357.105C315.342 357.206 315.898 356.812 316.271 356.671L318.302 355.893L322.797 354.175L340.436 347.447L359.721 340.083C360.812 339.668 360.741 339.456 360.317 338.345L358.61 333.87L357.67 331.395C357.509 330.97 357.397 330.162 357.054 329.859C356.741 329.576 356.286 329.657 356.205 330.112C356.114 330.587 356.852 330.789 356.933 330.314L356.569 330.607L356.711 330.991C356.751 331.243 356.933 331.577 357.024 331.819L357.711 333.617L359.165 337.426C359.276 337.719 359.893 338.82 359.873 339.083L359.984 339.173L359.297 339.436L358.61 339.699L354.528 341.255L339.537 346.972L324.464 352.721L316.979 355.579C316.665 355.701 315.584 356.287 315.261 356.176C314.918 356.054 314.786 355.297 314.645 354.923L313.069 350.791L312.372 348.973L312.109 348.296C312.039 348.104 311.705 347.599 311.705 347.538L311.554 347.457C311.776 347.366 311.998 347.286 312.21 347.205C312.503 347.094 312.796 346.982 313.099 346.871C313.796 346.609 314.483 346.346 315.17 346.093L322.919 343.174L338.153 337.426L353.165 331.758C353.963 331.455 356.145 331.031 356.428 330.253C356.66 329.607 356.216 330.061 355.872 330.193C355.579 330.304 355.286 330.415 354.983 330.526C354.286 330.789 353.599 331.051 352.912 331.304L345.164 334.223L311.362 346.982L311.786 347.538L311.857 347.387L311.16 347.296L314.736 356.671L315.291 356.246L315.14 356.176L315.049 356.873L360.226 339.628L359.802 339.072L359.731 339.224L360.428 339.315L356.913 330.102C356.741 329.647 356.003 329.849 356.185 330.304H356.205Z" fill="#2B63A8"/>
<path d="M322.979 327.353C332.922 327.353 340.982 319.293 340.982 309.351C340.982 299.409 332.922 291.349 322.979 291.349C313.037 291.349 304.977 299.409 304.977 309.351C304.977 319.293 313.037 327.353 322.979 327.353Z" fill="white"/>
<path d="M339.436 303.037C341.962 309.846 340.174 317.615 334.739 322.494C329.304 327.373 320.949 328.363 314.474 324.797C307.978 321.221 304.351 313.715 305.604 306.401C306.836 299.198 312.544 293.41 319.717 292.036C328.021 290.44 336.365 295.218 339.436 303.037C339.608 303.482 340.345 303.29 340.163 302.835C337.375 295.743 330.516 290.915 322.848 290.975C315.181 291.036 308.17 296.046 305.624 303.3C303.048 310.634 305.523 319.049 311.645 323.838C317.686 328.555 326.232 329.01 332.738 324.949C340.123 320.332 343.174 310.967 340.163 302.845C339.992 302.391 339.264 302.593 339.436 303.047V303.037Z" fill="#2B63A8"/>
<path d="M339.688 302.977C341.002 306.432 341.224 310.231 340.305 313.817C339.406 317.312 337.436 320.505 334.708 322.869C331.98 325.232 328.273 326.849 324.545 327.182C320.949 327.505 317.302 326.697 314.16 324.919C310.968 323.111 308.371 320.323 306.816 316.999C305.26 313.675 304.725 309.816 305.391 306.159C306.038 302.624 307.755 299.32 310.281 296.764C312.806 294.209 316.403 292.309 320.11 291.703C323.818 291.097 327.404 291.653 330.677 293.208C333.95 294.764 336.728 297.33 338.527 300.482C338.981 301.28 339.375 302.119 339.698 302.977C339.749 303.119 339.971 303.038 339.921 302.896C338.577 299.391 336.163 296.35 333.031 294.269C329.899 292.188 326.364 291.178 322.717 291.228C319.07 291.279 315.18 292.562 312.15 294.825C309.119 297.088 306.977 300.108 305.816 303.583C304.644 307.089 304.563 310.918 305.614 314.474C306.664 318.03 308.877 321.323 311.857 323.636C314.837 325.95 318.292 327.223 321.939 327.435C325.586 327.647 329.505 326.667 332.698 324.646C335.89 322.626 338.274 319.747 339.709 316.353C341.143 312.958 341.507 309.15 340.729 305.543C340.537 304.634 340.264 303.745 339.941 302.866C339.89 302.725 339.668 302.806 339.719 302.947L339.688 302.977Z" fill="white"/>
<path d="M339.325 303.078C342.315 311.271 339.022 320.606 331.273 324.768C323.828 328.768 314.352 326.758 309.16 320.091C303.826 313.241 304.442 303.19 310.544 297.027C316.645 290.865 326.424 290.168 333.304 295.219C334.87 296.371 336.244 297.765 337.355 299.361C337.911 300.159 338.406 301.018 338.82 301.896C339.012 302.301 339.143 303.28 339.678 303.412C340.81 303.685 339.891 301.856 339.759 301.593C339.042 300.048 338.113 298.613 337.011 297.32C332.122 291.582 323.929 289.4 316.827 291.915C309.725 294.431 305.23 300.523 304.553 307.655C303.846 315.14 307.937 322.525 314.665 325.889C321.323 329.213 329.536 328.203 335.143 323.293C340.749 318.383 342.911 310.291 340.426 303.24C340.274 302.816 339.497 301.896 339.315 302.887C339.224 303.361 339.961 303.563 340.042 303.089C339.992 303.392 339.779 303.311 339.769 303.664C339.769 303.846 339.931 304.149 339.982 304.331C340.133 304.846 340.264 305.372 340.376 305.897C340.588 306.948 340.699 308.008 340.719 309.079C340.749 311.18 340.406 313.272 339.709 315.252C338.476 318.787 336.072 321.919 332.981 324.02C326.212 328.617 316.878 327.94 310.887 322.343C304.897 316.747 303.533 307.493 307.675 300.411C311.817 293.33 320.1 290.117 327.788 292.289C331.587 293.36 334.981 295.694 337.304 298.886C337.82 299.583 338.274 300.321 338.678 301.088C338.84 301.401 338.971 301.917 339.204 302.169C339.264 302.23 339.759 302.654 339.891 302.462C339.931 302.402 339.618 301.826 339.577 301.735C338.88 300.209 337.971 298.795 336.89 297.522C332.334 292.158 324.828 289.865 318.05 291.774C311.271 293.683 306.371 299.149 305.068 305.857C303.765 312.564 306.483 319.787 312.008 323.96C317.534 328.132 325.444 328.778 331.657 325.435C337.87 322.091 341.618 315.343 341.214 308.362C341.103 306.483 340.699 304.654 340.052 302.887C339.891 302.432 339.153 302.624 339.325 303.089V303.078Z" fill="#2B63A8"/>
<path d="M322.838 323.081C330.627 323.081 336.941 316.767 336.941 308.978C336.941 301.19 330.627 294.876 322.838 294.876C315.05 294.876 308.736 301.19 308.736 308.978C308.736 316.767 315.05 323.081 322.838 323.081Z" fill="white"/>
<path d="M335.9 303.988C336.931 306.695 337.103 309.675 336.375 312.484C335.648 315.292 334.122 317.707 332.001 319.555C329.789 321.475 326.98 322.657 324.061 322.919C321.141 323.182 318.403 322.546 315.949 321.162C313.494 319.778 311.423 317.575 310.2 314.979C308.978 312.383 308.554 309.352 309.079 306.483C309.584 303.725 310.928 301.139 312.898 299.149C314.868 297.159 317.676 295.664 320.575 295.179C323.475 294.694 326.293 295.128 328.859 296.351C331.425 297.573 333.587 299.563 334.991 302.028C335.355 302.654 335.658 303.321 335.921 303.998C335.971 304.139 336.193 304.058 336.143 303.917C335.082 301.169 333.193 298.785 330.738 297.149C328.354 295.563 325.515 294.724 322.656 294.764C319.797 294.805 316.726 295.805 314.342 297.593C311.958 299.381 310.281 301.735 309.372 304.463C308.443 307.22 308.392 310.231 309.22 313.019C310.049 315.807 311.786 318.394 314.11 320.202C316.373 321.96 319.161 323.02 322.02 323.182C324.879 323.344 327.96 322.586 330.465 321C332.971 319.414 334.84 317.161 335.961 314.494C337.082 311.837 337.375 308.847 336.769 306.018C336.618 305.301 336.406 304.594 336.143 303.907C336.092 303.766 335.87 303.846 335.921 303.988H335.9Z" fill="black"/>
<path d="M327.152 320.521C333.574 318.07 336.793 310.877 334.342 304.455C331.891 298.033 324.698 294.814 318.276 297.265C311.854 299.716 308.635 306.909 311.086 313.331C313.537 319.753 320.73 322.972 327.152 320.521Z" fill="#2BEBFF"/>
<path d="M318.313 297.37C320.697 296.471 323.303 296.31 325.778 296.946C328.253 297.583 330.395 298.926 332.021 300.805C333.719 302.755 334.769 305.23 334.991 307.806C335.214 310.382 334.658 312.797 333.446 314.958C332.234 317.12 330.284 318.949 327.991 320.03C325.677 321.121 323.051 321.474 320.525 321.02C317.999 320.565 315.817 319.393 314.05 317.666C312.201 315.847 310.968 313.453 310.544 310.897C310.14 308.432 310.504 305.877 311.564 303.624C312.625 301.371 314.393 299.452 316.555 298.209C317.121 297.886 317.707 297.613 318.313 297.381C318.454 297.33 318.373 297.108 318.232 297.158C315.797 298.098 313.686 299.765 312.251 301.937C310.857 304.038 310.12 306.533 310.15 309.049C310.18 311.685 311.069 314.292 312.635 316.393C314.201 318.494 316.302 319.979 318.717 320.787C321.131 321.596 323.788 321.656 326.253 320.929C328.718 320.201 331.011 318.676 332.617 316.615C334.173 314.615 335.113 312.15 335.264 309.624C335.416 307.099 334.739 304.371 333.335 302.159C331.971 299.997 329.94 298.29 327.587 297.3C325.233 296.31 322.596 296.057 320.101 296.593C319.464 296.734 318.848 296.916 318.242 297.138C318.101 297.189 318.181 297.411 318.323 297.36L318.313 297.37Z" fill="black"/>
<mask id="mask0_1197_2582" style="mask-type:luminance" maskUnits="userSpaceOnUse" x="310" y="296" width="26" height="26">
<path d="M327.15 320.463C333.556 318.018 336.767 310.843 334.322 304.437C331.877 298.03 324.702 294.819 318.296 297.264C311.889 299.709 308.678 306.885 311.123 313.291C313.568 319.697 320.744 322.908 327.15 320.463Z" fill="white"/>
</mask>
<g mask="url(#mask0_1197_2582)">
<path d="M316.608 290.93L307.118 319.862L311.438 321.279L320.928 292.347L316.608 290.93Z" fill="#DEFCFF"/>
<path d="M322.479 293.431L312.99 322.362L315.245 323.102L324.735 294.171L322.479 293.431Z" fill="#DEFCFF"/>
</g>
<path d="M318.313 297.37C320.697 296.471 323.303 296.31 325.778 296.946C328.253 297.583 330.395 298.926 332.021 300.805C333.719 302.755 334.769 305.23 334.991 307.806C335.214 310.382 334.658 312.796 333.446 314.958C332.234 317.12 330.284 318.949 327.991 320.03C325.677 321.121 323.051 321.474 320.525 321.02C317.999 320.565 315.817 319.393 314.05 317.666C312.201 315.847 310.968 313.453 310.544 310.897C310.14 308.432 310.504 305.876 311.564 303.624C312.625 301.371 314.393 299.451 316.555 298.209C317.121 297.886 317.707 297.613 318.313 297.38C318.454 297.33 318.373 297.108 318.232 297.158C315.797 298.098 313.686 299.765 312.251 301.937C310.857 304.038 310.12 306.533 310.15 309.049C310.18 311.685 311.069 314.292 312.635 316.393C314.201 318.494 316.302 319.979 318.717 320.787C321.131 321.595 323.788 321.656 326.253 320.929C328.718 320.201 331.011 318.676 332.617 316.615C334.173 314.615 335.113 312.15 335.264 309.624C335.416 307.099 334.739 304.371 333.335 302.159C331.971 299.997 329.94 298.29 327.587 297.3C325.233 296.31 322.596 296.057 320.101 296.592C319.464 296.734 318.848 296.916 318.242 297.138C318.101 297.189 318.181 297.411 318.323 297.36L318.313 297.37Z" fill="black"/>
<path d="M231.474 278.692L244 274.591L247.132 273.57C247.435 273.469 247.758 273.399 248.051 273.267C248.607 273.035 248.284 273.358 248.031 273.146C248.516 273.57 249.607 273.762 250.193 273.985L279.085 285.238L288.198 288.784C289.107 289.138 289.501 287.673 288.602 287.319L265.235 278.217L251.456 272.853C250.526 272.489 249.516 271.934 248.536 271.722C247.607 271.52 246.334 272.237 245.475 272.52L231.08 277.227C230.16 277.53 230.554 278.995 231.484 278.692H231.474Z" fill="#2B63A8"/>
<path d="M259.235 383.917L270.751 380.148L276.722 378.199C277.459 377.956 277.742 377.724 278.085 377.057L290.855 352.307L295.391 343.528C295.835 342.659 294.532 341.891 294.077 342.76L283.096 364.035L277.237 375.39C277.035 375.784 276.742 376.198 276.6 376.623C276.6 376.653 276.459 376.835 276.479 376.865C276.398 376.734 277.166 376.623 276.792 376.592C276.348 376.552 275.57 376.986 275.156 377.128L272.014 378.158L258.831 382.472C257.911 382.775 258.305 384.24 259.235 383.937V383.917Z" fill="#2B63A8"/>
<path d="M417.991 328.283L405.464 332.384L402.333 333.405C402.03 333.506 401.706 333.577 401.413 333.708C400.858 333.94 401.181 333.617 401.434 333.829C400.949 333.405 399.858 333.213 399.272 332.991L370.379 321.737L361.267 318.191C360.358 317.837 359.964 319.302 360.863 319.656L384.23 328.758L398.009 334.122C398.938 334.486 399.949 335.041 400.928 335.254C401.858 335.456 403.131 334.738 403.989 334.455L418.385 329.748C419.304 329.445 418.91 327.98 417.981 328.283H417.991Z" fill="#2B63A8"/>
<path d="M390.23 223.059L378.713 226.827L372.743 228.777C372.005 229.019 371.723 229.251 371.379 229.918L358.61 254.669L354.074 263.447C353.629 264.316 354.933 265.084 355.387 264.215L366.368 242.94L372.228 231.585C372.43 231.191 372.723 230.777 372.864 230.353C372.864 230.322 373.006 230.14 372.985 230.11C373.066 230.241 372.298 230.353 372.672 230.383C373.117 230.423 373.895 229.989 374.309 229.847L377.45 228.817L390.634 224.503C391.553 224.2 391.159 222.736 390.23 223.039V223.059Z" fill="#2B63A8"/>
<path d="M216.705 273.095L245.445 263.69L249.486 262.366C250.406 262.063 250.012 260.599 249.082 260.902L220.341 270.307L216.301 271.63C215.381 271.933 215.775 273.398 216.705 273.095Z" fill="#2B63A8"/>
<path d="M261.7 390.2L283.783 382.977L286.955 381.937C287.874 381.634 287.48 380.169 286.551 380.472L264.468 387.695L261.296 388.735C260.376 389.039 260.77 390.503 261.7 390.2Z" fill="#2B63A8"/>
<path d="M403.524 342.952L425.275 335.83L428.396 334.81C429.315 334.507 428.921 333.042 427.992 333.345L406.242 340.467L403.12 341.487C402.201 341.79 402.595 343.255 403.524 342.952Z" fill="#2B63A8"/>
<path d="M369.955 223.776L384.129 219.139L386.159 218.472C387.078 218.169 386.684 216.704 385.755 217.007L371.582 221.644L369.551 222.311C368.632 222.614 369.026 224.079 369.955 223.776Z" fill="#2B63A8"/>
<path d="M145.08 405.323L75.2126 442.469L87.6081 297.24L145.08 405.333V405.323ZM92.6794 416.021L124.582 399.06L98.3366 349.7L92.6794 416.021Z" fill="#2A4850"/>
<path d="M152.363 395.422L82.5063 432.568L94.9018 287.329L152.373 395.422H152.363ZM99.963 406.121L131.866 389.159L105.62 339.8L99.963 406.121Z" fill="#A5C661"/>
<path d="M152.182 395.099L128.441 407.717L90.9116 427.668L82.3147 432.235L82.8804 432.558L84.1129 418.122L87.0728 383.451L90.649 341.507L93.7403 305.23L94.7707 293.208L95.0839 289.51C95.1344 288.955 95.3667 288.116 95.2455 287.571C95.2253 287.5 95.2556 287.389 95.2657 287.318L94.5585 287.51L100.266 298.239L113.975 324.02L130.623 355.337L144.959 382.309L149.686 391.199C150.404 392.543 151.01 394.2 151.929 395.422C151.969 395.473 152 395.543 152.03 395.604C152.262 396.038 152.909 395.654 152.687 395.22L146.979 384.492L133.27 358.711L116.622 327.394L102.287 300.421L97.5589 291.531C96.8417 290.177 96.2254 288.551 95.3162 287.308C95.2758 287.258 95.2455 287.187 95.2152 287.126C95.0233 286.773 94.5383 286.965 94.508 287.318L93.2756 301.754L90.3156 336.425L86.7394 378.37L83.6482 414.647L82.6177 426.668C82.4662 428.497 82.0722 430.467 82.1328 432.305C82.1328 432.386 82.1227 432.477 82.1126 432.558C82.0823 432.861 82.446 433.012 82.6783 432.881L106.419 420.263L143.948 400.312L152.545 395.745C152.98 395.513 152.596 394.866 152.161 395.089L152.182 395.099Z" fill="#2B63A8"/>
<path d="M100.165 406.454L128.158 391.563L132.068 389.482C132.25 389.381 132.3 389.139 132.199 388.967L123.319 372.268L109.186 345.679L105.954 339.608C105.762 339.254 105.277 339.446 105.247 339.8L103.327 362.328L100.286 397.928L99.5893 406.121C99.5489 406.606 100.307 406.606 100.347 406.121L102.266 383.593L105.307 347.993L106.004 339.8L105.297 339.992L114.177 356.691L128.31 383.28L131.543 389.351L131.674 388.836L103.681 403.726L99.7712 405.808C99.3368 406.04 99.7206 406.686 100.155 406.464L100.165 406.454Z" fill="#2B63A8"/>
<path d="M127.745 504.062L110.631 499.93L181.003 408.364L198.117 412.485L127.745 504.062Z" fill="#2B63A8"/>
<path d="M224.604 387.078L252.81 427.285L226.17 436.66L224.604 387.078Z" fill="#3A62A2"/>
<path d="M251.497 414.557L245.415 413.375C237.111 411.758 229.13 417.365 227.857 425.73L226.18 436.67L124.077 283.47C114.349 268.863 118.37 249.133 133.038 239.495L136.594 237.162L251.487 414.567L251.497 414.557Z" fill="white"/>
<path d="M226.473 438.024L123.663 283.743C118.885 276.57 117.198 267.963 118.915 259.508C120.632 251.062 125.552 243.799 132.765 239.061L136.745 236.444L137.018 236.869L252.557 415.264L245.304 413.849C241.425 413.092 237.515 413.93 234.282 416.203C231.05 418.476 228.938 421.881 228.342 425.79L226.463 438.024H226.473ZM136.452 237.859L133.321 239.92C126.34 244.506 121.572 251.537 119.905 259.72C118.238 267.903 119.865 276.237 124.502 283.198L225.867 435.317L227.352 425.659C227.989 421.477 230.252 417.84 233.706 415.405C237.161 412.971 241.354 412.082 245.506 412.89L250.426 413.849L136.452 237.859Z" fill="#2A4850"/>
<path d="M485.12 169.759V222.917C485.12 232.191 500.153 239.707 518.71 239.707C537.268 239.707 552.3 232.191 552.3 222.917V169.759H485.131H485.12Z" fill="white"/>
<path d="M518.7 240.222C499.9 240.222 484.605 232.463 484.605 222.927V169.254H552.785V222.917C552.785 232.453 537.49 240.212 518.69 240.212L518.7 240.222ZM485.616 170.264V222.917C485.616 231.898 500.456 239.202 518.7 239.202C536.945 239.202 551.785 231.898 551.785 222.917V170.264H485.626H485.616Z" fill="#2A4850"/>
<path d="M518.701 186.55C537.252 186.55 552.29 179.033 552.29 169.76C552.29 160.487 537.252 152.97 518.701 152.97C500.149 152.97 485.111 160.487 485.111 169.76C485.111 179.033 500.149 186.55 518.701 186.55Z" fill="white"/>
<path d="M518.7 187.055C499.9 187.055 484.605 179.296 484.605 169.76C484.605 160.223 499.9 152.465 518.7 152.465C537.501 152.465 552.795 160.223 552.795 169.76C552.795 179.296 537.501 187.055 518.7 187.055ZM518.7 153.465C500.456 153.465 485.616 160.769 485.616 169.75C485.616 178.731 500.456 186.035 518.7 186.035C536.945 186.035 551.785 178.731 551.785 169.75C551.785 160.769 536.945 153.465 518.7 153.465Z" fill="#2B63A8"/>
<path d="M546.531 174.557C546.531 176.143 546.097 177.739 545.026 179.083C538.995 186.649 505.456 188.549 493.05 179.972C491.252 178.729 490.858 176.477 490.858 174.557C490.858 166.869 503.314 160.636 518.69 160.636C534.065 160.636 546.521 166.869 546.521 174.557H546.531Z" fill="#CCE7A0"/>
<path d="M546.158 174.558C546.067 178.558 543.289 180.619 539.915 181.983C536.54 183.347 533.197 184.013 529.752 184.498C521.498 185.67 512.841 185.609 504.658 183.963C501.112 183.246 497.526 182.215 494.384 180.377C493.444 179.831 492.555 179.245 492.02 178.265C491.414 177.154 491.232 175.82 491.252 174.568C491.272 172.85 491.929 171.244 492.959 169.88C495.576 166.405 499.96 164.425 503.991 163.152C509.436 161.435 515.235 160.849 520.922 161.071C526.964 161.314 533.227 162.455 538.632 165.274C542.177 167.133 546.087 170.183 546.158 174.568C546.158 175.053 546.925 175.053 546.915 174.568C546.855 170.79 544.137 167.87 541.157 165.89C536.732 162.94 531.348 161.485 526.135 160.778C519.892 159.92 513.437 160.111 507.284 161.485C502.617 162.526 497.748 164.284 494.121 167.516C491.272 170.062 489.696 173.669 490.868 177.467C492.04 181.266 496.798 182.599 500.071 183.599C508.719 186.246 518.276 186.509 527.216 185.569C531.57 185.114 536.025 184.357 540.106 182.71C543.814 181.215 546.804 178.922 546.905 174.558C546.915 174.073 546.158 174.073 546.148 174.558H546.158Z" fill="#2B63A8"/>
<path d="M460.895 402.818L574.767 337.426C574.767 337.426 577.566 329.112 569.09 328.536C560.614 327.961 454.824 394.898 454.824 394.898L444.56 405.465L460.885 402.818H460.895Z" fill="#57ABAF"/>
<path d="M461.087 403.141L474.361 395.514L505.305 377.744L540.864 357.327L567.989 341.75L574.293 338.133C574.656 337.921 574.959 337.81 575.161 337.446C575.464 336.881 575.495 335.971 575.555 335.345C575.667 334.133 575.555 332.87 575.091 331.728C574.091 329.334 571.302 327.981 568.767 328.152C567.858 328.213 566.948 328.566 566.11 328.89C562.796 330.142 559.624 331.809 556.482 333.446C545.915 338.962 535.621 345.033 525.368 351.115C513.235 358.307 501.183 365.642 489.171 373.047C479.988 378.704 470.826 384.401 461.693 390.129C459.552 391.473 457.41 392.817 455.278 394.17C454.975 394.362 454.692 394.534 454.42 394.776C452.409 396.585 450.611 398.696 448.722 400.636L444.287 405.202C444.004 405.495 444.297 405.889 444.651 405.838L460.976 403.192C461.461 403.111 461.249 402.383 460.774 402.464L444.449 405.111L444.812 405.747C448.177 402.292 451.399 398.605 454.945 395.322C455.016 395.251 455.41 394.989 455.723 394.787C456.531 394.281 457.329 393.776 458.137 393.261C465.815 388.432 473.503 383.634 481.211 378.855C492.707 371.733 504.244 364.652 515.841 357.681C526.893 351.044 537.975 344.447 549.259 338.204C553.31 335.961 557.392 333.739 561.564 331.728C563.716 330.688 566.181 329.253 568.595 328.94C571.191 328.607 574 330.243 574.636 332.85C574.909 333.971 574.858 335.183 574.636 336.315C574.586 336.598 574.464 336.891 574.434 337.174C574.404 337.456 574.394 337.234 574.535 337.123C573.323 338.002 571.868 338.659 570.575 339.396L546.764 353.064L512.366 372.814L479.807 391.513L461.552 401.999L460.683 402.495C460.259 402.737 460.643 403.394 461.067 403.151L461.087 403.141Z" fill="#2B63A8"/>
<path d="M460.895 402.818C460.975 402.465 461.561 399.828 459.783 397.454C457.965 395.029 455.177 394.908 454.823 394.898L444.559 405.465L460.884 402.818H460.895Z" fill="white"/>
<path d="M461.269 402.919C461.865 400.363 460.935 397.575 458.844 395.969C457.884 395.231 456.733 394.766 455.541 394.595C455.116 394.534 454.793 394.453 454.46 394.746C453.419 395.666 452.49 396.767 451.52 397.767L447.025 402.394L444.297 405.202C444.014 405.495 444.307 405.889 444.661 405.838L458.955 403.525L460.986 403.192C461.471 403.111 461.259 402.384 460.784 402.464L446.489 404.778L444.459 405.111L444.822 405.748L450.742 399.656L454.238 396.06C454.48 395.817 454.874 395.534 455.046 395.231C455.076 395.171 455.187 395.181 454.975 395.251C454.702 395.342 455.046 395.312 455.127 395.322C455.581 395.413 456.036 395.463 456.48 395.605C459.45 396.555 461.238 399.696 460.521 402.737C460.41 403.212 461.137 403.414 461.248 402.939L461.269 402.919Z" fill="#2B63A8"/>
<path d="M553.32 335.386L560.554 345.811L574.777 337.426C575.97 334.769 575.525 331.749 573.686 329.819C571.696 327.728 568.928 327.819 568.484 327.839C563.433 330.355 558.382 332.87 553.32 335.386Z" fill="#A5C661"/>
<path d="M552.997 335.568L560.23 345.993C560.351 346.165 560.563 346.236 560.745 346.124L572.464 339.225C573.201 338.79 573.939 338.366 574.666 337.921C575.605 337.346 575.737 335.82 575.807 334.81C576.05 330.85 573.07 327.668 569.16 327.456C568.231 327.405 567.615 327.839 566.776 328.264L562.23 330.527C559.199 332.032 556.169 333.547 553.138 335.052C552.704 335.275 553.088 335.921 553.522 335.709C558.381 333.295 563.291 330.941 568.11 328.446C569.362 327.799 571.261 328.506 572.363 329.213C574.434 330.537 575.353 333.042 574.979 335.426C574.908 335.901 574.797 336.83 574.474 337.164C574.343 337.305 574.06 337.406 573.888 337.507L571.484 338.922L564.776 342.872L560.361 345.468L560.876 345.599L553.643 335.174C553.37 334.78 552.714 335.153 552.987 335.558L552.997 335.568Z" fill="#2B63A8"/>
<path d="M449.833 399.899L452.561 404.212L444.57 405.455L449.833 399.899Z" fill="#2B63A8"/>
<path d="M190.53 415.85L193.914 416.658L194.389 416.769C194.864 416.88 195.066 416.153 194.591 416.042L191.207 415.233L190.732 415.122C190.257 415.011 190.055 415.739 190.53 415.85Z" fill="white"/>
<path d="M187.6 419.789L190.984 420.597L191.459 420.708C191.933 420.82 192.135 420.092 191.661 419.981L188.276 419.173L187.802 419.062C187.327 418.951 187.125 419.678 187.6 419.789Z" fill="white"/>
<path d="M184.489 423.648L187.873 424.456L188.348 424.568C188.822 424.679 189.024 423.951 188.55 423.84L185.165 423.032L184.691 422.921C184.216 422.81 184.014 423.537 184.489 423.648Z" fill="white"/>
<path d="M181.448 427.71L184.832 428.518L185.307 428.629C185.782 428.741 185.984 428.013 185.509 427.902L182.125 427.094L181.65 426.983C181.175 426.872 180.973 427.599 181.448 427.71Z" fill="white"/>
<path d="M178.326 431.508L181.711 432.316L182.185 432.427C182.66 432.538 182.862 431.811 182.387 431.7L179.003 430.892L178.528 430.781C178.054 430.67 177.851 431.397 178.326 431.508Z" fill="white"/>
<path d="M175.326 435.529L178.71 436.337L179.185 436.448C179.66 436.559 179.862 435.832 179.387 435.721L176.003 434.912L175.528 434.801C175.053 434.69 174.851 435.418 175.326 435.529Z" fill="white"/>
<path d="M172.386 439.478L175.77 440.287L176.245 440.398C176.72 440.509 176.922 439.782 176.447 439.67L173.063 438.862L172.588 438.751C172.113 438.64 171.911 439.367 172.386 439.478Z" fill="white"/>
<path d="M169.285 443.338L172.669 444.146L173.144 444.258C173.619 444.369 173.821 443.641 173.346 443.53L169.962 442.722L169.487 442.611C169.012 442.5 168.81 443.227 169.285 443.338Z" fill="white"/>
<path d="M166.244 447.389L169.628 448.197L170.103 448.308C170.578 448.419 170.78 447.692 170.305 447.581L166.921 446.773L166.446 446.661C165.971 446.55 165.769 447.278 166.244 447.389Z" fill="white"/>
<path d="M163.112 451.197L166.496 452.006L166.971 452.117C167.446 452.228 167.648 451.5 167.173 451.389L163.789 450.581L163.314 450.47C162.839 450.359 162.637 451.086 163.112 451.197Z" fill="white"/>
<path d="M159.526 455.895L162.91 456.703L163.385 456.814C163.859 456.925 164.062 456.198 163.587 456.087L160.202 455.279L159.728 455.168C159.253 455.056 159.051 455.784 159.526 455.895Z" fill="white"/>
<path d="M156.586 459.834L159.97 460.643L160.445 460.754C160.92 460.865 161.122 460.137 160.647 460.026L157.263 459.218L156.788 459.107C156.313 458.996 156.111 459.723 156.586 459.834Z" fill="white"/>
<path d="M153.484 463.704L156.869 464.512L157.344 464.623C157.818 464.734 158.02 464.007 157.546 463.896L154.161 463.088L153.687 462.976C153.212 462.865 153.01 463.593 153.484 463.704Z" fill="white"/>
<path d="M150.444 467.754L153.828 468.563L154.303 468.674C154.778 468.785 154.98 468.057 154.505 467.946L151.121 467.138L150.646 467.027C150.171 466.916 149.969 467.643 150.444 467.754Z" fill="white"/>
<path d="M147.312 471.553L150.697 472.361L151.172 472.473C151.646 472.584 151.848 471.856 151.374 471.745L147.989 470.937L147.515 470.826C147.04 470.715 146.838 471.442 147.312 471.553Z" fill="white"/>
<path d="M144.15 475.918L147.534 476.726L148.009 476.837C148.484 476.948 148.686 476.221 148.211 476.11L144.827 475.301L144.352 475.19C143.877 475.079 143.675 475.806 144.15 475.918Z" fill="white"/>
<path d="M141.21 479.857L144.594 480.665L145.069 480.776C145.544 480.887 145.746 480.16 145.271 480.049L141.887 479.241L141.412 479.13C140.937 479.019 140.735 479.746 141.21 479.857Z" fill="white"/>
<path d="M138.109 483.726L141.493 484.534L141.968 484.645C142.443 484.757 142.645 484.029 142.17 483.918L138.786 483.11L138.311 482.999C137.836 482.888 137.634 483.615 138.109 483.726Z" fill="white"/>
<path d="M135.068 487.778L138.452 488.586L138.927 488.697C139.402 488.808 139.604 488.081 139.129 487.97L135.745 487.161L135.27 487.05C134.795 486.939 134.593 487.667 135.068 487.778Z" fill="white"/>
<path d="M131.937 491.576L135.321 492.384L135.796 492.495C136.271 492.606 136.473 491.879 135.998 491.768L132.614 490.96L132.139 490.849C131.664 490.737 131.462 491.465 131.937 491.576Z" fill="white"/>
<path d="M128.856 495.091L132.24 495.899L132.715 496.01C133.19 496.122 133.392 495.394 132.917 495.283L129.533 494.475L129.058 494.364C128.583 494.253 128.381 494.98 128.856 495.091Z" fill="white"/>
<path d="M125.926 499.041L129.31 499.849L129.785 499.96C130.26 500.071 130.462 499.344 129.987 499.233L126.602 498.425L126.128 498.314C125.653 498.203 125.451 498.93 125.926 499.041Z" fill="white"/>
<path d="M161.344 190.428L165.072 198.54C165.183 198.793 165.385 198.985 165.637 199.106L173.749 202.834C174.638 203.238 174.638 204.501 173.749 204.915L165.637 208.643C165.385 208.754 165.193 208.956 165.072 209.208L161.344 217.32C160.94 218.209 159.677 218.209 159.263 217.32L155.535 209.208C155.424 208.956 155.222 208.764 154.969 208.643L146.857 204.915C145.968 204.511 145.968 203.248 146.857 202.834L154.969 199.106C155.222 198.995 155.414 198.793 155.535 198.54L159.263 190.428C159.667 189.539 160.93 189.539 161.344 190.428Z" fill="white"/>
<path d="M161.021 190.62L164.476 198.126C164.85 198.924 165.244 199.328 166.052 199.702L170.406 201.702C171.386 202.157 172.699 202.51 173.558 203.157C175.144 204.349 171.759 205.41 171.052 205.743L166.476 207.844C165.668 208.218 165.042 208.451 164.627 209.289C163.971 210.602 163.395 211.956 162.789 213.29C162.243 214.472 161.819 215.997 161.061 217.048C159.899 218.664 159.081 215.977 158.728 215.219L156.576 210.542C156.192 209.703 155.939 208.764 155.101 208.279C153.99 207.642 152.727 207.188 151.565 206.652C150.191 206.026 148.615 205.511 147.342 204.713C145.676 203.672 147.484 202.965 148.413 202.541L153.646 200.136C154.555 199.722 155.485 199.47 155.96 198.54C156.717 197.065 157.354 195.51 158.041 194.004L159.192 191.499C159.475 190.883 160.172 189.236 161.021 190.63C161.273 191.044 161.93 190.661 161.677 190.246C160.829 188.862 159.374 189.378 158.768 190.62C158 192.206 157.293 193.823 156.566 195.419C156.121 196.399 155.697 198.156 154.757 198.803C153.586 199.601 152.01 200.066 150.737 200.652C149.464 201.238 147.999 201.763 146.757 202.48C145.514 203.197 145.575 204.652 146.807 205.309C148.221 206.056 149.737 206.652 151.181 207.319C152.323 207.844 153.747 208.269 154.788 208.976C155.222 209.269 155.343 209.683 155.545 210.138L156.667 212.562C157.384 214.118 158.051 215.704 158.819 217.229C159.425 218.442 160.9 218.826 161.688 217.502C162.385 216.32 162.87 214.926 163.445 213.684C164.072 212.33 164.577 210.804 165.355 209.532C165.91 208.612 167.426 208.249 168.355 207.824L173.356 205.531C174.437 205.036 175.538 203.804 174.275 202.723C173.952 202.45 173.467 202.288 173.083 202.116L170.345 200.864C168.911 200.207 167.153 199.682 165.85 198.793C165.355 198.459 165.183 197.863 164.94 197.338L163.647 194.53L161.677 190.246C161.475 189.802 160.819 190.186 161.021 190.63V190.62Z" fill="#2B63A8"/>
<path d="M357.731 440.004L360.226 445.429C360.307 445.59 360.439 445.732 360.6 445.802L366.025 448.298C366.621 448.57 366.621 449.419 366.025 449.692L360.6 452.187C360.439 452.268 360.297 452.399 360.226 452.561L357.731 457.986C357.458 458.582 356.61 458.582 356.337 457.986L353.842 452.561C353.761 452.399 353.63 452.258 353.468 452.187L348.043 449.692C347.447 449.419 347.447 448.57 348.043 448.298L353.468 445.802C353.63 445.722 353.771 445.59 353.842 445.429L356.337 440.004C356.61 439.408 357.458 439.408 357.731 440.004Z" fill="white"/>
<path d="M357.398 440.196L359.681 445.156C359.934 445.712 360.216 446.045 360.782 446.308L363.611 447.611L365.055 448.278C365.257 448.368 365.682 448.469 365.833 448.641C366.54 449.419 364.581 449.965 364.237 450.116L361.085 451.561C360.54 451.813 360.125 451.975 359.832 452.531C359.378 453.379 359.024 454.298 358.62 455.177L357.953 456.642C357.812 456.945 357.681 457.46 357.458 457.713C356.721 458.562 356.287 456.965 356.105 456.571L354.66 453.42C354.398 452.854 354.216 452.187 353.65 451.854C352.902 451.429 352.064 451.126 351.286 450.763C350.397 450.349 349.367 450.015 348.538 449.5C348.265 449.328 347.649 449.247 348.276 448.621C348.457 448.439 348.922 448.318 349.165 448.217L352.64 446.621C353.286 446.318 353.913 446.146 354.256 445.479C354.761 444.52 355.165 443.499 355.62 442.509L356.367 440.873C356.448 440.691 356.903 439.388 357.418 440.196C357.681 440.61 358.337 440.226 358.075 439.812C357.469 438.842 356.378 439.105 355.933 440.024C355.428 441.054 354.973 442.125 354.488 443.166C354.195 443.802 353.903 445.035 353.286 445.479C352.569 445.994 351.539 446.287 350.741 446.651C349.811 447.075 348.821 447.449 347.922 447.944C347.023 448.439 347.033 449.55 347.922 450.045C348.811 450.54 349.811 450.914 350.741 451.339C351.528 451.702 352.569 451.995 353.286 452.51C353.892 452.945 354.185 454.177 354.488 454.824C354.973 455.874 355.428 456.935 355.933 457.966C356.378 458.875 357.479 459.168 358.075 458.178C358.519 457.44 358.812 456.571 359.176 455.794C359.61 454.844 359.974 453.743 360.53 452.854C360.893 452.278 361.833 452.046 362.419 451.773L365.783 450.227C366.54 449.884 367.328 449.156 366.631 448.278C366.399 447.985 366.015 447.853 365.682 447.702L363.853 446.863L361.853 445.944C361.53 445.792 361.105 445.681 360.823 445.469C360.519 445.247 360.418 444.883 360.267 444.55L359.398 442.671L358.075 439.792C357.873 439.347 357.216 439.731 357.418 440.176L357.398 440.196Z" fill="#2B63A8"/>
<path d="M457.177 142.746L459.673 148.171C459.753 148.333 459.885 148.474 460.046 148.545L465.471 151.04C466.067 151.313 466.067 152.161 465.471 152.434L460.046 154.929C459.885 155.01 459.743 155.142 459.673 155.303L457.177 160.728C456.905 161.324 456.056 161.324 455.783 160.728L453.288 155.303C453.207 155.142 453.076 155 452.914 154.929L447.489 152.434C446.893 152.161 446.893 151.313 447.489 151.04L452.914 148.545C453.076 148.464 453.217 148.333 453.288 148.171L455.783 142.746C456.056 142.15 456.905 142.15 457.177 142.746Z" fill="white"/>
<path d="M456.844 142.928L459.128 147.888C459.38 148.444 459.663 148.777 460.229 149.04L463.057 150.343L464.502 151.01C464.704 151.101 465.128 151.202 465.28 151.374C465.987 152.152 464.027 152.697 463.684 152.849L460.532 154.293C459.986 154.546 459.572 154.707 459.279 155.263C458.824 156.112 458.471 157.031 458.067 157.91L457.4 159.375C457.259 159.678 457.127 160.193 456.905 160.446C456.168 161.294 455.733 159.698 455.551 159.304L454.107 156.152C453.844 155.586 453.662 154.92 453.096 154.586C452.349 154.162 451.51 153.859 450.733 153.495C449.844 153.081 448.813 152.748 447.985 152.232C447.712 152.061 447.096 151.98 447.722 151.354C447.904 151.172 448.369 151.05 448.611 150.949L452.086 149.353C452.733 149.05 453.359 148.879 453.703 148.212C454.208 147.252 454.612 146.232 455.066 145.242L455.814 143.605C455.895 143.423 456.349 142.12 456.865 142.928C457.127 143.342 457.784 142.959 457.521 142.544C456.915 141.575 455.824 141.837 455.38 142.757C454.874 143.787 454.42 144.858 453.935 145.898C453.642 146.535 453.349 147.767 452.733 148.212C452.016 148.727 450.985 149.02 450.187 149.384C449.258 149.808 448.268 150.182 447.369 150.677C446.469 151.172 446.48 152.283 447.369 152.778C448.258 153.273 449.258 153.647 450.187 154.071C450.975 154.435 452.016 154.728 452.733 155.243C453.339 155.677 453.632 156.91 453.935 157.556C454.42 158.607 454.874 159.668 455.38 160.698C455.824 161.607 456.925 161.9 457.521 160.91C457.966 160.173 458.259 159.304 458.622 158.526C459.057 157.577 459.42 156.475 459.976 155.586C460.34 155.011 461.279 154.778 461.865 154.505L465.229 152.96C465.987 152.616 466.775 151.889 466.078 151.01C465.845 150.717 465.462 150.586 465.128 150.434L463.3 149.596L461.299 148.676C460.976 148.525 460.552 148.414 460.269 148.202C459.966 147.979 459.865 147.616 459.713 147.282L458.845 145.403L457.521 142.524C457.319 142.08 456.663 142.464 456.865 142.908L456.844 142.928Z" fill="#2B63A8"/>
<path d="M376.875 201.067L302.755 226.059L273.146 182.893L344.76 159.456L376.875 201.067Z" fill="#2A4850"/>
<path d="M379.865 187.59L305.745 212.583L276.145 169.416L347.75 145.989L379.865 187.59Z" fill="#B0CDD0"/>
<path d="M379.764 187.227L354.589 195.713L314.776 209.139L305.644 212.22L306.068 212.392L296.047 197.774L280.146 174.589L276.469 169.225L276.246 169.78L300.492 161.85L339.082 149.222L347.861 146.353L347.437 146.182L358.266 160.214L375.551 182.61L379.542 187.783C379.835 188.166 380.491 187.783 380.198 187.399L369.369 173.367L352.084 150.97L348.093 145.798C347.992 145.666 347.841 145.565 347.669 145.626L323.424 153.556L284.833 166.184L276.055 169.053C275.842 169.124 275.681 169.397 275.832 169.609L285.854 184.227L301.755 207.411L305.432 212.775C305.523 212.907 305.694 213.008 305.856 212.947L331.031 204.461L370.844 191.036L379.976 187.954C380.431 187.803 380.239 187.065 379.774 187.227H379.764Z" fill="#2B63A8"/>
<path d="M295.835 176.246L310.776 171.407L334.617 163.688L340.113 161.91C340.578 161.759 340.376 161.032 339.911 161.183L324.97 166.022L301.128 173.74L295.633 175.518C295.168 175.67 295.37 176.397 295.835 176.246Z" fill="#3A62A2"/>
<path d="M301.321 185.529L316.262 180.69L340.103 172.972L345.599 171.194C346.063 171.042 345.861 170.315 345.396 170.467L330.455 175.306L306.614 183.024L301.118 184.802C300.654 184.953 300.856 185.681 301.321 185.529Z" fill="#3A62A2"/>
<path d="M307.644 194.379L330.122 187.106L333.314 186.075C333.779 185.924 333.577 185.196 333.112 185.348L310.634 192.622L307.442 193.652C306.978 193.803 307.18 194.531 307.644 194.379Z" fill="#3A62A2"/>
<path d="M340.204 426.477L286.117 444.711L264.518 413.213L316.767 396.12L340.204 426.477Z" fill="#2A4850"/>
<path d="M342.387 416.648L288.299 434.882L266.701 403.383L318.95 386.291L342.387 416.648Z" fill="#B0CDD0"/>
<path d="M342.285 416.284L324.071 422.426L294.886 432.266L288.198 434.518L288.622 434.69L269.701 407.111L267.014 403.201L266.791 403.757L284.43 397.989L312.565 388.786L319.05 386.664L318.626 386.492L339.174 413.112L342.063 416.85C342.356 417.233 343.013 416.85 342.72 416.466L322.172 389.846L319.283 386.108C319.182 385.977 319.03 385.876 318.858 385.937L301.22 391.705L273.085 400.908L266.6 403.03C266.387 403.1 266.226 403.373 266.377 403.585L285.299 431.164L287.986 435.074C288.077 435.205 288.249 435.306 288.41 435.246L306.625 429.104L335.81 419.264L342.497 417.011C342.952 416.86 342.76 416.122 342.295 416.284H342.285Z" fill="#2B63A8"/>
<path d="M313.656 420.647L307.342 423.234L294.583 398.261L300.897 395.675L313.656 420.647Z" fill="#DC6F5D"/>
<path d="M313.554 420.284L307.24 422.87L307.665 423.042L296.502 401.201L294.896 398.07L294.673 398.625L300.987 396.039L300.563 395.867L311.726 417.708L313.332 420.84C313.554 421.274 314.211 420.89 313.989 420.456L302.826 398.615L301.22 395.483C301.149 395.352 300.937 395.251 300.795 395.312L294.481 397.898C294.249 397.989 294.138 398.221 294.259 398.453L305.422 420.294L307.028 423.426C307.099 423.557 307.311 423.658 307.453 423.598L313.766 421.012C314.211 420.83 314.019 420.092 313.564 420.284H313.554Z" fill="#2B63A8"/>
<path d="M322.95 417.445L316.424 419.981L308.109 403.706L314.636 401.171L322.95 417.445Z" fill="#9CB2DB"/>
<path d="M322.849 417.082L316.322 419.628L316.747 419.799L309.483 405.586L308.433 403.525L308.21 404.08L314.736 401.535L314.312 401.363L321.576 415.577L322.626 417.638C322.849 418.072 323.505 417.688 323.283 417.254L316.019 403.04L314.969 400.979C314.898 400.848 314.686 400.747 314.544 400.807L308.018 403.353C307.786 403.444 307.675 403.676 307.796 403.909L315.06 418.123L316.11 420.183C316.181 420.315 316.393 420.416 316.535 420.355L323.061 417.809C323.505 417.638 323.313 416.9 322.859 417.082H322.849Z" fill="#2B63A8"/>
<path d="M305.694 424.022L299.421 426.497L293.572 415.051L299.845 412.576L305.694 424.022Z" fill="#9CB2DB"/>
<path d="M305.594 423.659L299.32 426.134L299.744 426.305L294.643 416.314L293.895 414.86L293.673 415.415L299.946 412.94L299.522 412.768L304.624 422.76L305.371 424.214C305.594 424.649 306.25 424.265 306.028 423.83L300.926 413.839L300.179 412.385C300.108 412.253 299.896 412.152 299.754 412.213L293.481 414.688C293.249 414.779 293.138 415.011 293.259 415.244L298.36 425.235L299.108 426.689C299.179 426.821 299.391 426.922 299.532 426.861L305.806 424.386C306.25 424.214 306.058 423.477 305.604 423.659H305.594Z" fill="#2B63A8"/>
<path d="M483.07 333.577C485.626 322.515 497.506 316.403 507.992 320.747L516.286 324.182L411.061 161.415C402.757 148.575 385.624 144.898 372.774 153.192L367.904 156.344L483.07 333.567V333.577Z" fill="white"/>
<path d="M483.292 334.85L482.646 333.85L367.208 156.202L372.501 152.778C378.825 148.686 386.361 147.312 393.726 148.888C401.09 150.474 407.394 154.828 411.486 161.142L517.589 325.263L507.8 321.202C502.941 319.181 497.465 319.414 492.788 321.818C488.111 324.222 484.747 328.546 483.565 333.678L483.292 334.84V334.85ZM368.602 156.495L482.868 332.344C484.322 327.415 487.727 323.303 492.323 320.929C497.263 318.383 503.052 318.151 508.184 320.272L514.973 323.091L410.637 161.698C406.697 155.596 400.616 151.404 393.514 149.878C386.412 148.353 379.148 149.686 373.047 153.626L368.602 156.495Z" fill="#2A4850"/>
</svg>
