<svg width="449" height="449" viewBox="0 0 449 449" fill="none" xmlns="http://www.w3.org/2000/svg">
<rect width="447.401" height="447.401" transform="translate(0.977539 0.859375)" fill="white"/>
<g clip-path="url(#clip0_1243_9782)">
<path d="M266.378 205.867C285.075 205.867 300.232 190.71 300.232 172.013C300.232 153.316 285.075 138.159 266.378 138.159C247.681 138.159 232.524 153.316 232.524 172.013C232.524 190.71 247.681 205.867 266.378 205.867Z" fill="url(#paint0_linear_1243_9782)"/>
<path d="M188.355 300.445C202.367 300.445 213.726 289.086 213.726 275.075C213.726 261.063 202.367 249.704 188.355 249.704C174.344 249.704 162.985 261.063 162.985 275.075C162.985 289.086 174.344 300.445 188.355 300.445Z" fill="#C5D8E3"/>
<path d="M271.051 177.828V253.873C271.051 254.51 271.025 255.148 271.051 255.785C271.157 258.095 272.658 260.1 274.981 260.578C275.817 260.75 276.72 260.684 277.57 260.684H287.155C288.084 260.684 292.532 260.153 291.655 262.011C291.363 262.649 290.633 263.273 290.195 263.804L286.571 268.278L261.931 298.68C258.572 302.822 255.213 306.964 251.854 311.119C251.044 312.128 250.234 313.137 249.411 314.133C248.747 314.93 248.057 315.275 247.261 314.345C241.047 307.057 235.179 299.436 229.139 291.989C221.691 282.788 214.243 273.601 206.782 264.401C206.185 263.671 205.375 262.914 204.91 262.091C203.954 260.405 206.968 260.684 207.977 260.684H217.682C218.438 260.684 219.208 260.724 219.978 260.684C222.395 260.564 224.466 258.931 224.811 256.475C225.183 253.78 224.837 250.86 224.811 248.164C224.771 242.084 224.731 235.99 224.691 229.91L224.452 194.304C224.452 193.427 224.306 192.445 224.439 191.569C224.678 189.936 228.143 190.6 229.298 190.6H238.644C239.813 190.6 240.941 190.586 242.003 190.002C244.008 188.9 245.004 186.431 244.313 184.254C243.955 183.112 243.052 182.169 242.309 181.253L239.043 177.231C235.365 172.69 231.688 168.15 228.01 163.61C220.098 153.838 212.172 144.067 204.26 134.309C202.348 131.893 200.224 128.043 196.692 128.322C193.599 128.561 191.448 132.411 189.696 134.575C181.73 144.412 173.765 154.237 165.786 164.074L154.886 177.523L151.753 181.399C150.917 182.435 150.014 183.431 149.748 184.798C149.297 187.095 150.651 189.471 152.842 190.281C153.797 190.64 154.78 190.6 155.776 190.6H165.175C166.343 190.6 170.021 189.923 170.339 191.516C170.472 192.166 170.339 192.976 170.339 193.64V269.459C170.339 272.021 174.322 272.021 174.322 269.459V193.414C174.322 192.777 174.349 192.14 174.322 191.502C174.216 189.192 172.716 187.188 170.392 186.71C169.556 186.537 168.653 186.604 167.804 186.604H158.218C157.289 186.604 152.842 187.135 153.718 185.276C154.01 184.639 154.74 184.015 155.178 183.484L158.802 179.01C167.02 168.88 175.225 158.737 183.443 148.608L193.519 136.168C194.329 135.159 195.139 134.15 195.962 133.154C196.626 132.358 197.316 132.013 198.113 132.942C204.326 140.231 210.194 147.851 216.234 155.299C223.682 164.499 231.13 173.686 238.591 182.886C239.189 183.617 239.999 184.373 240.463 185.196C241.419 186.882 238.405 186.604 237.396 186.604H227.692C226.935 186.604 226.165 186.564 225.395 186.604C222.979 186.723 220.908 188.356 220.562 190.812C220.191 193.507 220.536 196.428 220.562 199.123C220.602 205.203 220.642 211.297 220.682 217.377L220.921 252.984C220.921 253.86 221.067 254.842 220.934 255.719C220.695 257.351 217.23 256.688 216.075 256.688H206.729C205.561 256.688 204.432 256.701 203.37 257.285C201.365 258.387 200.37 260.856 201.06 263.034C201.418 264.175 202.321 265.118 203.065 266.034L206.331 270.057L217.363 283.678C225.275 293.449 233.201 303.22 241.114 312.978C243.039 315.354 245.163 319.218 248.694 318.939C251.788 318.7 253.938 314.85 255.691 312.686C263.656 302.848 271.622 293.024 279.601 283.187L290.5 269.738L293.634 265.861C294.47 264.826 295.373 263.83 295.638 262.463C296.09 260.166 294.736 257.79 292.545 256.98C291.589 256.621 290.607 256.661 289.611 256.661H280.212C279.043 256.661 275.366 257.338 275.047 255.745C274.914 255.095 275.047 254.285 275.047 253.621V177.802C275.047 175.239 271.064 175.239 271.064 177.802L271.051 177.828Z" fill="#221F20"/>
</g>
<defs>
<linearGradient id="paint0_linear_1243_9782" x1="232.538" y1="172.013" x2="300.232" y2="172.013" gradientUnits="userSpaceOnUse">
<stop stop-color="#9BCB9E"/>
<stop offset="1" stop-color="#78C1C4"/>
</linearGradient>
<clipPath id="clip0_1243_9782">
<rect width="150.563" height="190.67" fill="white" transform="translate(149.669 128.309)"/>
</clipPath>
</defs>
</svg>
