<svg width="449" height="449" viewBox="0 0 449 449" fill="none" xmlns="http://www.w3.org/2000/svg">
<rect width="447.401" height="447.401" transform="translate(0.98877 0.859375)" fill="white"/>
<g clip-path="url(#clip0_1243_9763)">
<path d="M215.449 308.903C222.565 313.748 228.447 317.957 228.447 317.957C228.447 317.957 259.778 299.809 275.643 279.483C312.232 232.579 305.209 177.218 303.363 165.031C253.352 161.021 228.46 129.637 228.447 129.637C228.447 129.637 222.406 135.93 215.41 141.652C219.565 147.387 230.69 155.777 245.108 163.477C260.336 171.602 274.408 172.784 281.564 172.903C283.343 184.042 289.742 232.008 258.636 273.987C244.471 293.104 226.787 302.889 215.436 308.916L215.449 308.903Z" fill="url(#paint0_linear_1243_9763)"/>
<path d="M281.577 170.898C258.875 169.026 236.133 159.879 219.91 143.59C218.835 142.514 217.852 141.359 216.83 140.231C216.126 139.461 214.719 139.461 214.016 140.231C203.342 151.954 189.76 160.57 174.719 165.654C166.487 168.442 157.924 170.168 149.255 170.885C148.459 170.952 147.476 171.456 147.33 172.345C144.648 190.096 145.233 208.416 149.162 225.941C152.242 239.708 157.539 253.024 165.04 264.999C168.904 271.172 173.298 277.027 178.396 282.244C183.069 287.01 188.18 291.325 193.451 295.401C197.832 298.786 202.359 301.986 206.993 305.026C209.342 306.566 211.706 308.212 214.188 309.526C215.994 310.482 217.733 308.902 219.233 307.96C223.003 305.623 226.694 303.167 230.305 300.618C240.886 293.144 251.241 284.807 259.181 274.491C268.208 262.768 274.939 249.399 279.227 235.234C285.002 216.13 286.529 195.552 283.967 175.757C283.821 174.616 283.661 173.474 283.489 172.345C283.104 169.823 279.267 170.898 279.652 173.408C279.997 175.691 280.25 177.749 280.502 180.444C280.86 184.334 281.073 188.237 281.126 192.14C281.272 202.987 280.25 213.833 277.926 224.427C274.966 237.876 269.894 250.793 262.646 262.516C258.928 268.517 254.72 274.199 249.781 279.257C245.294 283.864 240.395 288.059 235.324 291.989C228.725 297.1 221.742 302.211 214.401 306.234H216.405C210.338 302.981 204.59 298.773 199.053 294.697C188.499 286.917 178.754 278.142 171.28 267.295C156.836 246.293 149.946 221.002 149.707 195.632C149.667 190.985 149.826 186.338 150.224 181.718C150.37 180.059 150.53 178.386 150.742 176.727C150.915 175.359 150.968 174.934 151.193 173.421L149.268 174.881C172.926 172.93 196.518 163.57 213.511 146.656C214.679 145.501 215.741 144.267 216.843 143.059H214.029C225.181 155.286 239.439 164.194 255.105 169.518C263.668 172.425 272.589 174.151 281.604 174.894C284.153 175.107 284.139 171.124 281.604 170.912L281.577 170.898Z" fill="#221F20"/>
<path d="M187.517 221.082C192.522 227.8 197.514 234.517 202.519 241.235C203.329 242.337 204.577 242.523 205.652 241.633C210.63 237.544 215.609 233.442 220.587 229.353L244.405 209.771C246.237 208.271 248.055 206.77 249.888 205.257C251.866 203.624 249.038 200.823 247.073 202.442C242.095 206.531 237.116 210.634 232.138 214.723L208.32 234.305C206.488 235.805 204.669 237.305 202.837 238.819L205.971 239.217C200.965 232.499 195.974 225.782 190.969 219.064C189.455 217.033 186.003 219.011 187.53 221.069L187.517 221.082Z" fill="#221F20"/>
</g>
<defs>
<linearGradient id="paint0_linear_1243_9763" x1="215.423" y1="223.79" x2="305.129" y2="223.79" gradientUnits="userSpaceOnUse">
<stop stop-color="#9BCB9E"/>
<stop offset="1" stop-color="#78C1C4"/>
</linearGradient>
<clipPath id="clip0_1243_9763">
<rect width="159.432" height="188.32" fill="white" transform="translate(145.697 129.637)"/>
</clipPath>
</defs>
</svg>
