<svg width="40" height="40" viewBox="0 0 40 40" fill="none" xmlns="http://www.w3.org/2000/svg">
<rect width="40" height="40" fill="white"/>
<g clip-path="url(#clip0_1202_5333)">
<path d="M27.6992 28.9998H14.0415C13.1201 28.9998 12.3138 28.177 12.0834 26.9922L10.1088 16.6585C9.82906 15.1775 10.6847 13.7295 11.8366 13.7295H25.5436C26.4322 13.7295 27.222 14.5358 27.4359 15.6712L29.427 26.0708C29.7067 27.5517 28.8511 28.9998 27.6992 28.9998Z" fill="#0565AD"/>
<path d="M27.9297 28.917H14.815C13.9264 28.917 13.153 28.0943 12.9391 26.9095L11.0303 16.6087C10.7506 15.1277 11.5734 13.6797 12.6923 13.6797H25.8728C26.7284 13.6797 27.4854 14.4695 27.6828 15.6214L29.5916 26.0045C29.8714 27.4855 29.0486 28.9335 27.9297 28.9335V28.917Z" fill="#A8CDD0"/>
<path d="M27.9295 28.8684H16.2464C15.7692 28.8684 15.2756 28.8684 14.7984 28.8684C13.8934 28.8684 13.2845 28.0292 13.0542 27.2229C12.9884 27.0089 12.9554 26.7786 12.9225 26.5647C12.5276 24.4255 12.1327 22.2864 11.7378 20.1472L11.1948 17.2017C11.1618 17.0043 11.1289 16.8068 11.0796 16.6258C10.9315 15.8195 11.0796 14.8816 11.6555 14.2563C11.9681 13.9107 12.3466 13.7626 12.7909 13.7626H25.7245C26.1524 13.7626 26.5308 13.8778 26.8435 14.174C27.2878 14.5854 27.5181 15.1449 27.6169 15.7372C27.9789 17.6789 28.3244 19.6206 28.6864 21.5459C28.8839 22.6484 29.0978 23.7673 29.2953 24.8698C29.4269 25.5938 29.6408 26.3507 29.5257 27.0748C29.394 27.8975 28.851 28.8519 27.9131 28.8684C27.8308 28.8684 27.8308 29 27.9131 29C28.7523 29 29.3282 28.2595 29.5586 27.519C29.7231 26.9925 29.7231 26.433 29.6244 25.89L29.1966 23.6028L27.8966 16.5271C27.7485 15.7208 27.6498 14.8816 27.0903 14.2398C26.7448 13.8614 26.3005 13.6475 25.8068 13.6475C25.5929 13.6475 25.379 13.6475 25.1651 13.6475H12.7909C11.3593 13.6475 10.7669 15.3094 10.9479 16.5271C11.0302 17.103 11.1618 17.6789 11.2606 18.2384L12.5934 25.4293C12.7086 26.0216 12.7744 26.6305 12.939 27.2064C13.1529 27.9962 13.6959 28.819 14.568 28.9835C14.749 29.0165 14.9465 29 15.1275 29H27.9624C27.9624 29 28.0447 28.8684 27.9624 28.8684H27.9295Z" fill="#0565AD"/>
<path d="M20.8705 20.6564C21.6975 20.6564 22.3679 20.0229 22.3679 19.2413C22.3679 18.4597 21.6975 17.8262 20.8705 17.8262C20.0435 17.8262 19.373 18.4597 19.373 19.2413C19.373 20.0229 20.0435 20.6564 20.8705 20.6564Z" fill="white"/>
<path d="M22.3183 19.2417C22.3183 19.834 21.907 20.3277 21.3639 20.5087C20.8209 20.6897 20.1627 20.5416 19.7678 20.0973C19.3729 19.653 19.34 19.0442 19.6362 18.5505C19.9488 18.0404 20.5741 17.7936 21.1665 17.9088C21.8082 18.024 22.3183 18.567 22.3183 19.2417C22.3183 19.3239 22.45 19.3239 22.4335 19.2417C22.4335 18.5999 22.0057 18.0569 21.3968 17.8594C20.788 17.662 20.064 17.8265 19.6362 18.3366C19.2083 18.8467 19.1919 19.5049 19.5374 20.0315C19.883 20.5581 20.5576 20.8213 21.1829 20.7062C21.874 20.5745 22.4171 19.9821 22.4335 19.2581C22.4335 19.1758 22.3183 19.1758 22.3183 19.2581V19.2417Z" fill="#0565AD"/>
<path d="M23.8816 23.9969C23.8816 22.5324 22.631 21.3477 21.0842 21.3477C19.5374 21.3477 18.2869 22.5324 18.2869 23.9969H23.898H23.8816Z" fill="white"/>
<path d="M23.9475 24.0139C23.9475 22.862 23.1577 21.8583 22.0881 21.4798C20.9692 21.0849 19.6528 21.3975 18.8794 22.2861C18.468 22.7633 18.2376 23.3721 18.2212 24.0139C18.2212 24.0468 18.2541 24.0797 18.287 24.0797H23.8982C23.8982 24.0797 23.9805 23.9481 23.8982 23.9481H18.287L18.3528 24.0139C18.3528 22.9114 19.1098 21.9406 20.1464 21.595C21.1831 21.2494 22.4337 21.5127 23.1742 22.3519C23.5855 22.8127 23.8159 23.4051 23.8324 24.0303C23.8324 24.1126 23.964 24.1126 23.964 24.0303L23.9475 24.0139Z" fill="#0565AD"/>
<path d="M19.4205 25.2516C19.423 25.0971 19.2778 24.9695 19.096 24.9665C18.9143 24.9635 18.7649 25.0863 18.7624 25.2408C18.7599 25.3953 18.9051 25.5229 19.0869 25.5259C19.2686 25.5289 19.418 25.4061 19.4205 25.2516Z" fill="#0565AD"/>
<path d="M21.6954 25.2858C21.698 25.1313 21.5527 25.0037 21.3709 25.0007C21.1892 24.9977 21.0398 25.1205 21.0373 25.275C21.0348 25.4295 21.18 25.5571 21.3618 25.5601C21.5435 25.5631 21.6929 25.4403 21.6954 25.2858Z" fill="#0565AD"/>
<path d="M23.9706 25.32C23.9731 25.1655 23.8278 25.0379 23.6461 25.0349C23.4644 25.0319 23.315 25.1547 23.3125 25.3092C23.3099 25.4636 23.4552 25.5913 23.6369 25.5943C23.8187 25.5972 23.968 25.4744 23.9706 25.32Z" fill="#0565AD"/>
<path d="M25.5272 18.5011C27.7628 18.5011 29.5751 16.6888 29.5751 14.4532C29.5751 12.2176 27.7628 10.4053 25.5272 10.4053C23.2916 10.4053 21.4792 12.2176 21.4792 14.4532C21.4792 16.6888 23.2916 18.5011 25.5272 18.5011Z" fill="#0565AD"/>
<path d="M21.3806 14.4534C21.3806 16.1647 22.4831 17.7444 24.0957 18.3203C25.7082 18.8962 27.5841 18.3861 28.6702 17.0368C29.7562 15.6875 29.8878 13.7787 28.9828 12.3142C28.0778 10.8497 26.3664 10.0928 24.688 10.4219C22.7793 10.8003 21.397 12.5117 21.3806 14.4534C21.3806 14.5356 21.4958 14.5356 21.4958 14.4534C21.4958 12.7914 22.5489 11.2775 24.1286 10.7016C25.6918 10.1421 27.4854 10.6358 28.555 11.9028C29.6245 13.1699 29.7562 15.0786 28.8841 16.5102C28.0119 17.9418 26.3171 18.6823 24.688 18.3367C22.8451 17.9583 21.5122 16.2963 21.4958 14.4369C21.4958 14.3546 21.3641 14.3546 21.3806 14.4369V14.4534Z" fill="#0565AD"/>
<path d="M25.988 18.5673C28.2327 18.5673 30.0524 16.7476 30.0524 14.5029C30.0524 12.2582 28.2327 10.4385 25.988 10.4385C23.7433 10.4385 21.9236 12.2582 21.9236 14.5029C21.9236 16.7476 23.7433 18.5673 25.988 18.5673Z" fill="#AACD76"/>
<path d="M30.0194 14.5032C30.0194 16.1651 28.9498 17.7119 27.3701 18.2714C25.7904 18.8308 23.9968 18.3372 22.9108 17.0537C21.8248 15.7702 21.6931 13.8614 22.5817 12.4134C23.4703 10.9653 25.1816 10.2413 26.8271 10.5869C28.6865 10.9653 30.0194 12.6273 30.0358 14.5196C30.0358 14.6019 30.1675 14.6019 30.1675 14.5196C30.1675 12.7918 29.065 11.2122 27.4359 10.6362C25.8069 10.0603 23.9145 10.5704 22.8285 11.9197C21.7425 13.269 21.6108 15.1943 22.5159 16.6752C23.4209 18.1562 25.1651 18.9131 26.86 18.584C28.7852 18.2055 30.1674 16.4778 30.1839 14.5361C30.1839 14.4538 30.0687 14.4538 30.0523 14.5361L30.0194 14.5032Z" fill="#0565AD"/>
<path d="M24.5728 14.6343L24.9841 14.2888L25.7246 14.9634L27.0739 13.2686C27.0739 13.2686 27.7157 13.4331 27.6828 14.009C27.6828 14.009 25.8892 15.8684 25.7575 15.8026C25.6259 15.7368 24.5728 14.6179 24.5728 14.6179V14.6343Z" fill="white"/>
</g>
<defs>
<clipPath id="clip0_1202_5333">
<rect width="20.0916" height="18.66" fill="white" transform="translate(10.0593 10.3398)"/>
</clipPath>
</defs>
</svg>
