<svg width="40" height="40" viewBox="0 0 40 40" fill="none" xmlns="http://www.w3.org/2000/svg">
<rect width="40" height="40" fill="white"/>
<g clip-path="url(#clip0_1202_5404)">
<path d="M26.8718 24.1751L13.8502 31.3884L8.73718 19.6994C8.49094 19.1345 8.70821 18.4682 9.25862 18.164L20.2089 12.095C20.8028 11.7618 21.556 12.0225 21.8312 12.6454L26.8718 24.1751Z" fill="#0565AD"/>
<path d="M26.8429 24.1025C26.4084 24.3487 25.9739 24.5805 25.5538 24.8267C24.5109 25.4061 23.4825 25.971 22.4396 26.5504C21.194 27.2456 19.9483 27.9409 18.6881 28.6217L15.4291 30.4322L14.3573 31.0261L14.0241 31.2144C14.0241 31.2144 13.8793 31.2723 13.8503 31.3158C13.8503 31.3158 13.8358 31.3158 13.8213 31.3158H13.8938C13.5172 30.4757 13.1406 29.6356 12.7784 28.781C12.0397 27.0863 11.301 25.3916 10.5623 23.6969L8.92556 19.9454C8.88211 19.8585 8.83866 19.7571 8.80969 19.6702C8.57793 19.1198 8.78072 18.497 9.30216 18.1928C9.53391 18.0624 9.76567 17.9321 9.99742 17.8017L14.1255 15.5132C15.6754 14.6586 17.2107 13.804 18.7606 12.9494L20.0642 12.2252C20.0642 12.2252 20.18 12.1528 20.2525 12.1238C20.8319 11.8196 21.5271 12.0658 21.7878 12.6597C22.1934 13.5578 22.57 14.4558 22.9611 15.3538C23.6998 17.063 24.453 18.7577 25.1917 20.4669L26.7415 24.0011L26.8284 24.1894C26.8284 24.1894 26.9443 24.1894 26.9154 24.1315C26.5243 23.2479 26.1477 22.3644 25.7566 21.4953L23.497 16.3243L21.9327 12.7611C21.8747 12.6452 21.8313 12.5149 21.7589 12.4135C21.4257 11.9355 20.7884 11.7617 20.267 11.9934C20.0062 12.1093 19.7455 12.2686 19.4993 12.4135C18.0943 13.1956 16.6893 13.9633 15.2988 14.7455C13.7489 15.6001 12.1846 16.4691 10.6347 17.3237L9.37458 18.019C9.25871 18.0769 9.15732 18.1349 9.05592 18.2218C8.6069 18.5839 8.47654 19.1922 8.69381 19.7137C9.08489 20.6262 9.49046 21.5387 9.88154 22.4368C10.6347 24.1604 11.3879 25.8841 12.1411 27.6078L13.7199 31.1999L13.7924 31.3882C13.7924 31.3882 13.8503 31.4172 13.8648 31.4027C14.2993 31.1565 14.7339 30.9247 15.1539 30.6785C16.1968 30.0991 17.2252 29.5342 18.2681 28.9548C19.5138 28.2596 20.7594 27.5643 22.0196 26.8835C23.1059 26.2752 24.1923 25.6813 25.2786 25.073L26.3505 24.4791C26.5098 24.3922 26.7126 24.3198 26.8574 24.2039C26.8574 24.2039 26.8719 24.2039 26.8864 24.2039C26.9443 24.1749 26.8864 24.0735 26.8284 24.117L26.8429 24.1025Z" fill="#0565AD"/>
<path d="M10.2871 20.4963L19.282 8.86523L25.5683 13.5437L16.8631 25.2183L10.2871 20.4963Z" fill="white"/>
<path d="M19.0501 11.1974L12.3438 20.2213C12.5755 20.5255 12.6334 20.931 12.5031 21.2931L15.9939 23.8859C16.298 23.6541 16.7036 23.5962 17.0657 23.7265L23.772 14.7027C23.5403 14.3985 23.4824 13.9929 23.6127 13.6308L20.1219 11.0381C19.8178 11.2698 19.4122 11.3278 19.0501 11.1974Z" fill="#AACD76"/>
<path d="M15.9795 23.9148L12.4743 21.3076C12.6046 20.9455 12.5467 20.5399 12.3149 20.2358V20.2068L19.0358 11.1829C19.3834 11.3133 19.789 11.2554 20.0931 11.0381L23.5984 13.6453C23.468 14.0074 23.526 14.413 23.7577 14.7172V14.7461L17.0369 23.7845C16.6748 23.6541 16.2837 23.7121 15.9795 23.9293V23.9148ZM12.5177 21.2931L15.9795 23.8714C16.2837 23.6396 16.6893 23.5817 17.0514 23.7121L23.7432 14.7172C23.526 14.413 23.4535 14.0074 23.5839 13.6598L20.1221 11.0815C19.8179 11.3133 19.4124 11.3567 19.0647 11.2409L12.3729 20.2358C12.5901 20.5399 12.6626 20.9455 12.5322 21.2931H12.5177Z" fill="#0565AD"/>
<path d="M19.166 8.3584L9.51929 21.3221L16.7036 26.6669L26.3503 13.7032L19.166 8.3584ZM24.3659 14.4274L24.6122 14.6157L17.2106 24.5811L16.9643 24.3928C16.7471 24.2334 16.4284 24.2769 16.2691 24.4942L16.0808 24.7404L11.6485 21.4524L11.8368 21.2062C11.9961 20.9889 11.9527 20.6703 11.7354 20.5109L11.4892 20.3226L18.8908 10.3573L19.137 10.5456C19.3543 10.7049 19.6729 10.6614 19.8323 10.4442L20.0206 10.1979L24.4528 13.4859L24.2645 13.7322C24.1052 13.9494 24.1487 14.2681 24.3659 14.4274Z" fill="#AACD76"/>
<path d="M16.7038 26.6955H16.6893L9.49048 21.3362L19.1517 8.3291H19.1661L26.365 13.7029L16.7038 26.71V26.6955ZM9.53393 21.3217L16.6893 26.6376L26.3215 13.7029L19.1661 8.38704L9.53393 21.3217ZM16.0809 24.769H16.0665L11.6197 21.4521L11.8225 21.1769C11.9818 20.9596 11.9384 20.6699 11.7211 20.5106L11.4604 20.3078L18.8909 10.328L19.1661 10.5308C19.3834 10.6901 19.6731 10.6466 19.8324 10.4294L20.0352 10.1686H20.0497L24.4965 13.4856L24.2937 13.7608C24.1343 13.9781 24.1778 14.2678 24.3951 14.4271L24.6558 14.6299L17.2397 24.6242L16.9645 24.4214C16.7472 24.2621 16.4575 24.3055 16.2982 24.5228L16.0954 24.7835L16.0809 24.769ZM11.6776 21.4521L16.0809 24.7256L16.2548 24.4938C16.4286 24.2621 16.7472 24.2186 16.979 24.3925L17.2107 24.5663L24.5978 14.6299L24.3516 14.4561C24.1199 14.2822 24.0764 13.9636 24.2502 13.7318L24.424 13.5001L20.0207 10.2266L19.8469 10.4728C19.6731 10.7046 19.3544 10.748 19.1227 10.5742L18.8909 10.4004L11.5038 20.3368L11.7501 20.5106C11.9818 20.6844 12.0253 21.0031 11.8515 21.2348L11.6776 21.4666V21.4521Z" fill="#0565AD"/>
<path d="M28.8707 27.0578L14.3282 31.9391C13.5895 32.1853 12.7784 31.7942 12.5322 31.041L8.57788 19.2796L24.4529 13.9348C25.1916 13.6886 26.0028 14.0796 26.249 14.8328L29.7543 25.2762C30.0005 26.0149 29.6094 26.826 28.8562 27.0723L28.8707 27.0578Z" fill="#6E94D0"/>
<path d="M28.8562 26.9856C28.4217 27.1305 28.0016 27.2753 27.5671 27.4202C26.5242 27.7678 25.4813 28.1299 24.424 28.4775C23.1204 28.9121 21.8167 29.3466 20.5131 29.7956L16.8775 31.0123C16.1243 31.2731 15.3566 31.5193 14.6034 31.78C14.4441 31.8379 14.2848 31.8959 14.111 31.9249C13.4012 32.0552 12.7784 31.6062 12.5611 30.9544C12.3439 30.3026 12.1121 29.6073 11.8804 28.9266C11.4603 27.6954 11.0547 26.4642 10.6347 25.233C10.2146 24.0018 9.79458 22.7417 9.37453 21.5105L8.66478 19.3378L8.63582 19.2364L8.59236 19.3088C9.01241 19.164 9.43247 19.0191 9.85252 18.8888C10.8954 18.5411 11.9383 18.179 12.9957 17.8314L16.9934 16.4843C18.297 16.0498 19.6006 15.6153 20.9042 15.1662L23.6997 14.2248L24.3805 13.993C24.8875 13.8192 25.4089 13.8626 25.829 14.2248C26.1042 14.471 26.2056 14.7896 26.3214 15.1083L26.698 16.2526L27.9582 19.9896C28.3782 21.2353 28.7983 22.4809 29.2183 23.7266L29.6094 24.8999C29.7108 25.1895 29.8122 25.4648 29.7977 25.7834C29.7543 26.3338 29.3922 26.7828 28.8707 26.9711C28.7983 27.0001 28.8273 27.1015 28.8997 27.0725C29.6674 26.7973 30.0729 25.9717 29.8267 25.204C29.7543 24.9868 29.6818 24.7695 29.6094 24.5522C29.2328 23.4369 28.8562 22.3216 28.4796 21.2063L27.1181 17.1651C26.8574 16.3829 26.5966 15.6153 26.3359 14.8331C26.1186 14.2103 25.5682 13.7612 24.8875 13.7757C24.6412 13.7757 24.4384 13.8626 24.2067 13.9351L21.9616 14.6883L18.2391 15.9339C16.8485 16.3974 15.4725 16.8609 14.082 17.3244C12.9088 17.7155 11.721 18.1211 10.5478 18.5122L8.66478 19.1495L8.57788 19.1785C8.57788 19.1785 8.53442 19.2219 8.53442 19.2509C8.70824 19.7723 8.88205 20.2938 9.05587 20.8007L10.2436 24.3494L11.5472 28.2313L12.4018 30.7661C12.4887 31.0413 12.5756 31.302 12.7639 31.5193C13.1695 31.9973 13.8068 32.1276 14.3862 31.9393C14.9656 31.751 15.516 31.5627 16.0809 31.3744C17.2107 30.9978 18.3549 30.6068 19.4847 30.2302C20.8028 29.7811 22.1209 29.3466 23.4535 28.8976C24.6123 28.5065 25.7855 28.1154 26.9443 27.7243L28.8128 27.1015L28.8997 27.0725C28.8997 27.0725 28.9431 26.9422 28.8707 26.9711L28.8562 26.9856Z" fill="#0565AD"/>
<path d="M10.0262 20.6406C10.5187 20.4813 11.0257 20.322 11.5181 20.1771C12.7059 19.8005 13.9081 19.4239 15.0958 19.0473L19.3977 17.6858C20.6434 17.2947 21.8891 16.9036 23.1347 16.5126L24.3659 16.1215C24.5542 16.0635 24.7715 16.0201 24.9453 15.9332C24.9453 15.9332 24.9598 15.9332 24.9743 15.9332C25.0467 15.9187 25.0177 15.8028 24.9453 15.8318C24.4528 15.9911 23.9459 16.1504 23.4534 16.2953C22.2657 16.6719 21.0635 17.0485 19.8757 17.4251L15.5738 18.7866C14.3281 19.1777 13.0825 19.5688 11.8368 19.9599L10.6056 20.351C10.4173 20.4089 10.2001 20.4523 10.0262 20.5393C10.0262 20.5393 10.0118 20.5393 9.99727 20.5393C9.92485 20.5537 9.95382 20.6696 10.0262 20.6406Z" fill="#0565AD"/>
<path d="M10.3304 21.5537C10.8229 21.3944 11.3299 21.2351 11.8223 21.0902C13.0101 20.7136 14.2123 20.337 15.4 19.9604L19.7019 18.5989C20.9476 18.2078 22.1933 17.8167 23.4389 17.4256L24.6701 17.0346C24.8584 16.9766 25.0757 16.9332 25.2495 16.8463C25.2495 16.8463 25.264 16.8463 25.2785 16.8463C25.3509 16.8318 25.3219 16.7159 25.2495 16.7449C24.757 16.9042 24.2501 17.0635 23.7576 17.2084L20.1799 18.3382L15.878 19.6997C14.6323 20.0908 13.3867 20.4819 12.141 20.873L10.9098 21.264C10.7215 21.322 10.5043 21.3654 10.3304 21.4523C10.3304 21.4523 10.316 21.4523 10.3015 21.4523C10.229 21.4668 10.258 21.5827 10.3304 21.5537Z" fill="#0565AD"/>
<path d="M26.8138 21.6115L26.6834 19.5837L26.7414 20.5976L26.6689 19.5837C27.3642 19.5403 28.5374 19.2506 28.8706 18.7726C28.914 18.7146 29.001 18.5843 28.914 18.2656C28.8127 17.889 28.6388 17.8021 28.5809 17.7731C28.3202 17.6428 27.8712 17.6718 27.3207 17.8745L26.6255 15.9626C28.016 15.4556 28.9575 15.6874 29.4934 15.9626C30.1597 16.3102 30.6232 16.9041 30.855 17.7152C31.1447 18.7581 30.826 19.4968 30.5073 19.9458C29.4789 21.3943 27.06 21.5826 26.7848 21.5971L26.8138 21.6115Z" fill="#0565AD"/>
<path d="M26.9007 21.3801C27.3007 21.3801 27.625 21.0558 27.625 20.6559C27.625 20.2559 27.3007 19.9316 26.9007 19.9316C26.5008 19.9316 26.1765 20.2559 26.1765 20.6559C26.1765 21.0558 26.5008 21.3801 26.9007 21.3801Z" fill="white"/>
</g>
<defs>
<clipPath id="clip0_1202_5404">
<rect width="22.48" height="23.7112" fill="white" transform="translate(8.52002 8.3291)"/>
</clipPath>
</defs>
</svg>
