<svg width="449" height="448" viewBox="0 0 449 448" fill="none" xmlns="http://www.w3.org/2000/svg">
<rect width="447.401" height="447.401" transform="translate(0.96582 0.0566406)" fill="white"/>
<g clip-path="url(#clip0_1243_9768)">
<path d="M284.209 196.674L248.47 140.729C245.935 136.76 240.677 135.605 236.708 138.14L144.625 196.98H283.731L284.223 196.674H284.209Z" fill="#C5D8E3"/>
<path d="M303.128 274.604V293.124C303.128 294.983 303.115 296.789 302.424 298.568C300.778 302.803 296.676 305.206 292.241 305.219C290.834 305.219 289.427 305.219 288.02 305.219H146.046C144.48 305.219 142.966 305.259 141.426 304.847C136.554 303.506 133.739 299.085 133.726 294.187C133.726 291.956 133.726 289.713 133.726 287.482V227.687C133.726 222.39 133.646 217.079 133.726 211.782C133.806 205.954 138.426 201.347 144.254 201.268C145.263 201.254 146.272 201.268 147.294 201.268H282.338C285.749 201.268 289.175 201.228 292.587 201.268C298.468 201.347 303.048 206.007 303.115 211.875C303.168 215.964 303.115 220.067 303.115 224.156V234.591C303.115 237.153 307.097 237.153 307.097 234.591C307.097 226.983 307.217 219.363 307.097 211.769C306.978 204.175 300.592 197.418 292.64 197.298C291.79 197.298 290.954 197.298 290.104 197.298H153.467C150.241 197.298 146.989 197.179 143.763 197.298C135.983 197.59 129.876 204.003 129.756 211.743C129.743 213.269 129.756 214.783 129.756 216.309V276.065C129.756 282.198 129.73 288.332 129.756 294.465C129.783 300.599 133.381 306.042 139.129 308.259C141.267 309.082 143.484 309.188 145.727 309.188H281.236C284.993 309.188 288.763 309.228 292.52 309.188C298.8 309.109 304.389 305.192 306.38 299.192C307.721 295.156 307.084 290.137 307.084 285.955V274.578C307.084 272.016 303.101 272.016 303.101 274.578L303.128 274.604Z" fill="#221F20"/>
<path d="M311.624 271.166C300.632 271.166 289.626 271.166 278.634 271.166C274.478 271.166 270.336 271.219 266.181 271.166C261.72 271.113 257.511 268.883 255.148 265.059C253.144 261.82 253.183 258.381 253.183 254.73C253.183 251.079 252.865 247.667 254.405 244.441C256.582 239.888 261.136 237.06 266.154 236.994C269.924 236.94 273.695 236.994 277.452 236.994C288.803 236.994 300.22 236.662 311.571 236.994C314.904 237.087 316.855 239.649 316.868 242.808C316.868 245.477 316.868 248.159 316.868 250.827V261.329C316.868 263.187 317.16 265.351 316.722 267.183C316.151 269.56 314.014 271.1 311.624 271.179C309.062 271.259 309.062 275.242 311.624 275.162C316.802 275.003 320.732 271.007 320.851 265.842C320.904 263.373 320.851 260.904 320.851 258.434V247.11C320.851 244.853 321.103 242.37 320.612 240.14C319.656 235.812 315.674 233.051 311.385 233.011C309.62 232.998 307.841 233.011 306.075 233.011C298.813 233.011 291.551 233.011 284.289 233.011H267.044C263.817 233.011 260.711 233.582 257.857 235.175C253.024 237.883 249.878 242.862 249.294 248.345C248.975 251.425 249.201 254.637 249.201 257.731C249.214 262.537 250.94 267.143 254.471 270.489C257.697 273.542 261.932 275.136 266.353 275.149C268.066 275.149 269.778 275.149 271.491 275.149H310.642C310.974 275.149 311.292 275.149 311.624 275.149C314.187 275.149 314.187 271.166 311.624 271.166Z" fill="#221F20"/>
<path d="M277.545 252.619C277.532 253.814 277.253 254.677 276.483 255.792C276.151 256.283 276.616 255.646 276.39 255.912C276.284 256.031 276.178 256.151 276.071 256.257C275.979 256.35 275.899 256.429 275.806 256.522C275.793 256.536 275.315 256.934 275.633 256.695C275.381 256.894 275.116 257.053 274.837 257.213C274.731 257.279 274.611 257.332 274.505 257.385C274.292 257.478 274.279 257.491 274.452 257.412C274.359 257.452 274.279 257.478 274.186 257.518C273.881 257.624 273.576 257.717 273.257 257.783C273.164 257.797 272.752 257.863 273.111 257.823C272.952 257.85 272.779 257.85 272.606 257.863C272.275 257.876 271.943 257.863 271.597 257.837C271.239 257.797 272.036 257.943 271.438 257.81C271.252 257.77 271.053 257.73 270.867 257.677C270.681 257.624 270.496 257.558 270.323 257.505C270.27 257.491 269.978 257.345 270.27 257.491C269.978 257.359 269.699 257.213 269.433 257.04C268.902 256.708 268.69 256.496 268.146 255.872C268.345 256.111 268.146 255.872 268.106 255.832C268 255.673 267.893 255.513 267.801 255.354C267.734 255.248 267.668 255.142 267.615 255.022C267.615 254.995 267.336 254.438 267.495 254.81C267.376 254.518 267.283 254.199 267.203 253.894C267.177 253.761 267.15 253.641 267.123 253.509C267.084 253.27 267.084 253.256 267.11 253.455C267.11 253.363 267.084 253.256 267.084 253.163C267.057 252.858 267.057 252.553 267.084 252.261C267.084 252.234 267.163 251.597 267.097 251.995C267.123 251.862 267.137 251.743 267.177 251.61C267.243 251.291 267.349 250.986 267.455 250.681C267.641 250.136 267.283 250.96 267.562 250.455C267.654 250.296 267.734 250.123 267.84 249.951C267.92 249.818 268.013 249.685 268.093 249.552C268.146 249.486 268.398 249.167 268.186 249.433C268.385 249.194 268.597 248.968 268.836 248.756C268.809 248.782 269.274 248.384 269.062 248.543C268.849 248.703 269.341 248.344 269.314 248.357C269.633 248.145 269.964 247.959 270.31 247.8C270.23 247.84 269.991 247.906 270.363 247.787C270.549 247.72 270.721 247.667 270.907 247.614C271.027 247.574 271.159 247.548 271.279 247.521C271.239 247.521 271.876 247.415 271.597 247.455C271.319 247.495 271.969 247.428 271.929 247.428C272.102 247.428 272.261 247.428 272.434 247.428C272.606 247.428 272.766 247.441 272.938 247.455C273.39 247.481 272.792 247.388 273.191 247.495C273.576 247.587 273.934 247.68 274.306 247.813C274.877 248.012 274.133 247.72 274.452 247.88C274.651 247.972 274.85 248.079 275.036 248.198C275.142 248.265 275.248 248.331 275.355 248.397C275.461 248.464 275.567 248.543 275.66 248.61C275.501 248.49 275.514 248.504 275.7 248.65C275.925 248.875 276.151 249.088 276.364 249.313C276.762 249.725 276.191 249.035 276.523 249.499C276.629 249.659 276.735 249.805 276.828 249.977C276.921 250.15 277.014 250.309 277.107 250.482C277.306 250.827 277.067 250.296 277.213 250.707C277.346 251.079 277.439 251.451 277.532 251.823C277.545 251.876 277.585 252.208 277.545 251.876C277.572 252.141 277.585 252.407 277.585 252.672C277.598 253.748 278.488 254.664 279.576 254.664C280.665 254.664 281.581 253.748 281.568 252.672C281.515 248.769 279.112 245.384 275.474 244.003C271.836 242.622 267.694 243.817 265.331 246.711C262.968 249.605 262.397 254 264.428 257.385C266.46 260.771 270.35 262.404 274.173 261.713C278.474 260.943 281.515 256.947 281.581 252.685C281.594 251.61 280.652 250.694 279.59 250.694C278.528 250.694 277.611 251.61 277.598 252.685L277.545 252.619Z" fill="#221F20"/>
<path d="M267.19 150.739L145.82 196.913H291.578L275.421 154.443C274.173 151.151 270.482 149.491 267.19 150.753V150.739Z" fill="url(#paint0_linear_1243_9768)"/>
</g>
<defs>
<linearGradient id="paint0_linear_1243_9768" x1="151.401" y1="222.524" x2="282.37" y2="172.695" gradientUnits="userSpaceOnUse">
<stop stop-color="#9BCB9E"/>
<stop offset="1" stop-color="#78C1C4"/>
</linearGradient>
<clipPath id="clip0_1243_9768">
<rect width="191.174" height="172.415" fill="white" transform="translate(129.743 136.8)"/>
</clipPath>
</defs>
</svg>
